G04*
G04 #@! TF.GenerationSoftware,Altium Limited,Altium Designer,23.10.1 (27)*
G04*
G04 Layer_Color=8421504*
%FSLAX44Y44*%
%MOMM*%
G71*
G04*
G04 #@! TF.SameCoordinates,71CC738A-04A0-4CD5-BBD9-20E7C06DD327*
G04*
G04*
G04 #@! TF.FilePolarity,Positive*
G04*
G01*
G75*
%ADD17R,0.9000X1.0000*%
%ADD18R,1.7000X0.5500*%
%ADD19R,0.7500X0.6000*%
%ADD20R,1.6500X1.2000*%
%ADD21R,0.6000X0.7500*%
G04:AMPARAMS|DCode=22|XSize=0.91mm|YSize=0.93mm|CornerRadius=0.1138mm|HoleSize=0mm|Usage=FLASHONLY|Rotation=180.000|XOffset=0mm|YOffset=0mm|HoleType=Round|Shape=RoundedRectangle|*
%AMROUNDEDRECTD22*
21,1,0.9100,0.7025,0,0,180.0*
21,1,0.6825,0.9300,0,0,180.0*
1,1,0.2275,-0.3413,0.3513*
1,1,0.2275,0.3413,0.3513*
1,1,0.2275,0.3413,-0.3513*
1,1,0.2275,-0.3413,-0.3513*
%
%ADD22ROUNDEDRECTD22*%
%ADD23C,1.0000*%
%ADD24R,0.3000X0.9000*%
%ADD25R,1.0000X1.5000*%
%ADD26R,1.2000X2.2000*%
%ADD27R,0.9000X0.9000*%
G04:AMPARAMS|DCode=28|XSize=0.84mm|YSize=0.26mm|CornerRadius=0.0325mm|HoleSize=0mm|Usage=FLASHONLY|Rotation=270.000|XOffset=0mm|YOffset=0mm|HoleType=Round|Shape=RoundedRectangle|*
%AMROUNDEDRECTD28*
21,1,0.8400,0.1950,0,0,270.0*
21,1,0.7750,0.2600,0,0,270.0*
1,1,0.0650,-0.0975,-0.3875*
1,1,0.0650,-0.0975,0.3875*
1,1,0.0650,0.0975,0.3875*
1,1,0.0650,0.0975,-0.3875*
%
%ADD28ROUNDEDRECTD28*%
%ADD29R,0.2500X0.6500*%
%ADD30R,1.1176X0.5588*%
G04:AMPARAMS|DCode=31|XSize=1.49mm|YSize=0.61mm|CornerRadius=0.0763mm|HoleSize=0mm|Usage=FLASHONLY|Rotation=0.000|XOffset=0mm|YOffset=0mm|HoleType=Round|Shape=RoundedRectangle|*
%AMROUNDEDRECTD31*
21,1,1.4900,0.4575,0,0,0.0*
21,1,1.3375,0.6100,0,0,0.0*
1,1,0.1525,0.6688,-0.2288*
1,1,0.1525,-0.6688,-0.2288*
1,1,0.1525,-0.6688,0.2288*
1,1,0.1525,0.6688,0.2288*
%
%ADD31ROUNDEDRECTD31*%
%ADD32R,1.0200X0.4000*%
%ADD33R,0.7500X0.8500*%
%ADD34R,1.5000X1.2000*%
%ADD35R,0.2032X1.0160*%
%ADD36R,1.0160X0.2032*%
%ADD37R,1.0000X1.0200*%
%ADD38R,1.8200X1.2100*%
%ADD39R,0.8636X3.2512*%
%ADD40R,1.8500X3.4000*%
%ADD41R,1.2048X0.7492*%
G04:AMPARAMS|DCode=42|XSize=0.26mm|YSize=0.84mm|CornerRadius=0.0325mm|HoleSize=0mm|Usage=FLASHONLY|Rotation=270.000|XOffset=0mm|YOffset=0mm|HoleType=Round|Shape=RoundedRectangle|*
%AMROUNDEDRECTD42*
21,1,0.2600,0.7750,0,0,270.0*
21,1,0.1950,0.8400,0,0,270.0*
1,1,0.0650,-0.3875,-0.0975*
1,1,0.0650,-0.3875,0.0975*
1,1,0.0650,0.3875,0.0975*
1,1,0.0650,0.3875,-0.0975*
%
%ADD42ROUNDEDRECTD42*%
%ADD43R,0.3048X0.8128*%
%ADD44R,0.8128X0.3048*%
G04:AMPARAMS|DCode=45|XSize=1.215mm|YSize=0.387mm|CornerRadius=0.0968mm|HoleSize=0mm|Usage=FLASHONLY|Rotation=0.000|XOffset=0mm|YOffset=0mm|HoleType=Round|Shape=RoundedRectangle|*
%AMROUNDEDRECTD45*
21,1,1.2150,0.1935,0,0,0.0*
21,1,1.0215,0.3870,0,0,0.0*
1,1,0.1935,0.5108,-0.0968*
1,1,0.1935,-0.5108,-0.0968*
1,1,0.1935,-0.5108,0.0968*
1,1,0.1935,0.5108,0.0968*
%
%ADD45ROUNDEDRECTD45*%
%ADD46R,0.8500X0.9500*%
%ADD47R,0.2540X1.0668*%
%ADD48R,0.6500X1.0500*%
%ADD49R,1.0668X0.2540*%
%ADD50R,1.1500X1.3500*%
%ADD51R,1.3000X1.5000*%
%ADD52R,2.5000X2.6000*%
%ADD53R,3.2512X3.2512*%
%ADD54R,0.0254X0.0254*%
%ADD55R,0.0254X0.0254*%
G36*
X1110469Y810860D02*
Y806610D01*
X1111369Y805710D01*
X1114619D01*
X1115119Y805210D01*
Y804110D01*
X1114619Y803610D01*
X1107869D01*
X1107369Y804110D01*
Y810860D01*
X1107869Y811360D01*
X1109969D01*
X1110469Y810860D01*
D02*
G37*
G36*
X1099869D02*
Y804110D01*
X1099369Y803610D01*
X1092619D01*
X1092119Y804110D01*
Y805210D01*
X1092119D01*
X1092619Y805710D01*
X1095869D01*
X1096769Y806610D01*
Y810860D01*
X1097269Y811360D01*
X1099369D01*
X1099869Y810860D01*
D02*
G37*
G36*
X1114716Y801100D02*
X1114810Y801072D01*
X1114897Y801026D01*
X1114973Y800964D01*
X1115035Y800888D01*
X1115081Y800801D01*
X1115109Y800707D01*
X1115119Y800610D01*
Y799110D01*
X1115109Y799012D01*
X1115081Y798919D01*
X1115035Y798832D01*
X1114973Y798756D01*
X1114897Y798694D01*
X1114810Y798648D01*
X1114716Y798620D01*
X1114619Y798610D01*
X1105119D01*
X1105022Y798620D01*
X1104928Y798648D01*
X1104841Y798694D01*
X1104765Y798756D01*
X1104703Y798832D01*
X1104657Y798919D01*
X1104629Y799012D01*
X1104619Y799110D01*
Y800610D01*
X1104629Y800707D01*
X1104657Y800801D01*
X1104703Y800888D01*
X1104765Y800964D01*
X1104841Y801026D01*
X1104928Y801072D01*
X1105022Y801100D01*
X1105119Y801110D01*
X1114619D01*
X1114716Y801100D01*
D02*
G37*
G36*
X1102216D02*
X1102310Y801072D01*
X1102397Y801026D01*
X1102473Y800964D01*
X1102535Y800888D01*
X1102581Y800801D01*
X1102609Y800707D01*
X1102619Y800610D01*
Y799110D01*
X1102609Y799012D01*
X1102581Y798919D01*
X1102535Y798832D01*
X1102473Y798756D01*
X1102397Y798694D01*
X1102310Y798648D01*
X1102216Y798620D01*
X1102119Y798610D01*
X1092619D01*
X1092522Y798620D01*
X1092428Y798648D01*
X1092341Y798694D01*
X1092265Y798756D01*
X1092203Y798832D01*
X1092157Y798919D01*
X1092129Y799012D01*
X1092119Y799110D01*
Y800610D01*
X1092129Y800707D01*
X1092157Y800801D01*
X1092203Y800888D01*
X1092265Y800964D01*
X1092341Y801026D01*
X1092428Y801072D01*
X1092522Y801100D01*
X1092619Y801110D01*
X1102119D01*
X1102216Y801100D01*
D02*
G37*
G36*
X1114716Y796100D02*
X1114810Y796072D01*
X1114897Y796026D01*
X1114973Y795964D01*
X1115035Y795888D01*
X1115081Y795801D01*
X1115109Y795707D01*
X1115119Y795610D01*
Y794110D01*
X1115109Y794012D01*
X1115081Y793919D01*
X1115035Y793832D01*
X1114973Y793756D01*
X1114897Y793694D01*
X1114810Y793648D01*
X1114716Y793620D01*
X1114619Y793610D01*
X1105119D01*
X1105022Y793620D01*
X1104928Y793648D01*
X1104841Y793694D01*
X1104765Y793756D01*
X1104703Y793832D01*
X1104657Y793919D01*
X1104629Y794012D01*
X1104619Y794110D01*
Y795610D01*
X1104629Y795707D01*
X1104657Y795801D01*
X1104703Y795888D01*
X1104765Y795964D01*
X1104841Y796026D01*
X1104928Y796072D01*
X1105022Y796100D01*
X1105119Y796110D01*
X1114619D01*
X1114716Y796100D01*
D02*
G37*
G36*
X1102216D02*
X1102310Y796072D01*
X1102397Y796026D01*
X1102473Y795964D01*
X1102535Y795888D01*
X1102581Y795801D01*
X1102609Y795707D01*
X1102619Y795610D01*
Y794110D01*
X1102609Y794012D01*
X1102581Y793919D01*
X1102535Y793832D01*
X1102473Y793756D01*
X1102397Y793694D01*
X1102310Y793648D01*
X1102216Y793620D01*
X1102119Y793610D01*
X1092619D01*
X1092522Y793620D01*
X1092428Y793648D01*
X1092341Y793694D01*
X1092265Y793756D01*
X1092203Y793832D01*
X1092157Y793919D01*
X1092129Y794012D01*
X1092119Y794110D01*
Y795610D01*
X1092129Y795707D01*
X1092157Y795801D01*
X1092203Y795888D01*
X1092265Y795964D01*
X1092341Y796026D01*
X1092428Y796072D01*
X1092522Y796100D01*
X1092619Y796110D01*
X1102119D01*
X1102216Y796100D01*
D02*
G37*
G36*
X1114716Y791100D02*
X1114810Y791072D01*
X1114897Y791026D01*
X1114973Y790964D01*
X1115035Y790888D01*
X1115081Y790801D01*
X1115109Y790707D01*
X1115119Y790610D01*
Y789110D01*
X1115109Y789012D01*
X1115081Y788919D01*
X1115035Y788832D01*
X1114973Y788756D01*
X1114897Y788694D01*
X1114810Y788648D01*
X1114716Y788620D01*
X1114619Y788610D01*
X1105119D01*
X1105022Y788620D01*
X1104928Y788648D01*
X1104841Y788694D01*
X1104765Y788756D01*
X1104703Y788832D01*
X1104657Y788919D01*
X1104629Y789012D01*
X1104619Y789110D01*
Y790610D01*
X1104629Y790707D01*
X1104657Y790801D01*
X1104703Y790888D01*
X1104765Y790964D01*
X1104841Y791026D01*
X1104928Y791072D01*
X1105022Y791100D01*
X1105119Y791110D01*
X1114619D01*
X1114716Y791100D01*
D02*
G37*
G36*
X1102216D02*
X1102310Y791072D01*
X1102397Y791026D01*
X1102473Y790964D01*
X1102535Y790888D01*
X1102581Y790801D01*
X1102609Y790707D01*
X1102619Y790610D01*
Y789110D01*
X1102609Y789012D01*
X1102581Y788919D01*
X1102535Y788832D01*
X1102473Y788756D01*
X1102397Y788694D01*
X1102310Y788648D01*
X1102216Y788620D01*
X1102119Y788610D01*
X1092619D01*
X1092522Y788620D01*
X1092428Y788648D01*
X1092341Y788694D01*
X1092265Y788756D01*
X1092203Y788832D01*
X1092157Y788919D01*
X1092129Y789012D01*
X1092119Y789110D01*
Y790610D01*
X1092129Y790707D01*
X1092157Y790801D01*
X1092203Y790888D01*
X1092265Y790964D01*
X1092341Y791026D01*
X1092428Y791072D01*
X1092522Y791100D01*
X1092619Y791110D01*
X1102119D01*
X1102216Y791100D01*
D02*
G37*
G36*
X1115119Y785610D02*
Y784510D01*
X1114619Y784010D01*
X1111369D01*
X1110469Y783110D01*
Y778860D01*
X1109969Y778360D01*
X1107869D01*
X1107369Y778860D01*
Y785610D01*
X1107869Y786110D01*
X1114619D01*
X1115119Y785610D01*
D02*
G37*
G36*
X1099869D02*
Y778860D01*
X1099369Y778360D01*
X1097269D01*
X1096769Y778860D01*
Y783110D01*
X1095869Y784010D01*
X1092619D01*
X1092119Y784510D01*
X1092119D01*
Y785610D01*
X1092119D01*
X1092619Y786110D01*
X1099369D01*
X1099869Y785610D01*
D02*
G37*
G36*
X921760Y653584D02*
X910256D01*
Y665089D01*
X921760D01*
Y653584D01*
D02*
G37*
G36*
X908256D02*
X896751D01*
Y665089D01*
X908256D01*
Y653584D01*
D02*
G37*
G36*
X894752D02*
X883247D01*
Y665089D01*
X894752D01*
Y653584D01*
D02*
G37*
G36*
X881247D02*
X869743D01*
Y665089D01*
X881247D01*
Y653584D01*
D02*
G37*
G36*
X867743D02*
X856238D01*
Y665089D01*
X867743D01*
Y653584D01*
D02*
G37*
G36*
X854239D02*
X842734D01*
Y665089D01*
X854239D01*
Y653584D01*
D02*
G37*
G36*
X921760Y640080D02*
X910256D01*
Y651584D01*
X921760D01*
Y640080D01*
D02*
G37*
G36*
X908256D02*
X896751D01*
Y651584D01*
X908256D01*
Y640080D01*
D02*
G37*
G36*
X894752D02*
X883247D01*
Y651584D01*
X894752D01*
Y640080D01*
D02*
G37*
G36*
X881247D02*
X869743D01*
Y651584D01*
X881247D01*
Y640080D01*
D02*
G37*
G36*
X867743D02*
X856238D01*
Y651584D01*
X867743D01*
Y640080D01*
D02*
G37*
G36*
X854239D02*
X842734D01*
Y651584D01*
X854239D01*
Y640080D01*
D02*
G37*
G36*
X921760Y626576D02*
X910256D01*
Y638080D01*
X921760D01*
Y626576D01*
D02*
G37*
G36*
X908256D02*
X896751D01*
Y638080D01*
X908256D01*
Y626576D01*
D02*
G37*
G36*
X894752D02*
X883247D01*
Y638080D01*
X894752D01*
Y626576D01*
D02*
G37*
G36*
X881247D02*
X869743D01*
Y638080D01*
X881247D01*
Y626576D01*
D02*
G37*
G36*
X867743D02*
X856238D01*
Y638080D01*
X867743D01*
Y626576D01*
D02*
G37*
G36*
X854239D02*
X842734D01*
Y638080D01*
X854239D01*
Y626576D01*
D02*
G37*
G36*
X921760Y613071D02*
X910256D01*
Y624576D01*
X921760D01*
Y613071D01*
D02*
G37*
G36*
X908256D02*
X896751D01*
Y624576D01*
X908256D01*
Y613071D01*
D02*
G37*
G36*
X894752D02*
X883247D01*
Y624576D01*
X894752D01*
Y613071D01*
D02*
G37*
G36*
X881247D02*
X869743D01*
Y624576D01*
X881247D01*
Y613071D01*
D02*
G37*
G36*
X867743D02*
X856238D01*
Y624576D01*
X867743D01*
Y613071D01*
D02*
G37*
G36*
X854239D02*
X842734D01*
Y624576D01*
X854239D01*
Y613071D01*
D02*
G37*
G36*
X921760Y599567D02*
X910256D01*
Y611071D01*
X921760D01*
Y599567D01*
D02*
G37*
G36*
X908256D02*
X896751D01*
Y611071D01*
X908256D01*
Y599567D01*
D02*
G37*
G36*
X894752D02*
X883247D01*
Y611071D01*
X894752D01*
Y599567D01*
D02*
G37*
G36*
X881247D02*
X869743D01*
Y611071D01*
X881247D01*
Y599567D01*
D02*
G37*
G36*
X867743D02*
X856238D01*
Y611071D01*
X867743D01*
Y599567D01*
D02*
G37*
G36*
X854239D02*
X842734D01*
Y611071D01*
X854239D01*
Y599567D01*
D02*
G37*
G36*
X921760Y586063D02*
X910256D01*
Y597567D01*
X921760D01*
Y586063D01*
D02*
G37*
G36*
X908256D02*
X896751D01*
Y597567D01*
X908256D01*
Y586063D01*
D02*
G37*
G36*
X894752D02*
X883247D01*
Y597567D01*
X894752D01*
Y586063D01*
D02*
G37*
G36*
X881247D02*
X869743D01*
Y597567D01*
X881247D01*
Y586063D01*
D02*
G37*
G36*
X867743D02*
X856238D01*
Y597567D01*
X867743D01*
Y586063D01*
D02*
G37*
G36*
X854239D02*
X842734D01*
Y597567D01*
X854239D01*
Y586063D01*
D02*
G37*
G36*
X587264Y562975D02*
X572500D01*
Y577739D01*
X587264D01*
Y562975D01*
D02*
G37*
G36*
X570500D02*
X555736D01*
Y577739D01*
X570500D01*
Y562975D01*
D02*
G37*
G36*
X587264Y546211D02*
X572500D01*
Y560975D01*
X587264D01*
Y546211D01*
D02*
G37*
G36*
X570500D02*
X555736D01*
Y560975D01*
X570500D01*
Y546211D01*
D02*
G37*
G36*
X156217Y409598D02*
X140117D01*
Y425698D01*
X156217D01*
Y409598D01*
D02*
G37*
G36*
X130717D02*
X114617D01*
Y425698D01*
X130717D01*
Y409598D01*
D02*
G37*
G36*
X458193Y405788D02*
X442093D01*
Y421888D01*
X458193D01*
Y405788D01*
D02*
G37*
G36*
X432693D02*
X416593D01*
Y421888D01*
X432693D01*
Y405788D01*
D02*
G37*
G36*
X1087968Y404775D02*
X1071868D01*
Y420875D01*
X1087968D01*
Y404775D01*
D02*
G37*
G36*
X1062468D02*
X1046368D01*
Y420875D01*
X1062468D01*
Y404775D01*
D02*
G37*
G36*
X1390792Y404518D02*
X1374692D01*
Y420617D01*
X1390792D01*
Y404518D01*
D02*
G37*
G36*
X1365292D02*
X1349192D01*
Y420617D01*
X1365292D01*
Y404518D01*
D02*
G37*
G36*
X775409Y398167D02*
X759309D01*
Y414268D01*
X775409D01*
Y398167D01*
D02*
G37*
G36*
X749909D02*
X733809D01*
Y414268D01*
X749909D01*
Y398167D01*
D02*
G37*
G36*
X156217Y384098D02*
X140117D01*
Y400197D01*
X156217D01*
Y384098D01*
D02*
G37*
G36*
X130717D02*
X114617D01*
Y400197D01*
X130717D01*
Y384098D01*
D02*
G37*
G36*
X458193Y380288D02*
X442093D01*
Y396387D01*
X458193D01*
Y380288D01*
D02*
G37*
G36*
X432693D02*
X416593D01*
Y396387D01*
X432693D01*
Y380288D01*
D02*
G37*
G36*
X1087968Y379275D02*
X1071868D01*
Y395375D01*
X1087968D01*
Y379275D01*
D02*
G37*
G36*
X1062468D02*
X1046368D01*
Y395375D01*
X1062468D01*
Y379275D01*
D02*
G37*
G36*
X1390792Y379017D02*
X1374692D01*
Y395117D01*
X1390792D01*
Y379017D01*
D02*
G37*
G36*
X1365292D02*
X1349192D01*
Y395117D01*
X1365292D01*
Y379017D01*
D02*
G37*
G36*
X775409Y372668D02*
X759309D01*
Y388768D01*
X775409D01*
Y372668D01*
D02*
G37*
G36*
X749909D02*
X733809D01*
Y388768D01*
X749909D01*
Y372668D01*
D02*
G37*
D17*
X379148Y633630D02*
D03*
X338148D02*
D03*
X379148Y649630D02*
D03*
X338148D02*
D03*
D18*
X358648Y627380D02*
D03*
D19*
X1105319Y324135D02*
D03*
X1300829Y402367D02*
D03*
X997299D02*
D03*
X898511Y798445D02*
D03*
X1218254Y703580D02*
D03*
Y722287D02*
D03*
X856840Y376060D02*
D03*
X1161640Y828180D02*
D03*
X887010Y798445D02*
D03*
X1218291Y731691D02*
D03*
X887010Y807923D02*
D03*
X1012784Y524510D02*
D03*
X472452Y764011D02*
D03*
X421989Y689387D02*
D03*
X713330Y517030D02*
D03*
X630330Y543420D02*
D03*
X484000Y741820D02*
D03*
X339234Y729834D02*
D03*
X803120Y553580D02*
D03*
X803157Y542430D02*
D03*
X78076Y391808D02*
D03*
X696566Y381902D02*
D03*
X380336Y388760D02*
D03*
X1008986Y387744D02*
D03*
X1312262Y387490D02*
D03*
X1129865Y646018D02*
D03*
X1078484Y679450D02*
D03*
X1078521Y688883D02*
D03*
X1067010Y707769D02*
D03*
X1066930Y717215D02*
D03*
X1001284Y533679D02*
D03*
X433489Y680142D02*
D03*
X66576Y391808D02*
D03*
X685066Y381902D02*
D03*
X368836Y388760D02*
D03*
X997486Y387744D02*
D03*
X1300762Y387490D02*
D03*
X472500Y751519D02*
D03*
Y741820D02*
D03*
X701450Y618350D02*
D03*
X701830Y517030D02*
D03*
X642210Y594500D02*
D03*
X641830Y543420D02*
D03*
X892400Y376060D02*
D03*
X540610Y383680D02*
D03*
X574900Y383820D02*
D03*
X1171800Y382668D02*
D03*
X1207360Y382808D02*
D03*
X239620Y387490D02*
D03*
X275180Y387630D02*
D03*
X1475330Y382410D02*
D03*
X1509620D02*
D03*
X563470Y517030D02*
D03*
X1012784Y533679D02*
D03*
X421989Y680142D02*
D03*
X1150140Y828180D02*
D03*
X1206791Y731691D02*
D03*
X1206754Y722287D02*
D03*
X1078510Y707769D02*
D03*
X1206754Y712990D02*
D03*
Y703580D02*
D03*
X563400Y383820D02*
D03*
X451707Y330739D02*
D03*
X880900Y376060D02*
D03*
X263680Y387630D02*
D03*
X775049Y324897D02*
D03*
X1498120Y382410D02*
D03*
X1195860Y382808D02*
D03*
X139287Y328961D02*
D03*
X1412748Y323850D02*
D03*
X1093819Y324135D02*
D03*
X472500Y732322D02*
D03*
X339234Y739275D02*
D03*
X484000Y751519D02*
D03*
X350734Y748708D02*
D03*
X1066984Y679450D02*
D03*
X845340Y376060D02*
D03*
X1463830Y382410D02*
D03*
X1160300Y382668D02*
D03*
X551970Y517030D02*
D03*
X529110Y383680D02*
D03*
X521881Y526827D02*
D03*
X228120Y387490D02*
D03*
X380149Y403637D02*
D03*
X365925Y564165D02*
D03*
X696379Y396017D02*
D03*
X77889Y407447D02*
D03*
X1008799Y402367D02*
D03*
X1312329D02*
D03*
X510381Y526827D02*
D03*
X791620Y553580D02*
D03*
X354425Y564165D02*
D03*
X510729Y546752D02*
D03*
X684879Y396017D02*
D03*
X368649Y403637D02*
D03*
X66389Y407447D02*
D03*
X339234Y748708D02*
D03*
X350734Y739275D02*
D03*
X898511Y807923D02*
D03*
X1067021Y688883D02*
D03*
X712950Y618350D02*
D03*
X630710Y594500D02*
D03*
X484000Y732322D02*
D03*
X1078430Y717215D02*
D03*
X1218254Y712990D02*
D03*
X1067021Y698478D02*
D03*
X483952Y764011D02*
D03*
X433489Y689387D02*
D03*
X1001284Y524510D02*
D03*
X463207Y330739D02*
D03*
X150787Y328961D02*
D03*
X786549Y324897D02*
D03*
X1424248Y323850D02*
D03*
X522229Y546752D02*
D03*
X350734Y729834D02*
D03*
X1078521Y698478D02*
D03*
X1141366Y646018D02*
D03*
X791657Y542430D02*
D03*
D20*
X1075351Y630160D02*
D03*
X1260660Y706228D02*
D03*
X1240644D02*
D03*
X1075351Y658160D02*
D03*
X1055074D02*
D03*
X1240644Y734228D02*
D03*
X1260660D02*
D03*
X1055074Y630160D02*
D03*
D21*
X1289273Y416316D02*
D03*
X986672Y416909D02*
D03*
X1075406Y751840D02*
D03*
X1093964Y751877D02*
D03*
X727487Y554641D02*
D03*
X869122Y721124D02*
D03*
X1188326Y515480D02*
D03*
X878700Y721124D02*
D03*
X888371D02*
D03*
X460787Y557181D02*
D03*
X134952Y460979D02*
D03*
X1093964Y763377D02*
D03*
X1084671D02*
D03*
X1075406Y763340D02*
D03*
X437611Y456156D02*
D03*
X1064016Y454529D02*
D03*
X125591Y460936D02*
D03*
X744502Y444004D02*
D03*
X428320Y456156D02*
D03*
X1054661Y454579D02*
D03*
X1368849Y451776D02*
D03*
X1359561D02*
D03*
X777301Y761664D02*
D03*
X711568Y798928D02*
D03*
X918632Y542705D02*
D03*
X928097D02*
D03*
X937427D02*
D03*
X946668Y542742D02*
D03*
X817362Y540546D02*
D03*
X869122Y709624D02*
D03*
X1112520Y763340D02*
D03*
X1178973Y526980D02*
D03*
X1188326D02*
D03*
X786700Y761651D02*
D03*
X796860D02*
D03*
X428320Y467656D02*
D03*
X437611D02*
D03*
X754115Y455504D02*
D03*
X744502D02*
D03*
X134952Y472479D02*
D03*
X125591Y472436D02*
D03*
X1368849Y463276D02*
D03*
X1359561D02*
D03*
X1064016Y466029D02*
D03*
X1054661Y466079D02*
D03*
X786700Y750151D02*
D03*
X796860D02*
D03*
X826767Y540510D02*
D03*
X836332D02*
D03*
X826767Y529010D02*
D03*
X414348Y615095D02*
D03*
X356897Y429679D02*
D03*
X674113Y422059D02*
D03*
X328453Y533489D02*
D03*
X54833Y432219D02*
D03*
X986672Y428409D02*
D03*
X1289273Y427817D02*
D03*
X779920Y579600D02*
D03*
Y568100D02*
D03*
X405000Y603595D02*
D03*
X328453Y544989D02*
D03*
X1103271Y751840D02*
D03*
X674113Y410559D02*
D03*
X356897Y418179D02*
D03*
X54833Y420719D02*
D03*
X1084671Y751877D02*
D03*
X918632Y531205D02*
D03*
X928097D02*
D03*
X937427D02*
D03*
X836332Y529010D02*
D03*
X727487Y543141D02*
D03*
X405000Y615095D02*
D03*
X460787Y545681D02*
D03*
X946668Y531242D02*
D03*
X817362Y529047D02*
D03*
X1112520Y751840D02*
D03*
X777301Y750164D02*
D03*
X711568Y787428D02*
D03*
X1178973Y515480D02*
D03*
X414348Y603595D02*
D03*
X754115Y444004D02*
D03*
X878700Y709624D02*
D03*
X888371D02*
D03*
X1103271Y763340D02*
D03*
D22*
X698226Y366014D02*
D03*
X382504Y373380D02*
D03*
X1011154Y372872D02*
D03*
X1313668Y372364D02*
D03*
X999183Y549366D02*
D03*
X434330Y665480D02*
D03*
X883504Y782474D02*
D03*
X66060Y376682D02*
D03*
X683026Y366014D02*
D03*
X367304Y373380D02*
D03*
X995954Y372872D02*
D03*
X1298468Y372364D02*
D03*
X419129Y665480D02*
D03*
X81260Y376682D02*
D03*
X1014383Y549366D02*
D03*
X898704Y782474D02*
D03*
D23*
X334264Y570230D02*
D03*
X490982Y668020D02*
D03*
X475488Y684022D02*
D03*
X464566Y592074D02*
D03*
X461518Y621538D02*
D03*
X450342Y605790D02*
D03*
X441706Y622554D02*
D03*
X429768Y608584D02*
D03*
X334264Y591312D02*
D03*
D24*
X799280Y793700D02*
D03*
X744280D02*
D03*
X779280D02*
D03*
X789280D02*
D03*
X794280D02*
D03*
X769280D02*
D03*
X774280D02*
D03*
X754280D02*
D03*
X749280D02*
D03*
X784280D02*
D03*
X759280D02*
D03*
X764280D02*
D03*
D25*
X474103Y306100D02*
D03*
X407103D02*
D03*
X792340D02*
D03*
X725340D02*
D03*
X157340D02*
D03*
X90340D02*
D03*
X1428960D02*
D03*
X1361960D02*
D03*
X1111110D02*
D03*
X1044110D02*
D03*
X432103D02*
D03*
X507103D02*
D03*
X382853D02*
D03*
X365853D02*
D03*
X557103D02*
D03*
X532103D02*
D03*
X457103D02*
D03*
X750340D02*
D03*
X825340D02*
D03*
X701090D02*
D03*
X684090D02*
D03*
X875340D02*
D03*
X850340D02*
D03*
X775340D02*
D03*
X115340D02*
D03*
X190340D02*
D03*
X66090D02*
D03*
X49090D02*
D03*
X240340D02*
D03*
X215340D02*
D03*
X140340D02*
D03*
X1386960D02*
D03*
X1461960D02*
D03*
X1337710D02*
D03*
X1320710D02*
D03*
X1511960D02*
D03*
X1486960D02*
D03*
X1411960D02*
D03*
X1069110D02*
D03*
X1144110D02*
D03*
X1019860D02*
D03*
X1002860D02*
D03*
X1194110D02*
D03*
X1169110D02*
D03*
X1094110D02*
D03*
X332352D02*
D03*
X490602D02*
D03*
X650590D02*
D03*
X808840D02*
D03*
X173840D02*
D03*
X15590D02*
D03*
X1287210D02*
D03*
X1445460D02*
D03*
X969360D02*
D03*
X1127610D02*
D03*
D26*
X327352Y84100D02*
D03*
X607352Y96100D02*
D03*
X645590Y84100D02*
D03*
X925590Y96100D02*
D03*
X10590Y84100D02*
D03*
X290590Y96100D02*
D03*
X1282210Y84100D02*
D03*
X1562210Y96100D02*
D03*
X964360Y84100D02*
D03*
X1244360Y96100D02*
D03*
D27*
X892680Y410630D02*
D03*
X872920Y401320D02*
D03*
X574750Y419520D02*
D03*
X1207640Y416980D02*
D03*
X275460Y423330D02*
D03*
X1509900Y416980D02*
D03*
X837360Y402590D02*
D03*
X892680Y391630D02*
D03*
X554990Y410210D02*
D03*
X540890Y400520D02*
D03*
X521130Y410210D02*
D03*
X574750Y400520D02*
D03*
X1187880Y407670D02*
D03*
X1172080Y397980D02*
D03*
X1152320Y407670D02*
D03*
X1207640Y397980D02*
D03*
X239900Y404330D02*
D03*
X255700Y414020D02*
D03*
X220140D02*
D03*
X275460Y404330D02*
D03*
X1490140Y407670D02*
D03*
X1475610Y397980D02*
D03*
X1455850Y407670D02*
D03*
X1509900Y397980D02*
D03*
X1475610Y416980D02*
D03*
X1172080D02*
D03*
X540890Y419520D02*
D03*
X239900Y423330D02*
D03*
X857120Y411900D02*
D03*
Y392900D02*
D03*
D28*
X152917Y439248D02*
D03*
X107917D02*
D03*
X132917D02*
D03*
X137917D02*
D03*
X107917Y370547D02*
D03*
X152917D02*
D03*
X434893Y435438D02*
D03*
X727109Y359118D02*
D03*
X772109D02*
D03*
X757109Y427817D02*
D03*
X454893Y366738D02*
D03*
X409893D02*
D03*
X439893Y435438D02*
D03*
X122917Y439248D02*
D03*
X112917Y370547D02*
D03*
X742109Y427817D02*
D03*
X732109Y359118D02*
D03*
X1064668Y434425D02*
D03*
X127917Y439248D02*
D03*
X747109Y427817D02*
D03*
X429893Y435438D02*
D03*
X1059668Y434425D02*
D03*
X1367492Y434168D02*
D03*
X1362492D02*
D03*
X1069668Y434425D02*
D03*
X1039668Y365725D02*
D03*
X1084668D02*
D03*
X1372492Y434168D02*
D03*
X1342492Y365467D02*
D03*
X1387492D02*
D03*
X1044668Y365725D02*
D03*
X1054668Y434425D02*
D03*
X1357492Y434168D02*
D03*
X1347492Y365467D02*
D03*
X147917Y370547D02*
D03*
X767109Y359118D02*
D03*
X449893Y366738D02*
D03*
X1079668Y365725D02*
D03*
X1382492Y365467D02*
D03*
X429893Y366738D02*
D03*
X434893D02*
D03*
X424893D02*
D03*
X419893D02*
D03*
X444893D02*
D03*
X439893D02*
D03*
X747109Y359118D02*
D03*
X752109D02*
D03*
X742109D02*
D03*
X737109D02*
D03*
X762109D02*
D03*
X757109D02*
D03*
X127917Y370547D02*
D03*
X132917D02*
D03*
X122917D02*
D03*
X117917D02*
D03*
X142917D02*
D03*
X137917D02*
D03*
X1362492Y365467D02*
D03*
X1367492D02*
D03*
X1357492D02*
D03*
X1352492D02*
D03*
X1377492D02*
D03*
X1372492D02*
D03*
X1059668Y365725D02*
D03*
X1064668D02*
D03*
X1054668D02*
D03*
X1049668D02*
D03*
X1074668D02*
D03*
X1069668D02*
D03*
X449893Y435438D02*
D03*
X444893D02*
D03*
X767109Y427817D02*
D03*
X762109D02*
D03*
X147917Y439248D02*
D03*
X142917D02*
D03*
X1382492Y434168D02*
D03*
X1377492D02*
D03*
X1079668Y434425D02*
D03*
X1074668D02*
D03*
X419893Y435438D02*
D03*
X414893D02*
D03*
X737109Y427817D02*
D03*
X732109D02*
D03*
X117917Y439248D02*
D03*
X112917D02*
D03*
X1352492Y434168D02*
D03*
X1347492D02*
D03*
X1049668Y434425D02*
D03*
X1044668D02*
D03*
X162917Y439248D02*
D03*
X157917D02*
D03*
Y370547D02*
D03*
X162917D02*
D03*
X414893Y366738D02*
D03*
X409893Y435438D02*
D03*
X727109Y427817D02*
D03*
X1387492Y434168D02*
D03*
X1342492D02*
D03*
X777109Y427817D02*
D03*
X752109D02*
D03*
X464893Y435438D02*
D03*
X454893D02*
D03*
X1084668Y434425D02*
D03*
X1039668D02*
D03*
X772109Y427817D02*
D03*
X424893Y435438D02*
D03*
X1094668Y365725D02*
D03*
Y434425D02*
D03*
X1089668D02*
D03*
X782109Y427817D02*
D03*
X1089668Y365725D02*
D03*
X464893Y366738D02*
D03*
X459893D02*
D03*
Y435438D02*
D03*
X777109Y359118D02*
D03*
X782109D02*
D03*
X1397492Y434168D02*
D03*
X1392492D02*
D03*
Y365467D02*
D03*
X1397492D02*
D03*
D29*
X1103619Y781610D02*
D03*
Y808110D02*
D03*
D30*
X1072388Y544170D02*
D03*
X1094740Y534670D02*
D03*
X1072388Y525170D02*
D03*
D31*
X375582Y739140D02*
D03*
Y726440D02*
D03*
X448182Y764540D02*
D03*
Y751840D02*
D03*
X375582Y764540D02*
D03*
X448182Y739140D02*
D03*
X375582Y751840D02*
D03*
X448182Y726440D02*
D03*
D32*
X382270Y676910D02*
D03*
X847500Y794870D02*
D03*
X401770Y689910D02*
D03*
X867000Y807870D02*
D03*
X1032060Y524510D02*
D03*
X867000Y794870D02*
D03*
X1032060Y537510D02*
D03*
X401770Y676910D02*
D03*
X1051560Y531010D02*
D03*
X382270Y683410D02*
D03*
X847500Y801370D02*
D03*
X382270Y689910D02*
D03*
X847500Y807870D02*
D03*
X1051560Y537510D02*
D03*
Y524510D02*
D03*
D33*
X802810Y580790D02*
D03*
X792310Y567290D02*
D03*
X368130Y416160D02*
D03*
X378630Y429660D02*
D03*
X67140Y419970D02*
D03*
X77640Y433470D02*
D03*
X1301580Y414890D02*
D03*
X1312080Y428390D02*
D03*
X998050Y414890D02*
D03*
X1008550Y428390D02*
D03*
X802810Y567290D02*
D03*
X368130Y429660D02*
D03*
X378630Y416160D02*
D03*
X685630Y422040D02*
D03*
X696130Y408540D02*
D03*
X67140Y433470D02*
D03*
X77640Y419970D02*
D03*
X998050Y428390D02*
D03*
X1008550Y414890D02*
D03*
X1301580Y428390D02*
D03*
X1312080Y414890D02*
D03*
X792310Y580790D02*
D03*
X685630Y408540D02*
D03*
X696130Y422040D02*
D03*
D34*
X365846Y533528D02*
D03*
X344846Y549528D02*
D03*
X365846D02*
D03*
X344846Y533528D02*
D03*
D35*
X930247Y567664D02*
D03*
X914247Y683488D02*
D03*
X866247Y567664D02*
D03*
X902247D02*
D03*
X922247Y683488D02*
D03*
X886247D02*
D03*
X866247D02*
D03*
X914247Y567664D02*
D03*
X918247D02*
D03*
X922247D02*
D03*
X926247D02*
D03*
X874247Y683488D02*
D03*
X834247Y567664D02*
D03*
X858247Y683488D02*
D03*
X862247D02*
D03*
X850247D02*
D03*
X854247D02*
D03*
Y567664D02*
D03*
X850247D02*
D03*
X890247D02*
D03*
X886247D02*
D03*
X874247D02*
D03*
X870247D02*
D03*
X862247D02*
D03*
X858247D02*
D03*
X910247D02*
D03*
X906247D02*
D03*
X898247D02*
D03*
X894247D02*
D03*
X838247D02*
D03*
X882247Y683488D02*
D03*
X878247D02*
D03*
X842247Y567664D02*
D03*
X878247D02*
D03*
X846247D02*
D03*
X882247D02*
D03*
X930247Y683488D02*
D03*
X926247D02*
D03*
X918247D02*
D03*
X910247D02*
D03*
X906247D02*
D03*
X902247D02*
D03*
X898247D02*
D03*
X894247D02*
D03*
X890247D02*
D03*
X870247D02*
D03*
X846247D02*
D03*
X842247D02*
D03*
X838247D02*
D03*
X834247D02*
D03*
D36*
X940159Y597576D02*
D03*
Y625576D02*
D03*
X824335Y665576D02*
D03*
Y637576D02*
D03*
Y605576D02*
D03*
X940159Y577576D02*
D03*
Y645576D02*
D03*
X824335Y661576D02*
D03*
Y625576D02*
D03*
Y581576D02*
D03*
Y585576D02*
D03*
Y577576D02*
D03*
Y593576D02*
D03*
X940159Y585576D02*
D03*
Y581576D02*
D03*
Y613576D02*
D03*
Y609576D02*
D03*
X824335Y649576D02*
D03*
Y653576D02*
D03*
X940159Y637576D02*
D03*
Y641576D02*
D03*
X824335Y617576D02*
D03*
Y621576D02*
D03*
X940159Y605576D02*
D03*
Y601576D02*
D03*
Y593576D02*
D03*
Y589576D02*
D03*
Y633576D02*
D03*
Y629576D02*
D03*
Y621576D02*
D03*
Y617576D02*
D03*
X824335Y629576D02*
D03*
Y633576D02*
D03*
Y641576D02*
D03*
Y645576D02*
D03*
Y597576D02*
D03*
Y601576D02*
D03*
Y609576D02*
D03*
Y613576D02*
D03*
Y589576D02*
D03*
X940159Y649576D02*
D03*
Y653576D02*
D03*
Y657576D02*
D03*
Y661576D02*
D03*
Y665576D02*
D03*
Y669576D02*
D03*
Y673576D02*
D03*
X824335Y673576D02*
D03*
Y669576D02*
D03*
Y657576D02*
D03*
D37*
X1202720Y764540D02*
D03*
X1217900D02*
D03*
D38*
X1209040Y783060D02*
D03*
X1187450D02*
D03*
X1070610Y812060D02*
D03*
X1187450D02*
D03*
X1209040D02*
D03*
X1070610Y783060D02*
D03*
D39*
X1163672Y795176D02*
D03*
X1136748D02*
D03*
D40*
X1261174Y651510D02*
D03*
X1205674D02*
D03*
D41*
X770254Y555330D02*
D03*
X751206D02*
D03*
Y534330D02*
D03*
X770254D02*
D03*
D42*
X101067Y392397D02*
D03*
X720259Y380967D02*
D03*
X403043Y388587D02*
D03*
X1032818Y387575D02*
D03*
X1335642Y387318D02*
D03*
X101067Y422397D02*
D03*
X169767Y412397D02*
D03*
X720259Y410967D02*
D03*
X788959Y400967D02*
D03*
X471743Y408587D02*
D03*
X403043Y418587D02*
D03*
X101067Y387397D02*
D03*
X720259Y375967D02*
D03*
X403043Y383587D02*
D03*
X1101518Y407575D02*
D03*
X1032818Y417575D02*
D03*
X1335642Y417318D02*
D03*
X1404342Y407318D02*
D03*
X169767Y407397D02*
D03*
X788959Y395967D02*
D03*
X1032818Y382575D02*
D03*
X471743Y403587D02*
D03*
X1101518Y402575D02*
D03*
X1335642Y382318D02*
D03*
X1404342Y402318D02*
D03*
X720259Y405967D02*
D03*
X101067Y417397D02*
D03*
X403043Y413587D02*
D03*
X1032818Y412575D02*
D03*
X1335642Y412318D02*
D03*
X471743Y383587D02*
D03*
Y388587D02*
D03*
Y378587D02*
D03*
Y373587D02*
D03*
Y398587D02*
D03*
Y393587D02*
D03*
X403043Y378587D02*
D03*
Y373587D02*
D03*
X788959Y375967D02*
D03*
Y380967D02*
D03*
Y370967D02*
D03*
Y365967D02*
D03*
Y390967D02*
D03*
Y385967D02*
D03*
X720259Y370967D02*
D03*
Y365967D02*
D03*
X169767Y387397D02*
D03*
Y392397D02*
D03*
Y382397D02*
D03*
Y377397D02*
D03*
Y402397D02*
D03*
Y397397D02*
D03*
X101067Y382397D02*
D03*
Y377397D02*
D03*
X1404342Y382318D02*
D03*
Y387318D02*
D03*
Y377318D02*
D03*
Y372318D02*
D03*
Y397318D02*
D03*
Y392318D02*
D03*
X1335642Y377318D02*
D03*
Y372318D02*
D03*
X1101518Y382575D02*
D03*
Y387575D02*
D03*
Y377575D02*
D03*
Y372575D02*
D03*
Y397575D02*
D03*
Y392575D02*
D03*
X1032818Y377575D02*
D03*
Y372575D02*
D03*
X403043Y428587D02*
D03*
Y423587D02*
D03*
X720259Y420967D02*
D03*
Y415967D02*
D03*
X101067Y432397D02*
D03*
Y427397D02*
D03*
X1032818Y427575D02*
D03*
Y422575D02*
D03*
X1335642Y427318D02*
D03*
Y422318D02*
D03*
X101067Y412397D02*
D03*
Y407397D02*
D03*
Y402397D02*
D03*
Y397397D02*
D03*
X169767Y417397D02*
D03*
Y422397D02*
D03*
Y427397D02*
D03*
Y432397D02*
D03*
X1032818Y392575D02*
D03*
Y407575D02*
D03*
Y402575D02*
D03*
Y397575D02*
D03*
X471743Y428587D02*
D03*
Y423587D02*
D03*
Y418587D02*
D03*
Y413587D02*
D03*
X403043Y393587D02*
D03*
Y398587D02*
D03*
Y403587D02*
D03*
Y408587D02*
D03*
X720259Y400967D02*
D03*
Y395967D02*
D03*
Y390967D02*
D03*
Y385967D02*
D03*
X788959Y405967D02*
D03*
Y410967D02*
D03*
Y415967D02*
D03*
Y420967D02*
D03*
X1101518Y412575D02*
D03*
Y417575D02*
D03*
Y422575D02*
D03*
Y427575D02*
D03*
X1335642Y407318D02*
D03*
Y402318D02*
D03*
Y397318D02*
D03*
Y392318D02*
D03*
X1404342Y412318D02*
D03*
Y417318D02*
D03*
Y422318D02*
D03*
Y427318D02*
D03*
D43*
X434594Y535432D02*
D03*
X429514D02*
D03*
X409448Y584708D02*
D03*
X404622D02*
D03*
X434594D02*
D03*
X429514D02*
D03*
X424688D02*
D03*
X414528D02*
D03*
X399542D02*
D03*
X419608D02*
D03*
X424688Y535432D02*
D03*
X419608D02*
D03*
X414528D02*
D03*
X409448D02*
D03*
X404622D02*
D03*
X399542D02*
D03*
D44*
X441706Y557530D02*
D03*
Y542544D02*
D03*
Y572516D02*
D03*
Y577596D02*
D03*
Y547624D02*
D03*
X392430Y562610D02*
D03*
Y552450D02*
D03*
Y547624D02*
D03*
Y542544D02*
D03*
X441706Y562610D02*
D03*
X392430Y577596D02*
D03*
Y557530D02*
D03*
Y567690D02*
D03*
X441706D02*
D03*
Y552450D02*
D03*
X392430Y572516D02*
D03*
D45*
X1107297Y661031D02*
D03*
Y687031D02*
D03*
X1164436Y700031D02*
D03*
X1107297D02*
D03*
X1164436Y693531D02*
D03*
Y680531D02*
D03*
X1107297Y674031D02*
D03*
Y667531D02*
D03*
Y693531D02*
D03*
X1164436Y667531D02*
D03*
Y687031D02*
D03*
Y674031D02*
D03*
Y661031D02*
D03*
X1107297Y680531D02*
D03*
D46*
X190319Y426045D02*
D03*
X808766Y414836D02*
D03*
X492776Y422392D02*
D03*
X1121250Y420712D02*
D03*
X1423528Y420222D02*
D03*
X821866Y414836D02*
D03*
X505876Y422392D02*
D03*
X1134350Y420712D02*
D03*
X203419Y426045D02*
D03*
X1436628Y420222D02*
D03*
D47*
X571500Y585724D02*
D03*
X566500D02*
D03*
X561500Y538226D02*
D03*
X556500D02*
D03*
Y585724D02*
D03*
X561500D02*
D03*
X576500D02*
D03*
X581500D02*
D03*
X586500D02*
D03*
Y538226D02*
D03*
X581500D02*
D03*
X576500D02*
D03*
X571500D02*
D03*
X566500D02*
D03*
D48*
X1189056Y591488D02*
D03*
Y549988D02*
D03*
X1167556Y591488D02*
D03*
Y549988D02*
D03*
D49*
X547751Y556975D02*
D03*
Y561975D02*
D03*
Y546975D02*
D03*
Y576975D02*
D03*
Y566975D02*
D03*
Y551975D02*
D03*
X595249Y576975D02*
D03*
Y571975D02*
D03*
Y566975D02*
D03*
Y561975D02*
D03*
Y556975D02*
D03*
Y551975D02*
D03*
Y546975D02*
D03*
X547751Y571975D02*
D03*
D50*
X736888Y754798D02*
D03*
X719388D02*
D03*
D51*
X378300Y604520D02*
D03*
X358300D02*
D03*
D52*
X1136121Y680531D02*
D03*
D53*
X417068Y560070D02*
D03*
D54*
X571500Y561975D02*
D03*
D55*
X882247Y625576D02*
D03*
M02*
