G04*
G04 #@! TF.GenerationSoftware,Altium Limited,Altium Designer,23.10.1 (27)*
G04*
G04 Layer_Physical_Order=4*
G04 Layer_Color=1754623*
%FSLAX44Y44*%
%MOMM*%
G71*
G04*
G04 #@! TF.SameCoordinates,71CC738A-04A0-4CD5-BBD9-20E7C06DD327*
G04*
G04*
G04 #@! TF.FilePolarity,Positive*
G04*
G01*
G75*
%ADD94C,1.3970*%
%ADD98R,1.3970X1.3970*%
%ADD105C,0.5080*%
%ADD111C,1.7000*%
%ADD112R,1.7000X1.7000*%
%ADD113C,0.6000*%
%ADD114O,0.8000X1.4000*%
%ADD115C,1.3980*%
%ADD116R,1.3980X1.3980*%
%ADD117R,1.7000X1.7000*%
G04:AMPARAMS|DCode=118|XSize=1.7mm|YSize=1.7mm|CornerRadius=0mm|HoleSize=0mm|Usage=FLASHONLY|Rotation=90.000|XOffset=0mm|YOffset=0mm|HoleType=Round|Shape=Octagon|*
%AMOCTAGOND118*
4,1,8,0.4250,0.8500,-0.4250,0.8500,-0.8500,0.4250,-0.8500,-0.4250,-0.4250,-0.8500,0.4250,-0.8500,0.8500,-0.4250,0.8500,0.4250,0.4250,0.8500,0.0*
%
%ADD118OCTAGOND118*%

%ADD119C,0.6500*%
%ADD120C,0.3000*%
%ADD121C,0.5588*%
%ADD122C,0.4572*%
G36*
X1292638Y538381D02*
X1292874Y537192D01*
X1293548Y536183D01*
X1294556Y535510D01*
X1295746Y535273D01*
X1570422D01*
X1570422Y279400D01*
X3108D01*
Y535372D01*
X276860D01*
X278049Y535609D01*
X279057Y536283D01*
X279731Y537291D01*
X279968Y538480D01*
Y863032D01*
X721173Y863032D01*
X721772Y861912D01*
X721198Y861053D01*
X720730Y858700D01*
Y852700D01*
X721198Y850346D01*
X722531Y848351D01*
X724526Y847018D01*
X726880Y846550D01*
X729233Y847018D01*
X731229Y848351D01*
X732562Y850346D01*
X733030Y852700D01*
Y858700D01*
X732562Y861053D01*
X731988Y861912D01*
X732587Y863032D01*
X810973D01*
X811572Y861912D01*
X810998Y861053D01*
X810530Y858700D01*
Y852700D01*
X810998Y850346D01*
X812331Y848351D01*
X814326Y847018D01*
X816680Y846550D01*
X819034Y847018D01*
X821029Y848351D01*
X822362Y850346D01*
X822830Y852700D01*
Y858700D01*
X822362Y861053D01*
X821788Y861912D01*
X822387Y863032D01*
X1292638Y863032D01*
Y538381D01*
D02*
G37*
%LPC*%
G36*
X1213810Y827786D02*
X1211890D01*
X1210116Y827051D01*
X1208759Y825694D01*
X1208457Y824966D01*
X1207083D01*
X1206781Y825694D01*
X1205424Y827051D01*
X1203650Y827786D01*
X1201730D01*
X1199956Y827051D01*
X1198599Y825694D01*
X1198297Y824966D01*
X1196923D01*
X1196621Y825694D01*
X1195264Y827051D01*
X1193490Y827786D01*
X1191570D01*
X1189796Y827051D01*
X1188439Y825694D01*
X1188137Y824966D01*
X1186763D01*
X1186461Y825694D01*
X1185104Y827051D01*
X1183330Y827786D01*
X1181410D01*
X1179636Y827051D01*
X1178279Y825694D01*
X1177544Y823920D01*
Y822000D01*
X1178279Y820226D01*
X1179636Y818869D01*
X1181410Y818134D01*
X1183330D01*
X1185104Y818869D01*
X1186461Y820226D01*
X1186763Y820954D01*
X1188137D01*
X1188439Y820226D01*
X1189796Y818869D01*
X1191570Y818134D01*
X1193490D01*
X1195264Y818869D01*
X1196621Y820226D01*
X1196923Y820954D01*
X1198297D01*
X1198599Y820226D01*
X1199956Y818869D01*
X1201730Y818134D01*
X1203650D01*
X1205424Y818869D01*
X1206781Y820226D01*
X1207083Y820954D01*
X1208457D01*
X1208759Y820226D01*
X1210116Y818869D01*
X1211890Y818134D01*
X1213810D01*
X1215584Y818869D01*
X1216941Y820226D01*
X1217676Y822000D01*
Y823920D01*
X1216941Y825694D01*
X1215584Y827051D01*
X1213810Y827786D01*
D02*
G37*
G36*
X1267659Y850672D02*
X1263832D01*
X1260136Y849682D01*
X1256823Y847768D01*
X1254117Y845063D01*
X1252204Y841749D01*
X1251213Y838053D01*
Y834227D01*
X1252204Y830531D01*
X1254117Y827217D01*
X1256823Y824511D01*
X1260136Y822598D01*
X1263832Y821608D01*
X1267659D01*
X1271355Y822598D01*
X1274668Y824511D01*
X1277374Y827217D01*
X1279287Y830531D01*
X1280277Y834227D01*
Y838053D01*
X1279287Y841749D01*
X1277374Y845063D01*
X1274668Y847768D01*
X1271355Y849682D01*
X1267659Y850672D01*
D02*
G37*
G36*
X308773Y850672D02*
X304947D01*
X301251Y849682D01*
X297937Y847768D01*
X295231Y845063D01*
X293318Y841749D01*
X292328Y838053D01*
Y834227D01*
X293318Y830531D01*
X295231Y827217D01*
X297937Y824511D01*
X301251Y822598D01*
X304947Y821608D01*
X308773D01*
X312469Y822598D01*
X315783Y824511D01*
X318489Y827217D01*
X320402Y830531D01*
X321392Y834227D01*
Y838053D01*
X320402Y841749D01*
X318489Y845063D01*
X315783Y847768D01*
X312469Y849682D01*
X308773Y850672D01*
D02*
G37*
G36*
X1076549Y827278D02*
X1074831D01*
X1073244Y826621D01*
X1072029Y825406D01*
X1071372Y823819D01*
Y822101D01*
X1072029Y820514D01*
X1073244Y819299D01*
X1074831Y818642D01*
X1076549D01*
X1078136Y819299D01*
X1079351Y820514D01*
X1080008Y822101D01*
Y823819D01*
X1079351Y825406D01*
X1078136Y826621D01*
X1076549Y827278D01*
D02*
G37*
G36*
X1066389D02*
X1064671D01*
X1063084Y826621D01*
X1061869Y825406D01*
X1061212Y823819D01*
Y822101D01*
X1061869Y820514D01*
X1063084Y819299D01*
X1064671Y818642D01*
X1066389D01*
X1067976Y819299D01*
X1069191Y820514D01*
X1069848Y822101D01*
Y823819D01*
X1069191Y825406D01*
X1067976Y826621D01*
X1066389Y827278D01*
D02*
G37*
G36*
X813077Y820850D02*
X810724Y820382D01*
X808729Y819049D01*
X807395Y817054D01*
X806927Y814700D01*
Y808700D01*
X807395Y806346D01*
X807826Y805702D01*
X807227Y804582D01*
X806729D01*
X805966Y804266D01*
X805600Y804435D01*
X804812Y805163D01*
Y806801D01*
X804046Y808650D01*
X802630Y810066D01*
X801552Y810513D01*
X800812Y811799D01*
Y813801D01*
X800046Y815650D01*
X798630Y817066D01*
X796781Y817832D01*
X794779D01*
X792930Y817066D01*
X791780Y815916D01*
X790630Y817066D01*
X788781Y817832D01*
X786779D01*
X784930Y817066D01*
X783780Y815916D01*
X782630Y817066D01*
X780781Y817832D01*
X778779D01*
X776930Y817066D01*
X775514Y815650D01*
X774748Y813801D01*
Y811799D01*
X775007Y811173D01*
X774779Y810832D01*
X772930Y810066D01*
X771780Y808916D01*
X770630Y810066D01*
X768781Y810832D01*
X768553Y811173D01*
X768812Y811799D01*
Y813801D01*
X768046Y815650D01*
X766630Y817066D01*
X764781Y817832D01*
X762779D01*
X760930Y817066D01*
X759780Y815916D01*
X758630Y817066D01*
X756781Y817832D01*
X754779D01*
X752930Y817066D01*
X751780Y815916D01*
X750630Y817066D01*
X748781Y817832D01*
X746779D01*
X744930Y817066D01*
X743514Y815650D01*
X742748Y813801D01*
Y811799D01*
X742008Y810513D01*
X740930Y810066D01*
X739514Y808650D01*
X738748Y806801D01*
Y805688D01*
X737581Y804662D01*
X736415Y804805D01*
X735867Y805905D01*
X736162Y806346D01*
X736630Y808700D01*
Y814700D01*
X736162Y817054D01*
X734829Y819049D01*
X732834Y820382D01*
X730480Y820850D01*
X728126Y820382D01*
X726131Y819049D01*
X724798Y817054D01*
X724330Y814700D01*
Y808700D01*
X724798Y806346D01*
X726131Y804351D01*
X728126Y803018D01*
X729023Y802840D01*
X729509Y801666D01*
X729305Y801361D01*
X728895Y799300D01*
X729305Y797239D01*
X730472Y795492D01*
X732219Y794324D01*
X734280Y793914D01*
X737280D01*
X739341Y794324D01*
X741088Y795492D01*
X742255Y797239D01*
X742665Y799300D01*
X742612Y799567D01*
X743668Y800768D01*
X744781D01*
X746630Y801534D01*
X748046Y802950D01*
X748812Y804799D01*
Y806801D01*
X749552Y808087D01*
X750630Y808534D01*
X751780Y809684D01*
X752930Y808534D01*
X754008Y808087D01*
X754748Y806801D01*
Y804799D01*
X755294Y803480D01*
Y799604D01*
X755649Y797820D01*
X756660Y796308D01*
X759974Y792994D01*
X761486Y791983D01*
X763270Y791628D01*
X779780D01*
X781564Y791983D01*
X783076Y792994D01*
X787076Y796994D01*
X788087Y798506D01*
X788442Y800290D01*
Y803905D01*
X788812Y804799D01*
Y806801D01*
X789552Y808087D01*
X790630Y808534D01*
X791780Y809684D01*
X792930Y808534D01*
X794008Y808087D01*
X794748Y806801D01*
Y804799D01*
X795514Y802950D01*
X796930Y801534D01*
X798779Y800768D01*
X800781D01*
X801403Y801026D01*
X801864Y800741D01*
X802498Y800105D01*
Y798249D01*
X803302Y796308D01*
X804788Y794822D01*
X806729Y794018D01*
X808831D01*
X810772Y794822D01*
X812258Y796308D01*
X813062Y798249D01*
Y800351D01*
X812652Y801339D01*
X812763Y801656D01*
X813492Y802632D01*
X815431Y803018D01*
X817426Y804351D01*
X818760Y806346D01*
X819228Y808700D01*
Y814700D01*
X818760Y817054D01*
X817426Y819049D01*
X815431Y820382D01*
X813077Y820850D01*
D02*
G37*
G36*
X1056229Y827278D02*
X1054511D01*
X1052924Y826621D01*
X1051709Y825406D01*
X1051052Y823819D01*
Y822101D01*
X1051709Y820514D01*
X1052244Y819980D01*
X1052820Y819150D01*
X1052244Y818320D01*
X1051709Y817786D01*
X1051052Y816199D01*
Y814481D01*
X1051709Y812894D01*
X1052244Y812360D01*
X1052820Y811530D01*
X1052244Y810700D01*
X1051709Y810166D01*
X1051052Y808579D01*
Y806861D01*
X1051709Y805274D01*
X1052924Y804059D01*
X1054511Y803402D01*
X1056229D01*
X1057816Y804059D01*
X1059031Y805274D01*
X1059688Y806861D01*
Y808579D01*
X1059031Y810166D01*
X1058496Y810700D01*
X1057920Y811530D01*
X1058496Y812360D01*
X1059031Y812894D01*
X1059688Y814481D01*
Y816199D01*
X1059031Y817786D01*
X1058496Y818320D01*
X1057920Y819150D01*
X1058496Y819980D01*
X1059031Y820514D01*
X1059688Y822101D01*
Y823819D01*
X1059031Y825406D01*
X1057816Y826621D01*
X1056229Y827278D01*
D02*
G37*
G36*
X1046069D02*
X1044351D01*
X1042764Y826621D01*
X1041549Y825406D01*
X1040892Y823819D01*
Y822101D01*
X1041549Y820514D01*
X1042084Y819980D01*
X1042660Y819150D01*
X1042084Y818320D01*
X1041549Y817786D01*
X1040892Y816199D01*
Y814481D01*
X1041549Y812894D01*
X1042084Y812360D01*
X1042660Y811530D01*
X1042084Y810700D01*
X1041549Y810166D01*
X1040892Y808579D01*
Y806861D01*
X1041549Y805274D01*
X1042764Y804059D01*
X1044351Y803402D01*
X1046069D01*
X1047656Y804059D01*
X1048871Y805274D01*
X1049528Y806861D01*
Y808579D01*
X1048871Y810166D01*
X1048336Y810700D01*
X1047760Y811530D01*
X1048336Y812360D01*
X1048871Y812894D01*
X1049528Y814481D01*
Y816199D01*
X1048871Y817786D01*
X1048336Y818320D01*
X1047760Y819150D01*
X1048336Y819980D01*
X1048871Y820514D01*
X1049528Y822101D01*
Y823819D01*
X1048871Y825406D01*
X1047656Y826621D01*
X1046069Y827278D01*
D02*
G37*
G36*
X908292Y812789D02*
X906373D01*
X904599Y812055D01*
X903241Y810697D01*
X902506Y808923D01*
Y807003D01*
X903241Y805230D01*
X904599Y803872D01*
X906373Y803137D01*
X908292D01*
X910066Y803872D01*
X911424Y805230D01*
X912159Y807003D01*
Y808923D01*
X911424Y810697D01*
X910066Y812055D01*
X908292Y812789D01*
D02*
G37*
G36*
X1243782Y793750D02*
X1241862D01*
X1240088Y793015D01*
X1238843Y791770D01*
X1238123Y791709D01*
X1237403Y791770D01*
X1236158Y793015D01*
X1234384Y793750D01*
X1232464D01*
X1230690Y793015D01*
X1229333Y791658D01*
X1229031Y790930D01*
X1227657D01*
X1227355Y791658D01*
X1225998Y793015D01*
X1224224Y793750D01*
X1222304D01*
X1220530Y793015D01*
X1219173Y791658D01*
X1218438Y789884D01*
Y787964D01*
X1219173Y786190D01*
X1220249Y785114D01*
X1219173Y784038D01*
X1218438Y782264D01*
Y780344D01*
X1219173Y778570D01*
X1220530Y777213D01*
X1222304Y776478D01*
X1224224D01*
X1225998Y777213D01*
X1227355Y778570D01*
X1227657Y779298D01*
X1229031D01*
X1229333Y778570D01*
X1230536Y777367D01*
X1229333Y776164D01*
X1228598Y774390D01*
Y772470D01*
X1229333Y770696D01*
X1229490Y770539D01*
X1229234Y769856D01*
X1228867Y769366D01*
X1227130D01*
X1225356Y768631D01*
X1223999Y767274D01*
X1223264Y765500D01*
Y763580D01*
X1223999Y761806D01*
X1225356Y760449D01*
X1227130Y759714D01*
X1229050D01*
X1230824Y760449D01*
X1232181Y761806D01*
X1232916Y763580D01*
Y765500D01*
X1232181Y767274D01*
X1232024Y767431D01*
X1232280Y768114D01*
X1232647Y768604D01*
X1234384D01*
X1236158Y769339D01*
X1237403Y770584D01*
X1238123Y770645D01*
X1238843Y770584D01*
X1240088Y769339D01*
X1241862Y768604D01*
X1243782D01*
X1245556Y769339D01*
X1246913Y770696D01*
X1247648Y772470D01*
Y774390D01*
X1246913Y776164D01*
X1245710Y777367D01*
X1246913Y778570D01*
X1247648Y780344D01*
Y782264D01*
X1246913Y784038D01*
X1245837Y785114D01*
X1246913Y786190D01*
X1247648Y787964D01*
Y789884D01*
X1246913Y791658D01*
X1245556Y793015D01*
X1243782Y793750D01*
D02*
G37*
G36*
X837890Y806196D02*
X835970D01*
X834196Y805461D01*
X832839Y804104D01*
X832104Y802330D01*
Y800410D01*
X832839Y798636D01*
X834196Y797279D01*
X834924Y796977D01*
Y795603D01*
X834196Y795301D01*
X832839Y793944D01*
X832104Y792170D01*
Y790250D01*
X832839Y788476D01*
X834196Y787119D01*
X835970Y786384D01*
X837890D01*
X839664Y787119D01*
X841021Y788476D01*
X841756Y790250D01*
Y792170D01*
X841021Y793944D01*
X839664Y795301D01*
X838936Y795603D01*
Y796977D01*
X839664Y797279D01*
X841021Y798636D01*
X841756Y800410D01*
Y802330D01*
X841021Y804104D01*
X839664Y805461D01*
X837890Y806196D01*
D02*
G37*
G36*
X796296Y785876D02*
X794376D01*
X792602Y785141D01*
X791780Y784319D01*
X790958Y785141D01*
X789184Y785876D01*
X787264D01*
X785490Y785141D01*
X784133Y783784D01*
X783398Y782010D01*
Y780090D01*
X784133Y778316D01*
X785490Y776959D01*
X787264Y776224D01*
X789184D01*
X790958Y776959D01*
X791780Y777781D01*
X792602Y776959D01*
X794376Y776224D01*
X796296D01*
X798070Y776959D01*
X799427Y778316D01*
X800162Y780090D01*
Y782010D01*
X799427Y783784D01*
X798070Y785141D01*
X796296Y785876D01*
D02*
G37*
G36*
X775745Y784928D02*
X773825D01*
X772051Y784193D01*
X771229Y783370D01*
X770407Y784193D01*
X768633Y784928D01*
X766713D01*
X764939Y784193D01*
X763582Y782835D01*
X762847Y781061D01*
Y779141D01*
X763582Y777368D01*
X764939Y776010D01*
X766713Y775275D01*
X768633D01*
X770407Y776010D01*
X771229Y776833D01*
X772051Y776010D01*
X773825Y775275D01*
X775745D01*
X777519Y776010D01*
X778876Y777368D01*
X779611Y779141D01*
Y781061D01*
X778876Y782835D01*
X777519Y784193D01*
X775745Y784928D01*
D02*
G37*
G36*
X1056229Y790428D02*
X1054511D01*
X1052924Y789771D01*
X1051709Y788556D01*
X1051052Y786969D01*
Y785251D01*
X1051709Y783664D01*
X1052244Y783130D01*
X1052820Y782300D01*
X1052244Y781470D01*
X1051709Y780936D01*
X1051052Y779349D01*
Y777631D01*
X1051709Y776044D01*
X1052924Y774829D01*
X1054511Y774172D01*
X1056229D01*
X1057816Y774829D01*
X1059031Y776044D01*
X1059688Y777631D01*
Y779349D01*
X1059031Y780936D01*
X1058496Y781470D01*
X1057920Y782300D01*
X1058496Y783130D01*
X1059031Y783664D01*
X1059688Y785251D01*
Y786969D01*
X1059031Y788556D01*
X1057816Y789771D01*
X1056229Y790428D01*
D02*
G37*
G36*
X1046069D02*
X1044351D01*
X1042764Y789771D01*
X1041549Y788556D01*
X1040892Y786969D01*
Y785251D01*
X1041549Y783664D01*
X1042084Y783130D01*
X1042660Y782300D01*
X1042084Y781470D01*
X1041549Y780936D01*
X1040892Y779349D01*
Y777631D01*
X1041549Y776044D01*
X1042764Y774829D01*
X1044351Y774172D01*
X1046069D01*
X1047656Y774829D01*
X1048871Y776044D01*
X1049528Y777631D01*
Y779349D01*
X1048871Y780936D01*
X1048336Y781470D01*
X1047760Y782300D01*
X1048336Y783130D01*
X1048871Y783664D01*
X1049528Y785251D01*
Y786969D01*
X1048871Y788556D01*
X1047656Y789771D01*
X1046069Y790428D01*
D02*
G37*
G36*
X756356Y774192D02*
X754436D01*
X752662Y773457D01*
X751840Y772635D01*
X751018Y773457D01*
X749244Y774192D01*
X747324D01*
X745550Y773457D01*
X744193Y772100D01*
X743458Y770326D01*
Y768406D01*
X744193Y766632D01*
X745550Y765275D01*
X747324Y764540D01*
X749244D01*
X751018Y765275D01*
X751840Y766097D01*
X752662Y765275D01*
X754436Y764540D01*
X756356D01*
X758130Y765275D01*
X759487Y766632D01*
X760222Y768406D01*
Y770326D01*
X759487Y772100D01*
X758130Y773457D01*
X756356Y774192D01*
D02*
G37*
G36*
X712528Y782206D02*
X710608D01*
X708834Y781471D01*
X707477Y780114D01*
X706742Y778340D01*
Y776420D01*
X707477Y774646D01*
X708834Y773289D01*
X710608Y772554D01*
X712528D01*
X714302Y773289D01*
X715659Y774646D01*
X716394Y776420D01*
Y778340D01*
X715659Y780114D01*
X714302Y781471D01*
X712528Y782206D01*
D02*
G37*
G36*
X738068Y772414D02*
X736148D01*
X734374Y771679D01*
X733017Y770322D01*
X732282Y768548D01*
Y766628D01*
X733017Y764854D01*
X734374Y763497D01*
X736148Y762762D01*
X738068D01*
X739842Y763497D01*
X741199Y764854D01*
X741934Y766628D01*
Y768548D01*
X741199Y770322D01*
X739842Y771679D01*
X738068Y772414D01*
D02*
G37*
G36*
X985210Y777974D02*
X983290D01*
X981516Y777239D01*
X980159Y775882D01*
X979424Y774108D01*
Y772188D01*
X980159Y770414D01*
X980981Y769592D01*
X980159Y768770D01*
X979424Y766996D01*
Y765076D01*
X980159Y763302D01*
X981516Y761945D01*
X983290Y761210D01*
X985210D01*
X986984Y761945D01*
X988341Y763302D01*
X989076Y765076D01*
Y766996D01*
X988341Y768770D01*
X987519Y769592D01*
X988341Y770414D01*
X989076Y772188D01*
Y774108D01*
X988341Y775882D01*
X986984Y777239D01*
X985210Y777974D01*
D02*
G37*
G36*
X494990Y769366D02*
X493070D01*
X491296Y768631D01*
X489939Y767274D01*
X489204Y765500D01*
Y763580D01*
X489939Y761806D01*
X491296Y760449D01*
X493070Y759714D01*
X494990D01*
X496764Y760449D01*
X498121Y761806D01*
X498856Y763580D01*
Y765500D01*
X498121Y767274D01*
X496764Y768631D01*
X494990Y769366D01*
D02*
G37*
G36*
X707842Y759714D02*
X705922D01*
X704148Y758979D01*
X702791Y757622D01*
X702056Y755848D01*
Y753928D01*
X702791Y752154D01*
X704148Y750797D01*
X705922Y750062D01*
X707842D01*
X709616Y750797D01*
X710973Y752154D01*
X711708Y753928D01*
Y755848D01*
X710973Y757622D01*
X709616Y758979D01*
X707842Y759714D01*
D02*
G37*
G36*
X1266134Y751586D02*
X1264214D01*
X1262440Y750851D01*
X1261083Y749494D01*
X1260781Y748766D01*
X1259407D01*
X1259105Y749494D01*
X1257748Y750851D01*
X1255974Y751586D01*
X1254054D01*
X1252280Y750851D01*
X1250923Y749494D01*
X1250621Y748766D01*
X1249247D01*
X1248945Y749494D01*
X1247588Y750851D01*
X1245814Y751586D01*
X1243894D01*
X1242120Y750851D01*
X1240763Y749494D01*
X1240461Y748766D01*
X1239087D01*
X1238785Y749494D01*
X1237428Y750851D01*
X1235654Y751586D01*
X1233734D01*
X1231960Y750851D01*
X1230603Y749494D01*
X1229868Y747720D01*
Y745800D01*
X1230603Y744026D01*
X1231960Y742669D01*
X1233734Y741934D01*
X1235654D01*
X1237428Y742669D01*
X1238785Y744026D01*
X1239087Y744754D01*
X1240461D01*
X1240763Y744026D01*
X1242120Y742669D01*
X1243894Y741934D01*
X1245814D01*
X1247588Y742669D01*
X1248945Y744026D01*
X1249247Y744754D01*
X1250621D01*
X1250923Y744026D01*
X1252280Y742669D01*
X1254054Y741934D01*
X1255974D01*
X1257748Y742669D01*
X1259105Y744026D01*
X1259407Y744754D01*
X1260781D01*
X1261083Y744026D01*
X1262440Y742669D01*
X1264214Y741934D01*
X1266134D01*
X1267908Y742669D01*
X1269265Y744026D01*
X1270000Y745800D01*
Y747720D01*
X1269265Y749494D01*
X1267908Y750851D01*
X1266134Y751586D01*
D02*
G37*
G36*
X390342Y756666D02*
X388422D01*
X386648Y755931D01*
X385291Y754574D01*
X384556Y752800D01*
Y750880D01*
X385291Y749106D01*
X386648Y747749D01*
X388422Y747014D01*
X390342D01*
X392116Y747749D01*
X393473Y749106D01*
X394208Y750880D01*
Y752800D01*
X393473Y754574D01*
X392116Y755931D01*
X390342Y756666D01*
D02*
G37*
G36*
X1094965Y747881D02*
X1093045D01*
X1091271Y747146D01*
X1090100Y745975D01*
X1089358Y745869D01*
X1088616Y745975D01*
X1087446Y747146D01*
X1085672Y747881D01*
X1083752D01*
X1081978Y747146D01*
X1080816Y745984D01*
X1080122Y745858D01*
X1079321Y745969D01*
X1078180Y747109D01*
X1076406Y747844D01*
X1074486D01*
X1072713Y747109D01*
X1071355Y745752D01*
X1070620Y743978D01*
Y742058D01*
X1071355Y740284D01*
X1072713Y738927D01*
X1074486Y738192D01*
X1076406D01*
X1078180Y738927D01*
X1079342Y740089D01*
X1080037Y740215D01*
X1080838Y740104D01*
X1081978Y738964D01*
X1083752Y738229D01*
X1085672D01*
X1087446Y738964D01*
X1088616Y740134D01*
X1089358Y740241D01*
X1090100Y740134D01*
X1091271Y738964D01*
X1093045Y738229D01*
X1094965D01*
X1096739Y738964D01*
X1097908Y740133D01*
X1098706Y740225D01*
X1099387Y740118D01*
X1100578Y738927D01*
X1102351Y738192D01*
X1104271D01*
X1106045Y738927D01*
X1107185Y740067D01*
X1107936Y740194D01*
X1108687Y740067D01*
X1109827Y738927D01*
X1111601Y738192D01*
X1113521D01*
X1115294Y738927D01*
X1116652Y740284D01*
X1117387Y742058D01*
Y743978D01*
X1116652Y745752D01*
X1115294Y747109D01*
X1113521Y747844D01*
X1111601D01*
X1109827Y747109D01*
X1108687Y745969D01*
X1107936Y745842D01*
X1107185Y745969D01*
X1106045Y747109D01*
X1104271Y747844D01*
X1102351D01*
X1100578Y747109D01*
X1099408Y745940D01*
X1098610Y745848D01*
X1097930Y745955D01*
X1096739Y747146D01*
X1094965Y747881D01*
D02*
G37*
G36*
X554092Y766182D02*
X533028D01*
Y745118D01*
X554092D01*
Y766182D01*
D02*
G37*
G36*
X614490Y765895D02*
X593426D01*
Y744831D01*
X614490D01*
Y765895D01*
D02*
G37*
G36*
X579944D02*
X577171D01*
X574493Y765177D01*
X572091Y763791D01*
X570130Y761830D01*
X568744Y759428D01*
X568026Y756750D01*
Y753977D01*
X568744Y751298D01*
X570130Y748896D01*
X572091Y746935D01*
X574493Y745549D01*
X577171Y744831D01*
X579944D01*
X582623Y745549D01*
X585025Y746935D01*
X586986Y748896D01*
X588372Y751298D01*
X589090Y753977D01*
Y756750D01*
X588372Y759428D01*
X586986Y761830D01*
X585025Y763791D01*
X582623Y765177D01*
X579944Y765895D01*
D02*
G37*
G36*
X766516Y753110D02*
X764596D01*
X762822Y752375D01*
X761465Y751018D01*
X760730Y749244D01*
Y747324D01*
X761465Y745550D01*
X762822Y744193D01*
X764596Y743458D01*
X766516D01*
X768290Y744193D01*
X769647Y745550D01*
X770382Y747324D01*
Y749244D01*
X769647Y751018D01*
X768290Y752375D01*
X766516Y753110D01*
D02*
G37*
G36*
X792932Y741172D02*
X791012D01*
X789238Y740437D01*
X788416Y739615D01*
X787594Y740437D01*
X785820Y741172D01*
X783900D01*
X782126Y740437D01*
X780769Y739080D01*
X780034Y737306D01*
Y735386D01*
X780769Y733612D01*
X782126Y732255D01*
X783900Y731520D01*
X785820D01*
X787594Y732255D01*
X788416Y733077D01*
X789238Y732255D01*
X791012Y731520D01*
X792932D01*
X794706Y732255D01*
X796063Y733612D01*
X796798Y735386D01*
Y737306D01*
X796063Y739080D01*
X794706Y740437D01*
X792932Y741172D01*
D02*
G37*
G36*
X329890Y752856D02*
X327970D01*
X326196Y752121D01*
X324839Y750764D01*
X324104Y748990D01*
Y747070D01*
X324839Y745296D01*
X325396Y744739D01*
X325688Y743485D01*
X324331Y742128D01*
X323596Y740354D01*
Y738434D01*
X324331Y736660D01*
X325688Y735303D01*
X327462Y734568D01*
X329382D01*
X331156Y735303D01*
X332513Y736660D01*
X333248Y738434D01*
Y740354D01*
X332513Y742128D01*
X331956Y742685D01*
X331664Y743939D01*
X333021Y745296D01*
X333756Y747070D01*
Y748990D01*
X333021Y750764D01*
X331664Y752121D01*
X329890Y752856D01*
D02*
G37*
G36*
X494990Y737616D02*
X493070D01*
X491296Y736881D01*
X489939Y735524D01*
X489204Y733750D01*
Y731830D01*
X489939Y730056D01*
X491296Y728699D01*
X493070Y727964D01*
X494990D01*
X496764Y728699D01*
X498121Y730056D01*
X498856Y731830D01*
Y733750D01*
X498121Y735524D01*
X496764Y736881D01*
X494990Y737616D01*
D02*
G37*
G36*
X926984Y732536D02*
X925064D01*
X923290Y731801D01*
X921933Y730444D01*
X921198Y728670D01*
Y726750D01*
X921933Y724976D01*
X923290Y723619D01*
X925064Y722884D01*
X926984D01*
X928758Y723619D01*
X930115Y724976D01*
X930850Y726750D01*
Y728670D01*
X930115Y730444D01*
X928758Y731801D01*
X926984Y732536D01*
D02*
G37*
G36*
X915137D02*
X913217D01*
X911443Y731801D01*
X910086Y730444D01*
X909351Y728670D01*
Y726750D01*
X910086Y724976D01*
X911443Y723619D01*
X913217Y722884D01*
X915137D01*
X916911Y723619D01*
X918268Y724976D01*
X919003Y726750D01*
Y728670D01*
X918268Y730444D01*
X916911Y731801D01*
X915137Y732536D01*
D02*
G37*
G36*
X390850Y731266D02*
X388930D01*
X387156Y730531D01*
X385799Y729174D01*
X385064Y727400D01*
Y725480D01*
X385799Y723706D01*
X387156Y722349D01*
X388930Y721614D01*
X390850D01*
X392624Y722349D01*
X393981Y723706D01*
X394716Y725480D01*
Y727400D01*
X393981Y729174D01*
X392624Y730531D01*
X390850Y731266D01*
D02*
G37*
G36*
X544947Y740782D02*
X542173D01*
X539495Y740064D01*
X537093Y738678D01*
X535132Y736717D01*
X533746Y734315D01*
X533028Y731637D01*
Y728863D01*
X533746Y726185D01*
X535132Y723783D01*
X537093Y721822D01*
X539495Y720436D01*
X542173Y719718D01*
X544947D01*
X547625Y720436D01*
X550027Y721822D01*
X551988Y723783D01*
X553374Y726185D01*
X554092Y728863D01*
Y731637D01*
X553374Y734315D01*
X551988Y736717D01*
X550027Y738678D01*
X547625Y740064D01*
X544947Y740782D01*
D02*
G37*
G36*
X605345Y740495D02*
X602571D01*
X599893Y739777D01*
X597491Y738391D01*
X595530Y736430D01*
X594144Y734028D01*
X593426Y731350D01*
Y728577D01*
X594144Y725898D01*
X595530Y723496D01*
X597491Y721535D01*
X599893Y720149D01*
X602571Y719431D01*
X605345D01*
X608023Y720149D01*
X610425Y721535D01*
X612386Y723496D01*
X613772Y725898D01*
X614490Y728577D01*
Y731350D01*
X613772Y734028D01*
X612386Y736430D01*
X610425Y738391D01*
X608023Y739777D01*
X605345Y740495D01*
D02*
G37*
G36*
X579944D02*
X577171D01*
X574493Y739777D01*
X572091Y738391D01*
X570130Y736430D01*
X568744Y734028D01*
X568026Y731350D01*
Y728577D01*
X568744Y725898D01*
X570130Y723496D01*
X572091Y721535D01*
X574493Y720149D01*
X577171Y719431D01*
X579944D01*
X582623Y720149D01*
X585025Y721535D01*
X586986Y723496D01*
X588372Y725898D01*
X589090Y728577D01*
Y731350D01*
X588372Y734028D01*
X586986Y736430D01*
X585025Y738391D01*
X582623Y739777D01*
X579944Y740495D01*
D02*
G37*
G36*
X901390Y722795D02*
X899470D01*
X897696Y722060D01*
X896339Y720703D01*
X895604Y718929D01*
Y717009D01*
X896339Y715235D01*
X897696Y713878D01*
X899470Y713143D01*
X901390D01*
X903164Y713878D01*
X904521Y715235D01*
X905256Y717009D01*
Y718929D01*
X904521Y720703D01*
X903164Y722060D01*
X901390Y722795D01*
D02*
G37*
G36*
X1088334Y722122D02*
X1086414D01*
X1084640Y721387D01*
X1083283Y720030D01*
X1082548Y718256D01*
Y716336D01*
X1083283Y714562D01*
X1084640Y713205D01*
X1086414Y712470D01*
X1088334D01*
X1090108Y713205D01*
X1091465Y714562D01*
X1092200Y716336D01*
Y718256D01*
X1091465Y720030D01*
X1090108Y721387D01*
X1088334Y722122D01*
D02*
G37*
G36*
X1227912Y727028D02*
X1225992D01*
X1224218Y726293D01*
X1222860Y724936D01*
X1222126Y723162D01*
Y721242D01*
X1222860Y719469D01*
X1224034Y718295D01*
X1224139Y717554D01*
X1224034Y716812D01*
X1222860Y715639D01*
X1222126Y713865D01*
Y711945D01*
X1222860Y710171D01*
X1224114Y708918D01*
X1224170Y708200D01*
X1224114Y707482D01*
X1222860Y706228D01*
X1222126Y704455D01*
Y702535D01*
X1222860Y700761D01*
X1224218Y699404D01*
X1225992Y698669D01*
X1227912D01*
X1229686Y699404D01*
X1231043Y700761D01*
X1231778Y702535D01*
Y704455D01*
X1231043Y706228D01*
X1229789Y707482D01*
X1229733Y708200D01*
X1229789Y708918D01*
X1231043Y710171D01*
X1231778Y711945D01*
Y713865D01*
X1231043Y715639D01*
X1229869Y716812D01*
X1229764Y717554D01*
X1229869Y718295D01*
X1231043Y719469D01*
X1231778Y721242D01*
Y723162D01*
X1231043Y724936D01*
X1229686Y726293D01*
X1227912Y727028D01*
D02*
G37*
G36*
X915360Y699878D02*
X913440D01*
X911666Y699143D01*
X910309Y697785D01*
X909574Y696012D01*
Y694092D01*
X910309Y692318D01*
X911666Y690961D01*
X913440Y690226D01*
X915360D01*
X917134Y690961D01*
X918491Y692318D01*
X919226Y694092D01*
Y696012D01*
X918491Y697785D01*
X917134Y699143D01*
X915360Y699878D01*
D02*
G37*
G36*
X855670Y708576D02*
X853750D01*
X851976Y707841D01*
X850619Y706483D01*
X849884Y704710D01*
Y702790D01*
X850619Y701016D01*
X851404Y700230D01*
X851841Y699401D01*
X851404Y698571D01*
X850619Y697785D01*
X849884Y696012D01*
Y694092D01*
X850619Y692318D01*
X851976Y690961D01*
X853750Y690226D01*
X855670D01*
X857444Y690961D01*
X858801Y692318D01*
X859536Y694092D01*
Y696012D01*
X858801Y697785D01*
X858016Y698571D01*
X857579Y699401D01*
X858016Y700230D01*
X858801Y701016D01*
X859536Y702790D01*
Y704710D01*
X858801Y706483D01*
X857444Y707841D01*
X855670Y708576D01*
D02*
G37*
G36*
X843207Y699878D02*
X841287D01*
X839513Y699143D01*
X838156Y697785D01*
X837421Y696012D01*
Y694092D01*
X838156Y692318D01*
X839513Y690961D01*
X841287Y690226D01*
X843207D01*
X844981Y690961D01*
X846338Y692318D01*
X847073Y694092D01*
Y696012D01*
X846338Y697785D01*
X844981Y699143D01*
X843207Y699878D01*
D02*
G37*
G36*
X867522Y699415D02*
X865602D01*
X863828Y698680D01*
X862471Y697323D01*
X861736Y695549D01*
Y693629D01*
X862471Y691855D01*
X863828Y690498D01*
X865602Y689763D01*
X867522D01*
X869296Y690498D01*
X870653Y691855D01*
X871388Y693629D01*
Y695549D01*
X870653Y697323D01*
X869296Y698680D01*
X867522Y699415D01*
D02*
G37*
G36*
X707307Y704977D02*
X704933D01*
X702640Y704362D01*
X700583Y703175D01*
X698905Y701497D01*
X697718Y699440D01*
X697103Y697147D01*
Y694773D01*
X697718Y692480D01*
X698905Y690423D01*
X700583Y688745D01*
X702640Y687558D01*
X704933Y686943D01*
X707307D01*
X709600Y687558D01*
X711657Y688745D01*
X713335Y690423D01*
X714522Y692480D01*
X715137Y694773D01*
Y697147D01*
X714522Y699440D01*
X713335Y701497D01*
X711657Y703175D01*
X709600Y704362D01*
X707307Y704977D01*
D02*
G37*
G36*
X681907D02*
X679533D01*
X677240Y704362D01*
X675183Y703175D01*
X673505Y701497D01*
X672318Y699440D01*
X671703Y697147D01*
Y694773D01*
X672318Y692480D01*
X673505Y690423D01*
X675183Y688745D01*
X677240Y687558D01*
X679533Y686943D01*
X681907D01*
X684200Y687558D01*
X686257Y688745D01*
X687935Y690423D01*
X689122Y692480D01*
X689737Y694773D01*
Y697147D01*
X689122Y699440D01*
X687935Y701497D01*
X686257Y703175D01*
X684200Y704362D01*
X681907Y704977D01*
D02*
G37*
G36*
X656507D02*
X654133D01*
X651840Y704362D01*
X649783Y703175D01*
X648105Y701497D01*
X646917Y699440D01*
X646303Y697147D01*
Y694773D01*
X646917Y692480D01*
X648105Y690423D01*
X649783Y688745D01*
X651840Y687558D01*
X654133Y686943D01*
X656507D01*
X658800Y687558D01*
X660857Y688745D01*
X662535Y690423D01*
X663723Y692480D01*
X664337Y694773D01*
Y697147D01*
X663723Y699440D01*
X662535Y701497D01*
X660857Y703175D01*
X658800Y704362D01*
X656507Y704977D01*
D02*
G37*
G36*
X739084Y694436D02*
X737164D01*
X735390Y693701D01*
X734033Y692344D01*
X733298Y690570D01*
Y688650D01*
X734033Y686876D01*
X735390Y685519D01*
X737164Y684784D01*
X739084D01*
X740858Y685519D01*
X742215Y686876D01*
X742950Y688650D01*
Y690570D01*
X742215Y692344D01*
X740858Y693701D01*
X739084Y694436D01*
D02*
G37*
G36*
X444190D02*
X442270D01*
X440496Y693701D01*
X439139Y692344D01*
X438404Y690570D01*
Y688650D01*
X439139Y686876D01*
X440496Y685519D01*
X442270Y684784D01*
X444190D01*
X445964Y685519D01*
X447321Y686876D01*
X448056Y688650D01*
Y690570D01*
X447321Y692344D01*
X445964Y693701D01*
X444190Y694436D01*
D02*
G37*
G36*
X1059159Y703263D02*
X1057239D01*
X1055465Y702529D01*
X1054108Y701171D01*
X1053373Y699398D01*
Y697478D01*
X1054108Y695704D01*
X1055465Y694346D01*
X1055638Y694275D01*
Y693005D01*
X1055465Y692934D01*
X1054108Y691576D01*
X1053373Y689802D01*
Y687882D01*
X1054108Y686108D01*
X1055465Y684751D01*
X1057239Y684016D01*
X1059159D01*
X1060933Y684751D01*
X1062290Y686108D01*
X1063025Y687882D01*
Y689802D01*
X1062290Y691576D01*
X1060933Y692934D01*
X1060760Y693005D01*
Y694275D01*
X1060933Y694346D01*
X1062290Y695704D01*
X1063025Y697478D01*
Y699398D01*
X1062290Y701171D01*
X1060933Y702529D01*
X1059159Y703263D01*
D02*
G37*
G36*
X588382Y703952D02*
X567318D01*
Y682888D01*
X588382D01*
Y703952D01*
D02*
G37*
G36*
X554092D02*
X533028D01*
Y682888D01*
X554092D01*
Y703952D01*
D02*
G37*
G36*
X1175964Y691887D02*
X1174044D01*
X1172270Y691152D01*
X1170913Y689794D01*
X1170178Y688021D01*
Y686101D01*
X1170913Y684327D01*
X1172270Y682970D01*
X1174044Y682235D01*
X1175964D01*
X1177738Y682970D01*
X1179095Y684327D01*
X1179830Y686101D01*
Y688021D01*
X1179095Y689794D01*
X1177738Y691152D01*
X1175964Y691887D01*
D02*
G37*
G36*
X825284Y690626D02*
X823364D01*
X821590Y689891D01*
X820232Y688534D01*
X819498Y686760D01*
Y684840D01*
X820232Y683066D01*
X821590Y681709D01*
X823364Y680974D01*
X825284D01*
X827057Y681709D01*
X828415Y683066D01*
X829150Y684840D01*
Y686760D01*
X828415Y688534D01*
X827057Y689891D01*
X825284Y690626D01*
D02*
G37*
G36*
X1059165Y675427D02*
X1057245D01*
X1055471Y674692D01*
X1054113Y673334D01*
X1053812Y672607D01*
X1052437D01*
X1052136Y673334D01*
X1050778Y674692D01*
X1049005Y675427D01*
X1047085D01*
X1045311Y674692D01*
X1043953Y673334D01*
X1043219Y671561D01*
Y669641D01*
X1043953Y667867D01*
X1045311Y666509D01*
X1047085Y665775D01*
X1049005D01*
X1050778Y666509D01*
X1052136Y667867D01*
X1052437Y668595D01*
X1053812D01*
X1054113Y667867D01*
X1055471Y666509D01*
X1057245Y665775D01*
X1059165D01*
X1060938Y666509D01*
X1062296Y667867D01*
X1063031Y669641D01*
Y671561D01*
X1062296Y673334D01*
X1060938Y674692D01*
X1059165Y675427D01*
D02*
G37*
G36*
X370530Y690626D02*
X368610D01*
X366836Y689891D01*
X365479Y688534D01*
X364744Y686760D01*
Y684840D01*
X365479Y683066D01*
X366365Y682180D01*
X366695Y681355D01*
X366365Y680529D01*
X365479Y679644D01*
X364744Y677870D01*
Y675950D01*
X365479Y674176D01*
X366836Y672819D01*
X368610Y672084D01*
X370530D01*
X372304Y672819D01*
X373661Y674176D01*
X374396Y675950D01*
Y677870D01*
X373661Y679644D01*
X372775Y680529D01*
X372445Y681355D01*
X372775Y682180D01*
X373661Y683066D01*
X374396Y684840D01*
Y686760D01*
X373661Y688534D01*
X372304Y689891D01*
X370530Y690626D01*
D02*
G37*
G36*
X814522Y678942D02*
X812602D01*
X810828Y678207D01*
X809471Y676850D01*
X808736Y675076D01*
Y673156D01*
X809471Y671382D01*
X810828Y670025D01*
X812602Y669290D01*
X814522D01*
X816296Y670025D01*
X817653Y671382D01*
X818388Y673156D01*
Y675076D01*
X817653Y676850D01*
X816296Y678207D01*
X814522Y678942D01*
D02*
G37*
G36*
X1127675Y695289D02*
X1125755D01*
X1123981Y694555D01*
X1122624Y693197D01*
X1121889Y691423D01*
Y689503D01*
X1122624Y687730D01*
X1123981Y686372D01*
X1124287Y686245D01*
Y684871D01*
X1123868Y684697D01*
X1122511Y683340D01*
X1121776Y681566D01*
Y679646D01*
X1122511Y677872D01*
X1123868Y676515D01*
X1124385Y676301D01*
Y674926D01*
X1123906Y674727D01*
X1122548Y673370D01*
X1121814Y671596D01*
Y669676D01*
X1122548Y667902D01*
X1123906Y666545D01*
X1125679Y665810D01*
X1127599D01*
X1129373Y666545D01*
X1130517Y667689D01*
X1131267Y667813D01*
X1132017Y667689D01*
X1133161Y666545D01*
X1134935Y665810D01*
X1136855D01*
X1138628Y666545D01*
X1139891Y667807D01*
X1140434Y667882D01*
X1141336Y667842D01*
X1142548Y666629D01*
X1144322Y665895D01*
X1146242D01*
X1148016Y666629D01*
X1149373Y667987D01*
X1150108Y669761D01*
Y671681D01*
X1149373Y673454D01*
X1148016Y674812D01*
X1147587Y674990D01*
Y676364D01*
X1148222Y676628D01*
X1149580Y677985D01*
X1150315Y679759D01*
Y681679D01*
X1149580Y683453D01*
X1148222Y684810D01*
X1148004Y684901D01*
Y686275D01*
X1148147Y686334D01*
X1149505Y687692D01*
X1150239Y689466D01*
Y691385D01*
X1149505Y693159D01*
X1148147Y694517D01*
X1146373Y695252D01*
X1144454D01*
X1142680Y694517D01*
X1141416Y693253D01*
X1141051Y693159D01*
X1139948Y693160D01*
X1138817Y694291D01*
X1137043Y695026D01*
X1135123D01*
X1133349Y694291D01*
X1132203Y693144D01*
X1130818Y693167D01*
X1130806Y693197D01*
X1129448Y694555D01*
X1127675Y695289D01*
D02*
G37*
G36*
X1082025Y675427D02*
X1080105D01*
X1078331Y674692D01*
X1076973Y673334D01*
X1076239Y671561D01*
Y669641D01*
X1076973Y667867D01*
X1078331Y666509D01*
X1080105Y665775D01*
X1082025D01*
X1083798Y666509D01*
X1085156Y667867D01*
X1085891Y669641D01*
Y671561D01*
X1085156Y673334D01*
X1083798Y674692D01*
X1082025Y675427D01*
D02*
G37*
G36*
X1070595D02*
X1068675D01*
X1066901Y674692D01*
X1065543Y673334D01*
X1064809Y671561D01*
Y669641D01*
X1065543Y667867D01*
X1066901Y666509D01*
X1068675Y665775D01*
X1070595D01*
X1072368Y666509D01*
X1073726Y667867D01*
X1074461Y669641D01*
Y671561D01*
X1073726Y673334D01*
X1072368Y674692D01*
X1070595Y675427D01*
D02*
G37*
G36*
X707307Y679577D02*
X704933D01*
X702640Y678962D01*
X700583Y677775D01*
X698905Y676097D01*
X697718Y674040D01*
X697103Y671747D01*
Y669373D01*
X697718Y667080D01*
X698905Y665023D01*
X700583Y663345D01*
X702640Y662158D01*
X704933Y661543D01*
X707307D01*
X709600Y662158D01*
X711657Y663345D01*
X713335Y665023D01*
X714522Y667080D01*
X715137Y669373D01*
Y671747D01*
X714522Y674040D01*
X713335Y676097D01*
X711657Y677775D01*
X709600Y678962D01*
X707307Y679577D01*
D02*
G37*
G36*
X681907D02*
X679533D01*
X677240Y678962D01*
X675183Y677775D01*
X673505Y676097D01*
X672318Y674040D01*
X671703Y671747D01*
Y669373D01*
X672318Y667080D01*
X673505Y665023D01*
X675183Y663345D01*
X677240Y662158D01*
X679533Y661543D01*
X681907D01*
X684200Y662158D01*
X686257Y663345D01*
X687935Y665023D01*
X689122Y667080D01*
X689737Y669373D01*
Y671747D01*
X689122Y674040D01*
X687935Y676097D01*
X686257Y677775D01*
X684200Y678962D01*
X681907Y679577D01*
D02*
G37*
G36*
X664337D02*
X646303D01*
Y661543D01*
X664337D01*
Y679577D01*
D02*
G37*
G36*
X835350Y670402D02*
X833430D01*
X831656Y669667D01*
X830299Y668309D01*
X829564Y666536D01*
Y664616D01*
X830299Y662842D01*
X831656Y661484D01*
X833430Y660750D01*
X835350D01*
X837124Y661484D01*
X838481Y662842D01*
X839216Y664616D01*
Y666536D01*
X838481Y668309D01*
X837124Y669667D01*
X835350Y670402D01*
D02*
G37*
G36*
X409900Y670306D02*
X407980D01*
X406206Y669571D01*
X404849Y668214D01*
X404114Y666440D01*
Y664520D01*
X404849Y662746D01*
X406206Y661389D01*
X407980Y660654D01*
X409900D01*
X411674Y661389D01*
X413031Y662746D01*
X413766Y664520D01*
Y666440D01*
X413031Y668214D01*
X411674Y669571D01*
X409900Y670306D01*
D02*
G37*
G36*
X579237Y678552D02*
X576463D01*
X573785Y677834D01*
X571383Y676448D01*
X569422Y674487D01*
X568036Y672085D01*
X567318Y669407D01*
Y666633D01*
X568036Y663955D01*
X569422Y661553D01*
X571383Y659592D01*
X573785Y658206D01*
X576463Y657488D01*
X579237D01*
X581915Y658206D01*
X584317Y659592D01*
X586278Y661553D01*
X587664Y663955D01*
X588382Y666633D01*
Y669407D01*
X587664Y672085D01*
X586278Y674487D01*
X584317Y676448D01*
X581915Y677834D01*
X579237Y678552D01*
D02*
G37*
G36*
X544947D02*
X542173D01*
X539495Y677834D01*
X537093Y676448D01*
X535132Y674487D01*
X533746Y672085D01*
X533028Y669407D01*
Y666633D01*
X533746Y663955D01*
X535132Y661553D01*
X537093Y659592D01*
X539495Y658206D01*
X542173Y657488D01*
X544947D01*
X547625Y658206D01*
X550027Y659592D01*
X551988Y661553D01*
X553374Y663955D01*
X554092Y666633D01*
Y669407D01*
X553374Y672085D01*
X551988Y674487D01*
X550027Y676448D01*
X547625Y677834D01*
X544947Y678552D01*
D02*
G37*
G36*
X918316Y666402D02*
X916396D01*
X914622Y665667D01*
X913264Y664309D01*
X912530Y662536D01*
Y660616D01*
X913264Y658842D01*
X914622Y657484D01*
X916396Y656750D01*
X918316D01*
X920089Y657484D01*
X921447Y658842D01*
X922182Y660616D01*
Y662536D01*
X921447Y664309D01*
X920089Y665667D01*
X918316Y666402D01*
D02*
G37*
G36*
X905251D02*
X903332D01*
X901558Y665667D01*
X900200Y664309D01*
X899465Y662536D01*
Y660616D01*
X900200Y658842D01*
X901558Y657484D01*
X903332Y656750D01*
X905251D01*
X907025Y657484D01*
X908383Y658842D01*
X909118Y660616D01*
Y662536D01*
X908383Y664309D01*
X907025Y665667D01*
X905251Y666402D01*
D02*
G37*
G36*
X892551D02*
X890632D01*
X888858Y665667D01*
X887500Y664309D01*
X886766Y662536D01*
Y660616D01*
X887500Y658842D01*
X888858Y657484D01*
X890632Y656750D01*
X892551D01*
X894325Y657484D01*
X895683Y658842D01*
X896417Y660616D01*
Y662536D01*
X895683Y664309D01*
X894325Y665667D01*
X892551Y666402D01*
D02*
G37*
G36*
X879660D02*
X877740D01*
X875966Y665667D01*
X874609Y664309D01*
X873874Y662536D01*
Y660616D01*
X874609Y658842D01*
X875966Y657484D01*
X877740Y656750D01*
X879660D01*
X881434Y657484D01*
X882791Y658842D01*
X883526Y660616D01*
Y662536D01*
X882791Y664309D01*
X881434Y665667D01*
X879660Y666402D01*
D02*
G37*
G36*
X849320Y666147D02*
X847400D01*
X845626Y665412D01*
X844269Y664055D01*
X843534Y662281D01*
Y660361D01*
X844269Y658587D01*
X845626Y657230D01*
X847400Y656495D01*
X849320D01*
X851094Y657230D01*
X852451Y658587D01*
X853186Y660361D01*
Y662281D01*
X852451Y664055D01*
X851094Y665412D01*
X849320Y666147D01*
D02*
G37*
G36*
X930600Y663956D02*
X928680D01*
X926906Y663221D01*
X925549Y661864D01*
X924814Y660090D01*
Y658170D01*
X925549Y656396D01*
X926906Y655039D01*
X928680Y654304D01*
X930600D01*
X932374Y655039D01*
X933731Y656396D01*
X934466Y658170D01*
Y660090D01*
X933731Y661864D01*
X932374Y663221D01*
X930600Y663956D01*
D02*
G37*
G36*
X918316Y654902D02*
X916396D01*
X914622Y654167D01*
X913264Y652809D01*
X912530Y651036D01*
Y649116D01*
X913264Y647342D01*
X914622Y645984D01*
X916396Y645250D01*
X918316D01*
X920089Y645984D01*
X921447Y647342D01*
X922182Y649116D01*
Y651036D01*
X921447Y652809D01*
X920089Y654167D01*
X918316Y654902D01*
D02*
G37*
G36*
X905251D02*
X903332D01*
X901558Y654167D01*
X900200Y652809D01*
X899465Y651036D01*
Y649116D01*
X900200Y647342D01*
X901558Y645984D01*
X903332Y645250D01*
X905251D01*
X907025Y645984D01*
X908383Y647342D01*
X909118Y649116D01*
Y651036D01*
X908383Y652809D01*
X907025Y654167D01*
X905251Y654902D01*
D02*
G37*
G36*
X892551D02*
X890632D01*
X888858Y654167D01*
X887500Y652809D01*
X886766Y651036D01*
Y649116D01*
X887500Y647342D01*
X888858Y645984D01*
X890632Y645250D01*
X892551D01*
X894325Y645984D01*
X895683Y647342D01*
X896417Y649116D01*
Y651036D01*
X895683Y652809D01*
X894325Y654167D01*
X892551Y654902D01*
D02*
G37*
G36*
X879660D02*
X877740D01*
X875966Y654167D01*
X874609Y652809D01*
X873874Y651036D01*
Y649116D01*
X874609Y647342D01*
X875966Y645984D01*
X877740Y645250D01*
X879660D01*
X881434Y645984D01*
X882791Y647342D01*
X883526Y649116D01*
Y651036D01*
X882791Y652809D01*
X881434Y654167D01*
X879660Y654902D01*
D02*
G37*
G36*
X849320Y654647D02*
X847400D01*
X845626Y653912D01*
X844269Y652555D01*
X843534Y650781D01*
Y648861D01*
X844269Y647087D01*
X845626Y645730D01*
X847400Y644995D01*
X849320D01*
X851094Y645730D01*
X852451Y647087D01*
X853186Y648861D01*
Y650781D01*
X852451Y652555D01*
X851094Y653912D01*
X849320Y654647D01*
D02*
G37*
G36*
X394478Y653986D02*
X392559D01*
X390785Y653252D01*
X389427Y651894D01*
X388693Y650120D01*
Y648200D01*
X389427Y646427D01*
X390785Y645069D01*
X392559Y644334D01*
X394478D01*
X396252Y645069D01*
X397610Y646427D01*
X398344Y648200D01*
Y650120D01*
X397610Y651894D01*
X396252Y653252D01*
X394478Y653986D01*
D02*
G37*
G36*
X919207Y642652D02*
X917287D01*
X915514Y641917D01*
X914156Y640559D01*
X913421Y638786D01*
Y636866D01*
X914156Y635092D01*
X915514Y633734D01*
X917287Y633000D01*
X919207D01*
X920981Y633734D01*
X922338Y635092D01*
X923073Y636866D01*
Y638786D01*
X922338Y640559D01*
X920981Y641917D01*
X919207Y642652D01*
D02*
G37*
G36*
X906143D02*
X904223D01*
X902449Y641917D01*
X901092Y640559D01*
X900357Y638786D01*
Y636866D01*
X901092Y635092D01*
X902449Y633734D01*
X904223Y633000D01*
X906143D01*
X907916Y633734D01*
X909274Y635092D01*
X910009Y636866D01*
Y638786D01*
X909274Y640559D01*
X907916Y641917D01*
X906143Y642652D01*
D02*
G37*
G36*
X893443D02*
X891523D01*
X889749Y641917D01*
X888392Y640559D01*
X887657Y638786D01*
Y636866D01*
X888392Y635092D01*
X889749Y633734D01*
X891523Y633000D01*
X893443D01*
X895217Y633734D01*
X896574Y635092D01*
X897309Y636866D01*
Y638786D01*
X896574Y640559D01*
X895217Y641917D01*
X893443Y642652D01*
D02*
G37*
G36*
X880551D02*
X878631D01*
X876858Y641917D01*
X875500Y640559D01*
X874765Y638786D01*
Y636866D01*
X875500Y635092D01*
X876858Y633734D01*
X878631Y633000D01*
X880551D01*
X882325Y633734D01*
X883683Y635092D01*
X884417Y636866D01*
Y638786D01*
X883683Y640559D01*
X882325Y641917D01*
X880551Y642652D01*
D02*
G37*
G36*
X867522Y642402D02*
X865602D01*
X863828Y641667D01*
X862471Y640309D01*
X861736Y638536D01*
Y636616D01*
X862471Y634842D01*
X863828Y633484D01*
X865602Y632750D01*
X867522D01*
X869296Y633484D01*
X870653Y634842D01*
X871388Y636616D01*
Y638536D01*
X870653Y640309D01*
X869296Y641667D01*
X867522Y642402D01*
D02*
G37*
G36*
X835350D02*
X833430D01*
X831656Y641667D01*
X830299Y640309D01*
X829564Y638536D01*
Y636616D01*
X830299Y634842D01*
X831656Y633484D01*
X833430Y632750D01*
X835350D01*
X837124Y633484D01*
X838481Y634842D01*
X839216Y636616D01*
Y638536D01*
X838481Y640309D01*
X837124Y641667D01*
X835350Y642402D01*
D02*
G37*
G36*
X930445Y641008D02*
X928525D01*
X926751Y640273D01*
X925394Y638916D01*
X924659Y637142D01*
Y635222D01*
X925394Y633448D01*
X926751Y632091D01*
X928525Y631356D01*
X930445D01*
X932218Y632091D01*
X933576Y633448D01*
X934311Y635222D01*
Y637142D01*
X933576Y638916D01*
X932218Y640273D01*
X930445Y641008D01*
D02*
G37*
G36*
X359608Y639572D02*
X357688D01*
X355914Y638837D01*
X354557Y637480D01*
X353822Y635706D01*
Y633786D01*
X354557Y632012D01*
X355914Y630655D01*
X357688Y629920D01*
X359608D01*
X361382Y630655D01*
X362739Y632012D01*
X363474Y633786D01*
Y635706D01*
X362739Y637480D01*
X361382Y638837D01*
X359608Y639572D01*
D02*
G37*
G36*
X423616Y632968D02*
X421696D01*
X419922Y632233D01*
X418565Y630876D01*
X417991Y629490D01*
X417001Y629043D01*
X416560Y629011D01*
X414980Y629666D01*
X413060D01*
X411286Y628931D01*
X410401Y628046D01*
X409575Y627715D01*
X408750Y628046D01*
X407864Y628931D01*
X406090Y629666D01*
X404170D01*
X402396Y628931D01*
X401039Y627574D01*
X400304Y625800D01*
Y623880D01*
X401039Y622106D01*
X402396Y620749D01*
X404170Y620014D01*
X406090D01*
X407864Y620749D01*
X408750Y621634D01*
X409575Y621965D01*
X410401Y621634D01*
X411286Y620749D01*
X413060Y620014D01*
X414980D01*
X416754Y620749D01*
X418111Y622106D01*
X418685Y623492D01*
X419675Y623939D01*
X420116Y623970D01*
X421696Y623316D01*
X423616D01*
X425390Y624051D01*
X426747Y625408D01*
X427482Y627182D01*
Y629102D01*
X426747Y630876D01*
X425390Y632233D01*
X423616Y632968D01*
D02*
G37*
G36*
X953615Y653158D02*
X951695D01*
X949921Y652423D01*
X948564Y651065D01*
X947829Y649292D01*
Y647372D01*
X948564Y645598D01*
X949921Y644240D01*
X951695Y643506D01*
X952858D01*
Y642343D01*
X953443Y640930D01*
X953092Y639411D01*
X952639Y639223D01*
X951282Y637865D01*
X950547Y636092D01*
Y634172D01*
X951282Y632398D01*
X952104Y631576D01*
X951282Y630753D01*
X950547Y628980D01*
Y627060D01*
X951282Y625286D01*
X952639Y623928D01*
X954413Y623194D01*
X956333D01*
X958107Y623928D01*
X959464Y625286D01*
X960199Y627060D01*
Y628980D01*
X959464Y630753D01*
X958642Y631576D01*
X959464Y632398D01*
X960199Y634172D01*
Y636092D01*
X959614Y637504D01*
X959965Y639024D01*
X960418Y639212D01*
X961775Y640569D01*
X962510Y642343D01*
Y644263D01*
X961775Y646037D01*
X960418Y647394D01*
X958644Y648129D01*
X957481D01*
Y649292D01*
X956746Y651065D01*
X955389Y652423D01*
X953615Y653158D01*
D02*
G37*
G36*
X919207Y631152D02*
X917287D01*
X915514Y630417D01*
X914156Y629059D01*
X913421Y627285D01*
Y625366D01*
X914156Y623592D01*
X915514Y622234D01*
X917287Y621500D01*
X919207D01*
X920981Y622234D01*
X922338Y623592D01*
X923073Y625366D01*
Y627285D01*
X922338Y629059D01*
X920981Y630417D01*
X919207Y631152D01*
D02*
G37*
G36*
X906143D02*
X904223D01*
X902449Y630417D01*
X901092Y629059D01*
X900357Y627285D01*
Y625366D01*
X901092Y623592D01*
X902449Y622234D01*
X904223Y621500D01*
X906143D01*
X907916Y622234D01*
X909274Y623592D01*
X910009Y625366D01*
Y627285D01*
X909274Y629059D01*
X907916Y630417D01*
X906143Y631152D01*
D02*
G37*
G36*
X893443D02*
X891523D01*
X889749Y630417D01*
X888392Y629059D01*
X887657Y627285D01*
Y625366D01*
X888392Y623592D01*
X889749Y622234D01*
X891523Y621500D01*
X893443D01*
X895217Y622234D01*
X896574Y623592D01*
X897309Y625366D01*
Y627285D01*
X896574Y629059D01*
X895217Y630417D01*
X893443Y631152D01*
D02*
G37*
G36*
X880551D02*
X878631D01*
X876858Y630417D01*
X875500Y629059D01*
X874765Y627285D01*
Y625366D01*
X875500Y623592D01*
X876858Y622234D01*
X878631Y621500D01*
X880551D01*
X882325Y622234D01*
X883683Y623592D01*
X884417Y625366D01*
Y627285D01*
X883683Y629059D01*
X882325Y630417D01*
X880551Y631152D01*
D02*
G37*
G36*
X1070554Y623316D02*
X1068634D01*
X1066860Y622581D01*
X1065503Y621224D01*
X1065201Y620496D01*
X1063827D01*
X1063525Y621224D01*
X1062168Y622581D01*
X1060394Y623316D01*
X1058474D01*
X1056700Y622581D01*
X1055343Y621224D01*
X1055041Y620496D01*
X1053667D01*
X1053365Y621224D01*
X1052008Y622581D01*
X1050234Y623316D01*
X1048314D01*
X1046540Y622581D01*
X1045183Y621224D01*
X1044448Y619450D01*
Y617530D01*
X1045183Y615756D01*
X1046540Y614399D01*
X1048314Y613664D01*
X1050234D01*
X1052008Y614399D01*
X1053365Y615756D01*
X1053667Y616484D01*
X1055041D01*
X1055343Y615756D01*
X1056700Y614399D01*
X1058474Y613664D01*
X1060394D01*
X1062168Y614399D01*
X1063525Y615756D01*
X1063827Y616484D01*
X1065201D01*
X1065503Y615756D01*
X1066860Y614399D01*
X1068634Y613664D01*
X1070554D01*
X1072328Y614399D01*
X1073685Y615756D01*
X1074420Y617530D01*
Y619450D01*
X1073685Y621224D01*
X1072328Y622581D01*
X1070554Y623316D01*
D02*
G37*
G36*
X380108Y629592D02*
X378188D01*
X376414Y628857D01*
X375057Y627500D01*
X374322Y625726D01*
Y623806D01*
X375057Y622032D01*
X376414Y620675D01*
X378188Y619940D01*
X380108D01*
X381882Y620675D01*
X383239Y622032D01*
X383974Y623806D01*
Y625726D01*
X383239Y627500D01*
X381882Y628857D01*
X380108Y629592D01*
D02*
G37*
G36*
X339108Y629338D02*
X337188D01*
X335414Y628603D01*
X334057Y627246D01*
X333322Y625472D01*
Y623552D01*
X334057Y621778D01*
X335414Y620421D01*
X337188Y619686D01*
X339108D01*
X340882Y620421D01*
X342239Y621778D01*
X342974Y623552D01*
Y625472D01*
X342239Y627246D01*
X340882Y628603D01*
X339108Y629338D01*
D02*
G37*
G36*
X930785Y628401D02*
X928865D01*
X927091Y627666D01*
X925734Y626308D01*
X924999Y624535D01*
Y622615D01*
X925734Y620841D01*
X926041Y620534D01*
X925793Y619288D01*
X925636Y619223D01*
X924279Y617865D01*
X923996Y617183D01*
X922621D01*
X922338Y617865D01*
X920981Y619223D01*
X919207Y619958D01*
X917287D01*
X915514Y619223D01*
X914156Y617865D01*
X913421Y616092D01*
Y614172D01*
X914156Y612398D01*
X915514Y611040D01*
X915814Y610916D01*
Y609541D01*
X915514Y609417D01*
X914156Y608059D01*
X913421Y606286D01*
Y604366D01*
X914156Y602592D01*
X915514Y601234D01*
X917287Y600500D01*
X919207D01*
X920981Y601234D01*
X922338Y602592D01*
X923073Y604366D01*
Y604878D01*
X924020Y605198D01*
X924343Y605221D01*
X925636Y603928D01*
X925989Y603782D01*
Y602407D01*
X925636Y602261D01*
X924279Y600904D01*
X923544Y599130D01*
Y597210D01*
X924279Y595436D01*
X925636Y594079D01*
X926440Y593746D01*
Y592371D01*
X925811Y592111D01*
X924453Y590753D01*
X923718Y588980D01*
Y587060D01*
X924453Y585286D01*
X925811Y583928D01*
X927585Y583194D01*
X929504D01*
X931278Y583928D01*
X932636Y585286D01*
X933371Y587060D01*
Y588980D01*
X932636Y590753D01*
X931278Y592111D01*
X930475Y592444D01*
Y593818D01*
X931104Y594079D01*
X932461Y595436D01*
X933196Y597210D01*
Y599130D01*
X932461Y600904D01*
X931104Y602261D01*
X930751Y602407D01*
Y603782D01*
X931104Y603928D01*
X932461Y605286D01*
X933196Y607060D01*
Y608980D01*
X932461Y610753D01*
X931639Y611576D01*
X932461Y612398D01*
X933196Y614172D01*
Y616092D01*
X932461Y617865D01*
X932154Y618173D01*
X932402Y619418D01*
X932559Y619483D01*
X933916Y620841D01*
X934651Y622615D01*
Y624535D01*
X933916Y626308D01*
X932559Y627666D01*
X930785Y628401D01*
D02*
G37*
G36*
X1081984Y623316D02*
X1080064D01*
X1078290Y622581D01*
X1076933Y621224D01*
X1076198Y619450D01*
Y617530D01*
X1076933Y615756D01*
X1078290Y614399D01*
X1080064Y613664D01*
X1081984D01*
X1083758Y614399D01*
X1085115Y615756D01*
X1085850Y617530D01*
Y619450D01*
X1085115Y621224D01*
X1083758Y622581D01*
X1081984Y623316D01*
D02*
G37*
G36*
X724860D02*
X722940D01*
X721166Y622581D01*
X719809Y621224D01*
X719074Y619450D01*
Y617530D01*
X719809Y615756D01*
X721166Y614399D01*
X722940Y613664D01*
X724860D01*
X726634Y614399D01*
X727991Y615756D01*
X728726Y617530D01*
Y619450D01*
X727991Y621224D01*
X726634Y622581D01*
X724860Y623316D01*
D02*
G37*
G36*
X512744Y631068D02*
X510368D01*
X508074Y630453D01*
X506016Y629265D01*
X504337Y627586D01*
X503149Y625528D01*
X502534Y623234D01*
Y620858D01*
X503149Y618564D01*
X504337Y616506D01*
X506016Y614827D01*
X508074Y613639D01*
X510368Y613024D01*
X512744D01*
X515038Y613639D01*
X517096Y614827D01*
X518775Y616506D01*
X519963Y618564D01*
X520578Y620858D01*
Y623234D01*
X519963Y625528D01*
X518775Y627586D01*
X517096Y629265D01*
X515038Y630453D01*
X512744Y631068D01*
D02*
G37*
G36*
X487344D02*
X484968D01*
X482674Y630453D01*
X480616Y629265D01*
X478937Y627586D01*
X477749Y625528D01*
X477134Y623234D01*
Y620858D01*
X477749Y618564D01*
X478937Y616506D01*
X480616Y614827D01*
X482674Y613639D01*
X484968Y613024D01*
X487344D01*
X489638Y613639D01*
X491696Y614827D01*
X493375Y616506D01*
X494563Y618564D01*
X495178Y620858D01*
Y623234D01*
X494563Y625528D01*
X493375Y627586D01*
X491696Y629265D01*
X489638Y630453D01*
X487344Y631068D01*
D02*
G37*
G36*
X794710Y629600D02*
X792790D01*
X791016Y628865D01*
X789659Y627507D01*
X788924Y625733D01*
Y623814D01*
X789659Y622040D01*
X790481Y621218D01*
X789659Y620395D01*
X788924Y618621D01*
Y616702D01*
X789659Y614928D01*
X791016Y613570D01*
X792790Y612836D01*
X794710D01*
X796484Y613570D01*
X797841Y614928D01*
X798576Y616702D01*
Y618621D01*
X797841Y620395D01*
X797019Y621218D01*
X797841Y622040D01*
X798576Y623814D01*
Y625733D01*
X797841Y627507D01*
X796484Y628865D01*
X794710Y629600D01*
D02*
G37*
G36*
X968954Y627888D02*
X967034D01*
X965260Y627153D01*
X963903Y625796D01*
X963168Y624022D01*
Y622102D01*
X963903Y620328D01*
X964725Y619506D01*
X963903Y618684D01*
X963168Y616910D01*
Y614990D01*
X963903Y613216D01*
X965260Y611859D01*
X967034Y611124D01*
X968954D01*
X970728Y611859D01*
X972085Y613216D01*
X972820Y614990D01*
Y616910D01*
X972085Y618684D01*
X971263Y619506D01*
X972085Y620328D01*
X972820Y622102D01*
Y624022D01*
X972085Y625796D01*
X970728Y627153D01*
X968954Y627888D01*
D02*
G37*
G36*
X867522Y630902D02*
X865602D01*
X863828Y630167D01*
X862471Y628809D01*
X861736Y627036D01*
Y625116D01*
X862471Y623342D01*
X863828Y621984D01*
X864618Y621657D01*
Y620283D01*
X863828Y619956D01*
X862471Y618598D01*
X861736Y616824D01*
Y614905D01*
X862471Y613131D01*
X863828Y611773D01*
X865602Y611039D01*
X867522D01*
X869296Y611773D01*
X870653Y613131D01*
X871388Y614905D01*
Y616824D01*
X870653Y618598D01*
X869296Y619956D01*
X868506Y620283D01*
Y621657D01*
X869296Y621984D01*
X870653Y623342D01*
X871388Y625116D01*
Y627036D01*
X870653Y628809D01*
X869296Y630167D01*
X867522Y630902D01*
D02*
G37*
G36*
X906143Y619958D02*
X904223D01*
X902449Y619223D01*
X901092Y617865D01*
X900357Y616092D01*
Y614172D01*
X901092Y612398D01*
X902449Y611040D01*
X904223Y610306D01*
X906143D01*
X907916Y611040D01*
X909274Y612398D01*
X910009Y614172D01*
Y616092D01*
X909274Y617865D01*
X907916Y619223D01*
X906143Y619958D01*
D02*
G37*
G36*
X849320D02*
X847400D01*
X845626Y619223D01*
X844269Y617865D01*
X843534Y616092D01*
Y614172D01*
X844269Y612398D01*
X845626Y611040D01*
X847400Y610306D01*
X849320D01*
X851094Y611040D01*
X852451Y612398D01*
X853186Y614172D01*
Y616092D01*
X852451Y617865D01*
X851094Y619223D01*
X849320Y619958D01*
D02*
G37*
G36*
X809986D02*
X808066D01*
X806292Y619223D01*
X804934Y617865D01*
X804200Y616092D01*
Y614172D01*
X804934Y612398D01*
X805757Y611576D01*
X804934Y610753D01*
X804200Y608980D01*
Y607653D01*
X802930Y607127D01*
X802834Y607223D01*
X801060Y607958D01*
X799140D01*
X797366Y607223D01*
X796009Y605865D01*
X795274Y604092D01*
Y602172D01*
X796009Y600398D01*
X796831Y599576D01*
X796009Y598753D01*
X795274Y596980D01*
Y595060D01*
X796009Y593286D01*
X797366Y591928D01*
X799140Y591194D01*
X801060D01*
X802834Y591928D01*
X804191Y593286D01*
X804926Y595060D01*
Y596980D01*
X804191Y598753D01*
X803369Y599576D01*
X804191Y600398D01*
X804926Y602172D01*
Y603498D01*
X806196Y604024D01*
X806292Y603928D01*
X808066Y603194D01*
X809986D01*
X811759Y603928D01*
X813117Y605286D01*
X813852Y607060D01*
Y608980D01*
X813117Y610753D01*
X812295Y611576D01*
X813117Y612398D01*
X813852Y614172D01*
Y616092D01*
X813117Y617865D01*
X811759Y619223D01*
X809986Y619958D01*
D02*
G37*
G36*
X577286Y604266D02*
X575366D01*
X573592Y603531D01*
X572235Y602174D01*
X571955Y601499D01*
X570580D01*
X570511Y601666D01*
X569154Y603023D01*
X567380Y603758D01*
X565460D01*
X563686Y603023D01*
X562329Y601666D01*
X561594Y599892D01*
Y597972D01*
X562329Y596198D01*
X563686Y594841D01*
X565460Y594106D01*
X567380D01*
X569154Y594841D01*
X570511Y596198D01*
X570791Y596873D01*
X572165D01*
X572235Y596706D01*
X573592Y595349D01*
X575366Y594614D01*
X577286D01*
X579060Y595349D01*
X580417Y596706D01*
X581152Y598480D01*
Y600400D01*
X580417Y602174D01*
X579060Y603531D01*
X577286Y604266D01*
D02*
G37*
G36*
X834983Y610616D02*
X833063D01*
X831290Y609881D01*
X829932Y608524D01*
X829197Y606750D01*
Y604830D01*
X829932Y603056D01*
X831290Y601699D01*
X833063Y600964D01*
X834983D01*
X836757Y601699D01*
X838114Y603056D01*
X838849Y604830D01*
Y606750D01*
X838114Y608524D01*
X836757Y609881D01*
X834983Y610616D01*
D02*
G37*
G36*
X439872Y607060D02*
X437952D01*
X436178Y606325D01*
X434821Y604968D01*
X434086Y603194D01*
Y601274D01*
X434821Y599500D01*
X436178Y598143D01*
X437952Y597408D01*
X439872D01*
X441646Y598143D01*
X443003Y599500D01*
X443738Y601274D01*
Y603194D01*
X443003Y604968D01*
X441646Y606325D01*
X439872Y607060D01*
D02*
G37*
G36*
X621606Y599785D02*
X619687D01*
X617913Y599051D01*
X616555Y597693D01*
X615820Y595919D01*
Y593999D01*
X616555Y592226D01*
X617913Y590868D01*
X619687Y590133D01*
X621606D01*
X623380Y590868D01*
X624738Y592226D01*
X625472Y593999D01*
Y595919D01*
X624738Y597693D01*
X623380Y599051D01*
X621606Y599785D01*
D02*
G37*
G36*
X425140Y599186D02*
X423220D01*
X421446Y598451D01*
X420089Y597094D01*
X419354Y595320D01*
Y593400D01*
X420089Y591626D01*
X421446Y590269D01*
X423220Y589534D01*
X425140D01*
X426914Y590269D01*
X428271Y591626D01*
X429006Y593400D01*
Y595320D01*
X428271Y597094D01*
X426914Y598451D01*
X425140Y599186D01*
D02*
G37*
G36*
X449524Y598678D02*
X447604D01*
X445830Y597943D01*
X444473Y596586D01*
X443738Y594812D01*
Y592892D01*
X444473Y591118D01*
X445830Y589761D01*
X447604Y589026D01*
X449524D01*
X451298Y589761D01*
X452655Y591118D01*
X453390Y592892D01*
Y594812D01*
X452655Y596586D01*
X451298Y597943D01*
X449524Y598678D01*
D02*
G37*
G36*
X849320Y597669D02*
X847400D01*
X845626Y596934D01*
X844269Y595577D01*
X843534Y593803D01*
Y591883D01*
X844269Y590109D01*
X845626Y588751D01*
X847400Y588017D01*
X849320D01*
X851094Y588751D01*
X852451Y590109D01*
X853186Y591883D01*
Y593803D01*
X852451Y595577D01*
X851094Y596934D01*
X849320Y597669D01*
D02*
G37*
G36*
X835479D02*
X833559D01*
X831786Y596934D01*
X830428Y595577D01*
X829693Y593803D01*
Y591883D01*
X830428Y590109D01*
X831786Y588751D01*
X833559Y588017D01*
X835479D01*
X837253Y588751D01*
X838611Y590109D01*
X839345Y591883D01*
Y593803D01*
X838611Y595577D01*
X837253Y596934D01*
X835479Y597669D01*
D02*
G37*
G36*
X512744Y605668D02*
X510368D01*
X508074Y605053D01*
X506016Y603865D01*
X504337Y602186D01*
X503149Y600128D01*
X502534Y597834D01*
Y595458D01*
X503149Y593164D01*
X504337Y591106D01*
X506016Y589427D01*
X508074Y588239D01*
X510368Y587624D01*
X512744D01*
X515038Y588239D01*
X517096Y589427D01*
X518775Y591106D01*
X519963Y593164D01*
X520578Y595458D01*
Y597834D01*
X519963Y600128D01*
X518775Y602186D01*
X517096Y603865D01*
X515038Y605053D01*
X512744Y605668D01*
D02*
G37*
G36*
X487344D02*
X484968D01*
X482674Y605053D01*
X480616Y603865D01*
X478937Y602186D01*
X477749Y600128D01*
X477134Y597834D01*
Y595458D01*
X477749Y593164D01*
X478937Y591106D01*
X480616Y589427D01*
X482674Y588239D01*
X484968Y587624D01*
X487344D01*
X489638Y588239D01*
X491696Y589427D01*
X493375Y591106D01*
X494563Y593164D01*
X495178Y595458D01*
Y597834D01*
X494563Y600128D01*
X493375Y602186D01*
X491696Y603865D01*
X489638Y605053D01*
X487344Y605668D01*
D02*
G37*
G36*
X379420Y596646D02*
X377500D01*
X375726Y595911D01*
X374369Y594554D01*
X373634Y592780D01*
Y590860D01*
X374369Y589086D01*
X375726Y587729D01*
X377500Y586994D01*
X379420D01*
X381194Y587729D01*
X382551Y589086D01*
X383286Y590860D01*
Y592780D01*
X382551Y594554D01*
X381194Y595911D01*
X379420Y596646D01*
D02*
G37*
G36*
X359100D02*
X357180D01*
X355406Y595911D01*
X354049Y594554D01*
X353314Y592780D01*
Y590860D01*
X354049Y589086D01*
X355406Y587729D01*
X357180Y586994D01*
X359100D01*
X360874Y587729D01*
X362231Y589086D01*
X362966Y590860D01*
Y592780D01*
X362231Y594554D01*
X360874Y595911D01*
X359100Y596646D01*
D02*
G37*
G36*
X755836Y604892D02*
X745304D01*
X740038Y599626D01*
Y589094D01*
X745304Y583828D01*
X755836D01*
X761102Y589094D01*
Y599626D01*
X755836Y604892D01*
D02*
G37*
G36*
X712038D02*
X690974D01*
Y583828D01*
X712038D01*
Y604892D01*
D02*
G37*
G36*
X678552D02*
X657488D01*
Y583828D01*
X678552D01*
Y604892D01*
D02*
G37*
G36*
X889815Y582547D02*
X887895D01*
X886121Y581812D01*
X884971Y580662D01*
X884223Y580541D01*
X883475Y580662D01*
X882325Y581812D01*
X880551Y582547D01*
X878631D01*
X876858Y581812D01*
X875500Y580454D01*
X874765Y578681D01*
Y576761D01*
X875500Y574987D01*
X876858Y573629D01*
X878631Y572895D01*
X880551D01*
X882325Y573629D01*
X883475Y574779D01*
X884223Y574900D01*
X884971Y574779D01*
X886121Y573629D01*
X887895Y572895D01*
X889815D01*
X891589Y573629D01*
X892946Y574987D01*
X893681Y576761D01*
Y578681D01*
X892946Y580454D01*
X891589Y581812D01*
X889815Y582547D01*
D02*
G37*
G36*
X812236Y586486D02*
X810316D01*
X808542Y585751D01*
X807185Y584394D01*
X806450Y582620D01*
Y580700D01*
X807185Y578926D01*
X808542Y577569D01*
X810316Y576834D01*
X812236D01*
X814010Y577569D01*
X815367Y578926D01*
X816102Y580700D01*
Y582620D01*
X815367Y584394D01*
X814010Y585751D01*
X812236Y586486D01*
D02*
G37*
G36*
X1168516Y583860D02*
X1166596D01*
X1164822Y583125D01*
X1163465Y581767D01*
X1162730Y579994D01*
Y578074D01*
X1163465Y576300D01*
X1164822Y574942D01*
X1166596Y574208D01*
X1168516D01*
X1170290Y574942D01*
X1171647Y576300D01*
X1172382Y578074D01*
Y579994D01*
X1171647Y581767D01*
X1170290Y583125D01*
X1168516Y583860D01*
D02*
G37*
G36*
X453080Y582676D02*
X451160D01*
X449386Y581941D01*
X448029Y580584D01*
X447294Y578810D01*
Y576890D01*
X448029Y575116D01*
X449386Y573759D01*
X451160Y573024D01*
X453080D01*
X454854Y573759D01*
X456211Y575116D01*
X456946Y576890D01*
Y578810D01*
X456211Y580584D01*
X454854Y581941D01*
X453080Y582676D01*
D02*
G37*
G36*
X867522Y582402D02*
X865602D01*
X863828Y581667D01*
X862471Y580309D01*
X861736Y578536D01*
Y576616D01*
X862471Y574842D01*
X863828Y573484D01*
X865602Y572750D01*
X867522D01*
X869296Y573484D01*
X870653Y574842D01*
X871388Y576616D01*
Y578536D01*
X870653Y580309D01*
X869296Y581667D01*
X867522Y582402D01*
D02*
G37*
G36*
X1007816Y574294D02*
X1005896D01*
X1004122Y573559D01*
X1003003Y572440D01*
X1001883Y573559D01*
X1000110Y574294D01*
X998190D01*
X996416Y573559D01*
X995063Y572206D01*
X993710Y573559D01*
X991937Y574294D01*
X990017D01*
X988243Y573559D01*
X986886Y572202D01*
X986151Y570428D01*
Y568508D01*
X986886Y566734D01*
X988243Y565377D01*
X990017Y564642D01*
X991937D01*
X993710Y565377D01*
X995063Y566730D01*
X996416Y565377D01*
X998190Y564642D01*
X1000110D01*
X1001883Y565377D01*
X1003003Y566496D01*
X1004122Y565377D01*
X1005896Y564642D01*
X1007816D01*
X1009590Y565377D01*
X1010947Y566734D01*
X1011682Y568508D01*
Y570428D01*
X1010947Y572202D01*
X1009590Y573559D01*
X1007816Y574294D01*
D02*
G37*
G36*
X903930Y582087D02*
X902010D01*
X900236Y581352D01*
X898879Y579994D01*
X898144Y578221D01*
Y576301D01*
X898879Y574527D01*
X900236Y573169D01*
X902010Y572435D01*
X903930D01*
X905704Y573169D01*
X907061Y574527D01*
X907796Y576301D01*
Y578221D01*
X907061Y579994D01*
X905704Y581352D01*
X903930Y582087D01*
D02*
G37*
G36*
X572487Y579998D02*
X570568D01*
X568794Y579263D01*
X567436Y577906D01*
X566702Y576132D01*
Y574212D01*
X567436Y572438D01*
X568794Y571081D01*
X570568Y570346D01*
X572487D01*
X574261Y571081D01*
X575619Y572438D01*
X576353Y574212D01*
Y576132D01*
X575619Y577906D01*
X574261Y579263D01*
X572487Y579998D01*
D02*
G37*
G36*
X584484Y579541D02*
X582564D01*
X580791Y578806D01*
X579433Y577449D01*
X578698Y575675D01*
Y573755D01*
X579433Y571981D01*
X580791Y570624D01*
X582564Y569889D01*
X584484D01*
X586258Y570624D01*
X587616Y571981D01*
X588350Y573755D01*
Y575675D01*
X587616Y577449D01*
X586258Y578806D01*
X584484Y579541D01*
D02*
G37*
G36*
X559463D02*
X557543D01*
X555769Y578806D01*
X554411Y577449D01*
X553676Y575675D01*
Y573755D01*
X554411Y571981D01*
X555769Y570624D01*
X557543Y569889D01*
X559463D01*
X561236Y570624D01*
X562594Y571981D01*
X563329Y573755D01*
Y575675D01*
X562594Y577449D01*
X561236Y578806D01*
X559463Y579541D01*
D02*
G37*
G36*
X418429Y577851D02*
X416509D01*
X414735Y577117D01*
X413378Y575759D01*
X412643Y573985D01*
Y572065D01*
X413378Y570292D01*
X414735Y568934D01*
X416509Y568199D01*
X418429D01*
X420203Y568934D01*
X421561Y570292D01*
X422295Y572065D01*
Y573985D01*
X421561Y575759D01*
X420203Y577117D01*
X418429Y577851D01*
D02*
G37*
G36*
X430426Y577394D02*
X428506D01*
X426732Y576660D01*
X425375Y575302D01*
X424640Y573528D01*
Y571608D01*
X425375Y569835D01*
X426732Y568477D01*
X428506Y567742D01*
X430426D01*
X432200Y568477D01*
X433557Y569835D01*
X434292Y571608D01*
Y573528D01*
X433557Y575302D01*
X432200Y576660D01*
X430426Y577394D01*
D02*
G37*
G36*
X405404D02*
X403484D01*
X401711Y576660D01*
X400353Y575302D01*
X399618Y573528D01*
Y571608D01*
X400353Y569835D01*
X401711Y568477D01*
X403484Y567742D01*
X405404D01*
X407178Y568477D01*
X408535Y569835D01*
X409270Y571608D01*
Y573528D01*
X408535Y575302D01*
X407178Y576660D01*
X405404Y577394D01*
D02*
G37*
G36*
X464510Y576834D02*
X462590D01*
X460816Y576099D01*
X459459Y574742D01*
X458724Y572968D01*
Y571048D01*
X459459Y569274D01*
X460816Y567917D01*
X462590Y567182D01*
X464510D01*
X466284Y567917D01*
X467641Y569274D01*
X468376Y571048D01*
Y572968D01*
X467641Y574742D01*
X466284Y576099D01*
X464510Y576834D01*
D02*
G37*
G36*
X770580Y572516D02*
X768660D01*
X766886Y571781D01*
X765529Y570424D01*
X764794Y568650D01*
Y566730D01*
X765529Y564956D01*
X766886Y563599D01*
X768660Y562864D01*
X770580D01*
X772354Y563599D01*
X773711Y564956D01*
X774446Y566730D01*
Y568650D01*
X773711Y570424D01*
X772354Y571781D01*
X770580Y572516D01*
D02*
G37*
G36*
X520578Y580268D02*
X502534D01*
Y562224D01*
X520578D01*
Y580268D01*
D02*
G37*
G36*
X487344D02*
X484968D01*
X482674Y579653D01*
X480616Y578465D01*
X478937Y576786D01*
X477749Y574728D01*
X477134Y572434D01*
Y570058D01*
X477749Y567764D01*
X478937Y565706D01*
X480616Y564027D01*
X482674Y562839D01*
X484968Y562224D01*
X487344D01*
X489638Y562839D01*
X491696Y564027D01*
X493375Y565706D01*
X494563Y567764D01*
X495178Y570058D01*
Y572434D01*
X494563Y574728D01*
X493375Y576786D01*
X491696Y578465D01*
X489638Y579653D01*
X487344Y580268D01*
D02*
G37*
G36*
X876763Y562356D02*
X874843D01*
X873070Y561621D01*
X872247Y560799D01*
X871425Y561621D01*
X869651Y562356D01*
X867731D01*
X865957Y561621D01*
X864600Y560264D01*
X863865Y558490D01*
Y556570D01*
X864600Y554796D01*
X865957Y553439D01*
X867731Y552704D01*
X869651D01*
X871425Y553439D01*
X872247Y554261D01*
X873070Y553439D01*
X874843Y552704D01*
X875974D01*
X876915Y552109D01*
X877063Y551531D01*
Y550096D01*
X877798Y548322D01*
X879155Y546964D01*
X880929Y546230D01*
X882849D01*
X884623Y546964D01*
X885507Y547848D01*
X886266Y547089D01*
X887455Y546596D01*
X888040Y546354D01*
X888099Y545084D01*
X887865Y544520D01*
Y542600D01*
X888600Y540826D01*
X889958Y539469D01*
X891731Y538734D01*
X893651D01*
X895425Y539469D01*
X896247Y540291D01*
X897069Y539469D01*
X898843Y538734D01*
X900763D01*
X902537Y539469D01*
X903894Y540826D01*
X904629Y542600D01*
Y544520D01*
X903894Y546294D01*
X903834Y546354D01*
X904360Y547624D01*
X905651D01*
X907425Y548359D01*
X908247Y549181D01*
X909070Y548359D01*
X910843Y547624D01*
X912763D01*
X914537Y548359D01*
X915894Y549716D01*
X916629Y551490D01*
Y553410D01*
X915894Y555184D01*
X914537Y556541D01*
X912763Y557276D01*
X910843D01*
X909070Y556541D01*
X908247Y555719D01*
X907425Y556541D01*
X905651Y557276D01*
X903731D01*
X901957Y556541D01*
X900600Y555184D01*
X899865Y553410D01*
Y551490D01*
X900600Y549716D01*
X900660Y549656D01*
X900134Y548386D01*
X898843D01*
X897069Y547651D01*
X896247Y546829D01*
X895425Y547651D01*
X894236Y548144D01*
X893651Y548386D01*
X893592Y549656D01*
X893826Y550220D01*
Y552140D01*
X893091Y553914D01*
X891734Y555271D01*
X889960Y556006D01*
X888040D01*
X886266Y555271D01*
X885382Y554387D01*
X884623Y555147D01*
X882849Y555882D01*
X881719D01*
X880777Y556477D01*
X880629Y557055D01*
Y558490D01*
X879894Y560264D01*
X878537Y561621D01*
X876763Y562356D01*
D02*
G37*
G36*
X344876Y569214D02*
X342956D01*
X341182Y568479D01*
X339825Y567122D01*
X339090Y565348D01*
Y563428D01*
X339825Y561654D01*
X341182Y560297D01*
X342956Y559562D01*
X344876D01*
X346650Y560297D01*
X348007Y561654D01*
X348742Y563428D01*
Y565348D01*
X348007Y567122D01*
X346650Y568479D01*
X344876Y569214D01*
D02*
G37*
G36*
X702892Y579492D02*
X700119D01*
X697441Y578774D01*
X695039Y577388D01*
X693078Y575427D01*
X691692Y573025D01*
X690974Y570347D01*
Y567573D01*
X691692Y564895D01*
X693078Y562493D01*
X695039Y560532D01*
X697441Y559146D01*
X700119Y558428D01*
X702892D01*
X705571Y559146D01*
X707973Y560532D01*
X709934Y562493D01*
X711320Y564895D01*
X712038Y567573D01*
Y570347D01*
X711320Y573025D01*
X709934Y575427D01*
X707973Y577388D01*
X705571Y578774D01*
X702892Y579492D01*
D02*
G37*
G36*
X669407D02*
X666633D01*
X663955Y578774D01*
X661553Y577388D01*
X659592Y575427D01*
X658206Y573025D01*
X657488Y570347D01*
Y567573D01*
X658206Y564895D01*
X659592Y562493D01*
X661553Y560532D01*
X663955Y559146D01*
X666633Y558428D01*
X669407D01*
X672085Y559146D01*
X674487Y560532D01*
X676448Y562493D01*
X677834Y564895D01*
X678552Y567573D01*
Y570347D01*
X677834Y573025D01*
X676448Y575427D01*
X674487Y577388D01*
X672085Y578774D01*
X669407Y579492D01*
D02*
G37*
G36*
X952190Y567776D02*
X950270D01*
X948496Y567042D01*
X947139Y565684D01*
X946404Y563910D01*
Y561990D01*
X947139Y560216D01*
X948496Y558859D01*
X950270Y558124D01*
X952190D01*
X953964Y558859D01*
X955321Y560216D01*
X956056Y561990D01*
Y563910D01*
X955321Y565684D01*
X953964Y567042D01*
X952190Y567776D01*
D02*
G37*
G36*
X940760Y567436D02*
X938840D01*
X937066Y566701D01*
X935709Y565344D01*
X934974Y563570D01*
Y561650D01*
X935709Y559876D01*
X937066Y558519D01*
X938840Y557784D01*
X940760D01*
X942534Y558519D01*
X943891Y559876D01*
X944626Y561650D01*
Y563570D01*
X943891Y565344D01*
X942534Y566701D01*
X940760Y567436D01*
D02*
G37*
G36*
X559348Y567430D02*
X557428D01*
X555654Y566695D01*
X554297Y565338D01*
X553562Y563564D01*
Y561644D01*
X554297Y559870D01*
X555654Y558513D01*
X557428Y557778D01*
X559348D01*
X561122Y558513D01*
X562480Y559870D01*
X563214Y561644D01*
Y563564D01*
X562480Y565338D01*
X561122Y566695D01*
X559348Y567430D01*
D02*
G37*
G36*
X584713Y567201D02*
X582793D01*
X581019Y566467D01*
X579661Y565109D01*
X578927Y563335D01*
Y561415D01*
X579661Y559642D01*
X581019Y558284D01*
X582793Y557550D01*
X584713D01*
X586487Y558284D01*
X587844Y559642D01*
X588579Y561415D01*
Y563335D01*
X587844Y565109D01*
X586487Y566467D01*
X584713Y567201D01*
D02*
G37*
G36*
X572000Y567100D02*
X570080D01*
X568306Y566366D01*
X566948Y565008D01*
X566213Y563234D01*
Y561315D01*
X566948Y559541D01*
X568306Y558183D01*
X570080Y557448D01*
X572000D01*
X573773Y558183D01*
X575131Y559541D01*
X575866Y561315D01*
Y563234D01*
X575131Y565008D01*
X573773Y566366D01*
X572000Y567100D01*
D02*
G37*
G36*
X1168516Y565404D02*
X1166596D01*
X1164822Y564669D01*
X1163465Y563312D01*
X1162730Y561538D01*
Y559618D01*
X1163465Y557844D01*
X1164822Y556487D01*
X1166596Y555752D01*
X1168516D01*
X1170290Y556487D01*
X1171647Y557844D01*
X1172382Y559618D01*
Y561538D01*
X1171647Y563312D01*
X1170290Y564669D01*
X1168516Y565404D01*
D02*
G37*
G36*
X405290Y565283D02*
X403370D01*
X401596Y564549D01*
X400239Y563191D01*
X399504Y561417D01*
Y559497D01*
X400239Y557724D01*
X401596Y556366D01*
X403370Y555631D01*
X405290D01*
X407064Y556366D01*
X408421Y557724D01*
X409156Y559497D01*
Y561417D01*
X408421Y563191D01*
X407064Y564549D01*
X405290Y565283D01*
D02*
G37*
G36*
X430654Y565055D02*
X428735D01*
X426961Y564320D01*
X425603Y562962D01*
X424868Y561189D01*
Y559269D01*
X425603Y557495D01*
X426961Y556138D01*
X428735Y555403D01*
X430654D01*
X432428Y556138D01*
X433786Y557495D01*
X434520Y559269D01*
Y561189D01*
X433786Y562962D01*
X432428Y564320D01*
X430654Y565055D01*
D02*
G37*
G36*
X417941Y564954D02*
X416021D01*
X414248Y564219D01*
X412890Y562861D01*
X412155Y561088D01*
Y559168D01*
X412890Y557394D01*
X414248Y556036D01*
X416021Y555302D01*
X417941D01*
X419715Y556036D01*
X421073Y557394D01*
X421807Y559168D01*
Y561088D01*
X421073Y562861D01*
X419715Y564219D01*
X417941Y564954D01*
D02*
G37*
G36*
X853960Y556006D02*
X852040D01*
X850266Y555271D01*
X849382Y554387D01*
X848623Y555147D01*
X846849Y555882D01*
X844929D01*
X843155Y555147D01*
X841798Y553789D01*
X841063Y552015D01*
Y550096D01*
X841798Y548322D01*
X843155Y546964D01*
X844929Y546230D01*
X846849D01*
X848623Y546964D01*
X849507Y547848D01*
X850266Y547089D01*
X851455Y546596D01*
X852040Y546354D01*
X852099Y545084D01*
X851865Y544520D01*
Y542600D01*
X852600Y540826D01*
X853958Y539469D01*
X855731Y538734D01*
X857651D01*
X859425Y539469D01*
X860247Y540291D01*
X861069Y539469D01*
X862843Y538734D01*
X864763D01*
X866537Y539469D01*
X867895Y540826D01*
X868629Y542600D01*
Y544520D01*
X867895Y546294D01*
X866537Y547651D01*
X864763Y548386D01*
X862843D01*
X861069Y547651D01*
X860247Y546829D01*
X859425Y547651D01*
X858236Y548144D01*
X857651Y548386D01*
X857592Y549656D01*
X857826Y550220D01*
Y552140D01*
X857091Y553914D01*
X855734Y555271D01*
X853960Y556006D01*
D02*
G37*
G36*
X329636Y560324D02*
X327716D01*
X325942Y559589D01*
X324585Y558232D01*
X323850Y556458D01*
Y554538D01*
X324585Y552764D01*
X325942Y551407D01*
X327716Y550672D01*
X329636D01*
X331410Y551407D01*
X332767Y552764D01*
X333502Y554538D01*
Y556458D01*
X332767Y558232D01*
X331410Y559589D01*
X329636Y560324D01*
D02*
G37*
G36*
X832302Y559816D02*
X830382D01*
X828608Y559081D01*
X827251Y557724D01*
X826516Y555950D01*
Y554030D01*
X827251Y552256D01*
X828608Y550899D01*
X830382Y550164D01*
X832302D01*
X834076Y550899D01*
X835433Y552256D01*
X836168Y554030D01*
Y555950D01*
X835433Y557724D01*
X834076Y559081D01*
X832302Y559816D01*
D02*
G37*
G36*
X512008D02*
X510088D01*
X508314Y559081D01*
X506957Y557724D01*
X506222Y555950D01*
Y554030D01*
X506957Y552256D01*
X508314Y550899D01*
X510088Y550164D01*
X512008D01*
X513782Y550899D01*
X515139Y552256D01*
X515874Y554030D01*
Y555950D01*
X515139Y557724D01*
X513782Y559081D01*
X512008Y559816D01*
D02*
G37*
G36*
X383738Y569214D02*
X381818D01*
X380044Y568479D01*
X378687Y567122D01*
X377952Y565348D01*
Y563428D01*
X378687Y561654D01*
X380044Y560297D01*
X380719Y560017D01*
Y558643D01*
X380552Y558573D01*
X379195Y557216D01*
X378460Y555442D01*
Y553522D01*
X379195Y551748D01*
X380552Y550391D01*
X382326Y549656D01*
X384246D01*
X386020Y550391D01*
X387377Y551748D01*
X388112Y553522D01*
Y555442D01*
X387377Y557216D01*
X386020Y558573D01*
X385345Y558853D01*
Y560228D01*
X385512Y560297D01*
X386869Y561654D01*
X387604Y563428D01*
Y565348D01*
X386869Y567122D01*
X385512Y568479D01*
X383738Y569214D01*
D02*
G37*
G36*
X783345Y558406D02*
X781425D01*
X779651Y557671D01*
X778294Y556314D01*
X777559Y554540D01*
Y552620D01*
X778294Y550846D01*
X779651Y549489D01*
X781425Y548754D01*
X783345D01*
X785119Y549489D01*
X786477Y550846D01*
X787211Y552620D01*
Y554540D01*
X786477Y556314D01*
X785119Y557671D01*
X783345Y558406D01*
D02*
G37*
G36*
X559577Y554862D02*
X557657D01*
X555883Y554127D01*
X554525Y552770D01*
X553791Y550996D01*
Y549076D01*
X554525Y547302D01*
X555883Y545945D01*
X557657Y545210D01*
X559577D01*
X561350Y545945D01*
X562708Y547302D01*
X563443Y549076D01*
Y550996D01*
X562708Y552770D01*
X561350Y554127D01*
X559577Y554862D01*
D02*
G37*
G36*
X584713Y554748D02*
X582793D01*
X581019Y554013D01*
X579661Y552655D01*
X578927Y550882D01*
Y548962D01*
X579661Y547188D01*
X581019Y545830D01*
X582793Y545096D01*
X584713D01*
X586487Y545830D01*
X587844Y547188D01*
X588579Y548962D01*
Y550882D01*
X587844Y552655D01*
X586487Y554013D01*
X584713Y554748D01*
D02*
G37*
G36*
X571916Y554633D02*
X569996D01*
X568223Y553899D01*
X566865Y552541D01*
X566130Y550768D01*
Y548848D01*
X566865Y547074D01*
X568223Y545716D01*
X569996Y544981D01*
X571916D01*
X573690Y545716D01*
X575047Y547074D01*
X575782Y548848D01*
Y550768D01*
X575047Y552541D01*
X573690Y553899D01*
X571916Y554633D01*
D02*
G37*
G36*
X1026150Y554192D02*
X1024230D01*
X1022456Y553457D01*
X1021099Y552099D01*
X1020364Y550326D01*
Y548406D01*
X1021099Y546632D01*
X1022456Y545274D01*
X1024230Y544539D01*
X1026150D01*
X1027924Y545274D01*
X1029281Y546632D01*
X1030016Y548406D01*
Y550326D01*
X1029281Y552099D01*
X1027924Y553457D01*
X1026150Y554192D01*
D02*
G37*
G36*
X471665Y553241D02*
X469745D01*
X467971Y552506D01*
X466613Y551149D01*
X465879Y549375D01*
Y547455D01*
X466613Y545681D01*
X467971Y544324D01*
X469745Y543589D01*
X471665D01*
X473438Y544324D01*
X474796Y545681D01*
X475531Y547455D01*
Y549375D01*
X474796Y551149D01*
X473438Y552506D01*
X471665Y553241D01*
D02*
G37*
G36*
X405518Y552715D02*
X403599D01*
X401825Y551981D01*
X400467Y550623D01*
X399732Y548849D01*
Y546929D01*
X400467Y545156D01*
X401825Y543798D01*
X403599Y543063D01*
X405518D01*
X407292Y543798D01*
X408650Y545156D01*
X409384Y546929D01*
Y548849D01*
X408650Y550623D01*
X407292Y551981D01*
X405518Y552715D01*
D02*
G37*
G36*
X430654Y552601D02*
X428735D01*
X426961Y551866D01*
X425603Y550509D01*
X424868Y548735D01*
Y546815D01*
X425603Y545041D01*
X426961Y543684D01*
X428735Y542949D01*
X430654D01*
X432428Y543684D01*
X433786Y545041D01*
X434520Y546815D01*
Y548735D01*
X433786Y550509D01*
X432428Y551866D01*
X430654Y552601D01*
D02*
G37*
G36*
X451810Y552487D02*
X449890D01*
X448116Y551752D01*
X446759Y550395D01*
X446024Y548621D01*
Y546701D01*
X446759Y544927D01*
X448116Y543569D01*
X449890Y542835D01*
X451810D01*
X453584Y543569D01*
X454941Y544927D01*
X455676Y546701D01*
Y548621D01*
X454941Y550395D01*
X453584Y551752D01*
X451810Y552487D01*
D02*
G37*
G36*
X417858D02*
X415938D01*
X414164Y551752D01*
X412807Y550395D01*
X412072Y548621D01*
Y546701D01*
X412807Y544927D01*
X414164Y543569D01*
X415938Y542835D01*
X417858D01*
X419632Y543569D01*
X420989Y544927D01*
X421724Y546701D01*
Y548621D01*
X420989Y550395D01*
X419632Y551752D01*
X417858Y552487D01*
D02*
G37*
G36*
X1058870Y548996D02*
X1056950D01*
X1055176Y548261D01*
X1053819Y546904D01*
X1053084Y545130D01*
Y543210D01*
X1053819Y541436D01*
X1055176Y540079D01*
X1056950Y539344D01*
X1058870D01*
X1060644Y540079D01*
X1062001Y541436D01*
X1062736Y543210D01*
Y545130D01*
X1062001Y546904D01*
X1060644Y548261D01*
X1058870Y548996D01*
D02*
G37*
G36*
X738576Y548386D02*
X736656D01*
X734882Y547651D01*
X733525Y546294D01*
X732790Y544520D01*
Y542600D01*
X733525Y540826D01*
X734882Y539469D01*
X736656Y538734D01*
X738576D01*
X740350Y539469D01*
X741707Y540826D01*
X742442Y542600D01*
Y544520D01*
X741707Y546294D01*
X740350Y547651D01*
X738576Y548386D01*
D02*
G37*
G36*
X490704Y547029D02*
X488784D01*
X487010Y546294D01*
X485653Y544936D01*
X484918Y543162D01*
Y541243D01*
X485653Y539469D01*
X487010Y538111D01*
X488784Y537377D01*
X490704D01*
X492478Y538111D01*
X493835Y539469D01*
X494570Y541243D01*
Y543162D01*
X493835Y544936D01*
X492478Y546294D01*
X490704Y547029D01*
D02*
G37*
G36*
X536900Y551801D02*
X534980D01*
X533206Y551066D01*
X531849Y549709D01*
X531114Y547935D01*
Y546015D01*
X531849Y544241D01*
X533206Y542884D01*
X534980Y542149D01*
X535988D01*
X536595Y540960D01*
X535860Y539186D01*
Y537266D01*
X536595Y535492D01*
X537952Y534135D01*
X539726Y533400D01*
X541646D01*
X543420Y534135D01*
X544777Y535492D01*
X545512Y537266D01*
Y539186D01*
X544777Y540960D01*
X543420Y542317D01*
X541646Y543052D01*
X540638D01*
X540031Y544241D01*
X540766Y546015D01*
Y547935D01*
X540031Y549709D01*
X538674Y551066D01*
X536900Y551801D01*
D02*
G37*
G36*
X702892Y554092D02*
X700119D01*
X697441Y553374D01*
X695039Y551988D01*
X693078Y550027D01*
X691692Y547625D01*
X690974Y544947D01*
Y542173D01*
X691692Y539495D01*
X693078Y537093D01*
X695039Y535132D01*
X697441Y533746D01*
X700119Y533028D01*
X702892D01*
X705571Y533746D01*
X707973Y535132D01*
X709934Y537093D01*
X711320Y539495D01*
X712038Y542173D01*
Y544947D01*
X711320Y547625D01*
X709934Y550027D01*
X707973Y551988D01*
X705571Y553374D01*
X702892Y554092D01*
D02*
G37*
G36*
X669407D02*
X666633D01*
X663955Y553374D01*
X661553Y551988D01*
X659592Y550027D01*
X658206Y547625D01*
X657488Y544947D01*
Y542173D01*
X658206Y539495D01*
X659592Y537093D01*
X661553Y535132D01*
X663955Y533746D01*
X666633Y533028D01*
X669407D01*
X672085Y533746D01*
X674487Y535132D01*
X676448Y537093D01*
X677834Y539495D01*
X678552Y542173D01*
Y544947D01*
X677834Y547625D01*
X676448Y550027D01*
X674487Y551988D01*
X672085Y553374D01*
X669407Y554092D01*
D02*
G37*
G36*
X947628Y526833D02*
X945708D01*
X943934Y526098D01*
X942789Y524953D01*
X942087Y524815D01*
X941284Y524938D01*
X940161Y526061D01*
X938387Y526796D01*
X936467D01*
X934693Y526061D01*
X933497Y524865D01*
X932762Y524774D01*
X932028Y524865D01*
X930831Y526061D01*
X929057Y526796D01*
X927137D01*
X925364Y526061D01*
X924006Y524704D01*
X924000Y524688D01*
X922730D01*
X922723Y524704D01*
X921366Y526061D01*
X919592Y526796D01*
X917672D01*
X915899Y526061D01*
X914541Y524704D01*
X913806Y522930D01*
Y521010D01*
X914541Y519236D01*
X915899Y517879D01*
X917672Y517144D01*
X919592D01*
X921366Y517879D01*
X922723Y519236D01*
X922730Y519252D01*
X924000D01*
X924006Y519236D01*
X925364Y517879D01*
X927137Y517144D01*
X929057D01*
X930831Y517879D01*
X932028Y519075D01*
X932762Y519166D01*
X933497Y519075D01*
X934693Y517879D01*
X936467Y517144D01*
X938387D01*
X940161Y517879D01*
X941305Y519024D01*
X942008Y519161D01*
X942811Y519039D01*
X943934Y517916D01*
X945708Y517181D01*
X947628D01*
X949402Y517916D01*
X950759Y519273D01*
X951494Y521047D01*
Y522967D01*
X950759Y524741D01*
X949402Y526098D01*
X947628Y526833D01*
D02*
G37*
G36*
X807156Y534162D02*
X805236D01*
X803462Y533427D01*
X802105Y532070D01*
X801370Y530296D01*
Y528376D01*
X802105Y526602D01*
X803462Y525245D01*
X805236Y524510D01*
X807156D01*
X808930Y525245D01*
X810287Y526602D01*
X811022Y528376D01*
Y530296D01*
X810287Y532070D01*
X808930Y533427D01*
X807156Y534162D01*
D02*
G37*
G36*
X837291Y524601D02*
X835372D01*
X833598Y523866D01*
X832240Y522509D01*
X832184Y522374D01*
X830914D01*
X830858Y522509D01*
X829501Y523866D01*
X827727Y524601D01*
X825807D01*
X824034Y523866D01*
X822676Y522509D01*
X821941Y520735D01*
Y518815D01*
X822676Y517041D01*
X824034Y515684D01*
X825807Y514949D01*
X827727D01*
X829501Y515684D01*
X830858Y517041D01*
X830914Y517176D01*
X832184D01*
X832240Y517041D01*
X833598Y515684D01*
X835372Y514949D01*
X837291D01*
X839065Y515684D01*
X840423Y517041D01*
X841158Y518815D01*
Y520735D01*
X840423Y522509D01*
X839065Y523866D01*
X837291Y524601D01*
D02*
G37*
G36*
X1168516Y531806D02*
X1166596D01*
X1164822Y531071D01*
X1163465Y529714D01*
X1162730Y527940D01*
Y526020D01*
X1163465Y524246D01*
X1164822Y522889D01*
X1166596Y522154D01*
X1168516D01*
X1170290Y522889D01*
X1171647Y524246D01*
X1172382Y526020D01*
Y527940D01*
X1171647Y529714D01*
X1170290Y531071D01*
X1168516Y531806D01*
D02*
G37*
G36*
X501309Y531653D02*
X499389D01*
X497615Y530918D01*
X496258Y529561D01*
X495523Y527787D01*
Y525867D01*
X496258Y524093D01*
X497615Y522736D01*
X499389Y522001D01*
X501309D01*
X503083Y522736D01*
X504440Y524093D01*
X505175Y525867D01*
Y527787D01*
X504440Y529561D01*
X503083Y530918D01*
X501309Y531653D01*
D02*
G37*
G36*
X552394Y530606D02*
X550474D01*
X548700Y529871D01*
X547343Y528514D01*
X546608Y526740D01*
Y524820D01*
X547343Y523046D01*
X548700Y521689D01*
X550474Y520954D01*
X552394D01*
X554168Y521689D01*
X555525Y523046D01*
X556260Y524820D01*
Y526740D01*
X555525Y528514D01*
X554168Y529871D01*
X552394Y530606D01*
D02*
G37*
G36*
X367736Y527304D02*
X365816D01*
X364042Y526569D01*
X362685Y525212D01*
X361950Y523438D01*
Y521518D01*
X362685Y519744D01*
X364042Y518387D01*
X365816Y517652D01*
X367736D01*
X369510Y518387D01*
X370867Y519744D01*
X371602Y521518D01*
Y523438D01*
X370867Y525212D01*
X369510Y526569D01*
X367736Y527304D01*
D02*
G37*
G36*
X1073348Y521716D02*
X1071428D01*
X1069654Y520981D01*
X1068297Y519624D01*
X1067562Y517850D01*
Y515930D01*
X1068297Y514156D01*
X1069654Y512799D01*
X1071428Y512064D01*
X1073348D01*
X1075122Y512799D01*
X1076479Y514156D01*
X1077214Y515930D01*
Y517850D01*
X1076479Y519624D01*
X1075122Y520981D01*
X1073348Y521716D01*
D02*
G37*
G36*
X541726Y520954D02*
X539806D01*
X538032Y520219D01*
X536675Y518862D01*
X535940Y517088D01*
Y515168D01*
X536675Y513394D01*
X538032Y512037D01*
X539806Y511302D01*
X541726D01*
X543500Y512037D01*
X544857Y513394D01*
X545592Y515168D01*
Y517088D01*
X544857Y518862D01*
X543500Y520219D01*
X541726Y520954D01*
D02*
G37*
G36*
X1002228Y519938D02*
X1000308D01*
X998534Y519203D01*
X997177Y517846D01*
X996442Y516072D01*
Y514152D01*
X997177Y512378D01*
X998534Y511021D01*
X1000308Y510286D01*
X1002228D01*
X1004002Y511021D01*
X1005359Y512378D01*
X1006094Y514152D01*
Y516072D01*
X1005359Y517846D01*
X1004002Y519203D01*
X1002228Y519938D01*
D02*
G37*
G36*
X1179933Y508889D02*
X1178014D01*
X1176240Y508154D01*
X1174882Y506797D01*
X1174147Y505023D01*
Y503103D01*
X1174882Y501329D01*
X1176240Y499972D01*
X1178014Y499237D01*
X1179933D01*
X1181707Y499972D01*
X1183065Y501329D01*
X1183800Y503103D01*
Y505023D01*
X1183065Y506797D01*
X1181707Y508154D01*
X1179933Y508889D01*
D02*
G37*
G36*
X119933Y494792D02*
X118013D01*
X116239Y494057D01*
X115417Y493235D01*
X114594Y494057D01*
X112821Y494792D01*
X110901D01*
X109127Y494057D01*
X107769Y492700D01*
X107035Y490926D01*
Y489006D01*
X107769Y487232D01*
X109127Y485875D01*
X110901Y485140D01*
X112821D01*
X114594Y485875D01*
X115417Y486697D01*
X116239Y485875D01*
X118013Y485140D01*
X119933D01*
X121172Y485653D01*
X122144Y484681D01*
X121890Y484068D01*
Y482148D01*
X122624Y480374D01*
X123982Y479017D01*
X125756Y478282D01*
X127676D01*
X129449Y479017D01*
X130272Y479839D01*
X131094Y479017D01*
X132868Y478282D01*
X134788D01*
X136561Y479017D01*
X137919Y480374D01*
X138654Y482148D01*
Y484068D01*
X137919Y485842D01*
X136561Y487199D01*
X134788Y487934D01*
X132868D01*
X131094Y487199D01*
X130272Y486377D01*
X129449Y487199D01*
X127676Y487934D01*
X125756D01*
X124517Y487421D01*
X123545Y488393D01*
X123799Y489006D01*
Y490926D01*
X123064Y492700D01*
X121706Y494057D01*
X119933Y494792D01*
D02*
G37*
G36*
X1134054Y509750D02*
X1132134D01*
X1130360Y509015D01*
X1129003Y507658D01*
X1128268Y505884D01*
Y503964D01*
X1129003Y502190D01*
X1129825Y501368D01*
X1129003Y500546D01*
X1128268Y498772D01*
Y496852D01*
X1129003Y495078D01*
X1130360Y493721D01*
X1132134Y492986D01*
X1134054D01*
X1135828Y493721D01*
X1137185Y495078D01*
X1137920Y496852D01*
Y498772D01*
X1137185Y500546D01*
X1136363Y501368D01*
X1137185Y502190D01*
X1137920Y503964D01*
Y505884D01*
X1137185Y507658D01*
X1135828Y509015D01*
X1134054Y509750D01*
D02*
G37*
G36*
X166314Y506448D02*
X164394D01*
X162620Y505713D01*
X161263Y504356D01*
X160528Y502582D01*
Y500662D01*
X161263Y498888D01*
X162085Y498066D01*
X161263Y497244D01*
X160528Y495470D01*
Y493550D01*
X161263Y491776D01*
X162620Y490419D01*
X164394Y489684D01*
X166314D01*
X168088Y490419D01*
X169445Y491776D01*
X170180Y493550D01*
Y495470D01*
X169445Y497244D01*
X168623Y498066D01*
X169445Y498888D01*
X170180Y500662D01*
Y502582D01*
X169445Y504356D01*
X168088Y505713D01*
X166314Y506448D01*
D02*
G37*
G36*
X451909Y490982D02*
X449989D01*
X448215Y490247D01*
X447393Y489425D01*
X446571Y490247D01*
X444797Y490982D01*
X442877D01*
X441103Y490247D01*
X439746Y488890D01*
X439011Y487116D01*
Y485196D01*
X439746Y483422D01*
X441103Y482065D01*
X442877Y481330D01*
X444797D01*
X446571Y482065D01*
X447393Y482887D01*
X448215Y482065D01*
X449989Y481330D01*
X451909D01*
X453683Y482065D01*
X455040Y483422D01*
X455775Y485196D01*
Y487116D01*
X455040Y488890D01*
X453683Y490247D01*
X451909Y490982D01*
D02*
G37*
G36*
X1051684Y489970D02*
X1049764D01*
X1047990Y489235D01*
X1047168Y488413D01*
X1046346Y489235D01*
X1044572Y489970D01*
X1042652D01*
X1040878Y489235D01*
X1039521Y487878D01*
X1038786Y486104D01*
Y484184D01*
X1039521Y482410D01*
X1040878Y481053D01*
X1042652Y480318D01*
X1044572D01*
X1046346Y481053D01*
X1047168Y481875D01*
X1047990Y481053D01*
X1049764Y480318D01*
X1051072D01*
X1051599Y479048D01*
X1051362Y478812D01*
X1050628Y477038D01*
Y475118D01*
X1051362Y473344D01*
X1052720Y471987D01*
X1054494Y471252D01*
X1056414D01*
X1058187Y471987D01*
X1059010Y472809D01*
X1059832Y471987D01*
X1061606Y471252D01*
X1063526D01*
X1065299Y471987D01*
X1066657Y473344D01*
X1067392Y475118D01*
Y477038D01*
X1066657Y478812D01*
X1065299Y480169D01*
X1063526Y480904D01*
X1061606D01*
X1059832Y480169D01*
X1059010Y479347D01*
X1058187Y480169D01*
X1056414Y480904D01*
X1055105D01*
X1054579Y482174D01*
X1054815Y482410D01*
X1055550Y484184D01*
Y486104D01*
X1054815Y487878D01*
X1053458Y489235D01*
X1051684Y489970D01*
D02*
G37*
G36*
X232608Y504924D02*
X230688D01*
X228914Y504189D01*
X227557Y502832D01*
X226822Y501058D01*
Y499138D01*
X227557Y497364D01*
X228379Y496542D01*
X227557Y495720D01*
X226822Y493946D01*
Y492026D01*
X227557Y490252D01*
X228914Y488895D01*
X230688Y488160D01*
X232608D01*
X234382Y488895D01*
X235739Y490252D01*
X236474Y492026D01*
Y493946D01*
X235739Y495720D01*
X234917Y496542D01*
X235739Y497364D01*
X236474Y499138D01*
Y501058D01*
X235739Y502832D01*
X234382Y504189D01*
X232608Y504924D01*
D02*
G37*
G36*
X1354508Y489712D02*
X1352588D01*
X1350814Y488977D01*
X1349992Y488155D01*
X1349170Y488977D01*
X1347396Y489712D01*
X1345476D01*
X1343702Y488977D01*
X1342345Y487620D01*
X1341610Y485846D01*
Y483926D01*
X1342345Y482152D01*
X1343702Y480795D01*
X1345476Y480060D01*
X1347396D01*
X1349170Y480795D01*
X1349992Y481617D01*
X1350814Y480795D01*
X1352588Y480060D01*
X1354508D01*
X1356282Y480795D01*
X1357639Y482152D01*
X1358374Y483926D01*
Y485846D01*
X1357639Y487620D01*
X1356282Y488977D01*
X1354508Y489712D01*
D02*
G37*
G36*
X89017Y503546D02*
X86243D01*
X83565Y502828D01*
X81163Y501442D01*
X79202Y499481D01*
X77816Y497079D01*
X77098Y494401D01*
Y491627D01*
X77816Y488949D01*
X79202Y486547D01*
X81163Y484586D01*
X83565Y483200D01*
X86243Y482482D01*
X89017D01*
X91695Y483200D01*
X94097Y484586D01*
X96058Y486547D01*
X97444Y488949D01*
X98162Y491627D01*
Y494401D01*
X97444Y497079D01*
X96058Y499481D01*
X94097Y501442D01*
X91695Y502828D01*
X89017Y503546D01*
D02*
G37*
G36*
X72762D02*
X51698D01*
Y482482D01*
X72762D01*
Y503546D01*
D02*
G37*
G36*
X191968Y498828D02*
X190048D01*
X188274Y498093D01*
X186917Y496736D01*
X186182Y494962D01*
Y493042D01*
X186917Y491268D01*
X187739Y490446D01*
X186917Y489624D01*
X186182Y487850D01*
Y485930D01*
X186917Y484156D01*
X188274Y482799D01*
X190048Y482064D01*
X191968D01*
X193742Y482799D01*
X195099Y484156D01*
X195834Y485930D01*
Y487850D01*
X195099Y489624D01*
X194277Y490446D01*
X195099Y491268D01*
X195834Y493042D01*
Y494962D01*
X195099Y496736D01*
X193742Y498093D01*
X191968Y498828D01*
D02*
G37*
G36*
X769125Y483362D02*
X767205D01*
X765432Y482627D01*
X764609Y481805D01*
X763787Y482627D01*
X762013Y483362D01*
X760093D01*
X758320Y482627D01*
X756962Y481270D01*
X756227Y479496D01*
Y477576D01*
X756962Y475802D01*
X758320Y474445D01*
X760093Y473710D01*
X762013D01*
X763787Y474445D01*
X764609Y475267D01*
X765432Y474445D01*
X767205Y473710D01*
X769125D01*
X770899Y474445D01*
X772257Y475802D01*
X772991Y477576D01*
Y479496D01*
X772257Y481270D01*
X770899Y482627D01*
X769125Y483362D01*
D02*
G37*
G36*
X436909Y482600D02*
X434989D01*
X433215Y481865D01*
X432393Y481043D01*
X431571Y481865D01*
X429797Y482600D01*
X427877D01*
X426103Y481865D01*
X424746Y480508D01*
X424011Y478734D01*
Y476814D01*
X424746Y475040D01*
X426103Y473683D01*
X427877Y472948D01*
X429797D01*
X431571Y473683D01*
X432393Y474505D01*
X433215Y473683D01*
X434989Y472948D01*
X436909D01*
X438683Y473683D01*
X440040Y475040D01*
X440775Y476814D01*
Y478734D01*
X440040Y480508D01*
X438683Y481865D01*
X436909Y482600D01*
D02*
G37*
G36*
X1101288Y492760D02*
X1099368D01*
X1097594Y492025D01*
X1096237Y490668D01*
X1095502Y488894D01*
Y486974D01*
X1096237Y485200D01*
X1097059Y484378D01*
X1096237Y483556D01*
X1095502Y481782D01*
Y479862D01*
X1096237Y478088D01*
X1097594Y476731D01*
X1099368Y475996D01*
X1101288D01*
X1103062Y476731D01*
X1104419Y478088D01*
X1105154Y479862D01*
Y481782D01*
X1104419Y483556D01*
X1103597Y484378D01*
X1104419Y485200D01*
X1105154Y486974D01*
Y488894D01*
X1104419Y490668D01*
X1103062Y492025D01*
X1101288Y492760D01*
D02*
G37*
G36*
X1363604Y478899D02*
X1361684D01*
X1359910Y478165D01*
X1358553Y476807D01*
X1357818Y475033D01*
Y473113D01*
X1358553Y471340D01*
X1359910Y469982D01*
X1361684Y469247D01*
X1363604D01*
X1365378Y469982D01*
X1366202Y470806D01*
X1367079Y469929D01*
X1368853Y469194D01*
X1370773D01*
X1372546Y469929D01*
X1373904Y471286D01*
X1374639Y473060D01*
Y474980D01*
X1373904Y476754D01*
X1372546Y478111D01*
X1370773Y478846D01*
X1368853D01*
X1367079Y478111D01*
X1366255Y477287D01*
X1365378Y478165D01*
X1363604Y478899D01*
D02*
G37*
G36*
X753915Y469638D02*
X751995D01*
X750222Y468903D01*
X749399Y468080D01*
X748577Y468903D01*
X746803Y469638D01*
X744883D01*
X743110Y468903D01*
X741752Y467545D01*
X741018Y465771D01*
Y463852D01*
X741752Y462078D01*
X743110Y460720D01*
X744883Y459986D01*
X746803D01*
X748577Y460720D01*
X749399Y461543D01*
X750222Y460720D01*
X751995Y459986D01*
X753915D01*
X755689Y460720D01*
X757047Y462078D01*
X757782Y463852D01*
Y465771D01*
X757047Y467545D01*
X755689Y468903D01*
X753915Y469638D01*
D02*
G37*
G36*
X482824Y459018D02*
X482824Y459018D01*
X425167D01*
X425166Y459018D01*
X424374Y458860D01*
X423701Y458411D01*
X423701Y458411D01*
X422592Y457302D01*
X422258Y456801D01*
X421909Y456946D01*
X419989D01*
X418215Y456211D01*
X417393Y455389D01*
X416571Y456211D01*
X414797Y456946D01*
X412877D01*
X411103Y456211D01*
X409746Y454854D01*
X409011Y453080D01*
Y451160D01*
X409746Y449386D01*
X411103Y448029D01*
X412877Y447294D01*
X414536D01*
X414950Y447132D01*
X415728Y446305D01*
Y443072D01*
X410338Y437682D01*
X404940D01*
X404688Y438952D01*
X405758Y439395D01*
X407115Y440753D01*
X407850Y442526D01*
Y444446D01*
X407115Y446220D01*
X405758Y447578D01*
X403984Y448312D01*
X402064D01*
X400290Y447578D01*
X398933Y446220D01*
X398198Y444446D01*
Y442526D01*
X398933Y440753D01*
X400290Y439395D01*
X401360Y438952D01*
X401108Y437682D01*
X389766D01*
X389566Y437642D01*
X389362D01*
X389173Y437564D01*
X388973Y437524D01*
X388804Y437411D01*
X388615Y437333D01*
X388471Y437188D01*
X388301Y437075D01*
X388188Y436905D01*
X388043Y436761D01*
X387965Y436572D01*
X387852Y436403D01*
X387812Y436203D01*
X387734Y436014D01*
X387481Y434744D01*
Y434540D01*
X387471Y434486D01*
X387241D01*
X385467Y433751D01*
X384110Y432394D01*
X383646Y431275D01*
X382898Y431585D01*
X382105Y431742D01*
X381673Y431656D01*
X381312Y431585D01*
X380640Y431136D01*
X375949Y426445D01*
X375500Y425773D01*
X375342Y424980D01*
X375342Y424980D01*
Y350520D01*
X375342Y350520D01*
X375500Y349727D01*
X375949Y349055D01*
X390935Y334069D01*
X391608Y333620D01*
X392400Y333462D01*
X392401Y333462D01*
X492476D01*
X492476Y333462D01*
X493269Y333620D01*
X493941Y334069D01*
X493941Y334069D01*
X508419Y348547D01*
X508868Y349219D01*
X509026Y350012D01*
X509026Y350012D01*
Y432816D01*
X509026Y432816D01*
X508868Y433609D01*
X508419Y434281D01*
X508419Y434281D01*
X484289Y458411D01*
X483617Y458860D01*
X482824Y459018D01*
D02*
G37*
G36*
X180848Y462828D02*
X180848Y462828D01*
X150483D01*
X150283Y462788D01*
X150078D01*
X149890Y462710D01*
X149690Y462670D01*
X149520Y462557D01*
X149332Y462479D01*
X149187Y462334D01*
X149018Y462221D01*
X148904Y462051D01*
X148760Y461907D01*
X148682Y461718D01*
X148569Y461549D01*
X148529Y461349D01*
X148451Y461160D01*
X148198Y459890D01*
Y459686D01*
X148178Y459585D01*
X148072D01*
X146298Y458850D01*
X145476Y458028D01*
X144653Y458850D01*
X142880Y459585D01*
X142774D01*
X142753Y459686D01*
Y459890D01*
X142501Y461160D01*
X142423Y461349D01*
X142383Y461549D01*
X142269Y461718D01*
X142191Y461907D01*
X142047Y462051D01*
X141934Y462221D01*
X141764Y462334D01*
X141620Y462479D01*
X141431Y462557D01*
X141262Y462670D01*
X141061Y462710D01*
X140873Y462788D01*
X140669D01*
X140469Y462828D01*
X123190D01*
X123190Y462828D01*
X122397Y462670D01*
X121725Y462221D01*
X114359Y454855D01*
X113910Y454183D01*
X113752Y453390D01*
X113752Y453390D01*
Y450046D01*
X112482Y449793D01*
X112041Y450857D01*
X110684Y452215D01*
X108910Y452950D01*
X106990D01*
X105216Y452215D01*
X103859Y450857D01*
X103124Y449084D01*
Y447164D01*
X103859Y445390D01*
X105216Y444032D01*
X106990Y443298D01*
X107543D01*
X108177Y442028D01*
X107774Y441492D01*
X87790D01*
X87590Y441452D01*
X87386D01*
X87197Y441374D01*
X86997Y441334D01*
X86827Y441221D01*
X86639Y441143D01*
X86494Y440998D01*
X86325Y440885D01*
X86211Y440715D01*
X86067Y440571D01*
X85989Y440382D01*
X85876Y440213D01*
X85836Y440013D01*
X85758Y439824D01*
X85505Y438554D01*
Y438350D01*
X85494Y438296D01*
X85265D01*
X83491Y437561D01*
X82133Y436204D01*
X81670Y435085D01*
X80921Y435395D01*
X80129Y435552D01*
X79696Y435466D01*
X79336Y435395D01*
X78664Y434946D01*
X73973Y430255D01*
X73524Y429583D01*
X73366Y428790D01*
X73366Y428790D01*
Y354330D01*
X73366Y354330D01*
X73524Y353537D01*
X73973Y352865D01*
X88959Y337879D01*
X89631Y337430D01*
X90424Y337272D01*
X90424Y337272D01*
X190500D01*
X190500Y337272D01*
X191293Y337430D01*
X191965Y337879D01*
X191965Y337879D01*
X206443Y352357D01*
X206892Y353029D01*
X207050Y353822D01*
X207050Y353822D01*
Y436626D01*
X207050Y436626D01*
X206892Y437419D01*
X206443Y438091D01*
X206443Y438091D01*
X182313Y462221D01*
X181641Y462670D01*
X180848Y462828D01*
D02*
G37*
G36*
X1112599Y458006D02*
X1112599Y458006D01*
X1054941D01*
X1054941Y458006D01*
X1054148Y457848D01*
X1053476Y457399D01*
X1046110Y450033D01*
X1045661Y449361D01*
X1045503Y448568D01*
X1045503Y448568D01*
Y442060D01*
X1040113Y436670D01*
X1019541D01*
X1019341Y436630D01*
X1019137D01*
X1018948Y436552D01*
X1018748Y436512D01*
X1018579Y436399D01*
X1018390Y436320D01*
X1018246Y436176D01*
X1018076Y436063D01*
X1017963Y435893D01*
X1017818Y435749D01*
X1017740Y435560D01*
X1017627Y435391D01*
X1017587Y435191D01*
X1017509Y435002D01*
X1017256Y433732D01*
Y433528D01*
X1017246Y433474D01*
X1017016D01*
X1015242Y432739D01*
X1013885Y431381D01*
X1013421Y430262D01*
X1012673Y430572D01*
X1011880Y430730D01*
X1011448Y430644D01*
X1011087Y430573D01*
X1010415Y430123D01*
X1005724Y425433D01*
X1005275Y424761D01*
X1005117Y423968D01*
X1005117Y423968D01*
Y349508D01*
X1005117Y349508D01*
X1005275Y348715D01*
X1005724Y348043D01*
X1020710Y333057D01*
X1021383Y332608D01*
X1022175Y332450D01*
X1022176Y332450D01*
X1084326D01*
X1084556Y332496D01*
X1085061Y331276D01*
X1086418Y329919D01*
X1088192Y329184D01*
X1090112D01*
X1091886Y329919D01*
X1093243Y331276D01*
X1093748Y332496D01*
X1093978Y332450D01*
X1100074D01*
Y331526D01*
X1100809Y329752D01*
X1102166Y328395D01*
X1103940Y327660D01*
X1105860D01*
X1107634Y328395D01*
X1108991Y329752D01*
X1109314Y330532D01*
X1109318Y330533D01*
X1110637Y330406D01*
X1111223Y328990D01*
X1112580Y327633D01*
X1114354Y326898D01*
X1116274D01*
X1118048Y327633D01*
X1119405Y328990D01*
X1120140Y330764D01*
Y332450D01*
X1122251D01*
X1122251Y332450D01*
X1123149Y331389D01*
X1123884Y329615D01*
X1125241Y328257D01*
X1127015Y327522D01*
X1128935D01*
X1130709Y328257D01*
X1132066Y329615D01*
X1132801Y331389D01*
Y333308D01*
X1132066Y335082D01*
X1130709Y336440D01*
X1129426Y336971D01*
X1129007Y338348D01*
X1138194Y347535D01*
X1138643Y348207D01*
X1138801Y349000D01*
X1138801Y349000D01*
Y431804D01*
X1138801Y431804D01*
X1138643Y432597D01*
X1138194Y433269D01*
X1138194Y433269D01*
X1114064Y457399D01*
X1113392Y457848D01*
X1112599Y458006D01*
D02*
G37*
G36*
X1415423Y457748D02*
X1415423Y457748D01*
X1387343D01*
X1386550Y457590D01*
X1385878Y457141D01*
X1385429Y456469D01*
X1385014Y455466D01*
X1384508Y455676D01*
X1382588D01*
X1380814Y454941D01*
X1379992Y454119D01*
X1379170Y454941D01*
X1377396Y455676D01*
X1375476D01*
X1374970Y455466D01*
X1374555Y456469D01*
X1374106Y457141D01*
X1373434Y457590D01*
X1372641Y457748D01*
X1357766D01*
X1357765Y457748D01*
X1356973Y457590D01*
X1356300Y457141D01*
X1348934Y449775D01*
X1348485Y449103D01*
X1348327Y448310D01*
X1348327Y448310D01*
Y441802D01*
X1342937Y436412D01*
X1322365D01*
X1322165Y436372D01*
X1321961D01*
X1321772Y436294D01*
X1321572Y436254D01*
X1321403Y436141D01*
X1321214Y436063D01*
X1321070Y435918D01*
X1320900Y435805D01*
X1320787Y435635D01*
X1320642Y435491D01*
X1320564Y435303D01*
X1320451Y435133D01*
X1320411Y434933D01*
X1320333Y434744D01*
X1320080Y433474D01*
Y433270D01*
X1320070Y433216D01*
X1319840D01*
X1318066Y432481D01*
X1316709Y431124D01*
X1316245Y430005D01*
X1315497Y430315D01*
X1314704Y430472D01*
X1314272Y430386D01*
X1313911Y430315D01*
X1313239Y429866D01*
X1308548Y425175D01*
X1308099Y424503D01*
X1307941Y423710D01*
X1307941Y423710D01*
Y349250D01*
X1307941Y349250D01*
X1308099Y348457D01*
X1308548Y347785D01*
X1323534Y332799D01*
X1324207Y332350D01*
X1324999Y332192D01*
X1325000Y332192D01*
X1386404D01*
X1387094Y331160D01*
Y329240D01*
X1387829Y327466D01*
X1389186Y326109D01*
X1390960Y325374D01*
X1392880D01*
X1394654Y326109D01*
X1396011Y327466D01*
X1396746Y329240D01*
Y331160D01*
X1397436Y332192D01*
X1407862D01*
X1408580Y330459D01*
X1409937Y329101D01*
X1411711Y328366D01*
X1413631D01*
X1415405Y329101D01*
X1416763Y330459D01*
X1417480Y332192D01*
X1419121D01*
X1419137Y332195D01*
X1419833Y330514D01*
X1421190Y329157D01*
X1422964Y328422D01*
X1424884D01*
X1426658Y329157D01*
X1428015Y330514D01*
X1428750Y332288D01*
Y334208D01*
X1428477Y334866D01*
X1428869Y335128D01*
X1428869Y335128D01*
X1441018Y347277D01*
X1441467Y347949D01*
X1441625Y348742D01*
X1441625Y348742D01*
Y431546D01*
X1441625Y431546D01*
X1441467Y432339D01*
X1441018Y433011D01*
X1441018Y433011D01*
X1416888Y457141D01*
X1416216Y457590D01*
X1415423Y457748D01*
D02*
G37*
G36*
X89271Y475606D02*
X86497D01*
X83819Y474888D01*
X81417Y473502D01*
X79456Y471541D01*
X78070Y469139D01*
X77352Y466461D01*
Y463687D01*
X78070Y461009D01*
X79456Y458607D01*
X81417Y456646D01*
X83819Y455260D01*
X86497Y454542D01*
X89271D01*
X91949Y455260D01*
X94351Y456646D01*
X96312Y458607D01*
X97698Y461009D01*
X98416Y463687D01*
Y466461D01*
X97698Y469139D01*
X96312Y471541D01*
X94351Y473502D01*
X91949Y474888D01*
X89271Y475606D01*
D02*
G37*
G36*
X800041Y451398D02*
X800041Y451398D01*
X754686D01*
X754686Y451398D01*
X753893Y451240D01*
X753221Y450791D01*
X743348Y440919D01*
X742914Y440268D01*
X741290D01*
X740649Y440909D01*
X740370Y441366D01*
X740842Y442504D01*
Y444424D01*
X740107Y446198D01*
X738749Y447555D01*
X736976Y448290D01*
X735056D01*
X733282Y447555D01*
X733027Y447300D01*
X731716Y448611D01*
X729942Y449346D01*
X728023D01*
X726249Y448611D01*
X724891Y447254D01*
X724156Y445480D01*
Y443560D01*
X724891Y441786D01*
X726249Y440429D01*
X728023Y439694D01*
X729942D01*
X731716Y440429D01*
X731971Y440684D01*
X733282Y439373D01*
X735056Y438638D01*
X736725D01*
X737366Y437998D01*
X737645Y437541D01*
X737173Y436402D01*
Y434528D01*
X736523Y434094D01*
X736523Y434093D01*
X732492Y430062D01*
X724961D01*
X724435Y431332D01*
X724645Y431542D01*
X725380Y433315D01*
Y435235D01*
X724645Y437009D01*
X723288Y438367D01*
X721514Y439101D01*
X719594D01*
X717820Y438367D01*
X716462Y437009D01*
X715728Y435235D01*
Y433315D01*
X716462Y431542D01*
X716672Y431332D01*
X716146Y430062D01*
X706982D01*
X706782Y430022D01*
X706578D01*
X706390Y429944D01*
X706189Y429904D01*
X706020Y429791D01*
X705831Y429713D01*
X705687Y429568D01*
X705517Y429455D01*
X705404Y429285D01*
X705260Y429141D01*
X705182Y428952D01*
X705068Y428783D01*
X705029Y428583D01*
X704950Y428394D01*
X704698Y427124D01*
Y426920D01*
X704687Y426866D01*
X704457D01*
X702684Y426131D01*
X701326Y424774D01*
X700863Y423655D01*
X700114Y423965D01*
X699321Y424122D01*
X698889Y424036D01*
X698529Y423965D01*
X697856Y423516D01*
X693166Y418825D01*
X692717Y418153D01*
X692559Y417360D01*
X692559Y417360D01*
Y342900D01*
X692559Y342900D01*
X692717Y342107D01*
X693166Y341435D01*
X708152Y326449D01*
X708824Y326000D01*
X709617Y325842D01*
X709617Y325842D01*
X722996D01*
X723482Y324669D01*
X723365Y324552D01*
X722630Y322778D01*
Y320858D01*
X723365Y319084D01*
X724722Y317727D01*
X726496Y316992D01*
X728416D01*
X730190Y317727D01*
X731547Y319084D01*
X732282Y320858D01*
Y322778D01*
X731547Y324552D01*
X731430Y324669D01*
X731916Y325842D01*
X809693D01*
X809693Y325842D01*
X810486Y326000D01*
X811158Y326449D01*
X811158Y326449D01*
X825636Y340927D01*
X826085Y341599D01*
X826243Y342392D01*
X826243Y342392D01*
Y425196D01*
X826243Y425196D01*
X826085Y425989D01*
X825636Y426661D01*
X825636Y426661D01*
X801506Y450791D01*
X800834Y451240D01*
X800041Y451398D01*
D02*
G37*
G36*
X962015Y462144D02*
X959241D01*
X956563Y461426D01*
X954161Y460040D01*
X952200Y458079D01*
X950814Y455677D01*
X950096Y452999D01*
Y450225D01*
X950814Y447547D01*
X952200Y445145D01*
X954161Y443184D01*
X956563Y441798D01*
X959241Y441080D01*
X962015D01*
X964693Y441798D01*
X967095Y443184D01*
X969056Y445145D01*
X970442Y447547D01*
X971160Y450225D01*
Y452999D01*
X970442Y455677D01*
X969056Y458079D01*
X967095Y460040D01*
X964693Y461426D01*
X962015Y462144D01*
D02*
G37*
G36*
X945760D02*
X924696D01*
Y441080D01*
X945760D01*
Y462144D01*
D02*
G37*
G36*
X1034093Y448314D02*
X1032173D01*
X1030399Y447579D01*
X1029042Y446222D01*
X1028307Y444448D01*
Y442528D01*
X1029042Y440754D01*
X1030399Y439397D01*
X1032173Y438662D01*
X1034093D01*
X1035867Y439397D01*
X1037224Y440754D01*
X1037959Y442528D01*
Y444448D01*
X1037224Y446222D01*
X1035867Y447579D01*
X1034093Y448314D01*
D02*
G37*
G36*
X646801Y459604D02*
X644027D01*
X641349Y458886D01*
X638947Y457500D01*
X636986Y455539D01*
X635600Y453137D01*
X634882Y450459D01*
Y447685D01*
X635600Y445007D01*
X636986Y442605D01*
X638947Y440644D01*
X641349Y439258D01*
X644027Y438540D01*
X646801D01*
X649479Y439258D01*
X651881Y440644D01*
X653842Y442605D01*
X655228Y445007D01*
X655946Y447685D01*
Y450459D01*
X655228Y453137D01*
X653842Y455539D01*
X651881Y457500D01*
X649479Y458886D01*
X646801Y459604D01*
D02*
G37*
G36*
X630546D02*
X609482D01*
Y438540D01*
X630546D01*
Y459604D01*
D02*
G37*
G36*
X1336917Y448056D02*
X1334997D01*
X1333223Y447321D01*
X1331866Y445964D01*
X1331131Y444190D01*
Y442270D01*
X1331866Y440496D01*
X1333223Y439139D01*
X1334997Y438404D01*
X1336917D01*
X1338691Y439139D01*
X1340048Y440496D01*
X1340783Y442270D01*
Y444190D01*
X1340048Y445964D01*
X1338691Y447321D01*
X1336917Y448056D01*
D02*
G37*
G36*
X1260973Y449698D02*
X1258199D01*
X1255521Y448980D01*
X1253119Y447594D01*
X1251158Y445633D01*
X1249772Y443231D01*
X1249054Y440553D01*
Y437779D01*
X1249772Y435101D01*
X1251158Y432699D01*
X1253119Y430738D01*
X1255521Y429352D01*
X1258199Y428634D01*
X1260973D01*
X1263651Y429352D01*
X1266053Y430738D01*
X1268014Y432699D01*
X1269400Y435101D01*
X1270118Y437779D01*
Y440553D01*
X1269400Y443231D01*
X1268014Y445633D01*
X1266053Y447594D01*
X1263651Y448980D01*
X1260973Y449698D01*
D02*
G37*
G36*
X1244718D02*
X1223654D01*
Y428634D01*
X1244718D01*
Y449698D01*
D02*
G37*
G36*
X240580Y437896D02*
X238660D01*
X236886Y437161D01*
X235529Y435804D01*
X234794Y434030D01*
Y432110D01*
X235529Y430336D01*
X236886Y428979D01*
X238660Y428244D01*
X240580D01*
X242354Y428979D01*
X243711Y430336D01*
X244446Y432110D01*
Y434030D01*
X243711Y435804D01*
X242354Y437161D01*
X240580Y437896D01*
D02*
G37*
G36*
X541850Y434086D02*
X539930D01*
X538156Y433351D01*
X536799Y431994D01*
X536064Y430220D01*
Y428300D01*
X536799Y426526D01*
X538156Y425169D01*
X539930Y424434D01*
X541850D01*
X543624Y425169D01*
X544981Y426526D01*
X545716Y428300D01*
Y430220D01*
X544981Y431994D01*
X543624Y433351D01*
X541850Y434086D01*
D02*
G37*
G36*
X327015Y445126D02*
X324241D01*
X321563Y444408D01*
X319161Y443022D01*
X317200Y441061D01*
X315814Y438659D01*
X315096Y435981D01*
Y433207D01*
X315814Y430529D01*
X317200Y428127D01*
X319161Y426166D01*
X321563Y424780D01*
X324241Y424062D01*
X327015D01*
X329693Y424780D01*
X332095Y426166D01*
X334056Y428127D01*
X335442Y430529D01*
X336160Y433207D01*
Y435981D01*
X335442Y438659D01*
X334056Y441061D01*
X332095Y443022D01*
X329693Y444408D01*
X327015Y445126D01*
D02*
G37*
G36*
X310760D02*
X289696D01*
Y424062D01*
X310760D01*
Y445126D01*
D02*
G37*
G36*
X1476700Y431546D02*
X1474780D01*
X1473006Y430811D01*
X1471649Y429454D01*
X1470914Y427680D01*
Y425760D01*
X1471649Y423986D01*
X1473006Y422629D01*
X1474780Y421894D01*
X1476700D01*
X1478474Y422629D01*
X1479831Y423986D01*
X1480566Y425760D01*
Y427680D01*
X1479831Y429454D01*
X1478474Y430811D01*
X1476700Y431546D01*
D02*
G37*
G36*
X1173170D02*
X1171250D01*
X1169476Y430811D01*
X1168119Y429454D01*
X1167384Y427680D01*
Y425760D01*
X1168119Y423986D01*
X1169476Y422629D01*
X1171250Y421894D01*
X1173170D01*
X1174944Y422629D01*
X1176301Y423986D01*
X1177036Y425760D01*
Y427680D01*
X1176301Y429454D01*
X1174944Y430811D01*
X1173170Y431546D01*
D02*
G37*
G36*
X255976Y427990D02*
X254056D01*
X252282Y427255D01*
X250925Y425898D01*
X250190Y424124D01*
Y422204D01*
X250925Y420430D01*
X252282Y419073D01*
X254056Y418338D01*
X255976D01*
X257750Y419073D01*
X259107Y420430D01*
X259842Y422204D01*
Y424124D01*
X259107Y425898D01*
X257750Y427255D01*
X255976Y427990D01*
D02*
G37*
G36*
X857800Y426466D02*
X855880D01*
X854106Y425731D01*
X852749Y424374D01*
X852014Y422600D01*
Y420680D01*
X852749Y418906D01*
X854106Y417549D01*
X855880Y416814D01*
X857800D01*
X859574Y417549D01*
X860931Y418906D01*
X861666Y420680D01*
Y422600D01*
X860931Y424374D01*
X859574Y425731D01*
X857800Y426466D01*
D02*
G37*
G36*
X46545D02*
X44625D01*
X42851Y425731D01*
X41493Y424374D01*
X40759Y422600D01*
Y420680D01*
X41493Y418906D01*
X42851Y417549D01*
X44625Y416814D01*
X46545D01*
X48318Y417549D01*
X49676Y418906D01*
X50411Y420680D01*
Y422600D01*
X49676Y424374D01*
X48318Y425731D01*
X46545Y426466D01*
D02*
G37*
G36*
X585160Y424346D02*
X583240D01*
X581466Y423611D01*
X580109Y422254D01*
X579374Y420480D01*
Y418560D01*
X580109Y416786D01*
X581466Y415429D01*
X583240Y414694D01*
X585160D01*
X586934Y415429D01*
X588291Y416786D01*
X589026Y418560D01*
Y420480D01*
X588291Y422254D01*
X586934Y423611D01*
X585160Y424346D01*
D02*
G37*
G36*
X1522420Y422656D02*
X1520500D01*
X1518726Y421921D01*
X1517369Y420564D01*
X1516634Y418790D01*
Y416870D01*
X1517369Y415096D01*
X1518726Y413739D01*
X1520500Y413004D01*
X1522420D01*
X1524194Y413739D01*
X1525551Y415096D01*
X1526286Y416870D01*
Y418790D01*
X1525551Y420564D01*
X1524194Y421921D01*
X1522420Y422656D01*
D02*
G37*
G36*
X962015Y433950D02*
X959241D01*
X956563Y433232D01*
X954161Y431846D01*
X952200Y429885D01*
X950814Y427483D01*
X950096Y424805D01*
Y422031D01*
X950814Y419353D01*
X952200Y416951D01*
X954161Y414990D01*
X956563Y413604D01*
X959241Y412886D01*
X962015D01*
X964693Y413604D01*
X967095Y414990D01*
X969056Y416951D01*
X970442Y419353D01*
X971160Y422031D01*
Y424805D01*
X970442Y427483D01*
X969056Y429885D01*
X967095Y431846D01*
X964693Y433232D01*
X962015Y433950D01*
D02*
G37*
G36*
X1199332Y421894D02*
X1197412D01*
X1195638Y421159D01*
X1194281Y419802D01*
X1193546Y418028D01*
Y416108D01*
X1194281Y414334D01*
X1195638Y412977D01*
X1197412Y412242D01*
X1199332D01*
X1201106Y412977D01*
X1202463Y414334D01*
X1203198Y416108D01*
Y418028D01*
X1202463Y419802D01*
X1201106Y421159D01*
X1199332Y421894D01*
D02*
G37*
G36*
X347157Y421678D02*
X345237D01*
X343463Y420943D01*
X342105Y419585D01*
X341371Y417811D01*
Y415891D01*
X342105Y414118D01*
X343463Y412760D01*
X345237Y412025D01*
X347157D01*
X348930Y412760D01*
X350288Y414118D01*
X351023Y415891D01*
Y417811D01*
X350288Y419585D01*
X348930Y420943D01*
X347157Y421678D01*
D02*
G37*
G36*
X978296Y421644D02*
X976376D01*
X974602Y420909D01*
X973245Y419552D01*
X972510Y417778D01*
Y415858D01*
X973245Y414084D01*
X974602Y412727D01*
X976376Y411992D01*
X978296D01*
X980070Y412727D01*
X981427Y414084D01*
X982162Y415858D01*
Y417778D01*
X981427Y419552D01*
X980070Y420909D01*
X978296Y421644D01*
D02*
G37*
G36*
X1281120Y421386D02*
X1279200D01*
X1277426Y420651D01*
X1276069Y419294D01*
X1275334Y417520D01*
Y415600D01*
X1276069Y413826D01*
X1277426Y412469D01*
X1279200Y411734D01*
X1281120D01*
X1282894Y412469D01*
X1284251Y413826D01*
X1284986Y415600D01*
Y417520D01*
X1284251Y419294D01*
X1282894Y420651D01*
X1281120Y421386D01*
D02*
G37*
G36*
X646801Y431918D02*
X644027D01*
X641349Y431200D01*
X638947Y429814D01*
X636986Y427853D01*
X635600Y425451D01*
X634882Y422773D01*
Y419999D01*
X635600Y417321D01*
X636986Y414919D01*
X638947Y412958D01*
X641349Y411572D01*
X644027Y410854D01*
X646801D01*
X649479Y411572D01*
X651881Y412958D01*
X653842Y414919D01*
X655228Y417321D01*
X655946Y419999D01*
Y422773D01*
X655228Y425451D01*
X653842Y427853D01*
X651881Y429814D01*
X649479Y431200D01*
X646801Y431918D01*
D02*
G37*
G36*
X665170Y415793D02*
X663250D01*
X661476Y415059D01*
X660119Y413701D01*
X659384Y411927D01*
Y410008D01*
X660119Y408234D01*
X661476Y406876D01*
X663250Y406142D01*
X665170D01*
X666944Y406876D01*
X668301Y408234D01*
X669036Y410008D01*
Y411927D01*
X668301Y413701D01*
X666944Y415059D01*
X665170Y415793D01*
D02*
G37*
G36*
X903930Y415036D02*
X902010D01*
X900236Y414301D01*
X898879Y412944D01*
X898144Y411170D01*
Y409250D01*
X898879Y407476D01*
X900236Y406119D01*
X902010Y405384D01*
X903930D01*
X905704Y406119D01*
X907061Y407476D01*
X907796Y409250D01*
Y411170D01*
X907061Y412944D01*
X905704Y414301D01*
X903930Y415036D01*
D02*
G37*
G36*
X1260719Y421758D02*
X1257945D01*
X1255267Y421040D01*
X1252865Y419654D01*
X1250904Y417693D01*
X1249518Y415291D01*
X1248800Y412613D01*
Y409839D01*
X1249518Y407161D01*
X1250904Y404759D01*
X1252865Y402798D01*
X1255267Y401412D01*
X1257945Y400694D01*
X1260719D01*
X1263397Y401412D01*
X1265799Y402798D01*
X1267760Y404759D01*
X1269146Y407161D01*
X1269864Y409839D01*
Y412613D01*
X1269146Y415291D01*
X1267760Y417693D01*
X1265799Y419654D01*
X1263397Y421040D01*
X1260719Y421758D01*
D02*
G37*
G36*
X987409Y407401D02*
X985489D01*
X983715Y406666D01*
X982358Y405309D01*
X981623Y403535D01*
Y401615D01*
X982358Y399842D01*
X983715Y398484D01*
X985489Y397749D01*
X987409D01*
X989183Y398484D01*
X990540Y399842D01*
X991275Y401615D01*
Y403535D01*
X990540Y405309D01*
X989183Y406666D01*
X987409Y407401D01*
D02*
G37*
G36*
X1290233Y407144D02*
X1288313D01*
X1286539Y406409D01*
X1285182Y405051D01*
X1284447Y403277D01*
Y401357D01*
X1285182Y399584D01*
X1286539Y398226D01*
X1288313Y397491D01*
X1290233D01*
X1292007Y398226D01*
X1293364Y399584D01*
X1294099Y401357D01*
Y403277D01*
X1293364Y405051D01*
X1292007Y406409D01*
X1290233Y407144D01*
D02*
G37*
G36*
X327015Y416424D02*
X324241D01*
X321563Y415706D01*
X319161Y414320D01*
X317200Y412359D01*
X315814Y409957D01*
X315096Y407279D01*
Y404505D01*
X315814Y401827D01*
X317200Y399425D01*
X319161Y397464D01*
X321563Y396078D01*
X324241Y395360D01*
X327015D01*
X329693Y396078D01*
X332095Y397464D01*
X334056Y399425D01*
X335442Y401827D01*
X336160Y404505D01*
Y407279D01*
X335442Y409957D01*
X334056Y412359D01*
X332095Y414320D01*
X329693Y415706D01*
X327015Y416424D01*
D02*
G37*
G36*
X55658Y412224D02*
X53738D01*
X51964Y411489D01*
X50606Y410131D01*
X49872Y408357D01*
Y406437D01*
X50528Y404853D01*
X50531Y404483D01*
X50077Y403397D01*
X48765Y402853D01*
X47408Y401496D01*
X46673Y399722D01*
Y397802D01*
X47408Y396028D01*
X48765Y394671D01*
X50539Y393936D01*
X52459D01*
X54233Y394671D01*
X55590Y396028D01*
X56325Y397802D01*
Y399722D01*
X55669Y401306D01*
X55666Y401676D01*
X56119Y402763D01*
X57431Y403306D01*
X58789Y404664D01*
X59524Y406437D01*
Y408357D01*
X58789Y410131D01*
X57431Y411489D01*
X55658Y412224D01*
D02*
G37*
G36*
X674850Y400793D02*
X672931D01*
X671157Y400059D01*
X669799Y398701D01*
X669064Y396927D01*
Y395008D01*
X669799Y393234D01*
X671157Y391876D01*
X672931Y391142D01*
X674850D01*
X676624Y391876D01*
X677982Y393234D01*
X678716Y395008D01*
Y396927D01*
X677982Y398701D01*
X676624Y400059D01*
X674850Y400793D01*
D02*
G37*
G36*
X357634Y408414D02*
X355714D01*
X353940Y407679D01*
X352583Y406321D01*
X351848Y404547D01*
Y402627D01*
X352583Y400854D01*
X353940Y399496D01*
X355102Y399015D01*
X355128Y398298D01*
X354976Y397693D01*
X353374Y397029D01*
X352017Y395672D01*
X351282Y393898D01*
Y391978D01*
X352017Y390204D01*
X353374Y388847D01*
X355148Y388112D01*
X357068D01*
X358842Y388847D01*
X360199Y390204D01*
X360934Y391978D01*
Y393898D01*
X360199Y395672D01*
X358842Y397029D01*
X357680Y397510D01*
X357654Y398227D01*
X357806Y398833D01*
X359408Y399496D01*
X360765Y400854D01*
X361500Y402627D01*
Y404547D01*
X360765Y406321D01*
X359408Y407679D01*
X357634Y408414D01*
D02*
G37*
G36*
X49722Y392758D02*
X47802D01*
X46028Y392024D01*
X44671Y390666D01*
X43936Y388892D01*
Y386972D01*
X44671Y385199D01*
X46028Y383841D01*
X47802Y383106D01*
X49722D01*
X51496Y383841D01*
X52853Y385199D01*
X53588Y386972D01*
Y388892D01*
X52853Y390666D01*
X51496Y392024D01*
X49722Y392758D01*
D02*
G37*
G36*
X252674Y392430D02*
X250754D01*
X248980Y391695D01*
X247623Y390338D01*
X246888Y388564D01*
Y386644D01*
X247623Y384870D01*
X248980Y383513D01*
X250754Y382778D01*
X252674D01*
X254448Y383513D01*
X255805Y384870D01*
X256540Y386644D01*
Y388564D01*
X255805Y390338D01*
X254448Y391695D01*
X252674Y392430D01*
D02*
G37*
G36*
X218130Y392176D02*
X216210D01*
X214436Y391441D01*
X213079Y390084D01*
X212344Y388310D01*
Y386390D01*
X213079Y384616D01*
X214436Y383259D01*
X216210Y382524D01*
X218130D01*
X219904Y383259D01*
X221261Y384616D01*
X221996Y386390D01*
Y388310D01*
X221261Y390084D01*
X219904Y391441D01*
X218130Y392176D01*
D02*
G37*
G36*
X520390Y388366D02*
X518470D01*
X516696Y387631D01*
X515339Y386274D01*
X514604Y384500D01*
Y382580D01*
X515339Y380806D01*
X516696Y379449D01*
X518470Y378714D01*
X520390D01*
X522164Y379449D01*
X523521Y380806D01*
X524256Y382580D01*
Y384500D01*
X523521Y386274D01*
X522164Y387631D01*
X520390Y388366D01*
D02*
G37*
G36*
X554680Y388112D02*
X552760D01*
X550986Y387377D01*
X549629Y386020D01*
X548894Y384246D01*
Y382326D01*
X549629Y380552D01*
X550986Y379195D01*
X552760Y378460D01*
X554680D01*
X556454Y379195D01*
X557811Y380552D01*
X558546Y382326D01*
Y384246D01*
X557811Y386020D01*
X556454Y387377D01*
X554680Y388112D01*
D02*
G37*
G36*
X1151860Y387774D02*
X1149940D01*
X1148166Y387039D01*
X1146809Y385681D01*
X1146074Y383908D01*
Y381988D01*
X1146809Y380214D01*
X1148166Y378857D01*
X1149940Y378122D01*
X1151860D01*
X1153634Y378857D01*
X1154991Y380214D01*
X1155726Y381988D01*
Y383908D01*
X1154991Y385681D01*
X1153634Y387039D01*
X1151860Y387774D01*
D02*
G37*
G36*
X1185616Y387604D02*
X1183696D01*
X1181922Y386869D01*
X1180565Y385512D01*
X1179830Y383738D01*
Y381818D01*
X1180565Y380044D01*
X1181922Y378687D01*
X1183696Y377952D01*
X1185616D01*
X1187390Y378687D01*
X1188747Y380044D01*
X1189482Y381818D01*
Y383738D01*
X1188747Y385512D01*
X1187390Y386869D01*
X1185616Y387604D01*
D02*
G37*
G36*
X1455110Y387096D02*
X1453190D01*
X1451416Y386361D01*
X1450059Y385004D01*
X1449324Y383230D01*
Y381310D01*
X1450059Y379536D01*
X1451416Y378179D01*
X1453190Y377444D01*
X1455110D01*
X1456884Y378179D01*
X1458241Y379536D01*
X1458976Y381310D01*
Y383230D01*
X1458241Y385004D01*
X1456884Y386361D01*
X1455110Y387096D01*
D02*
G37*
G36*
X977844Y386842D02*
X975924D01*
X974150Y386107D01*
X972793Y384750D01*
X972058Y382976D01*
Y381056D01*
X972793Y379282D01*
X974150Y377925D01*
X975924Y377190D01*
X977844D01*
X979618Y377925D01*
X980975Y379282D01*
X981710Y381056D01*
Y382976D01*
X980975Y384750D01*
X979618Y386107D01*
X977844Y386842D01*
D02*
G37*
G36*
X1487513Y386764D02*
X1485593D01*
X1483819Y386029D01*
X1482462Y384672D01*
X1481727Y382898D01*
Y380978D01*
X1482462Y379204D01*
X1483819Y377846D01*
X1485593Y377112D01*
X1487513D01*
X1489286Y377846D01*
X1490644Y379204D01*
X1491379Y380978D01*
Y382898D01*
X1490644Y384672D01*
X1489286Y386029D01*
X1487513Y386764D01*
D02*
G37*
G36*
X1280358Y393700D02*
X1278438D01*
X1276664Y392965D01*
X1275307Y391608D01*
X1274572Y389834D01*
Y387914D01*
X1275307Y386140D01*
X1276664Y384783D01*
X1278004Y384228D01*
X1278034Y384031D01*
X1277878Y382905D01*
X1276410Y382297D01*
X1275053Y380940D01*
X1274318Y379166D01*
Y377246D01*
X1275053Y375472D01*
X1276410Y374115D01*
X1278184Y373380D01*
X1280104D01*
X1281878Y374115D01*
X1283235Y375472D01*
X1283970Y377246D01*
Y379166D01*
X1283235Y380940D01*
X1281878Y382297D01*
X1280538Y382852D01*
X1280508Y383049D01*
X1280664Y384175D01*
X1282132Y384783D01*
X1283489Y386140D01*
X1284224Y387914D01*
Y389834D01*
X1283489Y391608D01*
X1282132Y392965D01*
X1280358Y393700D01*
D02*
G37*
G36*
X664154Y382524D02*
X662234D01*
X660460Y381789D01*
X659103Y380432D01*
X658368Y378658D01*
Y376738D01*
X659103Y374964D01*
X660460Y373607D01*
X662234Y372872D01*
X664154D01*
X665928Y373607D01*
X667285Y374964D01*
X668020Y376738D01*
Y378658D01*
X667285Y380432D01*
X665928Y381789D01*
X664154Y382524D01*
D02*
G37*
G36*
X835350Y380770D02*
X833430D01*
X831656Y380035D01*
X830299Y378677D01*
X829564Y376904D01*
Y374984D01*
X830299Y373210D01*
X831656Y371852D01*
X833430Y371118D01*
X835350D01*
X837124Y371852D01*
X838481Y373210D01*
X839216Y374984D01*
Y376904D01*
X838481Y378677D01*
X837124Y380035D01*
X835350Y380770D01*
D02*
G37*
G36*
X869894Y380238D02*
X867974D01*
X866200Y379503D01*
X864843Y378146D01*
X864108Y376372D01*
Y374452D01*
X864843Y372678D01*
X866200Y371321D01*
X867974Y370586D01*
X869894D01*
X871668Y371321D01*
X873025Y372678D01*
X873760Y374452D01*
Y376372D01*
X873025Y378146D01*
X871668Y379503D01*
X869894Y380238D01*
D02*
G37*
G36*
X978098Y375920D02*
X976178D01*
X974404Y375185D01*
X973047Y373828D01*
X972312Y372054D01*
Y370134D01*
X973047Y368360D01*
X974404Y367003D01*
X976178Y366268D01*
X978098D01*
X979872Y367003D01*
X981229Y368360D01*
X981964Y370134D01*
Y372054D01*
X981229Y373828D01*
X979872Y375185D01*
X978098Y375920D01*
D02*
G37*
G36*
X60396Y373126D02*
X58476D01*
X56702Y372391D01*
X55345Y371034D01*
X54610Y369260D01*
Y367340D01*
X55345Y365566D01*
X56702Y364209D01*
X58476Y363474D01*
X60396D01*
X62170Y364209D01*
X63527Y365566D01*
X64262Y367340D01*
Y369260D01*
X63527Y371034D01*
X62170Y372391D01*
X60396Y373126D01*
D02*
G37*
G36*
X664154Y370840D02*
X662234D01*
X660460Y370105D01*
X659103Y368748D01*
X658368Y366974D01*
Y365054D01*
X659103Y363280D01*
X660460Y361923D01*
X662234Y361188D01*
X664154D01*
X665928Y361923D01*
X667285Y363280D01*
X668020Y365054D01*
Y366974D01*
X667285Y368748D01*
X665928Y370105D01*
X664154Y370840D01*
D02*
G37*
G36*
X1290264Y368808D02*
X1288344D01*
X1286570Y368073D01*
X1285213Y366716D01*
X1284478Y364942D01*
Y363022D01*
X1285213Y361248D01*
X1286570Y359891D01*
X1288344Y359156D01*
X1290264D01*
X1292038Y359891D01*
X1293395Y361248D01*
X1294130Y363022D01*
Y364942D01*
X1293395Y366716D01*
X1292038Y368073D01*
X1290264Y368808D01*
D02*
G37*
G36*
X359724Y366059D02*
X357804D01*
X356030Y365324D01*
X354673Y363966D01*
X353938Y362192D01*
Y360273D01*
X354673Y358499D01*
X356030Y357141D01*
X357804Y356407D01*
X359724D01*
X361498Y357141D01*
X362855Y358499D01*
X363590Y360273D01*
Y362192D01*
X362855Y363966D01*
X361498Y365324D01*
X359724Y366059D01*
D02*
G37*
G36*
X978448Y362870D02*
X976528D01*
X974754Y362135D01*
X973397Y360778D01*
X972662Y359004D01*
Y357084D01*
X973397Y355310D01*
X974754Y353953D01*
X976528Y353218D01*
X978448D01*
X980222Y353953D01*
X981579Y355310D01*
X982314Y357084D01*
Y359004D01*
X981579Y360778D01*
X980222Y362135D01*
X978448Y362870D01*
D02*
G37*
G36*
X62174Y361696D02*
X60254D01*
X58480Y360961D01*
X57123Y359604D01*
X56388Y357830D01*
Y355910D01*
X57123Y354136D01*
X58480Y352779D01*
X60254Y352044D01*
X62174D01*
X63948Y352779D01*
X65305Y354136D01*
X66040Y355910D01*
Y357830D01*
X65305Y359604D01*
X63948Y360961D01*
X62174Y361696D01*
D02*
G37*
G36*
X682188Y358902D02*
X680268D01*
X678494Y358167D01*
X677137Y356810D01*
X676402Y355036D01*
Y353116D01*
X677137Y351342D01*
X678494Y349985D01*
X680268Y349250D01*
X682188D01*
X683962Y349985D01*
X685319Y351342D01*
X686054Y353116D01*
Y355036D01*
X685319Y356810D01*
X683962Y358167D01*
X682188Y358902D01*
D02*
G37*
G36*
X1292804Y357378D02*
X1290884D01*
X1289110Y356643D01*
X1287753Y355286D01*
X1287018Y353512D01*
Y351592D01*
X1287753Y349818D01*
X1289110Y348461D01*
X1290884Y347726D01*
X1292804D01*
X1294578Y348461D01*
X1295935Y349818D01*
X1296670Y351592D01*
Y353512D01*
X1295935Y355286D01*
X1294578Y356643D01*
X1292804Y357378D01*
D02*
G37*
G36*
X363672Y352298D02*
X361752D01*
X359978Y351563D01*
X358621Y350206D01*
X357886Y348432D01*
Y346512D01*
X358621Y344738D01*
X359978Y343381D01*
X361752Y342646D01*
X363672D01*
X365446Y343381D01*
X366803Y344738D01*
X367538Y346512D01*
Y348432D01*
X366803Y350206D01*
X365446Y351563D01*
X363672Y352298D01*
D02*
G37*
G36*
X978606Y351536D02*
X976686D01*
X974912Y350801D01*
X973555Y349444D01*
X972820Y347670D01*
Y345750D01*
X973555Y343976D01*
X974912Y342619D01*
X976686Y341884D01*
X978606D01*
X980380Y342619D01*
X981737Y343976D01*
X982472Y345750D01*
Y347670D01*
X981737Y349444D01*
X980380Y350801D01*
X978606Y351536D01*
D02*
G37*
G36*
X686252Y348488D02*
X684332D01*
X682558Y347753D01*
X681201Y346396D01*
X680466Y344622D01*
Y342702D01*
X681201Y340928D01*
X682558Y339571D01*
X684332Y338836D01*
X686252D01*
X688026Y339571D01*
X689383Y340928D01*
X690118Y342702D01*
Y344622D01*
X689383Y346396D01*
X688026Y347753D01*
X686252Y348488D01*
D02*
G37*
G36*
X1545443Y366322D02*
X1541617D01*
X1537921Y365332D01*
X1534607Y363419D01*
X1531902Y360713D01*
X1529988Y357399D01*
X1528998Y353703D01*
Y349877D01*
X1529988Y346181D01*
X1531902Y342867D01*
X1534607Y340162D01*
X1537921Y338248D01*
X1541617Y337258D01*
X1545443D01*
X1549139Y338248D01*
X1552453Y340162D01*
X1555159Y342867D01*
X1557072Y346181D01*
X1558062Y349877D01*
Y353703D01*
X1557072Y357399D01*
X1555159Y360713D01*
X1552453Y363419D01*
X1549139Y365332D01*
X1545443Y366322D01*
D02*
G37*
G36*
X31913D02*
X28087D01*
X24391Y365332D01*
X21077Y363419D01*
X18371Y360713D01*
X16458Y357399D01*
X15468Y353703D01*
Y349877D01*
X16458Y346181D01*
X18371Y342867D01*
X21077Y340162D01*
X24391Y338248D01*
X28087Y337258D01*
X31913D01*
X35609Y338248D01*
X38923Y340162D01*
X41628Y342867D01*
X43542Y346181D01*
X44532Y349877D01*
Y353703D01*
X43542Y357399D01*
X41628Y360713D01*
X38923Y363419D01*
X35609Y365332D01*
X31913Y366322D01*
D02*
G37*
G36*
X1435997Y337347D02*
X1434077D01*
X1432303Y336613D01*
X1430945Y335255D01*
X1430211Y333481D01*
Y331561D01*
X1430945Y329788D01*
X1432303Y328430D01*
X1434077Y327695D01*
X1435997D01*
X1437770Y328430D01*
X1439128Y329788D01*
X1439863Y331561D01*
Y333481D01*
X1439128Y335255D01*
X1437770Y336613D01*
X1435997Y337347D01*
D02*
G37*
G36*
X1447744Y336804D02*
X1445824D01*
X1444050Y336069D01*
X1442693Y334712D01*
X1441958Y332938D01*
Y331018D01*
X1442693Y329244D01*
X1444050Y327887D01*
X1445824Y327152D01*
X1447744D01*
X1449518Y327887D01*
X1450875Y329244D01*
X1451610Y331018D01*
Y332938D01*
X1450875Y334712D01*
X1449518Y336069D01*
X1447744Y336804D01*
D02*
G37*
G36*
X472130Y326644D02*
X470210D01*
X468436Y325909D01*
X467842Y325316D01*
X467040Y324585D01*
X466183Y325316D01*
X465617Y325882D01*
X463843Y326617D01*
X461923D01*
X460149Y325882D01*
X458792Y324524D01*
X458057Y322751D01*
Y320831D01*
X458792Y319057D01*
X460149Y317699D01*
X461923Y316965D01*
X463843D01*
X465617Y317699D01*
X466211Y318293D01*
X467013Y319024D01*
X467870Y318293D01*
X468436Y317727D01*
X470210Y316992D01*
X472130D01*
X473904Y317727D01*
X475261Y319084D01*
X475584Y319864D01*
X475588Y319865D01*
X476907Y319737D01*
X477493Y318322D01*
X478850Y316965D01*
X480624Y316230D01*
X482544D01*
X484318Y316965D01*
X484506Y317153D01*
X485776Y316669D01*
X486511Y314895D01*
X487869Y313537D01*
X489643Y312803D01*
X491562D01*
X493336Y313537D01*
X494694Y314895D01*
X495429Y316669D01*
Y318589D01*
X494694Y320362D01*
X493336Y321720D01*
X491562Y322454D01*
X489643D01*
X487869Y321720D01*
X487680Y321531D01*
X486410Y322016D01*
X485675Y323790D01*
X484318Y325147D01*
X482544Y325882D01*
X480624D01*
X478850Y325147D01*
X477493Y323790D01*
X477170Y323010D01*
X477166Y323009D01*
X475848Y323136D01*
X475261Y324552D01*
X473904Y325909D01*
X472130Y326644D01*
D02*
G37*
G36*
X236926Y332994D02*
X235006D01*
X233232Y332259D01*
X231875Y330902D01*
X231140Y329128D01*
Y327208D01*
X231875Y325434D01*
X233232Y324077D01*
X235006Y323342D01*
X236926D01*
X238700Y324077D01*
X240057Y325434D01*
X240792Y327208D01*
Y329128D01*
X240057Y330902D01*
X238700Y332259D01*
X236926Y332994D01*
D02*
G37*
G36*
X1507688Y332486D02*
X1505768D01*
X1503994Y331751D01*
X1502637Y330394D01*
X1501902Y328620D01*
Y326700D01*
X1502637Y324926D01*
X1503994Y323569D01*
X1505768Y322834D01*
X1507688D01*
X1509462Y323569D01*
X1510819Y324926D01*
X1511554Y326700D01*
Y328620D01*
X1510819Y330394D01*
X1509462Y331751D01*
X1507688Y332486D01*
D02*
G37*
G36*
X552648D02*
X550728D01*
X548954Y331751D01*
X547597Y330394D01*
X546862Y328620D01*
Y326700D01*
X547597Y324926D01*
X548954Y323569D01*
X550728Y322834D01*
X552648D01*
X554422Y323569D01*
X555779Y324926D01*
X556514Y326700D01*
Y328620D01*
X555779Y330394D01*
X554422Y331751D01*
X552648Y332486D01*
D02*
G37*
G36*
X177512Y327086D02*
X175593D01*
X173819Y326352D01*
X172461Y324994D01*
X171726Y323220D01*
Y322701D01*
X169993D01*
X169260Y322398D01*
X168683Y323790D01*
X167326Y325147D01*
X165552Y325882D01*
X163632D01*
X161858Y325147D01*
X160501Y323790D01*
X159131Y323802D01*
X159031Y324044D01*
X157674Y325401D01*
X155900Y326136D01*
X153980D01*
X152206Y325401D01*
X150849Y324044D01*
X150547Y323316D01*
X149173D01*
X148871Y324044D01*
X147514Y325401D01*
X145740Y326136D01*
X143820D01*
X142046Y325401D01*
X140689Y324044D01*
X139954Y322270D01*
Y320350D01*
X140689Y318576D01*
X142046Y317219D01*
X143820Y316484D01*
X145740D01*
X147514Y317219D01*
X148871Y318576D01*
X149173Y319304D01*
X150547D01*
X150849Y318576D01*
X152206Y317219D01*
X153980Y316484D01*
X155900D01*
X157674Y317219D01*
X159031Y318576D01*
X160401Y318564D01*
X160501Y318322D01*
X161858Y316965D01*
X163632Y316230D01*
X165552D01*
X166285Y316534D01*
X166862Y315142D01*
X168220Y313784D01*
X169993Y313049D01*
X171913D01*
X173687Y313784D01*
X175044Y315142D01*
X175779Y316915D01*
Y317434D01*
X177512D01*
X179286Y318169D01*
X180644Y319527D01*
X181378Y321300D01*
Y323220D01*
X180644Y324994D01*
X179286Y326352D01*
X177512Y327086D01*
D02*
G37*
G36*
X799257Y324294D02*
X797337D01*
X795564Y323559D01*
X794206Y322201D01*
X794143Y322049D01*
X792897Y321801D01*
X792766Y321933D01*
X790992Y322668D01*
X789072D01*
X787299Y321933D01*
X785941Y320575D01*
X785206Y318802D01*
Y316882D01*
X785941Y315108D01*
X787299Y313750D01*
X789072Y313016D01*
X790992D01*
X792766Y313750D01*
X794123Y315108D01*
X794186Y315260D01*
X795432Y315508D01*
X795564Y315376D01*
X797337Y314642D01*
X799257D01*
X801031Y315376D01*
X802389Y316734D01*
X802462Y316910D01*
X802580Y316931D01*
X803784Y316784D01*
X804383Y315337D01*
X805741Y313980D01*
X807515Y313245D01*
X809435D01*
X811208Y313980D01*
X812031Y314802D01*
X813006Y313827D01*
X814780Y313092D01*
X816700D01*
X818473Y313827D01*
X819831Y315184D01*
X820566Y316958D01*
Y318878D01*
X819831Y320652D01*
X818473Y322009D01*
X816700Y322744D01*
X814780D01*
X813006Y322009D01*
X812184Y321187D01*
X811208Y322162D01*
X809435Y322897D01*
X807515D01*
X805741Y322162D01*
X804383Y320805D01*
X804310Y320628D01*
X804192Y320608D01*
X802988Y320755D01*
X802389Y322201D01*
X801031Y323559D01*
X799257Y324294D01*
D02*
G37*
G36*
X1189934Y331216D02*
X1188014D01*
X1186240Y330481D01*
X1184883Y329124D01*
X1184148Y327350D01*
Y325430D01*
X1184883Y323656D01*
X1186240Y322299D01*
X1188014Y321564D01*
X1189934D01*
X1191708Y322299D01*
X1193065Y323656D01*
X1193800Y325430D01*
Y327350D01*
X1193065Y329124D01*
X1191708Y330481D01*
X1189934Y331216D01*
D02*
G37*
G36*
X132786Y324104D02*
X130866D01*
X129092Y323369D01*
X127735Y322012D01*
X127608Y321707D01*
X126614Y321509D01*
X126178Y321571D01*
X124529Y322254D01*
X122609D01*
X120835Y321520D01*
X119477Y320162D01*
X118743Y318388D01*
Y316468D01*
X119477Y314695D01*
X120835Y313337D01*
X122609Y312602D01*
X124529D01*
X126302Y313337D01*
X127660Y314695D01*
X127786Y314999D01*
X128780Y315197D01*
X129217Y315135D01*
X130866Y314452D01*
X132786D01*
X134560Y315187D01*
X135917Y316544D01*
X136652Y318318D01*
Y320238D01*
X135917Y322012D01*
X134560Y323369D01*
X132786Y324104D01*
D02*
G37*
G36*
X871926Y330454D02*
X870006D01*
X868232Y329719D01*
X866875Y328362D01*
X866140Y326588D01*
Y324668D01*
X866875Y322894D01*
X868232Y321537D01*
X870006Y320802D01*
X871926D01*
X873700Y321537D01*
X875057Y322894D01*
X875792Y324668D01*
Y326588D01*
X875057Y328362D01*
X873700Y329719D01*
X871926Y330454D01*
D02*
G37*
G36*
X1047948Y326898D02*
X1046028D01*
X1044254Y326163D01*
X1042897Y324806D01*
X1042162Y323032D01*
Y321112D01*
X1042897Y319338D01*
X1044254Y317981D01*
X1046028Y317246D01*
X1047948D01*
X1049722Y317981D01*
X1051079Y319338D01*
X1051814Y321112D01*
Y323032D01*
X1051079Y324806D01*
X1049722Y326163D01*
X1047948Y326898D01*
D02*
G37*
G36*
X452667Y326803D02*
X450747D01*
X448973Y326068D01*
X447616Y324711D01*
X446881Y322937D01*
Y321017D01*
X447616Y319243D01*
X448973Y317886D01*
X450747Y317151D01*
X452667D01*
X454441Y317886D01*
X455798Y319243D01*
X456533Y321017D01*
Y322937D01*
X455798Y324711D01*
X454441Y326068D01*
X452667Y326803D01*
D02*
G37*
G36*
X1403548Y326644D02*
X1401628D01*
X1399854Y325909D01*
X1398497Y324552D01*
X1397762Y322778D01*
Y320858D01*
X1398497Y319084D01*
X1399854Y317727D01*
X1401628Y316992D01*
X1403548D01*
X1405322Y317727D01*
X1406679Y319084D01*
X1407414Y320858D01*
Y322778D01*
X1406679Y324552D01*
X1405322Y325909D01*
X1403548Y326644D01*
D02*
G37*
G36*
X93924D02*
X92004D01*
X90230Y325909D01*
X88873Y324552D01*
X88138Y322778D01*
Y320858D01*
X88873Y319084D01*
X90230Y317727D01*
X92004Y316992D01*
X93924D01*
X95698Y317727D01*
X97055Y319084D01*
X97790Y320858D01*
Y322778D01*
X97055Y324552D01*
X95698Y325909D01*
X93924Y326644D01*
D02*
G37*
G36*
X1479590Y326476D02*
X1477670D01*
X1475896Y325742D01*
X1474539Y324384D01*
X1473804Y322610D01*
Y320690D01*
X1474539Y318916D01*
X1475896Y317559D01*
X1477670Y316824D01*
X1479590D01*
X1481364Y317559D01*
X1482721Y318916D01*
X1483456Y320690D01*
Y322610D01*
X1482721Y324384D01*
X1481364Y325742D01*
X1479590Y326476D01*
D02*
G37*
G36*
X1161740D02*
X1159820D01*
X1158046Y325742D01*
X1156689Y324384D01*
X1155954Y322610D01*
Y320690D01*
X1156689Y318916D01*
X1158046Y317559D01*
X1159820Y316824D01*
X1161740D01*
X1163514Y317559D01*
X1164871Y318916D01*
X1165606Y320690D01*
Y322610D01*
X1164871Y324384D01*
X1163514Y325742D01*
X1161740Y326476D01*
D02*
G37*
G36*
X842970D02*
X841050D01*
X839276Y325742D01*
X837919Y324384D01*
X837184Y322610D01*
Y320690D01*
X837919Y318916D01*
X839276Y317559D01*
X841050Y316824D01*
X842970D01*
X844744Y317559D01*
X846101Y318916D01*
X846836Y320690D01*
Y322610D01*
X846101Y324384D01*
X844744Y325742D01*
X842970Y326476D01*
D02*
G37*
G36*
X524733D02*
X522813D01*
X521039Y325742D01*
X519681Y324384D01*
X518946Y322610D01*
Y320690D01*
X519681Y318916D01*
X521039Y317559D01*
X522813Y316824D01*
X524733D01*
X526506Y317559D01*
X527864Y318916D01*
X528599Y320690D01*
Y322610D01*
X527864Y324384D01*
X526506Y325742D01*
X524733Y326476D01*
D02*
G37*
G36*
X207970D02*
X206050D01*
X204276Y325742D01*
X202919Y324384D01*
X202184Y322610D01*
Y320690D01*
X202919Y318916D01*
X204276Y317559D01*
X206050Y316824D01*
X207970D01*
X209744Y317559D01*
X211101Y318916D01*
X211836Y320690D01*
Y322610D01*
X211101Y324384D01*
X209744Y325742D01*
X207970Y326476D01*
D02*
G37*
G36*
X410154Y326136D02*
X408234D01*
X406460Y325401D01*
X405103Y324044D01*
X404368Y322270D01*
Y320350D01*
X405103Y318576D01*
X406460Y317219D01*
X408234Y316484D01*
X410154D01*
X411928Y317219D01*
X413285Y318576D01*
X414020Y320350D01*
Y322270D01*
X413285Y324044D01*
X411928Y325401D01*
X410154Y326136D01*
D02*
G37*
G36*
X1524706Y325120D02*
X1522786D01*
X1521012Y324385D01*
X1519655Y323028D01*
X1518920Y321254D01*
Y319334D01*
X1519655Y317560D01*
X1521012Y316203D01*
X1522786Y315468D01*
X1524706D01*
X1526480Y316203D01*
X1527837Y317560D01*
X1528572Y319334D01*
Y321254D01*
X1527837Y323028D01*
X1526480Y324385D01*
X1524706Y325120D01*
D02*
G37*
G36*
X569158D02*
X567238D01*
X565464Y324385D01*
X564107Y323028D01*
X563372Y321254D01*
Y319334D01*
X564107Y317560D01*
X565464Y316203D01*
X567238Y315468D01*
X569158D01*
X570932Y316203D01*
X572289Y317560D01*
X573024Y319334D01*
Y321254D01*
X572289Y323028D01*
X570932Y324385D01*
X569158Y325120D01*
D02*
G37*
G36*
X252928Y324866D02*
X251008D01*
X249234Y324131D01*
X247877Y322774D01*
X247142Y321000D01*
Y319080D01*
X247877Y317306D01*
X249234Y315949D01*
X251008Y315214D01*
X252928D01*
X254702Y315949D01*
X256059Y317306D01*
X256794Y319080D01*
Y321000D01*
X256059Y322774D01*
X254702Y324131D01*
X252928Y324866D01*
D02*
G37*
G36*
X887928Y324612D02*
X886008D01*
X884234Y323877D01*
X882877Y322520D01*
X882142Y320746D01*
Y318826D01*
X882877Y317052D01*
X884234Y315695D01*
X886008Y314960D01*
X887928D01*
X889702Y315695D01*
X891059Y317052D01*
X891794Y318826D01*
Y320746D01*
X891059Y322520D01*
X889702Y323877D01*
X887928Y324612D01*
D02*
G37*
G36*
X1082238Y324358D02*
X1080318D01*
X1078544Y323623D01*
X1077187Y322266D01*
X1076452Y320492D01*
Y318572D01*
X1077187Y316798D01*
X1078544Y315441D01*
X1080318Y314706D01*
X1082238D01*
X1084012Y315441D01*
X1085369Y316798D01*
X1086104Y318572D01*
Y320492D01*
X1085369Y322266D01*
X1084012Y323623D01*
X1082238Y324358D01*
D02*
G37*
G36*
X761690Y324104D02*
X759770D01*
X757996Y323369D01*
X756639Y322012D01*
X755904Y320238D01*
Y318318D01*
X756639Y316544D01*
X757996Y315187D01*
X759770Y314452D01*
X761690D01*
X763464Y315187D01*
X764821Y316544D01*
X765556Y318318D01*
Y320238D01*
X764821Y322012D01*
X763464Y323369D01*
X761690Y324104D01*
D02*
G37*
G36*
X1206952Y323850D02*
X1205032D01*
X1203258Y323115D01*
X1201901Y321758D01*
X1201166Y319984D01*
Y318064D01*
X1201901Y316290D01*
X1203258Y314933D01*
X1205032Y314198D01*
X1206952D01*
X1208726Y314933D01*
X1210083Y316290D01*
X1210818Y318064D01*
Y319984D01*
X1210083Y321758D01*
X1208726Y323115D01*
X1206952Y323850D01*
D02*
G37*
G36*
X1362400Y323342D02*
X1360480D01*
X1358706Y322607D01*
X1357349Y321250D01*
X1356614Y319476D01*
Y317556D01*
X1357349Y315782D01*
X1358706Y314425D01*
X1360480Y313690D01*
X1362400D01*
X1364174Y314425D01*
X1365531Y315782D01*
X1366266Y317556D01*
Y319476D01*
X1365531Y321250D01*
X1364174Y322607D01*
X1362400Y323342D01*
D02*
G37*
G36*
X442412Y322834D02*
X440492D01*
X438718Y322099D01*
X437361Y320742D01*
X436626Y318968D01*
Y317048D01*
X437361Y315274D01*
X438718Y313917D01*
X440492Y313182D01*
X442412D01*
X444186Y313917D01*
X445543Y315274D01*
X446278Y317048D01*
Y318968D01*
X445543Y320742D01*
X444186Y322099D01*
X442412Y322834D01*
D02*
G37*
G36*
X776168Y322744D02*
X774248D01*
X772474Y322009D01*
X771117Y320652D01*
X770382Y318878D01*
Y316958D01*
X771117Y315184D01*
X772474Y313827D01*
X774248Y313092D01*
X776168D01*
X777942Y313827D01*
X779299Y315184D01*
X780034Y316958D01*
Y318878D01*
X779299Y320652D01*
X777942Y322009D01*
X776168Y322744D01*
D02*
G37*
G36*
X1123208Y321918D02*
X1121289D01*
X1119515Y321183D01*
X1118157Y319826D01*
X1117422Y318052D01*
Y316132D01*
X1118157Y314358D01*
X1119515Y313001D01*
X1121289Y312266D01*
X1123208D01*
X1124982Y313001D01*
X1126340Y314358D01*
X1127075Y316132D01*
Y318052D01*
X1126340Y319826D01*
X1124982Y321183D01*
X1123208Y321918D01*
D02*
G37*
G36*
X1446931Y321327D02*
X1445011D01*
X1443237Y320592D01*
X1441879Y319235D01*
X1441145Y317461D01*
Y315541D01*
X1441879Y313767D01*
X1443237Y312410D01*
X1445011Y311675D01*
X1446931D01*
X1448704Y312410D01*
X1450062Y313767D01*
X1450797Y315541D01*
Y317461D01*
X1450062Y319235D01*
X1448704Y320592D01*
X1446931Y321327D01*
D02*
G37*
%LPD*%
G36*
X506954Y432816D02*
Y350012D01*
X492476Y335534D01*
X392400D01*
X377414Y350520D01*
Y424980D01*
X382105Y429671D01*
X383375Y429145D01*
Y428700D01*
X384110Y426926D01*
X385467Y425569D01*
X387241Y424834D01*
X389161D01*
X390935Y425569D01*
X392292Y426926D01*
X393027Y428700D01*
Y430620D01*
X392292Y432394D01*
X390935Y433751D01*
X389513Y434340D01*
X389766Y435610D01*
X411196D01*
X417800Y442214D01*
Y446826D01*
X418835Y447517D01*
X419793Y447144D01*
X420270Y445871D01*
X420036Y445308D01*
Y443388D01*
X420771Y441614D01*
X422128Y440256D01*
X423902Y439522D01*
X425822D01*
X427596Y440256D01*
X428953Y441614D01*
X429688Y443388D01*
Y445308D01*
X428953Y447081D01*
X427596Y448439D01*
X425822Y449174D01*
X425478Y450444D01*
X425775Y451160D01*
Y453080D01*
X425040Y454854D01*
X424057Y455837D01*
X425166Y456946D01*
X482824D01*
X506954Y432816D01*
D02*
G37*
%LPC*%
G36*
X455823Y449174D02*
X453903D01*
X452130Y448439D01*
X450772Y447081D01*
X450037Y445308D01*
Y443388D01*
X450772Y441614D01*
X452130Y440256D01*
X453903Y439522D01*
X455823D01*
X457597Y440256D01*
X458955Y441614D01*
X459689Y443388D01*
Y445308D01*
X458955Y447081D01*
X457597Y448439D01*
X455823Y449174D01*
D02*
G37*
G36*
X471622Y449072D02*
X469702D01*
X467928Y448337D01*
X466571Y446980D01*
X465836Y445206D01*
Y443286D01*
X466571Y441512D01*
X467928Y440155D01*
X469702Y439420D01*
X471622D01*
X473396Y440155D01*
X474753Y441512D01*
X475488Y443286D01*
Y445206D01*
X474753Y446980D01*
X473396Y448337D01*
X471622Y449072D01*
D02*
G37*
G36*
X492789Y438249D02*
X490869D01*
X489095Y437514D01*
X487737Y436156D01*
X487002Y434383D01*
Y432463D01*
X487737Y430689D01*
X489095Y429331D01*
X490869Y428597D01*
X492789D01*
X494562Y429331D01*
X495920Y430689D01*
X496655Y432463D01*
Y434383D01*
X495920Y436156D01*
X494562Y437514D01*
X492789Y438249D01*
D02*
G37*
G36*
X481522Y426047D02*
X479602D01*
X477828Y425312D01*
X476471Y423955D01*
X475736Y422181D01*
Y420261D01*
X476471Y418487D01*
X477828Y417130D01*
X479602Y416395D01*
X481522D01*
X483296Y417130D01*
X484653Y418487D01*
X485388Y420261D01*
Y422181D01*
X484653Y423955D01*
X483296Y425312D01*
X481522Y426047D01*
D02*
G37*
G36*
X455823Y423443D02*
X453903D01*
X452130Y422709D01*
X450772Y421351D01*
X450037Y419577D01*
Y417657D01*
X450772Y415883D01*
X452130Y414526D01*
X453903Y413791D01*
X455823D01*
X457597Y414526D01*
X458955Y415883D01*
X459689Y417657D01*
Y419577D01*
X458955Y421351D01*
X457597Y422709D01*
X455823Y423443D01*
D02*
G37*
G36*
X420823D02*
X418903D01*
X417130Y422709D01*
X415772Y421351D01*
X415037Y419577D01*
Y417657D01*
X415772Y415883D01*
X417130Y414526D01*
X418903Y413791D01*
X420823D01*
X422597Y414526D01*
X423955Y415883D01*
X424689Y417657D01*
Y419577D01*
X423955Y421351D01*
X422597Y422709D01*
X420823Y423443D01*
D02*
G37*
G36*
X393770Y413414D02*
X391850D01*
X390076Y412679D01*
X388719Y411321D01*
X387984Y409547D01*
Y407628D01*
X388719Y405854D01*
X390076Y404496D01*
X391850Y403761D01*
X393770D01*
X395544Y404496D01*
X396902Y405854D01*
X397636Y407628D01*
Y409547D01*
X396902Y411321D01*
X395544Y412679D01*
X393770Y413414D01*
D02*
G37*
G36*
X438323Y405943D02*
X436403D01*
X434630Y405209D01*
X433272Y403851D01*
X432537Y402077D01*
Y400157D01*
X433272Y398383D01*
X434630Y397026D01*
X436403Y396291D01*
X438323D01*
X440097Y397026D01*
X441455Y398383D01*
X442189Y400157D01*
Y402077D01*
X441455Y403851D01*
X440097Y405209D01*
X438323Y405943D01*
D02*
G37*
G36*
X394649Y399796D02*
X392729D01*
X390956Y399061D01*
X389598Y397704D01*
X388863Y395930D01*
Y394010D01*
X389598Y392236D01*
X390956Y390879D01*
X392729Y390144D01*
X394649D01*
X396423Y390879D01*
X397781Y392236D01*
X398515Y394010D01*
Y395930D01*
X397781Y397704D01*
X396423Y399061D01*
X394649Y399796D01*
D02*
G37*
G36*
X482253Y408727D02*
X480333D01*
X478559Y407992D01*
X477202Y406634D01*
X476467Y404861D01*
Y402941D01*
X477202Y401167D01*
X478559Y399809D01*
X479593Y399381D01*
Y398007D01*
X479073Y397791D01*
X477715Y396434D01*
X476980Y394660D01*
Y392740D01*
X477715Y390966D01*
X479073Y389609D01*
X480846Y388874D01*
X482766D01*
X484540Y389609D01*
X485807Y390876D01*
X486521Y390924D01*
X487235Y390876D01*
X488502Y389609D01*
X489061Y389377D01*
Y388003D01*
X488502Y387771D01*
X487145Y386414D01*
X486888Y385793D01*
X485642Y385545D01*
X485334Y385853D01*
X483560Y386588D01*
X481640D01*
X479866Y385853D01*
X478509Y384496D01*
X477774Y382722D01*
Y380802D01*
X478509Y379028D01*
X479866Y377671D01*
X481640Y376936D01*
X483560D01*
X485334Y377671D01*
X486691Y379028D01*
X486949Y379649D01*
X488194Y379897D01*
X488502Y379589D01*
X490276Y378854D01*
X492196D01*
X493970Y379589D01*
X495327Y380946D01*
X496062Y382720D01*
Y384640D01*
X495327Y386414D01*
X493970Y387771D01*
X493411Y388003D01*
Y389377D01*
X493970Y389609D01*
X495327Y390966D01*
X496062Y392740D01*
Y394660D01*
X495327Y396434D01*
X493970Y397791D01*
X492196Y398526D01*
X490276D01*
X488502Y397791D01*
X487235Y396524D01*
X486521Y396476D01*
X485807Y396524D01*
X484540Y397791D01*
X483507Y398219D01*
Y399594D01*
X484027Y399809D01*
X485384Y401167D01*
X486119Y402941D01*
Y404861D01*
X485384Y406634D01*
X484027Y407992D01*
X482253Y408727D01*
D02*
G37*
G36*
X455823Y388396D02*
X453903D01*
X452130Y387661D01*
X450772Y386303D01*
X450037Y384530D01*
Y382610D01*
X450772Y380836D01*
X452130Y379478D01*
X453903Y378744D01*
X455823D01*
X457597Y379478D01*
X458955Y380836D01*
X459689Y382610D01*
Y384530D01*
X458955Y386303D01*
X457597Y387661D01*
X455823Y388396D01*
D02*
G37*
G36*
X420887Y386974D02*
X418967D01*
X417193Y386240D01*
X415836Y384882D01*
X415101Y383108D01*
Y381188D01*
X415836Y379415D01*
X417193Y378057D01*
X418967Y377322D01*
X420887D01*
X422661Y378057D01*
X424018Y379415D01*
X424753Y381188D01*
Y383108D01*
X424018Y384882D01*
X422661Y386240D01*
X420887Y386974D01*
D02*
G37*
G36*
X451302Y363220D02*
X449382D01*
X447608Y362485D01*
X446251Y361128D01*
X445516Y359354D01*
Y357434D01*
X446251Y355660D01*
X447608Y354303D01*
X449382Y353568D01*
X451302D01*
X453076Y354303D01*
X454433Y355660D01*
X455168Y357434D01*
Y359354D01*
X454433Y361128D01*
X453076Y362485D01*
X451302Y363220D01*
D02*
G37*
G36*
X394649Y388443D02*
X392729D01*
X390956Y387709D01*
X389598Y386351D01*
X388863Y384577D01*
Y382657D01*
X389598Y380883D01*
X390288Y380194D01*
X390669Y379119D01*
X390270Y378553D01*
X389355Y377638D01*
X388620Y375864D01*
Y373944D01*
X389355Y372170D01*
X389890Y371635D01*
X389921Y369870D01*
X389834Y369783D01*
X389099Y368009D01*
Y366089D01*
X389834Y364316D01*
X391192Y362958D01*
X392965Y362223D01*
X394885D01*
X396389Y362846D01*
X397109Y361770D01*
X396467Y361128D01*
X395732Y359354D01*
Y357434D01*
X396467Y355660D01*
X397824Y354303D01*
X399598Y353568D01*
X401518D01*
X403292Y354303D01*
X404649Y355660D01*
X405384Y357434D01*
Y359354D01*
X404649Y361128D01*
X403292Y362485D01*
X401518Y363220D01*
X399598D01*
X398094Y362597D01*
X397375Y363674D01*
X398017Y364316D01*
X398751Y366089D01*
Y368009D01*
X398017Y369783D01*
X397481Y370318D01*
X397450Y372083D01*
X397537Y372170D01*
X398272Y373944D01*
Y375864D01*
X397537Y377638D01*
X396848Y378327D01*
X396467Y379403D01*
X396866Y379969D01*
X397781Y380883D01*
X398515Y382657D01*
Y384577D01*
X397781Y386351D01*
X396423Y387709D01*
X394649Y388443D01*
D02*
G37*
G36*
X478480Y361950D02*
X476560D01*
X474786Y361215D01*
X473429Y359858D01*
X472694Y358084D01*
Y356164D01*
X473429Y354390D01*
X474786Y353033D01*
X476560Y352298D01*
X478480D01*
X480254Y353033D01*
X481611Y354390D01*
X482346Y356164D01*
Y358084D01*
X481611Y359858D01*
X480254Y361215D01*
X478480Y361950D01*
D02*
G37*
G36*
X467321Y361696D02*
X465401D01*
X463627Y360961D01*
X462270Y359604D01*
X461535Y357830D01*
Y355910D01*
X462270Y354136D01*
X463627Y352779D01*
X465401Y352044D01*
X467321D01*
X469095Y352779D01*
X470452Y354136D01*
X471187Y355910D01*
Y357830D01*
X470452Y359604D01*
X469095Y360961D01*
X467321Y361696D01*
D02*
G37*
G36*
X415831D02*
X413911D01*
X412137Y360961D01*
X410780Y359604D01*
X410045Y357830D01*
Y355910D01*
X410780Y354136D01*
X412137Y352779D01*
X413911Y352044D01*
X415831D01*
X417605Y352779D01*
X418962Y354136D01*
X419697Y355910D01*
Y357830D01*
X418962Y359604D01*
X417605Y360961D01*
X415831Y361696D01*
D02*
G37*
%LPD*%
G36*
X204978Y436626D02*
Y353822D01*
X190500Y339344D01*
X90424D01*
X75438Y354330D01*
Y428790D01*
X80129Y433481D01*
X81399Y432954D01*
Y432510D01*
X82133Y430736D01*
X83491Y429379D01*
X85265Y428644D01*
X87185D01*
X88958Y429379D01*
X90316Y430736D01*
X91051Y432510D01*
Y434430D01*
X90316Y436204D01*
X88958Y437561D01*
X87537Y438150D01*
X87790Y439420D01*
X109220D01*
X115824Y446024D01*
Y453390D01*
X123190Y460756D01*
X140469D01*
X140721Y459486D01*
X139186Y458850D01*
X137828Y457492D01*
X137094Y455719D01*
Y453799D01*
X137828Y452025D01*
X139186Y450667D01*
X140960Y449933D01*
X142880D01*
X144653Y450667D01*
X145476Y451490D01*
X146298Y450667D01*
X147177Y450303D01*
X148061Y449118D01*
Y447198D01*
X148796Y445424D01*
X150153Y444066D01*
X151927Y443332D01*
X153847D01*
X155621Y444066D01*
X156978Y445424D01*
X157713Y447198D01*
Y449118D01*
X156978Y450891D01*
X155621Y452249D01*
X154741Y452613D01*
X153858Y453799D01*
Y455719D01*
X153123Y457492D01*
X151765Y458850D01*
X150230Y459486D01*
X150483Y460756D01*
X180848D01*
X204978Y436626D01*
D02*
G37*
%LPC*%
G36*
X123855Y452984D02*
X121935D01*
X120161Y452249D01*
X118803Y450891D01*
X118069Y449118D01*
Y447198D01*
X118803Y445424D01*
X120161Y444066D01*
X121935Y443332D01*
X123855D01*
X125628Y444066D01*
X126986Y445424D01*
X127721Y447198D01*
Y449118D01*
X126986Y450891D01*
X125628Y452249D01*
X123855Y452984D01*
D02*
G37*
G36*
X168600Y452120D02*
X166680D01*
X164906Y451385D01*
X163549Y450028D01*
X162814Y448254D01*
Y446334D01*
X163549Y444560D01*
X164906Y443203D01*
X166680Y442468D01*
X168600D01*
X170374Y443203D01*
X171731Y444560D01*
X172466Y446334D01*
Y448254D01*
X171731Y450028D01*
X170374Y451385D01*
X168600Y452120D01*
D02*
G37*
G36*
X191206Y441706D02*
X189286D01*
X187512Y440971D01*
X186155Y439614D01*
X185420Y437840D01*
Y435920D01*
X186155Y434146D01*
X187512Y432789D01*
X189286Y432054D01*
X191206D01*
X192980Y432789D01*
X194337Y434146D01*
X195072Y435920D01*
Y437840D01*
X194337Y439614D01*
X192980Y440971D01*
X191206Y441706D01*
D02*
G37*
G36*
X179546Y429857D02*
X177626D01*
X175852Y429122D01*
X174494Y427765D01*
X173760Y425991D01*
Y424071D01*
X174494Y422297D01*
X175852Y420940D01*
X177626Y420205D01*
X179546D01*
X181319Y420940D01*
X182677Y422297D01*
X183412Y424071D01*
Y425991D01*
X182677Y427765D01*
X181319Y429122D01*
X179546Y429857D01*
D02*
G37*
G36*
X153847Y427253D02*
X151927D01*
X150153Y426519D01*
X148796Y425161D01*
X148061Y423387D01*
Y421467D01*
X148796Y419693D01*
X150153Y418336D01*
X151927Y417601D01*
X153847D01*
X155621Y418336D01*
X156978Y419693D01*
X157713Y421467D01*
Y423387D01*
X156978Y425161D01*
X155621Y426519D01*
X153847Y427253D01*
D02*
G37*
G36*
X118847D02*
X116927D01*
X115153Y426519D01*
X113796Y425161D01*
X113061Y423387D01*
Y421467D01*
X113796Y419693D01*
X115153Y418336D01*
X116927Y417601D01*
X118847D01*
X120621Y418336D01*
X121978Y419693D01*
X122713Y421467D01*
Y423387D01*
X121978Y425161D01*
X120621Y426519D01*
X118847Y427253D01*
D02*
G37*
G36*
X91794Y417224D02*
X89874D01*
X88100Y416489D01*
X86743Y415131D01*
X86008Y413357D01*
Y411438D01*
X86743Y409664D01*
X88100Y408306D01*
X89874Y407571D01*
X91794D01*
X93568Y408306D01*
X94925Y409664D01*
X95660Y411438D01*
Y413357D01*
X94925Y415131D01*
X93568Y416489D01*
X91794Y417224D01*
D02*
G37*
G36*
X136347Y409753D02*
X134427D01*
X132653Y409019D01*
X131296Y407661D01*
X130561Y405887D01*
Y403967D01*
X131296Y402193D01*
X132653Y400836D01*
X134427Y400101D01*
X136347D01*
X138121Y400836D01*
X139478Y402193D01*
X140213Y403967D01*
Y405887D01*
X139478Y407661D01*
X138121Y409019D01*
X136347Y409753D01*
D02*
G37*
G36*
X181128Y415462D02*
X179208D01*
X177435Y414727D01*
X176077Y413369D01*
X175342Y411596D01*
Y409676D01*
X176077Y407902D01*
X177402Y406577D01*
X176520Y405696D01*
X175785Y403922D01*
Y402002D01*
X176520Y400228D01*
X177877Y398871D01*
X179651Y398136D01*
X181571D01*
X183344Y398871D01*
X184346Y399872D01*
X184424Y399856D01*
X185781Y398499D01*
X187555Y397764D01*
X189475D01*
X191248Y398499D01*
X192606Y399856D01*
X193341Y401630D01*
Y403550D01*
X192606Y405324D01*
X191248Y406681D01*
X189475Y407416D01*
X187555D01*
X185781Y406681D01*
X184780Y405680D01*
X184702Y405696D01*
X183378Y407020D01*
X184260Y407902D01*
X184994Y409676D01*
Y411596D01*
X184260Y413369D01*
X182902Y414727D01*
X181128Y415462D01*
D02*
G37*
G36*
X92673Y403606D02*
X90753D01*
X88979Y402871D01*
X87622Y401514D01*
X86887Y399740D01*
Y397820D01*
X87622Y396046D01*
X88979Y394689D01*
X90753Y393954D01*
X92673D01*
X94447Y394689D01*
X95804Y396046D01*
X96539Y397820D01*
Y399740D01*
X95804Y401514D01*
X94447Y402871D01*
X92673Y403606D01*
D02*
G37*
G36*
X191460Y392176D02*
X189540D01*
X187766Y391441D01*
X186409Y390084D01*
X186353Y389948D01*
X184858Y389658D01*
X184090Y390425D01*
X182316Y391160D01*
X180396D01*
X178622Y390425D01*
X177265Y389068D01*
X176530Y387294D01*
Y385374D01*
X177265Y383600D01*
X178622Y382243D01*
X180396Y381508D01*
X182316D01*
X184090Y382243D01*
X185447Y383600D01*
X185503Y383736D01*
X186999Y384026D01*
X187766Y383259D01*
X189540Y382524D01*
X191460D01*
X193234Y383259D01*
X194591Y384616D01*
X195326Y386390D01*
Y388310D01*
X194591Y390084D01*
X193234Y391441D01*
X191460Y392176D01*
D02*
G37*
G36*
X153847Y392206D02*
X151927D01*
X150153Y391471D01*
X148796Y390113D01*
X148061Y388340D01*
Y386420D01*
X148796Y384646D01*
X150153Y383288D01*
X151927Y382554D01*
X153847D01*
X155621Y383288D01*
X156978Y384646D01*
X157713Y386420D01*
Y388340D01*
X156978Y390113D01*
X155621Y391471D01*
X153847Y392206D01*
D02*
G37*
G36*
X117038Y387858D02*
X115118D01*
X113344Y387123D01*
X111987Y385766D01*
X111252Y383992D01*
Y382072D01*
X111987Y380298D01*
X113344Y378941D01*
X115118Y378206D01*
X117038D01*
X118812Y378941D01*
X120169Y380298D01*
X120904Y382072D01*
Y383992D01*
X120169Y385766D01*
X118812Y387123D01*
X117038Y387858D01*
D02*
G37*
G36*
X171500Y369143D02*
X169580D01*
X167806Y368409D01*
X166449Y367051D01*
X165741Y365342D01*
X165345Y365506D01*
X163425D01*
X161651Y364771D01*
X160293Y363414D01*
X159559Y361640D01*
Y359720D01*
X160293Y357946D01*
X161651Y356589D01*
X163425Y355854D01*
X165345D01*
X167118Y356589D01*
X168476Y357946D01*
X169184Y359655D01*
X169580Y359491D01*
X171500D01*
X173274Y360226D01*
X174631Y361584D01*
X175366Y363357D01*
Y365277D01*
X174631Y367051D01*
X173274Y368409D01*
X171500Y369143D01*
D02*
G37*
G36*
X149296Y366776D02*
X147376D01*
X145602Y366041D01*
X144245Y364684D01*
X143510Y362910D01*
Y360990D01*
X144245Y359216D01*
X145602Y357859D01*
X147376Y357124D01*
X149296D01*
X151070Y357859D01*
X152427Y359216D01*
X153162Y360990D01*
Y362910D01*
X152427Y364684D01*
X151070Y366041D01*
X149296Y366776D01*
D02*
G37*
G36*
X113855Y365506D02*
X111935D01*
X110161Y364771D01*
X108803Y363414D01*
X108069Y361640D01*
Y359720D01*
X108803Y357946D01*
X110161Y356589D01*
X111935Y355854D01*
X113855D01*
X115628Y356589D01*
X116986Y357946D01*
X117721Y359720D01*
Y361640D01*
X116986Y363414D01*
X115628Y364771D01*
X113855Y365506D01*
D02*
G37*
G36*
X92312Y390830D02*
X90393D01*
X88619Y390095D01*
X87261Y388737D01*
X86526Y386964D01*
Y385044D01*
X87261Y383270D01*
X88619Y381912D01*
X88822Y380889D01*
X88365Y380432D01*
X87630Y378658D01*
Y376738D01*
X88365Y374964D01*
X89500Y373829D01*
X89718Y373552D01*
X89610Y372279D01*
X88873Y371542D01*
X88138Y369768D01*
Y367848D01*
X88873Y366074D01*
X90230Y364717D01*
X90784Y364487D01*
X91082Y362989D01*
X90779Y362686D01*
X90044Y360912D01*
Y358993D01*
X90779Y357219D01*
X92136Y355861D01*
X93910Y355126D01*
X95830D01*
X97603Y355861D01*
X98961Y357219D01*
X99696Y358993D01*
Y360912D01*
X98961Y362686D01*
X97603Y364044D01*
X97050Y364273D01*
X96752Y365771D01*
X97055Y366074D01*
X97790Y367848D01*
Y369768D01*
X97055Y371542D01*
X95920Y372677D01*
X95702Y372954D01*
X95810Y374227D01*
X96547Y374964D01*
X97282Y376738D01*
Y378658D01*
X96547Y380432D01*
X95190Y381789D01*
X94986Y382812D01*
X95444Y383270D01*
X96179Y385044D01*
Y386964D01*
X95444Y388737D01*
X94086Y390095D01*
X92312Y390830D01*
D02*
G37*
%LPD*%
G36*
X1136729Y431804D02*
Y349000D01*
X1122251Y334522D01*
X1119341D01*
X1118048Y335815D01*
X1116274Y336550D01*
X1114354D01*
X1112580Y335815D01*
X1111287Y334522D01*
X1109280D01*
X1108991Y335220D01*
X1107634Y336577D01*
X1105860Y337312D01*
X1103940D01*
X1102166Y336577D01*
X1100809Y335220D01*
X1100520Y334522D01*
X1093978D01*
Y334970D01*
X1093243Y336744D01*
X1091886Y338101D01*
X1090112Y338836D01*
X1088192D01*
X1086418Y338101D01*
X1085061Y336744D01*
X1084326Y334970D01*
Y334522D01*
X1022175D01*
X1007189Y349508D01*
Y423968D01*
X1011880Y428658D01*
X1013150Y428132D01*
Y427688D01*
X1013885Y425914D01*
X1015242Y424557D01*
X1017016Y423822D01*
X1018936D01*
X1020710Y424557D01*
X1022067Y425914D01*
X1022802Y427688D01*
Y429608D01*
X1022067Y431381D01*
X1020710Y432739D01*
X1019288Y433328D01*
X1019541Y434598D01*
X1040971D01*
X1047575Y441202D01*
Y448568D01*
X1054941Y455934D01*
X1112599D01*
X1136729Y431804D01*
D02*
G37*
%LPC*%
G36*
X1085598Y448161D02*
X1083678D01*
X1081905Y447427D01*
X1080547Y446069D01*
X1079812Y444295D01*
Y442375D01*
X1080547Y440602D01*
X1081905Y439244D01*
X1083678Y438509D01*
X1085598D01*
X1087372Y439244D01*
X1088729Y440602D01*
X1089464Y442375D01*
Y444295D01*
X1088729Y446069D01*
X1087372Y447427D01*
X1085598Y448161D01*
D02*
G37*
G36*
X1055606D02*
X1053686D01*
X1051912Y447427D01*
X1050555Y446069D01*
X1049820Y444295D01*
Y442375D01*
X1050555Y440602D01*
X1051912Y439244D01*
X1053686Y438509D01*
X1055606D01*
X1057380Y439244D01*
X1058737Y440602D01*
X1059472Y442375D01*
Y444295D01*
X1058737Y446069D01*
X1057380Y447427D01*
X1055606Y448161D01*
D02*
G37*
G36*
X1101034Y447294D02*
X1099114D01*
X1097340Y446559D01*
X1095983Y445202D01*
X1095248Y443428D01*
Y441508D01*
X1095983Y439734D01*
X1097340Y438377D01*
X1099114Y437642D01*
X1101034D01*
X1102808Y438377D01*
X1104165Y439734D01*
X1104900Y441508D01*
Y443428D01*
X1104165Y445202D01*
X1102808Y446559D01*
X1101034Y447294D01*
D02*
G37*
G36*
X1120386Y436288D02*
X1118466D01*
X1116693Y435553D01*
X1115335Y434196D01*
X1114600Y432422D01*
Y430502D01*
X1115335Y428728D01*
X1116693Y427371D01*
X1118466Y426636D01*
X1120386D01*
X1122160Y427371D01*
X1123518Y428728D01*
X1124252Y430502D01*
Y432422D01*
X1123518Y434196D01*
X1122160Y435553D01*
X1120386Y436288D01*
D02*
G37*
G36*
X1111215Y425116D02*
X1109296D01*
X1107522Y424381D01*
X1106164Y423024D01*
X1105430Y421250D01*
Y419330D01*
X1106164Y417556D01*
X1107522Y416199D01*
X1109296Y415464D01*
X1111215D01*
X1112989Y416199D01*
X1114347Y417556D01*
X1115081Y419330D01*
Y421250D01*
X1114347Y423024D01*
X1112989Y424381D01*
X1111215Y425116D01*
D02*
G37*
G36*
X1085598Y422431D02*
X1083678D01*
X1081905Y421696D01*
X1080547Y420339D01*
X1079812Y418565D01*
Y416645D01*
X1080547Y414871D01*
X1081905Y413514D01*
X1083678Y412779D01*
X1085598D01*
X1087372Y413514D01*
X1088729Y414871D01*
X1089464Y416645D01*
Y418565D01*
X1088729Y420339D01*
X1087372Y421696D01*
X1085598Y422431D01*
D02*
G37*
G36*
X1050598D02*
X1048678D01*
X1046905Y421696D01*
X1045547Y420339D01*
X1044812Y418565D01*
Y416645D01*
X1045547Y414871D01*
X1046905Y413514D01*
X1048678Y412779D01*
X1050598D01*
X1052372Y413514D01*
X1053729Y414871D01*
X1054464Y416645D01*
Y418565D01*
X1053729Y420339D01*
X1052372Y421696D01*
X1050598Y422431D01*
D02*
G37*
G36*
X1023545Y412401D02*
X1021625D01*
X1019852Y411667D01*
X1018494Y410309D01*
X1017759Y408535D01*
Y406615D01*
X1018494Y404842D01*
X1019852Y403484D01*
X1021625Y402749D01*
X1023545D01*
X1025319Y403484D01*
X1026676Y404842D01*
X1027411Y406615D01*
Y408535D01*
X1026676Y410309D01*
X1025319Y411667D01*
X1023545Y412401D01*
D02*
G37*
G36*
X1068098Y404931D02*
X1066178D01*
X1064405Y404196D01*
X1063047Y402839D01*
X1062312Y401065D01*
Y399145D01*
X1063047Y397371D01*
X1064405Y396014D01*
X1066178Y395279D01*
X1068098D01*
X1069872Y396014D01*
X1071229Y397371D01*
X1071964Y399145D01*
Y401065D01*
X1071229Y402839D01*
X1069872Y404196D01*
X1068098Y404931D01*
D02*
G37*
G36*
X1112965Y410725D02*
X1111045D01*
X1109271Y409990D01*
X1107914Y408633D01*
X1107179Y406859D01*
Y404939D01*
X1107869Y403272D01*
X1107958Y402773D01*
X1107776Y401859D01*
X1106419Y400502D01*
X1105684Y398728D01*
Y396808D01*
X1106419Y395034D01*
X1107776Y393676D01*
X1109550Y392942D01*
X1111470D01*
X1113243Y393676D01*
X1114601Y395034D01*
X1114701Y395274D01*
X1116075D01*
X1116175Y395034D01*
X1117532Y393676D01*
X1119306Y392942D01*
X1121226D01*
X1123000Y393676D01*
X1124357Y395034D01*
X1125092Y396808D01*
Y398728D01*
X1124357Y400502D01*
X1123000Y401859D01*
X1121226Y402594D01*
X1119306D01*
X1117532Y401859D01*
X1116604Y400931D01*
X1115209Y400935D01*
X1115030Y401016D01*
X1114682Y401524D01*
X1114739Y401808D01*
X1116096Y403165D01*
X1116831Y404939D01*
Y406859D01*
X1116096Y408633D01*
X1114739Y409990D01*
X1112965Y410725D01*
D02*
G37*
G36*
X1024424Y398784D02*
X1022505D01*
X1020731Y398049D01*
X1019373Y396692D01*
X1018639Y394918D01*
Y392998D01*
X1019373Y391224D01*
X1020731Y389866D01*
X1022505Y389132D01*
X1024424D01*
X1026198Y389866D01*
X1027556Y391224D01*
X1028290Y392998D01*
Y394918D01*
X1027556Y396692D01*
X1026198Y398049D01*
X1024424Y398784D01*
D02*
G37*
G36*
X1121226Y387354D02*
X1119306D01*
X1117532Y386619D01*
X1116175Y385261D01*
X1116111Y385108D01*
X1114841D01*
X1114777Y385261D01*
X1113420Y386619D01*
X1111646Y387354D01*
X1109726D01*
X1107952Y386619D01*
X1106595Y385261D01*
X1105860Y383488D01*
Y381568D01*
X1106595Y379794D01*
X1107952Y378437D01*
X1109726Y377702D01*
X1111646D01*
X1113420Y378437D01*
X1114777Y379794D01*
X1114841Y379948D01*
X1116111D01*
X1116175Y379794D01*
X1117532Y378437D01*
X1119306Y377702D01*
X1121226D01*
X1123000Y378437D01*
X1124357Y379794D01*
X1125092Y381568D01*
Y383488D01*
X1124357Y385261D01*
X1123000Y386619D01*
X1121226Y387354D01*
D02*
G37*
G36*
X1085598Y387383D02*
X1083678D01*
X1081905Y386649D01*
X1080547Y385291D01*
X1079812Y383517D01*
Y381598D01*
X1080547Y379824D01*
X1081905Y378466D01*
X1083678Y377732D01*
X1085598D01*
X1087372Y378466D01*
X1088729Y379824D01*
X1089464Y381598D01*
Y383517D01*
X1088729Y385291D01*
X1087372Y386649D01*
X1085598Y387383D01*
D02*
G37*
G36*
X1050171Y385465D02*
X1048251D01*
X1046477Y384730D01*
X1045120Y383373D01*
X1044385Y381599D01*
Y379679D01*
X1045120Y377906D01*
X1046477Y376548D01*
X1048251Y375813D01*
X1050171D01*
X1051945Y376548D01*
X1053302Y377906D01*
X1054037Y379679D01*
Y381599D01*
X1053302Y383373D01*
X1051945Y384730D01*
X1050171Y385465D01*
D02*
G37*
G36*
X1024424Y387431D02*
X1022505D01*
X1020731Y386696D01*
X1019373Y385339D01*
X1018639Y383565D01*
Y381645D01*
X1019368Y379883D01*
X1017754Y379214D01*
X1016396Y377856D01*
X1015661Y376082D01*
Y374163D01*
X1016396Y372389D01*
X1017754Y371031D01*
X1019527Y370297D01*
X1019810Y369873D01*
X1019556Y369260D01*
Y367340D01*
X1020291Y365566D01*
X1021648Y364209D01*
X1023422Y363474D01*
X1025342D01*
X1027116Y364209D01*
X1028473Y365566D01*
X1029208Y367340D01*
Y369260D01*
X1028473Y371034D01*
X1027116Y372391D01*
X1025342Y373126D01*
X1025059Y373549D01*
X1025313Y374163D01*
Y376082D01*
X1024583Y377845D01*
X1026198Y378514D01*
X1027556Y379871D01*
X1028290Y381645D01*
Y383565D01*
X1027556Y385339D01*
X1026198Y386696D01*
X1024424Y387431D01*
D02*
G37*
G36*
X1108146Y366776D02*
X1106226D01*
X1104452Y366041D01*
X1103095Y364684D01*
X1102360Y362910D01*
Y360990D01*
X1103095Y359216D01*
X1104452Y357859D01*
X1106226Y357124D01*
X1108146D01*
X1109920Y357859D01*
X1111277Y359216D01*
X1112012Y360990D01*
Y362910D01*
X1111277Y364684D01*
X1109920Y366041D01*
X1108146Y366776D01*
D02*
G37*
G36*
X1032708Y362458D02*
X1030788D01*
X1029014Y361723D01*
X1027657Y360366D01*
X1026922Y358592D01*
Y356672D01*
X1027657Y354898D01*
X1029014Y353541D01*
X1030788Y352806D01*
X1032708D01*
X1034482Y353541D01*
X1035839Y354898D01*
X1036574Y356672D01*
Y358592D01*
X1035839Y360366D01*
X1034482Y361723D01*
X1032708Y362458D01*
D02*
G37*
G36*
X1097986Y361188D02*
X1096066D01*
X1094292Y360453D01*
X1092935Y359096D01*
X1092200Y357322D01*
Y355402D01*
X1092935Y353628D01*
X1094292Y352271D01*
X1096066Y351536D01*
X1097986D01*
X1099760Y352271D01*
X1101117Y353628D01*
X1101852Y355402D01*
Y357322D01*
X1101117Y359096D01*
X1099760Y360453D01*
X1097986Y361188D01*
D02*
G37*
G36*
X1045628Y360706D02*
X1043708D01*
X1041934Y359971D01*
X1040577Y358614D01*
X1039842Y356840D01*
Y354920D01*
X1040577Y353146D01*
X1041934Y351788D01*
X1043708Y351054D01*
X1045628D01*
X1047402Y351788D01*
X1048759Y353146D01*
X1049494Y354920D01*
Y356840D01*
X1048759Y358614D01*
X1047402Y359971D01*
X1045628Y360706D01*
D02*
G37*
G36*
X1082258Y359918D02*
X1080338D01*
X1078565Y359183D01*
X1077207Y357826D01*
X1076472Y356052D01*
Y354132D01*
X1077207Y352358D01*
X1078565Y351001D01*
X1080338Y350266D01*
X1082258D01*
X1084032Y351001D01*
X1085390Y352358D01*
X1086124Y354132D01*
Y356052D01*
X1085390Y357826D01*
X1084032Y359183D01*
X1082258Y359918D01*
D02*
G37*
%LPD*%
G36*
X1439553Y431546D02*
Y348742D01*
X1427404Y336593D01*
X1426658Y337339D01*
X1424884Y338074D01*
X1422964D01*
X1421190Y337339D01*
X1419833Y335982D01*
X1419121Y334264D01*
X1417451D01*
X1416763Y335926D01*
X1415405Y337284D01*
X1413631Y338018D01*
X1411711D01*
X1409937Y337284D01*
X1408580Y335926D01*
X1407891Y334264D01*
X1394681D01*
X1394654Y334291D01*
X1392880Y335026D01*
X1390960D01*
X1389186Y334291D01*
X1389159Y334264D01*
X1324999D01*
X1310013Y349250D01*
Y423710D01*
X1314704Y428401D01*
X1315974Y427874D01*
Y427430D01*
X1316709Y425656D01*
X1318066Y424299D01*
X1319840Y423564D01*
X1321760D01*
X1323534Y424299D01*
X1324891Y425656D01*
X1325626Y427430D01*
Y429350D01*
X1324891Y431124D01*
X1323534Y432481D01*
X1322112Y433070D01*
X1322365Y434340D01*
X1343795D01*
X1350399Y440944D01*
Y448310D01*
X1357765Y455676D01*
X1372641D01*
X1373167Y454406D01*
X1372345Y453584D01*
X1371610Y451810D01*
Y449890D01*
X1372345Y448116D01*
X1373702Y446759D01*
X1375476Y446024D01*
X1377396D01*
X1379170Y446759D01*
X1379992Y447581D01*
X1380814Y446759D01*
X1382588Y446024D01*
X1382933Y444754D01*
X1382636Y444038D01*
Y442118D01*
X1383371Y440344D01*
X1384729Y438986D01*
X1386502Y438252D01*
X1388422D01*
X1390196Y438986D01*
X1391553Y440344D01*
X1392288Y442118D01*
Y444038D01*
X1391553Y445811D01*
X1390196Y447169D01*
X1388422Y447904D01*
X1388077Y449174D01*
X1388374Y449890D01*
Y451810D01*
X1387639Y453584D01*
X1386817Y454406D01*
X1387343Y455676D01*
X1415423D01*
X1439553Y431546D01*
D02*
G37*
%LPC*%
G36*
X1410152Y447548D02*
X1408232D01*
X1406458Y446813D01*
X1405101Y445456D01*
X1404366Y443682D01*
Y441762D01*
X1405101Y439988D01*
X1406458Y438631D01*
X1408232Y437896D01*
X1410152D01*
X1411926Y438631D01*
X1413283Y439988D01*
X1414018Y441762D01*
Y443682D01*
X1413283Y445456D01*
X1411926Y446813D01*
X1410152Y447548D01*
D02*
G37*
G36*
X1358359Y447223D02*
X1356440D01*
X1354666Y446488D01*
X1353308Y445131D01*
X1352574Y443357D01*
Y441437D01*
X1353308Y439663D01*
X1354666Y438306D01*
X1356440Y437571D01*
X1358359D01*
X1360133Y438306D01*
X1361491Y439663D01*
X1362225Y441437D01*
Y443357D01*
X1361491Y445131D01*
X1360133Y446488D01*
X1358359Y447223D01*
D02*
G37*
G36*
X1422765Y435252D02*
X1420845D01*
X1419071Y434518D01*
X1417714Y433160D01*
X1416979Y431386D01*
Y429467D01*
X1417714Y427693D01*
X1419071Y426335D01*
X1420845Y425601D01*
X1422765D01*
X1424539Y426335D01*
X1425896Y427693D01*
X1426631Y429467D01*
Y431386D01*
X1425896Y433160D01*
X1424539Y434518D01*
X1422765Y435252D01*
D02*
G37*
G36*
X1414121Y424777D02*
X1412201D01*
X1410427Y424042D01*
X1409070Y422685D01*
X1408335Y420911D01*
Y418991D01*
X1409070Y417217D01*
X1410427Y415860D01*
X1412201Y415125D01*
X1414121D01*
X1415895Y415860D01*
X1417252Y417217D01*
X1417987Y418991D01*
Y420911D01*
X1417252Y422685D01*
X1415895Y424042D01*
X1414121Y424777D01*
D02*
G37*
G36*
X1388422Y422173D02*
X1386502D01*
X1384729Y421438D01*
X1383371Y420081D01*
X1382636Y418307D01*
Y416387D01*
X1383371Y414613D01*
X1384729Y413256D01*
X1386502Y412521D01*
X1388422D01*
X1390196Y413256D01*
X1391553Y414613D01*
X1392288Y416387D01*
Y418307D01*
X1391553Y420081D01*
X1390196Y421438D01*
X1388422Y422173D01*
D02*
G37*
G36*
X1353422D02*
X1351502D01*
X1349729Y421438D01*
X1348371Y420081D01*
X1347636Y418307D01*
Y416387D01*
X1348371Y414613D01*
X1349729Y413256D01*
X1351502Y412521D01*
X1353422D01*
X1355196Y413256D01*
X1356553Y414613D01*
X1357288Y416387D01*
Y418307D01*
X1356553Y420081D01*
X1355196Y421438D01*
X1353422Y422173D01*
D02*
G37*
G36*
X1326369Y412144D02*
X1324449D01*
X1322675Y411409D01*
X1321318Y410051D01*
X1320583Y408277D01*
Y406358D01*
X1321318Y404584D01*
X1322675Y403226D01*
X1324449Y402491D01*
X1326369D01*
X1328143Y403226D01*
X1329500Y404584D01*
X1330235Y406358D01*
Y408277D01*
X1329500Y410051D01*
X1328143Y411409D01*
X1326369Y412144D01*
D02*
G37*
G36*
X1370922Y404673D02*
X1369002D01*
X1367229Y403938D01*
X1365871Y402581D01*
X1365136Y400807D01*
Y398887D01*
X1365871Y397113D01*
X1367229Y395756D01*
X1369002Y395021D01*
X1370922D01*
X1372696Y395756D01*
X1374053Y397113D01*
X1374788Y398887D01*
Y400807D01*
X1374053Y402581D01*
X1372696Y403938D01*
X1370922Y404673D01*
D02*
G37*
G36*
X1414724Y408940D02*
X1412804D01*
X1411030Y408205D01*
X1409673Y406848D01*
X1408938Y405074D01*
Y403154D01*
X1409673Y401380D01*
X1410742Y400311D01*
X1410185Y399754D01*
X1409450Y397980D01*
Y396060D01*
X1410185Y394287D01*
X1411543Y392929D01*
X1413316Y392195D01*
X1415236D01*
X1417010Y392929D01*
X1418098Y394017D01*
X1418411Y394281D01*
X1419668Y394107D01*
X1420356Y393419D01*
X1422130Y392684D01*
X1424050D01*
X1425824Y393419D01*
X1427181Y394776D01*
X1427916Y396550D01*
Y398470D01*
X1427181Y400244D01*
X1425824Y401601D01*
X1424050Y402336D01*
X1422130D01*
X1420356Y401601D01*
X1419652Y400897D01*
X1419187Y400817D01*
X1418580Y400940D01*
X1418135Y401216D01*
X1417974Y401667D01*
X1418590Y403154D01*
Y405074D01*
X1417855Y406848D01*
X1416498Y408205D01*
X1414724Y408940D01*
D02*
G37*
G36*
X1327248Y398583D02*
X1325329D01*
X1323555Y397849D01*
X1322197Y396491D01*
X1321462Y394717D01*
Y392797D01*
X1322197Y391023D01*
X1323555Y389666D01*
X1325329Y388931D01*
X1327248D01*
X1329022Y389666D01*
X1330380Y391023D01*
X1331114Y392797D01*
Y394717D01*
X1330380Y396491D01*
X1329022Y397849D01*
X1327248Y398583D01*
D02*
G37*
G36*
X1424050Y387096D02*
X1422130D01*
X1420356Y386361D01*
X1418999Y385004D01*
X1418935Y384850D01*
X1417665D01*
X1417601Y385004D01*
X1416244Y386361D01*
X1414470Y387096D01*
X1412550D01*
X1410776Y386361D01*
X1409419Y385004D01*
X1408684Y383230D01*
Y381310D01*
X1409419Y379536D01*
X1410776Y378179D01*
X1412550Y377444D01*
X1414470D01*
X1416244Y378179D01*
X1417601Y379536D01*
X1417665Y379690D01*
X1418935D01*
X1418999Y379536D01*
X1420356Y378179D01*
X1422130Y377444D01*
X1424050D01*
X1425824Y378179D01*
X1427181Y379536D01*
X1427916Y381310D01*
Y383230D01*
X1427181Y385004D01*
X1425824Y386361D01*
X1424050Y387096D01*
D02*
G37*
G36*
X1353422Y387173D02*
X1351502D01*
X1349729Y386438D01*
X1348371Y385081D01*
X1347636Y383307D01*
Y381387D01*
X1348371Y379613D01*
X1349729Y378256D01*
X1351502Y377521D01*
X1353422D01*
X1355196Y378256D01*
X1356553Y379613D01*
X1357288Y381387D01*
Y383307D01*
X1356553Y385081D01*
X1355196Y386438D01*
X1353422Y387173D01*
D02*
G37*
G36*
X1388422Y387126D02*
X1386502D01*
X1384729Y386391D01*
X1383371Y385033D01*
X1382636Y383260D01*
Y381340D01*
X1383371Y379566D01*
X1384729Y378209D01*
X1386502Y377474D01*
X1388422D01*
X1390196Y378209D01*
X1391553Y379566D01*
X1392288Y381340D01*
Y383260D01*
X1391553Y385033D01*
X1390196Y386391D01*
X1388422Y387126D01*
D02*
G37*
G36*
X1328302Y387407D02*
X1326382D01*
X1324608Y386673D01*
X1323251Y385315D01*
X1322516Y383541D01*
Y381621D01*
X1323251Y379847D01*
X1323496Y379602D01*
X1323153Y378149D01*
X1322055Y377694D01*
X1320697Y376337D01*
X1319962Y374563D01*
Y372643D01*
X1320697Y370869D01*
X1322055Y369512D01*
X1322756Y369221D01*
X1322800Y369002D01*
X1322065Y367229D01*
Y365309D01*
X1322800Y363535D01*
X1324157Y362177D01*
X1325931Y361443D01*
X1327851D01*
X1329625Y362177D01*
X1330982Y363535D01*
X1331717Y365309D01*
Y367229D01*
X1330982Y369002D01*
X1329625Y370360D01*
X1328923Y370650D01*
X1328880Y370869D01*
X1329614Y372643D01*
Y374563D01*
X1328880Y376337D01*
X1328634Y376582D01*
X1328977Y378035D01*
X1330076Y378490D01*
X1331433Y379847D01*
X1332168Y381621D01*
Y383541D01*
X1331433Y385315D01*
X1330076Y386673D01*
X1328302Y387407D01*
D02*
G37*
G36*
X1408792Y367710D02*
X1406872D01*
X1405099Y366975D01*
X1403741Y365618D01*
X1403006Y363844D01*
Y361924D01*
X1403582Y360533D01*
X1403741Y360150D01*
X1402755Y359464D01*
X1402528Y359691D01*
X1402020Y360199D01*
X1400246Y360934D01*
X1398326D01*
X1396552Y360199D01*
X1395195Y358842D01*
X1394460Y357068D01*
Y355148D01*
X1395195Y353374D01*
X1396552Y352017D01*
X1398326Y351282D01*
X1400246D01*
X1402020Y352017D01*
X1403377Y353374D01*
X1404112Y355148D01*
Y357068D01*
X1403536Y358459D01*
X1403377Y358842D01*
X1404363Y359529D01*
X1404590Y359301D01*
X1405099Y358793D01*
X1406872Y358058D01*
X1408792D01*
X1410566Y358793D01*
X1411924Y360150D01*
X1412658Y361924D01*
Y363844D01*
X1411924Y365618D01*
X1410566Y366975D01*
X1408792Y367710D01*
D02*
G37*
G36*
X1335984Y360680D02*
X1334064D01*
X1332290Y359945D01*
X1330933Y358588D01*
X1330198Y356814D01*
Y354894D01*
X1330933Y353120D01*
X1332290Y351763D01*
X1334064Y351028D01*
X1335984D01*
X1337758Y351763D01*
X1339115Y353120D01*
X1339850Y354894D01*
Y356814D01*
X1339115Y358588D01*
X1337758Y359945D01*
X1335984Y360680D01*
D02*
G37*
G36*
X1348430Y360426D02*
X1346510D01*
X1344736Y359691D01*
X1343379Y358334D01*
X1342644Y356560D01*
Y354640D01*
X1343379Y352866D01*
X1344736Y351509D01*
X1346510Y350774D01*
X1348430D01*
X1350204Y351509D01*
X1351561Y352866D01*
X1352296Y354640D01*
Y356560D01*
X1351561Y358334D01*
X1350204Y359691D01*
X1348430Y360426D01*
D02*
G37*
G36*
X1385768Y360172D02*
X1383848D01*
X1382074Y359437D01*
X1380717Y358080D01*
X1379982Y356306D01*
Y354386D01*
X1380717Y352612D01*
X1382074Y351255D01*
X1383848Y350520D01*
X1385768D01*
X1387542Y351255D01*
X1388899Y352612D01*
X1389634Y354386D01*
Y356306D01*
X1388899Y358080D01*
X1387542Y359437D01*
X1385768Y360172D01*
D02*
G37*
%LPD*%
G36*
X824171Y425196D02*
Y342392D01*
X809693Y327914D01*
X709617D01*
X694631Y342900D01*
Y417360D01*
X699321Y422051D01*
X700591Y421525D01*
Y421080D01*
X701326Y419306D01*
X702684Y417949D01*
X704457Y417214D01*
X706377D01*
X708151Y417949D01*
X709509Y419306D01*
X710243Y421080D01*
Y423000D01*
X709509Y424774D01*
X708151Y426131D01*
X706730Y426720D01*
X706982Y427990D01*
X733350D01*
X737988Y432629D01*
X739266Y431351D01*
X741040Y430616D01*
X742960D01*
X744733Y431351D01*
X746091Y432709D01*
X746825Y434482D01*
Y436402D01*
X746091Y438176D01*
X744813Y439454D01*
X754686Y449326D01*
X800041D01*
X824171Y425196D01*
D02*
G37*
%LPC*%
G36*
X772932Y444015D02*
X771012D01*
X769239Y443281D01*
X767881Y441923D01*
X767146Y440149D01*
Y438229D01*
X767881Y436456D01*
X769239Y435098D01*
X771012Y434363D01*
X772932D01*
X774706Y435098D01*
X776064Y436456D01*
X776798Y438229D01*
Y440149D01*
X776064Y441923D01*
X774706Y443281D01*
X772932Y444015D01*
D02*
G37*
G36*
X792932Y440690D02*
X791012D01*
X789238Y439955D01*
X787881Y438598D01*
X787146Y436824D01*
Y434904D01*
X787881Y433130D01*
X789238Y431773D01*
X791012Y431038D01*
X792932D01*
X794706Y431773D01*
X796063Y433130D01*
X796798Y434904D01*
Y436824D01*
X796063Y438598D01*
X794706Y439955D01*
X792932Y440690D01*
D02*
G37*
G36*
X808920Y430307D02*
X807001D01*
X805227Y429572D01*
X803869Y428214D01*
X803135Y426440D01*
Y424520D01*
X803869Y422747D01*
X805227Y421389D01*
X807001Y420654D01*
X808920D01*
X810694Y421389D01*
X812052Y422747D01*
X812786Y424520D01*
Y426440D01*
X812052Y428214D01*
X810694Y429572D01*
X808920Y430307D01*
D02*
G37*
G36*
X798738Y418427D02*
X796818D01*
X795045Y417692D01*
X793687Y416335D01*
X792952Y414561D01*
Y412641D01*
X793687Y410867D01*
X795045Y409510D01*
X796818Y408775D01*
X798738D01*
X800512Y409510D01*
X801870Y410867D01*
X802604Y412641D01*
Y414561D01*
X801870Y416335D01*
X800512Y417692D01*
X798738Y418427D01*
D02*
G37*
G36*
X738039Y415823D02*
X736120D01*
X734346Y415089D01*
X732988Y413731D01*
X732254Y411957D01*
Y410037D01*
X732988Y408264D01*
X734346Y406906D01*
X736120Y406171D01*
X738039D01*
X739813Y406906D01*
X741171Y408264D01*
X741906Y410037D01*
Y411957D01*
X741171Y413731D01*
X739813Y415089D01*
X738039Y415823D01*
D02*
G37*
G36*
X775945Y413102D02*
X774026D01*
X772252Y412367D01*
X770894Y411010D01*
X770160Y409236D01*
Y407316D01*
X770894Y405542D01*
X772252Y404185D01*
X774026Y403450D01*
X775945D01*
X777719Y404185D01*
X779077Y405542D01*
X779811Y407316D01*
Y409236D01*
X779077Y411010D01*
X777719Y412367D01*
X775945Y413102D01*
D02*
G37*
G36*
X710986Y405793D02*
X709067D01*
X707293Y405059D01*
X705935Y403701D01*
X705201Y401927D01*
Y400008D01*
X705935Y398234D01*
X707293Y396876D01*
X709067Y396142D01*
X710986D01*
X712760Y396876D01*
X714118Y398234D01*
X714853Y400008D01*
Y401927D01*
X714118Y403701D01*
X712760Y405059D01*
X710986Y405793D01*
D02*
G37*
G36*
X753679Y399863D02*
X751759D01*
X749985Y399128D01*
X748628Y397770D01*
X747893Y395997D01*
Y394077D01*
X748628Y392303D01*
X749985Y390945D01*
X751759Y390211D01*
X753679D01*
X755452Y390945D01*
X756810Y392303D01*
X757545Y394077D01*
Y395997D01*
X756810Y397770D01*
X755452Y399128D01*
X753679Y399863D01*
D02*
G37*
G36*
X799907Y403175D02*
X797987D01*
X796213Y402440D01*
X794856Y401082D01*
X794121Y399309D01*
Y397389D01*
X794856Y395615D01*
X795267Y395204D01*
X795248Y395109D01*
X793890Y393751D01*
X793156Y391977D01*
Y390057D01*
X793890Y388284D01*
X795248Y386926D01*
X797022Y386191D01*
X798941D01*
X800715Y386926D01*
X802073Y388284D01*
X802187Y388559D01*
X803561D01*
X803616Y388426D01*
X804974Y387069D01*
X806747Y386334D01*
X808667D01*
X810441Y387069D01*
X811799Y388426D01*
X812533Y390200D01*
Y392120D01*
X811799Y393894D01*
X810441Y395251D01*
X808667Y395986D01*
X806747D01*
X804974Y395251D01*
X803958Y394235D01*
X802705Y394337D01*
X802499Y394436D01*
X802312Y394889D01*
X803038Y395615D01*
X803773Y397389D01*
Y399309D01*
X803038Y401082D01*
X801681Y402440D01*
X799907Y403175D01*
D02*
G37*
G36*
X711866Y392504D02*
X709946D01*
X708172Y391769D01*
X706814Y390411D01*
X706080Y388638D01*
Y386718D01*
X706814Y384944D01*
X708172Y383586D01*
X709946Y382852D01*
X711866D01*
X713640Y383586D01*
X714997Y384944D01*
X715732Y386718D01*
Y388638D01*
X714997Y390411D01*
X713640Y391769D01*
X711866Y392504D01*
D02*
G37*
G36*
X808667Y380746D02*
X806747D01*
X804974Y380011D01*
X803616Y378654D01*
X803552Y378500D01*
X802282D01*
X802219Y378654D01*
X800861Y380011D01*
X799087Y380746D01*
X797167D01*
X795394Y380011D01*
X794036Y378654D01*
X793301Y376880D01*
Y374960D01*
X794036Y373186D01*
X795394Y371829D01*
X797167Y371094D01*
X799087D01*
X800861Y371829D01*
X802219Y373186D01*
X802282Y373340D01*
X803552D01*
X803616Y373186D01*
X804974Y371829D01*
X806747Y371094D01*
X808667D01*
X810441Y371829D01*
X811799Y373186D01*
X812533Y374960D01*
Y376880D01*
X811799Y378654D01*
X810441Y380011D01*
X808667Y380746D01*
D02*
G37*
G36*
X773039Y380776D02*
X771120D01*
X769346Y380041D01*
X767988Y378683D01*
X767254Y376910D01*
Y374990D01*
X767988Y373216D01*
X769346Y371858D01*
X771120Y371124D01*
X773039D01*
X774813Y371858D01*
X776171Y373216D01*
X776906Y374990D01*
Y376910D01*
X776171Y378683D01*
X774813Y380041D01*
X773039Y380776D01*
D02*
G37*
G36*
X733594Y376844D02*
X731674D01*
X729900Y376109D01*
X728543Y374752D01*
X727808Y372978D01*
Y371058D01*
X728543Y369284D01*
X729900Y367927D01*
X731674Y367192D01*
X733594D01*
X735368Y367927D01*
X736725Y369284D01*
X737460Y371058D01*
Y372978D01*
X736725Y374752D01*
X735368Y376109D01*
X733594Y376844D01*
D02*
G37*
G36*
X711750Y381328D02*
X709830D01*
X708056Y380593D01*
X706699Y379235D01*
X705964Y377462D01*
Y375542D01*
X706699Y373768D01*
X707436Y373031D01*
X706445Y372040D01*
X705710Y370267D01*
Y368347D01*
X706445Y366573D01*
X707735Y365283D01*
X707452Y365000D01*
X706717Y363226D01*
Y361306D01*
X707452Y359533D01*
X708809Y358175D01*
X710583Y357440D01*
X712503D01*
X714277Y358175D01*
X715634Y359533D01*
X716369Y361306D01*
Y363226D01*
X715634Y365000D01*
X714344Y366290D01*
X714627Y366573D01*
X715362Y368347D01*
Y370267D01*
X714627Y372040D01*
X713890Y372777D01*
X714881Y373768D01*
X715616Y375542D01*
Y377462D01*
X714881Y379235D01*
X713524Y380593D01*
X711750Y381328D01*
D02*
G37*
G36*
X793186Y358394D02*
X791266D01*
X789492Y357659D01*
X788135Y356302D01*
X787400Y354528D01*
Y354382D01*
X786227Y353896D01*
X786204Y353918D01*
X784430Y354653D01*
X782511D01*
X780737Y353918D01*
X779379Y352561D01*
X778644Y350787D01*
Y348867D01*
X779379Y347093D01*
X780737Y345736D01*
X782511Y345001D01*
X784430D01*
X786204Y345736D01*
X787562Y347093D01*
X788296Y348867D01*
Y349013D01*
X789470Y349499D01*
X789492Y349477D01*
X791266Y348742D01*
X793186D01*
X794960Y349477D01*
X796317Y350834D01*
X797052Y352608D01*
Y354528D01*
X796317Y356302D01*
X794960Y357659D01*
X793186Y358394D01*
D02*
G37*
G36*
X768069Y357095D02*
X766149D01*
X764376Y356360D01*
X763018Y355002D01*
X762283Y353229D01*
Y351309D01*
X763018Y349535D01*
X764376Y348177D01*
X766149Y347443D01*
X768069D01*
X769843Y348177D01*
X771201Y349535D01*
X771935Y351309D01*
Y353229D01*
X771201Y355002D01*
X769843Y356360D01*
X768069Y357095D01*
D02*
G37*
G36*
X720287Y354527D02*
X718367D01*
X716593Y353792D01*
X715236Y352435D01*
X714501Y350661D01*
Y348741D01*
X715236Y346968D01*
X716593Y345610D01*
X718367Y344875D01*
X720287D01*
X722061Y345610D01*
X723418Y346968D01*
X724153Y348741D01*
Y350661D01*
X723418Y352435D01*
X722061Y353792D01*
X720287Y354527D01*
D02*
G37*
G36*
X733047Y354076D02*
X731127D01*
X729354Y353341D01*
X727996Y351984D01*
X727261Y350210D01*
Y348290D01*
X727996Y346516D01*
X729354Y345159D01*
X731127Y344424D01*
X733047D01*
X734821Y345159D01*
X736179Y346516D01*
X736913Y348290D01*
Y350210D01*
X736179Y351984D01*
X734821Y353341D01*
X733047Y354076D01*
D02*
G37*
%LPD*%
D94*
X706120Y670560D02*
D03*
Y695960D02*
D03*
X680720D02*
D03*
X655320D02*
D03*
X680720Y670560D02*
D03*
D98*
X655320D02*
D03*
D105*
X779780Y796290D02*
X783780Y800290D01*
X763270Y796290D02*
X779780D01*
X783780Y800290D02*
Y805800D01*
X759956Y799604D02*
X763270Y796290D01*
X759956Y799604D02*
Y805624D01*
X759780Y805800D02*
X759956Y805624D01*
D111*
X87630Y493014D02*
D03*
X87884Y465074D02*
D03*
X1259332Y411226D02*
D03*
X1259586Y439166D02*
D03*
X960628Y423418D02*
D03*
Y451612D02*
D03*
X325628Y405892D02*
D03*
Y434594D02*
D03*
X645414Y449072D02*
D03*
Y421386D02*
D03*
X701506Y568960D02*
D03*
X668020D02*
D03*
X701506Y543560D02*
D03*
X668020D02*
D03*
X577850Y668020D02*
D03*
X543560D02*
D03*
X578558Y729963D02*
D03*
Y755363D02*
D03*
X603958Y729963D02*
D03*
X543560Y730250D02*
D03*
D112*
X62230Y493014D02*
D03*
X62484Y465074D02*
D03*
X1233932Y411226D02*
D03*
X1234186Y439166D02*
D03*
X935228Y423418D02*
D03*
Y451612D02*
D03*
X300228Y405892D02*
D03*
Y434594D02*
D03*
X620014Y449072D02*
D03*
Y421386D02*
D03*
X603958Y755363D02*
D03*
D113*
X743780Y805800D02*
D03*
X799780D02*
D03*
X763780Y812800D02*
D03*
X755780D02*
D03*
X747780D02*
D03*
X775780Y805800D02*
D03*
X767780D02*
D03*
X787780Y812800D02*
D03*
X795780D02*
D03*
X759780Y805800D02*
D03*
X783780D02*
D03*
X779780Y812800D02*
D03*
D114*
X813077Y811700D02*
D03*
X730480D02*
D03*
X816680Y855700D02*
D03*
X726880D02*
D03*
D115*
X511556Y622046D02*
D03*
X486156D02*
D03*
Y596646D02*
D03*
X511556D02*
D03*
X486156Y571246D02*
D03*
D116*
X511556D02*
D03*
D117*
X543560Y755650D02*
D03*
X701506Y594360D02*
D03*
X668020D02*
D03*
X543560Y693420D02*
D03*
X577850D02*
D03*
D118*
X750570Y594360D02*
D03*
D119*
X807780Y799300D02*
D03*
D120*
X1543530Y351790D02*
D03*
X306860Y836140D02*
D03*
X1265745Y836140D02*
D03*
X30000Y351790D02*
D03*
D121*
X1089152Y334010D02*
D03*
X1407832Y362884D02*
D03*
X1445971Y316501D02*
D03*
X1409192Y442722D02*
D03*
X1387462Y443078D02*
D03*
X1391920Y330200D02*
D03*
X1402588Y321818D02*
D03*
X1104900Y332486D02*
D03*
X1100074Y442468D02*
D03*
X1107186Y361950D02*
D03*
X1122249Y317092D02*
D03*
X1081278Y319532D02*
D03*
X792226Y353568D02*
D03*
X791972Y435864D02*
D03*
X760730Y319278D02*
D03*
X808475Y318071D02*
D03*
X815740Y317918D02*
D03*
X462883Y321791D02*
D03*
X451707Y321977D02*
D03*
X470662Y444246D02*
D03*
X477520Y357124D02*
D03*
X490602Y317628D02*
D03*
X441452Y318008D02*
D03*
X167640Y447294D02*
D03*
X123569Y317428D02*
D03*
X170953Y317875D02*
D03*
X176553Y322260D02*
D03*
X164592Y321056D02*
D03*
X170540Y364317D02*
D03*
X157275Y360506D02*
D03*
X131826Y319278D02*
D03*
X1372870Y443056D02*
D03*
X1357399Y442397D02*
D03*
X1198372Y417068D02*
D03*
X977336Y416818D02*
D03*
X255016Y423164D02*
D03*
X346197Y416852D02*
D03*
X1021358Y524510D02*
D03*
X990977Y569468D02*
D03*
X720554Y434275D02*
D03*
X141920Y454759D02*
D03*
X149032D02*
D03*
X999150Y569468D02*
D03*
X1006856D02*
D03*
X1233424Y773430D02*
D03*
X1242822D02*
D03*
Y788924D02*
D03*
Y781304D02*
D03*
X1233424Y788924D02*
D03*
Y781304D02*
D03*
X1223264Y788924D02*
D03*
Y781304D02*
D03*
X929825Y623575D02*
D03*
X928370Y598170D02*
D03*
X834023Y605790D02*
D03*
X834390Y637576D02*
D03*
Y665576D02*
D03*
X902970Y577261D02*
D03*
X866562Y577576D02*
D03*
X939800Y562610D02*
D03*
X914400Y695052D02*
D03*
X888855Y577721D02*
D03*
X879591D02*
D03*
X1075446Y743018D02*
D03*
X1094005Y743055D02*
D03*
X737870Y554990D02*
D03*
X834023Y581660D02*
D03*
Y625576D02*
D03*
X834390Y657576D02*
D03*
X866562Y673576D02*
D03*
X929485Y645614D02*
D03*
X928370Y577261D02*
D03*
X926247Y694899D02*
D03*
X891178Y695052D02*
D03*
X1106170Y534670D02*
D03*
X878188Y798497D02*
D03*
X1268984Y693420D02*
D03*
X1258824D02*
D03*
X1227074Y731520D02*
D03*
X1247394Y693420D02*
D03*
X1235964D02*
D03*
X1188326Y504063D02*
D03*
X869082Y729946D02*
D03*
X494030Y741680D02*
D03*
X462280Y764540D02*
D03*
X878659Y729946D02*
D03*
X888331D02*
D03*
X723900Y516890D02*
D03*
X620829Y543512D02*
D03*
X328930Y730250D02*
D03*
X878188Y807882D02*
D03*
X411480Y689610D02*
D03*
X770890Y546100D02*
D03*
X489744Y542202D02*
D03*
X98066Y351428D02*
D03*
X179362Y417962D02*
D03*
X90834Y421518D02*
D03*
X138295Y448136D02*
D03*
X756238Y435622D02*
D03*
X797965Y405768D02*
D03*
X775661Y349967D02*
D03*
X710027Y410088D02*
D03*
X722327Y340360D02*
D03*
X440271Y444326D02*
D03*
X480822Y411734D02*
D03*
X458683Y357463D02*
D03*
X392810Y417708D02*
D03*
X405111Y347980D02*
D03*
X122895Y448158D02*
D03*
X112895Y360680D02*
D03*
X742000Y435442D02*
D03*
X732087Y349250D02*
D03*
X91353Y386004D02*
D03*
X190246Y436880D02*
D03*
X710790Y376502D02*
D03*
X807961Y425480D02*
D03*
X393689Y383617D02*
D03*
X491828Y433423D02*
D03*
X1110973Y413214D02*
D03*
X1088898Y356362D02*
D03*
X1022585Y416696D02*
D03*
X1070046Y443313D02*
D03*
X1034886Y346968D02*
D03*
X1413764Y411226D02*
D03*
X1391877Y356131D02*
D03*
X1337710Y346710D02*
D03*
X1325409Y416438D02*
D03*
X180168Y410636D02*
D03*
X798947Y398349D02*
D03*
X1044668Y355880D02*
D03*
X1054646Y443335D02*
D03*
X1347470Y355600D02*
D03*
X1023465Y382605D02*
D03*
X1119426Y431462D02*
D03*
X481293Y403901D02*
D03*
X1112005Y405899D02*
D03*
X1327342Y382581D02*
D03*
X1421805Y430426D02*
D03*
X148336Y361950D02*
D03*
X767109Y352269D02*
D03*
X450342Y358394D02*
D03*
X1081298Y355092D02*
D03*
X1413764Y404114D02*
D03*
X1384808Y355346D02*
D03*
X576326Y599440D02*
D03*
X566420Y598932D02*
D03*
X710027Y400967D02*
D03*
X90834Y412397D02*
D03*
X392810Y408587D02*
D03*
X1022585Y407575D02*
D03*
X1325409Y407318D02*
D03*
X834519Y592843D02*
D03*
X831342Y554990D02*
D03*
X1167556Y526980D02*
D03*
X1072388Y516890D02*
D03*
X482600Y381762D02*
D03*
X491236Y383680D02*
D03*
X551688Y327660D02*
D03*
X568198Y320294D02*
D03*
X491236Y393700D02*
D03*
X481806D02*
D03*
X481584Y321056D02*
D03*
X393446Y374904D02*
D03*
X553720Y383286D02*
D03*
X463550Y572008D02*
D03*
X393925Y367049D02*
D03*
X868934Y375412D02*
D03*
X452120Y577850D02*
D03*
X798127Y375920D02*
D03*
X807707D02*
D03*
X870966Y325628D02*
D03*
X886968Y319786D02*
D03*
X797982Y391017D02*
D03*
X807707Y391160D02*
D03*
X798297Y319468D02*
D03*
X710536Y369307D02*
D03*
X251714Y387604D02*
D03*
X448564Y593852D02*
D03*
X775208Y317918D02*
D03*
X711543Y362266D02*
D03*
X1486553Y381938D02*
D03*
X438912Y602234D02*
D03*
X181356Y386334D02*
D03*
X190500Y387350D02*
D03*
X235966Y328168D02*
D03*
X251968Y320040D02*
D03*
X180611Y402962D02*
D03*
X188515Y402590D02*
D03*
X92456Y377698D02*
D03*
X1184656Y382778D02*
D03*
X424180Y594360D02*
D03*
X92964Y368808D02*
D03*
X1413510Y382270D02*
D03*
X1423090D02*
D03*
X1506728Y327660D02*
D03*
X1523746Y320294D02*
D03*
X1414276Y397020D02*
D03*
X1423090Y397510D02*
D03*
X1435037Y332521D02*
D03*
X1324788Y373603D02*
D03*
X1412671Y333192D02*
D03*
X1326891Y366269D02*
D03*
X1110686Y382528D02*
D03*
X1120266D02*
D03*
X1188974Y326390D02*
D03*
X1205992Y319024D02*
D03*
X1110510Y397768D02*
D03*
X1120266D02*
D03*
X1115314Y331724D02*
D03*
X1020487Y375122D02*
D03*
X1024382Y368300D02*
D03*
X854710Y703750D02*
D03*
X369570Y685800D02*
D03*
X866562Y694589D02*
D03*
X328422Y739394D02*
D03*
X738124Y689610D02*
D03*
X389382Y751840D02*
D03*
X842247Y695052D02*
D03*
X854710D02*
D03*
X788224Y781050D02*
D03*
X795336D02*
D03*
X450949Y486156D02*
D03*
X853000Y551180D02*
D03*
X443837Y486156D02*
D03*
X845889Y551056D02*
D03*
X768165Y478536D02*
D03*
X889000Y551180D02*
D03*
X761053Y478536D02*
D03*
X881889Y551056D02*
D03*
X231648Y492986D02*
D03*
Y500098D02*
D03*
X1383548Y450850D02*
D03*
X928370Y615132D02*
D03*
X1376436Y450850D02*
D03*
X928370Y608020D02*
D03*
X957684Y643303D02*
D03*
X984250Y773148D02*
D03*
X952655Y648332D02*
D03*
X984250Y766036D02*
D03*
X767673Y780101D02*
D03*
X793750Y617662D02*
D03*
X774785Y780101D02*
D03*
X793750Y624774D02*
D03*
X420949Y452120D02*
D03*
X875803Y557530D02*
D03*
X413837Y452120D02*
D03*
X868691Y557530D02*
D03*
X428837Y477774D02*
D03*
X863803Y543560D02*
D03*
X435949Y477774D02*
D03*
X856691Y543560D02*
D03*
X736016Y443464D02*
D03*
X911803Y552450D02*
D03*
X728982Y444520D02*
D03*
X904691Y552450D02*
D03*
X752955Y464812D02*
D03*
X899803Y543560D02*
D03*
X745844Y464812D02*
D03*
X892691Y543560D02*
D03*
X118973Y489966D02*
D03*
X165354Y494510D02*
D03*
X111861Y489966D02*
D03*
X165354Y501622D02*
D03*
X133828Y483108D02*
D03*
X191008Y486890D02*
D03*
X126716Y483108D02*
D03*
X191008Y494002D02*
D03*
X1353548Y484886D02*
D03*
X955373Y635132D02*
D03*
X1346436Y484886D02*
D03*
X955373Y628020D02*
D03*
X1369813Y474020D02*
D03*
X967994Y623062D02*
D03*
X1362644Y474073D02*
D03*
X967994Y615950D02*
D03*
X1050724Y485144D02*
D03*
X1133094Y497812D02*
D03*
X1043612Y485144D02*
D03*
X1133094Y504924D02*
D03*
X1062566Y476078D02*
D03*
X1100328Y480822D02*
D03*
X1055454Y476078D02*
D03*
X1100328Y487934D02*
D03*
X748284Y769366D02*
D03*
X800100Y596020D02*
D03*
X755396Y769366D02*
D03*
X800100Y603132D02*
D03*
X791972Y736346D02*
D03*
X809026Y608020D02*
D03*
X784860Y736346D02*
D03*
X809026Y615132D02*
D03*
X383286Y554482D02*
D03*
X450850Y547661D02*
D03*
X540686Y538226D02*
D03*
X551434Y525780D02*
D03*
X836930Y801370D02*
D03*
X217170Y387350D02*
D03*
X239620Y433070D02*
D03*
X519430Y383540D02*
D03*
X540890Y429260D02*
D03*
X856840Y421640D02*
D03*
X834390Y375944D02*
D03*
X1150900Y382948D02*
D03*
X1172210Y426720D02*
D03*
X1454150Y382270D02*
D03*
X1475740Y426720D02*
D03*
X1081065Y670601D02*
D03*
X1069635D02*
D03*
X1058205D02*
D03*
X1048045D02*
D03*
X826767Y519775D02*
D03*
X540766Y516128D02*
D03*
X378460Y591820D02*
D03*
X737108Y767588D02*
D03*
X382778Y564388D02*
D03*
X414020Y624840D02*
D03*
X914177Y727710D02*
D03*
X1058199Y688842D02*
D03*
X1097026Y356362D02*
D03*
X1326288Y393757D02*
D03*
X362712Y347472D02*
D03*
X977646Y346710D02*
D03*
X663194Y366014D02*
D03*
X1361440Y318516D02*
D03*
X494030Y732790D02*
D03*
X388201Y429660D02*
D03*
X59436Y368300D02*
D03*
X1279144Y378206D02*
D03*
X1025190Y549366D02*
D03*
X278130Y82550D02*
D03*
X1160780Y321650D02*
D03*
X1231900Y95250D02*
D03*
X1289273Y402318D02*
D03*
X900430Y717969D02*
D03*
X907333Y807963D02*
D03*
X986449Y402575D02*
D03*
X1549750Y82550D02*
D03*
X727456Y321818D02*
D03*
X937427Y521970D02*
D03*
X711568Y777380D02*
D03*
X358648Y634746D02*
D03*
X594893Y95250D02*
D03*
X278130D02*
D03*
X1294480Y83820D02*
D03*
X1167556Y579034D02*
D03*
X389890Y726440D02*
D03*
X1446784Y331978D02*
D03*
X1335024Y355854D02*
D03*
X51499Y398762D02*
D03*
X358764Y361233D02*
D03*
X976884Y382016D02*
D03*
X207010Y321650D02*
D03*
X976630Y96012D02*
D03*
X584200Y419520D02*
D03*
X928097Y521970D02*
D03*
X765556Y748284D02*
D03*
X1057910Y544170D02*
D03*
X673890Y395967D02*
D03*
X824324Y685800D02*
D03*
X1291844Y352552D02*
D03*
X913130Y82550D02*
D03*
X1478630Y321650D02*
D03*
X657860Y83820D02*
D03*
X1046988Y322072D02*
D03*
X1084712Y743055D02*
D03*
X470705Y548415D02*
D03*
X1399286Y356108D02*
D03*
X1280160Y416560D02*
D03*
X685292Y343662D02*
D03*
X1279398Y388874D02*
D03*
X918632Y521970D02*
D03*
X836930Y791210D02*
D03*
X379148Y624766D02*
D03*
X783470Y349827D02*
D03*
X400558Y358394D02*
D03*
X681228Y354076D02*
D03*
X977488Y358044D02*
D03*
X339622Y96012D02*
D03*
X409194Y321310D02*
D03*
X946668Y522007D02*
D03*
X806196Y529336D02*
D03*
X1226952Y703495D02*
D03*
X929485Y636182D02*
D03*
X1017976Y428648D02*
D03*
X842010Y321650D02*
D03*
X22860Y96012D02*
D03*
X976630Y83820D02*
D03*
X836332Y519775D02*
D03*
X328930Y748030D02*
D03*
X1112561Y743018D02*
D03*
X813562Y674116D02*
D03*
X144780Y321310D02*
D03*
X1294480Y96012D02*
D03*
X1175004Y687061D02*
D03*
X369570Y676910D02*
D03*
X929640Y659130D02*
D03*
X500349Y526827D02*
D03*
X358140Y591820D02*
D03*
X54698Y407397D02*
D03*
X61214Y356870D02*
D03*
X1289304Y363982D02*
D03*
X339622Y83820D02*
D03*
X951230Y562950D02*
D03*
X356108Y392938D02*
D03*
X977138Y371094D02*
D03*
X663194Y377698D02*
D03*
X523773Y321650D02*
D03*
X1231900Y82550D02*
D03*
X620646Y594959D02*
D03*
X338148Y624512D02*
D03*
X405130Y624840D02*
D03*
X511048Y554990D02*
D03*
X1103311Y743018D02*
D03*
X45585Y421640D02*
D03*
X657860Y96012D02*
D03*
X22860Y83820D02*
D03*
X1549750Y95250D02*
D03*
X1167556Y560578D02*
D03*
X926024Y727710D02*
D03*
X1228090Y764540D02*
D03*
X902970Y410210D02*
D03*
X723900Y618490D02*
D03*
X705417Y422040D02*
D03*
X664210Y410967D02*
D03*
X594893Y82550D02*
D03*
X913130Y95250D02*
D03*
X706882Y754888D02*
D03*
X1127975Y332348D02*
D03*
X48762Y387932D02*
D03*
X408940Y665480D02*
D03*
X92964Y321818D02*
D03*
X1521460Y417830D02*
D03*
X1226952Y722202D02*
D03*
X558388Y562604D02*
D03*
X583753Y549922D02*
D03*
X583524Y574715D02*
D03*
X583753Y562375D02*
D03*
X558617Y550036D02*
D03*
X571040Y562274D02*
D03*
X558503Y574715D02*
D03*
X570956Y549808D02*
D03*
X571527Y575172D02*
D03*
X1145282Y670721D02*
D03*
X1126639Y670636D02*
D03*
X1135895D02*
D03*
X1145489Y680719D02*
D03*
X1136083Y690200D02*
D03*
X1145413Y690426D02*
D03*
X1126602Y680606D02*
D03*
X1126715Y690463D02*
D03*
X1136121Y680531D02*
D03*
X429466Y572568D02*
D03*
X416898Y547661D02*
D03*
X429694Y547775D02*
D03*
X417469Y573025D02*
D03*
X429694Y560229D02*
D03*
X416981Y560128D02*
D03*
X404444Y572568D02*
D03*
X1226952Y712905D02*
D03*
X1234694Y746760D02*
D03*
X1244854D02*
D03*
X1265174D02*
D03*
X1255014D02*
D03*
X1202690Y822960D02*
D03*
X1212850D02*
D03*
X1192530D02*
D03*
X1182370D02*
D03*
X1087374Y717296D02*
D03*
X1058199Y698438D02*
D03*
X1369962Y399847D02*
D03*
X1352462Y417347D02*
D03*
X1387462D02*
D03*
Y382300D02*
D03*
X1352462Y382347D02*
D03*
X1413161Y419951D02*
D03*
X1320800Y428390D02*
D03*
X1335957Y443230D02*
D03*
X1084638Y443335D02*
D03*
X1033133Y443488D02*
D03*
X1084638Y382557D02*
D03*
Y417605D02*
D03*
X1049638D02*
D03*
X1067138Y400105D02*
D03*
X797778Y413601D02*
D03*
X772080Y375950D02*
D03*
X393689Y394970D02*
D03*
X454863Y444348D02*
D03*
X356674Y403587D02*
D03*
X480562Y421221D02*
D03*
X454863Y383570D02*
D03*
Y418617D02*
D03*
X419863D02*
D03*
X437363Y401117D02*
D03*
X466361Y356870D02*
D03*
X91713Y398780D02*
D03*
X86225Y433470D02*
D03*
X152887Y387380D02*
D03*
Y422427D02*
D03*
X117887D02*
D03*
X135387Y404927D02*
D03*
X164385Y360680D02*
D03*
X737080Y410997D02*
D03*
X154940Y321310D02*
D03*
X1178973Y504063D02*
D03*
X782385Y553580D02*
D03*
X928544Y588020D02*
D03*
X848360Y661321D02*
D03*
Y649821D02*
D03*
X878700Y661576D02*
D03*
Y650076D02*
D03*
X904292D02*
D03*
Y661576D02*
D03*
X891591D02*
D03*
Y650076D02*
D03*
X917356Y661576D02*
D03*
Y650076D02*
D03*
X918247Y626326D02*
D03*
Y637826D02*
D03*
X892483Y626326D02*
D03*
Y637826D02*
D03*
X905183D02*
D03*
Y626326D02*
D03*
X879591D02*
D03*
Y637826D02*
D03*
X866562Y637576D02*
D03*
Y626076D02*
D03*
Y615865D02*
D03*
X848360Y615132D02*
D03*
Y592843D02*
D03*
X918247Y615132D02*
D03*
Y605326D02*
D03*
X905183Y615132D02*
D03*
X811276Y581660D02*
D03*
X769620Y567690D02*
D03*
X366776Y522478D02*
D03*
X328676Y555498D02*
D03*
X343916Y564388D02*
D03*
X443230Y689610D02*
D03*
X494030Y764540D02*
D03*
X107950Y448124D02*
D03*
X737616Y543560D02*
D03*
X1081024Y618490D02*
D03*
X1069594D02*
D03*
X1059434D02*
D03*
X1049274D02*
D03*
X1001268Y515112D02*
D03*
X404330Y560457D02*
D03*
X404558Y547889D02*
D03*
X419927Y382148D02*
D03*
X116078Y383032D02*
D03*
X732634Y372018D02*
D03*
X752719Y395037D02*
D03*
X774986Y408276D02*
D03*
X1023465Y393958D02*
D03*
X178586Y425031D02*
D03*
X1110256Y420290D02*
D03*
X719327Y349701D02*
D03*
X710906Y387678D02*
D03*
X1049211Y380639D02*
D03*
X94870Y359952D02*
D03*
X471170Y321818D02*
D03*
X790032Y317842D02*
D03*
X1031748Y357632D02*
D03*
X1423924Y333248D02*
D03*
X152887Y448158D02*
D03*
X771972Y439189D02*
D03*
X403024Y443486D02*
D03*
X414871Y356870D02*
D03*
X424862Y444348D02*
D03*
X393518Y649160D02*
D03*
X422656Y628142D02*
D03*
X535940Y546975D02*
D03*
D122*
X1065530Y822960D02*
D03*
X1075690D02*
D03*
X1055370D02*
D03*
X1045210D02*
D03*
Y807720D02*
D03*
Y815340D02*
D03*
X1055370Y807720D02*
D03*
Y815340D02*
D03*
X1045210Y778490D02*
D03*
Y786110D02*
D03*
X1055370Y778490D02*
D03*
Y786110D02*
D03*
M02*
