G04*
G04 #@! TF.GenerationSoftware,Altium Limited,Altium Designer,23.10.1 (27)*
G04*
G04 Layer_Color=16711935*
%FSLAX44Y44*%
%MOMM*%
G71*
G04*
G04 #@! TF.SameCoordinates,71CC738A-04A0-4CD5-BBD9-20E7C06DD327*
G04*
G04*
G04 #@! TF.FilePolarity,Positive*
G04*
G01*
G75*
G36*
X755790Y218100D02*
X740390D01*
Y238100D01*
X755790D01*
Y218100D01*
D02*
G37*
G36*
X726390Y238100D02*
X730790D01*
Y218100D01*
X719790D01*
Y221100D01*
X715390D01*
Y246100D01*
X726390D01*
Y238100D01*
D02*
G37*
G36*
X706490Y218100D02*
X695490D01*
Y238100D01*
X706490D01*
Y218100D01*
D02*
G37*
G36*
X689490D02*
X678490D01*
Y238100D01*
X689490D01*
Y218100D01*
D02*
G37*
G36*
X574453D02*
X563452D01*
Y238100D01*
X574453D01*
Y218100D01*
D02*
G37*
G36*
X557453D02*
X546452D01*
Y238100D01*
X557453D01*
Y218100D01*
D02*
G37*
G36*
X537552Y221100D02*
X533153D01*
Y218100D01*
X522152D01*
Y238100D01*
X526553D01*
Y246100D01*
X537552D01*
Y221100D01*
D02*
G37*
G36*
X512552Y218100D02*
X497152D01*
Y238100D01*
X512552D01*
Y218100D01*
D02*
G37*
G36*
X437552D02*
X422152D01*
Y238100D01*
X437552D01*
Y218100D01*
D02*
G37*
G36*
X408153Y238100D02*
X412552D01*
Y218100D01*
X401553D01*
Y221100D01*
X397152D01*
Y246100D01*
X408153D01*
Y238100D01*
D02*
G37*
G36*
X388252Y218100D02*
X377253D01*
Y238100D01*
X388252D01*
Y218100D01*
D02*
G37*
G36*
X371253D02*
X360252D01*
Y238100D01*
X371253D01*
Y218100D01*
D02*
G37*
G36*
X257690D02*
X246690D01*
Y238100D01*
X257690D01*
Y218100D01*
D02*
G37*
G36*
X240690D02*
X229690D01*
Y238100D01*
X240690D01*
Y218100D01*
D02*
G37*
G36*
X220790Y221100D02*
X216390D01*
Y218100D01*
X205390D01*
Y238100D01*
X209790D01*
Y246100D01*
X220790D01*
Y221100D01*
D02*
G37*
G36*
X195790Y218100D02*
X180390D01*
Y238100D01*
X195790D01*
Y218100D01*
D02*
G37*
G36*
X120790D02*
X105390D01*
Y238100D01*
X120790D01*
Y218100D01*
D02*
G37*
G36*
X91390Y238100D02*
X95790D01*
Y218100D01*
X84790D01*
Y221100D01*
X80390D01*
Y246100D01*
X91390D01*
Y238100D01*
D02*
G37*
G36*
X71490Y218100D02*
X60490D01*
Y238100D01*
X71490D01*
Y218100D01*
D02*
G37*
G36*
X54490D02*
X43490D01*
Y238100D01*
X54490D01*
Y218100D01*
D02*
G37*
G36*
X780390Y234100D02*
X780790D01*
Y214100D01*
X761390D01*
Y239100D01*
X780390D01*
Y234100D01*
D02*
G37*
G36*
X491553Y214100D02*
X472152D01*
Y234100D01*
X472552D01*
Y239100D01*
X491553D01*
Y214100D01*
D02*
G37*
G36*
X462152Y234100D02*
X462552D01*
Y214100D01*
X443153D01*
Y239100D01*
X462152D01*
Y234100D01*
D02*
G37*
G36*
X174790Y214100D02*
X155390D01*
Y234100D01*
X155790D01*
Y239100D01*
X174790D01*
Y214100D01*
D02*
G37*
G36*
X145390Y234100D02*
X145790D01*
Y214100D01*
X126390D01*
Y239100D01*
X145390D01*
Y234100D01*
D02*
G37*
G36*
X701390Y195100D02*
X690390D01*
Y215100D01*
X701390D01*
Y195100D01*
D02*
G37*
G36*
X562552D02*
X551553D01*
Y215100D01*
X562552D01*
Y195100D01*
D02*
G37*
G36*
X383153D02*
X372152D01*
Y215100D01*
X383153D01*
Y195100D01*
D02*
G37*
G36*
X245790D02*
X234790D01*
Y215100D01*
X245790D01*
Y195100D01*
D02*
G37*
G36*
X66390D02*
X55390D01*
Y215100D01*
X66390D01*
Y195100D01*
D02*
G37*
G36*
X646590Y145100D02*
X634590D01*
Y208100D01*
X646590D01*
Y145100D01*
D02*
G37*
G36*
X618353D02*
X606353D01*
Y208100D01*
X618353D01*
Y145100D01*
D02*
G37*
G36*
X328353D02*
X316353D01*
Y208100D01*
X328353D01*
Y145100D01*
D02*
G37*
G36*
X301590D02*
X289590D01*
Y208100D01*
X301590D01*
Y145100D01*
D02*
G37*
G36*
X11590D02*
X-410D01*
Y208100D01*
X11590D01*
Y145100D01*
D02*
G37*
G36*
X1529310Y218100D02*
X1518310D01*
Y238100D01*
X1529310D01*
Y218100D01*
D02*
G37*
G36*
X1512310D02*
X1501310D01*
Y238100D01*
X1512310D01*
Y218100D01*
D02*
G37*
G36*
X1492410Y221100D02*
X1488010D01*
Y218100D01*
X1477010D01*
Y238100D01*
X1481410D01*
Y246100D01*
X1492410D01*
Y221100D01*
D02*
G37*
G36*
X1467410Y218100D02*
X1452010D01*
Y238100D01*
X1467410D01*
Y218100D01*
D02*
G37*
G36*
X1392410D02*
X1377010D01*
Y238100D01*
X1392410D01*
Y218100D01*
D02*
G37*
G36*
X1363010Y238100D02*
X1367410D01*
Y218100D01*
X1356410D01*
Y221100D01*
X1352010D01*
Y246100D01*
X1363010D01*
Y238100D01*
D02*
G37*
G36*
X1343110Y218100D02*
X1332110D01*
Y238100D01*
X1343110D01*
Y218100D01*
D02*
G37*
G36*
X1326110D02*
X1315110D01*
Y238100D01*
X1326110D01*
Y218100D01*
D02*
G37*
G36*
X1211460D02*
X1200460D01*
Y238100D01*
X1211460D01*
Y218100D01*
D02*
G37*
G36*
X1194460D02*
X1183460D01*
Y238100D01*
X1194460D01*
Y218100D01*
D02*
G37*
G36*
X1174560Y221100D02*
X1170160D01*
Y218100D01*
X1159160D01*
Y238100D01*
X1163560D01*
Y246100D01*
X1174560D01*
Y221100D01*
D02*
G37*
G36*
X1149560Y218100D02*
X1134160D01*
Y238100D01*
X1149560D01*
Y218100D01*
D02*
G37*
G36*
X1074560D02*
X1059160D01*
Y238100D01*
X1074560D01*
Y218100D01*
D02*
G37*
G36*
X1045160Y238100D02*
X1049560D01*
Y218100D01*
X1038560D01*
Y221100D01*
X1034160D01*
Y246100D01*
X1045160D01*
Y238100D01*
D02*
G37*
G36*
X1025260Y218100D02*
X1014260D01*
Y238100D01*
X1025260D01*
Y218100D01*
D02*
G37*
G36*
X1008260D02*
X997260D01*
Y238100D01*
X1008260D01*
Y218100D01*
D02*
G37*
G36*
X892690D02*
X881690D01*
Y238100D01*
X892690D01*
Y218100D01*
D02*
G37*
G36*
X875690D02*
X864690D01*
Y238100D01*
X875690D01*
Y218100D01*
D02*
G37*
G36*
X855790Y221100D02*
X851390D01*
Y218100D01*
X840390D01*
Y238100D01*
X844790D01*
Y246100D01*
X855790D01*
Y221100D01*
D02*
G37*
G36*
X830790Y218100D02*
X815390D01*
Y238100D01*
X830790D01*
Y218100D01*
D02*
G37*
G36*
X1446410Y214100D02*
X1427010D01*
Y234100D01*
X1427410D01*
Y239100D01*
X1446410D01*
Y214100D01*
D02*
G37*
G36*
X1417010Y234100D02*
X1417410D01*
Y214100D01*
X1398010D01*
Y239100D01*
X1417010D01*
Y234100D01*
D02*
G37*
G36*
X1128560Y214100D02*
X1109160D01*
Y234100D01*
X1109560D01*
Y239100D01*
X1128560D01*
Y214100D01*
D02*
G37*
G36*
X1099160Y234100D02*
X1099560D01*
Y214100D01*
X1080160D01*
Y239100D01*
X1099160D01*
Y234100D01*
D02*
G37*
G36*
X809790Y214100D02*
X790390D01*
Y234100D01*
X790790D01*
Y239100D01*
X809790D01*
Y214100D01*
D02*
G37*
G36*
X1517410Y195100D02*
X1506410D01*
Y215100D01*
X1517410D01*
Y195100D01*
D02*
G37*
G36*
X1338010D02*
X1327010D01*
Y215100D01*
X1338010D01*
Y195100D01*
D02*
G37*
G36*
X1199560D02*
X1188560D01*
Y215100D01*
X1199560D01*
Y195100D01*
D02*
G37*
G36*
X1020160D02*
X1009160D01*
Y215100D01*
X1020160D01*
Y195100D01*
D02*
G37*
G36*
X880790D02*
X869790D01*
Y215100D01*
X880790D01*
Y195100D01*
D02*
G37*
G36*
X1573210Y145100D02*
X1561210D01*
Y208100D01*
X1573210D01*
Y145100D01*
D02*
G37*
G36*
X1283210D02*
X1271210D01*
Y208100D01*
X1283210D01*
Y145100D01*
D02*
G37*
G36*
X1255360D02*
X1243360D01*
Y208100D01*
X1255360D01*
Y145100D01*
D02*
G37*
G36*
X965360D02*
X953360D01*
Y208100D01*
X965360D01*
Y145100D01*
D02*
G37*
G36*
X936590D02*
X924590D01*
Y208100D01*
X936590D01*
Y145100D01*
D02*
G37*
M02*
