G04*
G04 #@! TF.GenerationSoftware,Altium Limited,Altium Designer,23.10.1 (27)*
G04*
G04 Layer_Color=128*
%FSLAX44Y44*%
%MOMM*%
G71*
G04*
G04 #@! TF.SameCoordinates,71CC738A-04A0-4CD5-BBD9-20E7C06DD327*
G04*
G04*
G04 #@! TF.FilePolarity,Positive*
G04*
G01*
G75*
%ADD13C,0.1270*%
D13*
X82130Y493014D02*
X93130D01*
X87630Y487514D02*
Y498514D01*
X56730Y493014D02*
X67730D01*
X62230Y487514D02*
Y498514D01*
X82384Y465074D02*
X93384D01*
X87884Y459574D02*
Y470574D01*
X56984Y465074D02*
X67984D01*
X62484Y459574D02*
Y470574D01*
X1253832Y411226D02*
X1264832D01*
X1259332Y405726D02*
Y416726D01*
X1228432Y411226D02*
X1239432D01*
X1233932Y405726D02*
Y416726D01*
X1254086Y439166D02*
X1265086D01*
X1259586Y433666D02*
Y444666D01*
X1228686Y439166D02*
X1239686D01*
X1234186Y433666D02*
Y444666D01*
X955128Y423418D02*
X966128D01*
X960628Y417918D02*
Y428918D01*
X929728Y423418D02*
X940728D01*
X935228Y417918D02*
Y428918D01*
X955128Y451612D02*
X966128D01*
X960628Y446112D02*
Y457112D01*
X929728Y451612D02*
X940728D01*
X935228Y446112D02*
Y457112D01*
X320128Y405892D02*
X331128D01*
X325628Y400392D02*
Y411392D01*
X294728Y405892D02*
X305728D01*
X300228Y400392D02*
Y411392D01*
X320128Y434594D02*
X331128D01*
X325628Y429094D02*
Y440094D01*
X294728Y434594D02*
X305728D01*
X300228Y429094D02*
Y440094D01*
X639914Y449072D02*
X650914D01*
X645414Y443572D02*
Y454572D01*
X614514Y449072D02*
X625514D01*
X620014Y443572D02*
Y454572D01*
X639914Y421386D02*
X650914D01*
X645414Y415886D02*
Y426886D01*
X614514Y421386D02*
X625514D01*
X620014Y415886D02*
Y426886D01*
X741780Y805800D02*
X745780D01*
X743780Y803800D02*
Y807800D01*
X797780Y805800D02*
X801780D01*
X799780Y803800D02*
Y807800D01*
X810578Y811700D02*
X815577D01*
X813077Y809200D02*
Y814200D01*
X727980Y811700D02*
X732980D01*
X730480Y809200D02*
Y814200D01*
X814180Y855700D02*
X819180D01*
X816680Y853200D02*
Y858200D01*
X724380Y855700D02*
X729380D01*
X726880Y853200D02*
Y858200D01*
X507106Y622046D02*
X516006D01*
X511556Y617596D02*
Y626496D01*
X481706Y622046D02*
X490606D01*
X486156Y617596D02*
Y626496D01*
X701675Y670560D02*
X710565D01*
X706120Y666115D02*
Y675005D01*
X696006Y568960D02*
X707006D01*
X701506Y563460D02*
Y574460D01*
X701675Y695960D02*
X710565D01*
X706120Y691515D02*
Y700405D01*
X662520Y568960D02*
X673520D01*
X668020Y563460D02*
Y574460D01*
X507106Y571246D02*
X516006D01*
X511556Y566796D02*
Y575696D01*
X481706Y596646D02*
X490606D01*
X486156Y592196D02*
Y601096D01*
X538060Y755650D02*
X549060D01*
X543560Y750150D02*
Y761150D01*
X696006Y594360D02*
X707006D01*
X701506Y588860D02*
Y599860D01*
X696006Y543560D02*
X707006D01*
X701506Y538060D02*
Y549060D01*
X662520Y594360D02*
X673520D01*
X668020Y588860D02*
Y599860D01*
X662520Y543560D02*
X673520D01*
X668020Y538060D02*
Y549060D01*
X761780Y812800D02*
X765780D01*
X763780Y810800D02*
Y814800D01*
X572350Y668020D02*
X583350D01*
X577850Y662520D02*
Y673520D01*
X538060Y668020D02*
X549060D01*
X543560Y662520D02*
Y673520D01*
X745070Y594360D02*
X756070D01*
X750570Y588860D02*
Y599860D01*
X538060Y693420D02*
X549060D01*
X543560Y687920D02*
Y698920D01*
X572350Y693420D02*
X583350D01*
X577850Y687920D02*
Y698920D01*
X507106Y596646D02*
X516006D01*
X511556Y592196D02*
Y601096D01*
X676275Y695960D02*
X685165D01*
X680720Y691515D02*
Y700405D01*
X650875Y695960D02*
X659765D01*
X655320Y691515D02*
Y700405D01*
X573058Y729963D02*
X584058D01*
X578558Y724463D02*
Y735463D01*
X598458Y755363D02*
X609458D01*
X603958Y749863D02*
Y760863D01*
X573058Y755363D02*
X584058D01*
X578558Y749863D02*
Y760863D01*
X676275Y670560D02*
X685165D01*
X680720Y666115D02*
Y675005D01*
X650875Y670560D02*
X659765D01*
X655320Y666115D02*
Y675005D01*
X598458Y729963D02*
X609458D01*
X603958Y724463D02*
Y735463D01*
X753780Y812800D02*
X757780D01*
X755780Y810800D02*
Y814800D01*
X745780Y812800D02*
X749780D01*
X747780Y810800D02*
Y814800D01*
X773780Y805800D02*
X777780D01*
X775780Y803800D02*
Y807800D01*
X765780Y805800D02*
X769780D01*
X767780Y803800D02*
Y807800D01*
X785780Y812800D02*
X789780D01*
X787780Y810800D02*
Y814800D01*
X793780Y812800D02*
X797780D01*
X795780Y810800D02*
Y814800D01*
X481706Y571246D02*
X490606D01*
X486156Y566796D02*
Y575696D01*
X757780Y805800D02*
X761780D01*
X759780Y803800D02*
Y807800D01*
X781780Y805800D02*
X785780D01*
X783780Y803800D02*
Y807800D01*
X732530Y799300D02*
X739030D01*
X735780Y796050D02*
Y802550D01*
X777780Y812800D02*
X781780D01*
X779780Y810800D02*
Y814800D01*
X804530Y799300D02*
X811030D01*
X807780Y796050D02*
Y802550D01*
X538060Y730250D02*
X549060D01*
X543560Y724750D02*
Y735750D01*
X1531030Y351790D02*
X1556030D01*
X1543530Y339290D02*
Y364290D01*
X294360Y836140D02*
X319360D01*
X306860Y823640D02*
Y848640D01*
X1253245Y836140D02*
X1278245D01*
X1265745Y823640D02*
Y848640D01*
X17500Y351790D02*
X42500D01*
X30000Y339290D02*
Y364290D01*
X1087882Y334010D02*
X1090422D01*
X1089152Y332740D02*
Y335280D01*
X1406562Y362884D02*
X1409102D01*
X1407832Y361614D02*
Y364154D01*
X1444701Y316501D02*
X1447241D01*
X1445971Y315231D02*
Y317771D01*
X1407922Y442722D02*
X1410462D01*
X1409192Y441452D02*
Y443992D01*
X1386192Y443078D02*
X1388732D01*
X1387462Y441808D02*
Y444348D01*
X1390650Y330200D02*
X1393190D01*
X1391920Y328930D02*
Y331470D01*
X1401318Y321818D02*
X1403858D01*
X1402588Y320548D02*
Y323088D01*
X1103630Y332486D02*
X1106170D01*
X1104900Y331216D02*
Y333756D01*
X1098804Y442468D02*
X1101344D01*
X1100074Y441198D02*
Y443738D01*
X1105916Y361950D02*
X1108456D01*
X1107186Y360680D02*
Y363220D01*
X1120978Y317092D02*
X1123519D01*
X1122249Y315822D02*
Y318362D01*
X1080008Y319532D02*
X1082548D01*
X1081278Y318262D02*
Y320802D01*
X790956Y353568D02*
X793496D01*
X792226Y352298D02*
Y354838D01*
X790702Y435864D02*
X793242D01*
X791972Y434594D02*
Y437134D01*
X759460Y319278D02*
X762000D01*
X760730Y318008D02*
Y320548D01*
X807205Y318071D02*
X809745D01*
X808475Y316801D02*
Y319341D01*
X814470Y317918D02*
X817010D01*
X815740Y316648D02*
Y319188D01*
X461613Y321791D02*
X464153D01*
X462883Y320521D02*
Y323061D01*
X450437Y321977D02*
X452977D01*
X451707Y320707D02*
Y323247D01*
X469392Y444246D02*
X471932D01*
X470662Y442976D02*
Y445516D01*
X476250Y357124D02*
X478790D01*
X477520Y355854D02*
Y358394D01*
X489333Y317628D02*
X491872D01*
X490602Y316359D02*
Y318899D01*
X440182Y318008D02*
X442722D01*
X441452Y316738D02*
Y319278D01*
X166370Y447294D02*
X168910D01*
X167640Y446024D02*
Y448564D01*
X122299Y317428D02*
X124839D01*
X123569Y316158D02*
Y318698D01*
X169683Y317875D02*
X172223D01*
X170953Y316605D02*
Y319145D01*
X175282Y322260D02*
X177822D01*
X176553Y320990D02*
Y323530D01*
X163322Y321056D02*
X165862D01*
X164592Y319786D02*
Y322326D01*
X169270Y364317D02*
X171810D01*
X170540Y363047D02*
Y365587D01*
X156005Y360506D02*
X158545D01*
X157275Y359236D02*
Y361776D01*
X130556Y319278D02*
X133096D01*
X131826Y318008D02*
Y320548D01*
X1371600Y443056D02*
X1374140D01*
X1372870Y441786D02*
Y444326D01*
X1356129Y442397D02*
X1358669D01*
X1357399Y441127D02*
Y443667D01*
X1197102Y417068D02*
X1199642D01*
X1198372Y415798D02*
Y418338D01*
X976066Y416818D02*
X978606D01*
X977336Y415548D02*
Y418088D01*
X253746Y423164D02*
X256286D01*
X255016Y421894D02*
Y424434D01*
X344927Y416852D02*
X347467D01*
X346197Y415582D02*
Y418121D01*
X1020089Y524510D02*
X1022628D01*
X1021358Y523240D02*
Y525780D01*
X989707Y569468D02*
X992247D01*
X990977Y568198D02*
Y570738D01*
X719284Y434275D02*
X721824D01*
X720554Y433005D02*
Y435545D01*
X140650Y454759D02*
X143190D01*
X141920Y453489D02*
Y456029D01*
X147762Y454759D02*
X150302D01*
X149032Y453489D02*
Y456029D01*
X997880Y569468D02*
X1000420D01*
X999150Y568198D02*
Y570738D01*
X1005586Y569468D02*
X1008126D01*
X1006856Y568198D02*
Y570738D01*
X1232154Y773430D02*
X1234694D01*
X1233424Y772160D02*
Y774700D01*
X1241552Y773430D02*
X1244092D01*
X1242822Y772160D02*
Y774700D01*
X1241552Y788924D02*
X1244092D01*
X1242822Y787654D02*
Y790194D01*
X1241552Y781304D02*
X1244092D01*
X1242822Y780034D02*
Y782574D01*
X1232154Y788924D02*
X1234694D01*
X1233424Y787654D02*
Y790194D01*
X1232154Y781304D02*
X1234694D01*
X1233424Y780034D02*
Y782574D01*
X1221994Y788924D02*
X1224534D01*
X1223264Y787654D02*
Y790194D01*
X1221994Y781304D02*
X1224534D01*
X1223264Y780034D02*
Y782574D01*
X928555Y623575D02*
X931095D01*
X929825Y622305D02*
Y624845D01*
X927100Y598170D02*
X929640D01*
X928370Y596900D02*
Y599440D01*
X832753Y605790D02*
X835293D01*
X834023Y604520D02*
Y607060D01*
X833120Y637576D02*
X835660D01*
X834390Y636306D02*
Y638846D01*
X833120Y665576D02*
X835660D01*
X834390Y664306D02*
Y666846D01*
X901700Y577261D02*
X904240D01*
X902970Y575991D02*
Y578531D01*
X865292Y577576D02*
X867832D01*
X866562Y576306D02*
Y578846D01*
X938530Y562610D02*
X941070D01*
X939800Y561340D02*
Y563880D01*
X913130Y695052D02*
X915670D01*
X914400Y693782D02*
Y696322D01*
X887585Y577721D02*
X890125D01*
X888855Y576451D02*
Y578991D01*
X878321Y577721D02*
X880861D01*
X879591Y576451D02*
Y578991D01*
X1074176Y743018D02*
X1076717D01*
X1075446Y741748D02*
Y744288D01*
X1092735Y743055D02*
X1095275D01*
X1094005Y741785D02*
Y744325D01*
X736600Y554990D02*
X739140D01*
X737870Y553720D02*
Y556260D01*
X832753Y581660D02*
X835293D01*
X834023Y580390D02*
Y582930D01*
X832753Y625576D02*
X835293D01*
X834023Y624306D02*
Y626846D01*
X833120Y657576D02*
X835660D01*
X834390Y656306D02*
Y658846D01*
X865292Y673576D02*
X867832D01*
X866562Y672306D02*
Y674846D01*
X928215Y645614D02*
X930755D01*
X929485Y644344D02*
Y646884D01*
X927100Y577261D02*
X929640D01*
X928370Y575991D02*
Y578531D01*
X924977Y694899D02*
X927517D01*
X926247Y693629D02*
Y696169D01*
X889908Y695052D02*
X892448D01*
X891178Y693782D02*
Y696322D01*
X1104900Y534670D02*
X1107440D01*
X1106170Y533400D02*
Y535940D01*
X876918Y798497D02*
X879458D01*
X878188Y797227D02*
Y799767D01*
X1267714Y693420D02*
X1270254D01*
X1268984Y692150D02*
Y694690D01*
X1257554Y693420D02*
X1260094D01*
X1258824Y692150D02*
Y694690D01*
X1225804Y731520D02*
X1228344D01*
X1227074Y730250D02*
Y732790D01*
X1246124Y693420D02*
X1248664D01*
X1247394Y692150D02*
Y694690D01*
X1234694Y693420D02*
X1237234D01*
X1235964Y692150D02*
Y694690D01*
X1187056Y504063D02*
X1189596D01*
X1188326Y502793D02*
Y505333D01*
X867812Y729946D02*
X870352D01*
X869082Y728676D02*
Y731216D01*
X492760Y741680D02*
X495300D01*
X494030Y740410D02*
Y742950D01*
X461010Y764540D02*
X463550D01*
X462280Y763270D02*
Y765810D01*
X877389Y729946D02*
X879929D01*
X878659Y728676D02*
Y731216D01*
X887060Y729946D02*
X889601D01*
X888331Y728676D02*
Y731216D01*
X722630Y516890D02*
X725170D01*
X723900Y515620D02*
Y518160D01*
X619559Y543512D02*
X622099D01*
X620829Y542242D02*
Y544782D01*
X327660Y730250D02*
X330200D01*
X328930Y728980D02*
Y731520D01*
X876918Y807882D02*
X879458D01*
X878188Y806612D02*
Y809152D01*
X410210Y689610D02*
X412750D01*
X411480Y688340D02*
Y690880D01*
X769620Y546100D02*
X772160D01*
X770890Y544830D02*
Y547370D01*
X488474Y542202D02*
X491014D01*
X489744Y540933D02*
Y543473D01*
X96796Y351428D02*
X99336D01*
X98066Y350158D02*
Y352698D01*
X178092Y417962D02*
X180632D01*
X179362Y416692D02*
Y419231D01*
X89564Y421518D02*
X92104D01*
X90834Y420248D02*
Y422788D01*
X137025Y448136D02*
X139565D01*
X138295Y446866D02*
Y449406D01*
X754968Y435622D02*
X757508D01*
X756238Y434352D02*
Y436892D01*
X796695Y405768D02*
X799236D01*
X797965Y404498D02*
Y407038D01*
X774391Y349967D02*
X776931D01*
X775661Y348697D02*
Y351237D01*
X708757Y410088D02*
X711297D01*
X710027Y408818D02*
Y411358D01*
X721057Y340360D02*
X723597D01*
X722327Y339090D02*
Y341630D01*
X439001Y444326D02*
X441541D01*
X440271Y443056D02*
Y445596D01*
X479552Y411734D02*
X482092D01*
X480822Y410464D02*
Y413004D01*
X457413Y357463D02*
X459953D01*
X458683Y356193D02*
Y358733D01*
X391540Y417708D02*
X394080D01*
X392810Y416438D02*
Y418978D01*
X403841Y347980D02*
X406381D01*
X405111Y346710D02*
Y349250D01*
X121625Y448158D02*
X124165D01*
X122895Y446888D02*
Y449428D01*
X111625Y360680D02*
X114165D01*
X112895Y359410D02*
Y361950D01*
X740730Y435442D02*
X743270D01*
X742000Y434172D02*
Y436712D01*
X730817Y349250D02*
X733357D01*
X732087Y347980D02*
Y350520D01*
X90083Y386004D02*
X92622D01*
X91353Y384734D02*
Y387274D01*
X188976Y436880D02*
X191516D01*
X190246Y435610D02*
Y438150D01*
X709520Y376502D02*
X712060D01*
X710790Y375232D02*
Y377772D01*
X806691Y425480D02*
X809230D01*
X807961Y424211D02*
Y426750D01*
X392419Y383617D02*
X394959D01*
X393689Y382347D02*
Y384887D01*
X490559Y433423D02*
X493098D01*
X491828Y432153D02*
Y434693D01*
X1109703Y413214D02*
X1112243D01*
X1110973Y411945D02*
Y414484D01*
X1087628Y356362D02*
X1090168D01*
X1088898Y355092D02*
Y357632D01*
X1021315Y416696D02*
X1023855D01*
X1022585Y415426D02*
Y417966D01*
X1068776Y443313D02*
X1071316D01*
X1070046Y442043D02*
Y444584D01*
X1033616Y346968D02*
X1036156D01*
X1034886Y345698D02*
Y348238D01*
X1412494Y411226D02*
X1415034D01*
X1413764Y409956D02*
Y412496D01*
X1390607Y356131D02*
X1393147D01*
X1391877Y354861D02*
Y357401D01*
X1336440Y346710D02*
X1338980D01*
X1337710Y345440D02*
Y347980D01*
X1324139Y416438D02*
X1326679D01*
X1325409Y415168D02*
Y417708D01*
X178898Y410636D02*
X181438D01*
X180168Y409366D02*
Y411906D01*
X797677Y398349D02*
X800217D01*
X798947Y397079D02*
Y399619D01*
X1043398Y355880D02*
X1045938D01*
X1044668Y354610D02*
Y357150D01*
X1053376Y443335D02*
X1055916D01*
X1054646Y442065D02*
Y444605D01*
X1346200Y355600D02*
X1348740D01*
X1347470Y354330D02*
Y356870D01*
X1022195Y382605D02*
X1024734D01*
X1023465Y381335D02*
Y383875D01*
X1118156Y431462D02*
X1120696D01*
X1119426Y430192D02*
Y432732D01*
X480023Y403901D02*
X482563D01*
X481293Y402631D02*
Y405171D01*
X1110735Y405899D02*
X1113275D01*
X1112005Y404629D02*
Y407169D01*
X1326072Y382581D02*
X1328612D01*
X1327342Y381311D02*
Y383851D01*
X1420535Y430426D02*
X1423075D01*
X1421805Y429156D02*
Y431697D01*
X147066Y361950D02*
X149606D01*
X148336Y360680D02*
Y363220D01*
X765839Y352269D02*
X768379D01*
X767109Y350999D02*
Y353539D01*
X449072Y358394D02*
X451612D01*
X450342Y357124D02*
Y359664D01*
X1080028Y355092D02*
X1082568D01*
X1081298Y353822D02*
Y356362D01*
X1412494Y404114D02*
X1415034D01*
X1413764Y402844D02*
Y405384D01*
X1383538Y355346D02*
X1386078D01*
X1384808Y354076D02*
Y356616D01*
X575056Y599440D02*
X577596D01*
X576326Y598170D02*
Y600710D01*
X565150Y598932D02*
X567690D01*
X566420Y597662D02*
Y600202D01*
X708757Y400967D02*
X711297D01*
X710027Y399697D02*
Y402238D01*
X89564Y412397D02*
X92104D01*
X90834Y411128D02*
Y413667D01*
X391540Y408587D02*
X394080D01*
X392810Y407318D02*
Y409857D01*
X1021315Y407575D02*
X1023855D01*
X1022585Y406305D02*
Y408845D01*
X1324139Y407318D02*
X1326679D01*
X1325409Y406048D02*
Y408587D01*
X833249Y592843D02*
X835789D01*
X834519Y591573D02*
Y594113D01*
X830072Y554990D02*
X832612D01*
X831342Y553720D02*
Y556260D01*
X1166286Y526980D02*
X1168826D01*
X1167556Y525710D02*
Y528250D01*
X1071118Y516890D02*
X1073658D01*
X1072388Y515620D02*
Y518160D01*
X481330Y381762D02*
X483870D01*
X482600Y380492D02*
Y383032D01*
X489966Y383680D02*
X492506D01*
X491236Y382410D02*
Y384950D01*
X550418Y327660D02*
X552958D01*
X551688Y326390D02*
Y328930D01*
X566928Y320294D02*
X569468D01*
X568198Y319024D02*
Y321564D01*
X489966Y393700D02*
X492506D01*
X491236Y392430D02*
Y394970D01*
X480536Y393700D02*
X483076D01*
X481806Y392430D02*
Y394970D01*
X480314Y321056D02*
X482854D01*
X481584Y319786D02*
Y322326D01*
X392176Y374904D02*
X394716D01*
X393446Y373634D02*
Y376174D01*
X552450Y383286D02*
X554990D01*
X553720Y382016D02*
Y384556D01*
X462280Y572008D02*
X464820D01*
X463550Y570738D02*
Y573278D01*
X392655Y367049D02*
X395195D01*
X393925Y365779D02*
Y368319D01*
X867664Y375412D02*
X870204D01*
X868934Y374142D02*
Y376682D01*
X450850Y577850D02*
X453390D01*
X452120Y576580D02*
Y579120D01*
X796857Y375920D02*
X799397D01*
X798127Y374650D02*
Y377190D01*
X806437Y375920D02*
X808977D01*
X807707Y374650D02*
Y377190D01*
X869696Y325628D02*
X872236D01*
X870966Y324358D02*
Y326898D01*
X885698Y319786D02*
X888238D01*
X886968Y318516D02*
Y321056D01*
X796712Y391017D02*
X799252D01*
X797982Y389748D02*
Y392287D01*
X806437Y391160D02*
X808977D01*
X807707Y389890D02*
Y392430D01*
X797027Y319468D02*
X799567D01*
X798297Y318198D02*
Y320738D01*
X709266Y369307D02*
X711806D01*
X710536Y368037D02*
Y370577D01*
X250444Y387604D02*
X252984D01*
X251714Y386334D02*
Y388874D01*
X447294Y593852D02*
X449834D01*
X448564Y592582D02*
Y595122D01*
X773938Y317918D02*
X776478D01*
X775208Y316648D02*
Y319188D01*
X710273Y362266D02*
X712813D01*
X711543Y360996D02*
Y363536D01*
X1485283Y381938D02*
X1487823D01*
X1486553Y380668D02*
Y383208D01*
X437642Y602234D02*
X440182D01*
X438912Y600964D02*
Y603504D01*
X180086Y386334D02*
X182626D01*
X181356Y385064D02*
Y387604D01*
X189230Y387350D02*
X191770D01*
X190500Y386080D02*
Y388620D01*
X234696Y328168D02*
X237236D01*
X235966Y326898D02*
Y329438D01*
X250698Y320040D02*
X253238D01*
X251968Y318770D02*
Y321310D01*
X179341Y402962D02*
X181881D01*
X180611Y401692D02*
Y404232D01*
X187245Y402590D02*
X189785D01*
X188515Y401320D02*
Y403860D01*
X91186Y377698D02*
X93726D01*
X92456Y376428D02*
Y378968D01*
X1183386Y382778D02*
X1185926D01*
X1184656Y381508D02*
Y384048D01*
X422910Y594360D02*
X425450D01*
X424180Y593090D02*
Y595630D01*
X91694Y368808D02*
X94234D01*
X92964Y367538D02*
Y370078D01*
X1412240Y382270D02*
X1414780D01*
X1413510Y381000D02*
Y383540D01*
X1421820Y382270D02*
X1424360D01*
X1423090Y381000D02*
Y383540D01*
X1505458Y327660D02*
X1507998D01*
X1506728Y326390D02*
Y328930D01*
X1522476Y320294D02*
X1525016D01*
X1523746Y319024D02*
Y321564D01*
X1413006Y397020D02*
X1415546D01*
X1414276Y395751D02*
Y398290D01*
X1421820Y397510D02*
X1424360D01*
X1423090Y396240D02*
Y398780D01*
X1433767Y332521D02*
X1436307D01*
X1435037Y331251D02*
Y333791D01*
X1323518Y373603D02*
X1326058D01*
X1324788Y372333D02*
Y374873D01*
X1411401Y333192D02*
X1413941D01*
X1412671Y331922D02*
Y334462D01*
X1325621Y366269D02*
X1328161D01*
X1326891Y364999D02*
Y367539D01*
X1109416Y382528D02*
X1111956D01*
X1110686Y381258D02*
Y383798D01*
X1118996Y382528D02*
X1121536D01*
X1120266Y381258D02*
Y383798D01*
X1187704Y326390D02*
X1190244D01*
X1188974Y325120D02*
Y327660D01*
X1204722Y319024D02*
X1207262D01*
X1205992Y317754D02*
Y320294D01*
X1109240Y397768D02*
X1111780D01*
X1110510Y396498D02*
Y399038D01*
X1118996Y397768D02*
X1121536D01*
X1120266Y396498D02*
Y399038D01*
X1114044Y331724D02*
X1116584D01*
X1115314Y330454D02*
Y332994D01*
X1019217Y375122D02*
X1021757D01*
X1020487Y373853D02*
Y376393D01*
X1023112Y368300D02*
X1025652D01*
X1024382Y367030D02*
Y369570D01*
X853440Y703750D02*
X855980D01*
X854710Y702480D02*
Y705020D01*
X368300Y685800D02*
X370840D01*
X369570Y684530D02*
Y687070D01*
X865292Y694589D02*
X867832D01*
X866562Y693319D02*
Y695859D01*
X327152Y739394D02*
X329692D01*
X328422Y738124D02*
Y740664D01*
X736854Y689610D02*
X739394D01*
X738124Y688340D02*
Y690880D01*
X388112Y751840D02*
X390652D01*
X389382Y750570D02*
Y753110D01*
X840977Y695052D02*
X843517D01*
X842247Y693782D02*
Y696322D01*
X853440Y695052D02*
X855980D01*
X854710Y693782D02*
Y696322D01*
X786954Y781050D02*
X789494D01*
X788224Y779780D02*
Y782320D01*
X794066Y781050D02*
X796606D01*
X795336Y779780D02*
Y782320D01*
X449679Y486156D02*
X452219D01*
X450949Y484886D02*
Y487426D01*
X851730Y551180D02*
X854270D01*
X853000Y549910D02*
Y552450D01*
X442567Y486156D02*
X445107D01*
X443837Y484886D02*
Y487426D01*
X844619Y551056D02*
X847159D01*
X845889Y549786D02*
Y552326D01*
X766895Y478536D02*
X769435D01*
X768165Y477266D02*
Y479806D01*
X887730Y551180D02*
X890270D01*
X889000Y549910D02*
Y552450D01*
X759783Y478536D02*
X762323D01*
X761053Y477266D02*
Y479806D01*
X880619Y551056D02*
X883159D01*
X881889Y549786D02*
Y552326D01*
X230378Y492986D02*
X232918D01*
X231648Y491716D02*
Y494256D01*
X230378Y500098D02*
X232918D01*
X231648Y498828D02*
Y501368D01*
X1382278Y450850D02*
X1384818D01*
X1383548Y449580D02*
Y452120D01*
X927100Y615132D02*
X929640D01*
X928370Y613862D02*
Y616402D01*
X1375166Y450850D02*
X1377706D01*
X1376436Y449580D02*
Y452120D01*
X927100Y608020D02*
X929640D01*
X928370Y606750D02*
Y609290D01*
X956414Y643303D02*
X958954D01*
X957684Y642033D02*
Y644573D01*
X982980Y773148D02*
X985520D01*
X984250Y771878D02*
Y774418D01*
X951385Y648332D02*
X953925D01*
X952655Y647062D02*
Y649602D01*
X982980Y766036D02*
X985520D01*
X984250Y764766D02*
Y767306D01*
X766403Y780101D02*
X768943D01*
X767673Y778831D02*
Y781372D01*
X792480Y617662D02*
X795020D01*
X793750Y616392D02*
Y618932D01*
X773515Y780101D02*
X776055D01*
X774785Y778831D02*
Y781372D01*
X792480Y624774D02*
X795020D01*
X793750Y623504D02*
Y626044D01*
X419679Y452120D02*
X422219D01*
X420949Y450850D02*
Y453390D01*
X874533Y557530D02*
X877073D01*
X875803Y556260D02*
Y558800D01*
X412567Y452120D02*
X415107D01*
X413837Y450850D02*
Y453390D01*
X867421Y557530D02*
X869961D01*
X868691Y556260D02*
Y558800D01*
X427567Y477774D02*
X430107D01*
X428837Y476504D02*
Y479044D01*
X862533Y543560D02*
X865073D01*
X863803Y542290D02*
Y544830D01*
X434679Y477774D02*
X437219D01*
X435949Y476504D02*
Y479044D01*
X855421Y543560D02*
X857961D01*
X856691Y542290D02*
Y544830D01*
X734746Y443464D02*
X737286D01*
X736016Y442194D02*
Y444734D01*
X910533Y552450D02*
X913073D01*
X911803Y551180D02*
Y553720D01*
X727712Y444520D02*
X730253D01*
X728982Y443250D02*
Y445790D01*
X903421Y552450D02*
X905961D01*
X904691Y551180D02*
Y553720D01*
X751685Y464812D02*
X754225D01*
X752955Y463542D02*
Y466082D01*
X898533Y543560D02*
X901073D01*
X899803Y542290D02*
Y544830D01*
X744574Y464812D02*
X747113D01*
X745844Y463542D02*
Y466082D01*
X891421Y543560D02*
X893961D01*
X892691Y542290D02*
Y544830D01*
X117703Y489966D02*
X120243D01*
X118973Y488696D02*
Y491236D01*
X164084Y494510D02*
X166624D01*
X165354Y493240D02*
Y495780D01*
X110591Y489966D02*
X113131D01*
X111861Y488696D02*
Y491236D01*
X164084Y501622D02*
X166624D01*
X165354Y500352D02*
Y502892D01*
X132558Y483108D02*
X135098D01*
X133828Y481838D02*
Y484378D01*
X189738Y486890D02*
X192278D01*
X191008Y485620D02*
Y488160D01*
X125446Y483108D02*
X127986D01*
X126716Y481838D02*
Y484378D01*
X189738Y494002D02*
X192278D01*
X191008Y492732D02*
Y495272D01*
X1352278Y484886D02*
X1354818D01*
X1353548Y483616D02*
Y486156D01*
X954103Y635132D02*
X956643D01*
X955373Y633862D02*
Y636402D01*
X1345166Y484886D02*
X1347706D01*
X1346436Y483616D02*
Y486156D01*
X954103Y628020D02*
X956643D01*
X955373Y626750D02*
Y629290D01*
X1368543Y474020D02*
X1371083D01*
X1369813Y472750D02*
Y475290D01*
X966724Y623062D02*
X969264D01*
X967994Y621792D02*
Y624332D01*
X1361374Y474073D02*
X1363914D01*
X1362644Y472803D02*
Y475343D01*
X966724Y615950D02*
X969264D01*
X967994Y614680D02*
Y617220D01*
X1049454Y485144D02*
X1051994D01*
X1050724Y483874D02*
Y486414D01*
X1131824Y497812D02*
X1134364D01*
X1133094Y496542D02*
Y499082D01*
X1042342Y485144D02*
X1044882D01*
X1043612Y483874D02*
Y486414D01*
X1131824Y504924D02*
X1134364D01*
X1133094Y503654D02*
Y506194D01*
X1061296Y476078D02*
X1063836D01*
X1062566Y474808D02*
Y477348D01*
X1099058Y480822D02*
X1101598D01*
X1100328Y479552D02*
Y482092D01*
X1054184Y476078D02*
X1056724D01*
X1055454Y474808D02*
Y477348D01*
X1099058Y487934D02*
X1101598D01*
X1100328Y486664D02*
Y489204D01*
X747014Y769366D02*
X749554D01*
X748284Y768096D02*
Y770636D01*
X798830Y596020D02*
X801370D01*
X800100Y594750D02*
Y597290D01*
X754126Y769366D02*
X756666D01*
X755396Y768096D02*
Y770636D01*
X798830Y603132D02*
X801370D01*
X800100Y601862D02*
Y604402D01*
X790702Y736346D02*
X793242D01*
X791972Y735076D02*
Y737616D01*
X807756Y608020D02*
X810296D01*
X809026Y606750D02*
Y609290D01*
X783590Y736346D02*
X786130D01*
X784860Y735076D02*
Y737616D01*
X807756Y615132D02*
X810296D01*
X809026Y613862D02*
Y616402D01*
X382016Y554482D02*
X384556D01*
X383286Y553212D02*
Y555752D01*
X449580Y547661D02*
X452120D01*
X450850Y546391D02*
Y548931D01*
X539416Y538226D02*
X541956D01*
X540686Y536956D02*
Y539496D01*
X550164Y525780D02*
X552704D01*
X551434Y524510D02*
Y527050D01*
X1064514Y822960D02*
X1066546D01*
X1065530Y821944D02*
Y823976D01*
X1074674Y822960D02*
X1076706D01*
X1075690Y821944D02*
Y823976D01*
X1054354Y822960D02*
X1056386D01*
X1055370Y821944D02*
Y823976D01*
X1044194Y822960D02*
X1046226D01*
X1045210Y821944D02*
Y823976D01*
X1044194Y807720D02*
X1046226D01*
X1045210Y806704D02*
Y808736D01*
X1044194Y815340D02*
X1046226D01*
X1045210Y814324D02*
Y816356D01*
X1054354Y807720D02*
X1056386D01*
X1055370Y806704D02*
Y808736D01*
X1054354Y815340D02*
X1056386D01*
X1055370Y814324D02*
Y816356D01*
X835660Y801370D02*
X838200D01*
X836930Y800100D02*
Y802640D01*
X215900Y387350D02*
X218440D01*
X217170Y386080D02*
Y388620D01*
X238350Y433070D02*
X240890D01*
X239620Y431800D02*
Y434340D01*
X518160Y383540D02*
X520700D01*
X519430Y382270D02*
Y384810D01*
X539620Y429260D02*
X542160D01*
X540890Y427990D02*
Y430530D01*
X855570Y421640D02*
X858110D01*
X856840Y420370D02*
Y422910D01*
X833120Y375944D02*
X835660D01*
X834390Y374674D02*
Y377214D01*
X1149630Y382948D02*
X1152170D01*
X1150900Y381678D02*
Y384218D01*
X1170940Y426720D02*
X1173480D01*
X1172210Y425450D02*
Y427990D01*
X1452880Y382270D02*
X1455420D01*
X1454150Y381000D02*
Y383540D01*
X1474470Y426720D02*
X1477010D01*
X1475740Y425450D02*
Y427990D01*
X1079795Y670601D02*
X1082335D01*
X1081065Y669331D02*
Y671871D01*
X1068365Y670601D02*
X1070905D01*
X1069635Y669331D02*
Y671871D01*
X1056935Y670601D02*
X1059475D01*
X1058205Y669331D02*
Y671871D01*
X1046775Y670601D02*
X1049315D01*
X1048045Y669331D02*
Y671871D01*
X825497Y519775D02*
X828037D01*
X826767Y518505D02*
Y521045D01*
X539496Y516128D02*
X542036D01*
X540766Y514858D02*
Y517398D01*
X377190Y591820D02*
X379730D01*
X378460Y590550D02*
Y593090D01*
X735838Y767588D02*
X738378D01*
X737108Y766318D02*
Y768858D01*
X381508Y564388D02*
X384048D01*
X382778Y563118D02*
Y565658D01*
X412750Y624840D02*
X415290D01*
X414020Y623570D02*
Y626110D01*
X912907Y727710D02*
X915447D01*
X914177Y726440D02*
Y728980D01*
X1056929Y688842D02*
X1059469D01*
X1058199Y687572D02*
Y690112D01*
X1095756Y356362D02*
X1098296D01*
X1097026Y355092D02*
Y357632D01*
X1325018Y393757D02*
X1327558D01*
X1326288Y392487D02*
Y395027D01*
X361442Y347472D02*
X363982D01*
X362712Y346202D02*
Y348742D01*
X976376Y346710D02*
X978916D01*
X977646Y345440D02*
Y347980D01*
X661924Y366014D02*
X664464D01*
X663194Y364744D02*
Y367284D01*
X1360170Y318516D02*
X1362710D01*
X1361440Y317246D02*
Y319786D01*
X492760Y732790D02*
X495300D01*
X494030Y731520D02*
Y734060D01*
X386931Y429660D02*
X389471D01*
X388201Y428390D02*
Y430930D01*
X58166Y368300D02*
X60706D01*
X59436Y367030D02*
Y369570D01*
X1277874Y378206D02*
X1280414D01*
X1279144Y376936D02*
Y379476D01*
X1023920Y549366D02*
X1026460D01*
X1025190Y548096D02*
Y550635D01*
X276860Y82550D02*
X279400D01*
X278130Y81280D02*
Y83820D01*
X1159510Y321650D02*
X1162050D01*
X1160780Y320380D02*
Y322920D01*
X1230630Y95250D02*
X1233170D01*
X1231900Y93980D02*
Y96520D01*
X1288003Y402318D02*
X1290543D01*
X1289273Y401048D02*
Y403587D01*
X899160Y717969D02*
X901700D01*
X900430Y716699D02*
Y719239D01*
X906062Y807963D02*
X908603D01*
X907333Y806693D02*
Y809233D01*
X985179Y402575D02*
X987719D01*
X986449Y401305D02*
Y403845D01*
X1548480Y82550D02*
X1551020D01*
X1549750Y81280D02*
Y83820D01*
X726186Y321818D02*
X728726D01*
X727456Y320548D02*
Y323088D01*
X936157Y521970D02*
X938697D01*
X937427Y520700D02*
Y523240D01*
X710298Y777380D02*
X712838D01*
X711568Y776110D02*
Y778650D01*
X357378Y634746D02*
X359918D01*
X358648Y633476D02*
Y636016D01*
X593623Y95250D02*
X596162D01*
X594893Y93980D02*
Y96520D01*
X276860Y95250D02*
X279400D01*
X278130Y93980D02*
Y96520D01*
X1293210Y83820D02*
X1295750D01*
X1294480Y82550D02*
Y85090D01*
X1166286Y579034D02*
X1168826D01*
X1167556Y577764D02*
Y580304D01*
X388620Y726440D02*
X391160D01*
X389890Y725170D02*
Y727710D01*
X1445514Y331978D02*
X1448054D01*
X1446784Y330708D02*
Y333248D01*
X1333754Y355854D02*
X1336294D01*
X1335024Y354584D02*
Y357124D01*
X50229Y398762D02*
X52769D01*
X51499Y397492D02*
Y400032D01*
X357494Y361233D02*
X360034D01*
X358764Y359963D02*
Y362503D01*
X975614Y382016D02*
X978154D01*
X976884Y380746D02*
Y383286D01*
X205740Y321650D02*
X208280D01*
X207010Y320380D02*
Y322920D01*
X975360Y96012D02*
X977900D01*
X976630Y94742D02*
Y97282D01*
X582930Y419520D02*
X585470D01*
X584200Y418250D02*
Y420790D01*
X926827Y521970D02*
X929367D01*
X928097Y520700D02*
Y523240D01*
X764286Y748284D02*
X766826D01*
X765556Y747014D02*
Y749554D01*
X1056640Y544170D02*
X1059180D01*
X1057910Y542900D02*
Y545440D01*
X672620Y395967D02*
X675160D01*
X673890Y394697D02*
Y397238D01*
X823054Y685800D02*
X825594D01*
X824324Y684530D02*
Y687070D01*
X1290574Y352552D02*
X1293114D01*
X1291844Y351282D02*
Y353822D01*
X911860Y82550D02*
X914400D01*
X913130Y81280D02*
Y83820D01*
X1477360Y321650D02*
X1479900D01*
X1478630Y320380D02*
Y322920D01*
X656590Y83820D02*
X659130D01*
X657860Y82550D02*
Y85090D01*
X1045718Y322072D02*
X1048258D01*
X1046988Y320802D02*
Y323342D01*
X1083442Y743055D02*
X1085982D01*
X1084712Y741785D02*
Y744325D01*
X469435Y548415D02*
X471975D01*
X470705Y547145D02*
Y549685D01*
X1398016Y356108D02*
X1400556D01*
X1399286Y354838D02*
Y357378D01*
X1278890Y416560D02*
X1281430D01*
X1280160Y415290D02*
Y417830D01*
X684022Y343662D02*
X686562D01*
X685292Y342392D02*
Y344932D01*
X1278128Y388874D02*
X1280668D01*
X1279398Y387604D02*
Y390144D01*
X917362Y521970D02*
X919902D01*
X918632Y520700D02*
Y523240D01*
X835660Y791210D02*
X838200D01*
X836930Y789940D02*
Y792480D01*
X377878Y624766D02*
X380418D01*
X379148Y623496D02*
Y626036D01*
X782200Y349827D02*
X784740D01*
X783470Y348557D02*
Y351097D01*
X399288Y358394D02*
X401828D01*
X400558Y357124D02*
Y359664D01*
X679958Y354076D02*
X682498D01*
X681228Y352806D02*
Y355346D01*
X976218Y358044D02*
X978758D01*
X977488Y356774D02*
Y359314D01*
X338353Y96012D02*
X340892D01*
X339622Y94742D02*
Y97282D01*
X407924Y321310D02*
X410464D01*
X409194Y320040D02*
Y322580D01*
X945398Y522007D02*
X947938D01*
X946668Y520737D02*
Y523277D01*
X804926Y529336D02*
X807466D01*
X806196Y528066D02*
Y530606D01*
X1225682Y703495D02*
X1228222D01*
X1226952Y702225D02*
Y704765D01*
X928215Y636182D02*
X930755D01*
X929485Y634912D02*
Y637452D01*
X1016706Y428648D02*
X1019246D01*
X1017976Y427378D02*
Y429918D01*
X840740Y321650D02*
X843280D01*
X842010Y320380D02*
Y322920D01*
X21590Y96012D02*
X24130D01*
X22860Y94742D02*
Y97282D01*
X975360Y83820D02*
X977900D01*
X976630Y82550D02*
Y85090D01*
X835062Y519775D02*
X837602D01*
X836332Y518505D02*
Y521045D01*
X327660Y748030D02*
X330200D01*
X328930Y746760D02*
Y749300D01*
X1111291Y743018D02*
X1113831D01*
X1112561Y741748D02*
Y744288D01*
X812292Y674116D02*
X814832D01*
X813562Y672846D02*
Y675386D01*
X143510Y321310D02*
X146050D01*
X144780Y320040D02*
Y322580D01*
X1293210Y96012D02*
X1295750D01*
X1294480Y94742D02*
Y97282D01*
X1173734Y687061D02*
X1176274D01*
X1175004Y685791D02*
Y688331D01*
X368300Y676910D02*
X370840D01*
X369570Y675640D02*
Y678180D01*
X928370Y659130D02*
X930910D01*
X929640Y657860D02*
Y660400D01*
X499079Y526827D02*
X501619D01*
X500349Y525557D02*
Y528097D01*
X356870Y591820D02*
X359410D01*
X358140Y590550D02*
Y593090D01*
X53428Y407397D02*
X55968D01*
X54698Y406128D02*
Y408667D01*
X59944Y356870D02*
X62484D01*
X61214Y355600D02*
Y358140D01*
X1288034Y363982D02*
X1290574D01*
X1289304Y362712D02*
Y365252D01*
X338353Y83820D02*
X340892D01*
X339622Y82550D02*
Y85090D01*
X949960Y562950D02*
X952500D01*
X951230Y561680D02*
Y564220D01*
X354838Y392938D02*
X357378D01*
X356108Y391668D02*
Y394208D01*
X975868Y371094D02*
X978408D01*
X977138Y369824D02*
Y372364D01*
X661924Y377698D02*
X664464D01*
X663194Y376428D02*
Y378968D01*
X522503Y321650D02*
X525042D01*
X523773Y320380D02*
Y322920D01*
X1230630Y82550D02*
X1233170D01*
X1231900Y81280D02*
Y83820D01*
X619376Y594959D02*
X621916D01*
X620646Y593689D02*
Y596229D01*
X336878Y624512D02*
X339418D01*
X338148Y623242D02*
Y625782D01*
X403860Y624840D02*
X406400D01*
X405130Y623570D02*
Y626110D01*
X509778Y554990D02*
X512318D01*
X511048Y553720D02*
Y556260D01*
X1102041Y743018D02*
X1104581D01*
X1103311Y741748D02*
Y744288D01*
X44315Y421640D02*
X46855D01*
X45585Y420370D02*
Y422910D01*
X656590Y96012D02*
X659130D01*
X657860Y94742D02*
Y97282D01*
X21590Y83820D02*
X24130D01*
X22860Y82550D02*
Y85090D01*
X1548480Y95250D02*
X1551020D01*
X1549750Y93980D02*
Y96520D01*
X1166286Y560578D02*
X1168826D01*
X1167556Y559308D02*
Y561848D01*
X924754Y727710D02*
X927294D01*
X926024Y726440D02*
Y728980D01*
X1226820Y764540D02*
X1229360D01*
X1228090Y763270D02*
Y765810D01*
X901700Y410210D02*
X904240D01*
X902970Y408940D02*
Y411480D01*
X722630Y618490D02*
X725170D01*
X723900Y617220D02*
Y619760D01*
X704147Y422040D02*
X706687D01*
X705417Y420770D02*
Y423310D01*
X662940Y410967D02*
X665480D01*
X664210Y409697D02*
Y412238D01*
X593623Y82550D02*
X596162D01*
X594893Y81280D02*
Y83820D01*
X911860Y95250D02*
X914400D01*
X913130Y93980D02*
Y96520D01*
X705612Y754888D02*
X708152D01*
X706882Y753618D02*
Y756158D01*
X1126705Y332348D02*
X1129245D01*
X1127975Y331078D02*
Y333618D01*
X47492Y387932D02*
X50032D01*
X48762Y386662D02*
Y389202D01*
X407670Y665480D02*
X410210D01*
X408940Y664210D02*
Y666750D01*
X91694Y321818D02*
X94234D01*
X92964Y320548D02*
Y323088D01*
X1520190Y417830D02*
X1522730D01*
X1521460Y416560D02*
Y419100D01*
X1225682Y722202D02*
X1228222D01*
X1226952Y720932D02*
Y723472D01*
X557118Y562604D02*
X559658D01*
X558388Y561334D02*
Y563874D01*
X582483Y549922D02*
X585023D01*
X583753Y548652D02*
Y551192D01*
X582254Y574715D02*
X584794D01*
X583524Y573445D02*
Y575985D01*
X582483Y562375D02*
X585023D01*
X583753Y561105D02*
Y563646D01*
X557347Y550036D02*
X559887D01*
X558617Y548766D02*
Y551306D01*
X569770Y562274D02*
X572309D01*
X571040Y561004D02*
Y563544D01*
X557233Y574715D02*
X559772D01*
X558503Y573445D02*
Y575985D01*
X569686Y549808D02*
X572226D01*
X570956Y548537D02*
Y551077D01*
X570257Y575172D02*
X572798D01*
X571527Y573902D02*
Y576442D01*
X1144012Y670721D02*
X1146552D01*
X1145282Y669451D02*
Y671991D01*
X1125369Y670636D02*
X1127909D01*
X1126639Y669366D02*
Y671906D01*
X1134625Y670636D02*
X1137165D01*
X1135895Y669366D02*
Y671906D01*
X1144219Y680719D02*
X1146759D01*
X1145489Y679449D02*
Y681989D01*
X1134813Y690200D02*
X1137353D01*
X1136083Y688930D02*
Y691470D01*
X1144143Y690426D02*
X1146683D01*
X1145413Y689156D02*
Y691696D01*
X1125332Y680606D02*
X1127872D01*
X1126602Y679336D02*
Y681876D01*
X1125445Y690463D02*
X1127985D01*
X1126715Y689193D02*
Y691733D01*
X1134850Y680531D02*
X1137391D01*
X1136121Y679261D02*
Y681801D01*
X428196Y572568D02*
X430736D01*
X429466Y571298D02*
Y573838D01*
X415628Y547661D02*
X418168D01*
X416898Y546391D02*
Y548931D01*
X428424Y547775D02*
X430964D01*
X429694Y546505D02*
Y549045D01*
X416199Y573025D02*
X418739D01*
X417469Y571755D02*
Y574295D01*
X428424Y560229D02*
X430964D01*
X429694Y558959D02*
Y561499D01*
X415711Y560128D02*
X418251D01*
X416981Y558858D02*
Y561398D01*
X403174Y572568D02*
X405714D01*
X404444Y571298D02*
Y573838D01*
X1225682Y712905D02*
X1228222D01*
X1226952Y711635D02*
Y714175D01*
X1233424Y746760D02*
X1235964D01*
X1234694Y745490D02*
Y748030D01*
X1243584Y746760D02*
X1246124D01*
X1244854Y745490D02*
Y748030D01*
X1263904Y746760D02*
X1266444D01*
X1265174Y745490D02*
Y748030D01*
X1253744Y746760D02*
X1256284D01*
X1255014Y745490D02*
Y748030D01*
X1201420Y822960D02*
X1203960D01*
X1202690Y821690D02*
Y824230D01*
X1211580Y822960D02*
X1214120D01*
X1212850Y821690D02*
Y824230D01*
X1191260Y822960D02*
X1193800D01*
X1192530Y821690D02*
Y824230D01*
X1181100Y822960D02*
X1183640D01*
X1182370Y821690D02*
Y824230D01*
X1086104Y717296D02*
X1088644D01*
X1087374Y716026D02*
Y718566D01*
X1056929Y698438D02*
X1059469D01*
X1058199Y697168D02*
Y699707D01*
X1368692Y399847D02*
X1371232D01*
X1369962Y398577D02*
Y401117D01*
X1351192Y417347D02*
X1353732D01*
X1352462Y416077D02*
Y418617D01*
X1386192Y417347D02*
X1388732D01*
X1387462Y416077D02*
Y418617D01*
X1386192Y382300D02*
X1388732D01*
X1387462Y381030D02*
Y383570D01*
X1351192Y382347D02*
X1353732D01*
X1352462Y381077D02*
Y383617D01*
X1411891Y419951D02*
X1414431D01*
X1413161Y418681D02*
Y421221D01*
X1319530Y428390D02*
X1322070D01*
X1320800Y427120D02*
Y429660D01*
X1334687Y443230D02*
X1337227D01*
X1335957Y441960D02*
Y444500D01*
X1083368Y443335D02*
X1085908D01*
X1084638Y442065D02*
Y444605D01*
X1031863Y443488D02*
X1034403D01*
X1033133Y442218D02*
Y444758D01*
X1083368Y382557D02*
X1085908D01*
X1084638Y381287D02*
Y383828D01*
X1083368Y417605D02*
X1085908D01*
X1084638Y416335D02*
Y418875D01*
X1048368Y417605D02*
X1050908D01*
X1049638Y416335D02*
Y418875D01*
X1065868Y400105D02*
X1068408D01*
X1067138Y398835D02*
Y401375D01*
X796508Y413601D02*
X799048D01*
X797778Y412331D02*
Y414871D01*
X770810Y375950D02*
X773350D01*
X772080Y374680D02*
Y377220D01*
X392419Y394970D02*
X394959D01*
X393689Y393700D02*
Y396240D01*
X453593Y444348D02*
X456133D01*
X454863Y443078D02*
Y445618D01*
X355404Y403587D02*
X357944D01*
X356674Y402318D02*
Y404857D01*
X479292Y421221D02*
X481832D01*
X480562Y419951D02*
Y422491D01*
X453593Y383570D02*
X456133D01*
X454863Y382300D02*
Y384840D01*
X453593Y418617D02*
X456133D01*
X454863Y417347D02*
Y419887D01*
X418593Y418617D02*
X421133D01*
X419863Y417347D02*
Y419887D01*
X436093Y401117D02*
X438633D01*
X437363Y399847D02*
Y402387D01*
X465091Y356870D02*
X467631D01*
X466361Y355600D02*
Y358140D01*
X90443Y398780D02*
X92983D01*
X91713Y397510D02*
Y400050D01*
X84955Y433470D02*
X87495D01*
X86225Y432200D02*
Y434740D01*
X151617Y387380D02*
X154157D01*
X152887Y386110D02*
Y388650D01*
X151617Y422427D02*
X154157D01*
X152887Y421157D02*
Y423697D01*
X116617Y422427D02*
X119157D01*
X117887Y421157D02*
Y423697D01*
X134117Y404927D02*
X136657D01*
X135387Y403657D02*
Y406197D01*
X163115Y360680D02*
X165655D01*
X164385Y359410D02*
Y361950D01*
X735810Y410997D02*
X738350D01*
X737080Y409727D02*
Y412267D01*
X153670Y321310D02*
X156210D01*
X154940Y320040D02*
Y322580D01*
X1177703Y504063D02*
X1180244D01*
X1178973Y502793D02*
Y505333D01*
X781115Y553580D02*
X783655D01*
X782385Y552310D02*
Y554850D01*
X927274Y588020D02*
X929815D01*
X928544Y586750D02*
Y589290D01*
X847090Y661321D02*
X849630D01*
X848360Y660051D02*
Y662591D01*
X847090Y649821D02*
X849630D01*
X848360Y648551D02*
Y651091D01*
X877430Y661576D02*
X879970D01*
X878700Y660306D02*
Y662846D01*
X877430Y650076D02*
X879970D01*
X878700Y648806D02*
Y651346D01*
X903021Y650076D02*
X905562D01*
X904292Y648806D02*
Y651346D01*
X903021Y661576D02*
X905562D01*
X904292Y660306D02*
Y662846D01*
X890322Y661576D02*
X892861D01*
X891591Y660306D02*
Y662846D01*
X890322Y650076D02*
X892861D01*
X891591Y648806D02*
Y651346D01*
X916086Y661576D02*
X918626D01*
X917356Y660306D02*
Y662846D01*
X916086Y650076D02*
X918626D01*
X917356Y648806D02*
Y651346D01*
X916977Y626326D02*
X919517D01*
X918247Y625056D02*
Y627596D01*
X916977Y637826D02*
X919517D01*
X918247Y636556D02*
Y639096D01*
X891213Y626326D02*
X893753D01*
X892483Y625056D02*
Y627596D01*
X891213Y637826D02*
X893753D01*
X892483Y636556D02*
Y639096D01*
X903913Y637826D02*
X906453D01*
X905183Y636556D02*
Y639096D01*
X903913Y626326D02*
X906453D01*
X905183Y625056D02*
Y627596D01*
X878321Y626326D02*
X880861D01*
X879591Y625056D02*
Y627596D01*
X878321Y637826D02*
X880861D01*
X879591Y636556D02*
Y639096D01*
X865292Y637576D02*
X867832D01*
X866562Y636306D02*
Y638846D01*
X865292Y626076D02*
X867832D01*
X866562Y624806D02*
Y627346D01*
X865292Y615865D02*
X867832D01*
X866562Y614595D02*
Y617135D01*
X847090Y615132D02*
X849630D01*
X848360Y613862D02*
Y616402D01*
X847090Y592843D02*
X849630D01*
X848360Y591573D02*
Y594113D01*
X916977Y615132D02*
X919517D01*
X918247Y613862D02*
Y616402D01*
X916977Y605326D02*
X919517D01*
X918247Y604056D02*
Y606596D01*
X903913Y615132D02*
X906453D01*
X905183Y613862D02*
Y616402D01*
X810006Y581660D02*
X812546D01*
X811276Y580390D02*
Y582930D01*
X768350Y567690D02*
X770890D01*
X769620Y566420D02*
Y568960D01*
X1044194Y778490D02*
X1046226D01*
X1045210Y777474D02*
Y779506D01*
X1044194Y786110D02*
X1046226D01*
X1045210Y785094D02*
Y787126D01*
X1054354Y778490D02*
X1056386D01*
X1055370Y777474D02*
Y779506D01*
X1054354Y786110D02*
X1056386D01*
X1055370Y785094D02*
Y787126D01*
X365506Y522478D02*
X368046D01*
X366776Y521208D02*
Y523748D01*
X327406Y555498D02*
X329946D01*
X328676Y554228D02*
Y556768D01*
X342646Y564388D02*
X345186D01*
X343916Y563118D02*
Y565658D01*
X441960Y689610D02*
X444500D01*
X443230Y688340D02*
Y690880D01*
X492760Y764540D02*
X495300D01*
X494030Y763270D02*
Y765810D01*
X106680Y448124D02*
X109220D01*
X107950Y446854D02*
Y449394D01*
X736346Y543560D02*
X738886D01*
X737616Y542290D02*
Y544830D01*
X1079754Y618490D02*
X1082294D01*
X1081024Y617220D02*
Y619760D01*
X1068324Y618490D02*
X1070864D01*
X1069594Y617220D02*
Y619760D01*
X1058164Y618490D02*
X1060704D01*
X1059434Y617220D02*
Y619760D01*
X1048004Y618490D02*
X1050544D01*
X1049274Y617220D02*
Y619760D01*
X999998Y515112D02*
X1002538D01*
X1001268Y513842D02*
Y516382D01*
X403060Y560457D02*
X405600D01*
X404330Y559187D02*
Y561727D01*
X403288Y547889D02*
X405828D01*
X404558Y546619D02*
Y549159D01*
X418657Y382148D02*
X421197D01*
X419927Y380878D02*
Y383418D01*
X114808Y383032D02*
X117348D01*
X116078Y381762D02*
Y384302D01*
X731364Y372018D02*
X733904D01*
X732634Y370748D02*
Y373288D01*
X751449Y395037D02*
X753989D01*
X752719Y393767D02*
Y396307D01*
X773716Y408276D02*
X776255D01*
X774986Y407006D02*
Y409546D01*
X1022195Y393958D02*
X1024734D01*
X1023465Y392688D02*
Y395228D01*
X177316Y425031D02*
X179856D01*
X178586Y423761D02*
Y426301D01*
X1108986Y420290D02*
X1111525D01*
X1110256Y419020D02*
Y421560D01*
X718057Y349701D02*
X720597D01*
X719327Y348431D02*
Y350971D01*
X709636Y387678D02*
X712176D01*
X710906Y386408D02*
Y388948D01*
X1047941Y380639D02*
X1050481D01*
X1049211Y379369D02*
Y381909D01*
X93600Y359952D02*
X96140D01*
X94870Y358682D02*
Y361222D01*
X469900Y321818D02*
X472440D01*
X471170Y320548D02*
Y323088D01*
X788762Y317842D02*
X791302D01*
X790032Y316572D02*
Y319112D01*
X1030478Y357632D02*
X1033018D01*
X1031748Y356362D02*
Y358902D01*
X1422654Y333248D02*
X1425194D01*
X1423924Y331978D02*
Y334518D01*
X151617Y448158D02*
X154157D01*
X152887Y446888D02*
Y449428D01*
X770702Y439189D02*
X773242D01*
X771972Y437919D02*
Y440459D01*
X401754Y443486D02*
X404294D01*
X403024Y442216D02*
Y444756D01*
X413601Y356870D02*
X416141D01*
X414871Y355600D02*
Y358140D01*
X423592Y444348D02*
X426132D01*
X424862Y443078D02*
Y445618D01*
X392248Y649160D02*
X394789D01*
X393518Y647890D02*
Y650430D01*
X421386Y628142D02*
X423926D01*
X422656Y626872D02*
Y629412D01*
X534670Y546975D02*
X537210D01*
X535940Y545705D02*
Y548245D01*
M02*
