G04*
G04 #@! TF.GenerationSoftware,Altium Limited,Altium Designer,23.10.1 (27)*
G04*
G04 Layer_Physical_Order=3*
G04 Layer_Color=12839342*
%FSLAX44Y44*%
%MOMM*%
G71*
G04*
G04 #@! TF.SameCoordinates,71CC738A-04A0-4CD5-BBD9-20E7C06DD327*
G04*
G04*
G04 #@! TF.FilePolarity,Positive*
G04*
G01*
G75*
%ADD94C,1.3970*%
%ADD98R,1.3970X1.3970*%
%ADD105C,0.5080*%
%ADD106C,0.2540*%
%ADD107C,0.2032*%
%ADD111C,1.7000*%
%ADD112R,1.7000X1.7000*%
%ADD113C,0.6000*%
%ADD114O,0.8000X1.4000*%
%ADD115C,1.3980*%
%ADD116R,1.3980X1.3980*%
%ADD117R,1.7000X1.7000*%
G04:AMPARAMS|DCode=118|XSize=1.7mm|YSize=1.7mm|CornerRadius=0mm|HoleSize=0mm|Usage=FLASHONLY|Rotation=90.000|XOffset=0mm|YOffset=0mm|HoleType=Round|Shape=Octagon|*
%AMOCTAGOND118*
4,1,8,0.4250,0.8500,-0.4250,0.8500,-0.8500,0.4250,-0.8500,-0.4250,-0.4250,-0.8500,0.4250,-0.8500,0.8500,-0.4250,0.8500,0.4250,0.4250,0.8500,0.0*
%
%ADD118OCTAGOND118*%

%ADD119C,0.6500*%
%ADD120C,0.3000*%
%ADD121C,0.5588*%
%ADD122C,0.4572*%
%ADD123C,1.0160*%
%ADD124C,0.1354*%
G36*
X1288542Y851916D02*
Y661416D01*
X1284986Y657860D01*
X1042416D01*
X1030986Y669290D01*
Y763270D01*
X1014222Y780034D01*
X967994D01*
X946658Y758698D01*
Y627126D01*
X940054Y620522D01*
X925576D01*
X923798Y618744D01*
Y617660D01*
X922528Y617408D01*
X922338Y617865D01*
X920981Y619223D01*
X919207Y619958D01*
X917287D01*
X915514Y619223D01*
X914156Y617865D01*
X913421Y616092D01*
Y614172D01*
X914156Y612398D01*
X915514Y611040D01*
X915814Y610916D01*
Y609541D01*
X915514Y609417D01*
X914156Y608059D01*
X913421Y606286D01*
Y604366D01*
X914156Y602592D01*
X915514Y601234D01*
X917287Y600500D01*
X919207D01*
X920981Y601234D01*
X922338Y602592D01*
X923073Y604366D01*
Y604878D01*
X924020Y605198D01*
X924343Y605221D01*
X925636Y603928D01*
X927410Y603194D01*
X929330D01*
X929466Y603250D01*
X941070D01*
X952754Y591566D01*
X1006233Y591566D01*
X1014222Y583577D01*
Y557631D01*
X1008380Y551788D01*
X935381D01*
X920496Y566674D01*
X919767D01*
X918891Y567259D01*
X917702Y567496D01*
X840740D01*
X839551Y567259D01*
X838675Y566674D01*
X831596D01*
X818896Y579374D01*
Y589735D01*
X830802D01*
X831786Y588751D01*
X833559Y588017D01*
X835479D01*
X837253Y588751D01*
X838611Y590109D01*
X839345Y591883D01*
Y593803D01*
X838611Y595577D01*
X837253Y596934D01*
X835479Y597669D01*
X833559D01*
X831786Y596934D01*
X830802Y595951D01*
X818896D01*
Y609654D01*
X821187Y611945D01*
X821786Y612841D01*
X821996Y613898D01*
Y630052D01*
X821786Y631109D01*
X821187Y632005D01*
X818896Y634296D01*
Y682974D01*
X820166Y683226D01*
X820232Y683066D01*
X821590Y681709D01*
X823364Y680974D01*
X825284D01*
X827057Y681709D01*
X828415Y683066D01*
X829150Y684840D01*
Y686760D01*
X828415Y688534D01*
X827057Y689891D01*
X825284Y690626D01*
X823364D01*
X821590Y689891D01*
X820232Y688534D01*
X820166Y688373D01*
X818896Y688626D01*
Y807032D01*
X819228Y808700D01*
Y814700D01*
X818896Y816368D01*
Y837946D01*
X835914Y854964D01*
X1285494D01*
X1288542Y851916D01*
D02*
G37*
%LPC*%
G36*
X1213810Y827786D02*
X1211890D01*
X1210116Y827051D01*
X1208759Y825694D01*
X1208457Y824966D01*
X1207083D01*
X1206781Y825694D01*
X1205424Y827051D01*
X1203650Y827786D01*
X1201730D01*
X1199956Y827051D01*
X1198599Y825694D01*
X1198297Y824966D01*
X1196923D01*
X1196621Y825694D01*
X1195264Y827051D01*
X1193490Y827786D01*
X1191570D01*
X1189796Y827051D01*
X1188439Y825694D01*
X1188137Y824966D01*
X1186763D01*
X1186461Y825694D01*
X1185104Y827051D01*
X1183330Y827786D01*
X1181410D01*
X1179636Y827051D01*
X1178279Y825694D01*
X1177544Y823920D01*
Y822000D01*
X1178279Y820226D01*
X1179636Y818869D01*
X1181410Y818134D01*
X1183330D01*
X1185104Y818869D01*
X1186461Y820226D01*
X1186763Y820954D01*
X1188137D01*
X1188439Y820226D01*
X1189796Y818869D01*
X1191570Y818134D01*
X1193490D01*
X1195264Y818869D01*
X1196621Y820226D01*
X1196923Y820954D01*
X1198297D01*
X1198599Y820226D01*
X1199956Y818869D01*
X1201730Y818134D01*
X1203650D01*
X1205424Y818869D01*
X1206781Y820226D01*
X1207083Y820954D01*
X1208457D01*
X1208759Y820226D01*
X1210116Y818869D01*
X1211890Y818134D01*
X1213810D01*
X1215584Y818869D01*
X1216941Y820226D01*
X1217676Y822000D01*
Y823920D01*
X1216941Y825694D01*
X1215584Y827051D01*
X1213810Y827786D01*
D02*
G37*
G36*
X1267659Y850672D02*
X1263832D01*
X1260136Y849682D01*
X1256823Y847768D01*
X1254117Y845063D01*
X1252204Y841749D01*
X1251213Y838053D01*
Y834227D01*
X1252204Y830531D01*
X1254117Y827217D01*
X1256823Y824511D01*
X1260136Y822598D01*
X1263832Y821608D01*
X1267659D01*
X1271355Y822598D01*
X1274668Y824511D01*
X1277374Y827217D01*
X1279287Y830531D01*
X1280277Y834227D01*
Y838053D01*
X1279287Y841749D01*
X1277374Y845063D01*
X1274668Y847768D01*
X1271355Y849682D01*
X1267659Y850672D01*
D02*
G37*
G36*
X1076549Y827278D02*
X1074831D01*
X1073244Y826621D01*
X1072029Y825406D01*
X1071372Y823819D01*
Y822101D01*
X1072029Y820514D01*
X1073244Y819299D01*
X1074831Y818642D01*
X1076549D01*
X1078136Y819299D01*
X1079351Y820514D01*
X1080008Y822101D01*
Y823819D01*
X1079351Y825406D01*
X1078136Y826621D01*
X1076549Y827278D01*
D02*
G37*
G36*
X1066389D02*
X1064671D01*
X1063084Y826621D01*
X1061869Y825406D01*
X1061212Y823819D01*
Y822101D01*
X1061869Y820514D01*
X1063084Y819299D01*
X1064671Y818642D01*
X1066389D01*
X1067976Y819299D01*
X1069191Y820514D01*
X1069848Y822101D01*
Y823819D01*
X1069191Y825406D01*
X1067976Y826621D01*
X1066389Y827278D01*
D02*
G37*
G36*
X1056229D02*
X1054511D01*
X1052924Y826621D01*
X1051709Y825406D01*
X1051052Y823819D01*
Y822101D01*
X1051709Y820514D01*
X1052244Y819980D01*
X1052820Y819150D01*
X1052244Y818320D01*
X1051709Y817786D01*
X1051052Y816199D01*
Y814481D01*
X1051709Y812894D01*
X1052244Y812360D01*
X1052820Y811530D01*
X1052244Y810700D01*
X1051709Y810166D01*
X1051052Y808579D01*
Y806861D01*
X1051709Y805274D01*
X1052924Y804059D01*
X1054511Y803402D01*
X1056229D01*
X1057816Y804059D01*
X1059031Y805274D01*
X1059688Y806861D01*
Y808579D01*
X1059031Y810166D01*
X1058496Y810700D01*
X1057920Y811530D01*
X1058496Y812360D01*
X1059031Y812894D01*
X1059688Y814481D01*
Y816199D01*
X1059031Y817786D01*
X1058496Y818320D01*
X1057920Y819150D01*
X1058496Y819980D01*
X1059031Y820514D01*
X1059688Y822101D01*
Y823819D01*
X1059031Y825406D01*
X1057816Y826621D01*
X1056229Y827278D01*
D02*
G37*
G36*
X1046069D02*
X1044351D01*
X1042764Y826621D01*
X1041549Y825406D01*
X1040892Y823819D01*
Y822101D01*
X1041549Y820514D01*
X1042084Y819980D01*
X1042660Y819150D01*
X1042084Y818320D01*
X1041549Y817786D01*
X1040892Y816199D01*
Y814481D01*
X1041549Y812894D01*
X1042084Y812360D01*
X1042660Y811530D01*
X1042084Y810700D01*
X1041549Y810166D01*
X1040892Y808579D01*
Y806861D01*
X1041549Y805274D01*
X1042764Y804059D01*
X1044351Y803402D01*
X1046069D01*
X1047656Y804059D01*
X1048871Y805274D01*
X1049528Y806861D01*
Y808579D01*
X1048871Y810166D01*
X1048336Y810700D01*
X1047760Y811530D01*
X1048336Y812360D01*
X1048871Y812894D01*
X1049528Y814481D01*
Y816199D01*
X1048871Y817786D01*
X1048336Y818320D01*
X1047760Y819150D01*
X1048336Y819980D01*
X1048871Y820514D01*
X1049528Y822101D01*
Y823819D01*
X1048871Y825406D01*
X1047656Y826621D01*
X1046069Y827278D01*
D02*
G37*
G36*
X908292Y812789D02*
X906373D01*
X904599Y812055D01*
X903241Y810697D01*
X902506Y808923D01*
Y807003D01*
X903241Y805230D01*
X904599Y803872D01*
X906373Y803137D01*
X908292D01*
X910066Y803872D01*
X911424Y805230D01*
X912159Y807003D01*
Y808923D01*
X911424Y810697D01*
X910066Y812055D01*
X908292Y812789D01*
D02*
G37*
G36*
X879148Y812708D02*
X877228D01*
X875455Y811973D01*
X874097Y810616D01*
X873363Y808842D01*
Y806922D01*
X874097Y805148D01*
X875333Y803912D01*
X875400Y803189D01*
X875333Y802466D01*
X874097Y801230D01*
X873363Y799456D01*
Y797537D01*
X874097Y795763D01*
X875455Y794405D01*
X877228Y793671D01*
X879148D01*
X880922Y794405D01*
X882280Y795763D01*
X883015Y797537D01*
Y799456D01*
X882280Y801230D01*
X881044Y802466D01*
X880977Y803189D01*
X881044Y803912D01*
X882280Y805148D01*
X883015Y806922D01*
Y808842D01*
X882280Y810616D01*
X880922Y811973D01*
X879148Y812708D01*
D02*
G37*
G36*
X837890Y806196D02*
X835970D01*
X834196Y805461D01*
X832839Y804104D01*
X832104Y802330D01*
Y800410D01*
X832839Y798636D01*
X834196Y797279D01*
X834924Y796977D01*
Y795603D01*
X834196Y795301D01*
X832839Y793944D01*
X832104Y792170D01*
Y790250D01*
X832839Y788476D01*
X834196Y787119D01*
X835970Y786384D01*
X837890D01*
X839664Y787119D01*
X841021Y788476D01*
X841756Y790250D01*
Y792170D01*
X841021Y793944D01*
X839664Y795301D01*
X838936Y795603D01*
Y796977D01*
X839664Y797279D01*
X841021Y798636D01*
X841756Y800410D01*
Y802330D01*
X841021Y804104D01*
X839664Y805461D01*
X837890Y806196D01*
D02*
G37*
G36*
X1056229Y790428D02*
X1054511D01*
X1052924Y789771D01*
X1051709Y788556D01*
X1051052Y786969D01*
Y785251D01*
X1051709Y783664D01*
X1052244Y783130D01*
X1052820Y782300D01*
X1052244Y781470D01*
X1051709Y780936D01*
X1051052Y779349D01*
Y777631D01*
X1051709Y776044D01*
X1052924Y774829D01*
X1054511Y774172D01*
X1056229D01*
X1057816Y774829D01*
X1059031Y776044D01*
X1059688Y777631D01*
Y779349D01*
X1059031Y780936D01*
X1058496Y781470D01*
X1057920Y782300D01*
X1058496Y783130D01*
X1059031Y783664D01*
X1059688Y785251D01*
Y786969D01*
X1059031Y788556D01*
X1057816Y789771D01*
X1056229Y790428D01*
D02*
G37*
G36*
X1046069D02*
X1044351D01*
X1042764Y789771D01*
X1041549Y788556D01*
X1040892Y786969D01*
Y785251D01*
X1041549Y783664D01*
X1042084Y783130D01*
X1042660Y782300D01*
X1042084Y781470D01*
X1041549Y780936D01*
X1040892Y779349D01*
Y777631D01*
X1041549Y776044D01*
X1042764Y774829D01*
X1044351Y774172D01*
X1046069D01*
X1047656Y774829D01*
X1048871Y776044D01*
X1049528Y777631D01*
Y779349D01*
X1048871Y780936D01*
X1048336Y781470D01*
X1047760Y782300D01*
X1048336Y783130D01*
X1048871Y783664D01*
X1049528Y785251D01*
Y786969D01*
X1048871Y788556D01*
X1047656Y789771D01*
X1046069Y790428D01*
D02*
G37*
G36*
X1229050Y769366D02*
X1227130D01*
X1225356Y768631D01*
X1223999Y767274D01*
X1223264Y765500D01*
Y763580D01*
X1223999Y761806D01*
X1225356Y760449D01*
X1227130Y759714D01*
X1229050D01*
X1230824Y760449D01*
X1232181Y761806D01*
X1232916Y763580D01*
Y765500D01*
X1232181Y767274D01*
X1230824Y768631D01*
X1229050Y769366D01*
D02*
G37*
G36*
X1266134Y751586D02*
X1264214D01*
X1262440Y750851D01*
X1261083Y749494D01*
X1260781Y748766D01*
X1259407D01*
X1259105Y749494D01*
X1257748Y750851D01*
X1255974Y751586D01*
X1254054D01*
X1252280Y750851D01*
X1250923Y749494D01*
X1250621Y748766D01*
X1249247D01*
X1248945Y749494D01*
X1247588Y750851D01*
X1245814Y751586D01*
X1243894D01*
X1242120Y750851D01*
X1240763Y749494D01*
X1240461Y748766D01*
X1239087D01*
X1238785Y749494D01*
X1237428Y750851D01*
X1235654Y751586D01*
X1233734D01*
X1231960Y750851D01*
X1230603Y749494D01*
X1229868Y747720D01*
Y745800D01*
X1230603Y744026D01*
X1231960Y742669D01*
X1233734Y741934D01*
X1235654D01*
X1237428Y742669D01*
X1238785Y744026D01*
X1239087Y744754D01*
X1240461D01*
X1240763Y744026D01*
X1242120Y742669D01*
X1243894Y741934D01*
X1245814D01*
X1247588Y742669D01*
X1248945Y744026D01*
X1249247Y744754D01*
X1250621D01*
X1250923Y744026D01*
X1252280Y742669D01*
X1254054Y741934D01*
X1255974D01*
X1257748Y742669D01*
X1259105Y744026D01*
X1259407Y744754D01*
X1260781D01*
X1261083Y744026D01*
X1262440Y742669D01*
X1264214Y741934D01*
X1266134D01*
X1267908Y742669D01*
X1269265Y744026D01*
X1270000Y745800D01*
Y747720D01*
X1269265Y749494D01*
X1267908Y750851D01*
X1266134Y751586D01*
D02*
G37*
G36*
X1113521Y747844D02*
X1111601D01*
X1109827Y747109D01*
X1108687Y745969D01*
X1107936Y745842D01*
X1107185Y745969D01*
X1106045Y747109D01*
X1104271Y747844D01*
X1102351D01*
X1100578Y747109D01*
X1099220Y745752D01*
X1098485Y743978D01*
Y742058D01*
X1099220Y740284D01*
X1100578Y738927D01*
X1102351Y738192D01*
X1104271D01*
X1106045Y738927D01*
X1107185Y740067D01*
X1107936Y740194D01*
X1108687Y740067D01*
X1109827Y738927D01*
X1111601Y738192D01*
X1113521D01*
X1115294Y738927D01*
X1116652Y740284D01*
X1117387Y742058D01*
Y743978D01*
X1116652Y745752D01*
X1115294Y747109D01*
X1113521Y747844D01*
D02*
G37*
G36*
X1085672Y747881D02*
X1083752D01*
X1081978Y747146D01*
X1080621Y745789D01*
X1079886Y744015D01*
Y742095D01*
X1080621Y740321D01*
X1081978Y738964D01*
X1083752Y738229D01*
X1085672D01*
X1087446Y738964D01*
X1088803Y740321D01*
X1089538Y742095D01*
Y744015D01*
X1088803Y745789D01*
X1087446Y747146D01*
X1085672Y747881D01*
D02*
G37*
G36*
X889290Y734772D02*
X887371D01*
X885597Y734038D01*
X884239Y732680D01*
X884182Y732542D01*
X882808D01*
X882751Y732680D01*
X881393Y734038D01*
X879619Y734772D01*
X877699D01*
X875926Y734038D01*
X874568Y732680D01*
X874506Y732529D01*
X873236D01*
X873173Y732680D01*
X871816Y734038D01*
X870042Y734772D01*
X868122D01*
X866348Y734038D01*
X864991Y732680D01*
X864256Y730906D01*
Y728986D01*
X864991Y727213D01*
X866348Y725855D01*
X868122Y725120D01*
X870042D01*
X871816Y725855D01*
X873173Y727213D01*
X873236Y727363D01*
X874506D01*
X874568Y727213D01*
X875926Y725855D01*
X877699Y725120D01*
X879619D01*
X881393Y725855D01*
X882751Y727213D01*
X882808Y727350D01*
X884182D01*
X884239Y727213D01*
X885597Y725855D01*
X887371Y725120D01*
X889290D01*
X891064Y725855D01*
X892422Y727213D01*
X893157Y728986D01*
Y730906D01*
X892422Y732680D01*
X891064Y734038D01*
X889290Y734772D01*
D02*
G37*
G36*
X926984Y732536D02*
X925064D01*
X923290Y731801D01*
X921933Y730444D01*
X921198Y728670D01*
Y726750D01*
X921933Y724976D01*
X923290Y723619D01*
X925064Y722884D01*
X926984D01*
X928758Y723619D01*
X930115Y724976D01*
X930850Y726750D01*
Y728670D01*
X930115Y730444D01*
X928758Y731801D01*
X926984Y732536D01*
D02*
G37*
G36*
X915137D02*
X913217D01*
X911443Y731801D01*
X910086Y730444D01*
X909351Y728670D01*
Y726750D01*
X910086Y724976D01*
X911443Y723619D01*
X913217Y722884D01*
X915137D01*
X916911Y723619D01*
X918268Y724976D01*
X919003Y726750D01*
Y728670D01*
X918268Y730444D01*
X916911Y731801D01*
X915137Y732536D01*
D02*
G37*
G36*
X901390Y722795D02*
X899470D01*
X897696Y722060D01*
X896339Y720703D01*
X895604Y718929D01*
Y717009D01*
X896339Y715235D01*
X897696Y713878D01*
X899470Y713143D01*
X901390D01*
X903164Y713878D01*
X904521Y715235D01*
X905256Y717009D01*
Y718929D01*
X904521Y720703D01*
X903164Y722060D01*
X901390Y722795D01*
D02*
G37*
G36*
X1088334Y722122D02*
X1086414D01*
X1084640Y721387D01*
X1083283Y720030D01*
X1082548Y718256D01*
Y716336D01*
X1083283Y714562D01*
X1084640Y713205D01*
X1086414Y712470D01*
X1088334D01*
X1090108Y713205D01*
X1091465Y714562D01*
X1092200Y716336D01*
Y718256D01*
X1091465Y720030D01*
X1090108Y721387D01*
X1088334Y722122D01*
D02*
G37*
G36*
X1228034Y736346D02*
X1226114D01*
X1224340Y735611D01*
X1222983Y734254D01*
X1222248Y732480D01*
Y730560D01*
X1222983Y728786D01*
X1224135Y727634D01*
X1224193Y726698D01*
X1224085Y726160D01*
X1222860Y724936D01*
X1222126Y723162D01*
Y721242D01*
X1222860Y719469D01*
X1224034Y718295D01*
X1224139Y717554D01*
X1224034Y716812D01*
X1222860Y715639D01*
X1222126Y713865D01*
Y711945D01*
X1222860Y710171D01*
X1224114Y708918D01*
X1224170Y708200D01*
X1224114Y707482D01*
X1222860Y706228D01*
X1222126Y704455D01*
Y702535D01*
X1222860Y700761D01*
X1224218Y699404D01*
X1225992Y698669D01*
X1227912D01*
X1229686Y699404D01*
X1231043Y700761D01*
X1231778Y702535D01*
Y704455D01*
X1231043Y706228D01*
X1229789Y707482D01*
X1229733Y708200D01*
X1229789Y708918D01*
X1231043Y710171D01*
X1231778Y711945D01*
Y713865D01*
X1231043Y715639D01*
X1229869Y716812D01*
X1229764Y717554D01*
X1229869Y718295D01*
X1231043Y719469D01*
X1231778Y721242D01*
Y723162D01*
X1231043Y724936D01*
X1229891Y726088D01*
X1229833Y727024D01*
X1229941Y727562D01*
X1231165Y728786D01*
X1231900Y730560D01*
Y732480D01*
X1231165Y734254D01*
X1229808Y735611D01*
X1228034Y736346D01*
D02*
G37*
G36*
X1269944Y698246D02*
X1268024D01*
X1266250Y697511D01*
X1264893Y696154D01*
X1264591Y695426D01*
X1263217D01*
X1262915Y696154D01*
X1261558Y697511D01*
X1259784Y698246D01*
X1257864D01*
X1256090Y697511D01*
X1254733Y696154D01*
X1253998Y694380D01*
Y692460D01*
X1254733Y690686D01*
X1256090Y689329D01*
X1257864Y688594D01*
X1259784D01*
X1261558Y689329D01*
X1262915Y690686D01*
X1263217Y691414D01*
X1264591D01*
X1264893Y690686D01*
X1266250Y689329D01*
X1268024Y688594D01*
X1269944D01*
X1271718Y689329D01*
X1273075Y690686D01*
X1273810Y692460D01*
Y694380D01*
X1273075Y696154D01*
X1271718Y697511D01*
X1269944Y698246D01*
D02*
G37*
G36*
X892138Y699878D02*
X890218D01*
X888445Y699143D01*
X887087Y697785D01*
X886352Y696012D01*
Y694092D01*
X887087Y692318D01*
X888445Y690961D01*
X890218Y690226D01*
X892138D01*
X893912Y690961D01*
X895269Y692318D01*
X896004Y694092D01*
Y696012D01*
X895269Y697785D01*
X893912Y699143D01*
X892138Y699878D01*
D02*
G37*
G36*
X855670Y708576D02*
X853750D01*
X851976Y707841D01*
X850619Y706483D01*
X849884Y704710D01*
Y702790D01*
X850619Y701016D01*
X851404Y700230D01*
X851841Y699401D01*
X851404Y698571D01*
X850619Y697785D01*
X849884Y696012D01*
Y694092D01*
X850619Y692318D01*
X851976Y690961D01*
X853750Y690226D01*
X855670D01*
X857444Y690961D01*
X858801Y692318D01*
X859536Y694092D01*
Y696012D01*
X858801Y697785D01*
X858016Y698571D01*
X857579Y699401D01*
X858016Y700230D01*
X858801Y701016D01*
X859536Y702790D01*
Y704710D01*
X858801Y706483D01*
X857444Y707841D01*
X855670Y708576D01*
D02*
G37*
G36*
X843207Y699878D02*
X841287D01*
X839513Y699143D01*
X838156Y697785D01*
X837421Y696012D01*
Y694092D01*
X838156Y692318D01*
X839513Y690961D01*
X841287Y690226D01*
X843207D01*
X844981Y690961D01*
X846338Y692318D01*
X847073Y694092D01*
Y696012D01*
X846338Y697785D01*
X844981Y699143D01*
X843207Y699878D01*
D02*
G37*
G36*
X927207Y699725D02*
X925287D01*
X923513Y698990D01*
X922156Y697633D01*
X921421Y695859D01*
Y693939D01*
X922156Y692165D01*
X923513Y690808D01*
X925287Y690073D01*
X927207D01*
X928981Y690808D01*
X930338Y692165D01*
X931073Y693939D01*
Y695859D01*
X930338Y697633D01*
X928981Y698990D01*
X927207Y699725D01*
D02*
G37*
G36*
X867522Y699415D02*
X865602D01*
X863828Y698680D01*
X862471Y697323D01*
X861736Y695549D01*
Y693629D01*
X862471Y691855D01*
X863828Y690498D01*
X865602Y689763D01*
X867522D01*
X869296Y690498D01*
X870653Y691855D01*
X871388Y693629D01*
Y695549D01*
X870653Y697323D01*
X869296Y698680D01*
X867522Y699415D01*
D02*
G37*
G36*
X1248354Y698246D02*
X1246434D01*
X1244660Y697511D01*
X1243303Y696154D01*
X1242568Y694380D01*
Y692460D01*
X1243303Y690686D01*
X1244660Y689329D01*
X1246434Y688594D01*
X1248354D01*
X1250128Y689329D01*
X1251485Y690686D01*
X1252220Y692460D01*
Y694380D01*
X1251485Y696154D01*
X1250128Y697511D01*
X1248354Y698246D01*
D02*
G37*
G36*
X1236924D02*
X1235004D01*
X1233230Y697511D01*
X1231873Y696154D01*
X1231138Y694380D01*
Y692460D01*
X1231873Y690686D01*
X1233230Y689329D01*
X1235004Y688594D01*
X1236924D01*
X1238698Y689329D01*
X1240055Y690686D01*
X1240790Y692460D01*
Y694380D01*
X1240055Y696154D01*
X1238698Y697511D01*
X1236924Y698246D01*
D02*
G37*
G36*
X1059159Y703263D02*
X1057239D01*
X1055465Y702529D01*
X1054108Y701171D01*
X1053373Y699398D01*
Y697478D01*
X1054108Y695704D01*
X1055465Y694346D01*
X1055638Y694275D01*
Y693005D01*
X1055465Y692934D01*
X1054108Y691576D01*
X1053373Y689802D01*
Y687882D01*
X1054108Y686108D01*
X1055465Y684751D01*
X1057239Y684016D01*
X1059159D01*
X1060933Y684751D01*
X1062290Y686108D01*
X1063025Y687882D01*
Y689802D01*
X1062290Y691576D01*
X1060933Y692934D01*
X1060760Y693005D01*
Y694275D01*
X1060933Y694346D01*
X1062290Y695704D01*
X1063025Y697478D01*
Y699398D01*
X1062290Y701171D01*
X1060933Y702529D01*
X1059159Y703263D01*
D02*
G37*
G36*
X1175964Y691887D02*
X1174044D01*
X1172270Y691152D01*
X1170913Y689794D01*
X1170178Y688021D01*
Y686101D01*
X1170913Y684327D01*
X1172270Y682970D01*
X1174044Y682235D01*
X1175964D01*
X1177738Y682970D01*
X1179095Y684327D01*
X1179830Y686101D01*
Y688021D01*
X1179095Y689794D01*
X1177738Y691152D01*
X1175964Y691887D01*
D02*
G37*
G36*
X1059165Y675427D02*
X1057245D01*
X1055471Y674692D01*
X1054113Y673334D01*
X1053812Y672607D01*
X1052437D01*
X1052136Y673334D01*
X1050778Y674692D01*
X1049005Y675427D01*
X1047085D01*
X1045311Y674692D01*
X1043953Y673334D01*
X1043219Y671561D01*
Y669641D01*
X1043953Y667867D01*
X1045311Y666509D01*
X1047085Y665775D01*
X1049005D01*
X1050778Y666509D01*
X1052136Y667867D01*
X1052437Y668595D01*
X1053812D01*
X1054113Y667867D01*
X1055471Y666509D01*
X1057245Y665775D01*
X1059165D01*
X1060938Y666509D01*
X1062296Y667867D01*
X1063031Y669641D01*
Y671561D01*
X1062296Y673334D01*
X1060938Y674692D01*
X1059165Y675427D01*
D02*
G37*
G36*
X867522Y678402D02*
X865602D01*
X863828Y677667D01*
X862471Y676309D01*
X861736Y674536D01*
Y672616D01*
X862471Y670842D01*
X863828Y669484D01*
X865602Y668750D01*
X867522D01*
X869296Y669484D01*
X870653Y670842D01*
X871388Y672616D01*
Y674536D01*
X870653Y676309D01*
X869296Y677667D01*
X867522Y678402D01*
D02*
G37*
G36*
X1127675Y695289D02*
X1125755D01*
X1123981Y694555D01*
X1122624Y693197D01*
X1121889Y691423D01*
Y689503D01*
X1122624Y687730D01*
X1123981Y686372D01*
X1124287Y686245D01*
Y684871D01*
X1123868Y684697D01*
X1122511Y683340D01*
X1121776Y681566D01*
Y679646D01*
X1122511Y677872D01*
X1123868Y676515D01*
X1124385Y676301D01*
Y674926D01*
X1123906Y674727D01*
X1122548Y673370D01*
X1121814Y671596D01*
Y669676D01*
X1122548Y667902D01*
X1123906Y666545D01*
X1125679Y665810D01*
X1127599D01*
X1129373Y666545D01*
X1130517Y667689D01*
X1131267Y667813D01*
X1132017Y667689D01*
X1133161Y666545D01*
X1134935Y665810D01*
X1136855D01*
X1138628Y666545D01*
X1139891Y667807D01*
X1140434Y667882D01*
X1141336Y667842D01*
X1142548Y666629D01*
X1144322Y665895D01*
X1146242D01*
X1148016Y666629D01*
X1149373Y667987D01*
X1150108Y669761D01*
Y671681D01*
X1149373Y673454D01*
X1148016Y674812D01*
X1147587Y674990D01*
Y676364D01*
X1148222Y676628D01*
X1149580Y677985D01*
X1150315Y679759D01*
Y681679D01*
X1149580Y683453D01*
X1148222Y684810D01*
X1148004Y684901D01*
Y686275D01*
X1148147Y686334D01*
X1149505Y687692D01*
X1150239Y689466D01*
Y691385D01*
X1149505Y693159D01*
X1148147Y694517D01*
X1146373Y695252D01*
X1144454D01*
X1142680Y694517D01*
X1141416Y693253D01*
X1141051Y693159D01*
X1139948Y693160D01*
X1138817Y694291D01*
X1137043Y695026D01*
X1135123D01*
X1133349Y694291D01*
X1132203Y693144D01*
X1130818Y693167D01*
X1130806Y693197D01*
X1129448Y694555D01*
X1127675Y695289D01*
D02*
G37*
G36*
X1082025Y675427D02*
X1080105D01*
X1078331Y674692D01*
X1076973Y673334D01*
X1076239Y671561D01*
Y669641D01*
X1076973Y667867D01*
X1078331Y666509D01*
X1080105Y665775D01*
X1082025D01*
X1083798Y666509D01*
X1085156Y667867D01*
X1085891Y669641D01*
Y671561D01*
X1085156Y673334D01*
X1083798Y674692D01*
X1082025Y675427D01*
D02*
G37*
G36*
X1070595D02*
X1068675D01*
X1066901Y674692D01*
X1065543Y673334D01*
X1064809Y671561D01*
Y669641D01*
X1065543Y667867D01*
X1066901Y666509D01*
X1068675Y665775D01*
X1070595D01*
X1072368Y666509D01*
X1073726Y667867D01*
X1074461Y669641D01*
Y671561D01*
X1073726Y673334D01*
X1072368Y674692D01*
X1070595Y675427D01*
D02*
G37*
G36*
X918316Y666402D02*
X916396D01*
X914622Y665667D01*
X913264Y664309D01*
X912530Y662536D01*
Y660616D01*
X913264Y658842D01*
X914622Y657484D01*
X916396Y656750D01*
X918316D01*
X920089Y657484D01*
X921447Y658842D01*
X922182Y660616D01*
Y662536D01*
X921447Y664309D01*
X920089Y665667D01*
X918316Y666402D01*
D02*
G37*
G36*
X905251D02*
X903332D01*
X901558Y665667D01*
X900200Y664309D01*
X899465Y662536D01*
Y660616D01*
X900200Y658842D01*
X901558Y657484D01*
X903332Y656750D01*
X905251D01*
X907025Y657484D01*
X908383Y658842D01*
X909118Y660616D01*
Y662536D01*
X908383Y664309D01*
X907025Y665667D01*
X905251Y666402D01*
D02*
G37*
G36*
X892551D02*
X890632D01*
X888858Y665667D01*
X887500Y664309D01*
X886766Y662536D01*
Y660616D01*
X887500Y658842D01*
X888858Y657484D01*
X890632Y656750D01*
X892551D01*
X894325Y657484D01*
X895683Y658842D01*
X896417Y660616D01*
Y662536D01*
X895683Y664309D01*
X894325Y665667D01*
X892551Y666402D01*
D02*
G37*
G36*
X879660D02*
X877740D01*
X875966Y665667D01*
X874609Y664309D01*
X873874Y662536D01*
Y660616D01*
X874609Y658842D01*
X875966Y657484D01*
X877740Y656750D01*
X879660D01*
X881434Y657484D01*
X882791Y658842D01*
X883526Y660616D01*
Y662536D01*
X882791Y664309D01*
X881434Y665667D01*
X879660Y666402D01*
D02*
G37*
G36*
X849320Y666147D02*
X847400D01*
X845626Y665412D01*
X844269Y664055D01*
X843534Y662281D01*
Y660361D01*
X844269Y658587D01*
X845626Y657230D01*
X847400Y656495D01*
X849320D01*
X851094Y657230D01*
X852451Y658587D01*
X853186Y660361D01*
Y662281D01*
X852451Y664055D01*
X851094Y665412D01*
X849320Y666147D01*
D02*
G37*
G36*
X930600Y663956D02*
X928680D01*
X926906Y663221D01*
X925549Y661864D01*
X924814Y660090D01*
Y658170D01*
X925549Y656396D01*
X926906Y655039D01*
X928680Y654304D01*
X930600D01*
X932374Y655039D01*
X933731Y656396D01*
X934466Y658170D01*
Y660090D01*
X933731Y661864D01*
X932374Y663221D01*
X930600Y663956D01*
D02*
G37*
G36*
X835350Y662402D02*
X833430D01*
X831656Y661667D01*
X830299Y660309D01*
X829564Y658536D01*
Y656616D01*
X830299Y654842D01*
X831656Y653484D01*
X833430Y652750D01*
X835350D01*
X837124Y653484D01*
X838481Y654842D01*
X839216Y656616D01*
Y658536D01*
X838481Y660309D01*
X837124Y661667D01*
X835350Y662402D01*
D02*
G37*
G36*
X918316Y654902D02*
X916396D01*
X914622Y654167D01*
X913264Y652809D01*
X912530Y651036D01*
Y649116D01*
X913264Y647342D01*
X914622Y645984D01*
X916396Y645250D01*
X918316D01*
X920089Y645984D01*
X921447Y647342D01*
X922182Y649116D01*
Y651036D01*
X921447Y652809D01*
X920089Y654167D01*
X918316Y654902D01*
D02*
G37*
G36*
X905251D02*
X903332D01*
X901558Y654167D01*
X900200Y652809D01*
X899465Y651036D01*
Y649116D01*
X900200Y647342D01*
X901558Y645984D01*
X903332Y645250D01*
X905251D01*
X907025Y645984D01*
X908383Y647342D01*
X909118Y649116D01*
Y651036D01*
X908383Y652809D01*
X907025Y654167D01*
X905251Y654902D01*
D02*
G37*
G36*
X892551D02*
X890632D01*
X888858Y654167D01*
X887500Y652809D01*
X886766Y651036D01*
Y649116D01*
X887500Y647342D01*
X888858Y645984D01*
X890632Y645250D01*
X892551D01*
X894325Y645984D01*
X895683Y647342D01*
X896417Y649116D01*
Y651036D01*
X895683Y652809D01*
X894325Y654167D01*
X892551Y654902D01*
D02*
G37*
G36*
X879660D02*
X877740D01*
X875966Y654167D01*
X874609Y652809D01*
X873874Y651036D01*
Y649116D01*
X874609Y647342D01*
X875966Y645984D01*
X877740Y645250D01*
X879660D01*
X881434Y645984D01*
X882791Y647342D01*
X883526Y649116D01*
Y651036D01*
X882791Y652809D01*
X881434Y654167D01*
X879660Y654902D01*
D02*
G37*
G36*
X849320Y654647D02*
X847400D01*
X845626Y653912D01*
X844269Y652555D01*
X843534Y650781D01*
Y648861D01*
X844269Y647087D01*
X845626Y645730D01*
X847400Y644995D01*
X849320D01*
X851094Y645730D01*
X852451Y647087D01*
X853186Y648861D01*
Y650781D01*
X852451Y652555D01*
X851094Y653912D01*
X849320Y654647D01*
D02*
G37*
G36*
X919207Y642652D02*
X917287D01*
X915514Y641917D01*
X914156Y640559D01*
X913421Y638786D01*
Y636866D01*
X914156Y635092D01*
X915514Y633734D01*
X917287Y633000D01*
X919207D01*
X920981Y633734D01*
X922338Y635092D01*
X923073Y636866D01*
Y638786D01*
X922338Y640559D01*
X920981Y641917D01*
X919207Y642652D01*
D02*
G37*
G36*
X906143D02*
X904223D01*
X902449Y641917D01*
X901092Y640559D01*
X900357Y638786D01*
Y636866D01*
X901092Y635092D01*
X902449Y633734D01*
X904223Y633000D01*
X906143D01*
X907916Y633734D01*
X909274Y635092D01*
X910009Y636866D01*
Y638786D01*
X909274Y640559D01*
X907916Y641917D01*
X906143Y642652D01*
D02*
G37*
G36*
X893443D02*
X891523D01*
X889749Y641917D01*
X888392Y640559D01*
X887657Y638786D01*
Y636866D01*
X888392Y635092D01*
X889749Y633734D01*
X891523Y633000D01*
X893443D01*
X895217Y633734D01*
X896574Y635092D01*
X897309Y636866D01*
Y638786D01*
X896574Y640559D01*
X895217Y641917D01*
X893443Y642652D01*
D02*
G37*
G36*
X880551D02*
X878631D01*
X876858Y641917D01*
X875500Y640559D01*
X874765Y638786D01*
Y636866D01*
X875500Y635092D01*
X876858Y633734D01*
X878631Y633000D01*
X880551D01*
X882325Y633734D01*
X883683Y635092D01*
X884417Y636866D01*
Y638786D01*
X883683Y640559D01*
X882325Y641917D01*
X880551Y642652D01*
D02*
G37*
G36*
X867522Y642402D02*
X865602D01*
X863828Y641667D01*
X862471Y640309D01*
X861736Y638536D01*
Y636616D01*
X862471Y634842D01*
X863828Y633484D01*
X865602Y632750D01*
X867522D01*
X869296Y633484D01*
X870653Y634842D01*
X871388Y636616D01*
Y638536D01*
X870653Y640309D01*
X869296Y641667D01*
X867522Y642402D01*
D02*
G37*
G36*
X930445Y650440D02*
X928525D01*
X926751Y649705D01*
X925394Y648347D01*
X924659Y646574D01*
Y644654D01*
X925394Y642880D01*
X926663Y641611D01*
X926710Y640898D01*
X926663Y640185D01*
X925394Y638916D01*
X924659Y637142D01*
Y635222D01*
X925394Y633448D01*
X926751Y632091D01*
X928525Y631356D01*
X930445D01*
X932218Y632091D01*
X933576Y633448D01*
X934311Y635222D01*
Y637142D01*
X933576Y638916D01*
X932307Y640185D01*
X932260Y640898D01*
X932307Y641611D01*
X933576Y642880D01*
X934311Y644654D01*
Y646574D01*
X933576Y648347D01*
X932218Y649705D01*
X930445Y650440D01*
D02*
G37*
G36*
X919207Y631152D02*
X917287D01*
X915514Y630417D01*
X914156Y629059D01*
X913421Y627285D01*
Y625366D01*
X914156Y623592D01*
X915514Y622234D01*
X917287Y621500D01*
X919207D01*
X920981Y622234D01*
X922338Y623592D01*
X923073Y625366D01*
Y627285D01*
X922338Y629059D01*
X920981Y630417D01*
X919207Y631152D01*
D02*
G37*
G36*
X906143D02*
X904223D01*
X902449Y630417D01*
X901092Y629059D01*
X900357Y627285D01*
Y625366D01*
X901092Y623592D01*
X902449Y622234D01*
X904223Y621500D01*
X906143D01*
X907916Y622234D01*
X909274Y623592D01*
X910009Y625366D01*
Y627285D01*
X909274Y629059D01*
X907916Y630417D01*
X906143Y631152D01*
D02*
G37*
G36*
X893443D02*
X891523D01*
X889749Y630417D01*
X888392Y629059D01*
X887657Y627285D01*
Y625366D01*
X888392Y623592D01*
X889749Y622234D01*
X891523Y621500D01*
X893443D01*
X895217Y622234D01*
X896574Y623592D01*
X897309Y625366D01*
Y627285D01*
X896574Y629059D01*
X895217Y630417D01*
X893443Y631152D01*
D02*
G37*
G36*
X880551D02*
X878631D01*
X876858Y630417D01*
X875500Y629059D01*
X874765Y627285D01*
Y625366D01*
X875500Y623592D01*
X876858Y622234D01*
X878631Y621500D01*
X880551D01*
X882325Y622234D01*
X883683Y623592D01*
X884417Y625366D01*
Y627285D01*
X883683Y629059D01*
X882325Y630417D01*
X880551Y631152D01*
D02*
G37*
G36*
X834983Y630402D02*
X833063D01*
X831290Y629667D01*
X829932Y628309D01*
X829197Y626536D01*
Y624616D01*
X829932Y622842D01*
X831290Y621484D01*
X833063Y620750D01*
X834983D01*
X836757Y621484D01*
X838114Y622842D01*
X838849Y624616D01*
Y626536D01*
X838114Y628309D01*
X836757Y629667D01*
X834983Y630402D01*
D02*
G37*
G36*
X867522Y630902D02*
X865602D01*
X863828Y630167D01*
X862471Y628809D01*
X861736Y627036D01*
Y625116D01*
X862471Y623342D01*
X863828Y621984D01*
X864618Y621657D01*
Y620283D01*
X863828Y619956D01*
X862471Y618598D01*
X861736Y616824D01*
Y614905D01*
X862471Y613131D01*
X863828Y611773D01*
X865602Y611039D01*
X867522D01*
X869296Y611773D01*
X870653Y613131D01*
X871388Y614905D01*
Y616824D01*
X870653Y618598D01*
X869296Y619956D01*
X868506Y620283D01*
Y621657D01*
X869296Y621984D01*
X870653Y623342D01*
X871388Y625116D01*
Y627036D01*
X870653Y628809D01*
X869296Y630167D01*
X867522Y630902D01*
D02*
G37*
G36*
X906143Y619958D02*
X904223D01*
X902449Y619223D01*
X901092Y617865D01*
X900357Y616092D01*
Y614172D01*
X901092Y612398D01*
X902449Y611040D01*
X904223Y610306D01*
X906143D01*
X907916Y611040D01*
X909274Y612398D01*
X910009Y614172D01*
Y616092D01*
X909274Y617865D01*
X907916Y619223D01*
X906143Y619958D01*
D02*
G37*
G36*
X849320D02*
X847400D01*
X845626Y619223D01*
X844269Y617865D01*
X843534Y616092D01*
Y614172D01*
X844269Y612398D01*
X845626Y611040D01*
X847400Y610306D01*
X849320D01*
X851094Y611040D01*
X852451Y612398D01*
X853186Y614172D01*
Y616092D01*
X852451Y617865D01*
X851094Y619223D01*
X849320Y619958D01*
D02*
G37*
G36*
Y597669D02*
X847400D01*
X845626Y596934D01*
X844269Y595577D01*
X843534Y593803D01*
Y591883D01*
X844269Y590109D01*
X845626Y588751D01*
X847400Y588017D01*
X849320D01*
X851094Y588751D01*
X852451Y590109D01*
X853186Y591883D01*
Y593803D01*
X852451Y595577D01*
X851094Y596934D01*
X849320Y597669D01*
D02*
G37*
G36*
X834983Y586486D02*
X833063D01*
X831290Y585751D01*
X829932Y584394D01*
X829197Y582620D01*
Y580700D01*
X829932Y578926D01*
X831290Y577569D01*
X833063Y576834D01*
X834983D01*
X836757Y577569D01*
X838114Y578926D01*
X838849Y580700D01*
Y582620D01*
X838114Y584394D01*
X836757Y585751D01*
X834983Y586486D01*
D02*
G37*
G36*
X929504Y592846D02*
X927585D01*
X925811Y592111D01*
X924453Y590753D01*
X923718Y588980D01*
Y587060D01*
X924453Y585286D01*
X925811Y583928D01*
X927300Y583311D01*
X927351Y582742D01*
X927250Y582020D01*
X925636Y581352D01*
X924279Y579994D01*
X923544Y578221D01*
Y576301D01*
X924279Y574527D01*
X925636Y573169D01*
X927410Y572435D01*
X929330D01*
X931104Y573169D01*
X932461Y574527D01*
X933196Y576301D01*
Y578221D01*
X932461Y579994D01*
X931104Y581352D01*
X929614Y581969D01*
X929563Y582538D01*
X929665Y583260D01*
X931278Y583928D01*
X932636Y585286D01*
X933371Y587060D01*
Y588980D01*
X932636Y590753D01*
X931278Y592111D01*
X929504Y592846D01*
D02*
G37*
G36*
X952190Y567776D02*
X950270D01*
X948496Y567042D01*
X947139Y565684D01*
X946404Y563910D01*
Y561990D01*
X947139Y560216D01*
X948496Y558859D01*
X950270Y558124D01*
X952190D01*
X953964Y558859D01*
X955321Y560216D01*
X956056Y561990D01*
Y563910D01*
X955321Y565684D01*
X953964Y567042D01*
X952190Y567776D01*
D02*
G37*
%LPD*%
D94*
X706120Y670560D02*
D03*
Y695960D02*
D03*
X680720D02*
D03*
X655320D02*
D03*
X680720Y670560D02*
D03*
D98*
X655320D02*
D03*
D105*
X1032547Y331627D02*
X1059589D01*
X1061972Y334010D01*
X1089152D01*
X1435037Y314615D02*
Y331661D01*
X1427837Y307415D02*
X1435037Y314615D01*
Y331661D02*
X1435862Y332486D01*
X1378458Y339344D02*
X1406520D01*
X1326468Y333071D02*
X1372185D01*
X1378458Y339344D01*
X1406520D02*
X1412671Y333192D01*
X1032081Y303784D02*
X1087512D01*
X1115217Y331489D01*
X443196Y330488D02*
X451610Y322074D01*
X392938Y307340D02*
X476457D01*
X481584Y312467D01*
Y321056D01*
X399762Y330488D02*
X443196D01*
X131767Y319337D02*
Y323786D01*
X110124Y326762D02*
X128791D01*
X131767Y319337D02*
X131826Y319278D01*
X128791Y326762D02*
X131767Y323786D01*
X85848Y351038D02*
X110124Y326762D01*
X164592Y321056D02*
Y329004D01*
X72898Y426212D02*
X77592Y421518D01*
X90834D01*
X88456Y451930D02*
Y464502D01*
X72898Y436372D02*
X88456Y451930D01*
X87884Y465074D02*
X88456Y464502D01*
X72898Y426212D02*
Y436372D01*
X122936Y448818D02*
Y457708D01*
X87630Y493014D02*
X122936Y457708D01*
X1325250Y416438D02*
X1325372Y416560D01*
X1303904Y416438D02*
X1325250D01*
X1293622Y426720D02*
X1303904Y416438D01*
X1274826Y426720D02*
X1293622D01*
X1259332Y411226D02*
X1274826Y426720D01*
X1348161Y442397D02*
X1357399D01*
X1339596Y433832D02*
X1348161Y442397D01*
X1330960Y433832D02*
X1339596D01*
X1336802Y366268D02*
Y390398D01*
Y366268D02*
X1347470Y355600D01*
X1336802Y390398D02*
X1364742Y418338D01*
Y435012D01*
X1357399Y442354D02*
Y442397D01*
Y442354D02*
X1364742Y435012D01*
X1325626Y439166D02*
X1330960Y433832D01*
X1259586Y439166D02*
X1325626D01*
X993648Y433578D02*
X1010158Y417068D01*
X1022350D01*
X973265Y433578D02*
X993648D01*
X963105Y423418D02*
X973265Y433578D01*
X960628Y423418D02*
X963105D01*
X1035702Y462280D02*
X1064006Y433975D01*
X991108Y462280D02*
X1035702D01*
X980440Y451612D02*
X991108Y462280D01*
X960628Y451612D02*
X980440D01*
X392684Y417576D02*
Y417600D01*
X392576Y417708D02*
X392684Y417600D01*
X358526Y417708D02*
X392576D01*
X346710Y405892D02*
X358526Y417708D01*
X325628Y405892D02*
X346710D01*
X386842Y446278D02*
X399034Y434086D01*
X371094Y446278D02*
X386842D01*
X359410Y434594D02*
X371094Y446278D01*
X424627Y444250D02*
X424684D01*
X418592Y444246D02*
X424623D01*
X424684Y444250D02*
X424688Y444246D01*
X424623D02*
X424627Y444250D01*
X408432Y434086D02*
X418592Y444246D01*
X399034Y434086D02*
X408432D01*
X325628Y434594D02*
X359410D01*
X693796Y410088D02*
X710027D01*
X682498Y421386D02*
X693796Y410088D01*
X645414Y421386D02*
X682498D01*
X742824Y435442D02*
X747548Y430718D01*
Y405664D02*
Y430718D01*
X725170Y383286D02*
X747548Y405664D01*
X717804Y423418D02*
X723138D01*
X735162Y435442D01*
X742824D01*
X647700Y446786D02*
X647705Y446791D01*
X694436Y446786D02*
X717804Y423418D01*
X647705Y446791D02*
X650920D01*
X650926Y446786D01*
X694436D01*
X112895Y360680D02*
Y374578D01*
X100653Y386820D02*
Y425916D01*
Y386820D02*
X112895Y374578D01*
X100653Y425916D02*
X122895Y448158D01*
X725170Y356167D02*
Y383286D01*
Y356167D02*
X732087Y349250D01*
X1037590Y362958D02*
Y386842D01*
Y362958D02*
X1044668Y355880D01*
X1037590Y386842D02*
X1064006Y413258D01*
Y433975D01*
X383531Y374904D02*
X393446D01*
X377698Y322580D02*
Y369071D01*
X383531Y374904D01*
X377698Y322580D02*
X392938Y307340D01*
X388147Y342103D02*
X399762Y330488D01*
X388147Y361271D02*
X393925Y367049D01*
X388147Y342103D02*
Y361271D01*
X671768Y309356D02*
Y361888D01*
Y309356D02*
X690040Y291084D01*
X671768Y361888D02*
X679187Y369307D01*
X690040Y291084D02*
X789442D01*
X798297Y299940D01*
Y319468D01*
X679187Y369307D02*
X710536D01*
X775208Y317754D02*
Y317918D01*
X763524Y306070D02*
X775208Y317754D01*
X712470Y306070D02*
X763524D01*
X702310Y316230D02*
X712470Y306070D01*
X702310Y316230D02*
Y353033D01*
X711543Y362266D01*
X158146Y335451D02*
X164592Y329004D01*
X124696Y335451D02*
X158146D01*
X104140Y356006D02*
X124696Y335451D01*
X104140Y356006D02*
Y371602D01*
X98044Y377698D02*
X104140Y371602D01*
X92456Y377698D02*
X98044D01*
X85848Y351038D02*
Y361692D01*
X92964Y368808D01*
X1303274Y328016D02*
X1323876Y307415D01*
X1427837D01*
X1303274Y328016D02*
Y366752D01*
X1310125Y373603D02*
X1324788D01*
X1303274Y366752D02*
X1310125Y373603D01*
X1317498Y342040D02*
Y356876D01*
Y342040D02*
X1326468Y333071D01*
X1317498Y356876D02*
X1326891Y366269D01*
X1009396Y326469D02*
X1032081Y303784D01*
X1009396Y326469D02*
Y370135D01*
X1014383Y375122D02*
X1020487D01*
X1009396Y370135D02*
X1014383Y375122D01*
X1024382Y339792D02*
Y368300D01*
Y339792D02*
X1032547Y331627D01*
X407324Y364417D02*
X414871Y356870D01*
X407324Y364417D02*
Y395517D01*
X433602Y421795D02*
Y435617D01*
X407324Y395517D02*
X433602Y421795D01*
X424862Y444348D02*
X424871D01*
X433602Y435617D01*
D106*
X1430356Y362884D02*
X1458722Y334518D01*
X1407832Y362884D02*
X1430356D01*
X1401064Y373377D02*
Y434340D01*
X1395986Y368300D02*
X1401064Y373377D01*
X1380998Y368300D02*
X1395986D01*
X1418259Y318947D02*
Y341453D01*
X1418336Y341376D01*
X1412494Y347218D02*
X1418259Y341453D01*
X1382014Y347218D02*
X1412494D01*
X1375156Y354076D02*
X1382014Y347218D01*
X1375156Y354076D02*
Y362458D01*
X1380998Y368300D01*
X1458722Y329252D02*
Y334518D01*
X1445971Y316501D02*
X1458722Y329252D01*
X1409192Y442468D02*
Y442722D01*
X1401064Y434340D02*
X1409192Y442468D01*
X1413764Y314452D02*
X1418259Y318947D01*
X1395476Y314452D02*
X1413764D01*
X1391920Y318008D02*
X1395476Y314452D01*
X1391920Y318008D02*
Y330200D01*
X1099312Y326066D02*
Y342315D01*
X1081278Y319532D02*
X1092778D01*
X1099312Y326066D01*
X1101598Y359635D02*
X1105945Y355288D01*
X1099312Y342315D02*
X1105945Y348948D01*
Y355288D01*
X1092277Y433401D02*
X1100836Y441960D01*
X1092277Y402697D02*
Y433401D01*
Y402697D02*
X1101598Y393376D01*
Y359635D02*
Y393376D01*
X1107186Y361950D02*
X1115060D01*
X1122249Y354762D01*
Y317092D02*
Y354762D01*
X815740Y317918D02*
Y344278D01*
X792226Y353568D02*
X806450D01*
X815740Y344278D01*
X785368Y435864D02*
X791972D01*
X765048Y415544D02*
X785368Y435864D01*
X765048Y389890D02*
Y415544D01*
X752348Y377190D02*
X765048Y389890D01*
X752348Y341630D02*
Y377190D01*
Y341630D02*
X760730Y333248D01*
Y319278D02*
Y333248D01*
X457295Y317869D02*
Y330359D01*
X454779Y315353D02*
X457295Y317869D01*
X444464Y315353D02*
X454779D01*
X441452Y318008D02*
X441809D01*
X444464Y315353D01*
X470662Y414528D02*
Y444246D01*
X471170Y444754D01*
X439674Y383540D02*
X470662Y414528D01*
X439674Y347980D02*
Y383540D01*
Y347980D02*
X457295Y330359D01*
X477520Y357124D02*
X490602Y344041D01*
Y317628D02*
Y344041D01*
D107*
X1406652Y451866D02*
X1465580D01*
X1499108Y418338D01*
X1392508Y437722D02*
X1406652Y451866D01*
X1370369Y437722D02*
X1392508D01*
X1356479Y451612D02*
X1370369Y437722D01*
X167640Y387096D02*
Y447294D01*
Y387096D02*
X187198Y367538D01*
Y321056D02*
Y367538D01*
X176276Y310134D02*
X187198Y321056D01*
X130863Y310134D02*
X176276D01*
X123569Y317428D02*
X130863Y310134D01*
X170746Y318082D02*
Y364686D01*
Y318082D02*
X170953Y317875D01*
X170688Y364744D02*
X170746Y364686D01*
X427736Y713486D02*
X714248D01*
X389382Y751840D02*
X427736Y713486D01*
X377952Y708406D02*
X642874D01*
X369570Y685800D02*
Y700024D01*
X377952Y708406D01*
X357378Y739394D02*
X395478Y777494D01*
X581827D02*
X603958Y755363D01*
X395478Y777494D02*
X581827D01*
X328422Y739394D02*
X357378D01*
X1199388Y497078D02*
X1254252D01*
X1299718Y451612D02*
X1356479D01*
X1254252Y497078D02*
X1299718Y451612D01*
X1184656Y482346D02*
X1199388Y497078D01*
X1184656Y431800D02*
Y482346D01*
X283210Y299940D02*
Y466598D01*
X272094Y290770D02*
Y473262D01*
X277480Y471282D02*
X378460Y572262D01*
X266431Y286714D02*
Y476235D01*
X277480Y295290D02*
Y471282D01*
X260532Y396422D02*
Y479291D01*
X272094Y473262D02*
X376428Y577596D01*
X283210Y466598D02*
X357124Y540512D01*
X283210Y299940D02*
X306213Y276937D01*
X521031D02*
X536702Y292608D01*
X306213Y276937D02*
X521031D01*
X277480Y295290D02*
X302260Y270510D01*
X260532Y479291D02*
X311912Y530671D01*
X251714Y387604D02*
X260532Y396422D01*
X266431Y286714D02*
X296926Y256219D01*
X266431Y476235D02*
X373634Y583438D01*
X272094Y290770D02*
X299161Y263703D01*
X387350Y540512D02*
X399542Y528320D01*
X357124Y540512D02*
X387350D01*
X399542Y528320D02*
X455422D01*
X329946Y612140D02*
X443738D01*
X311912Y594106D02*
X329946Y612140D01*
X311912Y530671D02*
Y594106D01*
X299161Y263703D02*
X1280973D01*
X296926Y256219D02*
X1475927D01*
X302260Y270510D02*
X865281D01*
X1043432Y516890D02*
X1072388D01*
X1012190Y548132D02*
X1043432Y516890D01*
X933958Y548132D02*
X1012190D01*
X917702Y564388D02*
X933958Y548132D01*
X1184656Y382778D02*
Y431800D01*
X701506Y568960D02*
X716026Y583480D01*
Y611124D01*
X706120Y621030D02*
X716026Y611124D01*
X706120Y621030D02*
Y670560D01*
X685038Y639064D02*
X694379Y648405D01*
Y684219D02*
X706120Y695960D01*
X685038Y585978D02*
Y639064D01*
X668020Y568960D02*
X685038Y585978D01*
X694379Y648405D02*
Y684219D01*
X576326Y599440D02*
Y666496D01*
X577850Y668020D01*
X566420Y598932D02*
Y645160D01*
X543560Y668020D02*
X566420Y645160D01*
X799592Y582168D02*
X810267Y592843D01*
X762762Y582168D02*
X799592D01*
X750570Y594360D02*
X762762Y582168D01*
X750570Y594360D02*
X750570D01*
X810267Y592843D02*
X834519D01*
X831342Y554990D02*
X840740Y564388D01*
X1072388Y516890D02*
X1157466D01*
X1167556Y526980D01*
X840740Y564388D02*
X917702D01*
X536702Y366268D02*
X553720Y383286D01*
X536702Y292608D02*
Y366268D01*
X455422Y528320D02*
X463550Y536448D01*
Y572008D01*
X868934Y345440D02*
X878078Y336296D01*
X868934Y345440D02*
Y375412D01*
X878078Y283307D02*
Y336296D01*
X865281Y270510D02*
X878078Y283307D01*
X397510Y581406D02*
X448564D01*
X452120Y577850D01*
X388366Y572262D02*
X397510Y581406D01*
X378460Y572262D02*
X388366D01*
X443738Y612140D02*
X448564Y607314D01*
Y593852D02*
Y607314D01*
X1486553Y381648D02*
Y381938D01*
Y381648D02*
X1491996Y376205D01*
Y283210D02*
Y376205D01*
X1332230Y263144D02*
X1471930D01*
X1491996Y283210D01*
X1280973Y263703D02*
X1289304Y272034D01*
X1323340D01*
X1332230Y263144D01*
X396240Y586740D02*
X432054D01*
X387096Y577596D02*
X396240Y586740D01*
X432054D02*
X438912Y593598D01*
X376428Y577596D02*
X387096D01*
X438912Y593598D02*
Y602234D01*
X1499108Y279400D02*
Y418338D01*
X1475927Y256219D02*
X1499108Y279400D01*
X383540Y583438D02*
X394462Y594360D01*
X424180D01*
X373634Y583438D02*
X383540D01*
X642874Y708406D02*
X655320Y695960D01*
X714248Y713486D02*
X738124Y689610D01*
D111*
X87630Y493014D02*
D03*
X87884Y465074D02*
D03*
X1259332Y411226D02*
D03*
X1259586Y439166D02*
D03*
X960628Y423418D02*
D03*
Y451612D02*
D03*
X325628Y405892D02*
D03*
Y434594D02*
D03*
X645414Y449072D02*
D03*
Y421386D02*
D03*
X701506Y568960D02*
D03*
X668020D02*
D03*
X701506Y543560D02*
D03*
X668020D02*
D03*
X577850Y668020D02*
D03*
X543560D02*
D03*
X578558Y729963D02*
D03*
Y755363D02*
D03*
X603958Y729963D02*
D03*
X543560Y730250D02*
D03*
D112*
X62230Y493014D02*
D03*
X62484Y465074D02*
D03*
X1233932Y411226D02*
D03*
X1234186Y439166D02*
D03*
X935228Y423418D02*
D03*
Y451612D02*
D03*
X300228Y405892D02*
D03*
Y434594D02*
D03*
X620014Y449072D02*
D03*
Y421386D02*
D03*
X603958Y755363D02*
D03*
D113*
X743780Y805800D02*
D03*
X799780D02*
D03*
X763780Y812800D02*
D03*
X755780D02*
D03*
X747780D02*
D03*
X775780Y805800D02*
D03*
X767780D02*
D03*
X787780Y812800D02*
D03*
X795780D02*
D03*
X759780Y805800D02*
D03*
X783780D02*
D03*
X779780Y812800D02*
D03*
D114*
X813077Y811700D02*
D03*
X730480D02*
D03*
X816680Y855700D02*
D03*
X726880D02*
D03*
D115*
X511556Y622046D02*
D03*
X486156D02*
D03*
Y596646D02*
D03*
X511556D02*
D03*
X486156Y571246D02*
D03*
D116*
X511556D02*
D03*
D117*
X543560Y755650D02*
D03*
X701506Y594360D02*
D03*
X668020D02*
D03*
X543560Y693420D02*
D03*
X577850D02*
D03*
D118*
X750570Y594360D02*
D03*
D119*
X807780Y799300D02*
D03*
D120*
X1543530Y351790D02*
D03*
X306860Y836140D02*
D03*
X1265745Y836140D02*
D03*
X30000Y351790D02*
D03*
D121*
X1089152Y334010D02*
D03*
X1407832Y362884D02*
D03*
X1445971Y316501D02*
D03*
X1409192Y442722D02*
D03*
X1387462Y443078D02*
D03*
X1391920Y330200D02*
D03*
X1402588Y321818D02*
D03*
X1104900Y332486D02*
D03*
X1100074Y442468D02*
D03*
X1107186Y361950D02*
D03*
X1122249Y317092D02*
D03*
X1081278Y319532D02*
D03*
X792226Y353568D02*
D03*
X791972Y435864D02*
D03*
X760730Y319278D02*
D03*
X808475Y318071D02*
D03*
X815740Y317918D02*
D03*
X462883Y321791D02*
D03*
X451707Y321977D02*
D03*
X470662Y444246D02*
D03*
X477520Y357124D02*
D03*
X490602Y317628D02*
D03*
X441452Y318008D02*
D03*
X167640Y447294D02*
D03*
X123569Y317428D02*
D03*
X170953Y317875D02*
D03*
X176553Y322260D02*
D03*
X164592Y321056D02*
D03*
X170540Y364317D02*
D03*
X157275Y360506D02*
D03*
X131826Y319278D02*
D03*
X1372870Y443056D02*
D03*
X1357399Y442397D02*
D03*
X1198372Y417068D02*
D03*
X977336Y416818D02*
D03*
X255016Y423164D02*
D03*
X346197Y416852D02*
D03*
X1021358Y524510D02*
D03*
X990977Y569468D02*
D03*
X720554Y434275D02*
D03*
X141920Y454759D02*
D03*
X149032D02*
D03*
X999150Y569468D02*
D03*
X1006856D02*
D03*
X1233424Y773430D02*
D03*
X1242822D02*
D03*
Y788924D02*
D03*
Y781304D02*
D03*
X1233424Y788924D02*
D03*
Y781304D02*
D03*
X1223264Y788924D02*
D03*
Y781304D02*
D03*
X929825Y623575D02*
D03*
X928370Y598170D02*
D03*
X834023Y605790D02*
D03*
X834390Y637576D02*
D03*
Y665576D02*
D03*
X902970Y577261D02*
D03*
X866562Y577576D02*
D03*
X939800Y562610D02*
D03*
X914400Y695052D02*
D03*
X888855Y577721D02*
D03*
X879591D02*
D03*
X1075446Y743018D02*
D03*
X1094005Y743055D02*
D03*
X737870Y554990D02*
D03*
X834023Y581660D02*
D03*
Y625576D02*
D03*
X834390Y657576D02*
D03*
X866562Y673576D02*
D03*
X929485Y645614D02*
D03*
X928370Y577261D02*
D03*
X926247Y694899D02*
D03*
X891178Y695052D02*
D03*
X1106170Y534670D02*
D03*
X878188Y798497D02*
D03*
X1268984Y693420D02*
D03*
X1258824D02*
D03*
X1227074Y731520D02*
D03*
X1247394Y693420D02*
D03*
X1235964D02*
D03*
X1188326Y504063D02*
D03*
X869082Y729946D02*
D03*
X494030Y741680D02*
D03*
X462280Y764540D02*
D03*
X878659Y729946D02*
D03*
X888331D02*
D03*
X723900Y516890D02*
D03*
X620829Y543512D02*
D03*
X328930Y730250D02*
D03*
X878188Y807882D02*
D03*
X411480Y689610D02*
D03*
X770890Y546100D02*
D03*
X489744Y542202D02*
D03*
X98066Y351428D02*
D03*
X179362Y417962D02*
D03*
X90834Y421518D02*
D03*
X138295Y448136D02*
D03*
X756238Y435622D02*
D03*
X797965Y405768D02*
D03*
X775661Y349967D02*
D03*
X710027Y410088D02*
D03*
X722327Y340360D02*
D03*
X440271Y444326D02*
D03*
X480822Y411734D02*
D03*
X458683Y357463D02*
D03*
X392810Y417708D02*
D03*
X405111Y347980D02*
D03*
X122895Y448158D02*
D03*
X112895Y360680D02*
D03*
X742000Y435442D02*
D03*
X732087Y349250D02*
D03*
X91353Y386004D02*
D03*
X190246Y436880D02*
D03*
X710790Y376502D02*
D03*
X807961Y425480D02*
D03*
X393689Y383617D02*
D03*
X491828Y433423D02*
D03*
X1110973Y413214D02*
D03*
X1088898Y356362D02*
D03*
X1022585Y416696D02*
D03*
X1070046Y443313D02*
D03*
X1034886Y346968D02*
D03*
X1413764Y411226D02*
D03*
X1391877Y356131D02*
D03*
X1337710Y346710D02*
D03*
X1325409Y416438D02*
D03*
X180168Y410636D02*
D03*
X798947Y398349D02*
D03*
X1044668Y355880D02*
D03*
X1054646Y443335D02*
D03*
X1347470Y355600D02*
D03*
X1023465Y382605D02*
D03*
X1119426Y431462D02*
D03*
X481293Y403901D02*
D03*
X1112005Y405899D02*
D03*
X1327342Y382581D02*
D03*
X1421805Y430426D02*
D03*
X148336Y361950D02*
D03*
X767109Y352269D02*
D03*
X450342Y358394D02*
D03*
X1081298Y355092D02*
D03*
X1413764Y404114D02*
D03*
X1384808Y355346D02*
D03*
X576326Y599440D02*
D03*
X566420Y598932D02*
D03*
X710027Y400967D02*
D03*
X90834Y412397D02*
D03*
X392810Y408587D02*
D03*
X1022585Y407575D02*
D03*
X1325409Y407318D02*
D03*
X834519Y592843D02*
D03*
X831342Y554990D02*
D03*
X1167556Y526980D02*
D03*
X1072388Y516890D02*
D03*
X482600Y381762D02*
D03*
X491236Y383680D02*
D03*
X551688Y327660D02*
D03*
X568198Y320294D02*
D03*
X491236Y393700D02*
D03*
X481806D02*
D03*
X481584Y321056D02*
D03*
X393446Y374904D02*
D03*
X553720Y383286D02*
D03*
X463550Y572008D02*
D03*
X393925Y367049D02*
D03*
X868934Y375412D02*
D03*
X452120Y577850D02*
D03*
X798127Y375920D02*
D03*
X807707D02*
D03*
X870966Y325628D02*
D03*
X886968Y319786D02*
D03*
X797982Y391017D02*
D03*
X807707Y391160D02*
D03*
X798297Y319468D02*
D03*
X710536Y369307D02*
D03*
X251714Y387604D02*
D03*
X448564Y593852D02*
D03*
X775208Y317918D02*
D03*
X711543Y362266D02*
D03*
X1486553Y381938D02*
D03*
X438912Y602234D02*
D03*
X181356Y386334D02*
D03*
X190500Y387350D02*
D03*
X235966Y328168D02*
D03*
X251968Y320040D02*
D03*
X180611Y402962D02*
D03*
X188515Y402590D02*
D03*
X92456Y377698D02*
D03*
X1184656Y382778D02*
D03*
X424180Y594360D02*
D03*
X92964Y368808D02*
D03*
X1413510Y382270D02*
D03*
X1423090D02*
D03*
X1506728Y327660D02*
D03*
X1523746Y320294D02*
D03*
X1414276Y397020D02*
D03*
X1423090Y397510D02*
D03*
X1435037Y332521D02*
D03*
X1324788Y373603D02*
D03*
X1412671Y333192D02*
D03*
X1326891Y366269D02*
D03*
X1110686Y382528D02*
D03*
X1120266D02*
D03*
X1188974Y326390D02*
D03*
X1205992Y319024D02*
D03*
X1110510Y397768D02*
D03*
X1120266D02*
D03*
X1115314Y331724D02*
D03*
X1020487Y375122D02*
D03*
X1024382Y368300D02*
D03*
X854710Y703750D02*
D03*
X369570Y685800D02*
D03*
X866562Y694589D02*
D03*
X328422Y739394D02*
D03*
X738124Y689610D02*
D03*
X389382Y751840D02*
D03*
X842247Y695052D02*
D03*
X854710D02*
D03*
X788224Y781050D02*
D03*
X795336D02*
D03*
X450949Y486156D02*
D03*
X853000Y551180D02*
D03*
X443837Y486156D02*
D03*
X845889Y551056D02*
D03*
X768165Y478536D02*
D03*
X889000Y551180D02*
D03*
X761053Y478536D02*
D03*
X881889Y551056D02*
D03*
X231648Y492986D02*
D03*
Y500098D02*
D03*
X1383548Y450850D02*
D03*
X928370Y615132D02*
D03*
X1376436Y450850D02*
D03*
X928370Y608020D02*
D03*
X957684Y643303D02*
D03*
X984250Y773148D02*
D03*
X952655Y648332D02*
D03*
X984250Y766036D02*
D03*
X767673Y780101D02*
D03*
X793750Y617662D02*
D03*
X774785Y780101D02*
D03*
X793750Y624774D02*
D03*
X420949Y452120D02*
D03*
X875803Y557530D02*
D03*
X413837Y452120D02*
D03*
X868691Y557530D02*
D03*
X428837Y477774D02*
D03*
X863803Y543560D02*
D03*
X435949Y477774D02*
D03*
X856691Y543560D02*
D03*
X736016Y443464D02*
D03*
X911803Y552450D02*
D03*
X728982Y444520D02*
D03*
X904691Y552450D02*
D03*
X752955Y464812D02*
D03*
X899803Y543560D02*
D03*
X745844Y464812D02*
D03*
X892691Y543560D02*
D03*
X118973Y489966D02*
D03*
X165354Y494510D02*
D03*
X111861Y489966D02*
D03*
X165354Y501622D02*
D03*
X133828Y483108D02*
D03*
X191008Y486890D02*
D03*
X126716Y483108D02*
D03*
X191008Y494002D02*
D03*
X1353548Y484886D02*
D03*
X955373Y635132D02*
D03*
X1346436Y484886D02*
D03*
X955373Y628020D02*
D03*
X1369813Y474020D02*
D03*
X967994Y623062D02*
D03*
X1362644Y474073D02*
D03*
X967994Y615950D02*
D03*
X1050724Y485144D02*
D03*
X1133094Y497812D02*
D03*
X1043612Y485144D02*
D03*
X1133094Y504924D02*
D03*
X1062566Y476078D02*
D03*
X1100328Y480822D02*
D03*
X1055454Y476078D02*
D03*
X1100328Y487934D02*
D03*
X748284Y769366D02*
D03*
X800100Y596020D02*
D03*
X755396Y769366D02*
D03*
X800100Y603132D02*
D03*
X791972Y736346D02*
D03*
X809026Y608020D02*
D03*
X784860Y736346D02*
D03*
X809026Y615132D02*
D03*
X383286Y554482D02*
D03*
X450850Y547661D02*
D03*
X540686Y538226D02*
D03*
X551434Y525780D02*
D03*
X836930Y801370D02*
D03*
X217170Y387350D02*
D03*
X239620Y433070D02*
D03*
X519430Y383540D02*
D03*
X540890Y429260D02*
D03*
X856840Y421640D02*
D03*
X834390Y375944D02*
D03*
X1150900Y382948D02*
D03*
X1172210Y426720D02*
D03*
X1454150Y382270D02*
D03*
X1475740Y426720D02*
D03*
X1081065Y670601D02*
D03*
X1069635D02*
D03*
X1058205D02*
D03*
X1048045D02*
D03*
X826767Y519775D02*
D03*
X540766Y516128D02*
D03*
X378460Y591820D02*
D03*
X737108Y767588D02*
D03*
X382778Y564388D02*
D03*
X414020Y624840D02*
D03*
X914177Y727710D02*
D03*
X1058199Y688842D02*
D03*
X1097026Y356362D02*
D03*
X1326288Y393757D02*
D03*
X362712Y347472D02*
D03*
X977646Y346710D02*
D03*
X663194Y366014D02*
D03*
X1361440Y318516D02*
D03*
X494030Y732790D02*
D03*
X388201Y429660D02*
D03*
X59436Y368300D02*
D03*
X1279144Y378206D02*
D03*
X1025190Y549366D02*
D03*
X278130Y82550D02*
D03*
X1160780Y321650D02*
D03*
X1231900Y95250D02*
D03*
X1289273Y402318D02*
D03*
X900430Y717969D02*
D03*
X907333Y807963D02*
D03*
X986449Y402575D02*
D03*
X1549750Y82550D02*
D03*
X727456Y321818D02*
D03*
X937427Y521970D02*
D03*
X711568Y777380D02*
D03*
X358648Y634746D02*
D03*
X594893Y95250D02*
D03*
X278130D02*
D03*
X1294480Y83820D02*
D03*
X1167556Y579034D02*
D03*
X389890Y726440D02*
D03*
X1446784Y331978D02*
D03*
X1335024Y355854D02*
D03*
X51499Y398762D02*
D03*
X358764Y361233D02*
D03*
X976884Y382016D02*
D03*
X207010Y321650D02*
D03*
X976630Y96012D02*
D03*
X584200Y419520D02*
D03*
X928097Y521970D02*
D03*
X765556Y748284D02*
D03*
X1057910Y544170D02*
D03*
X673890Y395967D02*
D03*
X824324Y685800D02*
D03*
X1291844Y352552D02*
D03*
X913130Y82550D02*
D03*
X1478630Y321650D02*
D03*
X657860Y83820D02*
D03*
X1046988Y322072D02*
D03*
X1084712Y743055D02*
D03*
X470705Y548415D02*
D03*
X1399286Y356108D02*
D03*
X1280160Y416560D02*
D03*
X685292Y343662D02*
D03*
X1279398Y388874D02*
D03*
X918632Y521970D02*
D03*
X836930Y791210D02*
D03*
X379148Y624766D02*
D03*
X783470Y349827D02*
D03*
X400558Y358394D02*
D03*
X681228Y354076D02*
D03*
X977488Y358044D02*
D03*
X339622Y96012D02*
D03*
X409194Y321310D02*
D03*
X946668Y522007D02*
D03*
X806196Y529336D02*
D03*
X1226952Y703495D02*
D03*
X929485Y636182D02*
D03*
X1017976Y428648D02*
D03*
X842010Y321650D02*
D03*
X22860Y96012D02*
D03*
X976630Y83820D02*
D03*
X836332Y519775D02*
D03*
X328930Y748030D02*
D03*
X1112561Y743018D02*
D03*
X813562Y674116D02*
D03*
X144780Y321310D02*
D03*
X1294480Y96012D02*
D03*
X1175004Y687061D02*
D03*
X369570Y676910D02*
D03*
X929640Y659130D02*
D03*
X500349Y526827D02*
D03*
X358140Y591820D02*
D03*
X54698Y407397D02*
D03*
X61214Y356870D02*
D03*
X1289304Y363982D02*
D03*
X339622Y83820D02*
D03*
X951230Y562950D02*
D03*
X356108Y392938D02*
D03*
X977138Y371094D02*
D03*
X663194Y377698D02*
D03*
X523773Y321650D02*
D03*
X1231900Y82550D02*
D03*
X620646Y594959D02*
D03*
X338148Y624512D02*
D03*
X405130Y624840D02*
D03*
X511048Y554990D02*
D03*
X1103311Y743018D02*
D03*
X45585Y421640D02*
D03*
X657860Y96012D02*
D03*
X22860Y83820D02*
D03*
X1549750Y95250D02*
D03*
X1167556Y560578D02*
D03*
X926024Y727710D02*
D03*
X1228090Y764540D02*
D03*
X902970Y410210D02*
D03*
X723900Y618490D02*
D03*
X705417Y422040D02*
D03*
X664210Y410967D02*
D03*
X594893Y82550D02*
D03*
X913130Y95250D02*
D03*
X706882Y754888D02*
D03*
X1127975Y332348D02*
D03*
X48762Y387932D02*
D03*
X408940Y665480D02*
D03*
X92964Y321818D02*
D03*
X1521460Y417830D02*
D03*
X1226952Y722202D02*
D03*
X558388Y562604D02*
D03*
X583753Y549922D02*
D03*
X583524Y574715D02*
D03*
X583753Y562375D02*
D03*
X558617Y550036D02*
D03*
X571040Y562274D02*
D03*
X558503Y574715D02*
D03*
X570956Y549808D02*
D03*
X571527Y575172D02*
D03*
X1145282Y670721D02*
D03*
X1126639Y670636D02*
D03*
X1135895D02*
D03*
X1145489Y680719D02*
D03*
X1136083Y690200D02*
D03*
X1145413Y690426D02*
D03*
X1126602Y680606D02*
D03*
X1126715Y690463D02*
D03*
X1136121Y680531D02*
D03*
X429466Y572568D02*
D03*
X416898Y547661D02*
D03*
X429694Y547775D02*
D03*
X417469Y573025D02*
D03*
X429694Y560229D02*
D03*
X416981Y560128D02*
D03*
X404444Y572568D02*
D03*
X1226952Y712905D02*
D03*
X1234694Y746760D02*
D03*
X1244854D02*
D03*
X1265174D02*
D03*
X1255014D02*
D03*
X1202690Y822960D02*
D03*
X1212850D02*
D03*
X1192530D02*
D03*
X1182370D02*
D03*
X1087374Y717296D02*
D03*
X1058199Y698438D02*
D03*
X1369962Y399847D02*
D03*
X1352462Y417347D02*
D03*
X1387462D02*
D03*
Y382300D02*
D03*
X1352462Y382347D02*
D03*
X1413161Y419951D02*
D03*
X1320800Y428390D02*
D03*
X1335957Y443230D02*
D03*
X1084638Y443335D02*
D03*
X1033133Y443488D02*
D03*
X1084638Y382557D02*
D03*
Y417605D02*
D03*
X1049638D02*
D03*
X1067138Y400105D02*
D03*
X797778Y413601D02*
D03*
X772080Y375950D02*
D03*
X393689Y394970D02*
D03*
X454863Y444348D02*
D03*
X356674Y403587D02*
D03*
X480562Y421221D02*
D03*
X454863Y383570D02*
D03*
Y418617D02*
D03*
X419863D02*
D03*
X437363Y401117D02*
D03*
X466361Y356870D02*
D03*
X91713Y398780D02*
D03*
X86225Y433470D02*
D03*
X152887Y387380D02*
D03*
Y422427D02*
D03*
X117887D02*
D03*
X135387Y404927D02*
D03*
X164385Y360680D02*
D03*
X737080Y410997D02*
D03*
X154940Y321310D02*
D03*
X1178973Y504063D02*
D03*
X782385Y553580D02*
D03*
X928544Y588020D02*
D03*
X848360Y661321D02*
D03*
Y649821D02*
D03*
X878700Y661576D02*
D03*
Y650076D02*
D03*
X904292D02*
D03*
Y661576D02*
D03*
X891591D02*
D03*
Y650076D02*
D03*
X917356Y661576D02*
D03*
Y650076D02*
D03*
X918247Y626326D02*
D03*
Y637826D02*
D03*
X892483Y626326D02*
D03*
Y637826D02*
D03*
X905183D02*
D03*
Y626326D02*
D03*
X879591D02*
D03*
Y637826D02*
D03*
X866562Y637576D02*
D03*
Y626076D02*
D03*
Y615865D02*
D03*
X848360Y615132D02*
D03*
Y592843D02*
D03*
X918247Y615132D02*
D03*
Y605326D02*
D03*
X905183Y615132D02*
D03*
X811276Y581660D02*
D03*
X769620Y567690D02*
D03*
X366776Y522478D02*
D03*
X328676Y555498D02*
D03*
X343916Y564388D02*
D03*
X443230Y689610D02*
D03*
X494030Y764540D02*
D03*
X107950Y448124D02*
D03*
X737616Y543560D02*
D03*
X1081024Y618490D02*
D03*
X1069594D02*
D03*
X1059434D02*
D03*
X1049274D02*
D03*
X1001268Y515112D02*
D03*
X404330Y560457D02*
D03*
X404558Y547889D02*
D03*
X419927Y382148D02*
D03*
X116078Y383032D02*
D03*
X732634Y372018D02*
D03*
X752719Y395037D02*
D03*
X774986Y408276D02*
D03*
X1023465Y393958D02*
D03*
X178586Y425031D02*
D03*
X1110256Y420290D02*
D03*
X719327Y349701D02*
D03*
X710906Y387678D02*
D03*
X1049211Y380639D02*
D03*
X94870Y359952D02*
D03*
X471170Y321818D02*
D03*
X790032Y317842D02*
D03*
X1031748Y357632D02*
D03*
X1423924Y333248D02*
D03*
X152887Y448158D02*
D03*
X771972Y439189D02*
D03*
X403024Y443486D02*
D03*
X414871Y356870D02*
D03*
X424862Y444348D02*
D03*
X393518Y649160D02*
D03*
X422656Y628142D02*
D03*
X535940Y546975D02*
D03*
D122*
X1065530Y822960D02*
D03*
X1075690D02*
D03*
X1055370D02*
D03*
X1045210D02*
D03*
Y807720D02*
D03*
Y815340D02*
D03*
X1055370Y807720D02*
D03*
Y815340D02*
D03*
X1045210Y778490D02*
D03*
Y786110D02*
D03*
X1055370Y778490D02*
D03*
Y786110D02*
D03*
D123*
X827024Y823468D02*
X827278Y823722D01*
Y836676D01*
X812292D02*
X827278D01*
X361546D02*
X812292D01*
X826008Y822960D01*
X295148Y770278D02*
X361546Y836676D01*
X295148Y534416D02*
Y770278D01*
X63091Y512075D02*
X72070Y521054D01*
X63091Y493875D02*
Y512075D01*
X72070Y521054D02*
X281786D01*
X295148Y534416D01*
X62230Y493014D02*
X63091Y493875D01*
X827278Y836676D02*
X827532Y836422D01*
D124*
X141920Y454759D02*
Y455865D01*
X143724Y457669D01*
X147110Y457728D02*
X149032Y455806D01*
Y454759D02*
Y455806D01*
X790109Y729113D02*
Y729996D01*
Y729113D02*
X792039Y727183D01*
X796487D01*
X798417Y725253D01*
Y722679D02*
Y725253D01*
X796487Y720749D02*
X798417Y722679D01*
X792039Y720749D02*
X796487D01*
X790109Y718819D02*
X792039Y720749D01*
X790109Y711708D02*
Y718819D01*
X760222Y620522D02*
X762251Y618493D01*
X764442D01*
X766771Y620823D01*
X768962D01*
X770423Y619362D01*
Y617171D02*
Y619362D01*
X768093Y614842D02*
X770423Y617171D01*
X768093Y612651D02*
Y614842D01*
Y612651D02*
X769554Y611190D01*
X771745D01*
X774074Y613520D01*
X776265D01*
X777726Y612059D01*
Y609869D02*
Y612059D01*
X775396Y607539D02*
X777726Y609869D01*
X775396Y605348D02*
Y607539D01*
Y605348D02*
X779475Y601269D01*
X779577D01*
X441706Y471170D02*
X443097D01*
X444646Y472719D01*
Y479530D01*
X446195Y481079D01*
X448261D01*
X449810Y479530D01*
Y472719D02*
Y479530D01*
Y472719D02*
X451359Y471170D01*
X457200D01*
X1367669Y457708D02*
X1369314D01*
X1366120Y456159D02*
X1367669Y457708D01*
X1366120Y453130D02*
Y456159D01*
X1364571Y451580D02*
X1366120Y453130D01*
X1362505Y451580D02*
X1364571D01*
X1360956Y453130D02*
X1362505Y451580D01*
X1360956Y453130D02*
Y456159D01*
X1359407Y457708D02*
X1360956Y456159D01*
X1353566Y457708D02*
X1359407D01*
X1120103Y503061D02*
X1125728D01*
X1118554Y504610D02*
X1120103Y503061D01*
X1118554Y504610D02*
Y508344D01*
X1117004Y509893D02*
X1118554Y508344D01*
X1114939Y509893D02*
X1117004D01*
X1113390Y508344D02*
X1114939Y509893D01*
X1113390Y504610D02*
Y508344D01*
X1111841Y503061D02*
X1113390Y504610D01*
X1109775Y503061D02*
X1111841D01*
X1108226Y504610D02*
X1109775Y503061D01*
X1108226Y504610D02*
Y508344D01*
X1106677Y509893D02*
X1108226Y508344D01*
X1104611Y509893D02*
X1106677D01*
X1103062Y508344D02*
X1104611Y509893D01*
X1103062Y504610D02*
Y508344D01*
X1101513Y503061D02*
X1103062Y504610D01*
X1100836Y503061D02*
X1101513D01*
X1090771Y486071D02*
X1092962D01*
X1089222Y487620D02*
X1090771Y486071D01*
X1089222Y487620D02*
Y490793D01*
X1087673Y492342D02*
X1089222Y490793D01*
X1085608Y492342D02*
X1087673D01*
X1084058Y490793D02*
X1085608Y492342D01*
X1084058Y487620D02*
Y490793D01*
X1082509Y486071D02*
X1084058Y487620D01*
X1080444Y486071D02*
X1082509D01*
X1078895Y487620D02*
X1080444Y486071D01*
X1078895Y487620D02*
Y490793D01*
X1077345Y492342D02*
X1078895Y490793D01*
X1075280Y492342D02*
X1077345D01*
X1073731Y490793D02*
X1075280Y492342D01*
X1073731Y487620D02*
Y490793D01*
X1072182Y486071D02*
X1073731Y487620D01*
X1071505Y486071D02*
X1072182D01*
X1339729Y493268D02*
X1341882D01*
X1338180Y491719D02*
X1339729Y493268D01*
X1338180Y487101D02*
Y491719D01*
X1336631Y485552D02*
X1338180Y487101D01*
X1334565Y485552D02*
X1336631D01*
X1333016Y487101D02*
X1334565Y485552D01*
X1333016Y487101D02*
Y491719D01*
X1331467Y493268D02*
X1333016Y491719D01*
X1325626Y493268D02*
X1331467D01*
X1352429Y475488D02*
X1353312D01*
X1350880Y473939D02*
X1352429Y475488D01*
X1350880Y468527D02*
Y473939D01*
X1349331Y466978D02*
X1350880Y468527D01*
X1347265Y466978D02*
X1349331D01*
X1345716Y468527D02*
X1347265Y466978D01*
X1345716Y468527D02*
Y473939D01*
X1344167Y475488D02*
X1345716Y473939D01*
X1338326Y475488D02*
X1344167D01*
X971573Y664615D02*
X977093Y670135D01*
X969383Y664615D02*
X971573D01*
X965608Y668390D02*
X969383Y664615D01*
X963417Y668390D02*
X965608D01*
X961956Y666930D02*
X963417Y668390D01*
X961956Y664739D02*
Y666930D01*
Y664739D02*
X965731Y660964D01*
Y658773D02*
Y660964D01*
X964271Y657313D02*
X965731Y658773D01*
X962080Y657313D02*
X964271D01*
X958305Y661088D02*
X962080Y657313D01*
X956114Y661088D02*
X958305D01*
X954654Y659627D02*
X956114Y661088D01*
X954654Y657436D02*
Y659627D01*
Y657436D02*
X958428Y653661D01*
Y651470D02*
Y653661D01*
X957950Y650992D02*
X958428Y651470D01*
X788224Y781050D02*
X790087Y782913D01*
Y789801D01*
X783682Y796206D02*
X790087Y789801D01*
X752127Y796206D02*
X783682D01*
X745963Y790042D02*
X752127Y796206D01*
X725613Y790042D02*
X745963D01*
X719985Y795670D02*
X725613Y790042D01*
X719985Y795670D02*
Y818780D01*
X726746Y825540D01*
X750276D01*
X753448Y822368D01*
Y815916D02*
Y822368D01*
Y815916D02*
X755780Y813584D01*
Y812800D02*
Y813584D01*
X793473Y782913D02*
Y791204D01*
Y782913D02*
X795336Y781050D01*
X785085Y799592D02*
X793473Y791204D01*
X750724Y799592D02*
X785085D01*
X744560Y793428D02*
X750724Y799592D01*
X727016Y793428D02*
X744560D01*
X723371Y797072D02*
X727016Y793428D01*
X723371Y797072D02*
Y817378D01*
X728148Y822154D01*
X737331D01*
X738124Y821361D01*
Y816641D02*
Y821361D01*
X738917Y815848D02*
X742665D01*
X738124Y816641D02*
X738917Y815848D01*
X742665D02*
X743458Y816641D01*
Y821361D01*
X744251Y822154D01*
X748873D01*
X750062Y820966D01*
Y815916D02*
Y820966D01*
X747780Y813634D02*
X750062Y815916D01*
X747780Y812800D02*
Y813634D01*
X451236Y499534D02*
X726102D01*
X853000Y550132D02*
Y551180D01*
X851137Y548270D02*
X853000Y550132D01*
X851137Y537739D02*
Y548270D01*
X843642Y530244D02*
X851137Y537739D01*
X813478Y519346D02*
X824376Y530244D01*
X843642D01*
X745914Y519346D02*
X813478D01*
X726102Y499534D02*
X745914Y519346D01*
X449086Y497384D02*
X451236Y499534D01*
X449086Y489066D02*
X450949Y487203D01*
X449086Y489066D02*
Y497384D01*
X450949Y486156D02*
Y487203D01*
X449834Y502920D02*
X724700D01*
X845889Y550008D02*
X847752Y548145D01*
X845889Y550008D02*
Y551056D01*
X847752Y539142D02*
Y548145D01*
X842240Y533630D02*
X847752Y539142D01*
X812076Y522732D02*
X822973Y533630D01*
X842240D01*
X744512Y522732D02*
X812076D01*
X724700Y502920D02*
X744512Y522732D01*
X445700Y498786D02*
X449834Y502920D01*
X443837Y487203D02*
X445700Y489066D01*
Y498786D01*
X443837Y486156D02*
Y487203D01*
X766302Y481446D02*
Y486125D01*
X768165Y478536D02*
Y479583D01*
X766302Y481446D02*
X768165Y479583D01*
X889000Y550132D02*
Y551180D01*
X887137Y548270D02*
X889000Y550132D01*
X887137Y525987D02*
Y548270D01*
X848068Y486918D02*
X887137Y525987D01*
X767095Y486918D02*
X848068D01*
X766302Y486125D02*
X767095Y486918D01*
X761053Y478536D02*
Y479583D01*
X762916Y481446D01*
Y487527D01*
X881889Y550008D02*
Y551056D01*
Y550008D02*
X883752Y548145D01*
Y527390D02*
Y548145D01*
X846666Y490304D02*
X883752Y527390D01*
X765693Y490304D02*
X846666D01*
X762916Y487527D02*
X765693Y490304D01*
X147110Y457728D02*
Y461518D01*
X151682Y466090D01*
X214395Y494849D02*
X228738D01*
X151682Y466090D02*
X185636D01*
X214395Y494849D01*
X228738D02*
X230601Y492986D01*
X231648D01*
X219233Y502158D02*
X222473D01*
X223266Y499251D02*
Y501365D01*
X222473Y502158D02*
X223266Y501365D01*
X218440Y499251D02*
Y501365D01*
X219233Y502158D01*
X143724Y462920D02*
X150279Y469476D01*
X143724Y457669D02*
Y462920D01*
X224282Y498235D02*
X228738D01*
X212993D02*
X217424D01*
X223266Y499251D02*
X224282Y498235D01*
X217424D02*
X218440Y499251D01*
X184234Y469476D02*
X212993Y498235D01*
X150279Y469476D02*
X184234D01*
X230601Y500098D02*
X231648D01*
X228738Y498235D02*
X230601Y500098D01*
X1383548Y450850D02*
Y451897D01*
X1381685Y453760D02*
X1383548Y451897D01*
X1377670Y461094D02*
X1381685Y457078D01*
X1336718Y461094D02*
X1377670D01*
X1381685Y453760D02*
Y457078D01*
X931280Y613269D02*
X952096D01*
X929417Y615132D02*
X931280Y613269D01*
X928370Y615132D02*
X929417D01*
X1302936Y466936D02*
X1330876D01*
X1170348Y599524D02*
X1302936Y466936D01*
X1330876D02*
X1336718Y461094D01*
X952096Y613269D02*
X965840Y599524D01*
X1170348D01*
X1369314Y457708D02*
X1376267D01*
X1335316D02*
X1353566D01*
X1378299Y453760D02*
Y455676D01*
X1376267Y457708D02*
X1378299Y455676D01*
X1376436Y451897D02*
X1378299Y453760D01*
X1376436Y450850D02*
Y451897D01*
X931280Y609883D02*
X950693D01*
X929417Y608020D02*
X931280Y609883D01*
X928370Y608020D02*
X929417D01*
X1301534Y463550D02*
X1329474D01*
X1168946Y596138D02*
X1301534Y463550D01*
X1329474D02*
X1335316Y457708D01*
X950693Y609883D02*
X964438Y596138D01*
X1168946D01*
X992256Y771285D02*
X998812Y764730D01*
X987160Y771285D02*
X992256D01*
X998812Y687066D02*
Y764730D01*
X958424Y646678D02*
X998812Y687066D01*
X984250Y773148D02*
X985297D01*
X987160Y771285D01*
X958424Y644043D02*
Y646678D01*
X957684Y643303D02*
X958424Y644043D01*
X977093Y670135D02*
X995426Y688468D01*
X956030Y649072D02*
X957950Y650992D01*
X987160Y767899D02*
X990854D01*
X995426Y688468D02*
Y763327D01*
X990854Y767899D02*
X995426Y763327D01*
X985297Y766036D02*
X987160Y767899D01*
X984250Y766036D02*
X985297D01*
X953395Y649072D02*
X956030D01*
X952655Y648332D02*
X953395Y649072D01*
X769536Y758782D02*
X771398Y756920D01*
X769536Y758782D02*
Y777191D01*
X771398Y635038D02*
Y756920D01*
Y635038D02*
X774465Y631971D01*
X786911Y619525D01*
X767673Y779054D02*
Y780101D01*
Y779054D02*
X769536Y777191D01*
X786911Y619525D02*
X790840D01*
X792703Y617662D01*
X793750D01*
X780034Y632714D02*
X785696Y638376D01*
X789506Y634566D02*
Y635688D01*
X785696Y638376D02*
X786818D01*
X783643Y628703D02*
X789506Y634566D01*
X786818Y638376D02*
X789506Y635688D01*
X774784Y636440D02*
X778510Y632714D01*
X780034D01*
X783643Y627581D02*
Y628703D01*
Y627581D02*
X788314Y622910D01*
X774784Y636440D02*
Y758322D01*
X772922Y760184D02*
X774784Y758322D01*
X772922Y760184D02*
Y777191D01*
X788314Y622910D02*
X790840D01*
X774785Y779054D02*
Y780101D01*
X772922Y777191D02*
X774785Y779054D01*
X792703Y624774D02*
X793750D01*
X790840Y622910D02*
X792703Y624774D01*
X420102Y458216D02*
X466052D01*
X875803Y556483D02*
Y557530D01*
X873940Y554620D02*
X875803Y556483D01*
X873940Y528030D02*
Y554620D01*
X844174Y498264D02*
X873940Y528030D01*
X735246Y474896D02*
X758614Y498264D01*
X844174D01*
X482732Y474896D02*
X735246D01*
X466052Y458216D02*
X482732Y474896D01*
X420949Y452120D02*
Y453167D01*
X419086Y455030D02*
Y457200D01*
X420102Y458216D01*
X419086Y455030D02*
X420949Y453167D01*
X870554Y529432D02*
Y554620D01*
X868691Y556483D02*
X870554Y554620D01*
X868691Y556483D02*
Y557530D01*
X842772Y501650D02*
X870554Y529432D01*
X733844Y478282D02*
X757212Y501650D01*
X842772D01*
X481330Y478282D02*
X733844D01*
X464650Y461602D02*
X481330Y478282D01*
X418699Y461602D02*
X464650D01*
X415700Y458602D02*
X418699Y461602D01*
X413837Y453167D02*
X415700Y455030D01*
Y458602D01*
X413837Y452120D02*
Y453167D01*
X428837Y476727D02*
X430700Y474864D01*
X428837Y476727D02*
Y477774D01*
X863803Y542513D02*
Y543560D01*
X861940Y540650D02*
X863803Y542513D01*
X861940Y528984D02*
Y540650D01*
X841888Y508932D02*
X861940Y528984D01*
X730166Y488104D02*
X750994Y508932D01*
X841888D01*
X479176Y488104D02*
X730166D01*
X458856Y467784D02*
X479176Y488104D01*
X430700Y470784D02*
Y474864D01*
X433699Y467784D02*
X458856D01*
X430700Y470784D02*
X433699Y467784D01*
X434086Y472186D02*
Y474864D01*
Y472186D02*
X435102Y471170D01*
X435949Y476727D02*
Y477774D01*
X434086Y474864D02*
X435949Y476727D01*
X435102Y471170D02*
X441706D01*
X457200D02*
X457454D01*
X858554Y530386D02*
Y540650D01*
X856691Y542513D02*
X858554Y540650D01*
X856691Y542513D02*
Y543560D01*
X840486Y512318D02*
X858554Y530386D01*
X728764Y491490D02*
X749592Y512318D01*
X840486D01*
X477774Y491490D02*
X728764D01*
X457454Y471170D02*
X477774Y491490D01*
X734314Y448069D02*
X737095Y450850D01*
X734314Y446311D02*
Y448069D01*
Y446311D02*
X736016Y444610D01*
Y443464D02*
Y444610D01*
X737095Y450850D02*
X847814D01*
X909940Y512976D01*
X911803Y551403D02*
Y552450D01*
X909940Y549540D02*
X911803Y551403D01*
X909940Y512976D02*
Y549540D01*
X730928Y449471D02*
X735693Y454236D01*
X730928Y447430D02*
Y449471D01*
X728982Y445485D02*
X730928Y447430D01*
X728982Y444520D02*
Y445485D01*
X735693Y454236D02*
X846412D01*
X906554Y514378D01*
X904691Y551403D02*
X906554Y549540D01*
X904691Y551403D02*
Y552450D01*
X906554Y514378D02*
Y549540D01*
X752955Y464812D02*
Y465957D01*
X751260Y467653D02*
Y471037D01*
Y467653D02*
X752955Y465957D01*
X751260Y471037D02*
X752053Y471830D01*
X755907D01*
X757582Y470155D01*
X849594D01*
X897940Y518502D01*
Y540650D01*
X899803Y542513D02*
Y543560D01*
X897940Y540650D02*
X899803Y542513D01*
X745844Y464812D02*
Y465692D01*
X747874Y467722D01*
Y472439D01*
X750650Y475216D01*
X757310D01*
X758984Y473541D02*
X848191D01*
X757310Y475216D02*
X758984Y473541D01*
X848191D02*
X894554Y519904D01*
X892691Y542513D02*
X894554Y540650D01*
X892691Y542513D02*
Y543560D01*
X894554Y519904D02*
Y540650D01*
X162444Y496373D02*
X164307Y494510D01*
X165354D01*
X137414Y497840D02*
X138881Y496373D01*
X118634Y497840D02*
X137414D01*
X138881Y496373D02*
X162444D01*
X117110Y492876D02*
Y496316D01*
X118634Y497840D01*
X118973Y489966D02*
Y491013D01*
X117110Y492876D02*
X118973Y491013D01*
X164307Y501622D02*
X165354D01*
X162444Y499759D02*
X164307Y501622D01*
X117231Y501226D02*
X138816D01*
X140283Y499759D02*
X162444D01*
X138816Y501226D02*
X140283Y499759D01*
X113724Y492876D02*
Y497718D01*
X117231Y501226D01*
X111861Y489966D02*
Y491013D01*
X113724Y492876D01*
X149319Y489275D02*
X154032Y484561D01*
X172866D01*
X177057Y488753D01*
X133328Y489275D02*
X149319D01*
X132256Y488203D02*
X133328Y489275D01*
X132256Y485825D02*
Y488203D01*
X133017Y484701D02*
Y485064D01*
X132256Y483939D02*
X133017Y484701D01*
X132256Y485825D02*
X133017Y485064D01*
X189961Y486890D02*
X191008D01*
X188098Y488753D02*
X189961Y486890D01*
X177057Y488753D02*
X188098D01*
X155435Y487947D02*
X171463D01*
X150721Y492661D02*
X155435Y487947D01*
X171463D02*
X175655Y492139D01*
X128870Y489605D02*
X131926Y492661D01*
X150721D01*
X128870Y486409D02*
Y489605D01*
X127424Y484962D02*
X128870Y486409D01*
X127424Y484632D02*
Y484962D01*
X189961Y494002D02*
X191008D01*
X188098Y492139D02*
X189961Y494002D01*
X175655Y492139D02*
X188098D01*
X1351685Y487796D02*
X1353548Y485933D01*
X1351685Y487796D02*
Y493877D01*
X1353548Y484886D02*
Y485933D01*
X956420Y635132D02*
X958283Y633269D01*
X955373Y635132D02*
X956420D01*
X958283Y633269D02*
X1173433D01*
X1310048Y496654D02*
X1348909D01*
X1173433Y633269D02*
X1310048Y496654D01*
X1348909D02*
X1351685Y493877D01*
X1308646Y493268D02*
X1325626D01*
X1341882D02*
X1347506D01*
X1348299Y487796D02*
Y492475D01*
X1346436Y485933D02*
X1348299Y487796D01*
X1347506Y493268D02*
X1348299Y492475D01*
X1346436Y484886D02*
Y485933D01*
X958283Y629883D02*
X1172031D01*
X955373Y628020D02*
X956420D01*
X1172031Y629883D02*
X1308646Y493268D01*
X956420Y628020D02*
X958283Y629883D01*
X1309794Y478874D02*
X1355943D01*
X1360093Y483024D01*
X1365173D01*
X1367950Y476930D02*
X1369813Y475067D01*
X1367950Y476930D02*
Y480247D01*
X1369813Y474020D02*
Y475067D01*
X1365173Y483024D02*
X1367950Y480247D01*
X969041Y623062D02*
X970904Y621199D01*
X967994Y623062D02*
X969041D01*
X970904Y621199D02*
X994071D01*
X1178052Y610616D02*
X1309794Y478874D01*
X1004654Y610616D02*
X1178052D01*
X994071Y621199D02*
X1004654Y610616D01*
X1362644Y474073D02*
Y475010D01*
X1364564Y476930D01*
X1357345Y475488D02*
X1361495Y479638D01*
X1363771D02*
X1364564Y478845D01*
X1176650Y607230D02*
X1308392Y475488D01*
X1364564Y476930D02*
Y478845D01*
X1353312Y475488D02*
X1357345D01*
X1361495Y479638D02*
X1363771D01*
X1308392Y475488D02*
X1338326D01*
X970904Y617813D02*
X992669D01*
X969041Y615950D02*
X970904Y617813D01*
X967994Y615950D02*
X969041D01*
X1003251Y607230D02*
X1176650D01*
X992669Y617813D02*
X1003251Y607230D01*
X1130184Y499675D02*
X1132047Y497812D01*
X1050601Y499675D02*
X1130184D01*
X1132047Y497812D02*
X1133094D01*
X1050724Y485144D02*
Y486191D01*
X1048861Y488054D02*
X1050724Y486191D01*
X1048861Y497935D02*
X1050601Y499675D01*
X1048861Y488054D02*
Y497935D01*
X1125728Y503061D02*
X1130184D01*
X1049199D02*
X1100836D01*
X1132047Y504924D02*
X1133094D01*
X1130184Y503061D02*
X1132047Y504924D01*
X1045475Y499337D02*
X1049199Y503061D01*
X1045475Y488054D02*
Y499337D01*
X1043612Y485144D02*
Y486191D01*
X1045475Y488054D01*
X1060703Y478988D02*
Y481279D01*
X1062566Y476078D02*
Y477125D01*
X1060703Y478988D02*
X1062566Y477125D01*
X1060703Y481279D02*
X1062109Y482685D01*
X1097418D01*
X1099281Y480822D01*
X1100328D01*
X1060706Y486071D02*
X1071505D01*
X1057317Y478988D02*
Y482681D01*
X1055454Y476078D02*
Y477125D01*
X1057317Y478988D01*
Y482681D02*
X1060706Y486071D01*
X1092962D02*
X1097418D01*
X1099281Y487934D02*
X1100328D01*
X1097418Y486071D02*
X1099281Y487934D01*
X777947Y792056D02*
X783166Y786837D01*
X754070Y792056D02*
X777947D01*
X783166Y776648D02*
Y786837D01*
X750087Y625869D02*
X778073Y597883D01*
X749144Y770116D02*
X749893Y769366D01*
X750147Y697991D02*
Y766456D01*
X749144Y767459D02*
X750147Y766456D01*
X749144Y771273D02*
X750147Y772276D01*
X749144Y768616D02*
X749893Y769366D01*
X750087Y778406D02*
X750147Y778346D01*
X750087Y625869D02*
Y697931D01*
Y788073D02*
X754070Y792056D01*
X750087Y697931D02*
X750147Y697991D01*
Y772276D02*
Y778346D01*
X750087Y778406D02*
Y788073D01*
X749144Y767459D02*
Y768616D01*
X748284Y769366D02*
X749893D01*
X749144Y770116D02*
Y771273D01*
X787780Y812800D02*
X790110Y810470D01*
Y802978D02*
Y810470D01*
Y802978D02*
X800862Y792226D01*
Y777494D02*
Y792226D01*
X797306Y773938D02*
X800862Y777494D01*
X785876Y773938D02*
X797306D01*
X783166Y776648D02*
X785876Y773938D01*
X778073Y597883D02*
X797190D01*
X799053Y596020D01*
X800100D01*
X776545Y788670D02*
X779780Y785435D01*
Y775246D02*
Y785435D01*
X755472Y788670D02*
X776545D01*
X755396Y769366D02*
Y770413D01*
Y768319D02*
Y769366D01*
X753473Y696528D02*
X753533Y696588D01*
X753473Y779809D02*
Y786671D01*
X753533Y766456D02*
X755396Y768319D01*
X753533Y772276D02*
Y779749D01*
X753473Y627271D02*
Y696528D01*
Y779809D02*
X753533Y779749D01*
Y772276D02*
X755396Y770413D01*
X753533Y696588D02*
Y766456D01*
X753473Y627271D02*
X760222Y620522D01*
X779780Y775246D02*
X784474Y770552D01*
X793496Y810516D02*
X795780Y812800D01*
X793496Y804380D02*
Y810516D01*
Y804380D02*
X804248Y793628D01*
Y776092D02*
Y793628D01*
X798708Y770552D02*
X804248Y776092D01*
X784474Y770552D02*
X798708D01*
X753473Y786671D02*
X755472Y788670D01*
X779577Y601269D02*
X797190D01*
X799053Y603132D02*
X800100D01*
X797190Y601269D02*
X799053Y603132D01*
X790109Y659177D02*
Y711708D01*
Y729996D02*
Y733436D01*
Y659177D02*
X819234Y630052D01*
X790109Y733436D02*
X791972Y735299D01*
Y736346D01*
X819234Y613898D02*
Y630052D01*
X815218Y609883D02*
X819234Y613898D01*
X811936Y609883D02*
X815218D01*
X810073Y608020D02*
X811936Y609883D01*
X809026Y608020D02*
X810073D01*
X802386Y642112D02*
X814705Y629793D01*
X786723Y657775D02*
X802386Y642112D01*
X786723Y657775D02*
Y733436D01*
X784860Y735299D02*
Y736346D01*
Y735299D02*
X786723Y733436D01*
X814705Y629793D02*
X815848Y628650D01*
Y615301D02*
Y628650D01*
X810073Y615132D02*
X811936Y613269D01*
X809026Y615132D02*
X810073D01*
X813816Y613269D02*
X815848Y615301D01*
X811936Y613269D02*
X813816D01*
M02*
