G04*
G04 #@! TF.GenerationSoftware,Altium Limited,Altium Designer,23.10.1 (27)*
G04*
G04 Layer_Color=8388736*
%FSLAX44Y44*%
%MOMM*%
G71*
G04*
G04 #@! TF.SameCoordinates,71CC738A-04A0-4CD5-BBD9-20E7C06DD327*
G04*
G04*
G04 #@! TF.FilePolarity,Negative*
G04*
G01*
G75*
%ADD17R,0.9000X1.0000*%
%ADD18R,1.7000X0.5500*%
%ADD30R,1.1176X0.5588*%
%ADD35R,0.2032X1.0160*%
%ADD36R,1.0160X0.2032*%
%ADD39R,0.8636X3.2512*%
%ADD41R,1.2048X0.7492*%
%ADD47R,0.2540X1.0668*%
%ADD49R,1.0668X0.2540*%
%ADD56R,0.9532X0.8032*%
%ADD57R,1.8532X1.4032*%
%ADD58R,0.8032X0.9532*%
G04:AMPARAMS|DCode=59|XSize=1.1132mm|YSize=1.1332mm|CornerRadius=0.2154mm|HoleSize=0mm|Usage=FLASHONLY|Rotation=180.000|XOffset=0mm|YOffset=0mm|HoleType=Round|Shape=RoundedRectangle|*
%AMROUNDEDRECTD59*
21,1,1.1132,0.7025,0,0,180.0*
21,1,0.6825,1.1332,0,0,180.0*
1,1,0.4307,-0.3413,0.3513*
1,1,0.4307,0.3413,0.3513*
1,1,0.4307,0.3413,-0.3513*
1,1,0.4307,-0.3413,-0.3513*
%
%ADD59ROUNDEDRECTD59*%
%ADD60C,1.2032*%
%ADD61R,0.5032X1.1032*%
%ADD62R,1.2032X1.7032*%
%ADD63R,1.4032X2.4032*%
%ADD64R,1.1032X1.1032*%
G04:AMPARAMS|DCode=65|XSize=1.0432mm|YSize=0.4632mm|CornerRadius=0.1341mm|HoleSize=0mm|Usage=FLASHONLY|Rotation=270.000|XOffset=0mm|YOffset=0mm|HoleType=Round|Shape=RoundedRectangle|*
%AMROUNDEDRECTD65*
21,1,1.0432,0.1950,0,0,270.0*
21,1,0.7750,0.4632,0,0,270.0*
1,1,0.2682,-0.0975,-0.3875*
1,1,0.2682,-0.0975,0.3875*
1,1,0.2682,0.0975,0.3875*
1,1,0.2682,0.0975,-0.3875*
%
%ADD65ROUNDEDRECTD65*%
%ADD66R,5.3032X5.3032*%
%ADD67R,2.4016X0.3516*%
%ADD68R,0.3516X0.7516*%
G04:AMPARAMS|DCode=69|XSize=1.6932mm|YSize=0.8132mm|CornerRadius=0.1779mm|HoleSize=0mm|Usage=FLASHONLY|Rotation=0.000|XOffset=0mm|YOffset=0mm|HoleType=Round|Shape=RoundedRectangle|*
%AMROUNDEDRECTD69*
21,1,1.6932,0.4575,0,0,0.0*
21,1,1.3375,0.8132,0,0,0.0*
1,1,0.3557,0.6688,-0.2288*
1,1,0.3557,-0.6688,-0.2288*
1,1,0.3557,-0.6688,0.2288*
1,1,0.3557,0.6688,0.2288*
%
%ADD69ROUNDEDRECTD69*%
%ADD70R,1.2232X0.6032*%
%ADD71R,0.9532X1.0532*%
%ADD72R,1.7032X1.4032*%
%ADD73R,1.2032X1.2232*%
%ADD74R,2.0232X1.4132*%
%ADD75R,2.0532X3.6032*%
G04:AMPARAMS|DCode=76|XSize=0.4632mm|YSize=1.0432mm|CornerRadius=0.1341mm|HoleSize=0mm|Usage=FLASHONLY|Rotation=270.000|XOffset=0mm|YOffset=0mm|HoleType=Round|Shape=RoundedRectangle|*
%AMROUNDEDRECTD76*
21,1,0.4632,0.7750,0,0,270.0*
21,1,0.1950,1.0432,0,0,270.0*
1,1,0.2682,-0.3875,-0.0975*
1,1,0.2682,-0.3875,0.0975*
1,1,0.2682,0.3875,0.0975*
1,1,0.2682,0.3875,-0.0975*
%
%ADD76ROUNDEDRECTD76*%
%ADD77R,0.5080X1.0160*%
%ADD78R,1.0160X0.5080*%
G04:AMPARAMS|DCode=79|XSize=1.4182mm|YSize=0.5902mm|CornerRadius=0.1984mm|HoleSize=0mm|Usage=FLASHONLY|Rotation=0.000|XOffset=0mm|YOffset=0mm|HoleType=Round|Shape=RoundedRectangle|*
%AMROUNDEDRECTD79*
21,1,1.4182,0.1935,0,0,0.0*
21,1,1.0215,0.5902,0,0,0.0*
1,1,0.3967,0.5108,-0.0968*
1,1,0.3967,-0.5108,-0.0968*
1,1,0.3967,-0.5108,0.0968*
1,1,0.3967,0.5108,0.0968*
%
%ADD79ROUNDEDRECTD79*%
%ADD80R,0.8766X0.3516*%
%ADD81R,1.0532X1.1532*%
%ADD82R,0.8532X1.2532*%
%ADD83R,1.3532X1.5532*%
%ADD84R,1.5032X1.7032*%
%ADD85R,2.7032X2.8032*%
%ADD86R,3.4544X3.4544*%
%ADD87R,3.3528X3.3528*%
%ADD88R,8.1026X8.1026*%
%ADD89C,1.9032*%
%ADD90R,1.9032X1.9032*%
%ADD91C,0.8032*%
%ADD92O,1.0032X1.6032*%
%ADD93C,1.6012*%
%ADD94C,1.3970*%
%ADD95R,1.6012X1.6012*%
%ADD96R,1.9032X1.9032*%
G04:AMPARAMS|DCode=97|XSize=1.9032mm|YSize=1.9032mm|CornerRadius=0mm|HoleSize=0mm|Usage=FLASHONLY|Rotation=90.000|XOffset=0mm|YOffset=0mm|HoleType=Round|Shape=Octagon|*
%AMOCTAGOND97*
4,1,8,0.4758,0.9516,-0.4758,0.9516,-0.9516,0.4758,-0.9516,-0.4758,-0.4758,-0.9516,0.4758,-0.9516,0.9516,-0.4758,0.9516,0.4758,0.4758,0.9516,0.0*
%
%ADD97OCTAGOND97*%

%ADD98R,1.3970X1.3970*%
%ADD99O,0.8532X0.2032*%
%ADD100C,0.8532*%
%ADD101C,0.5032*%
G36*
X1110468Y811858D02*
X1110563Y811829D01*
X1110651Y811782D01*
X1110728Y811719D01*
X1111228Y811219D01*
X1111291Y811142D01*
X1111338Y811054D01*
X1111367Y810959D01*
X1111377Y810860D01*
Y806820D01*
X1111579Y806618D01*
X1114619D01*
X1114718Y806608D01*
X1114813Y806579D01*
X1114901Y806532D01*
X1114978Y806469D01*
X1115478Y805969D01*
X1115541Y805892D01*
X1115588Y805804D01*
X1115617Y805709D01*
X1115627Y805610D01*
Y804110D01*
X1115617Y804011D01*
X1115588Y803916D01*
X1115541Y803828D01*
X1115478Y803751D01*
X1114978Y803251D01*
X1114901Y803188D01*
X1114813Y803141D01*
X1114718Y803112D01*
X1114619Y803102D01*
X1107869D01*
X1107770Y803112D01*
X1107675Y803141D01*
X1107587Y803188D01*
X1107510Y803251D01*
X1107010Y803751D01*
X1106947Y803828D01*
X1106900Y803916D01*
X1106871Y804011D01*
X1106861Y804110D01*
Y810860D01*
X1106871Y810959D01*
X1106900Y811054D01*
X1106947Y811142D01*
X1107010Y811219D01*
X1107510Y811719D01*
X1107587Y811782D01*
X1107675Y811829D01*
X1107770Y811858D01*
X1107869Y811868D01*
X1110369D01*
X1110468Y811858D01*
D02*
G37*
G36*
X1099468D02*
X1099563Y811829D01*
X1099651Y811782D01*
X1099728Y811719D01*
X1100228Y811219D01*
X1100291Y811142D01*
X1100338Y811054D01*
X1100367Y810959D01*
X1100377Y810860D01*
Y804110D01*
X1100367Y804011D01*
X1100338Y803916D01*
X1100291Y803828D01*
X1100228Y803751D01*
X1099728Y803251D01*
X1099651Y803188D01*
X1099563Y803141D01*
X1099468Y803112D01*
X1099369Y803102D01*
X1092619D01*
X1092520Y803112D01*
X1092425Y803141D01*
X1092337Y803188D01*
X1092260Y803251D01*
X1091760Y803751D01*
X1091697Y803828D01*
X1091650Y803916D01*
X1091621Y804011D01*
X1091611Y804110D01*
Y805610D01*
X1091621Y805709D01*
X1091650Y805804D01*
X1091697Y805892D01*
X1091760Y805969D01*
X1092260Y806469D01*
X1092337Y806532D01*
X1092425Y806579D01*
X1092520Y806608D01*
X1092619Y806618D01*
X1095659D01*
X1095861Y806820D01*
Y810860D01*
X1095871Y810959D01*
X1095900Y811054D01*
X1095947Y811142D01*
X1096010Y811219D01*
X1096510Y811719D01*
X1096587Y811782D01*
X1096675Y811829D01*
X1096770Y811858D01*
X1096869Y811868D01*
X1099369D01*
X1099468Y811858D01*
D02*
G37*
G36*
X737500Y803540D02*
X737720Y803530D01*
X737940Y803500D01*
X738160Y803460D01*
X738380Y803410D01*
X738590Y803340D01*
X738800Y803270D01*
X739010Y803180D01*
X739210Y803090D01*
X739410Y802980D01*
X739590Y802860D01*
X739780Y802740D01*
X739950Y802600D01*
X740120Y802460D01*
X740290Y802310D01*
X740440Y802140D01*
X740580Y801970D01*
X740720Y801800D01*
X740840Y801610D01*
X740960Y801420D01*
X741070Y801230D01*
X741160Y801030D01*
X741250Y800820D01*
X741320Y800610D01*
X741390Y800400D01*
X741440Y800180D01*
X741480Y799960D01*
X741510Y799740D01*
X741520Y799520D01*
X741530Y799300D01*
X741520Y799080D01*
X741510Y798860D01*
X741480Y798640D01*
X741440Y798420D01*
X741390Y798200D01*
X741320Y797990D01*
X741250Y797780D01*
X741160Y797570D01*
X741070Y797370D01*
X740960Y797170D01*
X740840Y796990D01*
X740720Y796800D01*
X740580Y796630D01*
X740440Y796460D01*
X740290Y796290D01*
X740120Y796140D01*
X739950Y796000D01*
X739780Y795860D01*
X739590Y795740D01*
X739410Y795620D01*
X739210Y795510D01*
X739010Y795420D01*
X738800Y795330D01*
X738590Y795260D01*
X738380Y795190D01*
X738160Y795140D01*
X737940Y795100D01*
X737720Y795070D01*
X737500Y795060D01*
X737280Y795050D01*
X734280D01*
X734060Y795060D01*
X733840Y795070D01*
X733620Y795100D01*
X733400Y795140D01*
X733180Y795190D01*
X732970Y795260D01*
X732760Y795330D01*
X732550Y795420D01*
X732350Y795510D01*
X732160Y795620D01*
X731970Y795740D01*
X731780Y795860D01*
X731610Y796000D01*
X731440Y796140D01*
X731270Y796290D01*
X731120Y796460D01*
X730980Y796630D01*
X730840Y796800D01*
X730720Y796990D01*
X730600Y797170D01*
X730490Y797370D01*
X730400Y797570D01*
X730310Y797780D01*
X730240Y797990D01*
X730170Y798200D01*
X730120Y798420D01*
X730080Y798640D01*
X730050Y798860D01*
X730040Y799080D01*
X730030Y799300D01*
X730040Y799520D01*
X730050Y799740D01*
X730080Y799960D01*
X730120Y800180D01*
X730170Y800400D01*
X730240Y800610D01*
X730310Y800820D01*
X730400Y801030D01*
X730490Y801230D01*
X730600Y801420D01*
X730720Y801610D01*
X730840Y801800D01*
X730980Y801970D01*
X731120Y802140D01*
X731270Y802310D01*
X731440Y802460D01*
X731610Y802600D01*
X731780Y802740D01*
X731970Y802860D01*
X732160Y802980D01*
X732350Y803090D01*
X732550Y803180D01*
X732760Y803270D01*
X732970Y803340D01*
X733180Y803410D01*
X733400Y803460D01*
X733620Y803500D01*
X733840Y803530D01*
X734060Y803540D01*
X734280Y803550D01*
X737280D01*
X737500Y803540D01*
D02*
G37*
G36*
X1114718Y786608D02*
X1114813Y786579D01*
X1114901Y786532D01*
X1114978Y786469D01*
X1115478Y785969D01*
X1115541Y785892D01*
X1115588Y785804D01*
X1115617Y785709D01*
X1115627Y785610D01*
Y784110D01*
X1115617Y784011D01*
X1115588Y783916D01*
X1115541Y783828D01*
X1115478Y783751D01*
X1114978Y783251D01*
X1114901Y783188D01*
X1114813Y783141D01*
X1114718Y783112D01*
X1114619Y783102D01*
X1111579D01*
X1111377Y782900D01*
Y778860D01*
X1111367Y778761D01*
X1111338Y778665D01*
X1111291Y778578D01*
X1111228Y778501D01*
X1110728Y778001D01*
X1110651Y777938D01*
X1110563Y777891D01*
X1110468Y777862D01*
X1110369Y777852D01*
X1107869D01*
X1107770Y777862D01*
X1107675Y777891D01*
X1107587Y777938D01*
X1107510Y778001D01*
X1107010Y778501D01*
X1106947Y778578D01*
X1106900Y778665D01*
X1106871Y778761D01*
X1106861Y778860D01*
Y785610D01*
X1106871Y785709D01*
X1106900Y785804D01*
X1106947Y785892D01*
X1107010Y785969D01*
X1107510Y786469D01*
X1107587Y786532D01*
X1107675Y786579D01*
X1107770Y786608D01*
X1107869Y786618D01*
X1114619D01*
X1114718Y786608D01*
D02*
G37*
G36*
X1099468D02*
X1099563Y786579D01*
X1099651Y786532D01*
X1099728Y786469D01*
X1100228Y785969D01*
X1100291Y785892D01*
X1100338Y785804D01*
X1100367Y785709D01*
X1100377Y785610D01*
Y778860D01*
X1100367Y778761D01*
X1100338Y778665D01*
X1100291Y778578D01*
X1100228Y778501D01*
X1099728Y778001D01*
X1099651Y777938D01*
X1099563Y777891D01*
X1099468Y777862D01*
X1099369Y777852D01*
X1096869D01*
X1096770Y777862D01*
X1096675Y777891D01*
X1096587Y777938D01*
X1096510Y778001D01*
X1096010Y778501D01*
X1095947Y778578D01*
X1095900Y778665D01*
X1095871Y778761D01*
X1095861Y778860D01*
Y782900D01*
X1095659Y783102D01*
X1092619D01*
X1092520Y783112D01*
X1092425Y783141D01*
X1092337Y783188D01*
X1092260Y783251D01*
X1091760Y783751D01*
X1091697Y783828D01*
X1091650Y783916D01*
X1091621Y784011D01*
X1091611Y784110D01*
Y785610D01*
X1091621Y785709D01*
X1091650Y785804D01*
X1091697Y785892D01*
X1091760Y785969D01*
X1092260Y786469D01*
X1092337Y786532D01*
X1092425Y786579D01*
X1092520Y786608D01*
X1092619Y786618D01*
X1099369D01*
X1099468Y786608D01*
D02*
G37*
D17*
X379148Y633630D02*
D03*
X338148D02*
D03*
X379148Y649630D02*
D03*
X338148D02*
D03*
D18*
X358648Y627380D02*
D03*
D30*
X1072388Y544170D02*
D03*
X1094740Y534670D02*
D03*
X1072388Y525170D02*
D03*
D35*
X930247Y567664D02*
D03*
X914247Y683488D02*
D03*
X866247Y567664D02*
D03*
X902247D02*
D03*
X922247Y683488D02*
D03*
X886247D02*
D03*
X866247D02*
D03*
X914247Y567664D02*
D03*
X918247D02*
D03*
X922247D02*
D03*
X926247D02*
D03*
X874247Y683488D02*
D03*
X834247Y567664D02*
D03*
X858247Y683488D02*
D03*
X862247D02*
D03*
X850247D02*
D03*
X854247D02*
D03*
Y567664D02*
D03*
X850247D02*
D03*
X890247D02*
D03*
X886247D02*
D03*
X874247D02*
D03*
X870247D02*
D03*
X862247D02*
D03*
X858247D02*
D03*
X910247D02*
D03*
X906247D02*
D03*
X898247D02*
D03*
X894247D02*
D03*
X838247D02*
D03*
X882247Y683488D02*
D03*
X878247D02*
D03*
X842247Y567664D02*
D03*
X878247D02*
D03*
X846247D02*
D03*
X882247D02*
D03*
X930247Y683488D02*
D03*
X926247D02*
D03*
X918247D02*
D03*
X910247D02*
D03*
X906247D02*
D03*
X902247D02*
D03*
X898247D02*
D03*
X894247D02*
D03*
X890247D02*
D03*
X870247D02*
D03*
X846247D02*
D03*
X842247D02*
D03*
X838247D02*
D03*
X834247D02*
D03*
D36*
X940159Y597576D02*
D03*
Y625576D02*
D03*
X824335Y665576D02*
D03*
Y637576D02*
D03*
Y605576D02*
D03*
X940159Y577576D02*
D03*
Y645576D02*
D03*
X824335Y661576D02*
D03*
Y625576D02*
D03*
Y581576D02*
D03*
Y585576D02*
D03*
Y577576D02*
D03*
Y593576D02*
D03*
X940159Y585576D02*
D03*
Y581576D02*
D03*
Y613576D02*
D03*
Y609576D02*
D03*
X824335Y649576D02*
D03*
Y653576D02*
D03*
X940159Y637576D02*
D03*
Y641576D02*
D03*
X824335Y617576D02*
D03*
Y621576D02*
D03*
X940159Y605576D02*
D03*
Y601576D02*
D03*
Y593576D02*
D03*
Y589576D02*
D03*
Y633576D02*
D03*
Y629576D02*
D03*
Y621576D02*
D03*
Y617576D02*
D03*
X824335Y629576D02*
D03*
Y633576D02*
D03*
Y641576D02*
D03*
Y645576D02*
D03*
Y597576D02*
D03*
Y601576D02*
D03*
Y609576D02*
D03*
Y613576D02*
D03*
Y589576D02*
D03*
X940159Y649576D02*
D03*
Y653576D02*
D03*
Y657576D02*
D03*
Y661576D02*
D03*
Y665576D02*
D03*
Y669576D02*
D03*
Y673576D02*
D03*
X824335Y673576D02*
D03*
Y669576D02*
D03*
Y657576D02*
D03*
D39*
X1163672Y795176D02*
D03*
X1136748D02*
D03*
D41*
X770254Y555330D02*
D03*
X751206D02*
D03*
Y534330D02*
D03*
X770254D02*
D03*
D47*
X571500Y585724D02*
D03*
X566500D02*
D03*
X561500Y538226D02*
D03*
X556500D02*
D03*
Y585724D02*
D03*
X561500D02*
D03*
X576500D02*
D03*
X581500D02*
D03*
X586500D02*
D03*
Y538226D02*
D03*
X581500D02*
D03*
X576500D02*
D03*
X571500D02*
D03*
X566500D02*
D03*
D49*
X547751Y556975D02*
D03*
Y561975D02*
D03*
Y546975D02*
D03*
Y576975D02*
D03*
Y566975D02*
D03*
Y551975D02*
D03*
X595249Y576975D02*
D03*
Y571975D02*
D03*
Y566975D02*
D03*
Y561975D02*
D03*
Y556975D02*
D03*
Y551975D02*
D03*
Y546975D02*
D03*
X547751Y571975D02*
D03*
D56*
X1105319Y324135D02*
D03*
X1300829Y402367D02*
D03*
X997299D02*
D03*
X898511Y798445D02*
D03*
X1218254Y703580D02*
D03*
Y722287D02*
D03*
X856840Y376060D02*
D03*
X1161640Y828180D02*
D03*
X887010Y798445D02*
D03*
X1218291Y731691D02*
D03*
X887010Y807923D02*
D03*
X1012784Y524510D02*
D03*
X472452Y764011D02*
D03*
X421989Y689387D02*
D03*
X713330Y517030D02*
D03*
X630330Y543420D02*
D03*
X484000Y741820D02*
D03*
X339234Y729834D02*
D03*
X803120Y553580D02*
D03*
X803157Y542430D02*
D03*
X78076Y391808D02*
D03*
X696566Y381902D02*
D03*
X380336Y388760D02*
D03*
X1008986Y387744D02*
D03*
X1312262Y387490D02*
D03*
X1129865Y646018D02*
D03*
X1078484Y679450D02*
D03*
X1078521Y688883D02*
D03*
X1067010Y707769D02*
D03*
X1066930Y717215D02*
D03*
X1001284Y533679D02*
D03*
X433489Y680142D02*
D03*
X66576Y391808D02*
D03*
X685066Y381902D02*
D03*
X368836Y388760D02*
D03*
X997486Y387744D02*
D03*
X1300762Y387490D02*
D03*
X472500Y751519D02*
D03*
Y741820D02*
D03*
X701450Y618350D02*
D03*
X701830Y517030D02*
D03*
X642210Y594500D02*
D03*
X641830Y543420D02*
D03*
X892400Y376060D02*
D03*
X540610Y383680D02*
D03*
X574900Y383820D02*
D03*
X1171800Y382668D02*
D03*
X1207360Y382808D02*
D03*
X239620Y387490D02*
D03*
X275180Y387630D02*
D03*
X1475330Y382410D02*
D03*
X1509620D02*
D03*
X563470Y517030D02*
D03*
X1012784Y533679D02*
D03*
X421989Y680142D02*
D03*
X1150140Y828180D02*
D03*
X1206791Y731691D02*
D03*
X1206754Y722287D02*
D03*
X1078510Y707769D02*
D03*
X1206754Y712990D02*
D03*
Y703580D02*
D03*
X563400Y383820D02*
D03*
X451707Y330739D02*
D03*
X880900Y376060D02*
D03*
X263680Y387630D02*
D03*
X775049Y324897D02*
D03*
X1498120Y382410D02*
D03*
X1195860Y382808D02*
D03*
X139287Y328961D02*
D03*
X1412748Y323850D02*
D03*
X1093819Y324135D02*
D03*
X472500Y732322D02*
D03*
X339234Y739275D02*
D03*
X484000Y751519D02*
D03*
X350734Y748708D02*
D03*
X1066984Y679450D02*
D03*
X845340Y376060D02*
D03*
X1463830Y382410D02*
D03*
X1160300Y382668D02*
D03*
X551970Y517030D02*
D03*
X529110Y383680D02*
D03*
X521881Y526827D02*
D03*
X228120Y387490D02*
D03*
X380149Y403637D02*
D03*
X365925Y564165D02*
D03*
X696379Y396017D02*
D03*
X77889Y407447D02*
D03*
X1008799Y402367D02*
D03*
X1312329D02*
D03*
X510381Y526827D02*
D03*
X791620Y553580D02*
D03*
X354425Y564165D02*
D03*
X510729Y546752D02*
D03*
X684879Y396017D02*
D03*
X368649Y403637D02*
D03*
X66389Y407447D02*
D03*
X339234Y748708D02*
D03*
X350734Y739275D02*
D03*
X898511Y807923D02*
D03*
X1067021Y688883D02*
D03*
X712950Y618350D02*
D03*
X630710Y594500D02*
D03*
X484000Y732322D02*
D03*
X1078430Y717215D02*
D03*
X1218254Y712990D02*
D03*
X1067021Y698478D02*
D03*
X483952Y764011D02*
D03*
X433489Y689387D02*
D03*
X1001284Y524510D02*
D03*
X463207Y330739D02*
D03*
X150787Y328961D02*
D03*
X786549Y324897D02*
D03*
X1424248Y323850D02*
D03*
X522229Y546752D02*
D03*
X350734Y729834D02*
D03*
X1078521Y698478D02*
D03*
X1141366Y646018D02*
D03*
X791657Y542430D02*
D03*
D57*
X1075351Y630160D02*
D03*
X1260660Y706228D02*
D03*
X1240644D02*
D03*
X1075351Y658160D02*
D03*
X1055074D02*
D03*
X1240644Y734228D02*
D03*
X1260660D02*
D03*
X1055074Y630160D02*
D03*
D58*
X1289273Y416316D02*
D03*
X986672Y416909D02*
D03*
X1075406Y751840D02*
D03*
X1093964Y751877D02*
D03*
X727487Y554641D02*
D03*
X869122Y721124D02*
D03*
X1188326Y515480D02*
D03*
X878700Y721124D02*
D03*
X888371D02*
D03*
X460787Y557181D02*
D03*
X134952Y460979D02*
D03*
X1093964Y763377D02*
D03*
X1084671D02*
D03*
X1075406Y763340D02*
D03*
X437611Y456156D02*
D03*
X1064016Y454529D02*
D03*
X125591Y460936D02*
D03*
X744502Y444004D02*
D03*
X428320Y456156D02*
D03*
X1054661Y454579D02*
D03*
X1368849Y451776D02*
D03*
X1359561D02*
D03*
X777301Y761664D02*
D03*
X711568Y798928D02*
D03*
X918632Y542705D02*
D03*
X928097D02*
D03*
X937427D02*
D03*
X946668Y542742D02*
D03*
X817362Y540546D02*
D03*
X869122Y709624D02*
D03*
X1112520Y763340D02*
D03*
X1178973Y526980D02*
D03*
X1188326D02*
D03*
X786700Y761651D02*
D03*
X796860D02*
D03*
X428320Y467656D02*
D03*
X437611D02*
D03*
X754115Y455504D02*
D03*
X744502D02*
D03*
X134952Y472479D02*
D03*
X125591Y472436D02*
D03*
X1368849Y463276D02*
D03*
X1359561D02*
D03*
X1064016Y466029D02*
D03*
X1054661Y466079D02*
D03*
X786700Y750151D02*
D03*
X796860D02*
D03*
X826767Y540510D02*
D03*
X836332D02*
D03*
X826767Y529010D02*
D03*
X414348Y615095D02*
D03*
X356897Y429679D02*
D03*
X674113Y422059D02*
D03*
X328453Y533489D02*
D03*
X54833Y432219D02*
D03*
X986672Y428409D02*
D03*
X1289273Y427817D02*
D03*
X779920Y579600D02*
D03*
Y568100D02*
D03*
X405000Y603595D02*
D03*
X328453Y544989D02*
D03*
X1103271Y751840D02*
D03*
X674113Y410559D02*
D03*
X356897Y418179D02*
D03*
X54833Y420719D02*
D03*
X1084671Y751877D02*
D03*
X918632Y531205D02*
D03*
X928097D02*
D03*
X937427D02*
D03*
X836332Y529010D02*
D03*
X727487Y543141D02*
D03*
X405000Y615095D02*
D03*
X460787Y545681D02*
D03*
X946668Y531242D02*
D03*
X817362Y529047D02*
D03*
X1112520Y751840D02*
D03*
X777301Y750164D02*
D03*
X711568Y787428D02*
D03*
X1178973Y515480D02*
D03*
X414348Y603595D02*
D03*
X754115Y444004D02*
D03*
X878700Y709624D02*
D03*
X888371D02*
D03*
X1103271Y763340D02*
D03*
D59*
X698226Y366014D02*
D03*
X382504Y373380D02*
D03*
X1011154Y372872D02*
D03*
X1313668Y372364D02*
D03*
X999183Y549366D02*
D03*
X434330Y665480D02*
D03*
X883504Y782474D02*
D03*
X66060Y376682D02*
D03*
X683026Y366014D02*
D03*
X367304Y373380D02*
D03*
X995954Y372872D02*
D03*
X1298468Y372364D02*
D03*
X419129Y665480D02*
D03*
X81260Y376682D02*
D03*
X1014383Y549366D02*
D03*
X898704Y782474D02*
D03*
D60*
X334264Y570230D02*
D03*
X490982Y668020D02*
D03*
X475488Y684022D02*
D03*
X464566Y592074D02*
D03*
X461518Y621538D02*
D03*
X450342Y605790D02*
D03*
X441706Y622554D02*
D03*
X429768Y608584D02*
D03*
X334264Y591312D02*
D03*
D61*
X799280Y793700D02*
D03*
X744280D02*
D03*
X779280D02*
D03*
X789280D02*
D03*
X794280D02*
D03*
X769280D02*
D03*
X774280D02*
D03*
X754280D02*
D03*
X749280D02*
D03*
X784280D02*
D03*
X759280D02*
D03*
X764280D02*
D03*
D62*
X474103Y306100D02*
D03*
X407103D02*
D03*
X792340D02*
D03*
X725340D02*
D03*
X157340D02*
D03*
X90340D02*
D03*
X1428960D02*
D03*
X1361960D02*
D03*
X1111110D02*
D03*
X1044110D02*
D03*
X432103D02*
D03*
X507103D02*
D03*
X382853D02*
D03*
X365853D02*
D03*
X557103D02*
D03*
X532103D02*
D03*
X457103D02*
D03*
X750340D02*
D03*
X825340D02*
D03*
X701090D02*
D03*
X684090D02*
D03*
X875340D02*
D03*
X850340D02*
D03*
X775340D02*
D03*
X115340D02*
D03*
X190340D02*
D03*
X66090D02*
D03*
X49090D02*
D03*
X240340D02*
D03*
X215340D02*
D03*
X140340D02*
D03*
X1386960D02*
D03*
X1461960D02*
D03*
X1337710D02*
D03*
X1320710D02*
D03*
X1511960D02*
D03*
X1486960D02*
D03*
X1411960D02*
D03*
X1069110D02*
D03*
X1144110D02*
D03*
X1019860D02*
D03*
X1002860D02*
D03*
X1194110D02*
D03*
X1169110D02*
D03*
X1094110D02*
D03*
X332352D02*
D03*
X490602D02*
D03*
X650590D02*
D03*
X808840D02*
D03*
X173840D02*
D03*
X15590D02*
D03*
X1287210D02*
D03*
X1445460D02*
D03*
X969360D02*
D03*
X1127610D02*
D03*
D63*
X327352Y84100D02*
D03*
X607352Y96100D02*
D03*
X645590Y84100D02*
D03*
X925590Y96100D02*
D03*
X10590Y84100D02*
D03*
X290590Y96100D02*
D03*
X1282210Y84100D02*
D03*
X1562210Y96100D02*
D03*
X964360Y84100D02*
D03*
X1244360Y96100D02*
D03*
D64*
X892680Y410630D02*
D03*
X872920Y401320D02*
D03*
X574750Y419520D02*
D03*
X1207640Y416980D02*
D03*
X275460Y423330D02*
D03*
X1509900Y416980D02*
D03*
X837360Y402590D02*
D03*
X892680Y391630D02*
D03*
X554990Y410210D02*
D03*
X540890Y400520D02*
D03*
X521130Y410210D02*
D03*
X574750Y400520D02*
D03*
X1187880Y407670D02*
D03*
X1172080Y397980D02*
D03*
X1152320Y407670D02*
D03*
X1207640Y397980D02*
D03*
X239900Y404330D02*
D03*
X255700Y414020D02*
D03*
X220140D02*
D03*
X275460Y404330D02*
D03*
X1490140Y407670D02*
D03*
X1475610Y397980D02*
D03*
X1455850Y407670D02*
D03*
X1509900Y397980D02*
D03*
X1475610Y416980D02*
D03*
X1172080D02*
D03*
X540890Y419520D02*
D03*
X239900Y423330D02*
D03*
X857120Y411900D02*
D03*
Y392900D02*
D03*
D65*
X152917Y439248D02*
D03*
X107917D02*
D03*
X132917D02*
D03*
X137917D02*
D03*
X107917Y370547D02*
D03*
X152917D02*
D03*
X434893Y435438D02*
D03*
X727109Y359118D02*
D03*
X772109D02*
D03*
X757109Y427817D02*
D03*
X454893Y366738D02*
D03*
X409893D02*
D03*
X439893Y435438D02*
D03*
X122917Y439248D02*
D03*
X112917Y370547D02*
D03*
X742109Y427817D02*
D03*
X732109Y359118D02*
D03*
X1064668Y434425D02*
D03*
X127917Y439248D02*
D03*
X747109Y427817D02*
D03*
X429893Y435438D02*
D03*
X1059668Y434425D02*
D03*
X1367492Y434168D02*
D03*
X1362492D02*
D03*
X1069668Y434425D02*
D03*
X1039668Y365725D02*
D03*
X1084668D02*
D03*
X1372492Y434168D02*
D03*
X1342492Y365467D02*
D03*
X1387492D02*
D03*
X1044668Y365725D02*
D03*
X1054668Y434425D02*
D03*
X1357492Y434168D02*
D03*
X1347492Y365467D02*
D03*
X147917Y370547D02*
D03*
X767109Y359118D02*
D03*
X449893Y366738D02*
D03*
X1079668Y365725D02*
D03*
X1382492Y365467D02*
D03*
X429893Y366738D02*
D03*
X434893D02*
D03*
X424893D02*
D03*
X419893D02*
D03*
X444893D02*
D03*
X439893D02*
D03*
X747109Y359118D02*
D03*
X752109D02*
D03*
X742109D02*
D03*
X737109D02*
D03*
X762109D02*
D03*
X757109D02*
D03*
X127917Y370547D02*
D03*
X132917D02*
D03*
X122917D02*
D03*
X117917D02*
D03*
X142917D02*
D03*
X137917D02*
D03*
X1362492Y365467D02*
D03*
X1367492D02*
D03*
X1357492D02*
D03*
X1352492D02*
D03*
X1377492D02*
D03*
X1372492D02*
D03*
X1059668Y365725D02*
D03*
X1064668D02*
D03*
X1054668D02*
D03*
X1049668D02*
D03*
X1074668D02*
D03*
X1069668D02*
D03*
X449893Y435438D02*
D03*
X444893D02*
D03*
X767109Y427817D02*
D03*
X762109D02*
D03*
X147917Y439248D02*
D03*
X142917D02*
D03*
X1382492Y434168D02*
D03*
X1377492D02*
D03*
X1079668Y434425D02*
D03*
X1074668D02*
D03*
X419893Y435438D02*
D03*
X414893D02*
D03*
X737109Y427817D02*
D03*
X732109D02*
D03*
X117917Y439248D02*
D03*
X112917D02*
D03*
X1352492Y434168D02*
D03*
X1347492D02*
D03*
X1049668Y434425D02*
D03*
X1044668D02*
D03*
X162917Y439248D02*
D03*
X157917D02*
D03*
Y370547D02*
D03*
X162917D02*
D03*
X414893Y366738D02*
D03*
X409893Y435438D02*
D03*
X727109Y427817D02*
D03*
X1387492Y434168D02*
D03*
X1342492D02*
D03*
X777109Y427817D02*
D03*
X752109D02*
D03*
X464893Y435438D02*
D03*
X454893D02*
D03*
X1084668Y434425D02*
D03*
X1039668D02*
D03*
X772109Y427817D02*
D03*
X424893Y435438D02*
D03*
X1094668Y365725D02*
D03*
Y434425D02*
D03*
X1089668D02*
D03*
X782109Y427817D02*
D03*
X1089668Y365725D02*
D03*
X464893Y366738D02*
D03*
X459893D02*
D03*
Y435438D02*
D03*
X777109Y359118D02*
D03*
X782109D02*
D03*
X1397492Y434168D02*
D03*
X1392492D02*
D03*
Y365467D02*
D03*
X1397492D02*
D03*
D66*
X135417Y404897D02*
D03*
X1067168Y400075D02*
D03*
X437393Y401087D02*
D03*
X754609Y393467D02*
D03*
X1369992Y399818D02*
D03*
D67*
X1103619Y789860D02*
D03*
Y794860D02*
D03*
Y799860D02*
D03*
D68*
Y781610D02*
D03*
Y808110D02*
D03*
D69*
X375582Y739140D02*
D03*
Y726440D02*
D03*
X448182Y764540D02*
D03*
Y751840D02*
D03*
X375582Y764540D02*
D03*
X448182Y739140D02*
D03*
X375582Y751840D02*
D03*
X448182Y726440D02*
D03*
D70*
X382270Y676910D02*
D03*
X847500Y794870D02*
D03*
X401770Y689910D02*
D03*
X867000Y807870D02*
D03*
X1032060Y524510D02*
D03*
X867000Y794870D02*
D03*
X1032060Y537510D02*
D03*
X401770Y676910D02*
D03*
X1051560Y531010D02*
D03*
X382270Y683410D02*
D03*
X847500Y801370D02*
D03*
X382270Y689910D02*
D03*
X847500Y807870D02*
D03*
X1051560Y537510D02*
D03*
Y524510D02*
D03*
D71*
X802810Y580790D02*
D03*
X792310Y567290D02*
D03*
X368130Y416160D02*
D03*
X378630Y429660D02*
D03*
X67140Y419970D02*
D03*
X77640Y433470D02*
D03*
X1301580Y414890D02*
D03*
X1312080Y428390D02*
D03*
X998050Y414890D02*
D03*
X1008550Y428390D02*
D03*
X802810Y567290D02*
D03*
X368130Y429660D02*
D03*
X378630Y416160D02*
D03*
X685630Y422040D02*
D03*
X696130Y408540D02*
D03*
X67140Y433470D02*
D03*
X77640Y419970D02*
D03*
X998050Y428390D02*
D03*
X1008550Y414890D02*
D03*
X1301580Y428390D02*
D03*
X1312080Y414890D02*
D03*
X792310Y580790D02*
D03*
X685630Y408540D02*
D03*
X696130Y422040D02*
D03*
D72*
X365846Y533528D02*
D03*
X344846Y549528D02*
D03*
X365846D02*
D03*
X344846Y533528D02*
D03*
D73*
X1202720Y764540D02*
D03*
X1217900D02*
D03*
D74*
X1209040Y783060D02*
D03*
X1187450D02*
D03*
X1070610Y812060D02*
D03*
X1187450D02*
D03*
X1209040D02*
D03*
X1070610Y783060D02*
D03*
D75*
X1261174Y651510D02*
D03*
X1205674D02*
D03*
D76*
X101067Y392397D02*
D03*
X720259Y380967D02*
D03*
X403043Y388587D02*
D03*
X1032818Y387575D02*
D03*
X1335642Y387318D02*
D03*
X101067Y422397D02*
D03*
X169767Y412397D02*
D03*
X720259Y410967D02*
D03*
X788959Y400967D02*
D03*
X471743Y408587D02*
D03*
X403043Y418587D02*
D03*
X101067Y387397D02*
D03*
X720259Y375967D02*
D03*
X403043Y383587D02*
D03*
X1101518Y407575D02*
D03*
X1032818Y417575D02*
D03*
X1335642Y417318D02*
D03*
X1404342Y407318D02*
D03*
X169767Y407397D02*
D03*
X788959Y395967D02*
D03*
X1032818Y382575D02*
D03*
X471743Y403587D02*
D03*
X1101518Y402575D02*
D03*
X1335642Y382318D02*
D03*
X1404342Y402318D02*
D03*
X720259Y405967D02*
D03*
X101067Y417397D02*
D03*
X403043Y413587D02*
D03*
X1032818Y412575D02*
D03*
X1335642Y412318D02*
D03*
X471743Y383587D02*
D03*
Y388587D02*
D03*
Y378587D02*
D03*
Y373587D02*
D03*
Y398587D02*
D03*
Y393587D02*
D03*
X403043Y378587D02*
D03*
Y373587D02*
D03*
X788959Y375967D02*
D03*
Y380967D02*
D03*
Y370967D02*
D03*
Y365967D02*
D03*
Y390967D02*
D03*
Y385967D02*
D03*
X720259Y370967D02*
D03*
Y365967D02*
D03*
X169767Y387397D02*
D03*
Y392397D02*
D03*
Y382397D02*
D03*
Y377397D02*
D03*
Y402397D02*
D03*
Y397397D02*
D03*
X101067Y382397D02*
D03*
Y377397D02*
D03*
X1404342Y382318D02*
D03*
Y387318D02*
D03*
Y377318D02*
D03*
Y372318D02*
D03*
Y397318D02*
D03*
Y392318D02*
D03*
X1335642Y377318D02*
D03*
Y372318D02*
D03*
X1101518Y382575D02*
D03*
Y387575D02*
D03*
Y377575D02*
D03*
Y372575D02*
D03*
Y397575D02*
D03*
Y392575D02*
D03*
X1032818Y377575D02*
D03*
Y372575D02*
D03*
X403043Y428587D02*
D03*
Y423587D02*
D03*
X720259Y420967D02*
D03*
Y415967D02*
D03*
X101067Y432397D02*
D03*
Y427397D02*
D03*
X1032818Y427575D02*
D03*
Y422575D02*
D03*
X1335642Y427318D02*
D03*
Y422318D02*
D03*
X101067Y412397D02*
D03*
Y407397D02*
D03*
Y402397D02*
D03*
Y397397D02*
D03*
X169767Y417397D02*
D03*
Y422397D02*
D03*
Y427397D02*
D03*
Y432397D02*
D03*
X1032818Y392575D02*
D03*
Y407575D02*
D03*
Y402575D02*
D03*
Y397575D02*
D03*
X471743Y428587D02*
D03*
Y423587D02*
D03*
Y418587D02*
D03*
Y413587D02*
D03*
X403043Y393587D02*
D03*
Y398587D02*
D03*
Y403587D02*
D03*
Y408587D02*
D03*
X720259Y400967D02*
D03*
Y395967D02*
D03*
Y390967D02*
D03*
Y385967D02*
D03*
X788959Y405967D02*
D03*
Y410967D02*
D03*
Y415967D02*
D03*
Y420967D02*
D03*
X1101518Y412575D02*
D03*
Y417575D02*
D03*
Y422575D02*
D03*
Y427575D02*
D03*
X1335642Y407318D02*
D03*
Y402318D02*
D03*
Y397318D02*
D03*
Y392318D02*
D03*
X1404342Y412318D02*
D03*
Y417318D02*
D03*
Y422318D02*
D03*
Y427318D02*
D03*
D77*
X434594Y535432D02*
D03*
X429514D02*
D03*
X409448Y584708D02*
D03*
X404622D02*
D03*
X434594D02*
D03*
X429514D02*
D03*
X424688D02*
D03*
X414528D02*
D03*
X399542D02*
D03*
X419608D02*
D03*
X424688Y535432D02*
D03*
X419608D02*
D03*
X414528D02*
D03*
X409448D02*
D03*
X404622D02*
D03*
X399542D02*
D03*
D78*
X441706Y557530D02*
D03*
Y542544D02*
D03*
Y572516D02*
D03*
Y577596D02*
D03*
Y547624D02*
D03*
X392430Y562610D02*
D03*
Y552450D02*
D03*
Y547624D02*
D03*
Y542544D02*
D03*
X441706Y562610D02*
D03*
X392430Y577596D02*
D03*
Y557530D02*
D03*
Y567690D02*
D03*
X441706D02*
D03*
Y552450D02*
D03*
X392430Y572516D02*
D03*
D79*
X1107297Y661031D02*
D03*
Y687031D02*
D03*
X1164436Y700031D02*
D03*
X1107297D02*
D03*
X1164436Y693531D02*
D03*
Y680531D02*
D03*
X1107297Y674031D02*
D03*
Y667531D02*
D03*
Y693531D02*
D03*
X1164436Y667531D02*
D03*
Y687031D02*
D03*
Y674031D02*
D03*
Y661031D02*
D03*
X1107297Y680531D02*
D03*
D80*
X1096010Y784860D02*
D03*
X1111228Y784860D02*
D03*
X1096010Y804860D02*
D03*
X1111228D02*
D03*
D81*
X190319Y426045D02*
D03*
X808766Y414836D02*
D03*
X492776Y422392D02*
D03*
X1121250Y420712D02*
D03*
X1423528Y420222D02*
D03*
X821866Y414836D02*
D03*
X505876Y422392D02*
D03*
X1134350Y420712D02*
D03*
X203419Y426045D02*
D03*
X1436628Y420222D02*
D03*
D82*
X1189056Y591488D02*
D03*
Y549988D02*
D03*
X1167556Y591488D02*
D03*
Y549988D02*
D03*
D83*
X736888Y754798D02*
D03*
X719388D02*
D03*
D84*
X378300Y604520D02*
D03*
X358300D02*
D03*
D85*
X1136121Y680531D02*
D03*
D86*
X417068Y560070D02*
D03*
D87*
X571500Y561975D02*
D03*
D88*
X882247Y625576D02*
D03*
D89*
X87630Y493014D02*
D03*
X87884Y465074D02*
D03*
X1259332Y411226D02*
D03*
X1259586Y439166D02*
D03*
X960628Y423418D02*
D03*
Y451612D02*
D03*
X325628Y405892D02*
D03*
Y434594D02*
D03*
X645414Y449072D02*
D03*
Y421386D02*
D03*
X701506Y568960D02*
D03*
X668020D02*
D03*
X701506Y543560D02*
D03*
X668020D02*
D03*
X577850Y668020D02*
D03*
X543560D02*
D03*
X578558Y729963D02*
D03*
Y755363D02*
D03*
X603958Y729963D02*
D03*
X543560Y730250D02*
D03*
D90*
X62230Y493014D02*
D03*
X62484Y465074D02*
D03*
X1233932Y411226D02*
D03*
X1234186Y439166D02*
D03*
X935228Y423418D02*
D03*
Y451612D02*
D03*
X300228Y405892D02*
D03*
Y434594D02*
D03*
X620014Y449072D02*
D03*
Y421386D02*
D03*
X603958Y755363D02*
D03*
D91*
X743780Y805800D02*
D03*
X799780D02*
D03*
X763780Y812800D02*
D03*
X755780D02*
D03*
X747780D02*
D03*
X775780Y805800D02*
D03*
X767780D02*
D03*
X787780Y812800D02*
D03*
X795780D02*
D03*
X759780Y805800D02*
D03*
X783780D02*
D03*
X779780Y812800D02*
D03*
D92*
X813077Y811700D02*
D03*
X730480D02*
D03*
X816680Y855700D02*
D03*
X726880D02*
D03*
D93*
X511556Y622046D02*
D03*
X486156D02*
D03*
Y596646D02*
D03*
X511556D02*
D03*
X486156Y571246D02*
D03*
D94*
X706120Y670560D02*
D03*
Y695960D02*
D03*
X680720D02*
D03*
X655320D02*
D03*
X680720Y670560D02*
D03*
D95*
X511556Y571246D02*
D03*
D96*
X543560Y755650D02*
D03*
X701506Y594360D02*
D03*
X668020D02*
D03*
X543560Y693420D02*
D03*
X577850D02*
D03*
D97*
X750570Y594360D02*
D03*
D98*
X655320Y670560D02*
D03*
D99*
X735780Y799300D02*
D03*
D100*
X807780D02*
D03*
D101*
X1543530Y351790D02*
D03*
X306860Y836140D02*
D03*
X1265745Y836140D02*
D03*
X30000Y351790D02*
D03*
M02*
