G04*
G04 #@! TF.GenerationSoftware,Altium Limited,Altium Designer,23.10.1 (27)*
G04*
G04 Layer_Color=9279142*
%FSLAX44Y44*%
%MOMM*%
G71*
G04*
G04 #@! TF.SameCoordinates,71CC738A-04A0-4CD5-BBD9-20E7C06DD327*
G04*
G04*
G04 #@! TF.FilePolarity,Positive*
G04*
G01*
G75*
%ADD13C,0.1270*%
%ADD129C,0.1693*%
%ADD130C,0.1016*%
D13*
X85090Y490474D02*
Y487934D01*
X90170D01*
Y490474D01*
X92710D01*
Y495554D01*
X90170D01*
Y498094D01*
X85090D01*
Y495554D01*
X82550D01*
Y490474D01*
X85090D01*
X59690D02*
Y487934D01*
X64770D01*
Y490474D01*
X67310D01*
Y495554D01*
X64770D01*
Y498094D01*
X59690D01*
Y495554D01*
X57150D01*
Y490474D01*
X59690D01*
X85344Y462534D02*
Y459994D01*
X90424D01*
Y462534D01*
X92964D01*
Y467614D01*
X90424D01*
Y470154D01*
X85344D01*
Y467614D01*
X82804D01*
Y462534D01*
X85344D01*
X59944D02*
Y459994D01*
X65024D01*
Y462534D01*
X67564D01*
Y467614D01*
X65024D01*
Y470154D01*
X59944D01*
Y467614D01*
X57404D01*
Y462534D01*
X59944D01*
X1256792Y408686D02*
Y406146D01*
X1261872D01*
Y408686D01*
X1264412D01*
Y413766D01*
X1261872D01*
Y416306D01*
X1256792D01*
Y413766D01*
X1254252D01*
Y408686D01*
X1256792D01*
X1231392D02*
Y406146D01*
X1236472D01*
Y408686D01*
X1239012D01*
Y413766D01*
X1236472D01*
Y416306D01*
X1231392D01*
Y413766D01*
X1228852D01*
Y408686D01*
X1231392D01*
X1257046Y436626D02*
Y434086D01*
X1262126D01*
Y436626D01*
X1264666D01*
Y441706D01*
X1262126D01*
Y444246D01*
X1257046D01*
Y441706D01*
X1254506D01*
Y436626D01*
X1257046D01*
X1231646D02*
Y434086D01*
X1236726D01*
Y436626D01*
X1239266D01*
Y441706D01*
X1236726D01*
Y444246D01*
X1231646D01*
Y441706D01*
X1229106D01*
Y436626D01*
X1231646D01*
X958088Y420878D02*
Y418338D01*
X963168D01*
Y420878D01*
X965708D01*
Y425958D01*
X963168D01*
Y428498D01*
X958088D01*
Y425958D01*
X955548D01*
Y420878D01*
X958088D01*
X932688D02*
Y418338D01*
X937768D01*
Y420878D01*
X940308D01*
Y425958D01*
X937768D01*
Y428498D01*
X932688D01*
Y425958D01*
X930148D01*
Y420878D01*
X932688D01*
X958088Y449072D02*
Y446532D01*
X963168D01*
Y449072D01*
X965708D01*
Y454152D01*
X963168D01*
Y456692D01*
X958088D01*
Y454152D01*
X955548D01*
Y449072D01*
X958088D01*
X932688D02*
Y446532D01*
X937768D01*
Y449072D01*
X940308D01*
Y454152D01*
X937768D01*
Y456692D01*
X932688D01*
Y454152D01*
X930148D01*
Y449072D01*
X932688D01*
X323088Y403352D02*
Y400812D01*
X328168D01*
Y403352D01*
X330708D01*
Y408432D01*
X328168D01*
Y410972D01*
X323088D01*
Y408432D01*
X320548D01*
Y403352D01*
X323088D01*
X297688D02*
Y400812D01*
X302768D01*
Y403352D01*
X305308D01*
Y408432D01*
X302768D01*
Y410972D01*
X297688D01*
Y408432D01*
X295148D01*
Y403352D01*
X297688D01*
X323088Y432054D02*
Y429514D01*
X328168D01*
Y432054D01*
X330708D01*
Y437134D01*
X328168D01*
Y439674D01*
X323088D01*
Y437134D01*
X320548D01*
Y432054D01*
X323088D01*
X297688D02*
Y429514D01*
X302768D01*
Y432054D01*
X305308D01*
Y437134D01*
X302768D01*
Y439674D01*
X297688D01*
Y437134D01*
X295148D01*
Y432054D01*
X297688D01*
X642874Y446532D02*
Y443992D01*
X647954D01*
Y446532D01*
X650494D01*
Y451612D01*
X647954D01*
Y454152D01*
X642874D01*
Y451612D01*
X640334D01*
Y446532D01*
X642874D01*
X617474D02*
Y443992D01*
X622554D01*
Y446532D01*
X625094D01*
Y451612D01*
X622554D01*
Y454152D01*
X617474D01*
Y451612D01*
X614934D01*
Y446532D01*
X617474D01*
X642874Y418846D02*
Y416306D01*
X647954D01*
Y418846D01*
X650494D01*
Y423926D01*
X647954D01*
Y426466D01*
X642874D01*
Y423926D01*
X640334D01*
Y418846D01*
X642874D01*
X617474D02*
Y416306D01*
X622554D01*
Y418846D01*
X625094D01*
Y423926D01*
X622554D01*
Y426466D01*
X617474D01*
Y423926D01*
X614934D01*
Y418846D01*
X617474D01*
X807998Y806620D02*
X810537Y811700D01*
X807998Y816780D01*
X813077Y814240D01*
X818158Y816780D01*
X815618Y811700D01*
X818158Y806620D01*
X813077Y809160D01*
X807998Y806620D01*
X725400D02*
X727940Y811700D01*
X725400Y816780D01*
X730480Y814240D01*
X735560Y816780D01*
X733020Y811700D01*
X735560Y806620D01*
X730480Y809160D01*
X725400Y806620D01*
X811600Y850620D02*
X814140Y855700D01*
X811600Y860780D01*
X816680Y858240D01*
X821760Y860780D01*
X819220Y855700D01*
X821760Y850620D01*
X816680Y853160D01*
X811600Y850620D01*
X721800D02*
X724340Y855700D01*
X721800Y860780D01*
X726880Y858240D01*
X731960Y860780D01*
X729420Y855700D01*
X731960Y850620D01*
X726880Y853160D01*
X721800Y850620D01*
X506476Y616966D02*
X509016D01*
X511556Y619506D01*
X514096Y616966D01*
X516636D01*
Y619506D01*
X514096Y622046D01*
X516636Y624586D01*
Y627126D01*
X514096D01*
X511556Y624586D01*
X509016Y627126D01*
X506476D01*
Y624586D01*
X509016Y622046D01*
X506476Y619506D01*
Y616966D01*
X481076D02*
X483616D01*
X486156Y619506D01*
X488696Y616966D01*
X491236D01*
Y619506D01*
X488696Y622046D01*
X491236Y624586D01*
Y627126D01*
X488696D01*
X486156Y624586D01*
X483616Y627126D01*
X481076D01*
Y624586D01*
X483616Y622046D01*
X481076Y619506D01*
Y616966D01*
X701040Y670560D02*
X706120Y675640D01*
X711200Y670560D01*
X706120Y665480D01*
X701040Y670560D01*
X698966Y566420D02*
Y563880D01*
X704046D01*
Y566420D01*
X706586D01*
Y571500D01*
X704046D01*
Y574040D01*
X698966D01*
Y571500D01*
X696426D01*
Y566420D01*
X698966D01*
X701040Y695960D02*
X706120Y701040D01*
X711200Y695960D01*
X706120Y690880D01*
X701040Y695960D01*
X665480Y566420D02*
Y563880D01*
X670560D01*
Y566420D01*
X673100D01*
Y571500D01*
X670560D01*
Y574040D01*
X665480D01*
Y571500D01*
X662940D01*
Y566420D01*
X665480D01*
X506476Y566166D02*
X509016D01*
X511556Y568706D01*
X514096Y566166D01*
X516636D01*
Y568706D01*
X514096Y571246D01*
X516636Y573786D01*
Y576326D01*
X514096D01*
X511556Y573786D01*
X509016Y576326D01*
X506476D01*
Y573786D01*
X509016Y571246D01*
X506476Y568706D01*
Y566166D01*
X481076Y591566D02*
X483616D01*
X486156Y594106D01*
X488696Y591566D01*
X491236D01*
Y594106D01*
X488696Y596646D01*
X491236Y599186D01*
Y601726D01*
X488696D01*
X486156Y599186D01*
X483616Y601726D01*
X481076D01*
Y599186D01*
X483616Y596646D01*
X481076Y594106D01*
Y591566D01*
X541020Y753110D02*
Y750570D01*
X546100D01*
Y753110D01*
X548640D01*
Y758190D01*
X546100D01*
Y760730D01*
X541020D01*
Y758190D01*
X538480D01*
Y753110D01*
X541020D01*
X698966Y591820D02*
Y589280D01*
X704046D01*
Y591820D01*
X706586D01*
Y596900D01*
X704046D01*
Y599440D01*
X698966D01*
Y596900D01*
X696426D01*
Y591820D01*
X698966D01*
Y541020D02*
Y538480D01*
X704046D01*
Y541020D01*
X706586D01*
Y546100D01*
X704046D01*
Y548640D01*
X698966D01*
Y546100D01*
X696426D01*
Y541020D01*
X698966D01*
X665480Y591820D02*
Y589280D01*
X670560D01*
Y591820D01*
X673100D01*
Y596900D01*
X670560D01*
Y599440D01*
X665480D01*
Y596900D01*
X662940D01*
Y591820D01*
X665480D01*
Y541020D02*
Y538480D01*
X670560D01*
Y541020D01*
X673100D01*
Y546100D01*
X670560D01*
Y548640D01*
X665480D01*
Y546100D01*
X662940D01*
Y541020D01*
X665480D01*
X575310Y665480D02*
Y662940D01*
X580390D01*
Y665480D01*
X582930D01*
Y670560D01*
X580390D01*
Y673100D01*
X575310D01*
Y670560D01*
X572770D01*
Y665480D01*
X575310D01*
X541020D02*
Y662940D01*
X546100D01*
Y665480D01*
X548640D01*
Y670560D01*
X546100D01*
Y673100D01*
X541020D01*
Y670560D01*
X538480D01*
Y665480D01*
X541020D01*
X748030Y591820D02*
Y589280D01*
X753110D01*
Y591820D01*
X755650D01*
Y596900D01*
X753110D01*
Y599440D01*
X748030D01*
Y596900D01*
X745490D01*
Y591820D01*
X748030D01*
X541020Y690880D02*
Y688340D01*
X546100D01*
Y690880D01*
X548640D01*
Y695960D01*
X546100D01*
Y698500D01*
X541020D01*
Y695960D01*
X538480D01*
Y690880D01*
X541020D01*
X575310D02*
Y688340D01*
X580390D01*
Y690880D01*
X582930D01*
Y695960D01*
X580390D01*
Y698500D01*
X575310D01*
Y695960D01*
X572770D01*
Y690880D01*
X575310D01*
X506476Y591566D02*
X509016D01*
X511556Y594106D01*
X514096Y591566D01*
X516636D01*
Y594106D01*
X514096Y596646D01*
X516636Y599186D01*
Y601726D01*
X514096D01*
X511556Y599186D01*
X509016Y601726D01*
X506476D01*
Y599186D01*
X509016Y596646D01*
X506476Y594106D01*
Y591566D01*
X675640Y695960D02*
X680720Y701040D01*
X685800Y695960D01*
X680720Y690880D01*
X675640Y695960D01*
X650240D02*
X655320Y701040D01*
X660400Y695960D01*
X655320Y690880D01*
X650240Y695960D01*
X576018Y727423D02*
Y724883D01*
X581098D01*
Y727423D01*
X583638D01*
Y732503D01*
X581098D01*
Y735043D01*
X576018D01*
Y732503D01*
X573478D01*
Y727423D01*
X576018D01*
X601418Y752823D02*
Y750283D01*
X606498D01*
Y752823D01*
X609038D01*
Y757903D01*
X606498D01*
Y760443D01*
X601418D01*
Y757903D01*
X598878D01*
Y752823D01*
X601418D01*
X576018D02*
Y750283D01*
X581098D01*
Y752823D01*
X583638D01*
Y757903D01*
X581098D01*
Y760443D01*
X576018D01*
Y757903D01*
X573478D01*
Y752823D01*
X576018D01*
X675640Y670560D02*
X680720Y675640D01*
X685800Y670560D01*
X680720Y665480D01*
X675640Y670560D01*
X650240D02*
X655320Y675640D01*
X660400Y670560D01*
X655320Y665480D01*
X650240Y670560D01*
X601418Y727423D02*
Y724883D01*
X606498D01*
Y727423D01*
X609038D01*
Y732503D01*
X606498D01*
Y735043D01*
X601418D01*
Y732503D01*
X598878D01*
Y727423D01*
X601418D01*
X481076Y566166D02*
X483616D01*
X486156Y568706D01*
X488696Y566166D01*
X491236D01*
Y568706D01*
X488696Y571246D01*
X491236Y573786D01*
Y576326D01*
X488696D01*
X486156Y573786D01*
X483616Y576326D01*
X481076D01*
Y573786D01*
X483616Y571246D01*
X481076Y568706D01*
Y566166D01*
X730700Y794220D02*
Y804380D01*
X740860D01*
Y794220D01*
X730700D01*
X732732Y796252D02*
Y802348D01*
X738828D01*
Y796252D01*
X732732D01*
X541020Y727710D02*
Y725170D01*
X546100D01*
Y727710D01*
X548640D01*
Y732790D01*
X546100D01*
Y735330D01*
X541020D01*
Y732790D01*
X538480D01*
Y727710D01*
X541020D01*
X1543530Y346710D02*
X1538450Y356870D01*
X1548610D01*
X1543530Y346710D01*
X306860Y831060D02*
X301780Y841220D01*
X311940D01*
X306860Y831060D01*
X1265745Y831060D02*
X1260665Y841220D01*
X1270825D01*
X1265745Y831060D01*
X30000Y346710D02*
X24920Y356870D01*
X35080D01*
X30000Y346710D01*
X1084072Y328930D02*
Y339090D01*
X1094232D01*
Y328930D01*
X1084072D01*
X1402752Y357804D02*
Y367964D01*
X1412912D01*
Y357804D01*
X1402752D01*
X1440891Y311421D02*
Y321581D01*
X1451051D01*
Y311421D01*
X1440891D01*
X1404112Y437642D02*
Y447802D01*
X1414272D01*
Y437642D01*
X1404112D01*
X1382382Y437998D02*
Y448158D01*
X1392542D01*
Y437998D01*
X1382382D01*
X1386840Y325120D02*
Y335280D01*
X1397000D01*
Y325120D01*
X1386840D01*
X1397508Y316738D02*
Y326898D01*
X1407668D01*
Y316738D01*
X1397508D01*
X1099820Y327406D02*
Y337566D01*
X1109980D01*
Y327406D01*
X1099820D01*
X1094994Y437388D02*
Y447548D01*
X1105154D01*
Y437388D01*
X1094994D01*
X1102106Y356870D02*
Y367030D01*
X1112266D01*
Y356870D01*
X1102106D01*
X1117169Y312012D02*
Y322172D01*
X1127328D01*
Y312012D01*
X1117169D01*
X1076198Y314452D02*
Y324612D01*
X1086358D01*
Y314452D01*
X1076198D01*
X787146Y348488D02*
Y358648D01*
X797306D01*
Y348488D01*
X787146D01*
X786892Y430784D02*
Y440944D01*
X797052D01*
Y430784D01*
X786892D01*
X755650Y314198D02*
Y324358D01*
X765810D01*
Y314198D01*
X755650D01*
X803395Y312991D02*
Y323151D01*
X813555D01*
Y312991D01*
X803395D01*
X810660Y312838D02*
Y322998D01*
X820820D01*
Y312838D01*
X810660D01*
X457803Y316711D02*
Y326871D01*
X467963D01*
Y316711D01*
X457803D01*
X446627Y316897D02*
Y327057D01*
X456787D01*
Y316897D01*
X446627D01*
X465582Y439166D02*
Y449326D01*
X475742D01*
Y439166D01*
X465582D01*
X472440Y352044D02*
Y362204D01*
X482600D01*
Y352044D01*
X472440D01*
X485522Y312549D02*
Y322709D01*
X495682D01*
Y312549D01*
X485522D01*
X436372Y312928D02*
Y323088D01*
X446532D01*
Y312928D01*
X436372D01*
X162560Y442214D02*
Y452374D01*
X172720D01*
Y442214D01*
X162560D01*
X118489Y312348D02*
Y322508D01*
X128649D01*
Y312348D01*
X118489D01*
X165873Y312795D02*
Y322955D01*
X176033D01*
Y312795D01*
X165873D01*
X171472Y317180D02*
Y327340D01*
X181632D01*
Y317180D01*
X171472D01*
X159512Y315976D02*
Y326136D01*
X169672D01*
Y315976D01*
X159512D01*
X165460Y359237D02*
Y369397D01*
X175620D01*
Y359237D01*
X165460D01*
X152195Y355426D02*
Y365586D01*
X162355D01*
Y355426D01*
X152195D01*
X126746Y314198D02*
Y324358D01*
X136906D01*
Y314198D01*
X126746D01*
X1367790Y437976D02*
Y448136D01*
X1377950D01*
Y437976D01*
X1367790D01*
X1352319Y437317D02*
Y447477D01*
X1362480D01*
Y437317D01*
X1352319D01*
X1193292Y411988D02*
Y422148D01*
X1203452D01*
Y411988D01*
X1193292D01*
X972256Y411738D02*
Y421898D01*
X982416D01*
Y411738D01*
X972256D01*
X249936Y418084D02*
Y428244D01*
X260096D01*
Y418084D01*
X249936D01*
X341117Y411772D02*
Y421931D01*
X351277D01*
Y411772D01*
X341117D01*
X1016279Y519430D02*
Y529590D01*
X1026439D01*
Y519430D01*
X1016279D01*
X985897Y564388D02*
Y574548D01*
X996057D01*
Y564388D01*
X985897D01*
X715474Y429195D02*
Y439355D01*
X725634D01*
Y429195D01*
X715474D01*
X136840Y449679D02*
Y459839D01*
X147000D01*
Y449679D01*
X136840D01*
X143952D02*
Y459839D01*
X154112D01*
Y449679D01*
X143952D01*
X994070Y564388D02*
Y574548D01*
X1004230D01*
Y564388D01*
X994070D01*
X1001776D02*
Y574548D01*
X1011936D01*
Y564388D01*
X1001776D01*
X1228344Y768350D02*
Y778510D01*
X1238504D01*
Y768350D01*
X1228344D01*
X1237742D02*
Y778510D01*
X1247902D01*
Y768350D01*
X1237742D01*
Y783844D02*
Y794004D01*
X1247902D01*
Y783844D01*
X1237742D01*
Y776224D02*
Y786384D01*
X1247902D01*
Y776224D01*
X1237742D01*
X1228344Y783844D02*
Y794004D01*
X1238504D01*
Y783844D01*
X1228344D01*
Y776224D02*
Y786384D01*
X1238504D01*
Y776224D01*
X1228344D01*
X1218184Y783844D02*
Y794004D01*
X1228344D01*
Y783844D01*
X1218184D01*
Y776224D02*
Y786384D01*
X1228344D01*
Y776224D01*
X1218184D01*
X924745Y618495D02*
Y628655D01*
X934905D01*
Y618495D01*
X924745D01*
X923290Y593090D02*
Y603250D01*
X933450D01*
Y593090D01*
X923290D01*
X828943Y600710D02*
Y610870D01*
X839103D01*
Y600710D01*
X828943D01*
X829310Y632496D02*
Y642656D01*
X839470D01*
Y632496D01*
X829310D01*
Y660496D02*
Y670656D01*
X839470D01*
Y660496D01*
X829310D01*
X897890Y572181D02*
Y582341D01*
X908050D01*
Y572181D01*
X897890D01*
X861482Y572496D02*
Y582656D01*
X871642D01*
Y572496D01*
X861482D01*
X934720Y557530D02*
Y567690D01*
X944880D01*
Y557530D01*
X934720D01*
X909320Y689972D02*
Y700132D01*
X919480D01*
Y689972D01*
X909320D01*
X883775Y572641D02*
Y582801D01*
X893935D01*
Y572641D01*
X883775D01*
X874511D02*
Y582801D01*
X884671D01*
Y572641D01*
X874511D01*
X1070367Y737938D02*
Y748098D01*
X1080527D01*
Y737938D01*
X1070367D01*
X1088925Y737975D02*
Y748135D01*
X1099085D01*
Y737975D01*
X1088925D01*
X732790Y549910D02*
Y560070D01*
X742950D01*
Y549910D01*
X732790D01*
X828943Y576580D02*
Y586740D01*
X839103D01*
Y576580D01*
X828943D01*
Y620496D02*
Y630656D01*
X839103D01*
Y620496D01*
X828943D01*
X829310Y652496D02*
Y662656D01*
X839470D01*
Y652496D01*
X829310D01*
X861482Y668496D02*
Y678656D01*
X871642D01*
Y668496D01*
X861482D01*
X924405Y640534D02*
Y650694D01*
X934565D01*
Y640534D01*
X924405D01*
X923290Y572181D02*
Y582341D01*
X933450D01*
Y572181D01*
X923290D01*
X921167Y689819D02*
Y699979D01*
X931327D01*
Y689819D01*
X921167D01*
X886098Y689972D02*
Y700132D01*
X896258D01*
Y689972D01*
X886098D01*
X1101090Y529590D02*
Y539750D01*
X1111250D01*
Y529590D01*
X1101090D01*
X873109Y793417D02*
Y803577D01*
X883269D01*
Y793417D01*
X873109D01*
X1263904Y688340D02*
Y698500D01*
X1274064D01*
Y688340D01*
X1263904D01*
X1253744D02*
Y698500D01*
X1263904D01*
Y688340D01*
X1253744D01*
X1221994Y726440D02*
Y736600D01*
X1232154D01*
Y726440D01*
X1221994D01*
X1242314Y688340D02*
Y698500D01*
X1252474D01*
Y688340D01*
X1242314D01*
X1230884D02*
Y698500D01*
X1241044D01*
Y688340D01*
X1230884D01*
X1183246Y498983D02*
Y509143D01*
X1193406D01*
Y498983D01*
X1183246D01*
X864002Y724866D02*
Y735026D01*
X874162D01*
Y724866D01*
X864002D01*
X488950Y736600D02*
Y746760D01*
X499110D01*
Y736600D01*
X488950D01*
X457200Y759460D02*
Y769620D01*
X467360D01*
Y759460D01*
X457200D01*
X873579Y724866D02*
Y735026D01*
X883739D01*
Y724866D01*
X873579D01*
X883251D02*
Y735026D01*
X893410D01*
Y724866D01*
X883251D01*
X718820Y511810D02*
Y521970D01*
X728980D01*
Y511810D01*
X718820D01*
X615749Y538432D02*
Y548592D01*
X625909D01*
Y538432D01*
X615749D01*
X323850Y725170D02*
Y735330D01*
X334010D01*
Y725170D01*
X323850D01*
X873109Y802802D02*
Y812962D01*
X883269D01*
Y802802D01*
X873109D01*
X406400Y684530D02*
Y694690D01*
X416560D01*
Y684530D01*
X406400D01*
X765810Y541020D02*
Y551180D01*
X775970D01*
Y541020D01*
X765810D01*
X484664Y537122D02*
Y547282D01*
X494824D01*
Y537122D01*
X484664D01*
X92986Y346348D02*
Y356508D01*
X103146D01*
Y346348D01*
X92986D01*
X174282Y412882D02*
Y423041D01*
X184442D01*
Y412882D01*
X174282D01*
X85754Y416438D02*
Y426598D01*
X95914D01*
Y416438D01*
X85754D01*
X133215Y443056D02*
Y453216D01*
X143375D01*
Y443056D01*
X133215D01*
X751158Y430542D02*
Y440702D01*
X761318D01*
Y430542D01*
X751158D01*
X792886Y400688D02*
Y410848D01*
X803046D01*
Y400688D01*
X792886D01*
X770581Y344887D02*
Y355047D01*
X780741D01*
Y344887D01*
X770581D01*
X704947Y405008D02*
Y415168D01*
X715107D01*
Y405008D01*
X704947D01*
X717247Y335280D02*
Y345440D01*
X727407D01*
Y335280D01*
X717247D01*
X435191Y439246D02*
Y449406D01*
X445351D01*
Y439246D01*
X435191D01*
X475742Y406654D02*
Y416814D01*
X485902D01*
Y406654D01*
X475742D01*
X453603Y352383D02*
Y362543D01*
X463763D01*
Y352383D01*
X453603D01*
X387730Y412628D02*
Y422788D01*
X397890D01*
Y412628D01*
X387730D01*
X400031Y342900D02*
Y353060D01*
X410191D01*
Y342900D01*
X400031D01*
X117815Y443078D02*
Y453238D01*
X127975D01*
Y443078D01*
X117815D01*
X107815Y355600D02*
Y365760D01*
X117975D01*
Y355600D01*
X107815D01*
X736919Y430362D02*
Y440522D01*
X747079D01*
Y430362D01*
X736919D01*
X727007Y344170D02*
Y354330D01*
X737167D01*
Y344170D01*
X727007D01*
X86272Y380924D02*
Y391084D01*
X96433D01*
Y380924D01*
X86272D01*
X185166Y431800D02*
Y441960D01*
X195326D01*
Y431800D01*
X185166D01*
X705710Y371422D02*
Y381582D01*
X715870D01*
Y371422D01*
X705710D01*
X802880Y420401D02*
Y430560D01*
X813040D01*
Y420401D01*
X802880D01*
X388609Y378537D02*
Y388697D01*
X398769D01*
Y378537D01*
X388609D01*
X486749Y428343D02*
Y438503D01*
X496908D01*
Y428343D01*
X486749D01*
X1105893Y408134D02*
Y418294D01*
X1116053D01*
Y408134D01*
X1105893D01*
X1083818Y351282D02*
Y361442D01*
X1093978D01*
Y351282D01*
X1083818D01*
X1017505Y411616D02*
Y421776D01*
X1027665D01*
Y411616D01*
X1017505D01*
X1064966Y438233D02*
Y448394D01*
X1075126D01*
Y438233D01*
X1064966D01*
X1029806Y341888D02*
Y352048D01*
X1039966D01*
Y341888D01*
X1029806D01*
X1408684Y406146D02*
Y416306D01*
X1418844D01*
Y406146D01*
X1408684D01*
X1386797Y351051D02*
Y361211D01*
X1396956D01*
Y351051D01*
X1386797D01*
X1332630Y341630D02*
Y351790D01*
X1342790D01*
Y341630D01*
X1332630D01*
X1320329Y411358D02*
Y421518D01*
X1330489D01*
Y411358D01*
X1320329D01*
X175088Y405556D02*
Y415716D01*
X185248D01*
Y405556D01*
X175088D01*
X793867Y393269D02*
Y403429D01*
X804027D01*
Y393269D01*
X793867D01*
X1039588Y350800D02*
Y360960D01*
X1049748D01*
Y350800D01*
X1039588D01*
X1049566Y438255D02*
Y448415D01*
X1059726D01*
Y438255D01*
X1049566D01*
X1342390Y350520D02*
Y360680D01*
X1352550D01*
Y350520D01*
X1342390D01*
X1018384Y377525D02*
Y387685D01*
X1028544D01*
Y377525D01*
X1018384D01*
X1114346Y426382D02*
Y436542D01*
X1124506D01*
Y426382D01*
X1114346D01*
X476213Y398821D02*
Y408981D01*
X486373D01*
Y398821D01*
X476213D01*
X1106925Y400819D02*
Y410979D01*
X1117085D01*
Y400819D01*
X1106925D01*
X1322262Y377501D02*
Y387661D01*
X1332422D01*
Y377501D01*
X1322262D01*
X1416725Y425346D02*
Y435507D01*
X1426885D01*
Y425346D01*
X1416725D01*
X143256Y356870D02*
Y367030D01*
X153416D01*
Y356870D01*
X143256D01*
X762029Y347189D02*
Y357349D01*
X772189D01*
Y347189D01*
X762029D01*
X445262Y353314D02*
Y363474D01*
X455422D01*
Y353314D01*
X445262D01*
X1076218Y350012D02*
Y360172D01*
X1086378D01*
Y350012D01*
X1076218D01*
X1408684Y399034D02*
Y409194D01*
X1418844D01*
Y399034D01*
X1408684D01*
X1379728Y350266D02*
Y360426D01*
X1389888D01*
Y350266D01*
X1379728D01*
X571246Y594360D02*
Y604520D01*
X581406D01*
Y594360D01*
X571246D01*
X561340Y593852D02*
Y604012D01*
X571500D01*
Y593852D01*
X561340D01*
X704947Y395887D02*
Y406048D01*
X715107D01*
Y395887D01*
X704947D01*
X85754Y407318D02*
Y417477D01*
X95914D01*
Y407318D01*
X85754D01*
X387730Y403507D02*
Y413667D01*
X397890D01*
Y403507D01*
X387730D01*
X1017505Y402495D02*
Y412655D01*
X1027665D01*
Y402495D01*
X1017505D01*
X1320329Y402238D02*
Y412397D01*
X1330489D01*
Y402238D01*
X1320329D01*
X829439Y587763D02*
Y597923D01*
X839599D01*
Y587763D01*
X829439D01*
X826262Y549910D02*
Y560070D01*
X836422D01*
Y549910D01*
X826262D01*
X1162476Y521900D02*
Y532060D01*
X1172636D01*
Y521900D01*
X1162476D01*
X1067308Y511810D02*
Y521970D01*
X1077468D01*
Y511810D01*
X1067308D01*
X477520Y376682D02*
Y386842D01*
X487680D01*
Y376682D01*
X477520D01*
X486156Y378600D02*
Y388760D01*
X496316D01*
Y378600D01*
X486156D01*
X546608Y322580D02*
Y332740D01*
X556768D01*
Y322580D01*
X546608D01*
X563118Y315214D02*
Y325374D01*
X573278D01*
Y315214D01*
X563118D01*
X486156Y388620D02*
Y398780D01*
X496316D01*
Y388620D01*
X486156D01*
X476726D02*
Y398780D01*
X486886D01*
Y388620D01*
X476726D01*
X476504Y315976D02*
Y326136D01*
X486664D01*
Y315976D01*
X476504D01*
X388366Y369824D02*
Y379984D01*
X398526D01*
Y369824D01*
X388366D01*
X548640Y378206D02*
Y388366D01*
X558800D01*
Y378206D01*
X548640D01*
X458470Y566928D02*
Y577088D01*
X468630D01*
Y566928D01*
X458470D01*
X388845Y361969D02*
Y372129D01*
X399005D01*
Y361969D01*
X388845D01*
X863854Y370332D02*
Y380492D01*
X874014D01*
Y370332D01*
X863854D01*
X447040Y572770D02*
Y582930D01*
X457200D01*
Y572770D01*
X447040D01*
X793047Y370840D02*
Y381000D01*
X803207D01*
Y370840D01*
X793047D01*
X802627D02*
Y381000D01*
X812787D01*
Y370840D01*
X802627D01*
X865886Y320548D02*
Y330708D01*
X876046D01*
Y320548D01*
X865886D01*
X881888Y314706D02*
Y324866D01*
X892048D01*
Y314706D01*
X881888D01*
X792902Y385938D02*
Y396097D01*
X803062D01*
Y385938D01*
X792902D01*
X802627Y386080D02*
Y396240D01*
X812787D01*
Y386080D01*
X802627D01*
X793217Y314388D02*
Y324548D01*
X803377D01*
Y314388D01*
X793217D01*
X705456Y364227D02*
Y374387D01*
X715616D01*
Y364227D01*
X705456D01*
X246634Y382524D02*
Y392684D01*
X256794D01*
Y382524D01*
X246634D01*
X443484Y588772D02*
Y598932D01*
X453644D01*
Y588772D01*
X443484D01*
X770128Y312838D02*
Y322998D01*
X780288D01*
Y312838D01*
X770128D01*
X706463Y357186D02*
Y367346D01*
X716623D01*
Y357186D01*
X706463D01*
X1481473Y376858D02*
Y387018D01*
X1491633D01*
Y376858D01*
X1481473D01*
X433832Y597154D02*
Y607314D01*
X443992D01*
Y597154D01*
X433832D01*
X176276Y381254D02*
Y391414D01*
X186436D01*
Y381254D01*
X176276D01*
X185420Y382270D02*
Y392430D01*
X195580D01*
Y382270D01*
X185420D01*
X230886Y323088D02*
Y333248D01*
X241046D01*
Y323088D01*
X230886D01*
X246888Y314960D02*
Y325120D01*
X257048D01*
Y314960D01*
X246888D01*
X175531Y397882D02*
Y408042D01*
X185691D01*
Y397882D01*
X175531D01*
X183435Y397510D02*
Y407670D01*
X193595D01*
Y397510D01*
X183435D01*
X87376Y372618D02*
Y382778D01*
X97536D01*
Y372618D01*
X87376D01*
X1179576Y377698D02*
Y387858D01*
X1189736D01*
Y377698D01*
X1179576D01*
X419100Y589280D02*
Y599440D01*
X429260D01*
Y589280D01*
X419100D01*
X87884Y363728D02*
Y373888D01*
X98044D01*
Y363728D01*
X87884D01*
X1408430Y377190D02*
Y387350D01*
X1418590D01*
Y377190D01*
X1408430D01*
X1418010D02*
Y387350D01*
X1428170D01*
Y377190D01*
X1418010D01*
X1501648Y322580D02*
Y332740D01*
X1511808D01*
Y322580D01*
X1501648D01*
X1518666Y315214D02*
Y325374D01*
X1528826D01*
Y315214D01*
X1518666D01*
X1409196Y391940D02*
Y402100D01*
X1419356D01*
Y391940D01*
X1409196D01*
X1418010Y392430D02*
Y402590D01*
X1428170D01*
Y392430D01*
X1418010D01*
X1429957Y327441D02*
Y337601D01*
X1440117D01*
Y327441D01*
X1429957D01*
X1319708Y368523D02*
Y378683D01*
X1329868D01*
Y368523D01*
X1319708D01*
X1407591Y328112D02*
Y338272D01*
X1417751D01*
Y328112D01*
X1407591D01*
X1321811Y361189D02*
Y371349D01*
X1331971D01*
Y361189D01*
X1321811D01*
X1105606Y377448D02*
Y387608D01*
X1115766D01*
Y377448D01*
X1105606D01*
X1115186D02*
Y387608D01*
X1125346D01*
Y377448D01*
X1115186D01*
X1183894Y321310D02*
Y331470D01*
X1194054D01*
Y321310D01*
X1183894D01*
X1200912Y313944D02*
Y324104D01*
X1211072D01*
Y313944D01*
X1200912D01*
X1105430Y392688D02*
Y402848D01*
X1115590D01*
Y392688D01*
X1105430D01*
X1115186D02*
Y402848D01*
X1125346D01*
Y392688D01*
X1115186D01*
X1110234Y326644D02*
Y336804D01*
X1120394D01*
Y326644D01*
X1110234D01*
X1015407Y370042D02*
Y380202D01*
X1025567D01*
Y370042D01*
X1015407D01*
X1019302Y363220D02*
Y373380D01*
X1029462D01*
Y363220D01*
X1019302D01*
X849630Y698670D02*
Y708830D01*
X859790D01*
Y698670D01*
X849630D01*
X364490Y680720D02*
Y690880D01*
X374650D01*
Y680720D01*
X364490D01*
X861482Y689509D02*
Y699669D01*
X871642D01*
Y689509D01*
X861482D01*
X323342Y734314D02*
Y744474D01*
X333502D01*
Y734314D01*
X323342D01*
X733044Y684530D02*
Y694690D01*
X743204D01*
Y684530D01*
X733044D01*
X384302Y746760D02*
Y756920D01*
X394462D01*
Y746760D01*
X384302D01*
X837167Y689972D02*
Y700132D01*
X847327D01*
Y689972D01*
X837167D01*
X849630D02*
Y700132D01*
X859790D01*
Y689972D01*
X849630D01*
X783144Y775970D02*
Y786130D01*
X793304D01*
Y775970D01*
X783144D01*
X790256D02*
Y786130D01*
X800416D01*
Y775970D01*
X790256D01*
X445869Y481076D02*
Y491236D01*
X456029D01*
Y481076D01*
X445869D01*
X847920Y546100D02*
Y556260D01*
X858080D01*
Y546100D01*
X847920D01*
X438757Y481076D02*
Y491236D01*
X448917D01*
Y481076D01*
X438757D01*
X840809Y545976D02*
Y556136D01*
X850969D01*
Y545976D01*
X840809D01*
X763085Y473456D02*
Y483616D01*
X773245D01*
Y473456D01*
X763085D01*
X883920Y546100D02*
Y556260D01*
X894080D01*
Y546100D01*
X883920D01*
X755973Y473456D02*
Y483616D01*
X766133D01*
Y473456D01*
X755973D01*
X876809Y545976D02*
Y556136D01*
X886969D01*
Y545976D01*
X876809D01*
X226568Y487906D02*
Y498066D01*
X236728D01*
Y487906D01*
X226568D01*
Y495018D02*
Y505178D01*
X236728D01*
Y495018D01*
X226568D01*
X1378468Y445770D02*
Y455930D01*
X1388628D01*
Y445770D01*
X1378468D01*
X923290Y610052D02*
Y620212D01*
X933450D01*
Y610052D01*
X923290D01*
X1371356Y445770D02*
Y455930D01*
X1381516D01*
Y445770D01*
X1371356D01*
X923290Y602940D02*
Y613100D01*
X933450D01*
Y602940D01*
X923290D01*
X952604Y638223D02*
Y648383D01*
X962764D01*
Y638223D01*
X952604D01*
X979170Y768068D02*
Y778228D01*
X989330D01*
Y768068D01*
X979170D01*
X947575Y643252D02*
Y653412D01*
X957735D01*
Y643252D01*
X947575D01*
X979170Y760956D02*
Y771116D01*
X989330D01*
Y760956D01*
X979170D01*
X762593Y775022D02*
Y785182D01*
X772753D01*
Y775022D01*
X762593D01*
X788670Y612582D02*
Y622742D01*
X798830D01*
Y612582D01*
X788670D01*
X769705Y775022D02*
Y785182D01*
X779865D01*
Y775022D01*
X769705D01*
X788670Y619694D02*
Y629854D01*
X798830D01*
Y619694D01*
X788670D01*
X415869Y447040D02*
Y457200D01*
X426029D01*
Y447040D01*
X415869D01*
X870723Y552450D02*
Y562610D01*
X880883D01*
Y552450D01*
X870723D01*
X408757Y447040D02*
Y457200D01*
X418917D01*
Y447040D01*
X408757D01*
X863611Y552450D02*
Y562610D01*
X873771D01*
Y552450D01*
X863611D01*
X423757Y472694D02*
Y482854D01*
X433917D01*
Y472694D01*
X423757D01*
X858723Y538480D02*
Y548640D01*
X868883D01*
Y538480D01*
X858723D01*
X430869Y472694D02*
Y482854D01*
X441029D01*
Y472694D01*
X430869D01*
X851611Y538480D02*
Y548640D01*
X861771D01*
Y538480D01*
X851611D01*
X730936Y438384D02*
Y448544D01*
X741096D01*
Y438384D01*
X730936D01*
X906723Y547370D02*
Y557530D01*
X916883D01*
Y547370D01*
X906723D01*
X723903Y439440D02*
Y449600D01*
X734062D01*
Y439440D01*
X723903D01*
X899611Y547370D02*
Y557530D01*
X909771D01*
Y547370D01*
X899611D01*
X747876Y459732D02*
Y469892D01*
X758036D01*
Y459732D01*
X747876D01*
X894723Y538480D02*
Y548640D01*
X904883D01*
Y538480D01*
X894723D01*
X740763Y459732D02*
Y469892D01*
X750923D01*
Y459732D01*
X740763D01*
X887611Y538480D02*
Y548640D01*
X897771D01*
Y538480D01*
X887611D01*
X113893Y484886D02*
Y495046D01*
X124053D01*
Y484886D01*
X113893D01*
X160274Y489430D02*
Y499590D01*
X170434D01*
Y489430D01*
X160274D01*
X106781Y484886D02*
Y495046D01*
X116941D01*
Y484886D01*
X106781D01*
X160274Y496542D02*
Y506702D01*
X170434D01*
Y496542D01*
X160274D01*
X128748Y478028D02*
Y488188D01*
X138908D01*
Y478028D01*
X128748D01*
X185928Y481810D02*
Y491970D01*
X196088D01*
Y481810D01*
X185928D01*
X121636Y478028D02*
Y488188D01*
X131796D01*
Y478028D01*
X121636D01*
X185928Y488922D02*
Y499082D01*
X196088D01*
Y488922D01*
X185928D01*
X1348468Y479806D02*
Y489966D01*
X1358628D01*
Y479806D01*
X1348468D01*
X950293Y630052D02*
Y640212D01*
X960453D01*
Y630052D01*
X950293D01*
X1341356Y479806D02*
Y489966D01*
X1351516D01*
Y479806D01*
X1341356D01*
X950293Y622940D02*
Y633100D01*
X960453D01*
Y622940D01*
X950293D01*
X1364733Y468940D02*
Y479100D01*
X1374893D01*
Y468940D01*
X1364733D01*
X962914Y617982D02*
Y628142D01*
X973074D01*
Y617982D01*
X962914D01*
X1357564Y468993D02*
Y479153D01*
X1367724D01*
Y468993D01*
X1357564D01*
X962914Y610870D02*
Y621030D01*
X973074D01*
Y610870D01*
X962914D01*
X1045644Y480064D02*
Y490224D01*
X1055804D01*
Y480064D01*
X1045644D01*
X1128014Y492732D02*
Y502892D01*
X1138174D01*
Y492732D01*
X1128014D01*
X1038532Y480064D02*
Y490224D01*
X1048692D01*
Y480064D01*
X1038532D01*
X1128014Y499844D02*
Y510004D01*
X1138174D01*
Y499844D01*
X1128014D01*
X1057486Y470998D02*
Y481158D01*
X1067646D01*
Y470998D01*
X1057486D01*
X1095248Y475742D02*
Y485902D01*
X1105408D01*
Y475742D01*
X1095248D01*
X1050374Y470998D02*
Y481158D01*
X1060534D01*
Y470998D01*
X1050374D01*
X1095248Y482854D02*
Y493014D01*
X1105408D01*
Y482854D01*
X1095248D01*
X743204Y764286D02*
Y774446D01*
X753364D01*
Y764286D01*
X743204D01*
X795020Y590940D02*
Y601100D01*
X805180D01*
Y590940D01*
X795020D01*
X750316Y764286D02*
Y774446D01*
X760476D01*
Y764286D01*
X750316D01*
X795020Y598052D02*
Y608212D01*
X805180D01*
Y598052D01*
X795020D01*
X786892Y731266D02*
Y741426D01*
X797052D01*
Y731266D01*
X786892D01*
X803946Y602940D02*
Y613100D01*
X814106D01*
Y602940D01*
X803946D01*
X779780Y731266D02*
Y741426D01*
X789940D01*
Y731266D01*
X779780D01*
X803946Y610052D02*
Y620212D01*
X814106D01*
Y610052D01*
X803946D01*
X378206Y549402D02*
Y559562D01*
X388366D01*
Y549402D01*
X378206D01*
X445770Y542581D02*
Y552741D01*
X455930D01*
Y542581D01*
X445770D01*
X535606Y533146D02*
Y543306D01*
X545766D01*
Y533146D01*
X535606D01*
X546354Y520700D02*
Y530860D01*
X556514D01*
Y520700D01*
X546354D01*
X1065530Y817880D02*
X1068070Y820420D01*
X1070610D01*
X1068070Y822960D01*
X1070610Y825500D01*
X1068070D01*
X1065530Y828040D01*
X1062990Y825500D01*
X1060450D01*
X1062990Y822960D01*
X1060450Y820420D01*
X1062990D01*
X1065530Y817880D01*
X1075690D02*
X1078230Y820420D01*
X1080770D01*
X1078230Y822960D01*
X1080770Y825500D01*
X1078230D01*
X1075690Y828040D01*
X1073150Y825500D01*
X1070610D01*
X1073150Y822960D01*
X1070610Y820420D01*
X1073150D01*
X1075690Y817880D01*
X1055370D02*
X1057910Y820420D01*
X1060450D01*
X1057910Y822960D01*
X1060450Y825500D01*
X1057910D01*
X1055370Y828040D01*
X1052830Y825500D01*
X1050290D01*
X1052830Y822960D01*
X1050290Y820420D01*
X1052830D01*
X1055370Y817880D01*
X1045210D02*
X1047750Y820420D01*
X1050290D01*
X1047750Y822960D01*
X1050290Y825500D01*
X1047750D01*
X1045210Y828040D01*
X1042670Y825500D01*
X1040130D01*
X1042670Y822960D01*
X1040130Y820420D01*
X1042670D01*
X1045210Y817880D01*
Y802640D02*
X1047750Y805180D01*
X1050290D01*
X1047750Y807720D01*
X1050290Y810260D01*
X1047750D01*
X1045210Y812800D01*
X1042670Y810260D01*
X1040130D01*
X1042670Y807720D01*
X1040130Y805180D01*
X1042670D01*
X1045210Y802640D01*
Y810260D02*
X1047750Y812800D01*
X1050290D01*
X1047750Y815340D01*
X1050290Y817880D01*
X1047750D01*
X1045210Y820420D01*
X1042670Y817880D01*
X1040130D01*
X1042670Y815340D01*
X1040130Y812800D01*
X1042670D01*
X1045210Y810260D01*
X1055370Y802640D02*
X1057910Y805180D01*
X1060450D01*
X1057910Y807720D01*
X1060450Y810260D01*
X1057910D01*
X1055370Y812800D01*
X1052830Y810260D01*
X1050290D01*
X1052830Y807720D01*
X1050290Y805180D01*
X1052830D01*
X1055370Y802640D01*
Y810260D02*
X1057910Y812800D01*
X1060450D01*
X1057910Y815340D01*
X1060450Y817880D01*
X1057910D01*
X1055370Y820420D01*
X1052830Y817880D01*
X1050290D01*
X1052830Y815340D01*
X1050290Y812800D01*
X1052830D01*
X1055370Y810260D01*
X831850Y796290D02*
Y806450D01*
X842010D01*
Y796290D01*
X831850D01*
X212090Y382270D02*
Y392430D01*
X222250D01*
Y382270D01*
X212090D01*
X234540Y427990D02*
Y438150D01*
X244700D01*
Y427990D01*
X234540D01*
X514350Y378460D02*
Y388620D01*
X524510D01*
Y378460D01*
X514350D01*
X535810Y424180D02*
Y434340D01*
X545970D01*
Y424180D01*
X535810D01*
X851760Y416560D02*
Y426720D01*
X861920D01*
Y416560D01*
X851760D01*
X829310Y370864D02*
Y381024D01*
X839470D01*
Y370864D01*
X829310D01*
X1145820Y377868D02*
Y388028D01*
X1155980D01*
Y377868D01*
X1145820D01*
X1167130Y421640D02*
Y431800D01*
X1177290D01*
Y421640D01*
X1167130D01*
X1449070Y377190D02*
Y387350D01*
X1459230D01*
Y377190D01*
X1449070D01*
X1470660Y421640D02*
Y431800D01*
X1480820D01*
Y421640D01*
X1470660D01*
X1075985Y665521D02*
Y675681D01*
X1086145D01*
Y665521D01*
X1075985D01*
X1064555D02*
Y675681D01*
X1074715D01*
Y665521D01*
X1064555D01*
X1053125D02*
Y675681D01*
X1063285D01*
Y665521D01*
X1053125D01*
X1042965D02*
Y675681D01*
X1053125D01*
Y665521D01*
X1042965D01*
X821687Y514695D02*
Y524855D01*
X831847D01*
Y514695D01*
X821687D01*
X535686Y511048D02*
Y521208D01*
X545846D01*
Y511048D01*
X535686D01*
X373380Y586740D02*
Y596900D01*
X383540D01*
Y586740D01*
X373380D01*
X732028Y762508D02*
Y772668D01*
X742188D01*
Y762508D01*
X732028D01*
X377698Y559308D02*
Y569468D01*
X387858D01*
Y559308D01*
X377698D01*
X408940Y619760D02*
Y629920D01*
X419100D01*
Y619760D01*
X408940D01*
X909097Y722630D02*
Y732790D01*
X919257D01*
Y722630D01*
X909097D01*
X1053119Y683762D02*
Y693922D01*
X1063279D01*
Y683762D01*
X1053119D01*
X1091946Y351282D02*
Y361442D01*
X1102106D01*
Y351282D01*
X1091946D01*
X1321208Y388677D02*
Y398837D01*
X1331368D01*
Y388677D01*
X1321208D01*
X357632Y342392D02*
Y352552D01*
X367792D01*
Y342392D01*
X357632D01*
X972566Y341630D02*
Y351790D01*
X982726D01*
Y341630D01*
X972566D01*
X658114Y360934D02*
Y371094D01*
X668274D01*
Y360934D01*
X658114D01*
X1356360Y313436D02*
Y323596D01*
X1366520D01*
Y313436D01*
X1356360D01*
X488950Y727710D02*
Y737870D01*
X499110D01*
Y727710D01*
X488950D01*
X383121Y424580D02*
Y434740D01*
X393281D01*
Y424580D01*
X383121D01*
X54356Y363220D02*
Y373380D01*
X64516D01*
Y363220D01*
X54356D01*
X1274064Y373126D02*
Y383286D01*
X1284224D01*
Y373126D01*
X1274064D01*
X1020110Y544286D02*
Y554445D01*
X1030270D01*
Y544286D01*
X1020110D01*
X273050Y77470D02*
Y87630D01*
X283210D01*
Y77470D01*
X273050D01*
X1155700Y316570D02*
Y326730D01*
X1165860D01*
Y316570D01*
X1155700D01*
X1226820Y90170D02*
Y100330D01*
X1236980D01*
Y90170D01*
X1226820D01*
X1284193Y397238D02*
Y407397D01*
X1294353D01*
Y397238D01*
X1284193D01*
X895350Y712889D02*
Y723049D01*
X905510D01*
Y712889D01*
X895350D01*
X902253Y802883D02*
Y813043D01*
X912412D01*
Y802883D01*
X902253D01*
X981369Y397495D02*
Y407655D01*
X991529D01*
Y397495D01*
X981369D01*
X1544670Y77470D02*
Y87630D01*
X1554830D01*
Y77470D01*
X1544670D01*
X722376Y316738D02*
Y326898D01*
X732536D01*
Y316738D01*
X722376D01*
X932347Y516890D02*
Y527050D01*
X942507D01*
Y516890D01*
X932347D01*
X706488Y772300D02*
Y782460D01*
X716648D01*
Y772300D01*
X706488D01*
X353568Y629666D02*
Y639826D01*
X363728D01*
Y629666D01*
X353568D01*
X589813Y90170D02*
Y100330D01*
X599972D01*
Y90170D01*
X589813D01*
X273050D02*
Y100330D01*
X283210D01*
Y90170D01*
X273050D01*
X1289400Y78740D02*
Y88900D01*
X1299560D01*
Y78740D01*
X1289400D01*
X1162476Y573954D02*
Y584114D01*
X1172636D01*
Y573954D01*
X1162476D01*
X384810Y721360D02*
Y731520D01*
X394970D01*
Y721360D01*
X384810D01*
X1441704Y326898D02*
Y337058D01*
X1451864D01*
Y326898D01*
X1441704D01*
X1329944Y350774D02*
Y360934D01*
X1340104D01*
Y350774D01*
X1329944D01*
X46419Y393682D02*
Y403842D01*
X56579D01*
Y393682D01*
X46419D01*
X353684Y356153D02*
Y366313D01*
X363844D01*
Y356153D01*
X353684D01*
X971804Y376936D02*
Y387096D01*
X981964D01*
Y376936D01*
X971804D01*
X201930Y316570D02*
Y326730D01*
X212090D01*
Y316570D01*
X201930D01*
X971550Y90932D02*
Y101092D01*
X981710D01*
Y90932D01*
X971550D01*
X579120Y414440D02*
Y424600D01*
X589280D01*
Y414440D01*
X579120D01*
X923017Y516890D02*
Y527050D01*
X933177D01*
Y516890D01*
X923017D01*
X760476Y743204D02*
Y753364D01*
X770636D01*
Y743204D01*
X760476D01*
X1052830Y539090D02*
Y549250D01*
X1062990D01*
Y539090D01*
X1052830D01*
X668810Y390887D02*
Y401048D01*
X678970D01*
Y390887D01*
X668810D01*
X819244Y680720D02*
Y690880D01*
X829404D01*
Y680720D01*
X819244D01*
X1286764Y347472D02*
Y357632D01*
X1296924D01*
Y347472D01*
X1286764D01*
X908050Y77470D02*
Y87630D01*
X918210D01*
Y77470D01*
X908050D01*
X1473550Y316570D02*
Y326730D01*
X1483710D01*
Y316570D01*
X1473550D01*
X652780Y78740D02*
Y88900D01*
X662940D01*
Y78740D01*
X652780D01*
X1041908Y316992D02*
Y327152D01*
X1052068D01*
Y316992D01*
X1041908D01*
X1079632Y737975D02*
Y748135D01*
X1089792D01*
Y737975D01*
X1079632D01*
X465625Y543335D02*
Y553495D01*
X475785D01*
Y543335D01*
X465625D01*
X1394206Y351028D02*
Y361188D01*
X1404366D01*
Y351028D01*
X1394206D01*
X1275080Y411480D02*
Y421640D01*
X1285240D01*
Y411480D01*
X1275080D01*
X680212Y338582D02*
Y348742D01*
X690372D01*
Y338582D01*
X680212D01*
X1274318Y383794D02*
Y393954D01*
X1284478D01*
Y383794D01*
X1274318D01*
X913552Y516890D02*
Y527050D01*
X923712D01*
Y516890D01*
X913552D01*
X831850Y786130D02*
Y796290D01*
X842010D01*
Y786130D01*
X831850D01*
X374068Y619686D02*
Y629846D01*
X384228D01*
Y619686D01*
X374068D01*
X778390Y344747D02*
Y354907D01*
X788550D01*
Y344747D01*
X778390D01*
X395478Y353314D02*
Y363474D01*
X405638D01*
Y353314D01*
X395478D01*
X676148Y348996D02*
Y359156D01*
X686308D01*
Y348996D01*
X676148D01*
X972408Y352964D02*
Y363124D01*
X982568D01*
Y352964D01*
X972408D01*
X334543Y90932D02*
Y101092D01*
X344702D01*
Y90932D01*
X334543D01*
X404114Y316230D02*
Y326390D01*
X414274D01*
Y316230D01*
X404114D01*
X941588Y516927D02*
Y527087D01*
X951748D01*
Y516927D01*
X941588D01*
X801116Y524256D02*
Y534416D01*
X811276D01*
Y524256D01*
X801116D01*
X1221872Y698415D02*
Y708575D01*
X1232032D01*
Y698415D01*
X1221872D01*
X924405Y631102D02*
Y641262D01*
X934565D01*
Y631102D01*
X924405D01*
X1012896Y423568D02*
Y433728D01*
X1023056D01*
Y423568D01*
X1012896D01*
X836930Y316570D02*
Y326730D01*
X847090D01*
Y316570D01*
X836930D01*
X17780Y90932D02*
Y101092D01*
X27940D01*
Y90932D01*
X17780D01*
X971550Y78740D02*
Y88900D01*
X981710D01*
Y78740D01*
X971550D01*
X831252Y514695D02*
Y524855D01*
X841412D01*
Y514695D01*
X831252D01*
X323850Y742950D02*
Y753110D01*
X334010D01*
Y742950D01*
X323850D01*
X1107481Y737938D02*
Y748098D01*
X1117641D01*
Y737938D01*
X1107481D01*
X808482Y669036D02*
Y679196D01*
X818642D01*
Y669036D01*
X808482D01*
X139700Y316230D02*
Y326390D01*
X149860D01*
Y316230D01*
X139700D01*
X1289400Y90932D02*
Y101092D01*
X1299560D01*
Y90932D01*
X1289400D01*
X1169924Y681981D02*
Y692141D01*
X1180084D01*
Y681981D01*
X1169924D01*
X364490Y671830D02*
Y681990D01*
X374650D01*
Y671830D01*
X364490D01*
X924560Y654050D02*
Y664210D01*
X934720D01*
Y654050D01*
X924560D01*
X495269Y521747D02*
Y531907D01*
X505429D01*
Y521747D01*
X495269D01*
X353060Y586740D02*
Y596900D01*
X363220D01*
Y586740D01*
X353060D01*
X49618Y402318D02*
Y412477D01*
X59778D01*
Y402318D01*
X49618D01*
X56134Y351790D02*
Y361950D01*
X66294D01*
Y351790D01*
X56134D01*
X1284224Y358902D02*
Y369062D01*
X1294384D01*
Y358902D01*
X1284224D01*
X334543Y78740D02*
Y88900D01*
X344702D01*
Y78740D01*
X334543D01*
X946150Y557870D02*
Y568030D01*
X956310D01*
Y557870D01*
X946150D01*
X351028Y387858D02*
Y398018D01*
X361188D01*
Y387858D01*
X351028D01*
X972058Y366014D02*
Y376174D01*
X982218D01*
Y366014D01*
X972058D01*
X658114Y372618D02*
Y382778D01*
X668274D01*
Y372618D01*
X658114D01*
X518693Y316570D02*
Y326730D01*
X528853D01*
Y316570D01*
X518693D01*
X1226820Y77470D02*
Y87630D01*
X1236980D01*
Y77470D01*
X1226820D01*
X615566Y589879D02*
Y600039D01*
X625726D01*
Y589879D01*
X615566D01*
X333068Y619432D02*
Y629592D01*
X343228D01*
Y619432D01*
X333068D01*
X400050Y619760D02*
Y629920D01*
X410210D01*
Y619760D01*
X400050D01*
X505968Y549910D02*
Y560070D01*
X516128D01*
Y549910D01*
X505968D01*
X1098231Y737938D02*
Y748098D01*
X1108391D01*
Y737938D01*
X1098231D01*
X40505Y416560D02*
Y426720D01*
X50665D01*
Y416560D01*
X40505D01*
X652780Y90932D02*
Y101092D01*
X662940D01*
Y90932D01*
X652780D01*
X17780Y78740D02*
Y88900D01*
X27940D01*
Y78740D01*
X17780D01*
X1544670Y90170D02*
Y100330D01*
X1554830D01*
Y90170D01*
X1544670D01*
X1162476Y555498D02*
Y565658D01*
X1172636D01*
Y555498D01*
X1162476D01*
X920944Y722630D02*
Y732790D01*
X931104D01*
Y722630D01*
X920944D01*
X1223010Y759460D02*
Y769620D01*
X1233170D01*
Y759460D01*
X1223010D01*
X897890Y405130D02*
Y415290D01*
X908050D01*
Y405130D01*
X897890D01*
X718820Y613410D02*
Y623570D01*
X728980D01*
Y613410D01*
X718820D01*
X700337Y416960D02*
Y427120D01*
X710497D01*
Y416960D01*
X700337D01*
X659130Y405887D02*
Y416048D01*
X669290D01*
Y405887D01*
X659130D01*
X589813Y77470D02*
Y87630D01*
X599972D01*
Y77470D01*
X589813D01*
X908050Y90170D02*
Y100330D01*
X918210D01*
Y90170D01*
X908050D01*
X701802Y749808D02*
Y759968D01*
X711962D01*
Y749808D01*
X701802D01*
X1122895Y327268D02*
Y337428D01*
X1133055D01*
Y327268D01*
X1122895D01*
X43682Y382852D02*
Y393012D01*
X53842D01*
Y382852D01*
X43682D01*
X403860Y660400D02*
Y670560D01*
X414020D01*
Y660400D01*
X403860D01*
X87884Y316738D02*
Y326898D01*
X98044D01*
Y316738D01*
X87884D01*
X1516380Y412750D02*
Y422910D01*
X1526540D01*
Y412750D01*
X1516380D01*
X1221872Y717122D02*
Y727282D01*
X1232032D01*
Y717122D01*
X1221872D01*
X553308Y557524D02*
Y567684D01*
X563468D01*
Y557524D01*
X553308D01*
X578673Y544842D02*
Y555002D01*
X588833D01*
Y544842D01*
X578673D01*
X578444Y569635D02*
Y579795D01*
X588604D01*
Y569635D01*
X578444D01*
X578673Y557295D02*
Y567455D01*
X588833D01*
Y557295D01*
X578673D01*
X553537Y544956D02*
Y555116D01*
X563697D01*
Y544956D01*
X553537D01*
X565960Y557194D02*
Y567354D01*
X576119D01*
Y557194D01*
X565960D01*
X553423Y569635D02*
Y579795D01*
X563582D01*
Y569635D01*
X553423D01*
X565876Y544728D02*
Y554888D01*
X576036D01*
Y544728D01*
X565876D01*
X566447Y570092D02*
Y580252D01*
X576608D01*
Y570092D01*
X566447D01*
X1140202Y665641D02*
Y675801D01*
X1150362D01*
Y665641D01*
X1140202D01*
X1121560Y665556D02*
Y675716D01*
X1131720D01*
Y665556D01*
X1121560D01*
X1130815D02*
Y675716D01*
X1140975D01*
Y665556D01*
X1130815D01*
X1140409Y675639D02*
Y685799D01*
X1150569D01*
Y675639D01*
X1140409D01*
X1131003Y685120D02*
Y695280D01*
X1141163D01*
Y685120D01*
X1131003D01*
X1140333Y685346D02*
Y695506D01*
X1150493D01*
Y685346D01*
X1140333D01*
X1121522Y675526D02*
Y685686D01*
X1131682D01*
Y675526D01*
X1121522D01*
X1121635Y685383D02*
Y695543D01*
X1131795D01*
Y685383D01*
X1121635D01*
X1131040Y675451D02*
Y685611D01*
X1141200D01*
Y675451D01*
X1131040D01*
X424386Y567488D02*
Y577648D01*
X434546D01*
Y567488D01*
X424386D01*
X411818Y542581D02*
Y552741D01*
X421978D01*
Y542581D01*
X411818D01*
X424614Y542695D02*
Y552855D01*
X434774D01*
Y542695D01*
X424614D01*
X412389Y567945D02*
Y578105D01*
X422549D01*
Y567945D01*
X412389D01*
X424614Y555149D02*
Y565309D01*
X434774D01*
Y555149D01*
X424614D01*
X411901Y555048D02*
Y565208D01*
X422061D01*
Y555048D01*
X411901D01*
X399364Y567488D02*
Y577648D01*
X409524D01*
Y567488D01*
X399364D01*
X1221872Y707825D02*
Y717985D01*
X1232032D01*
Y707825D01*
X1221872D01*
X1229614Y741680D02*
Y751840D01*
X1239774D01*
Y741680D01*
X1229614D01*
X1239774D02*
Y751840D01*
X1249934D01*
Y741680D01*
X1239774D01*
X1260094D02*
Y751840D01*
X1270254D01*
Y741680D01*
X1260094D01*
X1249934D02*
Y751840D01*
X1260094D01*
Y741680D01*
X1249934D01*
X1197610Y817880D02*
Y828040D01*
X1207770D01*
Y817880D01*
X1197610D01*
X1207770D02*
Y828040D01*
X1217930D01*
Y817880D01*
X1207770D01*
X1187450D02*
Y828040D01*
X1197610D01*
Y817880D01*
X1187450D01*
X1177290D02*
Y828040D01*
X1187450D01*
Y817880D01*
X1177290D01*
X1082294Y712216D02*
Y722376D01*
X1092454D01*
Y712216D01*
X1082294D01*
X1053119Y693357D02*
Y703518D01*
X1063279D01*
Y693357D01*
X1053119D01*
X1364882Y394767D02*
Y404927D01*
X1375042D01*
Y394767D01*
X1364882D01*
X1347382Y412267D02*
Y422427D01*
X1357542D01*
Y412267D01*
X1347382D01*
X1382382D02*
Y422427D01*
X1392542D01*
Y412267D01*
X1382382D01*
Y377220D02*
Y387380D01*
X1392542D01*
Y377220D01*
X1382382D01*
X1347382Y377267D02*
Y387427D01*
X1357542D01*
Y377267D01*
X1347382D01*
X1408081Y414871D02*
Y425031D01*
X1418241D01*
Y414871D01*
X1408081D01*
X1315720Y423310D02*
Y433470D01*
X1325880D01*
Y423310D01*
X1315720D01*
X1330877Y438150D02*
Y448310D01*
X1341037D01*
Y438150D01*
X1330877D01*
X1079558Y438255D02*
Y448415D01*
X1089718D01*
Y438255D01*
X1079558D01*
X1028053Y438408D02*
Y448568D01*
X1038213D01*
Y438408D01*
X1028053D01*
X1079558Y377477D02*
Y387637D01*
X1089718D01*
Y377477D01*
X1079558D01*
Y412525D02*
Y422685D01*
X1089718D01*
Y412525D01*
X1079558D01*
X1044558D02*
Y422685D01*
X1054718D01*
Y412525D01*
X1044558D01*
X1062058Y395025D02*
Y405185D01*
X1072218D01*
Y395025D01*
X1062058D01*
X792698Y408521D02*
Y418681D01*
X802858D01*
Y408521D01*
X792698D01*
X767000Y370870D02*
Y381030D01*
X777160D01*
Y370870D01*
X767000D01*
X388609Y389890D02*
Y400050D01*
X398769D01*
Y389890D01*
X388609D01*
X449783Y439268D02*
Y449428D01*
X459943D01*
Y439268D01*
X449783D01*
X351594Y398507D02*
Y408667D01*
X361754D01*
Y398507D01*
X351594D01*
X475482Y416141D02*
Y426301D01*
X485642D01*
Y416141D01*
X475482D01*
X449783Y378490D02*
Y388650D01*
X459943D01*
Y378490D01*
X449783D01*
Y413537D02*
Y423697D01*
X459943D01*
Y413537D01*
X449783D01*
X414783D02*
Y423697D01*
X424943D01*
Y413537D01*
X414783D01*
X432283Y396037D02*
Y406197D01*
X442443D01*
Y396037D01*
X432283D01*
X461281Y351790D02*
Y361950D01*
X471441D01*
Y351790D01*
X461281D01*
X86633Y393700D02*
Y403860D01*
X96793D01*
Y393700D01*
X86633D01*
X81145Y428390D02*
Y438550D01*
X91305D01*
Y428390D01*
X81145D01*
X147807Y382300D02*
Y392460D01*
X157967D01*
Y382300D01*
X147807D01*
Y417347D02*
Y427507D01*
X157967D01*
Y417347D01*
X147807D01*
X112807D02*
Y427507D01*
X122967D01*
Y417347D01*
X112807D01*
X130307Y399847D02*
Y410007D01*
X140467D01*
Y399847D01*
X130307D01*
X159305Y355600D02*
Y365760D01*
X169465D01*
Y355600D01*
X159305D01*
X732000Y405917D02*
Y416077D01*
X742160D01*
Y405917D01*
X732000D01*
X149860Y316230D02*
Y326390D01*
X160020D01*
Y316230D01*
X149860D01*
X1173894Y498983D02*
Y509143D01*
X1184053D01*
Y498983D01*
X1173894D01*
X777305Y548500D02*
Y558660D01*
X787465D01*
Y548500D01*
X777305D01*
X923465Y582940D02*
Y593100D01*
X933624D01*
Y582940D01*
X923465D01*
X843280Y656241D02*
Y666401D01*
X853440D01*
Y656241D01*
X843280D01*
Y644741D02*
Y654901D01*
X853440D01*
Y644741D01*
X843280D01*
X873620Y656496D02*
Y666656D01*
X883780D01*
Y656496D01*
X873620D01*
Y644996D02*
Y655156D01*
X883780D01*
Y644996D01*
X873620D01*
X899212D02*
Y655156D01*
X909371D01*
Y644996D01*
X899212D01*
Y656496D02*
Y666656D01*
X909371D01*
Y656496D01*
X899212D01*
X886512D02*
Y666656D01*
X896672D01*
Y656496D01*
X886512D01*
Y644996D02*
Y655156D01*
X896672D01*
Y644996D01*
X886512D01*
X912276Y656496D02*
Y666656D01*
X922436D01*
Y656496D01*
X912276D01*
Y644996D02*
Y655156D01*
X922436D01*
Y644996D01*
X912276D01*
X913167Y621246D02*
Y631406D01*
X923327D01*
Y621246D01*
X913167D01*
Y632746D02*
Y642906D01*
X923327D01*
Y632746D01*
X913167D01*
X887403Y621246D02*
Y631406D01*
X897563D01*
Y621246D01*
X887403D01*
Y632746D02*
Y642906D01*
X897563D01*
Y632746D01*
X887403D01*
X900103D02*
Y642906D01*
X910263D01*
Y632746D01*
X900103D01*
Y621246D02*
Y631406D01*
X910263D01*
Y621246D01*
X900103D01*
X874511D02*
Y631406D01*
X884671D01*
Y621246D01*
X874511D01*
Y632746D02*
Y642906D01*
X884671D01*
Y632746D01*
X874511D01*
X861482Y632496D02*
Y642656D01*
X871642D01*
Y632496D01*
X861482D01*
Y620996D02*
Y631156D01*
X871642D01*
Y620996D01*
X861482D01*
Y610785D02*
Y620945D01*
X871642D01*
Y610785D01*
X861482D01*
X843280Y610052D02*
Y620212D01*
X853440D01*
Y610052D01*
X843280D01*
Y587763D02*
Y597923D01*
X853440D01*
Y587763D01*
X843280D01*
X913167Y610052D02*
Y620212D01*
X923327D01*
Y610052D01*
X913167D01*
Y600246D02*
Y610406D01*
X923327D01*
Y600246D01*
X913167D01*
X900103Y610052D02*
Y620212D01*
X910263D01*
Y610052D01*
X900103D01*
X806196Y576580D02*
Y586740D01*
X816356D01*
Y576580D01*
X806196D01*
X764540Y562610D02*
Y572770D01*
X774700D01*
Y562610D01*
X764540D01*
X1045210Y773410D02*
X1047750Y775950D01*
X1050290D01*
X1047750Y778490D01*
X1050290Y781030D01*
X1047750D01*
X1045210Y783570D01*
X1042670Y781030D01*
X1040130D01*
X1042670Y778490D01*
X1040130Y775950D01*
X1042670D01*
X1045210Y773410D01*
Y781030D02*
X1047750Y783570D01*
X1050290D01*
X1047750Y786110D01*
X1050290Y788650D01*
X1047750D01*
X1045210Y791190D01*
X1042670Y788650D01*
X1040130D01*
X1042670Y786110D01*
X1040130Y783570D01*
X1042670D01*
X1045210Y781030D01*
X1055370Y773410D02*
X1057910Y775950D01*
X1060450D01*
X1057910Y778490D01*
X1060450Y781030D01*
X1057910D01*
X1055370Y783570D01*
X1052830Y781030D01*
X1050290D01*
X1052830Y778490D01*
X1050290Y775950D01*
X1052830D01*
X1055370Y773410D01*
Y781030D02*
X1057910Y783570D01*
X1060450D01*
X1057910Y786110D01*
X1060450Y788650D01*
X1057910D01*
X1055370Y791190D01*
X1052830Y788650D01*
X1050290D01*
X1052830Y786110D01*
X1050290Y783570D01*
X1052830D01*
X1055370Y781030D01*
X361696Y517398D02*
Y527558D01*
X371856D01*
Y517398D01*
X361696D01*
X323596Y550418D02*
Y560578D01*
X333756D01*
Y550418D01*
X323596D01*
X338836Y559308D02*
Y569468D01*
X348996D01*
Y559308D01*
X338836D01*
X438150Y684530D02*
Y694690D01*
X448310D01*
Y684530D01*
X438150D01*
X488950Y759460D02*
Y769620D01*
X499110D01*
Y759460D01*
X488950D01*
X102870Y443044D02*
Y453204D01*
X113030D01*
Y443044D01*
X102870D01*
X732536Y538480D02*
Y548640D01*
X742696D01*
Y538480D01*
X732536D01*
X1075944Y613410D02*
Y623570D01*
X1086104D01*
Y613410D01*
X1075944D01*
X1064514D02*
Y623570D01*
X1074674D01*
Y613410D01*
X1064514D01*
X1054354D02*
Y623570D01*
X1064514D01*
Y613410D01*
X1054354D01*
X1044194D02*
Y623570D01*
X1054354D01*
Y613410D01*
X1044194D01*
X996188Y510032D02*
Y520192D01*
X1006348D01*
Y510032D01*
X996188D01*
X399250Y555377D02*
Y565537D01*
X409410D01*
Y555377D01*
X399250D01*
X399478Y542809D02*
Y552969D01*
X409638D01*
Y542809D01*
X399478D01*
X414847Y377068D02*
Y387228D01*
X425007D01*
Y377068D01*
X414847D01*
X110998Y377952D02*
Y388112D01*
X121158D01*
Y377952D01*
X110998D01*
X727554Y366938D02*
Y377098D01*
X737714D01*
Y366938D01*
X727554D01*
X747639Y389957D02*
Y400117D01*
X757799D01*
Y389957D01*
X747639D01*
X769905Y403196D02*
Y413356D01*
X780066D01*
Y403196D01*
X769905D01*
X1018384Y388878D02*
Y399038D01*
X1028544D01*
Y388878D01*
X1018384D01*
X173506Y419951D02*
Y430111D01*
X183666D01*
Y419951D01*
X173506D01*
X1105175Y415210D02*
Y425370D01*
X1115335D01*
Y415210D01*
X1105175D01*
X714247Y344621D02*
Y354781D01*
X724407D01*
Y344621D01*
X714247D01*
X705826Y382598D02*
Y392758D01*
X715986D01*
Y382598D01*
X705826D01*
X1044131Y375559D02*
Y385719D01*
X1054291D01*
Y375559D01*
X1044131D01*
X89790Y354872D02*
Y365032D01*
X99950D01*
Y354872D01*
X89790D01*
X466090Y316738D02*
Y326898D01*
X476250D01*
Y316738D01*
X466090D01*
X784952Y312762D02*
Y322922D01*
X795112D01*
Y312762D01*
X784952D01*
X1026668Y352552D02*
Y362712D01*
X1036828D01*
Y352552D01*
X1026668D01*
X1418844Y328168D02*
Y338328D01*
X1429004D01*
Y328168D01*
X1418844D01*
X147807Y443078D02*
Y453238D01*
X157967D01*
Y443078D01*
X147807D01*
X766892Y434109D02*
Y444269D01*
X777052D01*
Y434109D01*
X766892D01*
X397944Y438406D02*
Y448566D01*
X408104D01*
Y438406D01*
X397944D01*
X409791Y351790D02*
Y361950D01*
X419951D01*
Y351790D01*
X409791D01*
X419782Y439268D02*
Y449428D01*
X429942D01*
Y439268D01*
X419782D01*
X388438Y644080D02*
Y654240D01*
X398599D01*
Y644080D01*
X388438D01*
X417576Y623062D02*
Y633222D01*
X427736D01*
Y623062D01*
X417576D01*
X530860Y541895D02*
Y552055D01*
X541020D01*
Y541895D01*
X530860D01*
D129*
X748860Y805800D02*
G03*
X748860Y805800I-5080J0D01*
G01*
X804860D02*
G03*
X804860Y805800I-5080J0D01*
G01*
X768860Y812800D02*
G03*
X768860Y812800I-5080J0D01*
G01*
X760860D02*
G03*
X760860Y812800I-5080J0D01*
G01*
X752860D02*
G03*
X752860Y812800I-5080J0D01*
G01*
X780860Y805800D02*
G03*
X780860Y805800I-5080J0D01*
G01*
X772860D02*
G03*
X772860Y805800I-5080J0D01*
G01*
X792860Y812800D02*
G03*
X792860Y812800I-5080J0D01*
G01*
X800860D02*
G03*
X800860Y812800I-5080J0D01*
G01*
X764860Y805800D02*
G03*
X764860Y805800I-5080J0D01*
G01*
X788860D02*
G03*
X788860Y805800I-5080J0D01*
G01*
X784860Y812800D02*
G03*
X784860Y812800I-5080J0D01*
G01*
X812860Y799300D02*
G03*
X812860Y799300I-5080J0D01*
G01*
D130*
X810828D02*
G03*
X810828Y799300I-3048J0D01*
G01*
M02*
