M48
;Layer_Color=9474304
;FILE_FORMAT=4:4
METRIC,LZ
;TYPE=PLATED
T01F00S00C0.2032
T02F00S00C0.2540
T03F00S00C0.4000
T05F00S00C0.8890
T06F00S00C0.8900
T07F00S00C1.1000
T08F00S00C2.5000
;TYPE=NON_PLATED
T09F00S00C0.6500
%
T01
X0106553Y0082296
X0107569
X0105537
Y0081534
Y0080772
X0104521
Y0081534
Y0082296
Y0078611
Y0077849
X0105537
Y0078611
T02
X0154975Y0008255
Y0009525
X0129448Y00096012
Y0008382
X012319Y0008255
Y0009525
X0097663Y00096012
Y0008382
X0091313Y0008255
Y0009525
X0065786Y00096012
Y0008382
X00594893Y0008255
Y0009525
X00339622Y00096012
Y0008382
X0027813Y0008255
Y0009525
X0002286Y00096012
Y0008382
X00092964Y00321818
X00098066Y00351428
X0009487Y00359952
X00092964Y00368808
X00092456Y00377698
X00091353Y00386004
X00091713Y0039878
X00090834Y00412397
Y00421518
X00086225Y0043347
X0010795Y00448124
X00122895Y00448158
X00138295Y00448136
X0014192Y00454759
X00149032
X00152887Y00448158
X0016764Y00447294
X00190246Y0043688
X00178586Y00425031
X00179362Y00417962
X00180168Y00410636
X00180611Y00402962
X00188515Y0040259
X001905Y0038735
X00181356Y00386334
X00152887Y0038738
X00148336Y0036195
X00157275Y00360506
X00164385Y0036068
X0017054Y00364317
X00170953Y00317875
X00164592Y00321056
X0015494Y0032131
X0014478
X00131826Y00319278
X00123569Y00317428
X00112895Y0036068
X00116078Y00383032
X00117887Y00422427
X00152887
X00135387Y00404927
X00133828Y00483108
X00126716
X00118973Y00489966
X00111861
X00165354Y0049451
Y00501622
X00191008Y00494002
Y0048689
X00231648Y00492986
Y00500098
X0023962Y0043307
X00255016Y00423164
X00251714Y00387604
X0021717Y0038735
X0020701Y0032165
X00176553Y0032226
X00235966Y00328168
X00251968Y0032004
X00061214Y0035687
X00059436Y003683
X00048762Y00387932
X00051499Y00398762
X00054698Y00407397
X00045585Y0042164
X00346197Y00416852
X00356674Y00403587
X00356108Y00392938
X00358764Y00361233
X00362712Y00347472
X00405111Y0034798
X00400558Y00358394
X00393925Y00367049
X00393446Y00374904
X00393689Y00383617
Y0039497
X0039281Y00408587
Y00417708
X00388201Y0042966
X00403024Y00443486
X00413837Y0045212
X00420949
X00424862Y00444348
X00440271Y00444326
X00454863Y00444348
X00470662Y00444246
X00491828Y00433423
X00480562Y00421221
X00480822Y00411734
X00481293Y00403901
X00481806Y003937
X00491236
Y0038368
X004826Y00381762
X00454863Y0038357
X00450342Y00358394
X00458683Y00357463
X00466361Y0035687
X0047752Y00357124
X00481584Y00321056
X0047117Y00321818
X00462883Y00321791
X00451707Y00321977
X00441452Y00318008
X00409194Y0032131
X00414871Y0035687
X00419927Y00382148
X00437363Y00401117
X00454863Y00418617
X00419863
X00428837Y00477774
X00435949
X00443837Y00486156
X00450949
X0054089Y0042926
X005842Y0041952
X0055372Y00383286
X0051943Y0038354
X00523773Y0032165
X00551688Y0032766
X00568198Y00320294
X00490602Y00317628
X00663194Y00366014
Y00377698
X0066421Y00410967
X0067389Y00395967
X00710027Y00400967
Y00410088
X00705417Y0042204
X00720554Y00434275
X00728982Y0044452
X00736016Y00443464
X00742Y00435442
X00756238Y00435622
X00771972Y00439189
X00791972Y00435864
X00807961Y0042548
X00797778Y00413601
X00797965Y00405768
X00798947Y00398349
X00797982Y00391017
X00807707Y0039116
Y0037592
X00798127
X0077208Y0037595
X00767109Y00352269
X00775661Y00349967
X0078347Y00349827
X00792226Y00353568
X00790032Y00317842
X00798297Y00319468
X00808475Y00318071
X0081574Y00317918
X0084201Y0032165
X00870966Y00325628
X00886968Y00319786
X00868934Y00375412
X0083439Y00375944
X0085684Y0042164
X0090297Y0041021
X00977336Y00416818
X00986449Y00402575
X00976884Y00382016
X00977138Y00371094
X00977488Y00358044
X00977646Y0034671
X01034886Y00346968
X01031748Y00357632
X01044668Y0035588
X01049211Y00380639
X01023465Y00382605
X01020487Y00375122
X01024382Y003683
X01023465Y00393958
X01022585Y00407575
Y00416696
X01017976Y00428648
X01033133Y00443488
X01054646Y00443335
X01049638Y00417605
X01055454Y00476078
X01062566
X01050724Y00485144
X01043612
X01046988Y00322072
X00775208Y00317918
X0076073Y00319278
X00727456Y00321818
X00722327Y0034036
X00719327Y00349701
X00732087Y0034925
X00732634Y00372018
X00710536Y00369307
X0071079Y00376502
X00710906Y00387678
X00711543Y00362266
X00681228Y00354076
X00685292Y00343662
X00752719Y00395037
X0073708Y00410997
X00774986Y00408276
X00768165Y00478536
X00761053
X00752955Y00464812
X00745844
X01070046Y00443313
X01084638Y00443335
X01100074Y00442468
X01119426Y00431462
X01110256Y0042029
X01110973Y00413214
X01112005Y00405899
X0111051Y00397768
X01120266
Y00382528
X01110686
X01107186Y0036195
X01097026Y00356362
X01088898
X01081298Y00355092
X01089152Y0033401
X011049Y00332486
X01115314Y00331724
X01127975Y00332348
X01122249Y00317092
X0116078Y0032165
X01188974Y0032639
X01205992Y00319024
X01184656Y00382778
X011509Y00382948
X0117221Y0042672
X01198372Y00417068
X0128016Y0041656
X01289273Y00402318
X01279398Y00388874
X01279144Y00378206
X01289304Y00363982
X01291844Y00352552
X01335024Y00355854
X0133771Y0034671
X0134747Y003556
X01326891Y00366269
X01324788Y00373603
X01327342Y00382581
X01326288Y00393757
X01325409Y00407318
Y00416438
X013208Y0042839
X01335957Y0044323
X01357399Y00442397
X0137287Y00443056
X01376436Y0045085
X01383548
X01387462Y00443078
X01409192Y00442722
X01421805Y00430426
X01413161Y00419951
X01413764Y00411226
Y00404114
X01414276Y0039702
X0142309Y0039751
Y0038227
X0141351
X01407832Y00362884
X01399286Y00356108
X01391877Y00356131
X01384808Y00355346
X01387462Y003823
X01369962Y00399847
X01352462Y00417347
X01387462
X01352462Y00382347
X0136144Y00318516
X0139192Y003302
X01402588Y00321818
X01412671Y00333192
X01423924Y00333248
X01435037Y00332521
X01446784Y00331978
X01445971Y00316501
X0145415Y0038227
X01369813Y0047402
X01362644Y00474073
X01353548Y00484886
X01346436
X01188326Y00504063
X01178973
X01133094Y00497812
X01100328Y00487934
Y00480822
X01084638Y00417605
X01067138Y00400105
X01084638Y00382557
X01081278Y00319532
X0147863Y0032165
X01506728Y0032766
X01523746Y00320294
X01486553Y00381938
X0147574Y0042672
X0152146Y0041783
X01167556Y0052698
Y00560578
Y00579034
X0110617Y0053467
X01072388Y0051689
X01133094Y00504924
X01081024Y0061849
X01069594
X01069635Y00670601
X01081065
X01126639Y00670636
X01135895
X01145282Y00670721
X01145489Y00680719
X01136121Y00680531
X01126602Y00680606
X01126715Y00690463
X01136083Y006902
X01145413Y00690426
X01175004Y00687061
X01235964Y0069342
X01247394
X01258824
X01268984
X01226952Y00703495
Y00712905
Y00722202
X01227074Y0073152
X01234694Y0074676
X01244854
X01255014
X01265174
X01242822Y0077343
Y00781304
Y00788924
X01233424
Y00781304
Y0077343
X0122809Y0076454
X01223264Y00781304
Y00788924
X0121285Y0082296
X0120269
X0119253
X0118237
X01112561Y00743018
X01103311
X01094005Y00743055
X01084712
X01075446Y00743018
X01087374Y00717296
X01058199Y00698438
Y00688842
X01058205Y00670601
X01048045
X01049274Y0061849
X01059434
X0105791Y0054417
X0102519Y00549366
X01021358Y0052451
X01001268Y00515112
X0099915Y00569468
X01006856
X00990977
X0095123Y0056295
X009398Y0056261
X0092837Y00577261
X00928544Y0058802
X0092837Y0059817
Y0060802
Y00615132
X00929825Y00623575
X00929485Y00636182
Y00645614
X0092964Y0065913
X00917356Y00661576
Y00650076
X00904292
Y00661576
X00891591
Y00650076
X008787
Y00661576
X00866562Y00673576
Y00694589
X0085471Y00695052
Y0070375
X00842247Y00695052
X00824324Y006858
X00813562Y00674116
X0083439Y00665576
Y00657576
X0084836Y00661321
Y00649821
X0083439Y00637576
X00834023Y00625576
Y0060579
X00834519Y00592843
X00834023Y0058166
X00811276
X008001Y0059602
Y00603132
X00809026Y0060802
Y00615132
X0079375Y00617662
Y00624774
X0084836Y00615132
X00866562Y00615865
Y00626076
Y00637576
X00879591Y00637826
Y00626326
X00892483
Y00637826
X00905183
Y00626326
Y00615132
X00918247
Y00605326
Y00626326
Y00637826
X00955373Y00635132
Y0062802
X00967994Y00623062
Y0061595
X00957684Y00643303
X00952655Y00648332
X00926247Y00694899
X009144Y00695052
X00891178
X0090043Y00717969
X00914177Y0072771
X00926024
X00888331Y00729946
X00878659
X00869082
X00878188Y00798497
Y00807882
X00907333Y00807963
X0083693Y0080137
Y0079121
X00795336Y0078105
X00788224
X00774785Y00780101
X00767673
X00755396Y00769366
X00748284
X00737108Y00767588
X00711568Y0077738
X00706882Y00754888
X00765556Y00748284
X0078486Y00736346
X00791972
X00738124Y0068961
X007239Y0061849
X0073787Y0055499
X00737616Y0054356
X0077089Y005461
X00782385Y0055358
X0076962Y0056769
X00831342Y0055499
X00845889Y00551056
X00853Y0055118
X00856691Y0054356
X00863803
X00868691Y0055753
X00875803
X00881889Y00551056
X00889Y0055118
X00892691Y0054356
X00899803
X00904691Y0055245
X00911803
X0090297Y00577261
X00888855Y00577721
X00879591
X00866562Y00577576
X0084836Y00592843
X00836332Y00519775
X00826767
X00806196Y00529336
X007239Y0051689
X00918632Y0052197
X00928097
X00937427
X00946668Y00522007
X0098425Y00766036
Y00773148
X0049403Y0076454
Y0074168
Y0073279
X0046228Y0076454
X00389382Y0075184
X0038989Y0072644
X0041148Y0068961
X0040894Y0066548
X00393518Y0064916
X0040513Y0062484
X0041402
X00422656Y00628142
X0042418Y0059436
X00438912Y00602234
X00448564Y00593852
X0045212Y0057785
X0046355Y00572008
X00470705Y00548415
X0045085Y00547661
X00429694Y00547775
Y00560229
X00429466Y00572568
X00417469Y00573025
X00416981Y00560128
X00416898Y00547661
X00404558Y00547889
X0040433Y00560457
X00404444Y00572568
X00382778Y00564388
X00383286Y00554482
X0037846Y0059182
X0035814
X00343916Y00564388
X00328676Y00555498
X00366776Y00522478
X00379148Y00624766
X00358648Y00634746
X00338148Y00624512
X0036957Y0067691
Y006858
X0044323Y0068961
X0032893Y0073025
X00328422Y00739394
X0032893Y0074803
X00489744Y00542202
X00500349Y00526827
X00511048Y0055499
X0053594Y00546975
X00540686Y00538226
X00540766Y00516128
X00551434Y0052578
X00558617Y00550036
X00570956Y00549808
X0057104Y00562274
X00583753Y00562375
Y00549922
X00583524Y00574715
X00571527Y00575172
X00558503Y00574715
X00558388Y00562604
X0056642Y00598932
X00576326Y0059944
X00620646Y00594959
X00620829Y00543512
T03
X0074378Y008058
X0074778Y008128
X0075578
X0076378
X0075978Y008058
X0076778
X0077578
X0078378
X0078778Y008128
X0077978
X0079578
X0079978Y008058
T05
X0068072Y0067056
X0070612
Y0069596
X0068072
X0065532
Y0067056
T06
X00486156Y00571246
X00511556
Y00596646
Y00622046
X00486156
Y00596646
T07
X00062484Y00465074
X00087884
X0008763Y00493014
X0006223
X00300228Y00434594
X00325628
Y00405892
X00300228
X00620014Y00421386
X00645414
Y00449072
X00620014
X00935228Y00451612
X00960628
Y00423418
X00935228
X01233932Y00411226
X01259332
X01259586Y00439166
X01234186
X00701506Y0054356
Y0056896
Y0059436
X0066802
Y0056896
Y0054356
X0075057Y0059436
X0057785Y0066802
Y0069342
X0054356
Y0066802
Y0073025
Y0075565
X00578558Y00755363
Y00729963
X00603958
Y00755363
T08
X0003Y0035179
X0154353
X01265745Y0083614
X0030686Y0083614
T09
X0080778Y007993
M30
