G04*
G04 #@! TF.GenerationSoftware,Altium Limited,Altium Designer,23.10.1 (27)*
G04*
G04 Layer_Physical_Order=1*
G04 Layer_Color=255*
%FSLAX44Y44*%
%MOMM*%
G71*
G04*
G04 #@! TF.SameCoordinates,71CC738A-04A0-4CD5-BBD9-20E7C06DD327*
G04*
G04*
G04 #@! TF.FilePolarity,Positive*
G04*
G01*
G75*
%ADD17R,0.9000X1.0000*%
%ADD18R,1.7000X0.5500*%
%ADD19R,0.7500X0.6000*%
%ADD20R,1.6500X1.2000*%
%ADD21R,0.6000X0.7500*%
G04:AMPARAMS|DCode=22|XSize=0.91mm|YSize=0.93mm|CornerRadius=0.1138mm|HoleSize=0mm|Usage=FLASHONLY|Rotation=180.000|XOffset=0mm|YOffset=0mm|HoleType=Round|Shape=RoundedRectangle|*
%AMROUNDEDRECTD22*
21,1,0.9100,0.7025,0,0,180.0*
21,1,0.6825,0.9300,0,0,180.0*
1,1,0.2275,-0.3413,0.3513*
1,1,0.2275,0.3413,0.3513*
1,1,0.2275,0.3413,-0.3513*
1,1,0.2275,-0.3413,-0.3513*
%
%ADD22ROUNDEDRECTD22*%
%ADD23C,1.0000*%
%ADD24R,0.3000X0.9000*%
%ADD25R,1.0000X1.5000*%
%ADD26R,1.2000X2.2000*%
%ADD27R,0.9000X0.9000*%
G04:AMPARAMS|DCode=28|XSize=0.84mm|YSize=0.26mm|CornerRadius=0.0325mm|HoleSize=0mm|Usage=FLASHONLY|Rotation=270.000|XOffset=0mm|YOffset=0mm|HoleType=Round|Shape=RoundedRectangle|*
%AMROUNDEDRECTD28*
21,1,0.8400,0.1950,0,0,270.0*
21,1,0.7750,0.2600,0,0,270.0*
1,1,0.0650,-0.0975,-0.3875*
1,1,0.0650,-0.0975,0.3875*
1,1,0.0650,0.0975,0.3875*
1,1,0.0650,0.0975,-0.3875*
%
%ADD28ROUNDEDRECTD28*%
%ADD29R,0.2500X0.6500*%
%ADD30R,1.1176X0.5588*%
G04:AMPARAMS|DCode=31|XSize=1.49mm|YSize=0.61mm|CornerRadius=0.0763mm|HoleSize=0mm|Usage=FLASHONLY|Rotation=0.000|XOffset=0mm|YOffset=0mm|HoleType=Round|Shape=RoundedRectangle|*
%AMROUNDEDRECTD31*
21,1,1.4900,0.4575,0,0,0.0*
21,1,1.3375,0.6100,0,0,0.0*
1,1,0.1525,0.6688,-0.2288*
1,1,0.1525,-0.6688,-0.2288*
1,1,0.1525,-0.6688,0.2288*
1,1,0.1525,0.6688,0.2288*
%
%ADD31ROUNDEDRECTD31*%
%ADD32R,1.0200X0.4000*%
%ADD33R,0.7500X0.8500*%
%ADD34R,1.5000X1.2000*%
%ADD35R,0.2032X1.0160*%
%ADD36R,1.0160X0.2032*%
%ADD37R,1.0000X1.0200*%
%ADD38R,1.8200X1.2100*%
%ADD39R,0.8636X3.2512*%
%ADD40R,1.8500X3.4000*%
%ADD41R,1.2048X0.7492*%
G04:AMPARAMS|DCode=42|XSize=0.26mm|YSize=0.84mm|CornerRadius=0.0325mm|HoleSize=0mm|Usage=FLASHONLY|Rotation=270.000|XOffset=0mm|YOffset=0mm|HoleType=Round|Shape=RoundedRectangle|*
%AMROUNDEDRECTD42*
21,1,0.2600,0.7750,0,0,270.0*
21,1,0.1950,0.8400,0,0,270.0*
1,1,0.0650,-0.3875,-0.0975*
1,1,0.0650,-0.3875,0.0975*
1,1,0.0650,0.3875,0.0975*
1,1,0.0650,0.3875,-0.0975*
%
%ADD42ROUNDEDRECTD42*%
%ADD43R,0.3048X0.8128*%
%ADD44R,0.8128X0.3048*%
G04:AMPARAMS|DCode=45|XSize=1.215mm|YSize=0.387mm|CornerRadius=0.0968mm|HoleSize=0mm|Usage=FLASHONLY|Rotation=0.000|XOffset=0mm|YOffset=0mm|HoleType=Round|Shape=RoundedRectangle|*
%AMROUNDEDRECTD45*
21,1,1.2150,0.1935,0,0,0.0*
21,1,1.0215,0.3870,0,0,0.0*
1,1,0.1935,0.5108,-0.0968*
1,1,0.1935,-0.5108,-0.0968*
1,1,0.1935,-0.5108,0.0968*
1,1,0.1935,0.5108,0.0968*
%
%ADD45ROUNDEDRECTD45*%
%ADD46R,0.8500X0.9500*%
%ADD47R,0.2540X1.0668*%
%ADD48R,0.6500X1.0500*%
%ADD49R,1.0668X0.2540*%
%ADD50R,1.1500X1.3500*%
%ADD51R,1.3000X1.5000*%
%ADD52R,2.5000X2.6000*%
%ADD53R,3.2512X3.2512*%
%ADD87R,3.3528X3.3528*%
%ADD88R,8.1026X8.1026*%
%ADD94C,1.3970*%
%ADD98R,1.3970X1.3970*%
%ADD102R,5.1000X5.1000*%
%ADD103R,2.3000X0.2500*%
%ADD104R,0.7750X0.2500*%
%ADD105C,0.5080*%
%ADD106C,0.2540*%
%ADD107C,0.2032*%
%ADD108C,0.3810*%
%ADD109C,0.1565*%
%ADD110C,0.1582*%
%ADD111C,1.7000*%
%ADD112R,1.7000X1.7000*%
%ADD113C,0.6000*%
%ADD114O,0.8000X1.4000*%
%ADD115C,1.3980*%
%ADD116R,1.3980X1.3980*%
%ADD117R,1.7000X1.7000*%
G04:AMPARAMS|DCode=118|XSize=1.7mm|YSize=1.7mm|CornerRadius=0mm|HoleSize=0mm|Usage=FLASHONLY|Rotation=90.000|XOffset=0mm|YOffset=0mm|HoleType=Round|Shape=Octagon|*
%AMOCTAGOND118*
4,1,8,0.4250,0.8500,-0.4250,0.8500,-0.8500,0.4250,-0.8500,-0.4250,-0.4250,-0.8500,0.4250,-0.8500,0.8500,-0.4250,0.8500,0.4250,0.4250,0.8500,0.0*
%
%ADD118OCTAGOND118*%

%ADD119C,0.6500*%
%ADD120C,0.3000*%
%ADD121C,0.5588*%
%ADD122C,0.4572*%
G36*
X1084072Y853440D02*
Y825500D01*
X1100502Y825500D01*
X1100511Y825489D01*
Y813392D01*
X1100337D01*
Y802828D01*
X1106901D01*
Y813392D01*
X1106727D01*
Y824202D01*
X1107597Y825072D01*
X1113710D01*
X1118870Y819912D01*
Y802640D01*
X1115060Y798830D01*
X1085850Y798830D01*
X1080770Y803910D01*
X1022858D01*
X1012698Y814070D01*
X819228Y814070D01*
Y814700D01*
X818760Y817054D01*
X817426Y819049D01*
X815431Y820382D01*
X813077Y820850D01*
X810724Y820382D01*
X808729Y819049D01*
X807395Y817054D01*
X806927Y814700D01*
Y814070D01*
X800658D01*
X800520Y814763D01*
X799408Y816428D01*
X797743Y817540D01*
X795780Y817931D01*
X793817Y817540D01*
X792694Y816790D01*
X791780Y816533D01*
X790866Y816790D01*
X789743Y817540D01*
X787780Y817931D01*
X785817Y817540D01*
X784694Y816790D01*
X783780Y816533D01*
X782866Y816790D01*
X781743Y817540D01*
X779780Y817931D01*
X777817Y817540D01*
X776152Y816428D01*
X775040Y814763D01*
X774902Y814070D01*
X768658D01*
X768520Y814763D01*
X767408Y816428D01*
X765743Y817540D01*
X763780Y817931D01*
X762896Y817755D01*
X755119Y825532D01*
X754185Y826156D01*
X753083Y826375D01*
X717485D01*
X716383Y826156D01*
X715449Y825532D01*
X709927Y820010D01*
X709303Y819076D01*
X709083Y817974D01*
Y814070D01*
X378460Y814070D01*
X318516Y754126D01*
Y521462D01*
X311277Y514223D01*
X63119D01*
X52442Y503546D01*
X51698D01*
Y502802D01*
X40132Y491236D01*
X40132Y382524D01*
X54555Y368101D01*
X54890Y366417D01*
X55957Y364821D01*
X56642Y364363D01*
Y358622D01*
X56294Y356870D01*
X56642Y355118D01*
Y347996D01*
X56642Y334204D01*
X38104Y315666D01*
Y287330D01*
X47808Y277626D01*
X1308354D01*
Y252222D01*
X40132D01*
X10414Y281940D01*
Y296568D01*
X22622D01*
Y315632D01*
X10414D01*
Y508762D01*
X34615Y532963D01*
X280223Y534731D01*
X284734Y539242D01*
Y790448D01*
X348427Y854140D01*
X719830Y855877D01*
X720730Y854981D01*
Y852700D01*
X721198Y850346D01*
X722531Y848351D01*
X724526Y847018D01*
X726880Y846550D01*
X729233Y847018D01*
X731229Y848351D01*
X732562Y850346D01*
X733030Y852700D01*
Y855939D01*
X780722Y856162D01*
X809630Y856297D01*
X810530Y855401D01*
Y852700D01*
X810998Y850346D01*
X812331Y848351D01*
X814326Y847018D01*
X816680Y846550D01*
X819034Y847018D01*
X821029Y848351D01*
X822362Y850346D01*
X822830Y852700D01*
Y856359D01*
X1012698Y857247D01*
X1080265D01*
X1084072Y853440D01*
D02*
G37*
G36*
X1220470Y826770D02*
Y806450D01*
X1219200Y805180D01*
X1178560D01*
X1177290Y806450D01*
Y825500D01*
X1179830Y828040D01*
X1219200D01*
X1220470Y826770D01*
D02*
G37*
G36*
X1088593Y791707D02*
X1088610Y791695D01*
X1088622Y791677D01*
X1088941Y791464D01*
X1089256Y791244D01*
X1089277Y791240D01*
X1089294Y791228D01*
X1089670Y791153D01*
X1090045Y791071D01*
X1090066Y791074D01*
X1090087Y791070D01*
X1115984D01*
X1116274Y790876D01*
X1116330Y790820D01*
Y788416D01*
X1116056Y788142D01*
X1114819D01*
X1114619Y788182D01*
X1114619Y788182D01*
X1107869D01*
X1107869Y788182D01*
X1107669Y788142D01*
X1105321D01*
Y787908D01*
X1101917D01*
Y788142D01*
X1099569D01*
X1099369Y788182D01*
X1099369Y788182D01*
X1092619D01*
X1092619Y788182D01*
X1092419Y788142D01*
X1090103D01*
Y787081D01*
X1077976Y774954D01*
X1043686Y774954D01*
X1041400Y777240D01*
Y787908D01*
X1043432Y789940D01*
X1078230D01*
X1080008Y791718D01*
X1088586D01*
X1088593Y791707D01*
D02*
G37*
G36*
X1117854Y784606D02*
Y760222D01*
X1116584Y758952D01*
X1109218D01*
X1108303Y759867D01*
Y769122D01*
X1108202D01*
Y773430D01*
X1107186Y774446D01*
Y785427D01*
X1107369Y785610D01*
X1107869Y786110D01*
X1114619D01*
X1114819Y786070D01*
X1116056D01*
X1116056Y786070D01*
X1116256Y786110D01*
X1116350D01*
X1117854Y784606D01*
D02*
G37*
G36*
X1144270Y810260D02*
Y779780D01*
X1141730Y777240D01*
X1132840D01*
X1117346Y792734D01*
X1117151D01*
Y793142D01*
X1090087D01*
X1089660Y794235D01*
Y795485D01*
X1090087Y796578D01*
X1117151D01*
Y797111D01*
X1132840Y812800D01*
X1141730D01*
X1144270Y810260D01*
D02*
G37*
G36*
X1099869Y785610D02*
Y785047D01*
Y775003D01*
X1097788Y772922D01*
Y759968D01*
X1096772Y758952D01*
X1071372D01*
X1069594Y760730D01*
Y771906D01*
X1070570Y772882D01*
X1077976D01*
X1077976Y772882D01*
X1078769Y773040D01*
X1079353Y773430D01*
X1079500D01*
X1081048Y774978D01*
X1081742D01*
Y775672D01*
X1092140Y786070D01*
X1092419D01*
X1092618Y786110D01*
X1092619D01*
X1092619Y786110D01*
X1099369D01*
X1099869Y785610D01*
D02*
G37*
G36*
X1172210Y833120D02*
X1172210Y815340D01*
X1174750Y812800D01*
Y797560D01*
X1179950Y792360D01*
X1244466D01*
X1246124Y790702D01*
Y772922D01*
X1244092Y770890D01*
X1231900D01*
X1229360Y773430D01*
X1211580D01*
X1207770Y769620D01*
Y758190D01*
X1205230Y755650D01*
X1182370D01*
X1181100Y756920D01*
Y770890D01*
X1174750Y777240D01*
X1160780D01*
X1158240Y779780D01*
Y833120D01*
X1159510Y834390D01*
X1170940D01*
X1172210Y833120D01*
D02*
G37*
G36*
X1270614Y750210D02*
Y728071D01*
X1268984Y726440D01*
X1233424D01*
X1231122Y728743D01*
X1231165Y728786D01*
X1231900Y730560D01*
Y732480D01*
X1231165Y734254D01*
X1230884Y734535D01*
Y749300D01*
X1233424Y751840D01*
X1268984D01*
X1270614Y750210D01*
D02*
G37*
G36*
X1070864Y676671D02*
X1072702Y674833D01*
Y674418D01*
X1073117D01*
X1074435Y673100D01*
X1093724D01*
X1097534Y676910D01*
X1100761D01*
X1101019Y676738D01*
X1102189Y676505D01*
X1112404D01*
X1113050Y676634D01*
X1114044Y675640D01*
Y666750D01*
X1112774Y665480D01*
X1098804D01*
X1084834Y651510D01*
X1042924D01*
X1039114Y655320D01*
Y679450D01*
X1042924Y683260D01*
X1070864D01*
Y676671D01*
D02*
G37*
G36*
X1272794Y709930D02*
Y629920D01*
X1271524Y628650D01*
X1251204D01*
X1248664Y631190D01*
Y668770D01*
X1230884Y686550D01*
Y700602D01*
X1231043Y700761D01*
X1231778Y702535D01*
Y704455D01*
X1231043Y706228D01*
X1230884Y706387D01*
Y710012D01*
X1231043Y710171D01*
X1231778Y711945D01*
Y713364D01*
X1232154Y713740D01*
X1268984D01*
X1272794Y709930D01*
D02*
G37*
G36*
X1218184Y666750D02*
Y632460D01*
X1210564Y624840D01*
X1143254D01*
X1136904Y631190D01*
Y654050D01*
X1139444Y656590D01*
X1150874D01*
X1155954Y661670D01*
Y668020D01*
X1157224Y669290D01*
X1215644D01*
X1218184Y666750D01*
D02*
G37*
G36*
X1086104Y633730D02*
Y618490D01*
X1082294Y614680D01*
X1048004Y614680D01*
X1044194Y618490D01*
Y635000D01*
X1045464Y636270D01*
X1083564D01*
X1086104Y633730D01*
D02*
G37*
%LPC*%
G36*
X30000Y366447D02*
X26206Y365948D01*
X22671Y364484D01*
X19636Y362154D01*
X17306Y359119D01*
X15842Y355584D01*
X15343Y351790D01*
X15842Y347996D01*
X17306Y344461D01*
X19636Y341426D01*
X22671Y339096D01*
X26206Y337632D01*
X30000Y337133D01*
X33793Y337632D01*
X37329Y339096D01*
X40364Y341426D01*
X42694Y344461D01*
X44158Y347996D01*
X44657Y351790D01*
X44158Y355584D01*
X42694Y359119D01*
X40364Y362154D01*
X37329Y364484D01*
X33793Y365948D01*
X30000Y366447D01*
D02*
G37*
G36*
X1260094Y739207D02*
X1258558Y738901D01*
X1257256Y738031D01*
X1256385Y736729D01*
X1256080Y735193D01*
X1256385Y733657D01*
X1256919Y732859D01*
X1256952Y732692D01*
X1257822Y731389D01*
X1259124Y730519D01*
X1260660Y730214D01*
X1262197Y730519D01*
X1263499Y731389D01*
X1264369Y732692D01*
X1264675Y734228D01*
Y734626D01*
X1264369Y736163D01*
X1263499Y737465D01*
X1262932Y738031D01*
X1261630Y738901D01*
X1260094Y739207D01*
D02*
G37*
G36*
X1241044Y738642D02*
X1239508Y738336D01*
X1238206Y737466D01*
X1237806Y737066D01*
X1236936Y735764D01*
X1236630Y734228D01*
X1236936Y732692D01*
X1237806Y731389D01*
X1239108Y730519D01*
X1240644Y730214D01*
X1242180Y730519D01*
X1243483Y731389D01*
X1243882Y731789D01*
X1244753Y733091D01*
X1245058Y734628D01*
X1244753Y736164D01*
X1243882Y737466D01*
X1242580Y738336D01*
X1241044Y738642D01*
D02*
G37*
%LPD*%
D17*
X379148Y633630D02*
D03*
X338148D02*
D03*
X379148Y649630D02*
D03*
X338148D02*
D03*
D18*
X358648Y627380D02*
D03*
D19*
X1105319Y324135D02*
D03*
X1300829Y402367D02*
D03*
X997299D02*
D03*
X898511Y798445D02*
D03*
X1218254Y703580D02*
D03*
Y722287D02*
D03*
X856840Y376060D02*
D03*
X1161640Y828180D02*
D03*
X887010Y798445D02*
D03*
X1218291Y731691D02*
D03*
X887010Y807923D02*
D03*
X1012784Y524510D02*
D03*
X472452Y764011D02*
D03*
X421989Y689387D02*
D03*
X713330Y517030D02*
D03*
X630330Y543420D02*
D03*
X484000Y741820D02*
D03*
X339234Y729834D02*
D03*
X803120Y553580D02*
D03*
X803157Y542430D02*
D03*
X78076Y391808D02*
D03*
X696566Y381902D02*
D03*
X380336Y388760D02*
D03*
X1008986Y387744D02*
D03*
X1312262Y387490D02*
D03*
X1129865Y646018D02*
D03*
X1078484Y679450D02*
D03*
X1078521Y688883D02*
D03*
X1067010Y707769D02*
D03*
X1066930Y717215D02*
D03*
X1001284Y533679D02*
D03*
X433489Y680142D02*
D03*
X66576Y391808D02*
D03*
X685066Y381902D02*
D03*
X368836Y388760D02*
D03*
X997486Y387744D02*
D03*
X1300762Y387490D02*
D03*
X472500Y751519D02*
D03*
Y741820D02*
D03*
X701450Y618350D02*
D03*
X701830Y517030D02*
D03*
X642210Y594500D02*
D03*
X641830Y543420D02*
D03*
X892400Y376060D02*
D03*
X540610Y383680D02*
D03*
X574900Y383820D02*
D03*
X1171800Y382668D02*
D03*
X1207360Y382808D02*
D03*
X239620Y387490D02*
D03*
X275180Y387630D02*
D03*
X1475330Y382410D02*
D03*
X1509620D02*
D03*
X563470Y517030D02*
D03*
X1012784Y533679D02*
D03*
X421989Y680142D02*
D03*
X1150140Y828180D02*
D03*
X1206791Y731691D02*
D03*
X1206754Y722287D02*
D03*
X1078510Y707769D02*
D03*
X1206754Y712990D02*
D03*
Y703580D02*
D03*
X563400Y383820D02*
D03*
X451707Y330739D02*
D03*
X880900Y376060D02*
D03*
X263680Y387630D02*
D03*
X775049Y324897D02*
D03*
X1498120Y382410D02*
D03*
X1195860Y382808D02*
D03*
X139287Y328961D02*
D03*
X1412748Y323850D02*
D03*
X1093819Y324135D02*
D03*
X472500Y732322D02*
D03*
X339234Y739275D02*
D03*
X484000Y751519D02*
D03*
X350734Y748708D02*
D03*
X1066984Y679450D02*
D03*
X845340Y376060D02*
D03*
X1463830Y382410D02*
D03*
X1160300Y382668D02*
D03*
X551970Y517030D02*
D03*
X529110Y383680D02*
D03*
X521881Y526827D02*
D03*
X228120Y387490D02*
D03*
X380149Y403637D02*
D03*
X365925Y564165D02*
D03*
X696379Y396017D02*
D03*
X77889Y407447D02*
D03*
X1008799Y402367D02*
D03*
X1312329D02*
D03*
X510381Y526827D02*
D03*
X791620Y553580D02*
D03*
X354425Y564165D02*
D03*
X510729Y546752D02*
D03*
X684879Y396017D02*
D03*
X368649Y403637D02*
D03*
X66389Y407447D02*
D03*
X339234Y748708D02*
D03*
X350734Y739275D02*
D03*
X898511Y807923D02*
D03*
X1067021Y688883D02*
D03*
X712950Y618350D02*
D03*
X630710Y594500D02*
D03*
X484000Y732322D02*
D03*
X1078430Y717215D02*
D03*
X1218254Y712990D02*
D03*
X1067021Y698478D02*
D03*
X483952Y764011D02*
D03*
X433489Y689387D02*
D03*
X1001284Y524510D02*
D03*
X463207Y330739D02*
D03*
X150787Y328961D02*
D03*
X786549Y324897D02*
D03*
X1424248Y323850D02*
D03*
X522229Y546752D02*
D03*
X350734Y729834D02*
D03*
X1078521Y698478D02*
D03*
X1141366Y646018D02*
D03*
X791657Y542430D02*
D03*
D20*
X1075351Y630160D02*
D03*
X1260660Y706228D02*
D03*
X1240644D02*
D03*
X1075351Y658160D02*
D03*
X1055074D02*
D03*
X1240644Y734228D02*
D03*
X1260660D02*
D03*
X1055074Y630160D02*
D03*
D21*
X1289273Y416316D02*
D03*
X986672Y416909D02*
D03*
X1075406Y751840D02*
D03*
X1093964Y751877D02*
D03*
X727487Y554641D02*
D03*
X869122Y721124D02*
D03*
X1188326Y515480D02*
D03*
X878700Y721124D02*
D03*
X888371D02*
D03*
X460787Y557181D02*
D03*
X134952Y460979D02*
D03*
X1093964Y763377D02*
D03*
X1084671D02*
D03*
X1075406Y763340D02*
D03*
X437611Y456156D02*
D03*
X1064016Y454529D02*
D03*
X125591Y460936D02*
D03*
X744502Y444004D02*
D03*
X428320Y456156D02*
D03*
X1054661Y454579D02*
D03*
X1368849Y451776D02*
D03*
X1359561D02*
D03*
X777301Y761664D02*
D03*
X711568Y798928D02*
D03*
X918632Y542705D02*
D03*
X928097D02*
D03*
X937427D02*
D03*
X946668Y542742D02*
D03*
X817362Y540546D02*
D03*
X869122Y709624D02*
D03*
X1112520Y763340D02*
D03*
X1178973Y526980D02*
D03*
X1188326D02*
D03*
X786700Y761651D02*
D03*
X796860D02*
D03*
X428320Y467656D02*
D03*
X437611D02*
D03*
X754115Y455504D02*
D03*
X744502D02*
D03*
X134952Y472479D02*
D03*
X125591Y472436D02*
D03*
X1368849Y463276D02*
D03*
X1359561D02*
D03*
X1064016Y466029D02*
D03*
X1054661Y466079D02*
D03*
X786700Y750151D02*
D03*
X796860D02*
D03*
X826767Y540510D02*
D03*
X836332D02*
D03*
X826767Y529010D02*
D03*
X414348Y615095D02*
D03*
X356897Y429679D02*
D03*
X674113Y422059D02*
D03*
X328453Y533489D02*
D03*
X54833Y432219D02*
D03*
X986672Y428409D02*
D03*
X1289273Y427817D02*
D03*
X779920Y579600D02*
D03*
Y568100D02*
D03*
X405000Y603595D02*
D03*
X328453Y544989D02*
D03*
X1103271Y751840D02*
D03*
X674113Y410559D02*
D03*
X356897Y418179D02*
D03*
X54833Y420719D02*
D03*
X1084671Y751877D02*
D03*
X918632Y531205D02*
D03*
X928097D02*
D03*
X937427D02*
D03*
X836332Y529010D02*
D03*
X727487Y543141D02*
D03*
X405000Y615095D02*
D03*
X460787Y545681D02*
D03*
X946668Y531242D02*
D03*
X817362Y529047D02*
D03*
X1112520Y751840D02*
D03*
X777301Y750164D02*
D03*
X711568Y787428D02*
D03*
X1178973Y515480D02*
D03*
X414348Y603595D02*
D03*
X754115Y444004D02*
D03*
X878700Y709624D02*
D03*
X888371D02*
D03*
X1103271Y763340D02*
D03*
D22*
X698226Y366014D02*
D03*
X382504Y373380D02*
D03*
X1011154Y372872D02*
D03*
X1313668Y372364D02*
D03*
X999183Y549366D02*
D03*
X434330Y665480D02*
D03*
X883504Y782474D02*
D03*
X66060Y376682D02*
D03*
X683026Y366014D02*
D03*
X367304Y373380D02*
D03*
X995954Y372872D02*
D03*
X1298468Y372364D02*
D03*
X419129Y665480D02*
D03*
X81260Y376682D02*
D03*
X1014383Y549366D02*
D03*
X898704Y782474D02*
D03*
D23*
X334264Y570230D02*
D03*
X490982Y668020D02*
D03*
X475488Y684022D02*
D03*
X464566Y592074D02*
D03*
X461518Y621538D02*
D03*
X450342Y605790D02*
D03*
X441706Y622554D02*
D03*
X429768Y608584D02*
D03*
X334264Y591312D02*
D03*
D24*
X799280Y793700D02*
D03*
X744280D02*
D03*
X779280D02*
D03*
X789280D02*
D03*
X794280D02*
D03*
X769280D02*
D03*
X774280D02*
D03*
X754280D02*
D03*
X749280D02*
D03*
X784280D02*
D03*
X759280D02*
D03*
X764280D02*
D03*
D25*
X474103Y306100D02*
D03*
X407103D02*
D03*
X792340D02*
D03*
X725340D02*
D03*
X157340D02*
D03*
X90340D02*
D03*
X1428960D02*
D03*
X1361960D02*
D03*
X1111110D02*
D03*
X1044110D02*
D03*
X432103D02*
D03*
X507103D02*
D03*
X382853D02*
D03*
X365853D02*
D03*
X557103D02*
D03*
X532103D02*
D03*
X457103D02*
D03*
X750340D02*
D03*
X825340D02*
D03*
X701090D02*
D03*
X684090D02*
D03*
X875340D02*
D03*
X850340D02*
D03*
X775340D02*
D03*
X115340D02*
D03*
X190340D02*
D03*
X66090D02*
D03*
X49090D02*
D03*
X240340D02*
D03*
X215340D02*
D03*
X140340D02*
D03*
X1386960D02*
D03*
X1461960D02*
D03*
X1337710D02*
D03*
X1320710D02*
D03*
X1511960D02*
D03*
X1486960D02*
D03*
X1411960D02*
D03*
X1069110D02*
D03*
X1144110D02*
D03*
X1019860D02*
D03*
X1002860D02*
D03*
X1194110D02*
D03*
X1169110D02*
D03*
X1094110D02*
D03*
X332352D02*
D03*
X490602D02*
D03*
X650590D02*
D03*
X808840D02*
D03*
X173840D02*
D03*
X15590D02*
D03*
X1287210D02*
D03*
X1445460D02*
D03*
X969360D02*
D03*
X1127610D02*
D03*
D26*
X327352Y84100D02*
D03*
X607352Y96100D02*
D03*
X645590Y84100D02*
D03*
X925590Y96100D02*
D03*
X10590Y84100D02*
D03*
X290590Y96100D02*
D03*
X1282210Y84100D02*
D03*
X1562210Y96100D02*
D03*
X964360Y84100D02*
D03*
X1244360Y96100D02*
D03*
D27*
X892680Y410630D02*
D03*
X872920Y401320D02*
D03*
X574750Y419520D02*
D03*
X1207640Y416980D02*
D03*
X275460Y423330D02*
D03*
X1509900Y416980D02*
D03*
X837360Y402590D02*
D03*
X892680Y391630D02*
D03*
X554990Y410210D02*
D03*
X540890Y400520D02*
D03*
X521130Y410210D02*
D03*
X574750Y400520D02*
D03*
X1187880Y407670D02*
D03*
X1172080Y397980D02*
D03*
X1152320Y407670D02*
D03*
X1207640Y397980D02*
D03*
X239900Y404330D02*
D03*
X255700Y414020D02*
D03*
X220140D02*
D03*
X275460Y404330D02*
D03*
X1490140Y407670D02*
D03*
X1475610Y397980D02*
D03*
X1455850Y407670D02*
D03*
X1509900Y397980D02*
D03*
X1475610Y416980D02*
D03*
X1172080D02*
D03*
X540890Y419520D02*
D03*
X239900Y423330D02*
D03*
X857120Y411900D02*
D03*
Y392900D02*
D03*
D28*
X152917Y439248D02*
D03*
X107917D02*
D03*
X132917D02*
D03*
X137917D02*
D03*
X107917Y370547D02*
D03*
X152917D02*
D03*
X434893Y435438D02*
D03*
X727109Y359118D02*
D03*
X772109D02*
D03*
X757109Y427817D02*
D03*
X454893Y366738D02*
D03*
X409893D02*
D03*
X439893Y435438D02*
D03*
X122917Y439248D02*
D03*
X112917Y370547D02*
D03*
X742109Y427817D02*
D03*
X732109Y359118D02*
D03*
X1064668Y434425D02*
D03*
X127917Y439248D02*
D03*
X747109Y427817D02*
D03*
X429893Y435438D02*
D03*
X1059668Y434425D02*
D03*
X1367492Y434168D02*
D03*
X1362492D02*
D03*
X1069668Y434425D02*
D03*
X1039668Y365725D02*
D03*
X1084668D02*
D03*
X1372492Y434168D02*
D03*
X1342492Y365467D02*
D03*
X1387492D02*
D03*
X1044668Y365725D02*
D03*
X1054668Y434425D02*
D03*
X1357492Y434168D02*
D03*
X1347492Y365467D02*
D03*
X147917Y370547D02*
D03*
X767109Y359118D02*
D03*
X449893Y366738D02*
D03*
X1079668Y365725D02*
D03*
X1382492Y365467D02*
D03*
X429893Y366738D02*
D03*
X434893D02*
D03*
X424893D02*
D03*
X419893D02*
D03*
X444893D02*
D03*
X439893D02*
D03*
X747109Y359118D02*
D03*
X752109D02*
D03*
X742109D02*
D03*
X737109D02*
D03*
X762109D02*
D03*
X757109D02*
D03*
X127917Y370547D02*
D03*
X132917D02*
D03*
X122917D02*
D03*
X117917D02*
D03*
X142917D02*
D03*
X137917D02*
D03*
X1362492Y365467D02*
D03*
X1367492D02*
D03*
X1357492D02*
D03*
X1352492D02*
D03*
X1377492D02*
D03*
X1372492D02*
D03*
X1059668Y365725D02*
D03*
X1064668D02*
D03*
X1054668D02*
D03*
X1049668D02*
D03*
X1074668D02*
D03*
X1069668D02*
D03*
X449893Y435438D02*
D03*
X444893D02*
D03*
X767109Y427817D02*
D03*
X762109D02*
D03*
X147917Y439248D02*
D03*
X142917D02*
D03*
X1382492Y434168D02*
D03*
X1377492D02*
D03*
X1079668Y434425D02*
D03*
X1074668D02*
D03*
X419893Y435438D02*
D03*
X414893D02*
D03*
X737109Y427817D02*
D03*
X732109D02*
D03*
X117917Y439248D02*
D03*
X112917D02*
D03*
X1352492Y434168D02*
D03*
X1347492D02*
D03*
X1049668Y434425D02*
D03*
X1044668D02*
D03*
X162917Y439248D02*
D03*
X157917D02*
D03*
Y370547D02*
D03*
X162917D02*
D03*
X414893Y366738D02*
D03*
X409893Y435438D02*
D03*
X727109Y427817D02*
D03*
X1387492Y434168D02*
D03*
X1342492D02*
D03*
X777109Y427817D02*
D03*
X752109D02*
D03*
X464893Y435438D02*
D03*
X454893D02*
D03*
X1084668Y434425D02*
D03*
X1039668D02*
D03*
X772109Y427817D02*
D03*
X424893Y435438D02*
D03*
X1094668Y365725D02*
D03*
Y434425D02*
D03*
X1089668D02*
D03*
X782109Y427817D02*
D03*
X1089668Y365725D02*
D03*
X464893Y366738D02*
D03*
X459893D02*
D03*
Y435438D02*
D03*
X777109Y359118D02*
D03*
X782109D02*
D03*
X1397492Y434168D02*
D03*
X1392492D02*
D03*
Y365467D02*
D03*
X1397492D02*
D03*
D29*
X1103619Y781610D02*
D03*
Y808110D02*
D03*
D30*
X1072388Y544170D02*
D03*
X1094740Y534670D02*
D03*
X1072388Y525170D02*
D03*
D31*
X375582Y739140D02*
D03*
Y726440D02*
D03*
X448182Y764540D02*
D03*
Y751840D02*
D03*
X375582Y764540D02*
D03*
X448182Y739140D02*
D03*
X375582Y751840D02*
D03*
X448182Y726440D02*
D03*
D32*
X382270Y676910D02*
D03*
X847500Y794870D02*
D03*
X401770Y689910D02*
D03*
X867000Y807870D02*
D03*
X1032060Y524510D02*
D03*
X867000Y794870D02*
D03*
X1032060Y537510D02*
D03*
X401770Y676910D02*
D03*
X1051560Y531010D02*
D03*
X382270Y683410D02*
D03*
X847500Y801370D02*
D03*
X382270Y689910D02*
D03*
X847500Y807870D02*
D03*
X1051560Y537510D02*
D03*
Y524510D02*
D03*
D33*
X802810Y580790D02*
D03*
X792310Y567290D02*
D03*
X368130Y416160D02*
D03*
X378630Y429660D02*
D03*
X67140Y419970D02*
D03*
X77640Y433470D02*
D03*
X1301580Y414890D02*
D03*
X1312080Y428390D02*
D03*
X998050Y414890D02*
D03*
X1008550Y428390D02*
D03*
X802810Y567290D02*
D03*
X368130Y429660D02*
D03*
X378630Y416160D02*
D03*
X685630Y422040D02*
D03*
X696130Y408540D02*
D03*
X67140Y433470D02*
D03*
X77640Y419970D02*
D03*
X998050Y428390D02*
D03*
X1008550Y414890D02*
D03*
X1301580Y428390D02*
D03*
X1312080Y414890D02*
D03*
X792310Y580790D02*
D03*
X685630Y408540D02*
D03*
X696130Y422040D02*
D03*
D34*
X365846Y533528D02*
D03*
X344846Y549528D02*
D03*
X365846D02*
D03*
X344846Y533528D02*
D03*
D35*
X930247Y567664D02*
D03*
X914247Y683488D02*
D03*
X866247Y567664D02*
D03*
X902247D02*
D03*
X922247Y683488D02*
D03*
X886247D02*
D03*
X866247D02*
D03*
X914247Y567664D02*
D03*
X918247D02*
D03*
X922247D02*
D03*
X926247D02*
D03*
X874247Y683488D02*
D03*
X834247Y567664D02*
D03*
X858247Y683488D02*
D03*
X862247D02*
D03*
X850247D02*
D03*
X854247D02*
D03*
Y567664D02*
D03*
X850247D02*
D03*
X890247D02*
D03*
X886247D02*
D03*
X874247D02*
D03*
X870247D02*
D03*
X862247D02*
D03*
X858247D02*
D03*
X910247D02*
D03*
X906247D02*
D03*
X898247D02*
D03*
X894247D02*
D03*
X838247D02*
D03*
X882247Y683488D02*
D03*
X878247D02*
D03*
X842247Y567664D02*
D03*
X878247D02*
D03*
X846247D02*
D03*
X882247D02*
D03*
X930247Y683488D02*
D03*
X926247D02*
D03*
X918247D02*
D03*
X910247D02*
D03*
X906247D02*
D03*
X902247D02*
D03*
X898247D02*
D03*
X894247D02*
D03*
X890247D02*
D03*
X870247D02*
D03*
X846247D02*
D03*
X842247D02*
D03*
X838247D02*
D03*
X834247D02*
D03*
D36*
X940159Y597576D02*
D03*
Y625576D02*
D03*
X824335Y665576D02*
D03*
Y637576D02*
D03*
Y605576D02*
D03*
X940159Y577576D02*
D03*
Y645576D02*
D03*
X824335Y661576D02*
D03*
Y625576D02*
D03*
Y581576D02*
D03*
Y585576D02*
D03*
Y577576D02*
D03*
Y593576D02*
D03*
X940159Y585576D02*
D03*
Y581576D02*
D03*
Y613576D02*
D03*
Y609576D02*
D03*
X824335Y649576D02*
D03*
Y653576D02*
D03*
X940159Y637576D02*
D03*
Y641576D02*
D03*
X824335Y617576D02*
D03*
Y621576D02*
D03*
X940159Y605576D02*
D03*
Y601576D02*
D03*
Y593576D02*
D03*
Y589576D02*
D03*
Y633576D02*
D03*
Y629576D02*
D03*
Y621576D02*
D03*
Y617576D02*
D03*
X824335Y629576D02*
D03*
Y633576D02*
D03*
Y641576D02*
D03*
Y645576D02*
D03*
Y597576D02*
D03*
Y601576D02*
D03*
Y609576D02*
D03*
Y613576D02*
D03*
Y589576D02*
D03*
X940159Y649576D02*
D03*
Y653576D02*
D03*
Y657576D02*
D03*
Y661576D02*
D03*
Y665576D02*
D03*
Y669576D02*
D03*
Y673576D02*
D03*
X824335Y673576D02*
D03*
Y669576D02*
D03*
Y657576D02*
D03*
D37*
X1202720Y764540D02*
D03*
X1217900D02*
D03*
D38*
X1209040Y783060D02*
D03*
X1187450D02*
D03*
X1070610Y812060D02*
D03*
X1187450D02*
D03*
X1209040D02*
D03*
X1070610Y783060D02*
D03*
D39*
X1163672Y795176D02*
D03*
X1136748D02*
D03*
D40*
X1261174Y651510D02*
D03*
X1205674D02*
D03*
D41*
X770254Y555330D02*
D03*
X751206D02*
D03*
Y534330D02*
D03*
X770254D02*
D03*
D42*
X101067Y392397D02*
D03*
X720259Y380967D02*
D03*
X403043Y388587D02*
D03*
X1032818Y387575D02*
D03*
X1335642Y387318D02*
D03*
X101067Y422397D02*
D03*
X169767Y412397D02*
D03*
X720259Y410967D02*
D03*
X788959Y400967D02*
D03*
X471743Y408587D02*
D03*
X403043Y418587D02*
D03*
X101067Y387397D02*
D03*
X720259Y375967D02*
D03*
X403043Y383587D02*
D03*
X1101518Y407575D02*
D03*
X1032818Y417575D02*
D03*
X1335642Y417318D02*
D03*
X1404342Y407318D02*
D03*
X169767Y407397D02*
D03*
X788959Y395967D02*
D03*
X1032818Y382575D02*
D03*
X471743Y403587D02*
D03*
X1101518Y402575D02*
D03*
X1335642Y382318D02*
D03*
X1404342Y402318D02*
D03*
X720259Y405967D02*
D03*
X101067Y417397D02*
D03*
X403043Y413587D02*
D03*
X1032818Y412575D02*
D03*
X1335642Y412318D02*
D03*
X471743Y383587D02*
D03*
Y388587D02*
D03*
Y378587D02*
D03*
Y373587D02*
D03*
Y398587D02*
D03*
Y393587D02*
D03*
X403043Y378587D02*
D03*
Y373587D02*
D03*
X788959Y375967D02*
D03*
Y380967D02*
D03*
Y370967D02*
D03*
Y365967D02*
D03*
Y390967D02*
D03*
Y385967D02*
D03*
X720259Y370967D02*
D03*
Y365967D02*
D03*
X169767Y387397D02*
D03*
Y392397D02*
D03*
Y382397D02*
D03*
Y377397D02*
D03*
Y402397D02*
D03*
Y397397D02*
D03*
X101067Y382397D02*
D03*
Y377397D02*
D03*
X1404342Y382318D02*
D03*
Y387318D02*
D03*
Y377318D02*
D03*
Y372318D02*
D03*
Y397318D02*
D03*
Y392318D02*
D03*
X1335642Y377318D02*
D03*
Y372318D02*
D03*
X1101518Y382575D02*
D03*
Y387575D02*
D03*
Y377575D02*
D03*
Y372575D02*
D03*
Y397575D02*
D03*
Y392575D02*
D03*
X1032818Y377575D02*
D03*
Y372575D02*
D03*
X403043Y428587D02*
D03*
Y423587D02*
D03*
X720259Y420967D02*
D03*
Y415967D02*
D03*
X101067Y432397D02*
D03*
Y427397D02*
D03*
X1032818Y427575D02*
D03*
Y422575D02*
D03*
X1335642Y427318D02*
D03*
Y422318D02*
D03*
X101067Y412397D02*
D03*
Y407397D02*
D03*
Y402397D02*
D03*
Y397397D02*
D03*
X169767Y417397D02*
D03*
Y422397D02*
D03*
Y427397D02*
D03*
Y432397D02*
D03*
X1032818Y392575D02*
D03*
Y407575D02*
D03*
Y402575D02*
D03*
Y397575D02*
D03*
X471743Y428587D02*
D03*
Y423587D02*
D03*
Y418587D02*
D03*
Y413587D02*
D03*
X403043Y393587D02*
D03*
Y398587D02*
D03*
Y403587D02*
D03*
Y408587D02*
D03*
X720259Y400967D02*
D03*
Y395967D02*
D03*
Y390967D02*
D03*
Y385967D02*
D03*
X788959Y405967D02*
D03*
Y410967D02*
D03*
Y415967D02*
D03*
Y420967D02*
D03*
X1101518Y412575D02*
D03*
Y417575D02*
D03*
Y422575D02*
D03*
Y427575D02*
D03*
X1335642Y407318D02*
D03*
Y402318D02*
D03*
Y397318D02*
D03*
Y392318D02*
D03*
X1404342Y412318D02*
D03*
Y417318D02*
D03*
Y422318D02*
D03*
Y427318D02*
D03*
D43*
X434594Y535432D02*
D03*
X429514D02*
D03*
X409448Y584708D02*
D03*
X404622D02*
D03*
X434594D02*
D03*
X429514D02*
D03*
X424688D02*
D03*
X414528D02*
D03*
X399542D02*
D03*
X419608D02*
D03*
X424688Y535432D02*
D03*
X419608D02*
D03*
X414528D02*
D03*
X409448D02*
D03*
X404622D02*
D03*
X399542D02*
D03*
D44*
X441706Y557530D02*
D03*
Y542544D02*
D03*
Y572516D02*
D03*
Y577596D02*
D03*
Y547624D02*
D03*
X392430Y562610D02*
D03*
Y552450D02*
D03*
Y547624D02*
D03*
Y542544D02*
D03*
X441706Y562610D02*
D03*
X392430Y577596D02*
D03*
Y557530D02*
D03*
Y567690D02*
D03*
X441706D02*
D03*
Y552450D02*
D03*
X392430Y572516D02*
D03*
D45*
X1107297Y661031D02*
D03*
Y687031D02*
D03*
X1164436Y700031D02*
D03*
X1107297D02*
D03*
X1164436Y693531D02*
D03*
Y680531D02*
D03*
X1107297Y674031D02*
D03*
Y667531D02*
D03*
Y693531D02*
D03*
X1164436Y667531D02*
D03*
Y687031D02*
D03*
Y674031D02*
D03*
Y661031D02*
D03*
X1107297Y680531D02*
D03*
D46*
X190319Y426045D02*
D03*
X808766Y414836D02*
D03*
X492776Y422392D02*
D03*
X1121250Y420712D02*
D03*
X1423528Y420222D02*
D03*
X821866Y414836D02*
D03*
X505876Y422392D02*
D03*
X1134350Y420712D02*
D03*
X203419Y426045D02*
D03*
X1436628Y420222D02*
D03*
D47*
X571500Y585724D02*
D03*
X566500D02*
D03*
X561500Y538226D02*
D03*
X556500D02*
D03*
Y585724D02*
D03*
X561500D02*
D03*
X576500D02*
D03*
X581500D02*
D03*
X586500D02*
D03*
Y538226D02*
D03*
X581500D02*
D03*
X576500D02*
D03*
X571500D02*
D03*
X566500D02*
D03*
D48*
X1189056Y591488D02*
D03*
Y549988D02*
D03*
X1167556Y591488D02*
D03*
Y549988D02*
D03*
D49*
X547751Y556975D02*
D03*
Y561975D02*
D03*
Y546975D02*
D03*
Y576975D02*
D03*
Y566975D02*
D03*
Y551975D02*
D03*
X595249Y576975D02*
D03*
Y571975D02*
D03*
Y566975D02*
D03*
Y561975D02*
D03*
Y556975D02*
D03*
Y551975D02*
D03*
Y546975D02*
D03*
X547751Y571975D02*
D03*
D50*
X736888Y754798D02*
D03*
X719388D02*
D03*
D51*
X378300Y604520D02*
D03*
X358300D02*
D03*
D52*
X1136121Y680531D02*
D03*
D53*
X417068Y560070D02*
D03*
D87*
X571500Y561975D02*
D03*
D88*
X882247Y625576D02*
D03*
D94*
X706120Y670560D02*
D03*
Y695960D02*
D03*
X680720D02*
D03*
X655320D02*
D03*
X680720Y670560D02*
D03*
D98*
X655320D02*
D03*
D102*
X135417Y404897D02*
D03*
X1067168Y400075D02*
D03*
X437393Y401087D02*
D03*
X754609Y393467D02*
D03*
X1369992Y399818D02*
D03*
D103*
X1103619Y789860D02*
D03*
Y794860D02*
D03*
Y799860D02*
D03*
D104*
X1096010Y784860D02*
D03*
X1111228Y784860D02*
D03*
X1096010Y804860D02*
D03*
X1111228D02*
D03*
D105*
X1092609Y324595D02*
X1093359D01*
X1089152Y333872D02*
X1092609Y330415D01*
X1093359Y324595D02*
X1093819Y324135D01*
X1092609Y324595D02*
Y330415D01*
X1089152Y333872D02*
Y334010D01*
X1094110Y306100D02*
Y324214D01*
X451707Y321977D02*
Y330739D01*
Y314809D02*
Y321977D01*
Y314809D02*
X454642Y311873D01*
X132334Y318770D02*
X132409Y318695D01*
X131826Y319415D02*
X132409Y319999D01*
Y316531D02*
Y318695D01*
Y316531D02*
X140340Y308600D01*
X131826Y319278D02*
Y319415D01*
X190319Y426045D02*
Y436807D01*
X807961Y415641D02*
Y425480D01*
X491926Y423242D02*
Y433325D01*
Y423242D02*
X492776Y422392D01*
X491828Y433423D02*
X491926Y433325D01*
X1119426Y431325D02*
X1119540Y431211D01*
Y422422D02*
X1121250Y420712D01*
X1119540Y422422D02*
Y431211D01*
X1119426Y431325D02*
Y431462D01*
X1421759Y430380D02*
X1421805Y430426D01*
X1421759Y424773D02*
Y430380D01*
X835569Y404381D02*
Y410416D01*
X821866Y414836D02*
X831154D01*
X834130Y411860D01*
Y411855D02*
X835569Y410416D01*
Y404381D02*
X837360Y402590D01*
X834130Y411855D02*
Y411860D01*
X892400Y376060D02*
Y391350D01*
X540610Y383680D02*
Y400240D01*
X548721Y408351D01*
X553131D01*
X554990Y410210D01*
X505876Y422392D02*
X507282D01*
X507586Y422089D01*
X517746D01*
X520721Y419113D01*
Y410619D02*
Y419113D01*
Y410619D02*
X521130Y410210D01*
X574900Y383820D02*
Y400370D01*
X1171800Y382668D02*
X1172080Y382948D01*
Y397980D01*
X1183199D01*
X1186175Y400956D01*
Y405965D01*
X1187880Y407670D01*
X1134350Y420212D02*
X1136060Y418502D01*
X1146486D01*
X1150360Y414628D01*
Y409630D02*
Y414628D01*
Y409630D02*
X1152320Y407670D01*
X1207360Y382808D02*
Y397700D01*
X239620Y387490D02*
Y404050D01*
X239900Y404330D01*
X251024D01*
X254000Y407306D01*
Y412320D01*
X255700Y414020D01*
X203419Y426045D02*
X215464D01*
X218440Y423069D01*
Y416052D02*
Y423069D01*
X275180Y387630D02*
Y404050D01*
X275460Y404330D01*
X1475330Y382410D02*
X1475610Y382690D01*
Y397980D01*
X1485048D01*
X1488180Y401112D02*
Y405710D01*
X1485048Y397980D02*
X1488180Y401112D01*
Y405710D02*
X1490140Y407670D01*
X1436628Y420222D02*
X1448461D01*
X1453890Y414793D01*
Y409630D02*
Y414793D01*
Y409630D02*
X1454912D01*
X1509620Y382410D02*
Y397700D01*
X455932Y309770D02*
X456746D01*
X454642Y311060D02*
X455932Y309770D01*
X454642Y311060D02*
Y311873D01*
X775049Y317918D02*
Y324897D01*
Y309213D02*
Y317918D01*
X1486553Y381938D02*
X1486650Y382035D01*
X1497745D02*
X1497923Y382213D01*
X1184671Y382793D02*
X1195845D01*
X132409Y323382D02*
X137414Y328387D01*
X132409Y319999D02*
Y323382D01*
X140340Y306100D02*
Y308600D01*
X1412494Y323596D02*
X1412748Y323342D01*
X1412710Y323888D02*
X1412748Y323850D01*
X1412671Y333192D02*
X1412710Y333154D01*
Y323888D02*
Y333154D01*
X1411960Y306100D02*
X1412748Y306888D01*
Y323342D01*
X1108771Y308439D02*
X1111110Y306100D01*
X1108771Y308439D02*
Y320683D01*
X1105319Y324135D02*
X1106069D01*
X1106529Y323675D01*
Y322925D02*
Y323675D01*
Y322925D02*
X1108771Y320683D01*
X787299Y324897D02*
X787759Y324437D01*
X786549Y324897D02*
X787299D01*
X787759Y323405D02*
Y324437D01*
Y323405D02*
X789883Y321281D01*
Y308557D02*
X792340Y306100D01*
X789883Y308557D02*
Y316992D01*
X1424248Y323850D02*
X1424998D01*
X1425458Y323390D01*
Y322640D02*
Y323390D01*
Y322640D02*
X1428860Y319238D01*
X1424248Y323850D02*
Y332924D01*
X789883Y316992D02*
Y321281D01*
X1428860Y306200D02*
Y308864D01*
Y319238D01*
X871002Y399402D02*
X872920Y401320D01*
X863622Y399402D02*
X871002D01*
X856840Y392620D02*
X863622Y399402D01*
X856840Y376060D02*
Y392620D01*
D106*
X1407007Y362884D02*
X1407832D01*
X1404424Y365467D02*
X1407007Y362884D01*
X1397492Y365467D02*
X1404424D01*
X1445971Y306611D02*
Y316501D01*
X1445460Y306100D02*
X1445971Y306611D01*
X1397492Y434168D02*
Y437067D01*
X1397663Y437098D02*
X1402779Y442214D01*
X1397522Y437098D02*
X1397663D01*
X1402779Y442214D02*
X1409700D01*
X1397492Y437067D02*
X1397522Y437098D01*
X1104900Y324554D02*
Y332486D01*
Y324554D02*
X1105319Y324135D01*
X1099811Y442468D02*
X1100074D01*
X1094668Y437325D02*
X1099811Y442468D01*
X1094668Y434425D02*
Y437325D01*
X1107123Y361188D02*
X1107440D01*
X1102586Y365725D02*
X1107123Y361188D01*
X1094668Y365725D02*
X1102586D01*
X1122249Y316267D02*
Y317092D01*
Y316267D02*
X1123880Y314636D01*
Y309830D02*
Y314636D01*
Y309830D02*
X1127610Y306100D01*
X786676Y359118D02*
X792226Y353568D01*
X782109Y359118D02*
X786676D01*
X782066Y427228D02*
Y433070D01*
X784860Y435864D01*
X791972D01*
X815740Y317433D02*
Y317918D01*
X812570Y309830D02*
Y314264D01*
X808840Y306100D02*
X812570Y309830D01*
Y314264D02*
X815740Y317433D01*
X470662Y444106D02*
Y444246D01*
X464893Y435438D02*
Y438338D01*
X470662Y444106D01*
X477520Y357124D02*
X477774Y356870D01*
X470828Y363816D02*
X477520Y357124D01*
X464893Y363846D02*
X464923Y363816D01*
X470828D01*
X464893Y363846D02*
Y366738D01*
X490602Y306100D02*
Y317628D01*
X162947Y442601D02*
X167640Y447294D01*
X162947Y439277D02*
Y442601D01*
X162917Y439248D02*
X162947Y439277D01*
X78232Y391922D02*
X78678Y392368D01*
X101037D01*
X101067Y392397D01*
X696754Y382090D02*
X713104D01*
X696566Y381902D02*
X696754Y382090D01*
X714197Y380998D02*
X720229D01*
X713104Y382090D02*
X714197Y380998D01*
X720229D02*
X720259Y380967D01*
X379730Y388112D02*
X380823Y389205D01*
X396004D02*
X396592Y388618D01*
X403013D02*
X403043Y388587D01*
X396592Y388618D02*
X403013D01*
X380823Y389205D02*
X396004D01*
X1009396Y386334D02*
X1010358D01*
X1012217Y388193D02*
X1025779D01*
X1010358Y386334D02*
X1012217Y388193D01*
X1025779D02*
X1026367Y387605D01*
X1032788D01*
X1032818Y387575D01*
X1324793Y387935D02*
X1325027Y388169D01*
X1330478Y387347D02*
X1335612D01*
X1329656Y388169D02*
X1330478Y387347D01*
X1313257Y387935D02*
X1324793D01*
X1325027Y388169D02*
X1329656D01*
X1312418Y387096D02*
X1313257Y387935D01*
X1335612Y387347D02*
X1335642Y387318D01*
X179362Y417962D02*
X179460Y417864D01*
X174058Y412427D02*
X179362Y417732D01*
X169797Y412427D02*
X174058D01*
X179362Y417732D02*
Y417962D01*
X169767Y412397D02*
X169797Y412427D01*
X794089Y401874D02*
X794126D01*
X797965Y405713D01*
X788989Y400998D02*
X793213D01*
X794089Y401874D01*
X797965Y405713D02*
Y405768D01*
X798503Y405231D01*
X788959Y400967D02*
X788989Y400998D01*
X479997Y411734D02*
X481647D01*
X482390Y412477D01*
X471743Y408587D02*
X471773Y408618D01*
X476881D01*
X479997Y411734D01*
X190246Y436880D02*
X190319Y436807D01*
X807961Y415641D02*
X808766Y414836D01*
X1105809Y407605D02*
X1110973Y412769D01*
Y413214D01*
X1101518Y407575D02*
X1101548Y407605D01*
X1105809D01*
X1413764Y411226D02*
X1414285Y410705D01*
X1412939Y411226D02*
X1413764D01*
X1409061Y407347D02*
X1412939Y411226D01*
X1404372Y407347D02*
X1409061D01*
X1404342Y407318D02*
X1404372Y407347D01*
X180004Y410636D02*
X180168D01*
X176765Y407397D02*
X180004Y410636D01*
X169767Y407397D02*
X176765D01*
X798364Y397766D02*
X798947Y398349D01*
X795729Y397766D02*
X798364D01*
X793960Y395998D02*
X795729Y397766D01*
X788989Y395998D02*
X793960D01*
X788959Y395967D02*
X788989Y395998D01*
X480980Y403587D02*
X481293Y403901D01*
X471743Y403587D02*
X480980D01*
X1107445Y402605D02*
X1110738Y405899D01*
X1112005D01*
X1101518Y402575D02*
X1101548Y402605D01*
X1107445D01*
X147917Y362369D02*
X148336Y361950D01*
X147917Y362369D02*
Y370547D01*
X767109Y352269D02*
Y359118D01*
X449893Y358843D02*
X450342Y358394D01*
X449893Y358843D02*
Y366738D01*
X1079668Y356702D02*
Y365725D01*
Y356702D02*
X1081278Y355092D01*
X1081298D01*
X1412857Y404114D02*
X1413764D01*
X1404342Y402318D02*
X1411061D01*
X1412857Y404114D01*
X1382492Y357662D02*
X1384808Y355346D01*
X1382492Y357662D02*
Y365467D01*
X999183Y535779D02*
Y549366D01*
Y535779D02*
X1001284Y533679D01*
X433489Y680142D02*
X434330Y679302D01*
Y665480D02*
Y679302D01*
X877570Y782320D02*
X883350D01*
X883504Y782474D01*
X873760Y786130D02*
X877570Y782320D01*
X873760Y786130D02*
Y791210D01*
X870100Y794870D02*
X873760Y791210D01*
X867000Y794870D02*
X870100D01*
X66318Y391550D02*
X66576Y391808D01*
X66318Y376706D02*
Y391550D01*
X66294Y376682D02*
X66318Y376706D01*
X684046Y366800D02*
Y380882D01*
X685066Y381902D01*
X683514Y366268D02*
X684046Y366800D01*
X368070Y375642D02*
Y387994D01*
X368836Y388760D01*
X368070Y375642D02*
X369316Y374396D01*
X996720Y373150D02*
Y384946D01*
X997486Y385712D01*
X995934Y372364D02*
X996720Y373150D01*
X1299464Y388366D02*
X1299615Y388215D01*
Y373511D02*
Y388215D01*
X1298468Y372364D02*
X1299615Y373511D01*
X701450Y594416D02*
Y618350D01*
Y594416D02*
X701506Y594360D01*
Y517354D02*
Y543560D01*
Y517354D02*
X701830Y517030D01*
X642210Y594500D02*
X642350Y594360D01*
X668020D01*
X641830Y543420D02*
X641970Y543560D01*
X668020D01*
X892400Y391350D02*
X892680Y391630D01*
X574750Y400520D02*
X574900Y400370D01*
X1207360Y397700D02*
X1207640Y397980D01*
X1509620Y397700D02*
X1509900Y397980D01*
X413276Y680142D02*
X422191D01*
X410044Y676910D02*
X413276Y680142D01*
X401770Y676910D02*
X410044D01*
X1167556Y526980D02*
X1178973D01*
X1188326D01*
X1189056Y527710D01*
Y549988D01*
Y591488D01*
X1072388Y516890D02*
Y525170D01*
X1069594D02*
X1072388D01*
X1051560Y531010D02*
X1063754D01*
X1069594Y525170D01*
X397924Y378558D02*
X403013D01*
X394271Y374904D02*
X397924Y378558D01*
X393446Y374904D02*
X394271D01*
X403013Y378558D02*
X403043Y378587D01*
X393925Y367370D02*
X400143Y373587D01*
X393925Y367049D02*
Y367370D01*
X400143Y373587D02*
X403043D01*
X710536Y369307D02*
X711361D01*
X712991Y370938D02*
X720229D01*
X711361Y369307D02*
X712991Y370938D01*
X720229D02*
X720259Y370967D01*
X774954Y309118D02*
X775049Y309213D01*
X715154Y365938D02*
X720229D01*
X720259Y365967D01*
X711543Y362327D02*
X715154Y365938D01*
X1486650Y382035D02*
X1497745D01*
X92456Y377698D02*
X93039Y378281D01*
Y379529D01*
X95878Y382368D01*
X101037D01*
X101067Y382397D01*
X92964Y368808D02*
X93443D01*
X98258Y373623D01*
Y377368D01*
X98288Y377397D01*
X101067D01*
X1329298Y377287D02*
X1335612D01*
X1325613Y373603D02*
X1329298Y377287D01*
X1324788Y373603D02*
X1325613D01*
X1335612Y377287D02*
X1335642Y377318D01*
X1326891Y366466D02*
X1332742Y372318D01*
X1326891Y366269D02*
Y366466D01*
X1332742Y372318D02*
X1335642D01*
X1021070Y375706D02*
X1024775D01*
X1026614Y377545D01*
X1032788D01*
X1020487Y375122D02*
X1021070Y375706D01*
X1032788Y377545D02*
X1032818Y377575D01*
X1025643Y368300D02*
X1029918Y372575D01*
X1032818D01*
X1024382Y368300D02*
X1025643D01*
X328422Y739394D02*
X328541Y739275D01*
X339234D01*
X375582Y751840D02*
X389382D01*
X358818Y748708D02*
X361950Y751840D01*
X375582D01*
X350734Y748708D02*
X358818D01*
X1318514Y355854D02*
X1335024D01*
X1313668Y360700D02*
X1318514Y355854D01*
X1313668Y360700D02*
Y372364D01*
X1313668Y372364D02*
X1313668Y372364D01*
X768389Y750164D02*
X777301D01*
X766509Y748284D02*
X768389Y750164D01*
X765556Y748284D02*
X766509D01*
X385896Y358140D02*
X399542D01*
X399796Y357886D01*
X382532Y361504D02*
X385896Y358140D01*
X382532Y361504D02*
Y373352D01*
X382504Y373380D02*
X382532Y373352D01*
X328676Y555498D02*
X333773Y560595D01*
Y568181D01*
X81260Y364764D02*
Y376682D01*
X698226Y351810D02*
Y366014D01*
Y351810D02*
X700335Y349701D01*
X719327D01*
X1011174Y365252D02*
Y372852D01*
X1011154Y372872D02*
X1011174Y372852D01*
Y365252D02*
X1014639Y361787D01*
X81260Y364764D02*
X86072Y359952D01*
X94870D01*
X153206Y323869D02*
Y327231D01*
X154686Y321564D02*
Y322389D01*
X153206Y323869D02*
X154686Y322389D01*
X151476Y328961D02*
X153206Y327231D01*
X150787Y328961D02*
X151476D01*
X789883Y316992D02*
X790032Y317142D01*
Y317842D01*
X1027339Y361787D02*
X1031240Y357886D01*
X1014639Y361787D02*
X1027339D01*
X1011174Y372852D02*
X1013027Y370999D01*
X1423924Y333248D02*
X1424248Y332924D01*
X332994Y568960D02*
X333773Y568181D01*
X1428696Y308864D02*
X1428860D01*
X1430020D01*
X424878Y435453D02*
Y443674D01*
Y435453D02*
X424893Y435438D01*
X424878Y443674D02*
X424942Y443738D01*
X350734Y729834D02*
Y739275D01*
X350868Y739140D01*
X375582D01*
X898511Y798445D02*
X898895Y798830D01*
X898704Y782474D02*
Y798251D01*
X898511Y798445D02*
X898704Y798251D01*
D107*
X1387477Y434182D02*
Y443063D01*
Y434182D02*
X1387492Y434168D01*
X1387462Y443078D02*
X1387477Y443063D01*
X170180Y309760D02*
X170953Y310533D01*
Y317875D01*
X170180Y309760D02*
X173840Y306100D01*
X169578Y364317D02*
X170540D01*
X166531Y367364D02*
X169578Y364317D01*
X163201Y367364D02*
X166531D01*
X162917Y367648D02*
X163201Y367364D01*
X162917Y367648D02*
Y370547D01*
X153201Y364694D02*
X157275Y360620D01*
Y360506D02*
Y360620D01*
X1372492Y434168D02*
Y442678D01*
X1372870Y443056D01*
X1357446Y434214D02*
Y442351D01*
X1357399Y442397D02*
X1357446Y442351D01*
Y434214D02*
X1357492Y434168D01*
X372378Y440944D02*
X384931D01*
X368981Y429660D02*
Y437547D01*
X372378Y440944D01*
X384931D02*
X397288Y428587D01*
X720554Y434275D02*
X721234Y433595D01*
X724232D01*
X727109Y430718D01*
X931237Y562610D02*
X939800D01*
X930247Y563600D02*
X931237Y562610D01*
X932788Y625576D02*
X940159D01*
X929825Y623575D02*
X930787D01*
X932788Y625576D01*
X928370Y598170D02*
X928964Y597576D01*
X940159D01*
X833809Y605576D02*
X834023Y605790D01*
X824335Y605576D02*
X833809D01*
X824335Y637576D02*
X834390D01*
X824335Y665576D02*
X834390D01*
X902247Y576538D02*
X902970Y577261D01*
X902247Y567664D02*
Y576538D01*
X866247Y577261D02*
X866562Y577576D01*
X866247Y567664D02*
Y577261D01*
X930247Y563600D02*
Y567664D01*
X914247Y694899D02*
X914400Y695052D01*
X914247Y683488D02*
Y694899D01*
X833939Y581576D02*
X834023Y581660D01*
X824335Y581576D02*
X833939D01*
X824335Y625576D02*
X834023D01*
X830023Y661576D02*
X834023Y657576D01*
X824335Y661576D02*
X830023D01*
X834023Y657576D02*
X834390D01*
X866247Y673891D02*
X866562Y673576D01*
X866247Y673891D02*
Y683488D01*
X929485Y645614D02*
X929523Y645576D01*
X940159D01*
X928685Y577576D02*
X940159D01*
X928370Y577261D02*
X928685Y577576D01*
X922247Y690899D02*
X926247Y694899D01*
X922247Y683488D02*
Y690899D01*
X888478Y695052D02*
X891178D01*
X886247Y692821D02*
X888478Y695052D01*
X886247Y683488D02*
Y692821D01*
X811892Y567290D02*
X816610Y572008D01*
Y583539D01*
X818647Y585576D02*
X824335D01*
X816610Y583539D02*
X818647Y585576D01*
X802810Y567290D02*
X811892D01*
X803120Y542467D02*
X803157Y542430D01*
X803120Y542467D02*
Y553580D01*
X802810Y553890D02*
X803120Y553580D01*
X802810Y553890D02*
Y567290D01*
X434594Y532940D02*
Y535432D01*
Y532940D02*
X435102Y532432D01*
X471726D02*
X509778Y570484D01*
X435102Y532432D02*
X471726D01*
X429514Y528316D02*
Y535432D01*
X474668Y527126D02*
X489744Y542202D01*
X430704Y527126D02*
X474668D01*
X429514Y528316D02*
X430704Y527126D01*
X460438Y557530D02*
X460787Y557181D01*
X441706Y557530D02*
X460438D01*
X1129865Y646018D02*
Y652498D01*
X1121333Y661031D02*
X1129865Y652498D01*
X1107297Y661031D02*
X1121333D01*
X98747Y352109D02*
X103359D01*
X98066Y351428D02*
X98747Y352109D01*
X103359D02*
X106008Y354758D01*
Y362040D01*
X107815Y363847D01*
Y370446D01*
X107917Y370547D01*
X90834Y421518D02*
X91713Y422397D01*
X101067D01*
X137917Y439248D02*
Y447758D01*
X138295Y448136D01*
X153201Y364694D02*
Y370263D01*
X152917Y370547D02*
X153201Y370263D01*
X1091778Y688883D02*
X1093630Y687031D01*
X1107297D01*
X1078521Y688883D02*
X1091778D01*
X1078521Y679487D02*
Y688883D01*
X1078484Y679450D02*
X1078521Y679487D01*
X1067010Y707769D02*
Y717135D01*
X1066930Y717215D02*
X1067010Y717135D01*
X756238Y435622D02*
X756825Y435035D01*
Y428102D02*
Y435035D01*
Y428102D02*
X757109Y427817D01*
X722327Y340360D02*
Y340740D01*
X724916Y343328D01*
Y349622D01*
X727007Y351713D01*
X772109Y359118D02*
X772393Y358834D01*
Y354197D02*
X775661Y350929D01*
X772393Y354197D02*
Y358834D01*
X775661Y349967D02*
Y350929D01*
X727007Y351713D02*
Y359016D01*
X710906Y410967D02*
X720259D01*
X710027Y410088D02*
X710906Y410967D01*
X727007Y359016D02*
X727109Y359118D01*
X439893Y443948D02*
X440271Y444326D01*
X439893Y435438D02*
Y443948D01*
X405111Y354311D02*
X409791Y358991D01*
X405111Y347980D02*
Y354311D01*
X458683Y357463D02*
Y358425D01*
X455177Y361931D02*
X458683Y358425D01*
X454893Y366738D02*
X455177Y366454D01*
Y361931D02*
Y366454D01*
X409791Y358991D02*
Y366636D01*
X393689Y418587D02*
X403043D01*
X392810Y417708D02*
X393689Y418587D01*
X409791Y366636D02*
X409893Y366738D01*
X122895Y448158D02*
X122917Y448136D01*
Y439248D02*
Y448136D01*
X112917Y360702D02*
Y370547D01*
X112895Y360680D02*
X112917Y360702D01*
X742000Y435442D02*
X742054Y435387D01*
Y427872D02*
Y435387D01*
Y427872D02*
X742109Y427817D01*
X732109Y349272D02*
Y359118D01*
X732087Y349250D02*
X732109Y349272D01*
X91353Y386004D02*
X92315D01*
X93709Y387397D01*
X101067D01*
X711057Y376235D02*
X719992D01*
X710790Y376502D02*
X711057Y376235D01*
X719992D02*
X720259Y375967D01*
X393689Y383617D02*
X393689D01*
X393719Y383587D02*
X403043D01*
X393689Y383617D02*
X393719Y383587D01*
X1088898Y356362D02*
Y356732D01*
X1084952Y360678D02*
X1088898Y356732D01*
X1084668Y365725D02*
X1084952Y365441D01*
Y360678D02*
Y365441D01*
X1023465Y417575D02*
X1032818D01*
X1022585Y416696D02*
X1023465Y417575D01*
X1069668Y434425D02*
Y442935D01*
X1070046Y443313D01*
X1391877Y356131D02*
Y356379D01*
X1387776Y360480D02*
X1391877Y356379D01*
X1387492Y365467D02*
X1387776Y365183D01*
Y360480D02*
Y365183D01*
X1340612Y356285D02*
X1342390Y358063D01*
X1337710Y346776D02*
X1340612Y349678D01*
Y356285D01*
X1337710Y346710D02*
Y346776D01*
X1342390Y358063D02*
Y365365D01*
X1342492Y365467D01*
X1325409Y416438D02*
X1326288Y417318D01*
X1335642D01*
X1044668Y355880D02*
Y365725D01*
X1054668Y434425D02*
Y443313D01*
X1054646Y443335D02*
X1054668Y443313D01*
X1347470Y355600D02*
X1347492Y355622D01*
Y365467D01*
X1023494Y382575D02*
X1032818D01*
X1023464Y382605D02*
X1023465D01*
X1023494Y382575D01*
X1327474Y382449D02*
X1335510D01*
X1335642Y382318D01*
X1327342Y382581D02*
X1327474Y382449D01*
X424180Y775462D02*
X433263Y784545D01*
X514665D02*
X543560Y755650D01*
X433263Y784545D02*
X514665D01*
X424180Y757936D02*
Y775462D01*
Y757936D02*
X430276Y751840D01*
X448182D01*
X472500Y741820D02*
Y751519D01*
X472179Y751840D02*
X472500Y751519D01*
X448182Y751840D02*
X472179D01*
X571500Y585724D02*
Y594614D01*
X576326Y599440D01*
X566420Y598932D02*
X566500Y598852D01*
Y585724D02*
Y598852D01*
X824335Y577576D02*
X828399D01*
X829310Y567182D02*
Y576665D01*
X828399Y577576D02*
X829310Y576665D01*
X817362Y555234D02*
X829310Y567182D01*
X817362Y540546D02*
Y555234D01*
X563470Y517030D02*
Y525780D01*
X561500Y527750D02*
X563470Y525780D01*
X561500Y527750D02*
Y538226D01*
X720134Y405843D02*
X720259Y405967D01*
X710027Y400967D02*
X714902Y405843D01*
X720134D01*
X1012784Y533679D02*
X1021358D01*
X1025190Y537510D02*
X1032060D01*
X1021358Y533679D02*
X1025190Y537510D01*
X90834Y412397D02*
X95709Y417272D01*
X100942D01*
X101067Y417397D01*
X402918Y413462D02*
X403043Y413587D01*
X392810Y408587D02*
X397685Y413462D01*
X402918D01*
X1032693Y412450D02*
X1032818Y412575D01*
X1022585Y407575D02*
X1027460Y412450D01*
X1032693D01*
X1330284Y412192D02*
X1335517D01*
X1325409Y407318D02*
X1330284Y412192D01*
X1335517D02*
X1335642Y412318D01*
X874247Y683488D02*
Y698585D01*
X869082Y703750D02*
X874247Y698585D01*
X869082Y703750D02*
Y709584D01*
X869122Y709624D01*
X1106310Y828180D02*
X1150140D01*
X1103619Y825489D02*
X1106310Y828180D01*
X1103619Y808110D02*
Y825489D01*
X1164436Y700031D02*
X1178301D01*
X1183894Y705624D01*
Y711200D01*
X1194981Y722287D01*
X1206754D01*
Y731654D01*
X1206791Y731691D01*
X1101980Y700950D02*
X1106377D01*
X1107297Y700031D01*
X1095161Y707769D02*
X1101980Y700950D01*
X1078510Y707769D02*
X1095161D01*
X1197720Y712990D02*
X1206754D01*
X1178260Y693531D02*
X1197720Y712990D01*
X1164436Y693531D02*
X1178260D01*
X1164436Y680531D02*
X1178737D01*
X1188631Y690426D01*
Y695878D01*
X1196333Y703580D01*
X1206754D01*
X832824Y593576D02*
X833557Y592843D01*
X824335Y593576D02*
X832824D01*
X833557Y592843D02*
X834519D01*
X396494Y631952D02*
X402844Y638302D01*
X396494Y597916D02*
X398272Y596138D01*
X396494Y597916D02*
Y631952D01*
X486410Y676090D02*
X511181Y700862D01*
X536119D02*
X543560Y693420D01*
X511181Y700862D02*
X536119D01*
X486410Y673354D02*
Y676090D01*
X486422Y673342D02*
X493522Y666242D01*
X485042Y674722D02*
X486410Y673354D01*
X485042Y674722D02*
X486410Y676090D01*
Y673354D02*
X486422Y673342D01*
X483882D02*
X486422D01*
X483870Y673354D02*
X483882Y673342D01*
X448622Y638302D02*
X485042Y674722D01*
X493522Y665480D02*
Y666242D01*
X402844Y638302D02*
X448622D01*
X406146Y596138D02*
X409448Y592836D01*
Y584708D02*
Y592836D01*
X398272Y596138D02*
X406146D01*
X479933Y676529D02*
X481076Y677672D01*
X392684Y635254D02*
X401320Y643890D01*
X392684Y596138D02*
X396398Y592425D01*
X479806Y676656D02*
Y678942D01*
X482346D01*
X392684Y596138D02*
Y635254D01*
X472186Y685800D02*
X472948D01*
X482346Y678942D02*
X509031Y705627D01*
X565643D02*
X577850Y693420D01*
X509031Y705627D02*
X565643D01*
X472948Y685800D02*
X479806Y678942D01*
X481076Y677672D02*
X482346Y678942D01*
X479806D02*
X481076Y677672D01*
X447294Y643890D02*
X479933Y676529D01*
X401320Y643890D02*
X447294D01*
X396398Y592425D02*
X403689D01*
X404622Y591492D01*
Y584708D02*
Y591492D01*
X831342Y554990D02*
X834247Y557895D01*
Y567664D01*
X498867Y584972D02*
X508000Y594106D01*
X498867Y566419D02*
Y584972D01*
X471181Y538734D02*
X498867Y566419D01*
X448056Y538734D02*
X471181D01*
X508000Y594106D02*
Y594360D01*
X441706Y542544D02*
X444246D01*
X448056Y538734D01*
X471743Y383587D02*
X472027Y383303D01*
X480096D02*
X481638Y381762D01*
X472027Y383303D02*
X480096D01*
X481638Y381762D02*
X482600D01*
X481694Y393587D02*
X481806Y393700D01*
X471743Y393587D02*
X481694D01*
X554495Y383553D02*
X563133D01*
X554228Y383286D02*
X554495Y383553D01*
X563133D02*
X563400Y383820D01*
X464058Y572262D02*
X464566Y571754D01*
X464058Y591566D02*
X464566Y592074D01*
X464058Y572262D02*
Y591566D01*
X463296Y572262D02*
X463550Y572008D01*
X441960Y572262D02*
X463296D01*
X441706Y572516D02*
X441960Y572262D01*
X869766Y375736D02*
X880576D01*
X869696Y375666D02*
X869766Y375736D01*
X880576D02*
X880900Y376060D01*
X453282Y578466D02*
Y579011D01*
X457026Y582756D01*
Y596980D01*
X461518Y601472D01*
X453282Y578466D02*
X453390Y578358D01*
X461518Y601472D02*
Y621538D01*
X451866Y577596D02*
X452120Y577850D01*
X441706Y577596D02*
X451866D01*
X798104Y375944D02*
X798127Y375920D01*
X788959Y375967D02*
X788983Y375944D01*
X798104D01*
X795918Y381254D02*
X802373D01*
X807707Y375920D01*
X795915Y381251D02*
X795918Y381254D01*
X788959Y380967D02*
X789243Y381251D01*
X795915D01*
X797957Y390993D02*
X797982Y391017D01*
X788959Y390967D02*
X788984Y390993D01*
X797957D01*
X789243Y385684D02*
X801269D01*
X806745Y391160D01*
X788959Y385967D02*
X789243Y385684D01*
X806745Y391160D02*
X807707D01*
X251727Y387617D02*
X263667D01*
X251714Y387604D02*
X251727Y387617D01*
X263667D02*
X263680Y387630D01*
X448310Y595122D02*
X448872D01*
X449244Y595495D02*
Y604692D01*
X450342Y605790D01*
X448872Y595122D02*
X449244Y595495D01*
X434594Y590550D02*
X437896Y593852D01*
X434594Y584708D02*
Y590550D01*
X437896Y593852D02*
X448564D01*
X1497923Y382213D02*
X1498120Y382410D01*
X439166Y602234D02*
Y603450D01*
X441706Y605990D01*
Y622554D01*
X429308Y584914D02*
Y592630D01*
X438912Y602234D01*
X429308Y584914D02*
X429514Y584708D01*
X179330Y387397D02*
X180394Y386334D01*
X169767Y387397D02*
X179330D01*
X180394Y386334D02*
X181356D01*
X185452Y392397D02*
X190500Y387350D01*
X169767Y392397D02*
X185452D01*
X169767Y402397D02*
X170049Y402680D01*
X180329D01*
X180611Y402962D01*
X183322Y397397D02*
X188515Y402590D01*
X169767Y397397D02*
X183322D01*
X1195845Y382793D02*
X1195860Y382808D01*
X1184656Y382778D02*
X1184671Y382793D01*
X424180Y595002D02*
X427990Y598812D01*
X424180Y594360D02*
Y595002D01*
X427990Y608330D02*
X428243Y608077D01*
Y604903D02*
Y608077D01*
X427990Y604650D02*
X428243Y604903D01*
X427990Y598812D02*
Y604650D01*
X424180Y594360D02*
X424688Y593852D01*
Y584708D02*
Y593852D01*
X1413486Y382294D02*
X1413510Y382270D01*
X1404366Y382294D02*
X1413486D01*
X1404342Y382318D02*
X1404366Y382294D01*
X1414128Y397169D02*
X1414276Y397020D01*
X1404342Y397318D02*
X1404491Y397169D01*
X1414128D01*
X1101518Y382575D02*
X1101542Y382551D01*
X1110662D01*
X1110686Y382528D01*
X1101518Y387575D02*
X1101802Y387859D01*
X1108474D01*
X1108477Y387862D01*
X1114932D01*
X1120266Y382528D01*
X1101518Y397575D02*
X1110317D01*
X1110510Y397768D01*
X1101518Y392575D02*
X1101659Y392434D01*
X1113970D01*
X1119304Y397768D01*
X1120266D01*
X375582Y764540D02*
X396748D01*
X401320Y717804D02*
Y759968D01*
X396748Y764540D02*
X401320Y759968D01*
X369570Y706120D02*
X373126Y709676D01*
X369570Y685800D02*
Y706120D01*
X373126Y709676D02*
X393192D01*
X401320Y717804D01*
X369570Y685800D02*
X371960Y683410D01*
X382270D01*
X465542Y732322D02*
X472500D01*
X448182Y739140D02*
X458724D01*
X465542Y732322D01*
X472500Y720344D02*
Y732322D01*
Y720344D02*
X476056Y716788D01*
X565383D01*
X578558Y729963D01*
X566145Y742950D02*
X578558Y755363D01*
X524256Y742950D02*
X566145D01*
X515687Y751519D02*
X524256Y742950D01*
X484000Y751519D02*
X515687D01*
X585703Y711708D02*
X603958Y729963D01*
X630387D01*
X454163Y711708D02*
X585703D01*
X630387Y729963D02*
X639718Y720632D01*
X448182Y717689D02*
X454163Y711708D01*
X639718Y686162D02*
Y720632D01*
X448182Y717689D02*
Y726440D01*
X639718Y686162D02*
X655320Y670560D01*
X826767Y540510D02*
X836332D01*
X838247Y542425D02*
Y567664D01*
X836332Y540510D02*
X838247Y542425D01*
X522478Y528066D02*
X523717Y526827D01*
X537749D01*
X540686Y529764D01*
Y538226D01*
X383286Y554482D02*
X384222D01*
X386254Y552450D02*
X392430D01*
X384222Y554482D02*
X386254Y552450D01*
X784280Y793700D02*
Y805300D01*
X783780Y805800D02*
X784280Y805300D01*
X759280Y793700D02*
Y805300D01*
X759780Y805800D01*
X441743Y547661D02*
X441761Y547642D01*
X450832D01*
X450850Y547661D01*
X441706Y547624D02*
X441743Y547661D01*
X540686Y538226D02*
Y543974D01*
X543687Y546975D01*
X547751D01*
X551434Y525780D02*
X556500Y530846D01*
Y538226D01*
X366854Y616966D02*
X375920Y607900D01*
Y607314D02*
Y607900D01*
X340106Y616966D02*
X366854D01*
X334264Y611124D02*
X340106Y616966D01*
X334264Y591312D02*
Y611124D01*
X385518Y562610D02*
X392430D01*
X383740Y564388D02*
X385518Y562610D01*
X382778Y564388D02*
X383740D01*
X356674Y429086D02*
X368408D01*
X368981Y429660D01*
X397288Y428587D02*
X403043D01*
X379481Y416160D02*
X379730Y415911D01*
Y403637D02*
Y415911D01*
X386409Y423587D02*
X403043D01*
X379481Y416160D02*
Y416660D01*
X386409Y423587D01*
X392224Y547418D02*
X392430Y547624D01*
X379480Y547418D02*
X392224D01*
X377370Y549528D02*
X379480Y547418D01*
X365925Y549607D02*
Y564165D01*
X365846Y549528D02*
X365925Y549607D01*
X365846Y549528D02*
X377370D01*
X686197Y422607D02*
Y429911D01*
X688716Y432430D02*
X703042D01*
X686197Y429911D02*
X688716Y432430D01*
X685630Y422040D02*
X686197Y422607D01*
X703042Y432430D02*
X714504Y420967D01*
X674113Y422059D02*
X674133Y422040D01*
X685630D01*
X714504Y420967D02*
X720259D01*
X696697Y408540D02*
X696946Y408291D01*
Y396017D02*
Y408291D01*
X703625Y415967D02*
X720259D01*
X696697Y408540D02*
Y409040D01*
X703625Y415967D01*
X380746Y523240D02*
Y540766D01*
X349504Y515620D02*
X373126D01*
X380746Y523240D01*
Y540766D02*
X382524Y542544D01*
X392430D01*
X344846Y520278D02*
Y533528D01*
Y520278D02*
X349504Y515620D01*
X328453Y533489D02*
X328492Y533528D01*
X344846D01*
X54698Y432896D02*
X66431D01*
X67005Y433470D01*
Y440336D01*
X69644Y442976D01*
X84733D01*
X95312Y432397D01*
X101067D01*
X77754Y407447D02*
Y419721D01*
X77505Y419970D02*
Y420470D01*
Y419970D02*
X77754Y419721D01*
X77505Y420470D02*
X84432Y427397D01*
X101067D01*
X1027063Y427575D02*
X1032818D01*
X1017501Y437138D02*
X1027063Y427575D01*
X1000915Y437138D02*
X1017501D01*
X998756Y434979D02*
X1000915Y437138D01*
X998756Y428648D02*
Y434979D01*
X986449Y428074D02*
X998183D01*
X998756Y428648D01*
X1016183Y422575D02*
X1032818D01*
X1009256Y415648D02*
X1016183Y422575D01*
X1009256Y415148D02*
Y415648D01*
Y415148D02*
X1009505Y414899D01*
Y402625D02*
Y414899D01*
X1303369Y436880D02*
X1320325D01*
X1301580Y428390D02*
Y435091D01*
X1303369Y436880D01*
X1301007Y427817D02*
X1301580Y428390D01*
X1320325Y436880D02*
X1329887Y427318D01*
X1335642D01*
X1289273Y427817D02*
X1301007D01*
X1312080Y415390D02*
X1319008Y422318D01*
X1312080Y414890D02*
Y415390D01*
X1319008Y422318D02*
X1335642D01*
X1312329Y402367D02*
Y414641D01*
X1312080Y414890D02*
X1312329Y414641D01*
X791120Y579600D02*
X792310Y580790D01*
X779920Y579600D02*
X791120D01*
X792310Y580790D02*
Y587332D01*
X794554Y589576D02*
X824335D01*
X792310Y587332D02*
X794554Y589576D01*
X743780Y805800D02*
X744280Y805300D01*
Y793700D02*
Y805300D01*
X711568Y777380D02*
Y787428D01*
X358648Y627380D02*
Y634746D01*
X379148Y624766D02*
Y633630D01*
X500349Y526827D02*
X510381D01*
X799280Y793700D02*
Y805300D01*
X799780Y805800D01*
X338148Y624512D02*
Y633630D01*
X1084653Y434440D02*
X1084668Y434425D01*
X1084653Y434440D02*
Y443321D01*
X1084638Y443335D02*
X1084653Y443321D01*
X454878Y435452D02*
X454893Y435438D01*
X454878Y435452D02*
Y444333D01*
X454863Y444348D02*
X454878Y444333D01*
X558388Y562604D02*
Y564339D01*
X547751Y566975D02*
X555752D01*
X558388Y564339D01*
X404444Y570306D02*
Y572568D01*
X401828Y567690D02*
X404444Y570306D01*
X392430Y557530D02*
X401828D01*
X429694Y560229D02*
X432076Y562610D01*
X441706D01*
X107917Y439248D02*
X107933Y439264D01*
Y448107D02*
X107950Y448124D01*
X107933Y439264D02*
Y448107D01*
X392430Y567690D02*
X401828D01*
Y557530D02*
X404330Y560032D01*
X152887Y448158D02*
X152902Y448143D01*
Y439262D02*
Y448143D01*
Y439262D02*
X152917Y439248D01*
X727109Y427817D02*
Y430718D01*
X772041Y427886D02*
Y439121D01*
Y427886D02*
X772109Y427817D01*
X771972Y439189D02*
X772041Y439121D01*
X403024Y443486D02*
X403704Y442806D01*
X409609Y435722D02*
Y440560D01*
X407364Y442806D02*
X409609Y440560D01*
X403704Y442806D02*
X407364D01*
X409609Y435722D02*
X409893Y435438D01*
X1033505Y443488D02*
X1039668Y437325D01*
X1033133Y443488D02*
X1033505D01*
X1039668Y434425D02*
Y437325D01*
X1340002Y443078D02*
X1342492Y440588D01*
X1336109Y443078D02*
X1340002D01*
X1342492Y434168D02*
Y440588D01*
X1335957Y443230D02*
X1336109Y443078D01*
X404330Y560032D02*
Y560457D01*
X414871Y356870D02*
X414893Y356892D01*
Y366738D01*
X463550Y642620D02*
X506942D01*
X511556Y622046D02*
Y638007D01*
X506942Y642620D02*
X511556Y638007D01*
X422656Y628142D02*
X427228Y632714D01*
X453644D01*
X422148Y628142D02*
X422656D01*
X453644Y632714D02*
X463550Y642620D01*
X379476Y648970D02*
X379666Y649160D01*
X393518D01*
X422656Y612654D02*
Y628142D01*
X414348Y603595D02*
Y604345D01*
X422656Y612654D01*
X1078521Y698478D02*
X1091643D01*
X1096591Y693531D02*
X1107297D01*
X1091643Y698478D02*
X1096591Y693531D01*
X414528Y584708D02*
Y603415D01*
X414348Y603595D02*
X414528Y603415D01*
X405000Y603595D02*
X414348D01*
X535940Y546975D02*
X540686Y551721D01*
X547497D01*
X547751Y551975D01*
X1103271Y763340D02*
X1103619Y763688D01*
Y781610D01*
X791657Y535166D02*
Y542430D01*
X770254Y534330D02*
X790821D01*
X791657Y535166D01*
X878247Y709172D02*
X878700Y709624D01*
X888331Y702911D02*
Y709584D01*
X888371Y709624D01*
X882247Y696827D02*
X888331Y702911D01*
X882247Y683488D02*
Y696827D01*
X878247Y683488D02*
Y709172D01*
D108*
X463045Y330577D02*
X463207Y330739D01*
X462883Y321791D02*
X463045Y321953D01*
Y330577D01*
X1198416Y417024D02*
X1207596D01*
X1207640Y416980D01*
X1198372Y417068D02*
X1198416Y417024D01*
X986627Y416863D02*
X986672Y416909D01*
X977336Y416818D02*
X977382Y416863D01*
X986627D01*
X255099Y423247D02*
X275377D01*
X255016Y423164D02*
X255099Y423247D01*
X275377D02*
X275460Y423330D01*
X346197Y416852D02*
X346537Y417192D01*
X356279D01*
X1012784Y524510D02*
X1021358D01*
X1032060D01*
X1075406Y743059D02*
Y751840D01*
Y743059D02*
X1075446Y743018D01*
X1093964Y743096D02*
Y751877D01*
Y743096D02*
X1094005Y743055D01*
X750696Y555160D02*
X750866Y554990D01*
X727662Y554815D02*
X737695D01*
X727487Y554641D02*
X727662Y554815D01*
X737695D02*
X737870Y554990D01*
X738040Y555160D01*
X750696D01*
X750866Y554990D02*
X751206Y555330D01*
X1094740Y534670D02*
X1106170D01*
X878188Y798497D02*
X878229Y798537D01*
X887010D01*
X1218376Y731605D02*
X1226989D01*
X1227074Y731520D01*
X1218291Y731691D02*
X1218376Y731605D01*
X1188326Y504063D02*
Y515480D01*
X869122Y721124D02*
Y729906D01*
X869082Y729946D02*
X869122Y729906D01*
X484000Y741820D02*
X484140Y741680D01*
X484210Y741750D01*
X493960D01*
X494030Y741680D01*
X462545Y764275D02*
X472188D01*
X472452Y764011D01*
X448182Y764540D02*
X462280D01*
X462545Y764275D01*
X878700Y721124D02*
Y729906D01*
X878659Y729946D02*
X878700Y729906D01*
X888371Y721124D02*
Y729906D01*
X888331Y729946D02*
X888371Y729906D01*
X713470Y516890D02*
X723900D01*
X713330Y517030D02*
X713470Y516890D01*
X630284Y543466D02*
X630330Y543420D01*
X620875Y543466D02*
X630284D01*
X620829Y543512D02*
X620875Y543466D01*
X329138Y730042D02*
X338609D01*
X338817Y730250D01*
X339234Y729834D01*
X328930Y730250D02*
X329138Y730042D01*
X878229Y807923D02*
X887010D01*
X867006Y807876D02*
X878182D01*
X878188Y807882D01*
X878229Y807923D01*
X867000Y807870D02*
X867006Y807876D01*
X411591Y689499D02*
X421878D01*
X421989Y689387D01*
X401865Y689815D02*
X411275D01*
X411480Y689610D01*
X411591Y689499D01*
X401770Y689910D02*
X401865Y689815D01*
X770254Y555330D02*
X770890Y554694D01*
Y546100D02*
Y554694D01*
X528900Y383610D02*
X528970Y383540D01*
X1463620Y382340D02*
X1463690Y382270D01*
X1475675Y417175D02*
X1475740Y417110D01*
X1159880Y382808D02*
X1160020Y382948D01*
X1172145Y417175D02*
X1172210Y417110D01*
X845166Y376002D02*
X845224Y375944D01*
X856840Y412180D02*
X856980Y412320D01*
X239620Y423610D02*
X239760Y423750D01*
X227910Y387420D02*
X227980Y387350D01*
X551434Y525299D02*
X551970Y524763D01*
X551434Y525299D02*
Y525780D01*
X551970Y517030D02*
Y524763D01*
X836930Y801370D02*
X847500D01*
X217240Y387420D02*
X227910D01*
X217170Y387350D02*
X217240Y387420D01*
X227980Y387350D02*
X228120Y387490D01*
X239760Y423750D02*
Y432930D01*
X239620Y433070D02*
X239760Y432930D01*
X239620Y423610D02*
X239900Y423330D01*
X519430Y383540D02*
X519500Y383610D01*
X528900D01*
X528970Y383540D02*
X529110Y383680D01*
X540890Y419520D02*
Y429260D01*
X856980Y412320D02*
Y421500D01*
X856840Y421640D02*
X856980Y421500D01*
X856840Y412180D02*
X857120Y411900D01*
X834390Y375944D02*
X834448Y376002D01*
X845166D01*
X845224Y375944D02*
X845340Y376060D01*
X1150900Y382948D02*
X1151040Y382808D01*
X1159880D01*
X1160020Y382948D02*
X1160300Y382668D01*
X1172145Y417175D02*
Y426655D01*
X1172210Y426720D01*
X1172080Y416980D02*
X1172210Y417110D01*
X1454150Y382270D02*
X1454220Y382340D01*
X1463620D01*
X1463690Y382270D02*
X1463830Y382410D01*
X1475675Y426655D02*
X1475740Y426720D01*
X1475675Y417175D02*
Y426655D01*
X1475610Y416980D02*
X1475740Y417110D01*
X826767Y519775D02*
Y529010D01*
X742533Y519775D02*
X826767D01*
X730758Y508000D02*
X742533Y519775D01*
X543052Y508000D02*
X730758D01*
X540766Y510286D02*
X543052Y508000D01*
X540766Y510286D02*
Y516128D01*
X378300Y604520D02*
X378460Y604360D01*
Y591820D02*
Y604360D01*
X736888Y754798D02*
X737108Y755018D01*
Y767588D01*
X414020Y615423D02*
X414348Y615095D01*
X414020Y615423D02*
X414184Y615587D01*
Y624676D01*
X414020Y624840D02*
X414184Y624676D01*
X1058240Y688883D02*
X1067021D01*
X1058199Y688842D02*
X1058240Y688883D01*
X1361700Y306360D02*
Y318256D01*
Y306360D02*
X1361960Y306100D01*
X1361440Y318516D02*
X1361700Y318256D01*
X484000Y732322D02*
X484468Y732790D01*
X484702Y732556D01*
X493796D01*
X494030Y732790D01*
X379481Y429660D02*
X388201D01*
X1014383Y549366D02*
X1025190D01*
X1231900Y95250D02*
X1243510D01*
X1244360Y96100D01*
X1301205Y402742D02*
Y414515D01*
X1301580Y414890D01*
X1289298Y402342D02*
X1300755D01*
X1300780Y402318D01*
X1300829Y402367D01*
X1301205Y402742D01*
X1289273Y402318D02*
X1289298Y402342D01*
X898511Y807923D02*
X907292D01*
X907333Y807963D01*
X997195Y402471D02*
X997299Y402367D01*
X986553Y402471D02*
X997195D01*
X997299Y402367D02*
X997674Y402742D01*
Y414515D01*
X986449Y402575D02*
X986553Y402471D01*
X997674Y414515D02*
X998050Y414890D01*
X725340Y306100D02*
Y319221D01*
X727456Y321337D01*
Y321818D01*
X937427Y521970D02*
Y531205D01*
X1260094Y735193D02*
X1260660Y734626D01*
Y734228D02*
Y734626D01*
X594893Y95250D02*
X606502D01*
X607352Y96100D01*
X278130Y95250D02*
X289740D01*
X290590Y96100D01*
X1282210Y84100D02*
X1282490Y83820D01*
X1294480D01*
X1167556Y579034D02*
Y591488D01*
X375582Y726440D02*
X389890D01*
X574750Y419520D02*
X584200D01*
X928097Y521970D02*
Y531205D01*
X1057910Y544170D02*
X1072388D01*
X1054660Y537510D02*
X1057910Y540760D01*
Y544170D01*
X1051560Y537510D02*
X1054660D01*
X685822Y396392D02*
Y408164D01*
X686197Y408540D01*
X673915Y395992D02*
X685372D01*
X685397Y395967D01*
X685822Y396392D01*
X673890Y395967D02*
X673915Y395992D01*
X1240644Y734228D02*
X1241044Y734628D01*
X645590Y84100D02*
X645870Y83820D01*
X657860D01*
X1044110Y306100D02*
Y318951D01*
X1046988Y321829D01*
Y322072D01*
X1084671Y743096D02*
Y751877D01*
Y743096D02*
X1084712Y743055D01*
X460787Y545681D02*
X467651D01*
X470386Y548415D01*
X470705D01*
X1280282Y416438D02*
X1288908D01*
X1289030Y416560D01*
X1289273Y416316D01*
X1280160Y416560D02*
X1280282Y416438D01*
X918632Y521970D02*
Y531205D01*
X840495Y794775D02*
X847405D01*
X847500Y794870D01*
X836930Y791210D02*
X840495Y794775D01*
X407103Y306100D02*
Y318737D01*
X409194Y320829D01*
Y321310D01*
X946668Y522007D02*
Y531242D01*
X806341Y529191D02*
X817217D01*
X817362Y529047D01*
X806196Y529336D02*
X806341Y529191D01*
X1218254Y703580D02*
X1226867D01*
X1226952Y703495D01*
X1009256Y428648D02*
X1017976D01*
X964360Y84100D02*
X964640Y83820D01*
X976630D01*
X836332Y519775D02*
Y529010D01*
X329269Y748369D02*
X338217D01*
X338556Y748030D01*
X339234Y748708D01*
X328930Y748030D02*
X329269Y748369D01*
X1112520Y743059D02*
Y751840D01*
Y743059D02*
X1112561Y743018D01*
X144440Y321650D02*
X144780Y321310D01*
X1164436Y687031D02*
X1164466Y687061D01*
X1175004D01*
X369570Y676910D02*
X382270D01*
X358140Y591820D02*
Y604360D01*
X358300Y604520D01*
X356279Y417192D02*
X356674Y417587D01*
X54722Y407422D02*
X66179D01*
X66204Y407397D01*
X66629Y407822D01*
Y419594D01*
X54698Y407397D02*
X54722Y407422D01*
X66629Y419594D02*
X67005Y419970D01*
X327632Y83820D02*
X339622D01*
X327352Y84100D02*
X327632Y83820D01*
X620876Y594730D02*
X630480D01*
X630710Y594500D01*
X620646Y594959D02*
X620876Y594730D01*
X405000Y615095D02*
X405130Y615225D01*
X405065Y615291D02*
X405130Y615225D01*
X405065Y615291D02*
Y624775D01*
X405130Y624840D01*
X510888Y546911D02*
Y554831D01*
X510729Y546752D02*
X510888Y546911D01*
Y554831D02*
X511048Y554990D01*
X1103271Y743059D02*
Y751840D01*
Y743059D02*
X1103311Y743018D01*
X45706Y421518D02*
X54333D01*
X54454Y421640D01*
X54698Y421396D01*
X45585Y421640D02*
X45706Y421518D01*
X10870Y83820D02*
X22860D01*
X10590Y84100D02*
X10870Y83820D01*
X1561360Y95250D02*
X1562210Y96100D01*
X1549750Y95250D02*
X1561360D01*
X1167556Y549988D02*
Y560578D01*
X1217900Y764540D02*
X1228090D01*
X892680Y410630D02*
X893100Y410210D01*
X893310Y410420D01*
X902760D01*
X902970Y410210D01*
X713160Y618420D02*
X723830D01*
X712950Y618350D02*
X713090Y618490D01*
X713160Y618420D01*
X723830D02*
X723900Y618490D01*
X696697Y422040D02*
X705417D01*
X673705Y410967D02*
X674113Y410559D01*
X673501Y410763D02*
X673705Y410967D01*
X664414Y410763D02*
X673501D01*
X664210Y410967D02*
X664414Y410763D01*
X913130Y95250D02*
X924740D01*
X925590Y96100D01*
X706882Y754888D02*
X719298D01*
X719388Y754798D01*
X408940Y665480D02*
X419129D01*
X90340Y306100D02*
Y318713D01*
X92964Y321337D01*
Y321818D01*
X1510750Y417830D02*
X1521460D01*
X1509900Y416980D02*
X1510750Y417830D01*
X1218254Y722287D02*
X1226867D01*
X1226952Y722202D01*
X1136121Y680531D02*
X1142620Y674031D01*
X1218254Y712990D02*
X1226867D01*
X1226952Y712905D01*
X1078430Y717215D02*
X1078511Y717296D01*
X1087333Y717255D02*
X1087374Y717296D01*
X1078552Y717255D02*
X1087333D01*
X1058240Y698478D02*
X1067021D01*
X1058199Y698438D02*
X1058240Y698478D01*
X1312080Y428390D02*
X1320800D01*
X368156Y403612D02*
X368181Y403587D01*
X356699Y403612D02*
X368156D01*
X356674Y403587D02*
X356699Y403612D01*
X368605Y404012D02*
Y415784D01*
X368981Y416160D01*
X157340Y306100D02*
Y318429D01*
X154940Y320829D02*
Y321310D01*
Y320829D02*
X157340Y318429D01*
X1178973Y504063D02*
Y515480D01*
X782385Y553580D02*
X791620D01*
X802810Y580790D02*
X803340Y581320D01*
X810936D02*
X811276Y581660D01*
X803340Y581320D02*
X810936D01*
X769825Y567895D02*
X779715D01*
X769620Y567690D02*
X769825Y567895D01*
X779715D02*
X779920Y568100D01*
X791620Y553580D02*
X791965Y553925D01*
Y566945D01*
X792310Y567290D01*
X365846Y533528D02*
X366776Y532598D01*
Y522478D02*
Y532598D01*
X328453Y544989D02*
X328676Y545212D01*
X328564Y555387D02*
X328676Y555498D01*
X328564Y545323D02*
Y555387D01*
X354202Y564388D02*
X354425Y564165D01*
X343916Y564388D02*
X344027Y564277D01*
X354090D01*
X343916Y550458D02*
Y564388D01*
Y550458D02*
X344846Y549528D01*
X433489Y689387D02*
X433712Y689610D01*
X443119Y689499D02*
X443230Y689610D01*
X433824Y689499D02*
X443119D01*
X483952Y764011D02*
X484482Y764540D01*
X493765Y764275D02*
X494030Y764540D01*
X484746Y764275D02*
X493765D01*
X77505Y433470D02*
X77640D01*
X86225D01*
X727487Y543141D02*
X727697Y543350D01*
X737406D02*
X737616Y543560D01*
X727697Y543350D02*
X737406D01*
X737616Y537210D02*
X740496Y534330D01*
X751206D01*
X737616Y537210D02*
Y543560D01*
X1001276Y515120D02*
Y524502D01*
X1001284Y524510D01*
X1001268Y515112D02*
X1001276Y515120D01*
X471510Y308692D02*
Y321478D01*
Y308692D02*
X474103Y306100D01*
X471170Y321818D02*
X471510Y321478D01*
X368181Y403587D02*
X368605Y404012D01*
X328564Y545323D02*
X328676Y545212D01*
X354090Y564277D02*
X354202Y564388D01*
X433712Y689610D02*
X433824Y689499D01*
X484482Y764540D02*
X484746Y764275D01*
X1078511Y717296D02*
X1078552Y717255D01*
X1142620Y674031D02*
X1164436D01*
X522341Y546864D02*
X535829D01*
X522229Y546752D02*
X522341Y546864D01*
X535829D02*
X535940Y546975D01*
D109*
X1364488Y344424D02*
X1365041Y343871D01*
X1369202Y339710D01*
Y337430D02*
Y339710D01*
X1362502Y330729D02*
X1369202Y337430D01*
X1362502Y328449D02*
Y330729D01*
Y328449D02*
X1364022Y326929D01*
X1366303D01*
X1375111Y335737D01*
X1377391D01*
X1378911Y334217D01*
Y331937D02*
Y334217D01*
X1370103Y323129D02*
X1378911Y331937D01*
X1370103Y320848D02*
Y323129D01*
Y320848D02*
X1371623Y319328D01*
X1373904D01*
X1380603Y326028D01*
X1382884D01*
X1382884Y326028D01*
Y326028D02*
X1383437Y325475D01*
X1361778Y445658D02*
X1363218Y444218D01*
Y437134D02*
Y444218D01*
X1361778Y445658D02*
Y449558D01*
X856338Y340256D02*
X856891Y339703D01*
X850324Y346270D02*
X856338Y340256D01*
X850324Y346270D02*
Y348550D01*
X856454Y354680D01*
Y356960D01*
X854934Y358480D02*
X856454Y356960D01*
X852654Y358480D02*
X854934D01*
X845893Y351720D02*
X852654Y358480D01*
X843613Y351720D02*
X845893D01*
X842093Y353240D02*
X843613Y351720D01*
X842093Y353240D02*
Y355520D01*
X848853Y362281D01*
Y364561D01*
X847333Y366081D02*
X848853Y364561D01*
X845053Y366081D02*
X847333D01*
X838923Y359951D02*
X845053Y366081D01*
X836643Y359951D02*
X838923D01*
X836643Y359952D02*
X836643Y359951D01*
X836089Y360505D02*
X836643Y359952D01*
X718845Y330814D02*
X722588D01*
X717232Y329202D02*
X718845Y330814D01*
X717232Y319219D02*
Y329202D01*
X715620Y317606D02*
X717232Y319219D01*
X713470Y317606D02*
X715620D01*
X711858Y319219D02*
X713470Y317606D01*
X711858Y319219D02*
Y329202D01*
X710245Y330814D02*
X711858Y329202D01*
X704088Y330814D02*
X710245D01*
X747109Y335559D02*
Y340337D01*
Y335559D02*
X748722Y333946D01*
X758197D01*
X759809Y332334D01*
Y330184D02*
Y332334D01*
X758197Y328572D02*
X759809Y330184D01*
X738410Y328572D02*
X758197D01*
X736798Y326959D02*
X738410Y328572D01*
X736798Y324809D02*
Y326959D01*
Y324809D02*
X738410Y323197D01*
X748728D01*
X750340Y321584D01*
Y320802D02*
Y321584D01*
X429893Y336575D02*
Y339992D01*
Y336575D02*
X431505Y334962D01*
X440981D01*
X442593Y333350D01*
Y331200D02*
Y333350D01*
X440981Y329588D02*
X442593Y331200D01*
X418805Y329588D02*
X440981D01*
X417193Y327975D02*
X418805Y329588D01*
X417193Y325825D02*
Y327975D01*
Y325825D02*
X418805Y324213D01*
X430490D01*
X432103Y322600D01*
Y321818D02*
Y322600D01*
X118097Y336029D02*
X120142Y338074D01*
X118097Y333749D02*
Y336029D01*
Y333749D02*
X124797Y327049D01*
Y324768D02*
Y327049D01*
X123277Y323248D02*
X124797Y324768D01*
X120996Y323248D02*
X123277D01*
X111241Y333003D02*
X120996Y323248D01*
X108961Y333003D02*
X111241D01*
X107441Y331483D02*
X108961Y333003D01*
X107441Y329203D02*
Y331483D01*
Y329203D02*
X115570Y321074D01*
Y319967D02*
Y321074D01*
X221316Y344850D02*
X221869Y344297D01*
X217924Y348242D02*
X221316Y344850D01*
X217924Y348242D02*
Y350522D01*
X224624Y357223D01*
Y359503D01*
X223104Y361023D02*
X224624Y359503D01*
X220823Y361023D02*
X223104D01*
X213929Y354129D02*
X220823Y361023D01*
X211649Y354129D02*
X213929D01*
X210128Y355649D02*
X211649Y354129D01*
X210128Y355649D02*
Y357929D01*
X217023Y364823D01*
Y367104D01*
X215503Y368624D02*
X217023Y367104D01*
X213222Y368624D02*
X215503D01*
X206328Y361730D02*
X213222Y368624D01*
X204048Y361730D02*
X206328D01*
X202528Y363250D02*
X204048Y361730D01*
X202528Y363250D02*
Y365530D01*
X209422Y372424D01*
Y374705D01*
X207902Y376225D02*
X209422Y374705D01*
X205621Y376225D02*
X207902D01*
X198922Y369525D02*
X205621Y376225D01*
X196641Y369525D02*
X198922D01*
X196641Y369525D02*
X196641Y369525D01*
X196088Y370078D02*
X196641Y369525D01*
X1061718Y448858D02*
Y451481D01*
X1064016Y453779D02*
Y454529D01*
X1063274Y438719D02*
Y447301D01*
X1061718Y448858D02*
X1063274Y447301D01*
X1061718Y451481D02*
X1064016Y453779D01*
X1063274Y438719D02*
X1064150Y437843D01*
Y435974D02*
Y437843D01*
Y435974D02*
X1064260Y435864D01*
X1059746Y436684D02*
Y446134D01*
X1057225Y448656D02*
Y450695D01*
Y448656D02*
X1059746Y446134D01*
X1056879Y451040D02*
X1057225Y450695D01*
X1054661Y454579D02*
X1056879Y452361D01*
Y451040D02*
Y452361D01*
X1366450Y448808D02*
X1366632D01*
X1365533Y447891D02*
X1366450Y448808D01*
X1366307Y438253D02*
Y445822D01*
X1365533Y446595D02*
Y447891D01*
X1367492Y434168D02*
Y437067D01*
X1368849Y451026D02*
Y451776D01*
X1366307Y438253D02*
X1367492Y437067D01*
X1366632Y448808D02*
X1368849Y451026D01*
X1365533Y446595D02*
X1366307Y445822D01*
X1359561Y451776D02*
X1361778Y449558D01*
X1039668Y358186D02*
Y365725D01*
X1037590Y356108D02*
X1039668Y358186D01*
X1037590Y349896D02*
Y356108D01*
X1034886Y347192D02*
X1037590Y349896D01*
X1034886Y346968D02*
Y347192D01*
X1420368Y423382D02*
X1423528Y420222D01*
X914247Y557219D02*
Y567664D01*
Y557219D02*
X918632Y552834D01*
Y542705D02*
Y552834D01*
X918247Y557587D02*
X925880Y549954D01*
Y544922D02*
X928097Y542705D01*
X918247Y557587D02*
Y567664D01*
X925880Y544922D02*
Y549954D01*
X922247Y559401D02*
X929354Y552295D01*
X936510D02*
X937427Y551378D01*
X929354Y552295D02*
X936510D01*
X937427Y542705D02*
Y551378D01*
X922247Y559401D02*
Y567664D01*
X926481Y559535D02*
Y567430D01*
Y559535D02*
X928712Y557304D01*
X941140D01*
X926247Y567664D02*
X926481Y567430D01*
X946668Y542742D02*
Y551776D01*
X941140Y557304D02*
X946668Y551776D01*
X485240Y388587D02*
X490147Y383680D01*
X471743Y388587D02*
X485240D01*
X490147Y383680D02*
X491236D01*
X471743Y378587D02*
X478154D01*
X486283Y370459D01*
X561213D01*
X551688Y327660D02*
X561594D01*
X565404Y331470D01*
Y366268D01*
X561213Y370459D02*
X565404Y366268D01*
X471743Y373587D02*
X474643D01*
X475161Y372945D02*
Y373070D01*
X484433Y363673D02*
X555553D01*
X474643Y373587D02*
X475161Y373070D01*
Y372945D02*
X484433Y363673D01*
X555498Y336296D02*
X557784Y338582D01*
X546100Y336296D02*
X555498D01*
X557784Y338582D02*
Y361442D01*
X543306Y325010D02*
Y333502D01*
X546100Y336296D01*
X555553Y363673D02*
X557784Y361442D01*
X543306Y325010D02*
X548022Y320294D01*
X568198D01*
X486136Y398800D02*
X491236Y393700D01*
X471956Y398800D02*
X486136D01*
X471743Y398587D02*
X471956Y398800D01*
X429893Y339992D02*
Y366738D01*
X432103Y306100D02*
Y321818D01*
X434893Y353523D02*
X445516Y342900D01*
X490592D02*
X507103Y326390D01*
X445516Y342900D02*
X490592D01*
X507103Y306100D02*
Y326390D01*
X434893Y353523D02*
Y366738D01*
X386080Y335788D02*
X421894D01*
X382853Y306100D02*
Y332561D01*
X386080Y335788D01*
X421894D02*
X424893Y338787D01*
Y366738D01*
X419893Y360395D02*
X421640Y358648D01*
X419893Y360395D02*
Y366738D01*
X421640Y346202D02*
Y358648D01*
X416306Y340868D02*
X421640Y346202D01*
X365853Y332324D02*
X374396Y340868D01*
X416306D01*
X365853Y324818D02*
Y332324D01*
Y306100D02*
Y324104D01*
X448584Y353294D02*
X450342Y351536D01*
X445242Y356281D02*
X448229Y353294D01*
X444893Y356985D02*
X445242Y356636D01*
X448229Y353294D02*
X448584D01*
X445242Y356281D02*
Y356636D01*
X543052Y308102D02*
X545054Y306100D01*
X510286Y351536D02*
X543052Y318770D01*
Y308102D02*
Y318770D01*
X545054Y306100D02*
X557103D01*
X450342Y351536D02*
X510286D01*
X444893Y356985D02*
Y366738D01*
X508508Y347218D02*
X532103Y323624D01*
X504698Y347218D02*
X508508D01*
X532103Y306100D02*
Y323624D01*
X478155Y347218D02*
X504698D01*
X447040D02*
X478155D01*
X439893Y354365D02*
X447040Y347218D01*
X439893Y354365D02*
Y366738D01*
X796015Y370820D02*
X825774D01*
X836089Y360505D01*
X788959Y370967D02*
X795867D01*
X796015Y370820D01*
X856891Y339703D02*
X870966Y325628D01*
X788959Y365967D02*
X819451D01*
X865632Y319786D01*
X886968D01*
X747109Y340337D02*
Y359118D01*
X750340Y306100D02*
Y320802D01*
X807801Y337739D02*
X825340Y320200D01*
X759287Y337739D02*
X807801D01*
X752109Y344917D02*
X759287Y337739D01*
X825340Y306100D02*
Y320200D01*
X752109Y344917D02*
Y359118D01*
X722588Y330814D02*
X734674D01*
X703940D02*
X704088D01*
X701090Y327964D02*
X703940Y330814D01*
X701090Y306100D02*
Y327964D01*
X734674Y330814D02*
X742109Y338249D01*
Y359118D01*
X739021Y342301D02*
Y350893D01*
X737109Y352805D02*
Y359118D01*
Y352805D02*
X739021Y350893D01*
X731492Y334772D02*
X739021Y342301D01*
X690880Y334772D02*
X731492D01*
X684090Y327982D02*
X690880Y334772D01*
X684090Y306100D02*
Y327982D01*
X762009Y350156D02*
X762109Y350056D01*
X762009Y350156D02*
Y359017D01*
X762109Y359118D01*
Y348887D02*
Y350056D01*
Y348887D02*
X767080Y343916D01*
X835152D01*
X860044Y319024D01*
Y310896D02*
Y319024D01*
Y310896D02*
X864840Y306100D01*
X875340D01*
X757109Y347537D02*
X763819Y340827D01*
X832399D01*
X850340Y322886D01*
Y306100D02*
Y322886D01*
X757109Y347537D02*
Y359118D01*
X176148Y382397D02*
X177800Y380746D01*
X169767Y382397D02*
X176148D01*
X177800Y380746D02*
X213106D01*
X220218Y373634D01*
X254254D02*
X257302Y370586D01*
X220218Y373634D02*
X254254D01*
X257302Y330708D02*
Y370586D01*
X235966Y328168D02*
X254762D01*
X257302Y330708D01*
X221869Y344297D02*
X230172Y335994D01*
X188769Y377397D02*
X196088Y370078D01*
X230172Y323544D02*
Y335994D01*
X169767Y377397D02*
X188769D01*
X233676Y320040D02*
X251968D01*
X230172Y323544D02*
X233676Y320040D01*
X120142Y338074D02*
X127917Y345849D01*
X115570Y306330D02*
Y319967D01*
X127917Y345849D02*
Y370547D01*
X115340Y306100D02*
X115570Y306330D01*
X141732Y345186D02*
X183134D01*
X132917Y354001D02*
Y370547D01*
Y354001D02*
X141732Y345186D01*
X183134D02*
X190500Y337820D01*
Y306260D02*
Y337820D01*
X190340Y306100D02*
X190500Y306260D01*
X66040Y320802D02*
X86157Y340919D01*
X114808D02*
X122917Y349027D01*
X86157Y340919D02*
X114808D01*
X66040Y306150D02*
Y320802D01*
X122917Y349027D02*
Y370547D01*
X66040Y306150D02*
X66090Y306100D01*
X117917Y363667D02*
X119380Y362204D01*
Y353314D02*
Y362204D01*
X117917Y363667D02*
Y370547D01*
X111760Y345694D02*
X119380Y353314D01*
X77470Y345694D02*
X111760D01*
X49090Y317314D02*
X77470Y345694D01*
X49090Y306100D02*
Y317314D01*
X205486Y353568D02*
X225298Y333756D01*
Y312420D02*
X231308Y306410D01*
X225298Y312420D02*
Y333756D01*
X142917Y357717D02*
Y370547D01*
X147066Y353568D02*
X205486D01*
X142917Y357717D02*
X147066Y353568D01*
X231308Y306410D02*
X240030D01*
X144272Y349758D02*
X199136D01*
X137917Y356113D02*
Y370547D01*
Y356113D02*
X144272Y349758D01*
X199136D02*
X215340Y333554D01*
Y306100D02*
Y333554D01*
X1404395Y387370D02*
X1417990D01*
X1423090Y382270D01*
X1404342Y387318D02*
X1404395Y387370D01*
X1411351Y377318D02*
X1430020Y358648D01*
X1475740D01*
X1404342Y377318D02*
X1411351D01*
X1475740Y358648D02*
X1506728Y327660D01*
X1429766Y353568D02*
X1471422D01*
X1404342Y372318D02*
X1411017D01*
X1429766Y353568D01*
X1471422D02*
X1504696Y320294D01*
X1523746D01*
X1404342Y392318D02*
X1411766D01*
X1413237Y390847D01*
X1416427D01*
X1423090Y397510D01*
X1362492Y346420D02*
X1364488Y344424D01*
X1383437Y325475D02*
X1385568Y323344D01*
X1393950D01*
X1396522Y306936D02*
Y320772D01*
X1393950Y323344D02*
X1396522Y320772D01*
X1386960Y306100D02*
X1395686D01*
X1396522Y306936D01*
X1362492Y346420D02*
Y365467D01*
X1461960Y306100D02*
Y325184D01*
X1446276Y340868D02*
X1461960Y325184D01*
X1378458Y340868D02*
X1446276D01*
X1367492Y351834D02*
X1378458Y340868D01*
X1367492Y351834D02*
Y365467D01*
X1310132Y321564D02*
Y328856D01*
X1310968Y329692D01*
X1344930D02*
X1357492Y342254D01*
X1310968Y329692D02*
X1344930D01*
X1337710Y306100D02*
Y318770D01*
X1311656Y320040D02*
X1336440D01*
X1337710Y318770D01*
X1310132Y321564D02*
X1311656Y320040D01*
X1357492Y342254D02*
Y365467D01*
X1352492Y359468D02*
Y365467D01*
X1354328Y346456D02*
Y357632D01*
X1352492Y359468D02*
X1354328Y357632D01*
X1341755Y333883D02*
X1354328Y346456D01*
X1284679Y322834D02*
X1299464D01*
X1283843Y323670D02*
X1284679Y322834D01*
X1283843Y333047D02*
X1284679Y333883D01*
X1341755D01*
X1283843Y323670D02*
Y333047D01*
X1302512Y309880D02*
Y319786D01*
X1299464Y322834D02*
X1302512Y319786D01*
X1306292Y306100D02*
X1320710D01*
X1302512Y309880D02*
X1306292Y306100D01*
X1384022Y349226D02*
X1384046Y349250D01*
X1377492Y354459D02*
X1382726Y349226D01*
X1384022D01*
X1384046Y349250D02*
X1468628D01*
X1377492Y354459D02*
Y365467D01*
X1468628Y349250D02*
X1497584Y320294D01*
Y308102D02*
Y320294D01*
X1499586Y306100D02*
X1511960D01*
X1497584Y308102D02*
X1499586Y306100D01*
X1372492Y353692D02*
X1381252Y344932D01*
X1465580D01*
X1486960Y323552D01*
Y306100D02*
Y323552D01*
X1372492Y353692D02*
Y365467D01*
X1101518Y377575D02*
X1107563D01*
X1109218Y375920D01*
X1139444D01*
X1188974Y326390D01*
X1101518Y372575D02*
X1133899D01*
X1187450Y319024D01*
X1205992D01*
X1059668Y337586D02*
Y365725D01*
Y337586D02*
X1063244Y334010D01*
X1074420D01*
X1075944Y332486D01*
Y327914D02*
Y332486D01*
X1073658Y325628D02*
X1075944Y327914D01*
X1058926Y325628D02*
X1073658D01*
X1056386Y323088D02*
X1058926Y325628D01*
X1056386Y290576D02*
Y323088D01*
Y290576D02*
X1059942Y287020D01*
X1066038D01*
X1069110Y290092D01*
Y306100D01*
X1064668Y344524D02*
Y365725D01*
Y344524D02*
X1069848Y339344D01*
X1130300D01*
X1144110Y325534D01*
Y306100D02*
Y325534D01*
X1054668Y345246D02*
Y365725D01*
X1044194Y334772D02*
X1054668Y345246D01*
X1020826Y334772D02*
X1044194D01*
X1019556Y336042D02*
X1020826Y334772D01*
X1019556Y336042D02*
Y348996D01*
X1017778Y350774D02*
X1019556Y348996D01*
X1009904Y350774D02*
X1017778D01*
X1007872Y348742D02*
X1009904Y350774D01*
X1007872Y331978D02*
Y348742D01*
Y331978D02*
X1019860Y319990D01*
Y306100D02*
Y319990D01*
X1049668Y359778D02*
Y365725D01*
Y359778D02*
X1051306Y358140D01*
Y351536D02*
Y358140D01*
X1039876Y340106D02*
X1051306Y351536D01*
X1027684Y340106D02*
X1039876D01*
X1024636Y343154D02*
X1027684Y340106D01*
X1024636Y343154D02*
Y353822D01*
X1022350Y356108D02*
X1024636Y353822D01*
X1005078Y356108D02*
X1022350D01*
X1002860Y353890D02*
X1005078Y356108D01*
X1002860Y306100D02*
Y353890D01*
X1074668Y352558D02*
Y365725D01*
Y352558D02*
X1079246Y347980D01*
X1151636D01*
X1178814Y320802D01*
Y308356D02*
Y320802D01*
Y308356D02*
X1181070Y306100D01*
X1194110D01*
X1069668Y347652D02*
Y365725D01*
Y347652D02*
X1073658Y343662D01*
X1148334D01*
X1169110Y322886D01*
Y306100D02*
Y322886D01*
X854710Y703750D02*
X859810Y698649D01*
Y692939D02*
Y698649D01*
X858247Y691376D02*
X859810Y692939D01*
X858247Y683488D02*
Y691376D01*
X862247Y690915D02*
X865921Y694589D01*
X862247Y683488D02*
Y690915D01*
X865921Y694589D02*
X866562D01*
X847465Y695052D02*
X850247Y692269D01*
Y683488D02*
Y692269D01*
X842247Y695052D02*
X847465D01*
X854247Y683488D02*
Y694589D01*
X854710Y695052D01*
X338554Y649224D02*
X379476D01*
X338148Y649630D02*
X338554Y649224D01*
D110*
X1348185Y438503D02*
Y482053D01*
X1348001Y438319D02*
X1348185Y438503D01*
X1347492Y434168D02*
X1348001Y434676D01*
X1351983D02*
Y438319D01*
X1351799Y438503D02*
Y482053D01*
X1348001Y434676D02*
Y438319D01*
X1351983Y434676D02*
X1352492Y434168D01*
X1351799Y438503D02*
X1351983Y438319D01*
X141920Y453675D02*
X143668Y451926D01*
Y448840D02*
Y451926D01*
X141920Y453675D02*
Y454759D01*
X147283Y451926D02*
X149032Y453675D01*
Y454759D01*
X1075361Y457708D02*
Y461321D01*
X1073743Y462939D02*
X1075361Y461321D01*
X1070949Y462939D02*
X1073743D01*
X1069331Y464557D02*
X1070949Y462939D01*
X1069331Y464557D02*
Y466714D01*
X1070949Y468332D01*
X1073743D01*
X1075361Y469949D01*
Y472106D01*
X1073743Y473724D02*
X1075361Y472106D01*
X1069329Y473724D02*
X1073743D01*
X1067711Y475342D02*
X1069329Y473724D01*
X1067711Y475342D02*
Y477499D01*
X1069329Y479117D01*
X1073743D01*
X1075361Y480734D01*
Y486366D01*
X1075912Y486918D01*
X199919Y474276D02*
X207010D01*
X198302Y475894D02*
X199919Y474276D01*
X198302Y475894D02*
Y480163D01*
X196684Y481781D02*
X198302Y480163D01*
X194527Y481781D02*
X196684D01*
X192909Y480163D02*
X194527Y481781D01*
X192909Y475894D02*
Y480163D01*
X191291Y474276D02*
X192909Y475894D01*
X190500Y474276D02*
X191291D01*
X207539Y492253D02*
X209572D01*
X205921Y493871D02*
X207539Y492253D01*
X205921Y493871D02*
Y503335D01*
X204304Y504953D02*
X205921Y503335D01*
X202147Y504953D02*
X204304D01*
X200529Y503335D02*
X202147Y504953D01*
X200529Y493871D02*
Y503335D01*
X198911Y492253D02*
X200529Y493871D01*
X198120Y492253D02*
X198911D01*
X131811Y443253D02*
Y456931D01*
X133025Y458145D01*
X133244D01*
X135636Y460537D01*
Y460756D01*
X132917Y439248D02*
Y442147D01*
X131811Y443253D02*
X132917Y442147D01*
X435313Y453197D02*
X435402D01*
X434386Y452270D02*
X435313Y453197D01*
X434386Y445667D02*
Y452270D01*
X434338Y445618D02*
X434386Y445667D01*
X435864Y453659D02*
Y455930D01*
X435402Y453197D02*
X435864Y453659D01*
X434338Y439033D02*
Y445618D01*
X434384Y435946D02*
X434893Y435438D01*
X128687Y442918D02*
Y457090D01*
X125591Y460186D02*
X128687Y457090D01*
X125591Y460186D02*
Y460936D01*
X127917Y439248D02*
Y442147D01*
X128687Y442918D01*
X745490Y442266D02*
X747849Y439907D01*
X747109Y430718D02*
X747849Y431457D01*
Y439907D01*
X747109Y427817D02*
Y430718D01*
X429893Y435438D02*
Y438338D01*
X431231Y439676D02*
Y452495D01*
X429893Y438338D02*
X431231Y439676D01*
X429260Y454467D02*
X431231Y452495D01*
X429260Y455216D02*
Y455422D01*
Y454467D02*
Y455216D01*
X430529Y453947D01*
X428320Y456156D02*
X429260Y455216D01*
X777748Y762000D02*
X779510Y763762D01*
Y777421D01*
X782066Y779977D01*
Y782066D01*
X779280Y784852D02*
X782066Y782066D01*
X779280Y784852D02*
Y793700D01*
X711962Y798576D02*
Y817974D01*
X717485Y823497D01*
X753083D01*
X763780Y812800D01*
X786700Y761651D02*
Y762401D01*
X788909Y764610D01*
X789046D01*
X789973Y765537D01*
Y773158D01*
X789973Y773158D01*
Y778217D01*
X788224Y779966D02*
X789973Y778217D01*
X788224Y779966D02*
Y781050D01*
Y782134D01*
X789973Y783883D01*
Y793007D01*
X789280Y793700D02*
X789973Y793007D01*
X793587Y765537D02*
Y771661D01*
Y765537D02*
X794514Y764610D01*
X794651D01*
X796860Y762401D01*
Y761651D02*
Y762401D01*
X793587Y771661D02*
X793587Y771661D01*
Y778217D01*
X795336Y779966D01*
X793587Y783883D02*
Y793007D01*
Y783883D02*
X795336Y782134D01*
Y779966D02*
Y781050D01*
Y782134D01*
X793587Y793007D02*
X794280Y793700D01*
X450949Y485072D02*
Y486156D01*
X449200Y483323D02*
X450949Y485072D01*
X449384Y435946D02*
X449893Y435438D01*
X449200Y439773D02*
X449384Y439589D01*
X449200Y439773D02*
Y483323D01*
X449384Y435946D02*
Y439589D01*
X851252Y554012D02*
Y555516D01*
X853000Y551180D02*
Y552264D01*
X851252Y554012D02*
X853000Y552264D01*
X854054Y558319D02*
Y567471D01*
X851252Y555516D02*
X854054Y558319D01*
Y567471D02*
X854247Y567664D01*
X443837Y485072D02*
X445586Y483323D01*
X443837Y485072D02*
Y486156D01*
X445402Y439589D02*
X445586Y439773D01*
Y483323D01*
X445402Y435946D02*
Y439589D01*
X444893Y435438D02*
X445402Y435946D01*
X845889Y552140D02*
X847637Y553888D01*
Y557013D02*
X850440Y559816D01*
X845889Y551056D02*
Y552140D01*
X847637Y553888D02*
Y557013D01*
X850440Y559816D02*
Y567471D01*
X850247Y567664D02*
X850440Y567471D01*
X767399Y476686D02*
Y477770D01*
X766416Y475703D02*
X767399Y476686D01*
X766416Y432153D02*
X766600Y431969D01*
Y428326D02*
Y431969D01*
Y428326D02*
X767109Y427817D01*
X766416Y432153D02*
Y475703D01*
X767399Y477770D02*
X768165Y478536D01*
X887252Y554012D02*
Y556532D01*
X890054Y559335D02*
Y567471D01*
X889000Y551180D02*
Y552264D01*
X887252Y554012D02*
X889000Y552264D01*
X887252Y556532D02*
X890054Y559335D01*
Y567471D02*
X890247Y567664D01*
X762802Y432153D02*
Y475703D01*
X762618Y428326D02*
Y431969D01*
X762109Y427817D02*
X762618Y428326D01*
Y431969D02*
X762802Y432153D01*
X761053Y477452D02*
X762802Y475703D01*
X761053Y477452D02*
Y478536D01*
X881889Y552140D02*
X883637Y553888D01*
Y558029D02*
X886440Y560832D01*
X881889Y551056D02*
Y552140D01*
X883637Y553888D02*
Y558029D01*
X886440Y560832D02*
Y567471D01*
X886247Y567664D02*
X886440Y567471D01*
X147283Y447343D02*
Y451926D01*
X147224Y443583D02*
Y447284D01*
X147283Y447343D01*
X147408Y439756D02*
Y443399D01*
Y439756D02*
X147917Y439248D01*
X147224Y443583D02*
X147408Y443399D01*
X493876Y493718D02*
X734287D01*
X472156Y515438D02*
X493876Y493718D01*
X396034Y515438D02*
X472156D01*
X373052Y492457D02*
X396034Y515438D01*
X232178Y492457D02*
X373052D01*
X231648Y492986D02*
X232178Y492457D01*
X734287Y493718D02*
X749585Y509016D01*
X951516D01*
X954143Y585383D02*
X961136Y578390D01*
Y518637D02*
Y578390D01*
X940352Y585383D02*
X954143D01*
X951516Y509016D02*
X961136Y518637D01*
X940159Y585576D02*
X940352Y585383D01*
X143609Y448781D02*
X143668Y448840D01*
X143609Y443583D02*
Y448781D01*
X143425Y439756D02*
Y443399D01*
X143609Y443583D01*
X142917Y439248D02*
X143425Y439756D01*
X495374Y497332D02*
X732790D01*
X473653Y519053D02*
X495374Y497332D01*
X394537Y519053D02*
X473653D01*
X371555Y496071D02*
X394537Y519053D01*
X236759Y496071D02*
X371555D01*
X232732Y500098D02*
X236759Y496071D01*
X732790Y497332D02*
X748088Y512630D01*
X950018D01*
X952645Y581768D02*
X957522Y576892D01*
Y520134D02*
Y576892D01*
X940352Y581768D02*
X952645D01*
X950018Y512630D02*
X957522Y520134D01*
X940159Y581576D02*
X940352Y581768D01*
X231648Y500098D02*
X232732D01*
X1383548Y449766D02*
Y450850D01*
X1381799Y448017D02*
X1383548Y449766D01*
X1381983Y434676D02*
X1382492Y434168D01*
X1381799Y438503D02*
X1381983Y438319D01*
X1381799Y438503D02*
Y448017D01*
X1381983Y434676D02*
Y438319D01*
X939966Y613383D02*
X940159Y613576D01*
X929454Y615132D02*
X931203Y613383D01*
X939966D01*
X928370Y615132D02*
X929454D01*
X1376436Y449766D02*
X1378185Y448017D01*
X1376436Y449766D02*
Y450850D01*
X1378001Y438319D02*
X1378185Y438503D01*
Y448017D01*
X1378001Y434676D02*
Y438319D01*
X1377492Y434168D02*
X1378001Y434676D01*
X931203Y609768D02*
X939966D01*
X929454Y608020D02*
X931203Y609768D01*
X928370Y608020D02*
X929454D01*
X939966Y609768D02*
X940159Y609576D01*
X802836Y684503D02*
X860320Y741988D01*
X950700D01*
X802836Y656871D02*
Y684503D01*
X950700Y741988D02*
X996500Y696187D01*
X1038853Y572523D02*
X1103401D01*
X1122230Y553693D01*
X996500Y614876D02*
Y696187D01*
Y614876D02*
X1038853Y572523D01*
X824142Y649768D02*
X824335Y649576D01*
X802836Y656871D02*
X809938Y649768D01*
X824142D01*
X1122230Y528124D02*
Y553693D01*
X1078975Y484869D02*
X1122230Y528124D01*
X1079159Y434934D02*
Y438577D01*
X1078975Y438761D02*
X1079159Y438577D01*
Y434934D02*
X1079668Y434425D01*
X1078975Y438761D02*
Y484869D01*
X806450Y658368D02*
Y683006D01*
X861817Y738373D02*
X949203D01*
X806450Y683006D02*
X861817Y738373D01*
X949203D02*
X992886Y694690D01*
X1075361Y438761D02*
Y457708D01*
X1075912Y486918D02*
X1118616Y529622D01*
X1037356Y568908D02*
X1101904D01*
X1118616Y552196D01*
X992886Y613378D02*
Y694690D01*
Y613378D02*
X1037356Y568908D01*
X824142Y653383D02*
X824335Y653576D01*
X806450Y658368D02*
X811435Y653383D01*
X824142D01*
X1118616Y529622D02*
Y552196D01*
X1075177Y438577D02*
X1075361Y438761D01*
X1075177Y434934D02*
Y438577D01*
X1074668Y434425D02*
X1075177Y434934D01*
X534368Y619998D02*
X556795Y642424D01*
X534368Y560712D02*
X537412Y557668D01*
X542281D01*
X534368Y560712D02*
Y619998D01*
X556795Y642424D02*
X719793D01*
X848768Y771399D01*
X981417D01*
X542495Y557454D02*
X547272D01*
X542281Y557668D02*
X542495Y557454D01*
X547272D02*
X547751Y556975D01*
X956917Y642536D02*
X957684Y643303D01*
X954444Y642536D02*
X956917D01*
X949676Y637768D02*
X954444Y642536D01*
X940352Y637768D02*
X949676D01*
X940159Y637576D02*
X940352Y637768D01*
X983166Y773148D02*
X984250D01*
X981417Y771399D02*
X983166Y773148D01*
X537983Y562209D02*
X538909Y561282D01*
X537983Y562209D02*
Y618501D01*
X538909Y561282D02*
X542281D01*
X537983Y618501D02*
X558292Y638810D01*
X721290D02*
X850265Y767785D01*
X981417D01*
X558292Y638810D02*
X721290D01*
X547272Y561496D02*
X547751Y561975D01*
X542495Y561496D02*
X547272D01*
X542281Y561282D02*
X542495Y561496D01*
X951889Y647565D02*
X952655Y648332D01*
X951889Y645092D02*
Y647565D01*
X948179Y641383D02*
X951889Y645092D01*
X940352Y641383D02*
X948179D01*
X940159Y641576D02*
X940352Y641383D01*
X983166Y766036D02*
X984250D01*
X981417Y767785D02*
X983166Y766036D01*
X769973Y783485D02*
Y793007D01*
X767673Y781185D02*
X769973Y783485D01*
X769280Y793700D02*
X769973Y793007D01*
X767673Y780101D02*
Y781185D01*
X803300Y620241D02*
X812143D01*
X802469Y619410D02*
X803300Y620241D01*
X796583Y619410D02*
X802469D01*
X812143Y620241D02*
X814615Y617768D01*
X824142D02*
X824335Y617576D01*
X814615Y617768D02*
X824142D01*
X794834Y617662D02*
X796583Y619410D01*
X793750Y617662D02*
X794834D01*
X774019Y780868D02*
Y782600D01*
Y780868D02*
X774785Y780101D01*
X773587Y793007D02*
X774280Y793700D01*
X773587Y783031D02*
X774019Y782600D01*
X773587Y783031D02*
Y793007D01*
X801803Y623855D02*
X813640D01*
X793750Y624774D02*
X794834D01*
X813640Y623855D02*
X816112Y621383D01*
X800972Y623025D02*
X801803Y623855D01*
X824142Y621383D02*
X824335Y621576D01*
X816112Y621383D02*
X824142D01*
X794834Y624774D02*
X796583Y623025D01*
X800972D01*
X420949Y451036D02*
Y452120D01*
X419200Y449287D02*
X420949Y451036D01*
X419384Y435946D02*
X419893Y435438D01*
X419200Y439773D02*
X419384Y439589D01*
X419200Y439773D02*
Y449287D01*
X419384Y435946D02*
Y439589D01*
X874054Y560210D02*
X875803Y558461D01*
X874054Y567471D02*
X874247Y567664D01*
X875803Y557530D02*
Y558461D01*
X874054Y560210D02*
Y567471D01*
X413837Y451036D02*
X415586Y449287D01*
X413837Y451036D02*
Y452120D01*
X415402Y439589D02*
X415586Y439773D01*
Y449287D01*
X415402Y435946D02*
Y439589D01*
X414893Y435438D02*
X415402Y435946D01*
X868691Y558461D02*
X870440Y560210D01*
Y567471D01*
X868691Y557530D02*
Y558461D01*
X870247Y567664D02*
X870440Y567471D01*
X430664Y469751D02*
Y474863D01*
X430530Y469617D02*
X430664Y469751D01*
X428837Y476690D02*
X430664Y474863D01*
X428837Y476690D02*
Y477774D01*
X430530Y468376D02*
Y469617D01*
X862054Y567471D02*
X862247Y567664D01*
X862054Y555302D02*
Y567471D01*
X862054Y546393D02*
Y555302D01*
X863803Y543560D02*
Y544644D01*
X862054Y555302D02*
X862054Y555302D01*
Y546393D02*
X863803Y544644D01*
X434279Y471738D02*
Y475020D01*
X435949Y476690D01*
X434279Y471738D02*
X437611Y468406D01*
Y467656D02*
Y468406D01*
X435949Y476690D02*
Y477774D01*
X858440Y546393D02*
Y553805D01*
X856691Y543560D02*
Y544644D01*
X858440Y553805D02*
X858440Y553805D01*
X858247Y567664D02*
X858440Y567471D01*
Y553805D02*
Y567471D01*
X856691Y544644D02*
X858440Y546393D01*
X736016Y442380D02*
Y443464D01*
X734306Y437999D02*
Y440671D01*
X736416Y432153D02*
Y435888D01*
X734306Y437999D02*
X736416Y435888D01*
X734306Y440671D02*
X736016Y442380D01*
X736600Y428326D02*
Y431969D01*
Y428326D02*
X737109Y427817D01*
X736416Y432153D02*
X736600Y431969D01*
X911803Y552450D02*
Y553534D01*
X910054Y567471D02*
X910247Y567664D01*
X910054Y555283D02*
X911803Y553534D01*
X910054Y555283D02*
Y567471D01*
X728982Y443436D02*
Y444520D01*
Y443436D02*
X730692Y441727D01*
Y436501D02*
X732802Y434391D01*
X730692Y436501D02*
Y441727D01*
X732802Y432153D02*
Y434391D01*
X732618Y431969D02*
X732802Y432153D01*
X732618Y428326D02*
Y431969D01*
X732109Y427817D02*
X732618Y428326D01*
X904691Y553534D02*
X906440Y555283D01*
X906247Y567664D02*
X906440Y567471D01*
X904691Y552450D02*
Y553534D01*
X906440Y555283D02*
Y567471D01*
X754115Y455504D02*
Y456254D01*
X751116Y459254D02*
Y461888D01*
Y459254D02*
X754115Y456254D01*
X751116Y461888D02*
X752955Y463728D01*
Y464812D01*
X899803Y543560D02*
Y544644D01*
X898054Y546393D02*
X899803Y544644D01*
X898054Y546393D02*
Y567471D01*
X898247Y567664D01*
X745844Y463728D02*
Y464812D01*
Y463728D02*
X747502Y462070D01*
Y459254D02*
Y462070D01*
X744502Y456254D02*
X747502Y459254D01*
X744502Y455504D02*
Y456254D01*
X894440Y546393D02*
Y567471D01*
X894247Y567664D02*
X894440Y567471D01*
X892691Y543560D02*
Y544644D01*
X894440Y546393D01*
X459863Y495300D02*
X484871Y470291D01*
X740801D01*
X404907Y495300D02*
X459863D01*
X966247Y487172D02*
X981260Y502185D01*
X757682Y487172D02*
X966247D01*
X740801Y470291D02*
X757682Y487172D01*
X380270Y470662D02*
X404907Y495300D01*
X184881Y470662D02*
X380270D01*
X176022Y479520D02*
Y493776D01*
Y479520D02*
X184881Y470662D01*
X940159Y605576D02*
X940352Y605383D01*
X965893D01*
X981260Y502185D02*
Y590015D01*
X965893Y605383D02*
X981260Y590015D01*
X118973Y488882D02*
Y489966D01*
X117224Y487133D02*
X118973Y488882D01*
X117224Y443583D02*
X117408Y443399D01*
X117224Y443583D02*
Y487133D01*
X117408Y439756D02*
X117917Y439248D01*
X117408Y439756D02*
Y443399D01*
X173539Y496259D02*
X176022Y493776D01*
X168187Y496259D02*
X173539D01*
X165354Y494510D02*
X166438D01*
X168187Y496259D01*
X461360Y498914D02*
X486368Y473906D01*
X739304D01*
X403410Y498914D02*
X461360D01*
X207010Y474276D02*
X378772D01*
X403410Y498914D01*
X186378Y474276D02*
X190500D01*
X739304Y473906D02*
X756185Y490786D01*
X964750D02*
X977646Y503682D01*
X756185Y490786D02*
X964750D01*
X179636Y481018D02*
Y495273D01*
Y481018D02*
X186378Y474276D01*
X940352Y601768D02*
X964396D01*
X940159Y601576D02*
X940352Y601768D01*
X977646Y503682D02*
Y588518D01*
X964396Y601768D02*
X977646Y588518D01*
X113610Y443583D02*
Y487133D01*
X113425Y443399D02*
X113610Y443583D01*
X111861Y488882D02*
X113610Y487133D01*
X111861Y488882D02*
Y489966D01*
X113425Y439756D02*
Y443399D01*
X112917Y439248D02*
X113425Y439756D01*
X175036Y499873D02*
X179636Y495273D01*
X165354Y501622D02*
X166438D01*
X168187Y499873D01*
X175036D01*
X132079Y481359D02*
X133828Y483108D01*
X132079Y475353D02*
Y481359D01*
Y475353D02*
X134952Y472479D01*
X221742Y481838D02*
X377563D01*
X400651Y504927D02*
X466623D01*
X377563Y481838D02*
X400651Y504927D01*
X466623D02*
X489262Y482288D01*
X193841Y488639D02*
X214941D01*
X221742Y481838D01*
X959898Y498602D02*
X971100Y509805D01*
X753650Y498602D02*
X959898D01*
X737335Y482288D02*
X753650Y498602D01*
X489262Y482288D02*
X737335D01*
X961129Y593383D02*
X971100Y583411D01*
Y509805D02*
Y583411D01*
X940352Y593383D02*
X961129D01*
X940159Y593576D02*
X940352Y593383D01*
X191008Y486890D02*
X192092D01*
X193841Y488639D01*
X126716Y483108D02*
X128464Y481359D01*
Y475310D02*
Y481359D01*
X125591Y472436D02*
X128464Y475310D01*
X376065Y485452D02*
X399154Y508541D01*
X468120D01*
X223239Y485452D02*
X376065D01*
X468120Y508541D02*
X490760Y485902D01*
X209572Y492253D02*
X216438D01*
X223239Y485452D01*
X193841Y492253D02*
X198120D01*
X735838Y485902D02*
X752152Y502216D01*
X958400D01*
X967486Y511302D01*
X490760Y485902D02*
X735838D01*
X959632Y589768D02*
X967486Y581914D01*
Y511302D02*
Y581914D01*
X940352Y589768D02*
X959632D01*
X940159Y589576D02*
X940352Y589768D01*
X191008Y494002D02*
X192092D01*
X193841Y492253D01*
X1351799Y482053D02*
X1353548Y483802D01*
Y484886D01*
X940352Y633383D02*
X952540D01*
X940159Y633576D02*
X940352Y633383D01*
X954289Y635132D02*
X955373D01*
X952540Y633383D02*
X954289Y635132D01*
X1346436Y483802D02*
Y484886D01*
Y483802D02*
X1348185Y482053D01*
X940352Y629768D02*
X952540D01*
X954289Y628020D02*
X955373D01*
X952540Y629768D02*
X954289Y628020D01*
X940159Y629576D02*
X940352Y629768D01*
X1369813Y474017D02*
Y474020D01*
X1366012Y470216D02*
X1369813Y474017D01*
X1368849Y463276D02*
Y464026D01*
X1366012Y466863D02*
X1368849Y464026D01*
X1366012Y466863D02*
Y470216D01*
X940159Y621576D02*
X940352Y621383D01*
X953732D01*
X953801Y621313D01*
X966910Y623062D02*
X967994D01*
X953801Y621313D02*
X965161D01*
X966910Y623062D01*
X1362398Y473827D02*
X1362644Y474073D01*
X1362398Y466863D02*
Y473827D01*
X1361186Y465651D02*
X1362398Y466863D01*
X1361186Y464312D02*
Y465651D01*
X940159Y617576D02*
X940352Y617769D01*
X966910Y615950D02*
X967994D01*
X965161Y617699D02*
X966910Y615950D01*
X952304Y617699D02*
X965161D01*
X940352Y617769D02*
X952234D01*
X952304Y617699D01*
X1043697Y466702D02*
X1047819Y470824D01*
X1043697Y453315D02*
Y466702D01*
X1047819Y470824D02*
Y481155D01*
X1048283Y438710D02*
Y448729D01*
X1043697Y453315D02*
X1048283Y448729D01*
Y438710D02*
X1049668Y437325D01*
Y434425D02*
Y437325D01*
X1047819Y481155D02*
X1050724Y484060D01*
Y485144D01*
X781754Y646457D02*
Y690479D01*
X852311Y761036D01*
X962894D01*
X1146302Y504922D02*
Y560863D01*
X1112551Y594614D02*
X1146302Y560863D01*
X962894Y761036D02*
X1018592Y705338D01*
X781754Y646457D02*
X798442Y629768D01*
X824142D02*
X824335Y629576D01*
X798442Y629768D02*
X824142D01*
X1048004Y594614D02*
X1112551D01*
X1018592Y624026D02*
X1048004Y594614D01*
X1018592Y624026D02*
Y705338D01*
X1135927Y499561D02*
X1140941D01*
X1146302Y504922D01*
X1133094Y497812D02*
X1134178D01*
X1135927Y499561D01*
X1040083Y468199D02*
X1044204Y472321D01*
Y484552D01*
X1040083Y451818D02*
Y468199D01*
X1044669Y434426D02*
Y447232D01*
X1044668Y434425D02*
X1044669Y434426D01*
X1040083Y451818D02*
X1044669Y447232D01*
X1043612Y485144D02*
X1044204Y484552D01*
X853808Y757421D02*
X961397D01*
X785368Y647954D02*
Y688982D01*
X853808Y757421D01*
X1142688Y506419D02*
Y559366D01*
X1111054Y591000D02*
X1142688Y559366D01*
X1046507Y591000D02*
X1111054D01*
X961397Y757421D02*
X1014977Y703841D01*
X785368Y647954D02*
X799939Y633383D01*
X824142D02*
X824335Y633576D01*
X799939Y633383D02*
X824142D01*
X1014977Y622529D02*
X1046507Y591000D01*
X1014977Y622529D02*
Y703841D01*
X1139444Y503175D02*
X1142688Y506419D01*
X1135927Y503175D02*
X1139444D01*
X1134178Y504924D02*
X1135927Y503175D01*
X1133094Y504924D02*
X1134178D01*
X1060983Y469812D02*
X1064016Y466779D01*
X1060983Y473412D02*
X1062566Y474994D01*
X1060983Y469812D02*
Y473412D01*
X1062566Y474994D02*
Y476078D01*
X1064016Y466029D02*
Y466779D01*
X792676Y687495D02*
X856999Y751819D01*
X956871D02*
X1007816Y700874D01*
X856999Y751819D02*
X956871D01*
X792676Y650775D02*
Y687495D01*
X1117912Y488244D02*
Y503486D01*
X1133546Y519120D01*
Y558380D01*
X1108088Y583838D02*
X1133546Y558380D01*
X824142Y641768D02*
X824335Y641576D01*
X815384Y641768D02*
X824142D01*
X792676Y650775D02*
X801682Y641768D01*
X815384D02*
X815384Y641768D01*
X801682Y641768D02*
X815384D01*
X1043540Y583838D02*
X1108088D01*
X1007816Y619562D02*
Y700874D01*
Y619562D02*
X1043540Y583838D01*
X1112239Y482571D02*
X1117912Y488244D01*
X1100328Y480822D02*
X1101412D01*
X1103161Y482571D01*
X1112239D01*
X1055454Y474994D02*
X1057369Y473079D01*
X1054661Y466829D02*
X1057369Y469537D01*
Y473079D01*
X1054661Y466079D02*
Y466829D01*
X1055454Y474994D02*
Y476078D01*
X796290Y685998D02*
X858496Y748204D01*
X955374D02*
X1004201Y699377D01*
X858496Y748204D02*
X955374D01*
X796290Y652272D02*
Y685998D01*
X1129931Y520617D02*
Y556883D01*
X1114298Y489741D02*
Y504983D01*
X1129931Y520617D01*
X1106591Y580223D02*
X1129931Y556883D01*
X824142Y645383D02*
X824335Y645576D01*
X816881Y645383D02*
X824142D01*
X796290Y652272D02*
X803179Y645383D01*
X816881D02*
X816881Y645383D01*
X803179Y645383D02*
X816881D01*
X1042043Y580223D02*
X1106591D01*
X1004201Y618065D02*
Y699377D01*
Y618065D02*
X1042043Y580223D01*
X1110742Y486185D02*
X1114298Y489741D01*
X1101412Y487934D02*
X1103161Y486185D01*
X1110742D01*
X1100328Y487934D02*
X1101412D01*
X753618Y784892D02*
Y793038D01*
X754280Y793700D01*
X753618Y784892D02*
X767392Y771117D01*
Y762281D02*
Y771117D01*
X761465Y756354D02*
X767392Y762281D01*
X754690Y756354D02*
X761465D01*
X750033Y761011D02*
X754690Y756354D01*
X750033Y761011D02*
Y767617D01*
X748284Y769366D02*
X750033Y767617D01*
X824142Y597769D02*
X824335Y597576D01*
X802933Y597769D02*
X824142D01*
X801184Y596020D02*
X802933Y597769D01*
X800100Y596020D02*
X801184D01*
X749989Y789079D02*
Y792991D01*
X750004Y783394D02*
Y789064D01*
X749280Y793700D02*
X749989Y792991D01*
Y789079D02*
X750004Y789064D01*
Y783394D02*
X763778Y769620D01*
Y763778D02*
Y769620D01*
X759968Y759968D02*
X763778Y763778D01*
X756187Y759968D02*
X759968D01*
X753647Y762508D02*
X756187Y759968D01*
X753647Y762508D02*
Y767617D01*
X755396Y769366D01*
X824142Y601383D02*
X824335Y601576D01*
X802933Y601383D02*
X824142D01*
X801184Y603132D02*
X802933Y601383D01*
X800100Y603132D02*
X801184D01*
X791860Y736459D02*
Y740377D01*
Y736459D02*
X791972Y736346D01*
X789973Y742264D02*
Y746128D01*
Y742264D02*
X791860Y740377D01*
X786700Y749401D02*
Y750151D01*
Y749401D02*
X789973Y746128D01*
X811858Y609768D02*
X824142D01*
X824335Y609576D01*
X810110Y608020D02*
X811858Y609768D01*
X809026Y608020D02*
X810110D01*
X797081Y734230D02*
Y740267D01*
X793587Y743761D02*
X797081Y740267D01*
X794088Y731237D02*
X797081Y734230D01*
X784860Y736233D02*
X789856Y731237D01*
X784860Y736233D02*
Y736346D01*
X793587Y743761D02*
Y746128D01*
X789856Y731237D02*
X794088D01*
X793587Y746128D02*
X796860Y749401D01*
Y750151D01*
X810110Y615132D02*
X811858Y613383D01*
X809026Y615132D02*
X810110D01*
X824142Y613383D02*
X824335Y613576D01*
X811858Y613383D02*
X824142D01*
X750989Y431838D02*
Y440127D01*
X752602Y441741D01*
X750989Y431838D02*
X752109Y430718D01*
Y427817D02*
Y430718D01*
X752602Y441741D02*
Y443230D01*
D111*
X87630Y493014D02*
D03*
X87884Y465074D02*
D03*
X1259332Y411226D02*
D03*
X1259586Y439166D02*
D03*
X960628Y423418D02*
D03*
Y451612D02*
D03*
X325628Y405892D02*
D03*
Y434594D02*
D03*
X645414Y449072D02*
D03*
Y421386D02*
D03*
X701506Y568960D02*
D03*
X668020D02*
D03*
X701506Y543560D02*
D03*
X668020D02*
D03*
X577850Y668020D02*
D03*
X543560D02*
D03*
X578558Y729963D02*
D03*
Y755363D02*
D03*
X603958Y729963D02*
D03*
X543560Y730250D02*
D03*
D112*
X62230Y493014D02*
D03*
X62484Y465074D02*
D03*
X1233932Y411226D02*
D03*
X1234186Y439166D02*
D03*
X935228Y423418D02*
D03*
Y451612D02*
D03*
X300228Y405892D02*
D03*
Y434594D02*
D03*
X620014Y449072D02*
D03*
Y421386D02*
D03*
X603958Y755363D02*
D03*
D113*
X743780Y805800D02*
D03*
X799780D02*
D03*
X763780Y812800D02*
D03*
X755780D02*
D03*
X747780D02*
D03*
X775780Y805800D02*
D03*
X767780D02*
D03*
X787780Y812800D02*
D03*
X795780D02*
D03*
X759780Y805800D02*
D03*
X783780D02*
D03*
X779780Y812800D02*
D03*
D114*
X813077Y811700D02*
D03*
X730480D02*
D03*
X816680Y855700D02*
D03*
X726880D02*
D03*
D115*
X511556Y622046D02*
D03*
X486156D02*
D03*
Y596646D02*
D03*
X511556D02*
D03*
X486156Y571246D02*
D03*
D116*
X511556D02*
D03*
D117*
X543560Y755650D02*
D03*
X701506Y594360D02*
D03*
X668020D02*
D03*
X543560Y693420D02*
D03*
X577850D02*
D03*
D118*
X750570Y594360D02*
D03*
D119*
X807780Y799300D02*
D03*
D120*
X1543530Y351790D02*
D03*
X306860Y836140D02*
D03*
X1265745Y836140D02*
D03*
X30000Y351790D02*
D03*
D121*
X1089152Y334010D02*
D03*
X1407832Y362884D02*
D03*
X1445971Y316501D02*
D03*
X1409192Y442722D02*
D03*
X1387462Y443078D02*
D03*
X1391920Y330200D02*
D03*
X1402588Y321818D02*
D03*
X1104900Y332486D02*
D03*
X1100074Y442468D02*
D03*
X1107186Y361950D02*
D03*
X1122249Y317092D02*
D03*
X1081278Y319532D02*
D03*
X792226Y353568D02*
D03*
X791972Y435864D02*
D03*
X760730Y319278D02*
D03*
X808475Y318071D02*
D03*
X815740Y317918D02*
D03*
X462883Y321791D02*
D03*
X451707Y321977D02*
D03*
X470662Y444246D02*
D03*
X477520Y357124D02*
D03*
X490602Y317628D02*
D03*
X441452Y318008D02*
D03*
X167640Y447294D02*
D03*
X123569Y317428D02*
D03*
X170953Y317875D02*
D03*
X176553Y322260D02*
D03*
X164592Y321056D02*
D03*
X170540Y364317D02*
D03*
X157275Y360506D02*
D03*
X131826Y319278D02*
D03*
X1372870Y443056D02*
D03*
X1357399Y442397D02*
D03*
X1198372Y417068D02*
D03*
X977336Y416818D02*
D03*
X255016Y423164D02*
D03*
X346197Y416852D02*
D03*
X1021358Y524510D02*
D03*
X990977Y569468D02*
D03*
X720554Y434275D02*
D03*
X141920Y454759D02*
D03*
X149032D02*
D03*
X999150Y569468D02*
D03*
X1006856D02*
D03*
X1233424Y773430D02*
D03*
X1242822D02*
D03*
Y788924D02*
D03*
Y781304D02*
D03*
X1233424Y788924D02*
D03*
Y781304D02*
D03*
X1223264Y788924D02*
D03*
Y781304D02*
D03*
X929825Y623575D02*
D03*
X928370Y598170D02*
D03*
X834023Y605790D02*
D03*
X834390Y637576D02*
D03*
Y665576D02*
D03*
X902970Y577261D02*
D03*
X866562Y577576D02*
D03*
X939800Y562610D02*
D03*
X914400Y695052D02*
D03*
X888855Y577721D02*
D03*
X879591D02*
D03*
X1075446Y743018D02*
D03*
X1094005Y743055D02*
D03*
X737870Y554990D02*
D03*
X834023Y581660D02*
D03*
Y625576D02*
D03*
X834390Y657576D02*
D03*
X866562Y673576D02*
D03*
X929485Y645614D02*
D03*
X928370Y577261D02*
D03*
X926247Y694899D02*
D03*
X891178Y695052D02*
D03*
X1106170Y534670D02*
D03*
X878188Y798497D02*
D03*
X1268984Y693420D02*
D03*
X1258824D02*
D03*
X1227074Y731520D02*
D03*
X1247394Y693420D02*
D03*
X1235964D02*
D03*
X1188326Y504063D02*
D03*
X869082Y729946D02*
D03*
X494030Y741680D02*
D03*
X462280Y764540D02*
D03*
X878659Y729946D02*
D03*
X888331D02*
D03*
X723900Y516890D02*
D03*
X620829Y543512D02*
D03*
X328930Y730250D02*
D03*
X878188Y807882D02*
D03*
X411480Y689610D02*
D03*
X770890Y546100D02*
D03*
X489744Y542202D02*
D03*
X98066Y351428D02*
D03*
X179362Y417962D02*
D03*
X90834Y421518D02*
D03*
X138295Y448136D02*
D03*
X756238Y435622D02*
D03*
X797965Y405768D02*
D03*
X775661Y349967D02*
D03*
X710027Y410088D02*
D03*
X722327Y340360D02*
D03*
X440271Y444326D02*
D03*
X480822Y411734D02*
D03*
X458683Y357463D02*
D03*
X392810Y417708D02*
D03*
X405111Y347980D02*
D03*
X122895Y448158D02*
D03*
X112895Y360680D02*
D03*
X742000Y435442D02*
D03*
X732087Y349250D02*
D03*
X91353Y386004D02*
D03*
X190246Y436880D02*
D03*
X710790Y376502D02*
D03*
X807961Y425480D02*
D03*
X393689Y383617D02*
D03*
X491828Y433423D02*
D03*
X1110973Y413214D02*
D03*
X1088898Y356362D02*
D03*
X1022585Y416696D02*
D03*
X1070046Y443313D02*
D03*
X1034886Y346968D02*
D03*
X1413764Y411226D02*
D03*
X1391877Y356131D02*
D03*
X1337710Y346710D02*
D03*
X1325409Y416438D02*
D03*
X180168Y410636D02*
D03*
X798947Y398349D02*
D03*
X1044668Y355880D02*
D03*
X1054646Y443335D02*
D03*
X1347470Y355600D02*
D03*
X1023465Y382605D02*
D03*
X1119426Y431462D02*
D03*
X481293Y403901D02*
D03*
X1112005Y405899D02*
D03*
X1327342Y382581D02*
D03*
X1421805Y430426D02*
D03*
X148336Y361950D02*
D03*
X767109Y352269D02*
D03*
X450342Y358394D02*
D03*
X1081298Y355092D02*
D03*
X1413764Y404114D02*
D03*
X1384808Y355346D02*
D03*
X576326Y599440D02*
D03*
X566420Y598932D02*
D03*
X710027Y400967D02*
D03*
X90834Y412397D02*
D03*
X392810Y408587D02*
D03*
X1022585Y407575D02*
D03*
X1325409Y407318D02*
D03*
X834519Y592843D02*
D03*
X831342Y554990D02*
D03*
X1167556Y526980D02*
D03*
X1072388Y516890D02*
D03*
X482600Y381762D02*
D03*
X491236Y383680D02*
D03*
X551688Y327660D02*
D03*
X568198Y320294D02*
D03*
X491236Y393700D02*
D03*
X481806D02*
D03*
X481584Y321056D02*
D03*
X393446Y374904D02*
D03*
X553720Y383286D02*
D03*
X463550Y572008D02*
D03*
X393925Y367049D02*
D03*
X868934Y375412D02*
D03*
X452120Y577850D02*
D03*
X798127Y375920D02*
D03*
X807707D02*
D03*
X870966Y325628D02*
D03*
X886968Y319786D02*
D03*
X797982Y391017D02*
D03*
X807707Y391160D02*
D03*
X798297Y319468D02*
D03*
X710536Y369307D02*
D03*
X251714Y387604D02*
D03*
X448564Y593852D02*
D03*
X775208Y317918D02*
D03*
X711543Y362266D02*
D03*
X1486553Y381938D02*
D03*
X438912Y602234D02*
D03*
X181356Y386334D02*
D03*
X190500Y387350D02*
D03*
X235966Y328168D02*
D03*
X251968Y320040D02*
D03*
X180611Y402962D02*
D03*
X188515Y402590D02*
D03*
X92456Y377698D02*
D03*
X1184656Y382778D02*
D03*
X424180Y594360D02*
D03*
X92964Y368808D02*
D03*
X1413510Y382270D02*
D03*
X1423090D02*
D03*
X1506728Y327660D02*
D03*
X1523746Y320294D02*
D03*
X1414276Y397020D02*
D03*
X1423090Y397510D02*
D03*
X1435037Y332521D02*
D03*
X1324788Y373603D02*
D03*
X1412671Y333192D02*
D03*
X1326891Y366269D02*
D03*
X1110686Y382528D02*
D03*
X1120266D02*
D03*
X1188974Y326390D02*
D03*
X1205992Y319024D02*
D03*
X1110510Y397768D02*
D03*
X1120266D02*
D03*
X1115314Y331724D02*
D03*
X1020487Y375122D02*
D03*
X1024382Y368300D02*
D03*
X854710Y703750D02*
D03*
X369570Y685800D02*
D03*
X866562Y694589D02*
D03*
X328422Y739394D02*
D03*
X738124Y689610D02*
D03*
X389382Y751840D02*
D03*
X842247Y695052D02*
D03*
X854710D02*
D03*
X788224Y781050D02*
D03*
X795336D02*
D03*
X450949Y486156D02*
D03*
X853000Y551180D02*
D03*
X443837Y486156D02*
D03*
X845889Y551056D02*
D03*
X768165Y478536D02*
D03*
X889000Y551180D02*
D03*
X761053Y478536D02*
D03*
X881889Y551056D02*
D03*
X231648Y492986D02*
D03*
Y500098D02*
D03*
X1383548Y450850D02*
D03*
X928370Y615132D02*
D03*
X1376436Y450850D02*
D03*
X928370Y608020D02*
D03*
X957684Y643303D02*
D03*
X984250Y773148D02*
D03*
X952655Y648332D02*
D03*
X984250Y766036D02*
D03*
X767673Y780101D02*
D03*
X793750Y617662D02*
D03*
X774785Y780101D02*
D03*
X793750Y624774D02*
D03*
X420949Y452120D02*
D03*
X875803Y557530D02*
D03*
X413837Y452120D02*
D03*
X868691Y557530D02*
D03*
X428837Y477774D02*
D03*
X863803Y543560D02*
D03*
X435949Y477774D02*
D03*
X856691Y543560D02*
D03*
X736016Y443464D02*
D03*
X911803Y552450D02*
D03*
X728982Y444520D02*
D03*
X904691Y552450D02*
D03*
X752955Y464812D02*
D03*
X899803Y543560D02*
D03*
X745844Y464812D02*
D03*
X892691Y543560D02*
D03*
X118973Y489966D02*
D03*
X165354Y494510D02*
D03*
X111861Y489966D02*
D03*
X165354Y501622D02*
D03*
X133828Y483108D02*
D03*
X191008Y486890D02*
D03*
X126716Y483108D02*
D03*
X191008Y494002D02*
D03*
X1353548Y484886D02*
D03*
X955373Y635132D02*
D03*
X1346436Y484886D02*
D03*
X955373Y628020D02*
D03*
X1369813Y474020D02*
D03*
X967994Y623062D02*
D03*
X1362644Y474073D02*
D03*
X967994Y615950D02*
D03*
X1050724Y485144D02*
D03*
X1133094Y497812D02*
D03*
X1043612Y485144D02*
D03*
X1133094Y504924D02*
D03*
X1062566Y476078D02*
D03*
X1100328Y480822D02*
D03*
X1055454Y476078D02*
D03*
X1100328Y487934D02*
D03*
X748284Y769366D02*
D03*
X800100Y596020D02*
D03*
X755396Y769366D02*
D03*
X800100Y603132D02*
D03*
X791972Y736346D02*
D03*
X809026Y608020D02*
D03*
X784860Y736346D02*
D03*
X809026Y615132D02*
D03*
X383286Y554482D02*
D03*
X450850Y547661D02*
D03*
X540686Y538226D02*
D03*
X551434Y525780D02*
D03*
X836930Y801370D02*
D03*
X217170Y387350D02*
D03*
X239620Y433070D02*
D03*
X519430Y383540D02*
D03*
X540890Y429260D02*
D03*
X856840Y421640D02*
D03*
X834390Y375944D02*
D03*
X1150900Y382948D02*
D03*
X1172210Y426720D02*
D03*
X1454150Y382270D02*
D03*
X1475740Y426720D02*
D03*
X1081065Y670601D02*
D03*
X1069635D02*
D03*
X1058205D02*
D03*
X1048045D02*
D03*
X826767Y519775D02*
D03*
X540766Y516128D02*
D03*
X378460Y591820D02*
D03*
X737108Y767588D02*
D03*
X382778Y564388D02*
D03*
X414020Y624840D02*
D03*
X914177Y727710D02*
D03*
X1058199Y688842D02*
D03*
X1097026Y356362D02*
D03*
X1326288Y393757D02*
D03*
X362712Y347472D02*
D03*
X977646Y346710D02*
D03*
X663194Y366014D02*
D03*
X1361440Y318516D02*
D03*
X494030Y732790D02*
D03*
X388201Y429660D02*
D03*
X59436Y368300D02*
D03*
X1279144Y378206D02*
D03*
X1025190Y549366D02*
D03*
X278130Y82550D02*
D03*
X1160780Y321650D02*
D03*
X1231900Y95250D02*
D03*
X1289273Y402318D02*
D03*
X900430Y717969D02*
D03*
X907333Y807963D02*
D03*
X986449Y402575D02*
D03*
X1549750Y82550D02*
D03*
X727456Y321818D02*
D03*
X937427Y521970D02*
D03*
X711568Y777380D02*
D03*
X358648Y634746D02*
D03*
X594893Y95250D02*
D03*
X278130D02*
D03*
X1294480Y83820D02*
D03*
X1167556Y579034D02*
D03*
X389890Y726440D02*
D03*
X1446784Y331978D02*
D03*
X1335024Y355854D02*
D03*
X51499Y398762D02*
D03*
X358764Y361233D02*
D03*
X976884Y382016D02*
D03*
X207010Y321650D02*
D03*
X976630Y96012D02*
D03*
X584200Y419520D02*
D03*
X928097Y521970D02*
D03*
X765556Y748284D02*
D03*
X1057910Y544170D02*
D03*
X673890Y395967D02*
D03*
X824324Y685800D02*
D03*
X1291844Y352552D02*
D03*
X913130Y82550D02*
D03*
X1478630Y321650D02*
D03*
X657860Y83820D02*
D03*
X1046988Y322072D02*
D03*
X1084712Y743055D02*
D03*
X470705Y548415D02*
D03*
X1399286Y356108D02*
D03*
X1280160Y416560D02*
D03*
X685292Y343662D02*
D03*
X1279398Y388874D02*
D03*
X918632Y521970D02*
D03*
X836930Y791210D02*
D03*
X379148Y624766D02*
D03*
X783470Y349827D02*
D03*
X400558Y358394D02*
D03*
X681228Y354076D02*
D03*
X977488Y358044D02*
D03*
X339622Y96012D02*
D03*
X409194Y321310D02*
D03*
X946668Y522007D02*
D03*
X806196Y529336D02*
D03*
X1226952Y703495D02*
D03*
X929485Y636182D02*
D03*
X1017976Y428648D02*
D03*
X842010Y321650D02*
D03*
X22860Y96012D02*
D03*
X976630Y83820D02*
D03*
X836332Y519775D02*
D03*
X328930Y748030D02*
D03*
X1112561Y743018D02*
D03*
X813562Y674116D02*
D03*
X144780Y321310D02*
D03*
X1294480Y96012D02*
D03*
X1175004Y687061D02*
D03*
X369570Y676910D02*
D03*
X929640Y659130D02*
D03*
X500349Y526827D02*
D03*
X358140Y591820D02*
D03*
X54698Y407397D02*
D03*
X61214Y356870D02*
D03*
X1289304Y363982D02*
D03*
X339622Y83820D02*
D03*
X951230Y562950D02*
D03*
X356108Y392938D02*
D03*
X977138Y371094D02*
D03*
X663194Y377698D02*
D03*
X523773Y321650D02*
D03*
X1231900Y82550D02*
D03*
X620646Y594959D02*
D03*
X338148Y624512D02*
D03*
X405130Y624840D02*
D03*
X511048Y554990D02*
D03*
X1103311Y743018D02*
D03*
X45585Y421640D02*
D03*
X657860Y96012D02*
D03*
X22860Y83820D02*
D03*
X1549750Y95250D02*
D03*
X1167556Y560578D02*
D03*
X926024Y727710D02*
D03*
X1228090Y764540D02*
D03*
X902970Y410210D02*
D03*
X723900Y618490D02*
D03*
X705417Y422040D02*
D03*
X664210Y410967D02*
D03*
X594893Y82550D02*
D03*
X913130Y95250D02*
D03*
X706882Y754888D02*
D03*
X1127975Y332348D02*
D03*
X48762Y387932D02*
D03*
X408940Y665480D02*
D03*
X92964Y321818D02*
D03*
X1521460Y417830D02*
D03*
X1226952Y722202D02*
D03*
X558388Y562604D02*
D03*
X583753Y549922D02*
D03*
X583524Y574715D02*
D03*
X583753Y562375D02*
D03*
X558617Y550036D02*
D03*
X571040Y562274D02*
D03*
X558503Y574715D02*
D03*
X570956Y549808D02*
D03*
X571527Y575172D02*
D03*
X1145282Y670721D02*
D03*
X1126639Y670636D02*
D03*
X1135895D02*
D03*
X1145489Y680719D02*
D03*
X1136083Y690200D02*
D03*
X1145413Y690426D02*
D03*
X1126602Y680606D02*
D03*
X1126715Y690463D02*
D03*
X1136121Y680531D02*
D03*
X429466Y572568D02*
D03*
X416898Y547661D02*
D03*
X429694Y547775D02*
D03*
X417469Y573025D02*
D03*
X429694Y560229D02*
D03*
X416981Y560128D02*
D03*
X404444Y572568D02*
D03*
X1226952Y712905D02*
D03*
X1234694Y746760D02*
D03*
X1244854D02*
D03*
X1265174D02*
D03*
X1255014D02*
D03*
X1202690Y822960D02*
D03*
X1212850D02*
D03*
X1192530D02*
D03*
X1182370D02*
D03*
X1087374Y717296D02*
D03*
X1058199Y698438D02*
D03*
X1369962Y399847D02*
D03*
X1352462Y417347D02*
D03*
X1387462D02*
D03*
Y382300D02*
D03*
X1352462Y382347D02*
D03*
X1413161Y419951D02*
D03*
X1320800Y428390D02*
D03*
X1335957Y443230D02*
D03*
X1084638Y443335D02*
D03*
X1033133Y443488D02*
D03*
X1084638Y382557D02*
D03*
Y417605D02*
D03*
X1049638D02*
D03*
X1067138Y400105D02*
D03*
X797778Y413601D02*
D03*
X772080Y375950D02*
D03*
X393689Y394970D02*
D03*
X454863Y444348D02*
D03*
X356674Y403587D02*
D03*
X480562Y421221D02*
D03*
X454863Y383570D02*
D03*
Y418617D02*
D03*
X419863D02*
D03*
X437363Y401117D02*
D03*
X466361Y356870D02*
D03*
X91713Y398780D02*
D03*
X86225Y433470D02*
D03*
X152887Y387380D02*
D03*
Y422427D02*
D03*
X117887D02*
D03*
X135387Y404927D02*
D03*
X164385Y360680D02*
D03*
X737080Y410997D02*
D03*
X154940Y321310D02*
D03*
X1178973Y504063D02*
D03*
X782385Y553580D02*
D03*
X928544Y588020D02*
D03*
X848360Y661321D02*
D03*
Y649821D02*
D03*
X878700Y661576D02*
D03*
Y650076D02*
D03*
X904292D02*
D03*
Y661576D02*
D03*
X891591D02*
D03*
Y650076D02*
D03*
X917356Y661576D02*
D03*
Y650076D02*
D03*
X918247Y626326D02*
D03*
Y637826D02*
D03*
X892483Y626326D02*
D03*
Y637826D02*
D03*
X905183D02*
D03*
Y626326D02*
D03*
X879591D02*
D03*
Y637826D02*
D03*
X866562Y637576D02*
D03*
Y626076D02*
D03*
Y615865D02*
D03*
X848360Y615132D02*
D03*
Y592843D02*
D03*
X918247Y615132D02*
D03*
Y605326D02*
D03*
X905183Y615132D02*
D03*
X811276Y581660D02*
D03*
X769620Y567690D02*
D03*
X366776Y522478D02*
D03*
X328676Y555498D02*
D03*
X343916Y564388D02*
D03*
X443230Y689610D02*
D03*
X494030Y764540D02*
D03*
X107950Y448124D02*
D03*
X737616Y543560D02*
D03*
X1081024Y618490D02*
D03*
X1069594D02*
D03*
X1059434D02*
D03*
X1049274D02*
D03*
X1001268Y515112D02*
D03*
X404330Y560457D02*
D03*
X404558Y547889D02*
D03*
X419927Y382148D02*
D03*
X116078Y383032D02*
D03*
X732634Y372018D02*
D03*
X752719Y395037D02*
D03*
X774986Y408276D02*
D03*
X1023465Y393958D02*
D03*
X178586Y425031D02*
D03*
X1110256Y420290D02*
D03*
X719327Y349701D02*
D03*
X710906Y387678D02*
D03*
X1049211Y380639D02*
D03*
X94870Y359952D02*
D03*
X471170Y321818D02*
D03*
X790032Y317842D02*
D03*
X1031748Y357632D02*
D03*
X1423924Y333248D02*
D03*
X152887Y448158D02*
D03*
X771972Y439189D02*
D03*
X403024Y443486D02*
D03*
X414871Y356870D02*
D03*
X424862Y444348D02*
D03*
X393518Y649160D02*
D03*
X422656Y628142D02*
D03*
X535940Y546975D02*
D03*
D122*
X1065530Y822960D02*
D03*
X1075690D02*
D03*
X1055370D02*
D03*
X1045210D02*
D03*
Y807720D02*
D03*
Y815340D02*
D03*
X1055370Y807720D02*
D03*
Y815340D02*
D03*
X1045210Y778490D02*
D03*
Y786110D02*
D03*
X1055370Y778490D02*
D03*
Y786110D02*
D03*
M02*
