G04*
G04 #@! TF.GenerationSoftware,Altium Limited,Altium Designer,23.10.1 (27)*
G04*
G04 Layer_Color=255*
%FSLAX44Y44*%
%MOMM*%
G71*
G04*
G04 #@! TF.SameCoordinates,71CC738A-04A0-4CD5-BBD9-20E7C06DD327*
G04*
G04*
G04 #@! TF.FilePolarity,Positive*
G04*
G01*
G75*
%ADD19R,0.7500X0.6000*%
%ADD21R,0.6000X0.7500*%
%ADD25R,1.0000X1.5000*%
%ADD26R,1.2000X2.2000*%
%ADD46R,0.8500X0.9500*%
%ADD94C,1.3970*%
%ADD98R,1.3970X1.3970*%
%ADD111C,1.7000*%
%ADD112R,1.7000X1.7000*%
%ADD113C,0.6000*%
%ADD114O,0.8000X1.4000*%
%ADD115C,1.3980*%
%ADD116R,1.3980X1.3980*%
%ADD117R,1.7000X1.7000*%
G04:AMPARAMS|DCode=118|XSize=1.7mm|YSize=1.7mm|CornerRadius=0mm|HoleSize=0mm|Usage=FLASHONLY|Rotation=90.000|XOffset=0mm|YOffset=0mm|HoleType=Round|Shape=Octagon|*
%AMOCTAGOND118*
4,1,8,0.4250,0.8500,-0.4250,0.8500,-0.8500,0.4250,-0.8500,-0.4250,-0.4250,-0.8500,0.4250,-0.8500,0.8500,-0.4250,0.8500,0.4250,0.4250,0.8500,0.0*
%
%ADD118OCTAGOND118*%

%ADD119C,0.6500*%
%ADD120C,0.3000*%
%ADD125R,1.3500X1.1500*%
D19*
X782739Y341599D02*
D03*
X465652Y348996D02*
D03*
X1096937Y346679D02*
D03*
X1399069Y346301D02*
D03*
X70682Y357083D02*
D03*
X61049Y398811D02*
D03*
X358748Y369756D02*
D03*
X989871Y381973D02*
D03*
X693999Y344015D02*
D03*
X371906Y347602D02*
D03*
X990025Y346792D02*
D03*
X675805Y366112D02*
D03*
X1304887Y364775D02*
D03*
X1290663Y388905D02*
D03*
X938879Y571723D02*
D03*
X844899Y606013D02*
D03*
X844936Y637317D02*
D03*
X844899Y581883D02*
D03*
Y626548D02*
D03*
X141319Y438373D02*
D03*
X152749Y370840D02*
D03*
X758626Y425715D02*
D03*
X772509Y359633D02*
D03*
X441410Y432944D02*
D03*
X455009Y365983D02*
D03*
X122578Y458627D02*
D03*
X113951Y370617D02*
D03*
X732611Y359536D02*
D03*
X1071185Y434563D02*
D03*
X1084929Y365983D02*
D03*
X1374489Y433293D02*
D03*
X1387189Y364713D02*
D03*
X1045369Y433609D02*
D03*
X1046131Y367156D02*
D03*
X1348493Y365244D02*
D03*
X1347629Y432847D02*
D03*
X150209Y347949D02*
D03*
X771239Y341599D02*
D03*
X454152Y348996D02*
D03*
X1085437Y346679D02*
D03*
X1387569Y346301D02*
D03*
X720500Y401107D02*
D03*
X102010Y412537D02*
D03*
X404270Y408727D02*
D03*
X1032270Y407715D02*
D03*
X1337720Y406540D02*
D03*
X370248Y369756D02*
D03*
X483013Y330739D02*
D03*
X383405Y347602D02*
D03*
X687305Y366112D02*
D03*
X797430Y324974D02*
D03*
X705499Y344015D02*
D03*
X72549Y398811D02*
D03*
X163830Y328930D02*
D03*
X82182Y357083D02*
D03*
X1302163Y388905D02*
D03*
X1434941Y323819D02*
D03*
X1316387Y364775D02*
D03*
X1001371Y381973D02*
D03*
X1116171Y324073D02*
D03*
X1001525Y346792D02*
D03*
X856436Y637317D02*
D03*
X808930Y324974D02*
D03*
X1446441Y323819D02*
D03*
X1127671Y324073D02*
D03*
X1336129Y432847D02*
D03*
X113510Y412537D02*
D03*
X721111Y359536D02*
D03*
X404720Y368426D02*
D03*
X856399Y606013D02*
D03*
X784009Y359633D02*
D03*
X1096429Y365983D02*
D03*
X1385989Y433293D02*
D03*
X1398689Y364713D02*
D03*
X1336993Y365244D02*
D03*
X732000Y401107D02*
D03*
X415770Y408727D02*
D03*
X1043770Y407715D02*
D03*
X1349220Y406540D02*
D03*
X175330Y328930D02*
D03*
X950379Y571723D02*
D03*
X856399Y581883D02*
D03*
Y626548D02*
D03*
X161709Y347949D02*
D03*
X1034631Y367156D02*
D03*
X1033869Y433609D02*
D03*
X1082685Y434563D02*
D03*
X770126Y425715D02*
D03*
X152819Y438373D02*
D03*
X102451Y370617D02*
D03*
X164249Y370840D02*
D03*
X452910Y432944D02*
D03*
X466509Y365983D02*
D03*
X111078Y458627D02*
D03*
X471513Y330739D02*
D03*
X416220Y368426D02*
D03*
D21*
X1315497Y392849D02*
D03*
X1421669Y420027D02*
D03*
X939936Y623575D02*
D03*
X939102Y597821D02*
D03*
X914177Y706469D02*
D03*
X902747Y589131D02*
D03*
X867633Y587591D02*
D03*
X834167Y674719D02*
D03*
X866144Y661321D02*
D03*
X926024Y706469D02*
D03*
X917987Y576929D02*
D03*
X939800Y647700D02*
D03*
X824007Y658209D02*
D03*
X890955Y706469D02*
D03*
X168552Y413292D02*
D03*
X77247Y422243D02*
D03*
X720403Y414369D02*
D03*
X788447Y401669D02*
D03*
X403135Y423659D02*
D03*
X472217Y409289D02*
D03*
X125507Y371189D02*
D03*
X127223Y436531D02*
D03*
X733298Y432886D02*
D03*
X744918Y359759D02*
D03*
X746983Y425492D02*
D03*
X100107Y386429D02*
D03*
X82327D02*
D03*
X700817Y374999D02*
D03*
X721137D02*
D03*
X403358Y383271D02*
D03*
X383317D02*
D03*
X1008411Y416909D02*
D03*
X1101072Y409289D02*
D03*
X1310925Y416401D02*
D03*
X1404397Y408019D02*
D03*
X189484Y414020D02*
D03*
X807497Y401669D02*
D03*
X1058133Y431451D02*
D03*
X1057910Y367379D02*
D03*
X1361663Y432721D02*
D03*
X1360345Y366109D02*
D03*
X1032047Y382298D02*
D03*
X1013237Y382619D02*
D03*
X488981Y409543D02*
D03*
X1119663D02*
D03*
X1315497Y381349D02*
D03*
X1335817Y382619D02*
D03*
X1421669Y408527D02*
D03*
X393923Y552031D02*
D03*
X867633Y599091D02*
D03*
X393923Y563531D02*
D03*
X82327Y397929D02*
D03*
X1013237Y394119D02*
D03*
X720403Y425869D02*
D03*
X1119663Y421043D02*
D03*
X746983Y413992D02*
D03*
X415798Y428498D02*
D03*
X428607Y380149D02*
D03*
X428830Y421221D02*
D03*
X383317Y394771D02*
D03*
X700817Y386499D02*
D03*
X917987Y588429D02*
D03*
X939800Y659200D02*
D03*
X914177Y717969D02*
D03*
X902747Y600631D02*
D03*
X788447Y413169D02*
D03*
X1008411Y428409D02*
D03*
X1101072Y420789D02*
D03*
X1310925Y427901D02*
D03*
X1361663Y421221D02*
D03*
X1335817Y394119D02*
D03*
X866144Y649821D02*
D03*
X926024Y717969D02*
D03*
X834167Y686219D02*
D03*
X939936Y635075D02*
D03*
X939102Y586321D02*
D03*
X824007Y669709D02*
D03*
X890955Y717969D02*
D03*
X100107Y397929D02*
D03*
X1057910Y378879D02*
D03*
X1032047Y393798D02*
D03*
X1404397Y419519D02*
D03*
X1058133Y419951D02*
D03*
X733298Y421386D02*
D03*
X744918Y371259D02*
D03*
X168552Y424792D02*
D03*
X127223Y425031D02*
D03*
X77247Y433743D02*
D03*
X125507Y382689D02*
D03*
X472217Y420789D02*
D03*
X403135Y435159D02*
D03*
X403358Y394771D02*
D03*
X1360345Y377609D02*
D03*
X721137Y386499D02*
D03*
X189484Y425520D02*
D03*
X807497Y413169D02*
D03*
X488981Y421043D02*
D03*
X428830Y432721D02*
D03*
X415798Y439998D02*
D03*
X428607Y368649D02*
D03*
D25*
X460602Y306100D02*
D03*
X527603D02*
D03*
X778840D02*
D03*
X845840D02*
D03*
X143840D02*
D03*
X210840D02*
D03*
X1415460D02*
D03*
X1482460D02*
D03*
X1097610D02*
D03*
X1164610D02*
D03*
X502603D02*
D03*
X427603D02*
D03*
X551852D02*
D03*
X568853D02*
D03*
X377603D02*
D03*
X402603D02*
D03*
X477603D02*
D03*
X820840D02*
D03*
X745840D02*
D03*
X870090D02*
D03*
X887090D02*
D03*
X695840D02*
D03*
X720840D02*
D03*
X795840D02*
D03*
X185840D02*
D03*
X110840D02*
D03*
X235090D02*
D03*
X252090D02*
D03*
X60840D02*
D03*
X85840D02*
D03*
X160840D02*
D03*
X1457460D02*
D03*
X1382460D02*
D03*
X1506710D02*
D03*
X1523710D02*
D03*
X1332460D02*
D03*
X1357460D02*
D03*
X1432460D02*
D03*
X1139610D02*
D03*
X1064610D02*
D03*
X1188860D02*
D03*
X1205860D02*
D03*
X1014610D02*
D03*
X1039610D02*
D03*
X1114610D02*
D03*
X602352D02*
D03*
X444103D02*
D03*
X762340D02*
D03*
X920590D02*
D03*
X127340D02*
D03*
X285590D02*
D03*
X1398960D02*
D03*
X1557210D02*
D03*
X1239360D02*
D03*
X1081110D02*
D03*
D26*
X607352Y84100D02*
D03*
X327352Y96100D02*
D03*
X925590Y84100D02*
D03*
X645590Y96100D02*
D03*
X290590Y84100D02*
D03*
X10590Y96100D02*
D03*
X1562210Y84100D02*
D03*
X1282210Y96100D02*
D03*
X1244360Y84100D02*
D03*
X964360Y96100D02*
D03*
D46*
X68510Y368254D02*
D03*
X58858Y387558D02*
D03*
X356546Y380954D02*
D03*
X987756Y370817D02*
D03*
X691826Y355046D02*
D03*
X369758Y358770D02*
D03*
X987756Y358044D02*
D03*
X673675Y377346D02*
D03*
X1302696Y353522D02*
D03*
X1288472Y377906D02*
D03*
X369646Y380954D02*
D03*
X382858Y358770D02*
D03*
X686775Y377346D02*
D03*
X704926Y355046D02*
D03*
X71958Y387558D02*
D03*
X81610Y368254D02*
D03*
X1301572Y377906D02*
D03*
X1315796Y353522D02*
D03*
X1000855Y370817D02*
D03*
X1000856Y358044D02*
D03*
D94*
X706120Y670560D02*
D03*
Y695960D02*
D03*
X680720D02*
D03*
X655320D02*
D03*
X680720Y670560D02*
D03*
D98*
X655320D02*
D03*
D111*
X87630Y493014D02*
D03*
X87884Y465074D02*
D03*
X1259332Y411226D02*
D03*
X1259586Y439166D02*
D03*
X960628Y423418D02*
D03*
Y451612D02*
D03*
X325628Y405892D02*
D03*
Y434594D02*
D03*
X645414Y449072D02*
D03*
Y421386D02*
D03*
X701506Y568960D02*
D03*
X668020D02*
D03*
X701506Y543560D02*
D03*
X668020D02*
D03*
X577850Y668020D02*
D03*
X543560D02*
D03*
X578558Y729963D02*
D03*
Y755363D02*
D03*
X603958Y729963D02*
D03*
X543560Y730250D02*
D03*
D112*
X62230Y493014D02*
D03*
X62484Y465074D02*
D03*
X1233932Y411226D02*
D03*
X1234186Y439166D02*
D03*
X935228Y423418D02*
D03*
Y451612D02*
D03*
X300228Y405892D02*
D03*
Y434594D02*
D03*
X620014Y449072D02*
D03*
Y421386D02*
D03*
X603958Y755363D02*
D03*
D113*
X743780Y805800D02*
D03*
X799780D02*
D03*
X763780Y812800D02*
D03*
X755780D02*
D03*
X747780D02*
D03*
X775780Y805800D02*
D03*
X767780D02*
D03*
X787780Y812800D02*
D03*
X795780D02*
D03*
X759780Y805800D02*
D03*
X783780D02*
D03*
X779780Y812800D02*
D03*
D114*
X813077Y811700D02*
D03*
X730480D02*
D03*
X816680Y855700D02*
D03*
X726880D02*
D03*
D115*
X511556Y622046D02*
D03*
X486156D02*
D03*
Y596646D02*
D03*
X511556D02*
D03*
X486156Y571246D02*
D03*
D116*
X511556D02*
D03*
D117*
X543560Y755650D02*
D03*
X701506Y594360D02*
D03*
X668020D02*
D03*
X543560Y693420D02*
D03*
X577850D02*
D03*
D118*
X750570Y594360D02*
D03*
D119*
X807780Y799300D02*
D03*
D120*
X1543530Y351790D02*
D03*
X306860Y836140D02*
D03*
X1265745Y836140D02*
D03*
X30000Y351790D02*
D03*
D125*
X884010Y589919D02*
D03*
Y607419D02*
D03*
M02*
