G04*
G04 #@! TF.GenerationSoftware,Altium Limited,Altium Designer,23.10.1 (27)*
G04*
G04 Layer_Physical_Order=2*
G04 Layer_Color=7332791*
%FSLAX44Y44*%
%MOMM*%
G71*
G04*
G04 #@! TF.SameCoordinates,71CC738A-04A0-4CD5-BBD9-20E7C06DD327*
G04*
G04*
G04 #@! TF.FilePolarity,Positive*
G04*
G01*
G75*
%ADD94C,1.3970*%
%ADD98R,1.3970X1.3970*%
%ADD106C,0.2540*%
%ADD107C,0.2032*%
%ADD111C,1.7000*%
%ADD112R,1.7000X1.7000*%
%ADD113C,0.6000*%
%ADD114O,0.8000X1.4000*%
%ADD115C,1.3980*%
%ADD116R,1.3980X1.3980*%
%ADD117R,1.7000X1.7000*%
G04:AMPARAMS|DCode=118|XSize=1.7mm|YSize=1.7mm|CornerRadius=0mm|HoleSize=0mm|Usage=FLASHONLY|Rotation=90.000|XOffset=0mm|YOffset=0mm|HoleType=Round|Shape=Octagon|*
%AMOCTAGOND118*
4,1,8,0.4250,0.8500,-0.4250,0.8500,-0.8500,0.4250,-0.8500,-0.4250,-0.4250,-0.8500,0.4250,-0.8500,0.8500,-0.4250,0.8500,0.4250,0.4250,0.8500,0.0*
%
%ADD118OCTAGOND118*%

%ADD119C,0.6500*%
%ADD120C,0.3000*%
%ADD121C,0.5588*%
%ADD122C,0.4572*%
G36*
X1292638Y538381D02*
X1292874Y537192D01*
X1293548Y536183D01*
X1294556Y535510D01*
X1295746Y535273D01*
X1570422D01*
X1570422Y210172D01*
X1561210D01*
X1560417Y210014D01*
X1559745Y209565D01*
X1559296Y208893D01*
X1559138Y208100D01*
Y145100D01*
X1559296Y144307D01*
X1559745Y143635D01*
X1560417Y143186D01*
X1561210Y143028D01*
X1570422D01*
X1570422Y3108D01*
X3108D01*
Y143028D01*
X11590D01*
X12383Y143186D01*
X13055Y143635D01*
X13504Y144307D01*
X13662Y145100D01*
Y208100D01*
X13504Y208893D01*
X13055Y209565D01*
X12383Y210014D01*
X11590Y210172D01*
X3108D01*
X3108Y535372D01*
X276860D01*
X278049Y535609D01*
X279057Y536283D01*
X279731Y537291D01*
X279968Y538480D01*
Y863032D01*
X1292638Y863032D01*
Y538381D01*
D02*
G37*
%LPC*%
G36*
X1267659Y850672D02*
X1263832D01*
X1260136Y849682D01*
X1256823Y847768D01*
X1254117Y845063D01*
X1252204Y841749D01*
X1251213Y838053D01*
Y834227D01*
X1252204Y830531D01*
X1254117Y827217D01*
X1256823Y824511D01*
X1260136Y822598D01*
X1263832Y821608D01*
X1267659D01*
X1271355Y822598D01*
X1274668Y824511D01*
X1277374Y827217D01*
X1279287Y830531D01*
X1280277Y834227D01*
Y838053D01*
X1279287Y841749D01*
X1277374Y845063D01*
X1274668Y847768D01*
X1271355Y849682D01*
X1267659Y850672D01*
D02*
G37*
G36*
X308773Y850672D02*
X304947D01*
X301251Y849682D01*
X297937Y847768D01*
X295231Y845063D01*
X293318Y841749D01*
X292328Y838053D01*
Y834227D01*
X293318Y830531D01*
X295231Y827217D01*
X297937Y824511D01*
X301251Y822598D01*
X304947Y821608D01*
X308773D01*
X312469Y822598D01*
X315783Y824511D01*
X318489Y827217D01*
X320402Y830531D01*
X321392Y834227D01*
Y838053D01*
X320402Y841749D01*
X318489Y845063D01*
X315783Y847768D01*
X312469Y849682D01*
X308773Y850672D01*
D02*
G37*
G36*
X1076549Y827278D02*
X1074831D01*
X1073244Y826621D01*
X1072029Y825406D01*
X1071372Y823819D01*
Y822101D01*
X1072029Y820514D01*
X1073244Y819299D01*
X1074831Y818642D01*
X1076549D01*
X1078136Y819299D01*
X1079351Y820514D01*
X1080008Y822101D01*
Y823819D01*
X1079351Y825406D01*
X1078136Y826621D01*
X1076549Y827278D01*
D02*
G37*
G36*
X1066389D02*
X1064671D01*
X1063084Y826621D01*
X1061869Y825406D01*
X1061212Y823819D01*
Y822101D01*
X1061869Y820514D01*
X1063084Y819299D01*
X1064671Y818642D01*
X1066389D01*
X1067976Y819299D01*
X1069191Y820514D01*
X1069848Y822101D01*
Y823819D01*
X1069191Y825406D01*
X1067976Y826621D01*
X1066389Y827278D01*
D02*
G37*
G36*
X796781Y817832D02*
X794779D01*
X792930Y817066D01*
X791780Y815916D01*
X790630Y817066D01*
X788781Y817832D01*
X786779D01*
X784930Y817066D01*
X783780Y815916D01*
X782630Y817066D01*
X780781Y817832D01*
X778779D01*
X776930Y817066D01*
X775514Y815650D01*
X774748Y813801D01*
Y811799D01*
X774008Y810513D01*
X772930Y810066D01*
X771780Y808916D01*
X770630Y810066D01*
X769551Y810513D01*
X768812Y811799D01*
Y813801D01*
X768046Y815650D01*
X766630Y817066D01*
X764781Y817832D01*
X762779D01*
X760930Y817066D01*
X759780Y815916D01*
X758630Y817066D01*
X756781Y817832D01*
X754779D01*
X752930Y817066D01*
X751780Y815916D01*
X750630Y817066D01*
X748781Y817832D01*
X746779D01*
X744930Y817066D01*
X743514Y815650D01*
X742748Y813801D01*
Y811799D01*
X743514Y809950D01*
X744930Y808534D01*
X746779Y807768D01*
X748781D01*
X750630Y808534D01*
X751780Y809684D01*
X752930Y808534D01*
X754008Y808087D01*
X754748Y806801D01*
Y804799D01*
X755514Y802950D01*
X756930Y801534D01*
X758779Y800768D01*
X760781D01*
X762630Y801534D01*
X763780Y802684D01*
X764930Y801534D01*
X766779Y800768D01*
X768781D01*
X770630Y801534D01*
X771780Y802684D01*
X772930Y801534D01*
X774779Y800768D01*
X776781D01*
X778630Y801534D01*
X779780Y802684D01*
X780930Y801534D01*
X782779Y800768D01*
X784781D01*
X786630Y801534D01*
X788046Y802950D01*
X788812Y804799D01*
Y806801D01*
X789552Y808087D01*
X790630Y808534D01*
X791780Y809684D01*
X792930Y808534D01*
X794779Y807768D01*
X796781D01*
X798630Y808534D01*
X800046Y809950D01*
X800812Y811799D01*
Y813801D01*
X800046Y815650D01*
X798630Y817066D01*
X796781Y817832D01*
D02*
G37*
G36*
X1056229Y827278D02*
X1054511D01*
X1052924Y826621D01*
X1051709Y825406D01*
X1051052Y823819D01*
Y822101D01*
X1051709Y820514D01*
X1052244Y819980D01*
X1052820Y819150D01*
X1052244Y818320D01*
X1051709Y817786D01*
X1051052Y816199D01*
Y814481D01*
X1051709Y812894D01*
X1052244Y812360D01*
X1052820Y811530D01*
X1052244Y810700D01*
X1051709Y810166D01*
X1051052Y808579D01*
Y806861D01*
X1051709Y805274D01*
X1052924Y804059D01*
X1054511Y803402D01*
X1056229D01*
X1057816Y804059D01*
X1059031Y805274D01*
X1059688Y806861D01*
Y808579D01*
X1059031Y810166D01*
X1058496Y810700D01*
X1057920Y811530D01*
X1058496Y812360D01*
X1059031Y812894D01*
X1059688Y814481D01*
Y816199D01*
X1059031Y817786D01*
X1058496Y818320D01*
X1057920Y819150D01*
X1058496Y819980D01*
X1059031Y820514D01*
X1059688Y822101D01*
Y823819D01*
X1059031Y825406D01*
X1057816Y826621D01*
X1056229Y827278D01*
D02*
G37*
G36*
X1046069D02*
X1044351D01*
X1042764Y826621D01*
X1041549Y825406D01*
X1040892Y823819D01*
Y822101D01*
X1041549Y820514D01*
X1042084Y819980D01*
X1042660Y819150D01*
X1042084Y818320D01*
X1041549Y817786D01*
X1040892Y816199D01*
Y814481D01*
X1041549Y812894D01*
X1042084Y812360D01*
X1042660Y811530D01*
X1042084Y810700D01*
X1041549Y810166D01*
X1040892Y808579D01*
Y806861D01*
X1041549Y805274D01*
X1042764Y804059D01*
X1044351Y803402D01*
X1046069D01*
X1047656Y804059D01*
X1048871Y805274D01*
X1049528Y806861D01*
Y808579D01*
X1048871Y810166D01*
X1048336Y810700D01*
X1047760Y811530D01*
X1048336Y812360D01*
X1048871Y812894D01*
X1049528Y814481D01*
Y816199D01*
X1048871Y817786D01*
X1048336Y818320D01*
X1047760Y819150D01*
X1048336Y819980D01*
X1048871Y820514D01*
X1049528Y822101D01*
Y823819D01*
X1048871Y825406D01*
X1047656Y826621D01*
X1046069Y827278D01*
D02*
G37*
G36*
X837890Y806196D02*
X835970D01*
X834196Y805461D01*
X832839Y804104D01*
X832104Y802330D01*
Y800410D01*
X832839Y798636D01*
X834196Y797279D01*
X835970Y796544D01*
X837890D01*
X839664Y797279D01*
X841021Y798636D01*
X841756Y800410D01*
Y802330D01*
X841021Y804104D01*
X839664Y805461D01*
X837890Y806196D01*
D02*
G37*
G36*
X808831Y804582D02*
X806729D01*
X804788Y803778D01*
X803302Y802292D01*
X802498Y800351D01*
Y798249D01*
X803302Y796308D01*
X804788Y794822D01*
X806729Y794018D01*
X808831D01*
X810772Y794822D01*
X812258Y796308D01*
X813062Y798249D01*
Y800351D01*
X812258Y802292D01*
X810772Y803778D01*
X808831Y804582D01*
D02*
G37*
G36*
X737280Y804686D02*
X734280D01*
X732219Y804276D01*
X730472Y803108D01*
X729305Y801361D01*
X728895Y799300D01*
X729305Y797239D01*
X730472Y795492D01*
X732219Y794324D01*
X734280Y793914D01*
X737280D01*
X739341Y794324D01*
X741088Y795492D01*
X742255Y797239D01*
X742665Y799300D01*
X742255Y801361D01*
X741088Y803108D01*
X739341Y804276D01*
X737280Y804686D01*
D02*
G37*
G36*
X879148Y812708D02*
X877228D01*
X875455Y811973D01*
X874097Y810616D01*
X873363Y808842D01*
Y806922D01*
X874097Y805148D01*
X875333Y803912D01*
X875400Y803189D01*
X875333Y802466D01*
X874097Y801230D01*
X873363Y799456D01*
Y797537D01*
X874097Y795763D01*
X875455Y794405D01*
X877228Y793671D01*
X879148D01*
X880922Y794405D01*
X882280Y795763D01*
X883015Y797537D01*
Y799456D01*
X882280Y801230D01*
X881044Y802466D01*
X880977Y803189D01*
X881044Y803912D01*
X882280Y805148D01*
X883015Y806922D01*
Y808842D01*
X882280Y810616D01*
X880922Y811973D01*
X879148Y812708D01*
D02*
G37*
G36*
X1243782Y793750D02*
X1241862D01*
X1240088Y793015D01*
X1238843Y791770D01*
X1238123Y791709D01*
X1237403Y791770D01*
X1236158Y793015D01*
X1234384Y793750D01*
X1232464D01*
X1230690Y793015D01*
X1229333Y791658D01*
X1229031Y790930D01*
X1227657D01*
X1227355Y791658D01*
X1225998Y793015D01*
X1224224Y793750D01*
X1222304D01*
X1220530Y793015D01*
X1219173Y791658D01*
X1218438Y789884D01*
Y787964D01*
X1219173Y786190D01*
X1220249Y785114D01*
X1219173Y784038D01*
X1218438Y782264D01*
Y780344D01*
X1219173Y778570D01*
X1220530Y777213D01*
X1222304Y776478D01*
X1224224D01*
X1225998Y777213D01*
X1227355Y778570D01*
X1227657Y779298D01*
X1229031D01*
X1229333Y778570D01*
X1230536Y777367D01*
X1229333Y776164D01*
X1228598Y774390D01*
Y772470D01*
X1229333Y770696D01*
X1230690Y769339D01*
X1232464Y768604D01*
X1234384D01*
X1236158Y769339D01*
X1237403Y770584D01*
X1238123Y770645D01*
X1238843Y770584D01*
X1240088Y769339D01*
X1241862Y768604D01*
X1243782D01*
X1245556Y769339D01*
X1246913Y770696D01*
X1247648Y772470D01*
Y774390D01*
X1246913Y776164D01*
X1245710Y777367D01*
X1246913Y778570D01*
X1247648Y780344D01*
Y782264D01*
X1246913Y784038D01*
X1245837Y785114D01*
X1246913Y786190D01*
X1247648Y787964D01*
Y789884D01*
X1246913Y791658D01*
X1245556Y793015D01*
X1243782Y793750D01*
D02*
G37*
G36*
X796296Y785876D02*
X794376D01*
X792602Y785141D01*
X791780Y784319D01*
X790958Y785141D01*
X789184Y785876D01*
X787264D01*
X785490Y785141D01*
X784133Y783784D01*
X783398Y782010D01*
Y780090D01*
X784133Y778316D01*
X785490Y776959D01*
X787264Y776224D01*
X789184D01*
X790958Y776959D01*
X791780Y777781D01*
X792602Y776959D01*
X794376Y776224D01*
X796296D01*
X798070Y776959D01*
X799427Y778316D01*
X800162Y780090D01*
Y782010D01*
X799427Y783784D01*
X798070Y785141D01*
X796296Y785876D01*
D02*
G37*
G36*
X775745Y784928D02*
X773825D01*
X772051Y784193D01*
X771229Y783370D01*
X770407Y784193D01*
X768633Y784928D01*
X766713D01*
X764939Y784193D01*
X763582Y782835D01*
X762847Y781061D01*
Y779141D01*
X763582Y777368D01*
X764939Y776010D01*
X766713Y775275D01*
X768633D01*
X770407Y776010D01*
X771229Y776833D01*
X772051Y776010D01*
X773825Y775275D01*
X775745D01*
X777519Y776010D01*
X778876Y777368D01*
X779611Y779141D01*
Y781061D01*
X778876Y782835D01*
X777519Y784193D01*
X775745Y784928D01*
D02*
G37*
G36*
X756356Y774192D02*
X754436D01*
X752662Y773457D01*
X751840Y772635D01*
X751018Y773457D01*
X749244Y774192D01*
X747324D01*
X745550Y773457D01*
X744193Y772100D01*
X743458Y770326D01*
Y768406D01*
X744193Y766632D01*
X745550Y765275D01*
X747324Y764540D01*
X749244D01*
X751018Y765275D01*
X751840Y766097D01*
X752662Y765275D01*
X754436Y764540D01*
X756356D01*
X758130Y765275D01*
X759487Y766632D01*
X760222Y768406D01*
Y770326D01*
X759487Y772100D01*
X758130Y773457D01*
X756356Y774192D01*
D02*
G37*
G36*
X738068Y772414D02*
X736148D01*
X734374Y771679D01*
X733017Y770322D01*
X732282Y768548D01*
Y766628D01*
X733017Y764854D01*
X734374Y763497D01*
X736148Y762762D01*
X738068D01*
X739842Y763497D01*
X741199Y764854D01*
X741934Y766628D01*
Y768548D01*
X741199Y770322D01*
X739842Y771679D01*
X738068Y772414D01*
D02*
G37*
G36*
X985210Y777974D02*
X983290D01*
X981516Y777239D01*
X980159Y775882D01*
X979424Y774108D01*
Y772188D01*
X980159Y770414D01*
X980981Y769592D01*
X980159Y768770D01*
X979424Y766996D01*
Y765076D01*
X980159Y763302D01*
X981516Y761945D01*
X983290Y761210D01*
X985210D01*
X986984Y761945D01*
X988341Y763302D01*
X989076Y765076D01*
Y766996D01*
X988341Y768770D01*
X987519Y769592D01*
X988341Y770414D01*
X989076Y772188D01*
Y774108D01*
X988341Y775882D01*
X986984Y777239D01*
X985210Y777974D01*
D02*
G37*
G36*
X463240Y769366D02*
X461320D01*
X459546Y768631D01*
X458189Y767274D01*
X457454Y765500D01*
Y763580D01*
X458189Y761806D01*
X459546Y760449D01*
X461320Y759714D01*
X463240D01*
X465014Y760449D01*
X466371Y761806D01*
X467106Y763580D01*
Y765500D01*
X466371Y767274D01*
X465014Y768631D01*
X463240Y769366D01*
D02*
G37*
G36*
X390342Y756666D02*
X388422D01*
X386648Y755931D01*
X385291Y754574D01*
X384556Y752800D01*
Y750880D01*
X385291Y749106D01*
X386648Y747749D01*
X388422Y747014D01*
X390342D01*
X392116Y747749D01*
X393473Y749106D01*
X394208Y750880D01*
Y752800D01*
X393473Y754574D01*
X392116Y755931D01*
X390342Y756666D01*
D02*
G37*
G36*
X554092Y766182D02*
X533028D01*
Y745118D01*
X554092D01*
Y766182D01*
D02*
G37*
G36*
X614490Y765895D02*
X593426D01*
Y744831D01*
X614490D01*
Y765895D01*
D02*
G37*
G36*
X579944D02*
X577171D01*
X574493Y765177D01*
X572091Y763791D01*
X570130Y761830D01*
X568744Y759428D01*
X568026Y756750D01*
Y753977D01*
X568744Y751298D01*
X570130Y748896D01*
X572091Y746935D01*
X574493Y745549D01*
X577171Y744831D01*
X579944D01*
X582623Y745549D01*
X585025Y746935D01*
X586986Y748896D01*
X588372Y751298D01*
X589090Y753977D01*
Y756750D01*
X588372Y759428D01*
X586986Y761830D01*
X585025Y763791D01*
X582623Y765177D01*
X579944Y765895D01*
D02*
G37*
G36*
X792932Y741172D02*
X791012D01*
X789238Y740437D01*
X788416Y739615D01*
X787594Y740437D01*
X785820Y741172D01*
X783900D01*
X782126Y740437D01*
X780769Y739080D01*
X780034Y737306D01*
Y735386D01*
X780769Y733612D01*
X782126Y732255D01*
X783900Y731520D01*
X785820D01*
X787594Y732255D01*
X788416Y733077D01*
X789238Y732255D01*
X791012Y731520D01*
X792932D01*
X794706Y732255D01*
X796063Y733612D01*
X796798Y735386D01*
Y737306D01*
X796063Y739080D01*
X794706Y740437D01*
X792932Y741172D01*
D02*
G37*
G36*
X1094965Y747881D02*
X1093045D01*
X1091271Y747146D01*
X1089914Y745789D01*
X1089179Y744015D01*
Y742095D01*
X1089914Y740321D01*
X1091271Y738964D01*
X1093045Y738229D01*
X1094965D01*
X1096739Y738964D01*
X1098096Y740321D01*
X1098831Y742095D01*
Y744015D01*
X1098096Y745789D01*
X1096739Y747146D01*
X1094965Y747881D01*
D02*
G37*
G36*
X1076406Y747844D02*
X1074486D01*
X1072713Y747109D01*
X1071355Y745752D01*
X1070620Y743978D01*
Y742058D01*
X1071355Y740284D01*
X1072713Y738927D01*
X1074486Y738192D01*
X1076406D01*
X1078180Y738927D01*
X1079538Y740284D01*
X1080273Y742058D01*
Y743978D01*
X1079538Y745752D01*
X1078180Y747109D01*
X1076406Y747844D01*
D02*
G37*
G36*
X494990Y746506D02*
X493070D01*
X491296Y745771D01*
X489939Y744414D01*
X489204Y742640D01*
Y740720D01*
X489939Y738946D01*
X491296Y737589D01*
X493070Y736854D01*
X494990D01*
X496764Y737589D01*
X498121Y738946D01*
X498856Y740720D01*
Y742640D01*
X498121Y744414D01*
X496764Y745771D01*
X494990Y746506D01*
D02*
G37*
G36*
X889290Y734772D02*
X887371D01*
X885597Y734038D01*
X884239Y732680D01*
X884182Y732542D01*
X882808D01*
X882751Y732680D01*
X881393Y734038D01*
X879619Y734772D01*
X877699D01*
X875926Y734038D01*
X874568Y732680D01*
X874506Y732529D01*
X873236D01*
X873173Y732680D01*
X871816Y734038D01*
X870042Y734772D01*
X868122D01*
X866348Y734038D01*
X864991Y732680D01*
X864256Y730906D01*
Y728986D01*
X864991Y727213D01*
X866348Y725855D01*
X868122Y725120D01*
X870042D01*
X871816Y725855D01*
X873173Y727213D01*
X873236Y727363D01*
X874506D01*
X874568Y727213D01*
X875926Y725855D01*
X877699Y725120D01*
X879619D01*
X881393Y725855D01*
X882751Y727213D01*
X882808Y727350D01*
X884182D01*
X884239Y727213D01*
X885597Y725855D01*
X887371Y725120D01*
X889290D01*
X891064Y725855D01*
X892422Y727213D01*
X893157Y728986D01*
Y730906D01*
X892422Y732680D01*
X891064Y734038D01*
X889290Y734772D01*
D02*
G37*
G36*
X1228034Y736346D02*
X1226114D01*
X1224340Y735611D01*
X1222983Y734254D01*
X1222248Y732480D01*
Y730560D01*
X1222983Y728786D01*
X1224340Y727429D01*
X1226114Y726694D01*
X1228034D01*
X1229808Y727429D01*
X1231165Y728786D01*
X1231900Y730560D01*
Y732480D01*
X1231165Y734254D01*
X1229808Y735611D01*
X1228034Y736346D01*
D02*
G37*
G36*
X329382Y744220D02*
X327462D01*
X325688Y743485D01*
X324331Y742128D01*
X323596Y740354D01*
Y738434D01*
X324331Y736660D01*
X325593Y735398D01*
X325692Y735225D01*
X325755Y733900D01*
X324839Y732984D01*
X324104Y731210D01*
Y729290D01*
X324839Y727516D01*
X326196Y726159D01*
X327970Y725424D01*
X329890D01*
X331664Y726159D01*
X333021Y727516D01*
X333756Y729290D01*
Y731210D01*
X333021Y732984D01*
X331759Y734246D01*
X331660Y734419D01*
X331597Y735744D01*
X332513Y736660D01*
X333248Y738434D01*
Y740354D01*
X332513Y742128D01*
X331156Y743485D01*
X329382Y744220D01*
D02*
G37*
G36*
X605345Y740495D02*
X602571D01*
X599893Y739777D01*
X597491Y738391D01*
X595530Y736430D01*
X594144Y734028D01*
X593426Y731350D01*
Y728577D01*
X594144Y725898D01*
X595530Y723496D01*
X597491Y721535D01*
X599893Y720149D01*
X602571Y719431D01*
X605345D01*
X608023Y720149D01*
X610425Y721535D01*
X612386Y723496D01*
X613772Y725898D01*
X614490Y728577D01*
Y731350D01*
X613772Y734028D01*
X612386Y736430D01*
X610425Y738391D01*
X608023Y739777D01*
X605345Y740495D01*
D02*
G37*
G36*
X579944D02*
X577171D01*
X574493Y739777D01*
X572091Y738391D01*
X570130Y736430D01*
X568744Y734028D01*
X568026Y731350D01*
Y728577D01*
X568744Y725898D01*
X570130Y723496D01*
X572091Y721535D01*
X574493Y720149D01*
X577171Y719431D01*
X579944D01*
X582623Y720149D01*
X585025Y721535D01*
X586986Y723496D01*
X588372Y725898D01*
X589090Y728577D01*
Y731350D01*
X588372Y734028D01*
X586986Y736430D01*
X585025Y738391D01*
X582623Y739777D01*
X579944Y740495D01*
D02*
G37*
G36*
X1269944Y698246D02*
X1268024D01*
X1266250Y697511D01*
X1264893Y696154D01*
X1264591Y695426D01*
X1263217D01*
X1262915Y696154D01*
X1261558Y697511D01*
X1259784Y698246D01*
X1257864D01*
X1256090Y697511D01*
X1254733Y696154D01*
X1253998Y694380D01*
Y692460D01*
X1254733Y690686D01*
X1256090Y689329D01*
X1257864Y688594D01*
X1259784D01*
X1261558Y689329D01*
X1262915Y690686D01*
X1263217Y691414D01*
X1264591D01*
X1264893Y690686D01*
X1266250Y689329D01*
X1268024Y688594D01*
X1269944D01*
X1271718Y689329D01*
X1273075Y690686D01*
X1273810Y692460D01*
Y694380D01*
X1273075Y696154D01*
X1271718Y697511D01*
X1269944Y698246D01*
D02*
G37*
G36*
X915360Y699878D02*
X913440D01*
X911666Y699143D01*
X910309Y697785D01*
X909574Y696012D01*
Y694092D01*
X910309Y692318D01*
X911666Y690961D01*
X913440Y690226D01*
X915360D01*
X917134Y690961D01*
X918491Y692318D01*
X919226Y694092D01*
Y696012D01*
X918491Y697785D01*
X917134Y699143D01*
X915360Y699878D01*
D02*
G37*
G36*
X892138D02*
X890218D01*
X888445Y699143D01*
X887087Y697785D01*
X886352Y696012D01*
Y694092D01*
X887087Y692318D01*
X888445Y690961D01*
X890218Y690226D01*
X892138D01*
X893912Y690961D01*
X895269Y692318D01*
X896004Y694092D01*
Y696012D01*
X895269Y697785D01*
X893912Y699143D01*
X892138Y699878D01*
D02*
G37*
G36*
X855670Y708576D02*
X853750D01*
X851976Y707841D01*
X850619Y706483D01*
X849884Y704710D01*
Y702790D01*
X850619Y701016D01*
X851404Y700230D01*
X851841Y699401D01*
X851404Y698571D01*
X850619Y697785D01*
X849884Y696012D01*
Y694092D01*
X850619Y692318D01*
X851976Y690961D01*
X853750Y690226D01*
X855670D01*
X857444Y690961D01*
X858801Y692318D01*
X859536Y694092D01*
Y696012D01*
X858801Y697785D01*
X858016Y698571D01*
X857579Y699401D01*
X858016Y700230D01*
X858801Y701016D01*
X859536Y702790D01*
Y704710D01*
X858801Y706483D01*
X857444Y707841D01*
X855670Y708576D01*
D02*
G37*
G36*
X843207Y699878D02*
X841287D01*
X839513Y699143D01*
X838156Y697785D01*
X837421Y696012D01*
Y694092D01*
X838156Y692318D01*
X839513Y690961D01*
X841287Y690226D01*
X843207D01*
X844981Y690961D01*
X846338Y692318D01*
X847073Y694092D01*
Y696012D01*
X846338Y697785D01*
X844981Y699143D01*
X843207Y699878D01*
D02*
G37*
G36*
X927207Y699725D02*
X925287D01*
X923513Y698990D01*
X922156Y697633D01*
X921421Y695859D01*
Y693939D01*
X922156Y692165D01*
X923513Y690808D01*
X925287Y690073D01*
X927207D01*
X928981Y690808D01*
X930338Y692165D01*
X931073Y693939D01*
Y695859D01*
X930338Y697633D01*
X928981Y698990D01*
X927207Y699725D01*
D02*
G37*
G36*
X867522Y699415D02*
X865602D01*
X863828Y698680D01*
X862471Y697323D01*
X861736Y695549D01*
Y693629D01*
X862471Y691855D01*
X863828Y690498D01*
X865602Y689763D01*
X867522D01*
X869296Y690498D01*
X870653Y691855D01*
X871388Y693629D01*
Y695549D01*
X870653Y697323D01*
X869296Y698680D01*
X867522Y699415D01*
D02*
G37*
G36*
X1248354Y698246D02*
X1246434D01*
X1244660Y697511D01*
X1243303Y696154D01*
X1242568Y694380D01*
Y692460D01*
X1243303Y690686D01*
X1244660Y689329D01*
X1246434Y688594D01*
X1248354D01*
X1250128Y689329D01*
X1251485Y690686D01*
X1252220Y692460D01*
Y694380D01*
X1251485Y696154D01*
X1250128Y697511D01*
X1248354Y698246D01*
D02*
G37*
G36*
X1236924D02*
X1235004D01*
X1233230Y697511D01*
X1231873Y696154D01*
X1231138Y694380D01*
Y692460D01*
X1231873Y690686D01*
X1233230Y689329D01*
X1235004Y688594D01*
X1236924D01*
X1238698Y689329D01*
X1240055Y690686D01*
X1240790Y692460D01*
Y694380D01*
X1240055Y696154D01*
X1238698Y697511D01*
X1236924Y698246D01*
D02*
G37*
G36*
X707307Y704977D02*
X704933D01*
X702640Y704362D01*
X700583Y703175D01*
X698905Y701497D01*
X697718Y699440D01*
X697103Y697147D01*
Y694773D01*
X697718Y692480D01*
X698905Y690423D01*
X700583Y688745D01*
X702640Y687558D01*
X704933Y686943D01*
X707307D01*
X709600Y687558D01*
X711657Y688745D01*
X713335Y690423D01*
X714522Y692480D01*
X715137Y694773D01*
Y697147D01*
X714522Y699440D01*
X713335Y701497D01*
X711657Y703175D01*
X709600Y704362D01*
X707307Y704977D01*
D02*
G37*
G36*
X681907D02*
X679533D01*
X677240Y704362D01*
X675183Y703175D01*
X673505Y701497D01*
X672318Y699440D01*
X671703Y697147D01*
Y694773D01*
X672318Y692480D01*
X673505Y690423D01*
X675183Y688745D01*
X677240Y687558D01*
X679533Y686943D01*
X681907D01*
X684200Y687558D01*
X686257Y688745D01*
X687935Y690423D01*
X689122Y692480D01*
X689737Y694773D01*
Y697147D01*
X689122Y699440D01*
X687935Y701497D01*
X686257Y703175D01*
X684200Y704362D01*
X681907Y704977D01*
D02*
G37*
G36*
X656507D02*
X654133D01*
X651840Y704362D01*
X649783Y703175D01*
X648105Y701497D01*
X646917Y699440D01*
X646303Y697147D01*
Y694773D01*
X646917Y692480D01*
X648105Y690423D01*
X649783Y688745D01*
X651840Y687558D01*
X654133Y686943D01*
X656507D01*
X658800Y687558D01*
X660857Y688745D01*
X662535Y690423D01*
X663723Y692480D01*
X664337Y694773D01*
Y697147D01*
X663723Y699440D01*
X662535Y701497D01*
X660857Y703175D01*
X658800Y704362D01*
X656507Y704977D01*
D02*
G37*
G36*
X739084Y694436D02*
X737164D01*
X735390Y693701D01*
X734033Y692344D01*
X733298Y690570D01*
Y688650D01*
X734033Y686876D01*
X735390Y685519D01*
X737164Y684784D01*
X739084D01*
X740858Y685519D01*
X742215Y686876D01*
X742950Y688650D01*
Y690570D01*
X742215Y692344D01*
X740858Y693701D01*
X739084Y694436D01*
D02*
G37*
G36*
X412440D02*
X410520D01*
X408746Y693701D01*
X407389Y692344D01*
X406654Y690570D01*
Y688650D01*
X407389Y686876D01*
X408746Y685519D01*
X410520Y684784D01*
X412440D01*
X414214Y685519D01*
X415571Y686876D01*
X416306Y688650D01*
Y690570D01*
X415571Y692344D01*
X414214Y693701D01*
X412440Y694436D01*
D02*
G37*
G36*
X588382Y703952D02*
X567318D01*
Y682888D01*
X588382D01*
Y703952D01*
D02*
G37*
G36*
X554092D02*
X533028D01*
Y682888D01*
X554092D01*
Y703952D01*
D02*
G37*
G36*
X370530Y690626D02*
X368610D01*
X366836Y689891D01*
X365479Y688534D01*
X364744Y686760D01*
Y684840D01*
X365479Y683066D01*
X366836Y681709D01*
X368610Y680974D01*
X370530D01*
X372304Y681709D01*
X373661Y683066D01*
X374396Y684840D01*
Y686760D01*
X373661Y688534D01*
X372304Y689891D01*
X370530Y690626D01*
D02*
G37*
G36*
X1059165Y675427D02*
X1057245D01*
X1055471Y674692D01*
X1054113Y673334D01*
X1053812Y672607D01*
X1052437D01*
X1052136Y673334D01*
X1050778Y674692D01*
X1049005Y675427D01*
X1047085D01*
X1045311Y674692D01*
X1043953Y673334D01*
X1043219Y671561D01*
Y669641D01*
X1043953Y667867D01*
X1045311Y666509D01*
X1047085Y665775D01*
X1049005D01*
X1050778Y666509D01*
X1052136Y667867D01*
X1052437Y668595D01*
X1053812D01*
X1054113Y667867D01*
X1055471Y666509D01*
X1057245Y665775D01*
X1059165D01*
X1060938Y666509D01*
X1062296Y667867D01*
X1063031Y669641D01*
Y671561D01*
X1062296Y673334D01*
X1060938Y674692D01*
X1059165Y675427D01*
D02*
G37*
G36*
X867522Y678402D02*
X865602D01*
X863828Y677667D01*
X862471Y676309D01*
X861736Y674536D01*
Y672616D01*
X862471Y670842D01*
X863828Y669484D01*
X865602Y668750D01*
X867522D01*
X869296Y669484D01*
X870653Y670842D01*
X871388Y672616D01*
Y674536D01*
X870653Y676309D01*
X869296Y677667D01*
X867522Y678402D01*
D02*
G37*
G36*
X1082025Y675427D02*
X1080105D01*
X1078331Y674692D01*
X1076973Y673334D01*
X1076239Y671561D01*
Y669641D01*
X1076973Y667867D01*
X1078331Y666509D01*
X1080105Y665775D01*
X1082025D01*
X1083798Y666509D01*
X1085156Y667867D01*
X1085891Y669641D01*
Y671561D01*
X1085156Y673334D01*
X1083798Y674692D01*
X1082025Y675427D01*
D02*
G37*
G36*
X1070595D02*
X1068675D01*
X1066901Y674692D01*
X1065543Y673334D01*
X1064809Y671561D01*
Y669641D01*
X1065543Y667867D01*
X1066901Y666509D01*
X1068675Y665775D01*
X1070595D01*
X1072368Y666509D01*
X1073726Y667867D01*
X1074461Y669641D01*
Y671561D01*
X1073726Y673334D01*
X1072368Y674692D01*
X1070595Y675427D01*
D02*
G37*
G36*
X707307Y679577D02*
X704933D01*
X702640Y678962D01*
X700583Y677775D01*
X698905Y676097D01*
X697718Y674040D01*
X697103Y671747D01*
Y669373D01*
X697718Y667080D01*
X698905Y665023D01*
X700583Y663345D01*
X702640Y662158D01*
X704933Y661543D01*
X707307D01*
X709600Y662158D01*
X711657Y663345D01*
X713335Y665023D01*
X714522Y667080D01*
X715137Y669373D01*
Y671747D01*
X714522Y674040D01*
X713335Y676097D01*
X711657Y677775D01*
X709600Y678962D01*
X707307Y679577D01*
D02*
G37*
G36*
X681907D02*
X679533D01*
X677240Y678962D01*
X675183Y677775D01*
X673505Y676097D01*
X672318Y674040D01*
X671703Y671747D01*
Y669373D01*
X672318Y667080D01*
X673505Y665023D01*
X675183Y663345D01*
X677240Y662158D01*
X679533Y661543D01*
X681907D01*
X684200Y662158D01*
X686257Y663345D01*
X687935Y665023D01*
X689122Y667080D01*
X689737Y669373D01*
Y671747D01*
X689122Y674040D01*
X687935Y676097D01*
X686257Y677775D01*
X684200Y678962D01*
X681907Y679577D01*
D02*
G37*
G36*
X664337D02*
X646303D01*
Y661543D01*
X664337D01*
Y679577D01*
D02*
G37*
G36*
X579237Y678552D02*
X576463D01*
X573785Y677834D01*
X571383Y676448D01*
X569422Y674487D01*
X568036Y672085D01*
X567318Y669407D01*
Y666633D01*
X568036Y663955D01*
X569422Y661553D01*
X571383Y659592D01*
X573785Y658206D01*
X576463Y657488D01*
X579237D01*
X581915Y658206D01*
X584317Y659592D01*
X586278Y661553D01*
X587664Y663955D01*
X588382Y666633D01*
Y669407D01*
X587664Y672085D01*
X586278Y674487D01*
X584317Y676448D01*
X581915Y677834D01*
X579237Y678552D01*
D02*
G37*
G36*
X544947D02*
X542173D01*
X539495Y677834D01*
X537093Y676448D01*
X535132Y674487D01*
X533746Y672085D01*
X533028Y669407D01*
Y666633D01*
X533746Y663955D01*
X535132Y661553D01*
X537093Y659592D01*
X539495Y658206D01*
X542173Y657488D01*
X544947D01*
X547625Y658206D01*
X550027Y659592D01*
X551988Y661553D01*
X553374Y663955D01*
X554092Y666633D01*
Y669407D01*
X553374Y672085D01*
X551988Y674487D01*
X550027Y676448D01*
X547625Y677834D01*
X544947Y678552D01*
D02*
G37*
G36*
X835350Y670402D02*
X833430D01*
X831656Y669667D01*
X830299Y668309D01*
X829564Y666536D01*
Y664616D01*
X830299Y662842D01*
X831565Y661576D01*
X830299Y660309D01*
X829564Y658536D01*
Y656616D01*
X830299Y654842D01*
X831656Y653484D01*
X833430Y652750D01*
X835350D01*
X837124Y653484D01*
X838481Y654842D01*
X839216Y656616D01*
Y658536D01*
X838481Y660309D01*
X837215Y661576D01*
X838481Y662842D01*
X839216Y664616D01*
Y666536D01*
X838481Y668309D01*
X837124Y669667D01*
X835350Y670402D01*
D02*
G37*
G36*
X394478Y653986D02*
X392559D01*
X390785Y653252D01*
X389427Y651894D01*
X388693Y650120D01*
Y648200D01*
X389427Y646427D01*
X390785Y645069D01*
X392559Y644334D01*
X394478D01*
X396252Y645069D01*
X397610Y646427D01*
X398344Y648200D01*
Y650120D01*
X397610Y651894D01*
X396252Y653252D01*
X394478Y653986D01*
D02*
G37*
G36*
X930445Y650440D02*
X928525D01*
X926751Y649705D01*
X925394Y648347D01*
X924659Y646574D01*
Y644654D01*
X925394Y642880D01*
X926751Y641523D01*
X928525Y640788D01*
X930445D01*
X932218Y641523D01*
X933576Y642880D01*
X934311Y644654D01*
Y646574D01*
X933576Y648347D01*
X932218Y649705D01*
X930445Y650440D01*
D02*
G37*
G36*
X835350Y642402D02*
X833430D01*
X831656Y641667D01*
X830299Y640309D01*
X829564Y638536D01*
Y636616D01*
X830299Y634842D01*
X831656Y633484D01*
X833430Y632750D01*
X835350D01*
X837124Y633484D01*
X838481Y634842D01*
X839216Y636616D01*
Y638536D01*
X838481Y640309D01*
X837124Y641667D01*
X835350Y642402D01*
D02*
G37*
G36*
X423616Y632968D02*
X421696D01*
X419922Y632233D01*
X418565Y630876D01*
X417991Y629490D01*
X417001Y629043D01*
X416560Y629011D01*
X414980Y629666D01*
X413060D01*
X411286Y628931D01*
X409929Y627574D01*
X409194Y625800D01*
Y623880D01*
X409929Y622106D01*
X411286Y620749D01*
X413060Y620014D01*
X414980D01*
X416754Y620749D01*
X418111Y622106D01*
X418685Y623492D01*
X419675Y623939D01*
X420116Y623970D01*
X421696Y623316D01*
X423616D01*
X425390Y624051D01*
X426747Y625408D01*
X427482Y627182D01*
Y629102D01*
X426747Y630876D01*
X425390Y632233D01*
X423616Y632968D01*
D02*
G37*
G36*
X953615Y653158D02*
X951695D01*
X949921Y652423D01*
X948564Y651065D01*
X947829Y649292D01*
Y647372D01*
X948564Y645598D01*
X949921Y644240D01*
X951695Y643506D01*
X952858D01*
Y642343D01*
X953443Y640930D01*
X953092Y639411D01*
X952639Y639223D01*
X951282Y637865D01*
X950547Y636092D01*
Y634172D01*
X951282Y632398D01*
X952104Y631576D01*
X951282Y630753D01*
X950547Y628980D01*
Y627060D01*
X951282Y625286D01*
X952639Y623928D01*
X954413Y623194D01*
X956333D01*
X958107Y623928D01*
X959464Y625286D01*
X960199Y627060D01*
Y628980D01*
X959464Y630753D01*
X958642Y631576D01*
X959464Y632398D01*
X960199Y634172D01*
Y636092D01*
X959614Y637504D01*
X959965Y639024D01*
X960418Y639212D01*
X961775Y640569D01*
X962510Y642343D01*
Y644263D01*
X961775Y646037D01*
X960418Y647394D01*
X958644Y648129D01*
X957481D01*
Y649292D01*
X956746Y651065D01*
X955389Y652423D01*
X953615Y653158D01*
D02*
G37*
G36*
X834983Y630402D02*
X833063D01*
X831290Y629667D01*
X829932Y628309D01*
X829197Y626536D01*
Y624616D01*
X829932Y622842D01*
X831290Y621484D01*
X833063Y620750D01*
X834983D01*
X836757Y621484D01*
X838114Y622842D01*
X838849Y624616D01*
Y626536D01*
X838114Y628309D01*
X836757Y629667D01*
X834983Y630402D01*
D02*
G37*
G36*
X512744Y631068D02*
X510368D01*
X508074Y630453D01*
X506016Y629265D01*
X504337Y627586D01*
X503149Y625528D01*
X502534Y623234D01*
Y620858D01*
X503149Y618564D01*
X504337Y616506D01*
X506016Y614827D01*
X508074Y613639D01*
X510368Y613024D01*
X512744D01*
X515038Y613639D01*
X517096Y614827D01*
X518775Y616506D01*
X519963Y618564D01*
X520578Y620858D01*
Y623234D01*
X519963Y625528D01*
X518775Y627586D01*
X517096Y629265D01*
X515038Y630453D01*
X512744Y631068D01*
D02*
G37*
G36*
X794710Y629600D02*
X792790D01*
X791016Y628865D01*
X789659Y627507D01*
X788924Y625733D01*
Y623814D01*
X789659Y622040D01*
X790481Y621218D01*
X789659Y620395D01*
X788924Y618621D01*
Y616702D01*
X789659Y614928D01*
X791016Y613570D01*
X792790Y612836D01*
X794710D01*
X796484Y613570D01*
X797841Y614928D01*
X798576Y616702D01*
Y618621D01*
X797841Y620395D01*
X797019Y621218D01*
X797841Y622040D01*
X798576Y623814D01*
Y625733D01*
X797841Y627507D01*
X796484Y628865D01*
X794710Y629600D01*
D02*
G37*
G36*
X968954Y627888D02*
X967034D01*
X965260Y627153D01*
X963903Y625796D01*
X963168Y624022D01*
Y622102D01*
X963903Y620328D01*
X964725Y619506D01*
X963903Y618684D01*
X963168Y616910D01*
Y614990D01*
X963903Y613216D01*
X965260Y611859D01*
X967034Y611124D01*
X968954D01*
X970728Y611859D01*
X972085Y613216D01*
X972820Y614990D01*
Y616910D01*
X972085Y618684D01*
X971263Y619506D01*
X972085Y620328D01*
X972820Y622102D01*
Y624022D01*
X972085Y625796D01*
X970728Y627153D01*
X968954Y627888D01*
D02*
G37*
G36*
X809986Y619958D02*
X808066D01*
X806292Y619223D01*
X804934Y617865D01*
X804200Y616092D01*
Y614172D01*
X804934Y612398D01*
X805757Y611576D01*
X804934Y610753D01*
X804200Y608980D01*
Y607653D01*
X802930Y607127D01*
X802834Y607223D01*
X801060Y607958D01*
X799140D01*
X797366Y607223D01*
X796009Y605865D01*
X795274Y604092D01*
Y602172D01*
X796009Y600398D01*
X796831Y599576D01*
X796009Y598753D01*
X795274Y596980D01*
Y595060D01*
X796009Y593286D01*
X797366Y591928D01*
X799140Y591194D01*
X801060D01*
X802834Y591928D01*
X804191Y593286D01*
X804926Y595060D01*
Y596980D01*
X804191Y598753D01*
X803369Y599576D01*
X804191Y600398D01*
X804926Y602172D01*
Y603498D01*
X806196Y604024D01*
X806292Y603928D01*
X808066Y603194D01*
X809986D01*
X811759Y603928D01*
X813117Y605286D01*
X813852Y607060D01*
Y608980D01*
X813117Y610753D01*
X812295Y611576D01*
X813117Y612398D01*
X813852Y614172D01*
Y616092D01*
X813117Y617865D01*
X811759Y619223D01*
X809986Y619958D01*
D02*
G37*
G36*
X577286Y604266D02*
X575366D01*
X573592Y603531D01*
X572235Y602174D01*
X571955Y601499D01*
X570580D01*
X570511Y601666D01*
X569154Y603023D01*
X567380Y603758D01*
X565460D01*
X563686Y603023D01*
X562329Y601666D01*
X561594Y599892D01*
Y597972D01*
X562329Y596198D01*
X563686Y594841D01*
X565460Y594106D01*
X567380D01*
X569154Y594841D01*
X570511Y596198D01*
X570791Y596873D01*
X572165D01*
X572235Y596706D01*
X573592Y595349D01*
X575366Y594614D01*
X577286D01*
X579060Y595349D01*
X580417Y596706D01*
X581152Y598480D01*
Y600400D01*
X580417Y602174D01*
X579060Y603531D01*
X577286Y604266D01*
D02*
G37*
G36*
X834983Y610616D02*
X833063D01*
X831290Y609881D01*
X829932Y608524D01*
X829197Y606750D01*
Y604830D01*
X829932Y603056D01*
X831290Y601699D01*
X833063Y600964D01*
X834983D01*
X836757Y601699D01*
X838114Y603056D01*
X838849Y604830D01*
Y606750D01*
X838114Y608524D01*
X836757Y609881D01*
X834983Y610616D01*
D02*
G37*
G36*
X439872Y607060D02*
X437952D01*
X436178Y606325D01*
X434821Y604968D01*
X434086Y603194D01*
Y601274D01*
X434821Y599500D01*
X436178Y598143D01*
X437952Y597408D01*
X439872D01*
X441646Y598143D01*
X443003Y599500D01*
X443738Y601274D01*
Y603194D01*
X443003Y604968D01*
X441646Y606325D01*
X439872Y607060D01*
D02*
G37*
G36*
X930785Y628401D02*
X928865D01*
X927091Y627666D01*
X925734Y626308D01*
X924999Y624535D01*
Y622615D01*
X925734Y620841D01*
X926041Y620534D01*
X925793Y619288D01*
X925636Y619223D01*
X924279Y617865D01*
X923544Y616092D01*
Y614172D01*
X924279Y612398D01*
X925101Y611576D01*
X924279Y610753D01*
X923544Y608980D01*
Y607060D01*
X924279Y605286D01*
X925636Y603928D01*
X925989Y603782D01*
Y602407D01*
X925636Y602261D01*
X924279Y600904D01*
X923544Y599130D01*
Y597210D01*
X924279Y595436D01*
X925636Y594079D01*
X927410Y593344D01*
X929330D01*
X931104Y594079D01*
X932461Y595436D01*
X933196Y597210D01*
Y599130D01*
X932461Y600904D01*
X931104Y602261D01*
X930751Y602407D01*
Y603782D01*
X931104Y603928D01*
X932461Y605286D01*
X933196Y607060D01*
Y608980D01*
X932461Y610753D01*
X931639Y611576D01*
X932461Y612398D01*
X933196Y614172D01*
Y616092D01*
X932461Y617865D01*
X932154Y618173D01*
X932402Y619418D01*
X932559Y619483D01*
X933916Y620841D01*
X934651Y622615D01*
Y624535D01*
X933916Y626308D01*
X932559Y627666D01*
X930785Y628401D01*
D02*
G37*
G36*
X425140Y599186D02*
X423220D01*
X421446Y598451D01*
X420089Y597094D01*
X419354Y595320D01*
Y593400D01*
X420089Y591626D01*
X421446Y590269D01*
X423220Y589534D01*
X425140D01*
X426914Y590269D01*
X428271Y591626D01*
X429006Y593400D01*
Y595320D01*
X428271Y597094D01*
X426914Y598451D01*
X425140Y599186D01*
D02*
G37*
G36*
X449524Y598678D02*
X447604D01*
X445830Y597943D01*
X444473Y596586D01*
X443738Y594812D01*
Y592892D01*
X444473Y591118D01*
X445830Y589761D01*
X447604Y589026D01*
X449524D01*
X451298Y589761D01*
X452655Y591118D01*
X453390Y592892D01*
Y594812D01*
X452655Y596586D01*
X451298Y597943D01*
X449524Y598678D01*
D02*
G37*
G36*
X835479Y597669D02*
X833559D01*
X831786Y596934D01*
X830428Y595577D01*
X829693Y593803D01*
Y591883D01*
X830428Y590109D01*
X831786Y588751D01*
X833559Y588017D01*
X835479D01*
X837253Y588751D01*
X838611Y590109D01*
X839345Y591883D01*
Y593803D01*
X838611Y595577D01*
X837253Y596934D01*
X835479Y597669D01*
D02*
G37*
G36*
X512744Y605668D02*
X510368D01*
X508074Y605053D01*
X506016Y603865D01*
X504337Y602186D01*
X503149Y600128D01*
X502534Y597834D01*
Y595458D01*
X503149Y593164D01*
X504337Y591106D01*
X506016Y589427D01*
X508074Y588239D01*
X510368Y587624D01*
X512744D01*
X515038Y588239D01*
X517096Y589427D01*
X518775Y591106D01*
X519963Y593164D01*
X520578Y595458D01*
Y597834D01*
X519963Y600128D01*
X518775Y602186D01*
X517096Y603865D01*
X515038Y605053D01*
X512744Y605668D01*
D02*
G37*
G36*
X487344D02*
X484968D01*
X482674Y605053D01*
X480616Y603865D01*
X478937Y602186D01*
X477749Y600128D01*
X477134Y597834D01*
Y595458D01*
X477749Y593164D01*
X478937Y591106D01*
X480616Y589427D01*
X482674Y588239D01*
X484968Y587624D01*
X487344D01*
X489638Y588239D01*
X491696Y589427D01*
X493375Y591106D01*
X494563Y593164D01*
X495178Y595458D01*
Y597834D01*
X494563Y600128D01*
X493375Y602186D01*
X491696Y603865D01*
X489638Y605053D01*
X487344Y605668D01*
D02*
G37*
G36*
X379420Y596646D02*
X377500D01*
X375726Y595911D01*
X374369Y594554D01*
X373634Y592780D01*
Y590860D01*
X374369Y589086D01*
X375726Y587729D01*
X377500Y586994D01*
X379420D01*
X381194Y587729D01*
X382551Y589086D01*
X383286Y590860D01*
Y592780D01*
X382551Y594554D01*
X381194Y595911D01*
X379420Y596646D01*
D02*
G37*
G36*
X755836Y604892D02*
X745304D01*
X740038Y599626D01*
Y589094D01*
X745304Y583828D01*
X755836D01*
X761102Y589094D01*
Y599626D01*
X755836Y604892D01*
D02*
G37*
G36*
X712038D02*
X690974D01*
Y583828D01*
X712038D01*
Y604892D01*
D02*
G37*
G36*
X678552D02*
X657488D01*
Y583828D01*
X678552D01*
Y604892D01*
D02*
G37*
G36*
X889815Y582547D02*
X887895D01*
X886121Y581812D01*
X884971Y580662D01*
X884223Y580541D01*
X883475Y580662D01*
X882325Y581812D01*
X880551Y582547D01*
X878631D01*
X876858Y581812D01*
X875500Y580454D01*
X874765Y578681D01*
Y576761D01*
X875500Y574987D01*
X876858Y573629D01*
X878631Y572895D01*
X880551D01*
X882325Y573629D01*
X883475Y574779D01*
X884223Y574900D01*
X884971Y574779D01*
X886121Y573629D01*
X887895Y572895D01*
X889815D01*
X891589Y573629D01*
X892946Y574987D01*
X893681Y576761D01*
Y578681D01*
X892946Y580454D01*
X891589Y581812D01*
X889815Y582547D01*
D02*
G37*
G36*
X834983Y586486D02*
X833063D01*
X831290Y585751D01*
X829932Y584394D01*
X829197Y582620D01*
Y580700D01*
X829932Y578926D01*
X831290Y577569D01*
X833063Y576834D01*
X834983D01*
X836757Y577569D01*
X838114Y578926D01*
X838849Y580700D01*
Y582620D01*
X838114Y584394D01*
X836757Y585751D01*
X834983Y586486D01*
D02*
G37*
G36*
X453080Y582676D02*
X451160D01*
X449386Y581941D01*
X448029Y580584D01*
X447294Y578810D01*
Y576890D01*
X448029Y575116D01*
X449386Y573759D01*
X451160Y573024D01*
X453080D01*
X454854Y573759D01*
X456211Y575116D01*
X456946Y576890D01*
Y578810D01*
X456211Y580584D01*
X454854Y581941D01*
X453080Y582676D01*
D02*
G37*
G36*
X867522Y582402D02*
X865602D01*
X863828Y581667D01*
X862471Y580309D01*
X861736Y578536D01*
Y576616D01*
X862471Y574842D01*
X863828Y573484D01*
X865602Y572750D01*
X867522D01*
X869296Y573484D01*
X870653Y574842D01*
X871388Y576616D01*
Y578536D01*
X870653Y580309D01*
X869296Y581667D01*
X867522Y582402D01*
D02*
G37*
G36*
X1007816Y574294D02*
X1005896D01*
X1004122Y573559D01*
X1003003Y572440D01*
X1001883Y573559D01*
X1000110Y574294D01*
X998190D01*
X996416Y573559D01*
X995063Y572206D01*
X993710Y573559D01*
X991937Y574294D01*
X990017D01*
X988243Y573559D01*
X986886Y572202D01*
X986151Y570428D01*
Y568508D01*
X986886Y566734D01*
X988243Y565377D01*
X990017Y564642D01*
X991937D01*
X993710Y565377D01*
X995063Y566730D01*
X996416Y565377D01*
X998190Y564642D01*
X1000110D01*
X1001883Y565377D01*
X1003003Y566496D01*
X1004122Y565377D01*
X1005896Y564642D01*
X1007816D01*
X1009590Y565377D01*
X1010947Y566734D01*
X1011682Y568508D01*
Y570428D01*
X1010947Y572202D01*
X1009590Y573559D01*
X1007816Y574294D01*
D02*
G37*
G36*
X929330Y582087D02*
X927410D01*
X925636Y581352D01*
X924279Y579994D01*
X923544Y578221D01*
Y576301D01*
X924279Y574527D01*
X925636Y573169D01*
X927410Y572435D01*
X929330D01*
X931104Y573169D01*
X932461Y574527D01*
X933196Y576301D01*
Y578221D01*
X932461Y579994D01*
X931104Y581352D01*
X929330Y582087D01*
D02*
G37*
G36*
X903930D02*
X902010D01*
X900236Y581352D01*
X898879Y579994D01*
X898144Y578221D01*
Y576301D01*
X898879Y574527D01*
X900236Y573169D01*
X902010Y572435D01*
X903930D01*
X905704Y573169D01*
X907061Y574527D01*
X907796Y576301D01*
Y578221D01*
X907061Y579994D01*
X905704Y581352D01*
X903930Y582087D01*
D02*
G37*
G36*
X464510Y576834D02*
X462590D01*
X460816Y576099D01*
X459459Y574742D01*
X458724Y572968D01*
Y571048D01*
X459459Y569274D01*
X460816Y567917D01*
X462590Y567182D01*
X464510D01*
X466284Y567917D01*
X467641Y569274D01*
X468376Y571048D01*
Y572968D01*
X467641Y574742D01*
X466284Y576099D01*
X464510Y576834D01*
D02*
G37*
G36*
X520578Y580268D02*
X502534D01*
Y562224D01*
X520578D01*
Y580268D01*
D02*
G37*
G36*
X487344D02*
X484968D01*
X482674Y579653D01*
X480616Y578465D01*
X478937Y576786D01*
X477749Y574728D01*
X477134Y572434D01*
Y570058D01*
X477749Y567764D01*
X478937Y565706D01*
X480616Y564027D01*
X482674Y562839D01*
X484968Y562224D01*
X487344D01*
X489638Y562839D01*
X491696Y564027D01*
X493375Y565706D01*
X494563Y567764D01*
X495178Y570058D01*
Y572434D01*
X494563Y574728D01*
X493375Y576786D01*
X491696Y578465D01*
X489638Y579653D01*
X487344Y580268D01*
D02*
G37*
G36*
X876763Y562356D02*
X874843D01*
X873070Y561621D01*
X872247Y560799D01*
X871425Y561621D01*
X869651Y562356D01*
X867731D01*
X865957Y561621D01*
X864600Y560264D01*
X863865Y558490D01*
Y556570D01*
X864600Y554796D01*
X865957Y553439D01*
X867731Y552704D01*
X869651D01*
X871425Y553439D01*
X872247Y554261D01*
X873070Y553439D01*
X874843Y552704D01*
X875974D01*
X876915Y552109D01*
X877063Y551531D01*
Y550096D01*
X877798Y548322D01*
X879155Y546964D01*
X880929Y546230D01*
X882849D01*
X884623Y546964D01*
X885507Y547848D01*
X886266Y547089D01*
X887455Y546596D01*
X888040Y546354D01*
X888099Y545084D01*
X887865Y544520D01*
Y542600D01*
X888600Y540826D01*
X889958Y539469D01*
X891731Y538734D01*
X893651D01*
X895425Y539469D01*
X896247Y540291D01*
X897069Y539469D01*
X898843Y538734D01*
X900763D01*
X902537Y539469D01*
X903894Y540826D01*
X904629Y542600D01*
Y544520D01*
X903894Y546294D01*
X903834Y546354D01*
X904360Y547624D01*
X905651D01*
X907425Y548359D01*
X908247Y549181D01*
X909070Y548359D01*
X910843Y547624D01*
X912763D01*
X914537Y548359D01*
X915894Y549716D01*
X916629Y551490D01*
Y553410D01*
X915894Y555184D01*
X914537Y556541D01*
X912763Y557276D01*
X910843D01*
X909070Y556541D01*
X908247Y555719D01*
X907425Y556541D01*
X905651Y557276D01*
X903731D01*
X901957Y556541D01*
X900600Y555184D01*
X899865Y553410D01*
Y551490D01*
X900600Y549716D01*
X900660Y549656D01*
X900134Y548386D01*
X898843D01*
X897069Y547651D01*
X896247Y546829D01*
X895425Y547651D01*
X894236Y548144D01*
X893651Y548386D01*
X893592Y549656D01*
X893826Y550220D01*
Y552140D01*
X893091Y553914D01*
X891734Y555271D01*
X889960Y556006D01*
X888040D01*
X886266Y555271D01*
X885382Y554387D01*
X884623Y555147D01*
X882849Y555882D01*
X881719D01*
X880777Y556477D01*
X880629Y557055D01*
Y558490D01*
X879894Y560264D01*
X878537Y561621D01*
X876763Y562356D01*
D02*
G37*
G36*
X702892Y579492D02*
X700119D01*
X697441Y578774D01*
X695039Y577388D01*
X693078Y575427D01*
X691692Y573025D01*
X690974Y570347D01*
Y567573D01*
X691692Y564895D01*
X693078Y562493D01*
X695039Y560532D01*
X697441Y559146D01*
X700119Y558428D01*
X702892D01*
X705571Y559146D01*
X707973Y560532D01*
X709934Y562493D01*
X711320Y564895D01*
X712038Y567573D01*
Y570347D01*
X711320Y573025D01*
X709934Y575427D01*
X707973Y577388D01*
X705571Y578774D01*
X702892Y579492D01*
D02*
G37*
G36*
X669407D02*
X666633D01*
X663955Y578774D01*
X661553Y577388D01*
X659592Y575427D01*
X658206Y573025D01*
X657488Y570347D01*
Y567573D01*
X658206Y564895D01*
X659592Y562493D01*
X661553Y560532D01*
X663955Y559146D01*
X666633Y558428D01*
X669407D01*
X672085Y559146D01*
X674487Y560532D01*
X676448Y562493D01*
X677834Y564895D01*
X678552Y567573D01*
Y570347D01*
X677834Y573025D01*
X676448Y575427D01*
X674487Y577388D01*
X672085Y578774D01*
X669407Y579492D01*
D02*
G37*
G36*
X940760Y567436D02*
X938840D01*
X937066Y566701D01*
X935709Y565344D01*
X934974Y563570D01*
Y561650D01*
X935709Y559876D01*
X937066Y558519D01*
X938840Y557784D01*
X940760D01*
X942534Y558519D01*
X943891Y559876D01*
X944626Y561650D01*
Y563570D01*
X943891Y565344D01*
X942534Y566701D01*
X940760Y567436D01*
D02*
G37*
G36*
X853960Y556006D02*
X852040D01*
X850266Y555271D01*
X849382Y554387D01*
X848623Y555147D01*
X846849Y555882D01*
X844929D01*
X843155Y555147D01*
X841798Y553789D01*
X841063Y552015D01*
Y550096D01*
X841798Y548322D01*
X843155Y546964D01*
X844929Y546230D01*
X846849D01*
X848623Y546964D01*
X849507Y547848D01*
X850266Y547089D01*
X851455Y546596D01*
X852040Y546354D01*
X852099Y545084D01*
X851865Y544520D01*
Y542600D01*
X852600Y540826D01*
X853958Y539469D01*
X855731Y538734D01*
X857651D01*
X859425Y539469D01*
X860247Y540291D01*
X861069Y539469D01*
X862843Y538734D01*
X864763D01*
X866537Y539469D01*
X867895Y540826D01*
X868629Y542600D01*
Y544520D01*
X867895Y546294D01*
X866537Y547651D01*
X864763Y548386D01*
X862843D01*
X861069Y547651D01*
X860247Y546829D01*
X859425Y547651D01*
X858236Y548144D01*
X857651Y548386D01*
X857592Y549656D01*
X857826Y550220D01*
Y552140D01*
X857091Y553914D01*
X855734Y555271D01*
X853960Y556006D01*
D02*
G37*
G36*
X832302Y559816D02*
X830382D01*
X828608Y559081D01*
X827251Y557724D01*
X826516Y555950D01*
Y554030D01*
X827251Y552256D01*
X828608Y550899D01*
X830382Y550164D01*
X832302D01*
X834076Y550899D01*
X835433Y552256D01*
X836168Y554030D01*
Y555950D01*
X835433Y557724D01*
X834076Y559081D01*
X832302Y559816D01*
D02*
G37*
G36*
X738830D02*
X736910D01*
X735136Y559081D01*
X733779Y557724D01*
X733044Y555950D01*
Y554030D01*
X733779Y552256D01*
X735136Y550899D01*
X736910Y550164D01*
X738830D01*
X740604Y550899D01*
X741961Y552256D01*
X742696Y554030D01*
Y555950D01*
X741961Y557724D01*
X740604Y559081D01*
X738830Y559816D01*
D02*
G37*
G36*
X383738Y569214D02*
X381818D01*
X380044Y568479D01*
X378687Y567122D01*
X377952Y565348D01*
Y563428D01*
X378687Y561654D01*
X380044Y560297D01*
X380719Y560017D01*
Y558643D01*
X380552Y558573D01*
X379195Y557216D01*
X378460Y555442D01*
Y553522D01*
X379195Y551748D01*
X380552Y550391D01*
X382326Y549656D01*
X384246D01*
X386020Y550391D01*
X387377Y551748D01*
X388112Y553522D01*
Y555442D01*
X387377Y557216D01*
X386020Y558573D01*
X385345Y558853D01*
Y560228D01*
X385512Y560297D01*
X386869Y561654D01*
X387604Y563428D01*
Y565348D01*
X386869Y567122D01*
X385512Y568479D01*
X383738Y569214D01*
D02*
G37*
G36*
X451810Y552487D02*
X449890D01*
X448116Y551752D01*
X446759Y550395D01*
X446024Y548621D01*
Y546701D01*
X446759Y544927D01*
X448116Y543569D01*
X449890Y542835D01*
X451810D01*
X453584Y543569D01*
X454941Y544927D01*
X455676Y546701D01*
Y548621D01*
X454941Y550395D01*
X453584Y551752D01*
X451810Y552487D01*
D02*
G37*
G36*
X771850Y550926D02*
X769930D01*
X768156Y550191D01*
X766799Y548834D01*
X766064Y547060D01*
Y545140D01*
X766799Y543366D01*
X768156Y542009D01*
X769930Y541274D01*
X771850D01*
X773624Y542009D01*
X774981Y543366D01*
X775716Y545140D01*
Y547060D01*
X774981Y548834D01*
X773624Y550191D01*
X771850Y550926D01*
D02*
G37*
G36*
X621789Y548338D02*
X619869D01*
X618095Y547603D01*
X616738Y546246D01*
X616003Y544472D01*
Y542552D01*
X616738Y540778D01*
X618095Y539421D01*
X619869Y538686D01*
X621789D01*
X623563Y539421D01*
X624920Y540778D01*
X625655Y542552D01*
Y544472D01*
X624920Y546246D01*
X623563Y547603D01*
X621789Y548338D01*
D02*
G37*
G36*
X490704Y547029D02*
X488784D01*
X487010Y546294D01*
X485653Y544936D01*
X484918Y543162D01*
Y541243D01*
X485653Y539469D01*
X487010Y538111D01*
X488784Y537377D01*
X490704D01*
X492478Y538111D01*
X493835Y539469D01*
X494570Y541243D01*
Y543162D01*
X493835Y544936D01*
X492478Y546294D01*
X490704Y547029D01*
D02*
G37*
G36*
X536900Y551801D02*
X534980D01*
X533206Y551066D01*
X531849Y549709D01*
X531114Y547935D01*
Y546015D01*
X531849Y544241D01*
X533206Y542884D01*
X534980Y542149D01*
X535988D01*
X536595Y540960D01*
X535860Y539186D01*
Y537266D01*
X536595Y535492D01*
X537952Y534135D01*
X539726Y533400D01*
X541646D01*
X543420Y534135D01*
X544777Y535492D01*
X545512Y537266D01*
Y539186D01*
X544777Y540960D01*
X543420Y542317D01*
X541646Y543052D01*
X540638D01*
X540031Y544241D01*
X540766Y546015D01*
Y547935D01*
X540031Y549709D01*
X538674Y551066D01*
X536900Y551801D01*
D02*
G37*
G36*
X702892Y554092D02*
X700119D01*
X697441Y553374D01*
X695039Y551988D01*
X693078Y550027D01*
X691692Y547625D01*
X690974Y544947D01*
Y542173D01*
X691692Y539495D01*
X693078Y537093D01*
X695039Y535132D01*
X697441Y533746D01*
X700119Y533028D01*
X702892D01*
X705571Y533746D01*
X707973Y535132D01*
X709934Y537093D01*
X711320Y539495D01*
X712038Y542173D01*
Y544947D01*
X711320Y547625D01*
X709934Y550027D01*
X707973Y551988D01*
X705571Y553374D01*
X702892Y554092D01*
D02*
G37*
G36*
X669407D02*
X666633D01*
X663955Y553374D01*
X661553Y551988D01*
X659592Y550027D01*
X658206Y547625D01*
X657488Y544947D01*
Y542173D01*
X658206Y539495D01*
X659592Y537093D01*
X661553Y535132D01*
X663955Y533746D01*
X666633Y533028D01*
X669407D01*
X672085Y533746D01*
X674487Y535132D01*
X676448Y537093D01*
X677834Y539495D01*
X678552Y542173D01*
Y544947D01*
X677834Y547625D01*
X676448Y550027D01*
X674487Y551988D01*
X672085Y553374D01*
X669407Y554092D01*
D02*
G37*
G36*
X1107130Y539496D02*
X1105210D01*
X1103436Y538761D01*
X1102079Y537404D01*
X1101344Y535630D01*
Y533710D01*
X1102079Y531936D01*
X1103436Y530579D01*
X1105210Y529844D01*
X1107130D01*
X1108904Y530579D01*
X1110261Y531936D01*
X1110996Y533710D01*
Y535630D01*
X1110261Y537404D01*
X1108904Y538761D01*
X1107130Y539496D01*
D02*
G37*
G36*
X1168516Y531806D02*
X1166596D01*
X1164822Y531071D01*
X1163465Y529714D01*
X1162730Y527940D01*
Y526020D01*
X1163465Y524246D01*
X1164822Y522889D01*
X1166596Y522154D01*
X1168516D01*
X1170290Y522889D01*
X1171647Y524246D01*
X1172382Y526020D01*
Y527940D01*
X1171647Y529714D01*
X1170290Y531071D01*
X1168516Y531806D01*
D02*
G37*
G36*
X552394Y530606D02*
X550474D01*
X548700Y529871D01*
X547343Y528514D01*
X546608Y526740D01*
Y524820D01*
X547343Y523046D01*
X548700Y521689D01*
X550474Y520954D01*
X552394D01*
X554168Y521689D01*
X555525Y523046D01*
X556260Y524820D01*
Y526740D01*
X555525Y528514D01*
X554168Y529871D01*
X552394Y530606D01*
D02*
G37*
G36*
X1022318Y529336D02*
X1020399D01*
X1018625Y528601D01*
X1017267Y527244D01*
X1016533Y525470D01*
Y523550D01*
X1017267Y521776D01*
X1018625Y520419D01*
X1020399Y519684D01*
X1022318D01*
X1024092Y520419D01*
X1025450Y521776D01*
X1026184Y523550D01*
Y525470D01*
X1025450Y527244D01*
X1024092Y528601D01*
X1022318Y529336D01*
D02*
G37*
G36*
X827727Y524601D02*
X825807D01*
X824034Y523866D01*
X822676Y522509D01*
X821941Y520735D01*
Y518815D01*
X822676Y517041D01*
X824034Y515684D01*
X825807Y514949D01*
X827727D01*
X829501Y515684D01*
X830858Y517041D01*
X831593Y518815D01*
Y520735D01*
X830858Y522509D01*
X829501Y523866D01*
X827727Y524601D01*
D02*
G37*
G36*
X1073348Y521716D02*
X1071428D01*
X1069654Y520981D01*
X1068297Y519624D01*
X1067562Y517850D01*
Y515930D01*
X1068297Y514156D01*
X1069654Y512799D01*
X1071428Y512064D01*
X1073348D01*
X1075122Y512799D01*
X1076479Y514156D01*
X1077214Y515930D01*
Y517850D01*
X1076479Y519624D01*
X1075122Y520981D01*
X1073348Y521716D01*
D02*
G37*
G36*
X724860D02*
X722940D01*
X721166Y520981D01*
X719809Y519624D01*
X719074Y517850D01*
Y515930D01*
X719809Y514156D01*
X721166Y512799D01*
X722940Y512064D01*
X724860D01*
X726634Y512799D01*
X727991Y514156D01*
X728726Y515930D01*
Y517850D01*
X727991Y519624D01*
X726634Y520981D01*
X724860Y521716D01*
D02*
G37*
G36*
X541726Y520954D02*
X539806D01*
X538032Y520219D01*
X536675Y518862D01*
X535940Y517088D01*
Y515168D01*
X536675Y513394D01*
X538032Y512037D01*
X539806Y511302D01*
X541726D01*
X543500Y512037D01*
X544857Y513394D01*
X545592Y515168D01*
Y517088D01*
X544857Y518862D01*
X543500Y520219D01*
X541726Y520954D01*
D02*
G37*
G36*
X1189286Y508889D02*
X1187366D01*
X1185592Y508154D01*
X1184235Y506797D01*
X1183500Y505023D01*
Y503103D01*
X1184235Y501329D01*
X1185592Y499972D01*
X1187366Y499237D01*
X1189286D01*
X1191060Y499972D01*
X1192417Y501329D01*
X1193152Y503103D01*
Y505023D01*
X1192417Y506797D01*
X1191060Y508154D01*
X1189286Y508889D01*
D02*
G37*
G36*
X119933Y494792D02*
X118013D01*
X116239Y494057D01*
X115417Y493235D01*
X114594Y494057D01*
X112821Y494792D01*
X110901D01*
X109127Y494057D01*
X107769Y492700D01*
X107035Y490926D01*
Y489006D01*
X107769Y487232D01*
X109127Y485875D01*
X110901Y485140D01*
X112821D01*
X114594Y485875D01*
X115417Y486697D01*
X116239Y485875D01*
X118013Y485140D01*
X119933D01*
X121172Y485653D01*
X122144Y484681D01*
X121890Y484068D01*
Y482148D01*
X122624Y480374D01*
X123982Y479017D01*
X125756Y478282D01*
X127676D01*
X129449Y479017D01*
X130272Y479839D01*
X131094Y479017D01*
X132868Y478282D01*
X134788D01*
X136561Y479017D01*
X137919Y480374D01*
X138654Y482148D01*
Y484068D01*
X137919Y485842D01*
X136561Y487199D01*
X134788Y487934D01*
X132868D01*
X131094Y487199D01*
X130272Y486377D01*
X129449Y487199D01*
X127676Y487934D01*
X125756D01*
X124517Y487421D01*
X123545Y488393D01*
X123799Y489006D01*
Y490926D01*
X123064Y492700D01*
X121706Y494057D01*
X119933Y494792D01*
D02*
G37*
G36*
X1134054Y509750D02*
X1132134D01*
X1130360Y509015D01*
X1129003Y507658D01*
X1128268Y505884D01*
Y503964D01*
X1129003Y502190D01*
X1129825Y501368D01*
X1129003Y500546D01*
X1128268Y498772D01*
Y496852D01*
X1129003Y495078D01*
X1130360Y493721D01*
X1132134Y492986D01*
X1134054D01*
X1135828Y493721D01*
X1137185Y495078D01*
X1137920Y496852D01*
Y498772D01*
X1137185Y500546D01*
X1136363Y501368D01*
X1137185Y502190D01*
X1137920Y503964D01*
Y505884D01*
X1137185Y507658D01*
X1135828Y509015D01*
X1134054Y509750D01*
D02*
G37*
G36*
X166314Y506448D02*
X164394D01*
X162620Y505713D01*
X161263Y504356D01*
X160528Y502582D01*
Y500662D01*
X161263Y498888D01*
X162085Y498066D01*
X161263Y497244D01*
X160528Y495470D01*
Y493550D01*
X161263Y491776D01*
X162620Y490419D01*
X164394Y489684D01*
X166314D01*
X168088Y490419D01*
X169445Y491776D01*
X170180Y493550D01*
Y495470D01*
X169445Y497244D01*
X168623Y498066D01*
X169445Y498888D01*
X170180Y500662D01*
Y502582D01*
X169445Y504356D01*
X168088Y505713D01*
X166314Y506448D01*
D02*
G37*
G36*
X451909Y490982D02*
X449989D01*
X448215Y490247D01*
X447393Y489425D01*
X446571Y490247D01*
X444797Y490982D01*
X442877D01*
X441103Y490247D01*
X439746Y488890D01*
X439011Y487116D01*
Y485196D01*
X439746Y483422D01*
X441103Y482065D01*
X442877Y481330D01*
X444797D01*
X446571Y482065D01*
X447393Y482887D01*
X448215Y482065D01*
X449989Y481330D01*
X451909D01*
X453683Y482065D01*
X455040Y483422D01*
X455775Y485196D01*
Y487116D01*
X455040Y488890D01*
X453683Y490247D01*
X451909Y490982D01*
D02*
G37*
G36*
X1051684Y489970D02*
X1049764D01*
X1047990Y489235D01*
X1047168Y488413D01*
X1046346Y489235D01*
X1044572Y489970D01*
X1042652D01*
X1040878Y489235D01*
X1039521Y487878D01*
X1038786Y486104D01*
Y484184D01*
X1039521Y482410D01*
X1040878Y481053D01*
X1042652Y480318D01*
X1044572D01*
X1046346Y481053D01*
X1047168Y481875D01*
X1047990Y481053D01*
X1049764Y480318D01*
X1051072D01*
X1051599Y479048D01*
X1051362Y478812D01*
X1050628Y477038D01*
Y475118D01*
X1051362Y473344D01*
X1052720Y471987D01*
X1054494Y471252D01*
X1056414D01*
X1058187Y471987D01*
X1059010Y472809D01*
X1059832Y471987D01*
X1061606Y471252D01*
X1063526D01*
X1065299Y471987D01*
X1066657Y473344D01*
X1067392Y475118D01*
Y477038D01*
X1066657Y478812D01*
X1065299Y480169D01*
X1063526Y480904D01*
X1061606D01*
X1059832Y480169D01*
X1059010Y479347D01*
X1058187Y480169D01*
X1056414Y480904D01*
X1055105D01*
X1054579Y482174D01*
X1054815Y482410D01*
X1055550Y484184D01*
Y486104D01*
X1054815Y487878D01*
X1053458Y489235D01*
X1051684Y489970D01*
D02*
G37*
G36*
X232608Y504924D02*
X230688D01*
X228914Y504189D01*
X227557Y502832D01*
X226822Y501058D01*
Y499138D01*
X227557Y497364D01*
X228379Y496542D01*
X227557Y495720D01*
X226822Y493946D01*
Y492026D01*
X227557Y490252D01*
X228914Y488895D01*
X230688Y488160D01*
X232608D01*
X234382Y488895D01*
X235739Y490252D01*
X236474Y492026D01*
Y493946D01*
X235739Y495720D01*
X234917Y496542D01*
X235739Y497364D01*
X236474Y499138D01*
Y501058D01*
X235739Y502832D01*
X234382Y504189D01*
X232608Y504924D01*
D02*
G37*
G36*
X1354508Y489712D02*
X1352588D01*
X1350814Y488977D01*
X1349992Y488155D01*
X1349170Y488977D01*
X1347396Y489712D01*
X1345476D01*
X1343702Y488977D01*
X1342345Y487620D01*
X1341610Y485846D01*
Y483926D01*
X1342345Y482152D01*
X1343702Y480795D01*
X1345476Y480060D01*
X1347396D01*
X1349170Y480795D01*
X1349992Y481617D01*
X1350814Y480795D01*
X1352588Y480060D01*
X1354508D01*
X1356282Y480795D01*
X1357639Y482152D01*
X1358374Y483926D01*
Y485846D01*
X1357639Y487620D01*
X1356282Y488977D01*
X1354508Y489712D01*
D02*
G37*
G36*
X89017Y503546D02*
X86243D01*
X83565Y502828D01*
X81163Y501442D01*
X79202Y499481D01*
X77816Y497079D01*
X77098Y494401D01*
Y491627D01*
X77816Y488949D01*
X79202Y486547D01*
X81163Y484586D01*
X83565Y483200D01*
X86243Y482482D01*
X89017D01*
X91695Y483200D01*
X94097Y484586D01*
X96058Y486547D01*
X97444Y488949D01*
X98162Y491627D01*
Y494401D01*
X97444Y497079D01*
X96058Y499481D01*
X94097Y501442D01*
X91695Y502828D01*
X89017Y503546D01*
D02*
G37*
G36*
X72762D02*
X51698D01*
Y482482D01*
X72762D01*
Y503546D01*
D02*
G37*
G36*
X191968Y498828D02*
X190048D01*
X188274Y498093D01*
X186917Y496736D01*
X186182Y494962D01*
Y493042D01*
X186917Y491268D01*
X187739Y490446D01*
X186917Y489624D01*
X186182Y487850D01*
Y485930D01*
X186917Y484156D01*
X188274Y482799D01*
X190048Y482064D01*
X191968D01*
X193742Y482799D01*
X195099Y484156D01*
X195834Y485930D01*
Y487850D01*
X195099Y489624D01*
X194277Y490446D01*
X195099Y491268D01*
X195834Y493042D01*
Y494962D01*
X195099Y496736D01*
X193742Y498093D01*
X191968Y498828D01*
D02*
G37*
G36*
X769125Y483362D02*
X767205D01*
X765432Y482627D01*
X764609Y481805D01*
X763787Y482627D01*
X762013Y483362D01*
X760093D01*
X758320Y482627D01*
X756962Y481270D01*
X756227Y479496D01*
Y477576D01*
X756962Y475802D01*
X758320Y474445D01*
X760093Y473710D01*
X762013D01*
X763787Y474445D01*
X764609Y475267D01*
X765432Y474445D01*
X767205Y473710D01*
X769125D01*
X770899Y474445D01*
X772257Y475802D01*
X772991Y477576D01*
Y479496D01*
X772257Y481270D01*
X770899Y482627D01*
X769125Y483362D01*
D02*
G37*
G36*
X436909Y482600D02*
X434989D01*
X433215Y481865D01*
X432393Y481043D01*
X431571Y481865D01*
X429797Y482600D01*
X427877D01*
X426103Y481865D01*
X424746Y480508D01*
X424011Y478734D01*
Y476814D01*
X424746Y475040D01*
X426103Y473683D01*
X427877Y472948D01*
X429797D01*
X431571Y473683D01*
X432393Y474505D01*
X433215Y473683D01*
X434989Y472948D01*
X436909D01*
X438683Y473683D01*
X440040Y475040D01*
X440775Y476814D01*
Y478734D01*
X440040Y480508D01*
X438683Y481865D01*
X436909Y482600D01*
D02*
G37*
G36*
X1101288Y492760D02*
X1099368D01*
X1097594Y492025D01*
X1096237Y490668D01*
X1095502Y488894D01*
Y486974D01*
X1096237Y485200D01*
X1097059Y484378D01*
X1096237Y483556D01*
X1095502Y481782D01*
Y479862D01*
X1096237Y478088D01*
X1097594Y476731D01*
X1099368Y475996D01*
X1101288D01*
X1103062Y476731D01*
X1104419Y478088D01*
X1105154Y479862D01*
Y481782D01*
X1104419Y483556D01*
X1103597Y484378D01*
X1104419Y485200D01*
X1105154Y486974D01*
Y488894D01*
X1104419Y490668D01*
X1103062Y492025D01*
X1101288Y492760D01*
D02*
G37*
G36*
X1363604Y478899D02*
X1361684D01*
X1359910Y478165D01*
X1358553Y476807D01*
X1357818Y475033D01*
Y473113D01*
X1358553Y471340D01*
X1359910Y469982D01*
X1361684Y469247D01*
X1363604D01*
X1365378Y469982D01*
X1366202Y470806D01*
X1367079Y469929D01*
X1368853Y469194D01*
X1370773D01*
X1372546Y469929D01*
X1373904Y471286D01*
X1374639Y473060D01*
Y474980D01*
X1373904Y476754D01*
X1372546Y478111D01*
X1370773Y478846D01*
X1368853D01*
X1367079Y478111D01*
X1366255Y477287D01*
X1365378Y478165D01*
X1363604Y478899D01*
D02*
G37*
G36*
X753915Y469638D02*
X751995D01*
X750222Y468903D01*
X749399Y468080D01*
X748577Y468903D01*
X746803Y469638D01*
X744883D01*
X743110Y468903D01*
X741752Y467545D01*
X741018Y465771D01*
Y463852D01*
X741752Y462078D01*
X743110Y460720D01*
X744883Y459986D01*
X746803D01*
X748577Y460720D01*
X749399Y461543D01*
X750222Y460720D01*
X751995Y459986D01*
X753915D01*
X755689Y460720D01*
X757047Y462078D01*
X757782Y463852D01*
Y465771D01*
X757047Y467545D01*
X755689Y468903D01*
X753915Y469638D01*
D02*
G37*
G36*
X149992Y459585D02*
X148072D01*
X146298Y458850D01*
X145476Y458028D01*
X144653Y458850D01*
X142880Y459585D01*
X140960D01*
X139186Y458850D01*
X137828Y457492D01*
X137094Y455719D01*
Y453799D01*
X136252Y452513D01*
X135561Y452227D01*
X134203Y450869D01*
X133469Y449096D01*
Y447176D01*
X134203Y445402D01*
X135561Y444044D01*
X137335Y443310D01*
X139255D01*
X141028Y444044D01*
X142386Y445402D01*
X143121Y447176D01*
Y449096D01*
X143963Y450381D01*
X144653Y450667D01*
X145476Y451490D01*
X146298Y450667D01*
X148072Y449933D01*
X149992D01*
X151765Y450667D01*
X153123Y452025D01*
X153858Y453799D01*
Y455719D01*
X153123Y457492D01*
X151765Y458850D01*
X149992Y459585D01*
D02*
G37*
G36*
X421909Y456946D02*
X419989D01*
X418215Y456211D01*
X417393Y455389D01*
X416571Y456211D01*
X414797Y456946D01*
X412877D01*
X411103Y456211D01*
X409746Y454854D01*
X409011Y453080D01*
Y451160D01*
X409746Y449386D01*
X411103Y448029D01*
X412877Y447294D01*
X414797D01*
X416571Y448029D01*
X417393Y448851D01*
X418215Y448029D01*
X419989Y447294D01*
X420333Y446024D01*
X420036Y445308D01*
Y443388D01*
X420771Y441614D01*
X422128Y440256D01*
X423902Y439522D01*
X425822D01*
X427596Y440256D01*
X428953Y441614D01*
X429688Y443388D01*
Y445308D01*
X428953Y447081D01*
X427596Y448439D01*
X425822Y449174D01*
X425478Y450444D01*
X425775Y451160D01*
Y453080D01*
X425040Y454854D01*
X423683Y456211D01*
X421909Y456946D01*
D02*
G37*
G36*
X89271Y475606D02*
X86497D01*
X83819Y474888D01*
X81417Y473502D01*
X79456Y471541D01*
X78070Y469139D01*
X77352Y466461D01*
Y463687D01*
X78070Y461009D01*
X79456Y458607D01*
X81417Y456646D01*
X83819Y455260D01*
X86497Y454542D01*
X89271D01*
X91949Y455260D01*
X94351Y456646D01*
X96312Y458607D01*
X97698Y461009D01*
X98416Y463687D01*
Y466461D01*
X97698Y469139D01*
X96312Y471541D01*
X94351Y473502D01*
X91949Y474888D01*
X89271Y475606D01*
D02*
G37*
G36*
X73016D02*
X51952D01*
Y454542D01*
X73016D01*
Y475606D01*
D02*
G37*
G36*
X1384508Y455676D02*
X1382588D01*
X1380814Y454941D01*
X1379992Y454119D01*
X1379170Y454941D01*
X1377396Y455676D01*
X1375476D01*
X1373702Y454941D01*
X1372345Y453584D01*
X1371610Y451810D01*
Y449890D01*
X1371916Y449152D01*
X1371910Y447914D01*
X1371280Y447621D01*
X1370136Y447147D01*
X1368779Y445789D01*
X1368044Y444016D01*
Y442096D01*
X1368779Y440322D01*
X1370136Y438964D01*
X1371910Y438230D01*
X1373830D01*
X1375604Y438964D01*
X1376961Y440322D01*
X1377696Y442096D01*
Y444016D01*
X1377390Y444754D01*
X1377396Y445992D01*
X1378026Y446285D01*
X1379170Y446759D01*
X1379992Y447581D01*
X1380814Y446759D01*
X1382588Y446024D01*
X1384508D01*
X1386282Y446759D01*
X1387639Y448116D01*
X1388374Y449890D01*
Y451810D01*
X1387639Y453584D01*
X1386282Y454941D01*
X1384508Y455676D01*
D02*
G37*
G36*
X123855Y452984D02*
X121935D01*
X120161Y452249D01*
X118803Y450891D01*
X118069Y449118D01*
Y447198D01*
X118803Y445424D01*
X120161Y444066D01*
X121935Y443332D01*
X123855D01*
X125628Y444066D01*
X126986Y445424D01*
X127721Y447198D01*
Y449118D01*
X126986Y450891D01*
X125628Y452249D01*
X123855Y452984D01*
D02*
G37*
G36*
X168600Y452120D02*
X166680D01*
X164906Y451385D01*
X163549Y450028D01*
X162814Y448254D01*
Y446334D01*
X163549Y444560D01*
X164906Y443203D01*
X166680Y442468D01*
X168600D01*
X170374Y443203D01*
X171731Y444560D01*
X172466Y446334D01*
Y448254D01*
X171731Y450028D01*
X170374Y451385D01*
X168600Y452120D01*
D02*
G37*
G36*
X962015Y462144D02*
X959241D01*
X956563Y461426D01*
X954161Y460040D01*
X952200Y458079D01*
X950814Y455677D01*
X950096Y452999D01*
Y450225D01*
X950814Y447547D01*
X952200Y445145D01*
X954161Y443184D01*
X956563Y441798D01*
X959241Y441080D01*
X962015D01*
X964693Y441798D01*
X967095Y443184D01*
X969056Y445145D01*
X970442Y447547D01*
X971160Y450225D01*
Y452999D01*
X970442Y455677D01*
X969056Y458079D01*
X967095Y460040D01*
X964693Y461426D01*
X962015Y462144D01*
D02*
G37*
G36*
X945760D02*
X924696D01*
Y441080D01*
X945760D01*
Y462144D01*
D02*
G37*
G36*
X441231Y449152D02*
X439311D01*
X437537Y448417D01*
X436180Y447059D01*
X435445Y445286D01*
Y443366D01*
X436180Y441592D01*
X437537Y440234D01*
X439311Y439500D01*
X441231D01*
X443005Y440234D01*
X444362Y441592D01*
X445097Y443366D01*
Y445286D01*
X444362Y447059D01*
X443005Y448417D01*
X441231Y449152D01*
D02*
G37*
G36*
X471622Y449072D02*
X469702D01*
X467928Y448337D01*
X466571Y446980D01*
X465836Y445206D01*
Y443286D01*
X466571Y441512D01*
X467928Y440155D01*
X469702Y439420D01*
X471622D01*
X473396Y440155D01*
X474753Y441512D01*
X475488Y443286D01*
Y445206D01*
X474753Y446980D01*
X473396Y448337D01*
X471622Y449072D01*
D02*
G37*
G36*
X646801Y459604D02*
X644027D01*
X641349Y458886D01*
X638947Y457500D01*
X636986Y455539D01*
X635600Y453137D01*
X634882Y450459D01*
Y447685D01*
X635600Y445007D01*
X636986Y442605D01*
X638947Y440644D01*
X641349Y439258D01*
X644027Y438540D01*
X646801D01*
X649479Y439258D01*
X651881Y440644D01*
X653842Y442605D01*
X655228Y445007D01*
X655946Y447685D01*
Y450459D01*
X655228Y453137D01*
X653842Y455539D01*
X651881Y457500D01*
X649479Y458886D01*
X646801Y459604D01*
D02*
G37*
G36*
X630546D02*
X609482D01*
Y438540D01*
X630546D01*
Y459604D01*
D02*
G37*
G36*
X1055606Y448161D02*
X1053686D01*
X1051912Y447427D01*
X1050555Y446069D01*
X1049820Y444295D01*
Y442375D01*
X1050555Y440602D01*
X1051912Y439244D01*
X1053686Y438509D01*
X1055606D01*
X1057380Y439244D01*
X1058737Y440602D01*
X1059472Y442375D01*
Y444295D01*
X1058737Y446069D01*
X1057380Y447427D01*
X1055606Y448161D01*
D02*
G37*
G36*
X1071006Y448139D02*
X1069086D01*
X1067312Y447405D01*
X1065955Y446047D01*
X1065220Y444273D01*
Y442354D01*
X1065955Y440580D01*
X1067312Y439222D01*
X1069086Y438488D01*
X1071006D01*
X1072780Y439222D01*
X1074137Y440580D01*
X1074872Y442354D01*
Y444273D01*
X1074137Y446047D01*
X1072780Y447405D01*
X1071006Y448139D01*
D02*
G37*
G36*
X1410152Y447548D02*
X1408232D01*
X1406458Y446813D01*
X1405101Y445456D01*
X1404366Y443682D01*
Y441762D01*
X1405101Y439988D01*
X1406458Y438631D01*
X1408232Y437896D01*
X1410152D01*
X1411926Y438631D01*
X1413283Y439988D01*
X1414018Y441762D01*
Y443682D01*
X1413283Y445456D01*
X1411926Y446813D01*
X1410152Y447548D01*
D02*
G37*
G36*
X1101034Y447294D02*
X1099114D01*
X1097340Y446559D01*
X1095983Y445202D01*
X1095248Y443428D01*
Y441508D01*
X1095983Y439734D01*
X1097340Y438377D01*
X1099114Y437642D01*
X1101034D01*
X1102808Y438377D01*
X1104165Y439734D01*
X1104900Y441508D01*
Y443428D01*
X1104165Y445202D01*
X1102808Y446559D01*
X1101034Y447294D01*
D02*
G37*
G36*
X1358359Y447223D02*
X1356440D01*
X1354666Y446488D01*
X1353308Y445131D01*
X1352574Y443357D01*
Y441437D01*
X1353308Y439663D01*
X1354666Y438306D01*
X1356440Y437571D01*
X1358359D01*
X1360133Y438306D01*
X1361491Y439663D01*
X1362225Y441437D01*
Y443357D01*
X1361491Y445131D01*
X1360133Y446488D01*
X1358359Y447223D01*
D02*
G37*
G36*
X191206Y441706D02*
X189286D01*
X187512Y440971D01*
X186155Y439614D01*
X185420Y437840D01*
Y435920D01*
X186155Y434146D01*
X187512Y432789D01*
X189286Y432054D01*
X191206D01*
X192980Y432789D01*
X194337Y434146D01*
X195072Y435920D01*
Y437840D01*
X194337Y439614D01*
X192980Y440971D01*
X191206Y441706D01*
D02*
G37*
G36*
X792932Y440690D02*
X791012D01*
X789238Y439955D01*
X787881Y438598D01*
X787146Y436824D01*
Y434904D01*
X787881Y433130D01*
X789238Y431773D01*
X791012Y431038D01*
X792932D01*
X794706Y431773D01*
X796063Y433130D01*
X796798Y434904D01*
Y436824D01*
X796063Y438598D01*
X794706Y439955D01*
X792932Y440690D01*
D02*
G37*
G36*
X757198Y440448D02*
X755278D01*
X753504Y439713D01*
X752147Y438356D01*
X751412Y436582D01*
Y434662D01*
X752147Y432888D01*
X753504Y431531D01*
X755278Y430796D01*
X757198D01*
X758972Y431531D01*
X760329Y432888D01*
X761064Y434662D01*
Y436582D01*
X760329Y438356D01*
X758972Y439713D01*
X757198Y440448D01*
D02*
G37*
G36*
X729942Y449346D02*
X728023D01*
X726249Y448611D01*
X724891Y447254D01*
X724156Y445480D01*
Y443560D01*
X724891Y441786D01*
X726249Y440429D01*
X728023Y439694D01*
X729942D01*
X731716Y440429D01*
X731971Y440684D01*
X733282Y439373D01*
X735056Y438638D01*
X736725D01*
X737366Y437998D01*
X737645Y437541D01*
X737173Y436402D01*
Y434482D01*
X737908Y432709D01*
X739266Y431351D01*
X741040Y430616D01*
X742960D01*
X744733Y431351D01*
X746091Y432709D01*
X746825Y434482D01*
Y436402D01*
X746091Y438176D01*
X744733Y439533D01*
X742960Y440268D01*
X741290D01*
X740649Y440909D01*
X740370Y441366D01*
X740842Y442504D01*
Y444424D01*
X740107Y446198D01*
X738749Y447555D01*
X736976Y448290D01*
X735056D01*
X733282Y447555D01*
X733027Y447300D01*
X731716Y448611D01*
X729942Y449346D01*
D02*
G37*
G36*
X1260973Y449698D02*
X1258199D01*
X1255521Y448980D01*
X1253119Y447594D01*
X1251158Y445633D01*
X1249772Y443231D01*
X1249054Y440553D01*
Y437779D01*
X1249772Y435101D01*
X1251158Y432699D01*
X1253119Y430738D01*
X1255521Y429352D01*
X1258199Y428634D01*
X1260973D01*
X1263651Y429352D01*
X1266053Y430738D01*
X1268014Y432699D01*
X1269400Y435101D01*
X1270118Y437779D01*
Y440553D01*
X1269400Y443231D01*
X1268014Y445633D01*
X1266053Y447594D01*
X1263651Y448980D01*
X1260973Y449698D01*
D02*
G37*
G36*
X1244718D02*
X1223654D01*
Y428634D01*
X1244718D01*
Y449698D01*
D02*
G37*
G36*
X492789Y438249D02*
X490869D01*
X489095Y437514D01*
X487737Y436156D01*
X487002Y434383D01*
Y432463D01*
X487737Y430689D01*
X489095Y429331D01*
X490869Y428597D01*
X492789D01*
X494562Y429331D01*
X495920Y430689D01*
X496655Y432463D01*
Y434383D01*
X495920Y436156D01*
X494562Y437514D01*
X492789Y438249D01*
D02*
G37*
G36*
X240580Y437896D02*
X238660D01*
X236886Y437161D01*
X235529Y435804D01*
X234794Y434030D01*
Y432110D01*
X235529Y430336D01*
X236886Y428979D01*
X238660Y428244D01*
X240580D01*
X242354Y428979D01*
X243711Y430336D01*
X244446Y432110D01*
Y434030D01*
X243711Y435804D01*
X242354Y437161D01*
X240580Y437896D01*
D02*
G37*
G36*
X1120386Y436288D02*
X1118466D01*
X1116693Y435553D01*
X1115335Y434196D01*
X1114600Y432422D01*
Y430502D01*
X1115335Y428728D01*
X1116693Y427371D01*
X1118466Y426636D01*
X1120386D01*
X1122160Y427371D01*
X1123518Y428728D01*
X1124252Y430502D01*
Y432422D01*
X1123518Y434196D01*
X1122160Y435553D01*
X1120386Y436288D01*
D02*
G37*
G36*
X1422765Y435252D02*
X1420845D01*
X1419071Y434518D01*
X1417714Y433160D01*
X1416979Y431386D01*
Y429467D01*
X1417714Y427693D01*
X1419071Y426335D01*
X1420845Y425601D01*
X1422765D01*
X1424539Y426335D01*
X1425896Y427693D01*
X1426631Y429467D01*
Y431386D01*
X1425896Y433160D01*
X1424539Y434518D01*
X1422765Y435252D01*
D02*
G37*
G36*
X541850Y434086D02*
X539930D01*
X538156Y433351D01*
X536799Y431994D01*
X536064Y430220D01*
Y428300D01*
X536799Y426526D01*
X538156Y425169D01*
X539930Y424434D01*
X541850D01*
X543624Y425169D01*
X544981Y426526D01*
X545716Y428300D01*
Y430220D01*
X544981Y431994D01*
X543624Y433351D01*
X541850Y434086D01*
D02*
G37*
G36*
X327015Y445126D02*
X324241D01*
X321563Y444408D01*
X319161Y443022D01*
X317200Y441061D01*
X315814Y438659D01*
X315096Y435981D01*
Y433207D01*
X315814Y430529D01*
X317200Y428127D01*
X319161Y426166D01*
X321563Y424780D01*
X324241Y424062D01*
X327015D01*
X329693Y424780D01*
X332095Y426166D01*
X334056Y428127D01*
X335442Y430529D01*
X336160Y433207D01*
Y435981D01*
X335442Y438659D01*
X334056Y441061D01*
X332095Y443022D01*
X329693Y444408D01*
X327015Y445126D01*
D02*
G37*
G36*
X310760D02*
X289696D01*
Y424062D01*
X310760D01*
Y445126D01*
D02*
G37*
G36*
X1476700Y431546D02*
X1474780D01*
X1473006Y430811D01*
X1471649Y429454D01*
X1470914Y427680D01*
Y425760D01*
X1471649Y423986D01*
X1473006Y422629D01*
X1474780Y421894D01*
X1476700D01*
X1478474Y422629D01*
X1479831Y423986D01*
X1480566Y425760D01*
Y427680D01*
X1479831Y429454D01*
X1478474Y430811D01*
X1476700Y431546D01*
D02*
G37*
G36*
X1173170D02*
X1171250D01*
X1169476Y430811D01*
X1168119Y429454D01*
X1167384Y427680D01*
Y425760D01*
X1168119Y423986D01*
X1169476Y422629D01*
X1171250Y421894D01*
X1173170D01*
X1174944Y422629D01*
X1176301Y423986D01*
X1177036Y425760D01*
Y427680D01*
X1176301Y429454D01*
X1174944Y430811D01*
X1173170Y431546D01*
D02*
G37*
G36*
X808920Y430307D02*
X807001D01*
X805227Y429572D01*
X803869Y428214D01*
X803135Y426440D01*
Y424520D01*
X803869Y422747D01*
X805227Y421389D01*
X807001Y420654D01*
X808920D01*
X810694Y421389D01*
X812052Y422747D01*
X812786Y424520D01*
Y426440D01*
X812052Y428214D01*
X810694Y429572D01*
X808920Y430307D01*
D02*
G37*
G36*
X857800Y426466D02*
X855880D01*
X854106Y425731D01*
X852749Y424374D01*
X852014Y422600D01*
Y420680D01*
X852749Y418906D01*
X854106Y417549D01*
X855880Y416814D01*
X857800D01*
X859574Y417549D01*
X860931Y418906D01*
X861666Y420680D01*
Y422600D01*
X860931Y424374D01*
X859574Y425731D01*
X857800Y426466D01*
D02*
G37*
G36*
X962015Y433950D02*
X959241D01*
X956563Y433232D01*
X954161Y431846D01*
X952200Y429885D01*
X950814Y427483D01*
X950096Y424805D01*
Y422031D01*
X950814Y419353D01*
X952200Y416951D01*
X954161Y414990D01*
X956563Y413604D01*
X959241Y412886D01*
X962015D01*
X964693Y413604D01*
X967095Y414990D01*
X969056Y416951D01*
X970442Y419353D01*
X971160Y422031D01*
Y424805D01*
X970442Y427483D01*
X969056Y429885D01*
X967095Y431846D01*
X964693Y433232D01*
X962015Y433950D01*
D02*
G37*
G36*
X945760D02*
X924696D01*
Y412886D01*
X945760D01*
Y433950D01*
D02*
G37*
G36*
X646801Y431918D02*
X644027D01*
X641349Y431200D01*
X638947Y429814D01*
X636986Y427853D01*
X635600Y425451D01*
X634882Y422773D01*
Y419999D01*
X635600Y417321D01*
X636986Y414919D01*
X638947Y412958D01*
X641349Y411572D01*
X644027Y410854D01*
X646801D01*
X649479Y411572D01*
X651881Y412958D01*
X653842Y414919D01*
X655228Y417321D01*
X655946Y419999D01*
Y422773D01*
X655228Y425451D01*
X653842Y427853D01*
X651881Y429814D01*
X649479Y431200D01*
X646801Y431918D01*
D02*
G37*
G36*
X630546D02*
X609482D01*
Y410854D01*
X630546D01*
Y431918D01*
D02*
G37*
G36*
X91794Y426344D02*
X89874D01*
X88100Y425610D01*
X86743Y424252D01*
X86008Y422478D01*
Y420558D01*
X86743Y418785D01*
X87792Y417736D01*
X87984Y416958D01*
X87792Y416180D01*
X86743Y415131D01*
X86008Y413357D01*
Y411438D01*
X86743Y409664D01*
X88100Y408306D01*
X89874Y407571D01*
X91794D01*
X93568Y408306D01*
X94925Y409664D01*
X95660Y411438D01*
Y413357D01*
X94925Y415131D01*
X93876Y416180D01*
X93684Y416958D01*
X93876Y417736D01*
X94925Y418785D01*
X95660Y420558D01*
Y422478D01*
X94925Y424252D01*
X93568Y425610D01*
X91794Y426344D01*
D02*
G37*
G36*
X393770Y422534D02*
X391850D01*
X390076Y421800D01*
X388719Y420442D01*
X387984Y418668D01*
Y416748D01*
X388719Y414975D01*
X389768Y413926D01*
X389960Y413148D01*
X389768Y412370D01*
X388719Y411321D01*
X387984Y409547D01*
Y407628D01*
X388719Y405854D01*
X390076Y404496D01*
X391850Y403761D01*
X393770D01*
X395544Y404496D01*
X396902Y405854D01*
X397636Y407628D01*
Y409547D01*
X396902Y411321D01*
X395853Y412370D01*
X395660Y413148D01*
X395853Y413926D01*
X396902Y414975D01*
X397636Y416748D01*
Y418668D01*
X396902Y420442D01*
X395544Y421800D01*
X393770Y422534D01*
D02*
G37*
G36*
X1023545Y421522D02*
X1021625D01*
X1019852Y420787D01*
X1018494Y419430D01*
X1017759Y417656D01*
Y415736D01*
X1018494Y413962D01*
X1019543Y412913D01*
X1019735Y412136D01*
X1019543Y411358D01*
X1018494Y410309D01*
X1017759Y408535D01*
Y406615D01*
X1018494Y404842D01*
X1019852Y403484D01*
X1021625Y402749D01*
X1023545D01*
X1025319Y403484D01*
X1026676Y404842D01*
X1027411Y406615D01*
Y408535D01*
X1026676Y410309D01*
X1025628Y411358D01*
X1025435Y412136D01*
X1025628Y412913D01*
X1026676Y413962D01*
X1027411Y415736D01*
Y417656D01*
X1026676Y419430D01*
X1025319Y420787D01*
X1023545Y421522D01*
D02*
G37*
G36*
X1326369Y421264D02*
X1324449D01*
X1322675Y420530D01*
X1321318Y419172D01*
X1320583Y417398D01*
Y415478D01*
X1321318Y413705D01*
X1322367Y412656D01*
X1322559Y411878D01*
X1322367Y411100D01*
X1321318Y410051D01*
X1320583Y408277D01*
Y406358D01*
X1321318Y404584D01*
X1322675Y403226D01*
X1324449Y402491D01*
X1326369D01*
X1328143Y403226D01*
X1329500Y404584D01*
X1330235Y406358D01*
Y408277D01*
X1329500Y410051D01*
X1328452Y411100D01*
X1328259Y411878D01*
X1328452Y412656D01*
X1329500Y413705D01*
X1330235Y415478D01*
Y417398D01*
X1329500Y419172D01*
X1328143Y420530D01*
X1326369Y421264D01*
D02*
G37*
G36*
X1260719Y421758D02*
X1257945D01*
X1255267Y421040D01*
X1252865Y419654D01*
X1250904Y417693D01*
X1249518Y415291D01*
X1248800Y412613D01*
Y409839D01*
X1249518Y407161D01*
X1250904Y404759D01*
X1252865Y402798D01*
X1255267Y401412D01*
X1257945Y400694D01*
X1260719D01*
X1263397Y401412D01*
X1265799Y402798D01*
X1267760Y404759D01*
X1269146Y407161D01*
X1269864Y409839D01*
Y412613D01*
X1269146Y415291D01*
X1267760Y417693D01*
X1265799Y419654D01*
X1263397Y421040D01*
X1260719Y421758D01*
D02*
G37*
G36*
X1244464D02*
X1223400D01*
Y400694D01*
X1244464D01*
Y421758D01*
D02*
G37*
G36*
X180322Y422788D02*
X178403D01*
X176629Y422053D01*
X175271Y420695D01*
X174536Y418921D01*
Y417002D01*
X175271Y415228D01*
X176603Y413896D01*
X176077Y413369D01*
X175342Y411596D01*
Y409676D01*
X176077Y407902D01*
X177402Y406577D01*
X176520Y405696D01*
X175785Y403922D01*
Y402002D01*
X176520Y400228D01*
X177877Y398871D01*
X179651Y398136D01*
X181571D01*
X183344Y398871D01*
X184346Y399872D01*
X184424Y399856D01*
X185781Y398499D01*
X187555Y397764D01*
X189475D01*
X191248Y398499D01*
X192606Y399856D01*
X193341Y401630D01*
Y403550D01*
X192606Y405324D01*
X191248Y406681D01*
X189475Y407416D01*
X187555D01*
X185781Y406681D01*
X184780Y405680D01*
X184702Y405696D01*
X183378Y407020D01*
X184260Y407902D01*
X184994Y409676D01*
Y411596D01*
X184260Y413369D01*
X182927Y414701D01*
X183454Y415228D01*
X184188Y417002D01*
Y418921D01*
X183454Y420695D01*
X182096Y422053D01*
X180322Y422788D01*
D02*
G37*
G36*
X710986Y414914D02*
X709067D01*
X707293Y414180D01*
X705935Y412822D01*
X705201Y411048D01*
Y409128D01*
X705935Y407355D01*
X706984Y406306D01*
X707177Y405528D01*
X706984Y404750D01*
X705935Y403701D01*
X705201Y401927D01*
Y400008D01*
X705935Y398234D01*
X707293Y396876D01*
X709067Y396142D01*
X710986D01*
X712760Y396876D01*
X714118Y398234D01*
X714853Y400008D01*
Y401927D01*
X714118Y403701D01*
X713069Y404750D01*
X712876Y405528D01*
X713069Y406306D01*
X714118Y407355D01*
X714853Y409128D01*
Y411048D01*
X714118Y412822D01*
X712760Y414180D01*
X710986Y414914D01*
D02*
G37*
G36*
X327015Y416424D02*
X324241D01*
X321563Y415706D01*
X319161Y414320D01*
X317200Y412359D01*
X315814Y409957D01*
X315096Y407279D01*
Y404505D01*
X315814Y401827D01*
X317200Y399425D01*
X319161Y397464D01*
X321563Y396078D01*
X324241Y395360D01*
X327015D01*
X329693Y396078D01*
X332095Y397464D01*
X334056Y399425D01*
X335442Y401827D01*
X336160Y404505D01*
Y407279D01*
X335442Y409957D01*
X334056Y412359D01*
X332095Y414320D01*
X329693Y415706D01*
X327015Y416424D01*
D02*
G37*
G36*
X310760D02*
X289696D01*
Y395360D01*
X310760D01*
Y416424D01*
D02*
G37*
G36*
X1111933Y418041D02*
X1110013D01*
X1108239Y417306D01*
X1106881Y415948D01*
X1106147Y414174D01*
Y412254D01*
X1106881Y410481D01*
X1108239Y409123D01*
X1108266Y408985D01*
X1107914Y408633D01*
X1107179Y406859D01*
Y404939D01*
X1107869Y403272D01*
X1107958Y402773D01*
X1107776Y401859D01*
X1106419Y400502D01*
X1105684Y398728D01*
Y396808D01*
X1106419Y395034D01*
X1107776Y393676D01*
X1109550Y392942D01*
X1111470D01*
X1113243Y393676D01*
X1114601Y395034D01*
X1114701Y395274D01*
X1116075D01*
X1116175Y395034D01*
X1117532Y393676D01*
X1119306Y392942D01*
X1121226D01*
X1123000Y393676D01*
X1124357Y395034D01*
X1125092Y396808D01*
Y398728D01*
X1124357Y400502D01*
X1123000Y401859D01*
X1121226Y402594D01*
X1119306D01*
X1117532Y401859D01*
X1116604Y400931D01*
X1115209Y400935D01*
X1115030Y401016D01*
X1114682Y401524D01*
X1114739Y401808D01*
X1116096Y403165D01*
X1116831Y404939D01*
Y406859D01*
X1116096Y408633D01*
X1114739Y409990D01*
X1114711Y410128D01*
X1115064Y410481D01*
X1115799Y412254D01*
Y414174D01*
X1115064Y415948D01*
X1113706Y417306D01*
X1111933Y418041D01*
D02*
G37*
G36*
X1414724Y416052D02*
X1412804D01*
X1411030Y415317D01*
X1409673Y413960D01*
X1408938Y412186D01*
Y410266D01*
X1409673Y408492D01*
X1410495Y407670D01*
X1409673Y406848D01*
X1408938Y405074D01*
Y403154D01*
X1409673Y401380D01*
X1410742Y400311D01*
X1410185Y399754D01*
X1409450Y397980D01*
Y396060D01*
X1410185Y394287D01*
X1411543Y392929D01*
X1413316Y392195D01*
X1415236D01*
X1417010Y392929D01*
X1418098Y394017D01*
X1418411Y394281D01*
X1419668Y394107D01*
X1420356Y393419D01*
X1422130Y392684D01*
X1424050D01*
X1425824Y393419D01*
X1427181Y394776D01*
X1427916Y396550D01*
Y398470D01*
X1427181Y400244D01*
X1425824Y401601D01*
X1424050Y402336D01*
X1422130D01*
X1420356Y401601D01*
X1419652Y400897D01*
X1419187Y400817D01*
X1418580Y400940D01*
X1418135Y401216D01*
X1417974Y401667D01*
X1418590Y403154D01*
Y405074D01*
X1417855Y406848D01*
X1417033Y407670D01*
X1417855Y408492D01*
X1418590Y410266D01*
Y412186D01*
X1417855Y413960D01*
X1416498Y415317D01*
X1414724Y416052D01*
D02*
G37*
G36*
X191460Y392176D02*
X189540D01*
X187766Y391441D01*
X186409Y390084D01*
X186353Y389948D01*
X184858Y389658D01*
X184090Y390425D01*
X182316Y391160D01*
X180396D01*
X178622Y390425D01*
X177265Y389068D01*
X176530Y387294D01*
Y385374D01*
X177265Y383600D01*
X178622Y382243D01*
X180396Y381508D01*
X182316D01*
X184090Y382243D01*
X185447Y383600D01*
X185503Y383736D01*
X186999Y384026D01*
X187766Y383259D01*
X189540Y382524D01*
X191460D01*
X193234Y383259D01*
X194591Y384616D01*
X195326Y386390D01*
Y388310D01*
X194591Y390084D01*
X193234Y391441D01*
X191460Y392176D01*
D02*
G37*
G36*
X798925Y410594D02*
X797005D01*
X795232Y409859D01*
X793874Y408502D01*
X793139Y406728D01*
Y404808D01*
X793874Y403034D01*
X795232Y401677D01*
X794981Y401208D01*
X794856Y401082D01*
X794121Y399309D01*
Y397389D01*
X794856Y395615D01*
X795267Y395204D01*
X795248Y395109D01*
X793890Y393751D01*
X793156Y391977D01*
Y390057D01*
X793890Y388284D01*
X795248Y386926D01*
X797022Y386191D01*
X798941D01*
X800715Y386926D01*
X802073Y388284D01*
X802187Y388559D01*
X803561D01*
X803616Y388426D01*
X804974Y387069D01*
X806747Y386334D01*
X808667D01*
X810441Y387069D01*
X811799Y388426D01*
X812533Y390200D01*
Y392120D01*
X811799Y393894D01*
X810441Y395251D01*
X808667Y395986D01*
X806747D01*
X804974Y395251D01*
X803958Y394235D01*
X802705Y394337D01*
X802499Y394436D01*
X802312Y394889D01*
X803038Y395615D01*
X803773Y397389D01*
Y399309D01*
X803038Y401082D01*
X801681Y402440D01*
X801931Y402909D01*
X802057Y403034D01*
X802792Y404808D01*
Y406728D01*
X802057Y408502D01*
X800699Y409859D01*
X798925Y410594D01*
D02*
G37*
G36*
X481782Y416560D02*
X479862D01*
X478088Y415825D01*
X476731Y414468D01*
X475996Y412694D01*
Y410774D01*
X476731Y409000D01*
X477268Y408463D01*
X477276Y406709D01*
X477202Y406634D01*
X476467Y404861D01*
Y402941D01*
X477202Y401167D01*
X478559Y399809D01*
X479593Y399381D01*
Y398007D01*
X479073Y397791D01*
X477715Y396434D01*
X476980Y394660D01*
Y392740D01*
X477715Y390966D01*
X479073Y389609D01*
X480846Y388874D01*
X482766D01*
X484540Y389609D01*
X485807Y390876D01*
X486521Y390924D01*
X487235Y390876D01*
X488502Y389609D01*
X489061Y389377D01*
Y388003D01*
X488502Y387771D01*
X487145Y386414D01*
X486888Y385793D01*
X485642Y385545D01*
X485334Y385853D01*
X483560Y386588D01*
X481640D01*
X479866Y385853D01*
X478509Y384496D01*
X477774Y382722D01*
Y380802D01*
X478509Y379028D01*
X479866Y377671D01*
X481640Y376936D01*
X483560D01*
X485334Y377671D01*
X486691Y379028D01*
X486949Y379649D01*
X488194Y379897D01*
X488502Y379589D01*
X490276Y378854D01*
X492196D01*
X493970Y379589D01*
X495327Y380946D01*
X496062Y382720D01*
Y384640D01*
X495327Y386414D01*
X493970Y387771D01*
X493411Y388003D01*
Y389377D01*
X493970Y389609D01*
X495327Y390966D01*
X496062Y392740D01*
Y394660D01*
X495327Y396434D01*
X493970Y397791D01*
X492196Y398526D01*
X490276D01*
X488502Y397791D01*
X487235Y396524D01*
X486521Y396476D01*
X485807Y396524D01*
X484540Y397791D01*
X483507Y398219D01*
Y399594D01*
X484027Y399809D01*
X485384Y401167D01*
X486119Y402941D01*
Y404861D01*
X485384Y406634D01*
X484847Y407172D01*
X484839Y408926D01*
X484913Y409000D01*
X485648Y410774D01*
Y412694D01*
X484913Y414468D01*
X483556Y415825D01*
X481782Y416560D01*
D02*
G37*
G36*
X1121226Y387354D02*
X1119306D01*
X1117532Y386619D01*
X1116175Y385261D01*
X1116111Y385108D01*
X1114841D01*
X1114777Y385261D01*
X1113420Y386619D01*
X1111646Y387354D01*
X1109726D01*
X1107952Y386619D01*
X1106595Y385261D01*
X1105860Y383488D01*
Y381568D01*
X1106595Y379794D01*
X1107952Y378437D01*
X1109726Y377702D01*
X1111646D01*
X1113420Y378437D01*
X1114777Y379794D01*
X1114841Y379948D01*
X1116111D01*
X1116175Y379794D01*
X1117532Y378437D01*
X1119306Y377702D01*
X1121226D01*
X1123000Y378437D01*
X1124357Y379794D01*
X1125092Y381568D01*
Y383488D01*
X1124357Y385261D01*
X1123000Y386619D01*
X1121226Y387354D01*
D02*
G37*
G36*
X1424050Y387096D02*
X1422130D01*
X1420356Y386361D01*
X1418999Y385004D01*
X1418935Y384850D01*
X1417665D01*
X1417601Y385004D01*
X1416244Y386361D01*
X1414470Y387096D01*
X1412550D01*
X1410776Y386361D01*
X1409419Y385004D01*
X1408684Y383230D01*
Y381310D01*
X1409419Y379536D01*
X1410776Y378179D01*
X1412550Y377444D01*
X1414470D01*
X1416244Y378179D01*
X1417601Y379536D01*
X1417665Y379690D01*
X1418935D01*
X1418999Y379536D01*
X1420356Y378179D01*
X1422130Y377444D01*
X1424050D01*
X1425824Y378179D01*
X1427181Y379536D01*
X1427916Y381310D01*
Y383230D01*
X1427181Y385004D01*
X1425824Y386361D01*
X1424050Y387096D01*
D02*
G37*
G36*
X252674Y392430D02*
X250754D01*
X248980Y391695D01*
X247623Y390338D01*
X246888Y388564D01*
Y386644D01*
X247623Y384870D01*
X248980Y383513D01*
X250754Y382778D01*
X252674D01*
X254448Y383513D01*
X255805Y384870D01*
X256540Y386644D01*
Y388564D01*
X255805Y390338D01*
X254448Y391695D01*
X252674Y392430D01*
D02*
G37*
G36*
X218130Y392176D02*
X216210D01*
X214436Y391441D01*
X213079Y390084D01*
X212344Y388310D01*
Y386390D01*
X213079Y384616D01*
X214436Y383259D01*
X216210Y382524D01*
X218130D01*
X219904Y383259D01*
X221261Y384616D01*
X221996Y386390D01*
Y388310D01*
X221261Y390084D01*
X219904Y391441D01*
X218130Y392176D01*
D02*
G37*
G36*
X520390Y388366D02*
X518470D01*
X516696Y387631D01*
X515339Y386274D01*
X514604Y384500D01*
Y382580D01*
X515339Y380806D01*
X516696Y379449D01*
X518470Y378714D01*
X520390D01*
X522164Y379449D01*
X523521Y380806D01*
X524256Y382580D01*
Y384500D01*
X523521Y386274D01*
X522164Y387631D01*
X520390Y388366D01*
D02*
G37*
G36*
X808667Y380746D02*
X806747D01*
X804974Y380011D01*
X803616Y378654D01*
X803552Y378500D01*
X802282D01*
X802219Y378654D01*
X800861Y380011D01*
X799087Y380746D01*
X797167D01*
X795394Y380011D01*
X794036Y378654D01*
X793301Y376880D01*
Y374960D01*
X794036Y373186D01*
X795394Y371829D01*
X797167Y371094D01*
X799087D01*
X800861Y371829D01*
X802219Y373186D01*
X802282Y373340D01*
X803552D01*
X803616Y373186D01*
X804974Y371829D01*
X806747Y371094D01*
X808667D01*
X810441Y371829D01*
X811799Y373186D01*
X812533Y374960D01*
Y376880D01*
X811799Y378654D01*
X810441Y380011D01*
X808667Y380746D01*
D02*
G37*
G36*
X554680Y388112D02*
X552760D01*
X550986Y387377D01*
X549629Y386020D01*
X548894Y384246D01*
Y382326D01*
X549629Y380552D01*
X550986Y379195D01*
X552760Y378460D01*
X554680D01*
X556454Y379195D01*
X557811Y380552D01*
X558546Y382326D01*
Y384246D01*
X557811Y386020D01*
X556454Y387377D01*
X554680Y388112D01*
D02*
G37*
G36*
X1151860Y387774D02*
X1149940D01*
X1148166Y387039D01*
X1146809Y385681D01*
X1146074Y383908D01*
Y381988D01*
X1146809Y380214D01*
X1148166Y378857D01*
X1149940Y378122D01*
X1151860D01*
X1153634Y378857D01*
X1154991Y380214D01*
X1155726Y381988D01*
Y383908D01*
X1154991Y385681D01*
X1153634Y387039D01*
X1151860Y387774D01*
D02*
G37*
G36*
X1185616Y387604D02*
X1183696D01*
X1181922Y386869D01*
X1180565Y385512D01*
X1179830Y383738D01*
Y381818D01*
X1180565Y380044D01*
X1181922Y378687D01*
X1183696Y377952D01*
X1185616D01*
X1187390Y378687D01*
X1188747Y380044D01*
X1189482Y381818D01*
Y383738D01*
X1188747Y385512D01*
X1187390Y386869D01*
X1185616Y387604D01*
D02*
G37*
G36*
X1455110Y387096D02*
X1453190D01*
X1451416Y386361D01*
X1450059Y385004D01*
X1449324Y383230D01*
Y381310D01*
X1450059Y379536D01*
X1451416Y378179D01*
X1453190Y377444D01*
X1455110D01*
X1456884Y378179D01*
X1458241Y379536D01*
X1458976Y381310D01*
Y383230D01*
X1458241Y385004D01*
X1456884Y386361D01*
X1455110Y387096D01*
D02*
G37*
G36*
X1487513Y386764D02*
X1485593D01*
X1483819Y386029D01*
X1482462Y384672D01*
X1481727Y382898D01*
Y380978D01*
X1482462Y379204D01*
X1483819Y377846D01*
X1485593Y377112D01*
X1487513D01*
X1489286Y377846D01*
X1490644Y379204D01*
X1491379Y380978D01*
Y382898D01*
X1490644Y384672D01*
X1489286Y386029D01*
X1487513Y386764D01*
D02*
G37*
G36*
X835350Y380770D02*
X833430D01*
X831656Y380035D01*
X830299Y378677D01*
X829564Y376904D01*
Y374984D01*
X830299Y373210D01*
X831656Y371852D01*
X833430Y371118D01*
X835350D01*
X837124Y371852D01*
X838481Y373210D01*
X839216Y374984D01*
Y376904D01*
X838481Y378677D01*
X837124Y380035D01*
X835350Y380770D01*
D02*
G37*
G36*
X869894Y380238D02*
X867974D01*
X866200Y379503D01*
X864843Y378146D01*
X864108Y376372D01*
Y374452D01*
X864843Y372678D01*
X866200Y371321D01*
X867974Y370586D01*
X869894D01*
X871668Y371321D01*
X873025Y372678D01*
X873760Y374452D01*
Y376372D01*
X873025Y378146D01*
X871668Y379503D01*
X869894Y380238D01*
D02*
G37*
G36*
X92312Y390830D02*
X90393D01*
X88619Y390095D01*
X87261Y388737D01*
X86526Y386964D01*
Y385044D01*
X87261Y383270D01*
X88619Y381912D01*
X88822Y380889D01*
X88365Y380432D01*
X87630Y378658D01*
Y376738D01*
X88365Y374964D01*
X89500Y373829D01*
X89718Y373552D01*
X89610Y372279D01*
X88873Y371542D01*
X88138Y369768D01*
Y367848D01*
X88873Y366074D01*
X90230Y364717D01*
X92004Y363982D01*
X93924D01*
X95698Y364717D01*
X97055Y366074D01*
X97790Y367848D01*
Y369768D01*
X97055Y371542D01*
X95920Y372677D01*
X95702Y372954D01*
X95810Y374227D01*
X96547Y374964D01*
X97282Y376738D01*
Y378658D01*
X96547Y380432D01*
X95190Y381789D01*
X94986Y382812D01*
X95444Y383270D01*
X96179Y385044D01*
Y386964D01*
X95444Y388737D01*
X94086Y390095D01*
X92312Y390830D01*
D02*
G37*
G36*
X1024424Y387431D02*
X1022505D01*
X1020731Y386696D01*
X1019373Y385339D01*
X1018639Y383565D01*
Y381645D01*
X1019368Y379883D01*
X1017754Y379214D01*
X1016396Y377856D01*
X1015661Y376082D01*
Y374163D01*
X1016396Y372389D01*
X1017754Y371031D01*
X1019527Y370297D01*
X1019810Y369873D01*
X1019556Y369260D01*
Y367340D01*
X1020291Y365566D01*
X1021648Y364209D01*
X1023422Y363474D01*
X1025342D01*
X1027116Y364209D01*
X1028473Y365566D01*
X1029208Y367340D01*
Y369260D01*
X1028473Y371034D01*
X1027116Y372391D01*
X1025342Y373126D01*
X1025059Y373549D01*
X1025313Y374163D01*
Y376082D01*
X1024583Y377845D01*
X1026198Y378514D01*
X1027556Y379871D01*
X1028290Y381645D01*
Y383565D01*
X1027556Y385339D01*
X1026198Y386696D01*
X1024424Y387431D01*
D02*
G37*
G36*
X394649Y388443D02*
X392729D01*
X390956Y387709D01*
X389598Y386351D01*
X388863Y384577D01*
Y382657D01*
X389598Y380883D01*
X390288Y380194D01*
X390669Y379119D01*
X390270Y378553D01*
X389355Y377638D01*
X388620Y375864D01*
Y373944D01*
X389355Y372170D01*
X389890Y371635D01*
X389921Y369870D01*
X389834Y369783D01*
X389099Y368009D01*
Y366089D01*
X389834Y364316D01*
X391192Y362958D01*
X392965Y362223D01*
X394885D01*
X396659Y362958D01*
X398017Y364316D01*
X398751Y366089D01*
Y368009D01*
X398017Y369783D01*
X397481Y370318D01*
X397450Y372083D01*
X397537Y372170D01*
X398272Y373944D01*
Y375864D01*
X397537Y377638D01*
X396848Y378327D01*
X396467Y379403D01*
X396866Y379969D01*
X397781Y380883D01*
X398515Y382657D01*
Y384577D01*
X397781Y386351D01*
X396423Y387709D01*
X394649Y388443D01*
D02*
G37*
G36*
X1328302Y387407D02*
X1326382D01*
X1324608Y386673D01*
X1323251Y385315D01*
X1322516Y383541D01*
Y381621D01*
X1323251Y379847D01*
X1323496Y379602D01*
X1323153Y378149D01*
X1322055Y377694D01*
X1320697Y376337D01*
X1319962Y374563D01*
Y372643D01*
X1320697Y370869D01*
X1322055Y369512D01*
X1322756Y369221D01*
X1322800Y369002D01*
X1322065Y367229D01*
Y365309D01*
X1322800Y363535D01*
X1324157Y362177D01*
X1325931Y361443D01*
X1327851D01*
X1329625Y362177D01*
X1330982Y363535D01*
X1331717Y365309D01*
Y367229D01*
X1330982Y369002D01*
X1329625Y370360D01*
X1328923Y370650D01*
X1328880Y370869D01*
X1329614Y372643D01*
Y374563D01*
X1328880Y376337D01*
X1328634Y376582D01*
X1328977Y378035D01*
X1330076Y378490D01*
X1331433Y379847D01*
X1332168Y381621D01*
Y383541D01*
X1331433Y385315D01*
X1330076Y386673D01*
X1328302Y387407D01*
D02*
G37*
G36*
X171500Y369143D02*
X169580D01*
X167806Y368409D01*
X166449Y367051D01*
X165714Y365277D01*
Y363357D01*
X166449Y361584D01*
X167806Y360226D01*
X169580Y359491D01*
X171500D01*
X173274Y360226D01*
X174631Y361584D01*
X175366Y363357D01*
Y365277D01*
X174631Y367051D01*
X173274Y368409D01*
X171500Y369143D01*
D02*
G37*
G36*
X1392836Y360957D02*
X1390916D01*
X1389143Y360223D01*
X1387950Y359029D01*
X1387542Y359437D01*
X1385768Y360172D01*
X1383848D01*
X1382074Y359437D01*
X1380717Y358080D01*
X1379982Y356306D01*
Y354386D01*
X1380717Y352612D01*
X1382074Y351255D01*
X1383848Y350520D01*
X1385768D01*
X1387542Y351255D01*
X1388735Y352448D01*
X1389143Y352040D01*
X1390916Y351305D01*
X1392836D01*
X1394610Y352040D01*
X1395968Y353398D01*
X1396703Y355171D01*
Y357091D01*
X1395968Y358865D01*
X1394610Y360223D01*
X1392836Y360957D01*
D02*
G37*
G36*
X1089858Y361188D02*
X1087938D01*
X1086164Y360453D01*
X1084807Y359096D01*
X1084234Y358982D01*
X1084032Y359183D01*
X1082258Y359918D01*
X1080338D01*
X1078565Y359183D01*
X1077207Y357826D01*
X1076472Y356052D01*
Y354132D01*
X1077207Y352358D01*
X1078565Y351001D01*
X1080338Y350266D01*
X1082258D01*
X1084032Y351001D01*
X1085390Y352358D01*
X1085963Y352472D01*
X1086164Y352271D01*
X1087938Y351536D01*
X1089858D01*
X1091632Y352271D01*
X1092989Y353628D01*
X1093724Y355402D01*
Y357322D01*
X1092989Y359096D01*
X1091632Y360453D01*
X1089858Y361188D01*
D02*
G37*
G36*
X1408792Y367710D02*
X1406872D01*
X1405099Y366975D01*
X1403741Y365618D01*
X1403006Y363844D01*
Y361924D01*
X1403741Y360150D01*
X1405099Y358793D01*
X1406872Y358058D01*
X1408792D01*
X1410566Y358793D01*
X1411924Y360150D01*
X1412658Y361924D01*
Y363844D01*
X1411924Y365618D01*
X1410566Y366975D01*
X1408792Y367710D01*
D02*
G37*
G36*
X711750Y381328D02*
X709830D01*
X708056Y380593D01*
X706699Y379235D01*
X705964Y377462D01*
Y375542D01*
X706699Y373768D01*
X707436Y373031D01*
X706445Y372040D01*
X705710Y370267D01*
Y368347D01*
X706445Y366573D01*
X707735Y365283D01*
X707452Y365000D01*
X706717Y363226D01*
Y361306D01*
X707452Y359533D01*
X708809Y358175D01*
X710583Y357440D01*
X712503D01*
X714277Y358175D01*
X715634Y359533D01*
X716369Y361306D01*
Y363226D01*
X715634Y365000D01*
X714344Y366290D01*
X714627Y366573D01*
X715362Y368347D01*
Y370267D01*
X714627Y372040D01*
X713890Y372777D01*
X714881Y373768D01*
X715616Y375542D01*
Y377462D01*
X714881Y379235D01*
X713524Y380593D01*
X711750Y381328D01*
D02*
G37*
G36*
X1108146Y366776D02*
X1106226D01*
X1104452Y366041D01*
X1103095Y364684D01*
X1102360Y362910D01*
Y360990D01*
X1103095Y359216D01*
X1104452Y357859D01*
X1106226Y357124D01*
X1108146D01*
X1109920Y357859D01*
X1111277Y359216D01*
X1112012Y360990D01*
Y362910D01*
X1111277Y364684D01*
X1109920Y366041D01*
X1108146Y366776D01*
D02*
G37*
G36*
X113855Y365506D02*
X111935D01*
X110161Y364771D01*
X108803Y363414D01*
X108069Y361640D01*
Y359720D01*
X108803Y357946D01*
X110161Y356589D01*
X111935Y355854D01*
X113855D01*
X115628Y356589D01*
X116986Y357946D01*
X117721Y359720D01*
Y361640D01*
X116986Y363414D01*
X115628Y364771D01*
X113855Y365506D01*
D02*
G37*
G36*
X149296Y366776D02*
X147376D01*
X145602Y366041D01*
X144245Y364684D01*
X143510Y362910D01*
Y360990D01*
X144245Y359216D01*
X145602Y357859D01*
X147376Y357124D01*
X149296D01*
X151070Y357859D01*
X151567Y358356D01*
X153065Y358058D01*
X153183Y357773D01*
X154541Y356415D01*
X156315Y355680D01*
X158235D01*
X160009Y356415D01*
X161366Y357773D01*
X162101Y359547D01*
Y361466D01*
X161366Y363240D01*
X160009Y364598D01*
X158235Y365332D01*
X156315D01*
X154541Y364598D01*
X154044Y364100D01*
X152545Y364398D01*
X152427Y364684D01*
X151070Y366041D01*
X149296Y366776D01*
D02*
G37*
G36*
X451302Y363220D02*
X449382D01*
X447608Y362485D01*
X446251Y361128D01*
X445516Y359354D01*
Y357434D01*
X446251Y355660D01*
X447608Y354303D01*
X449382Y353568D01*
X451302D01*
X453076Y354303D01*
X453683Y354910D01*
X454592Y354729D01*
X455949Y353371D01*
X457723Y352637D01*
X459643D01*
X461417Y353371D01*
X462774Y354729D01*
X463509Y356503D01*
Y358423D01*
X462774Y360196D01*
X461417Y361554D01*
X459643Y362289D01*
X457723D01*
X455949Y361554D01*
X455342Y360947D01*
X454433Y361128D01*
X453076Y362485D01*
X451302Y363220D01*
D02*
G37*
G36*
X478480Y361950D02*
X476560D01*
X474786Y361215D01*
X473429Y359858D01*
X472694Y358084D01*
Y356164D01*
X473429Y354390D01*
X474786Y353033D01*
X476560Y352298D01*
X478480D01*
X480254Y353033D01*
X481611Y354390D01*
X482346Y356164D01*
Y358084D01*
X481611Y359858D01*
X480254Y361215D01*
X478480Y361950D01*
D02*
G37*
G36*
X415831Y361696D02*
X413911D01*
X412137Y360961D01*
X410780Y359604D01*
X410045Y357830D01*
Y355910D01*
X410780Y354136D01*
X412137Y352779D01*
X413911Y352044D01*
X415831D01*
X417605Y352779D01*
X418962Y354136D01*
X419697Y355910D01*
Y357830D01*
X418962Y359604D01*
X417605Y360961D01*
X415831Y361696D01*
D02*
G37*
G36*
X1045628Y360706D02*
X1043708D01*
X1041934Y359971D01*
X1040577Y358614D01*
X1039842Y356840D01*
Y354920D01*
X1040577Y353146D01*
X1041934Y351788D01*
X1043708Y351054D01*
X1045628D01*
X1047402Y351788D01*
X1048759Y353146D01*
X1049494Y354920D01*
Y356840D01*
X1048759Y358614D01*
X1047402Y359971D01*
X1045628Y360706D01*
D02*
G37*
G36*
X1348430Y360426D02*
X1346510D01*
X1344736Y359691D01*
X1343379Y358334D01*
X1342644Y356560D01*
Y354640D01*
X1343379Y352866D01*
X1344736Y351509D01*
X1346510Y350774D01*
X1348430D01*
X1350204Y351509D01*
X1351561Y352866D01*
X1352296Y354640D01*
Y356560D01*
X1351561Y358334D01*
X1350204Y359691D01*
X1348430Y360426D01*
D02*
G37*
G36*
X793186Y358394D02*
X791266D01*
X789492Y357659D01*
X788135Y356302D01*
X787400Y354528D01*
Y352608D01*
X788135Y350834D01*
X789492Y349477D01*
X791266Y348742D01*
X793186D01*
X794960Y349477D01*
X796317Y350834D01*
X797052Y352608D01*
Y354528D01*
X796317Y356302D01*
X794960Y357659D01*
X793186Y358394D01*
D02*
G37*
G36*
X99026Y356254D02*
X97106D01*
X95333Y355520D01*
X93975Y354162D01*
X93240Y352388D01*
Y350468D01*
X93975Y348695D01*
X95333Y347337D01*
X97106Y346602D01*
X99026D01*
X100800Y347337D01*
X102158Y348695D01*
X102892Y350468D01*
Y352388D01*
X102158Y354162D01*
X100800Y355520D01*
X99026Y356254D01*
D02*
G37*
G36*
X768069Y357095D02*
X766149D01*
X764376Y356360D01*
X763018Y355002D01*
X762283Y353229D01*
Y351309D01*
X763018Y349535D01*
X764376Y348177D01*
X766149Y347443D01*
X768069D01*
X769843Y348177D01*
X771313Y347852D01*
X771570Y347234D01*
X772927Y345876D01*
X774701Y345141D01*
X776621D01*
X778394Y345876D01*
X779752Y347234D01*
X780487Y349007D01*
Y350927D01*
X779752Y352701D01*
X778394Y354058D01*
X776621Y354793D01*
X774701D01*
X772927Y354058D01*
X771457Y354384D01*
X771201Y355002D01*
X769843Y356360D01*
X768069Y357095D01*
D02*
G37*
G36*
X733047Y354076D02*
X731127D01*
X729354Y353341D01*
X727996Y351984D01*
X727261Y350210D01*
Y348290D01*
X727996Y346516D01*
X729354Y345159D01*
X731127Y344424D01*
X733047D01*
X734821Y345159D01*
X736179Y346516D01*
X736913Y348290D01*
Y350210D01*
X736179Y351984D01*
X734821Y353341D01*
X733047Y354076D01*
D02*
G37*
G36*
X406071Y352806D02*
X404151D01*
X402377Y352071D01*
X401020Y350714D01*
X400285Y348940D01*
Y347020D01*
X401020Y345246D01*
X402377Y343889D01*
X404151Y343154D01*
X406071D01*
X407845Y343889D01*
X409202Y345246D01*
X409937Y347020D01*
Y348940D01*
X409202Y350714D01*
X407845Y352071D01*
X406071Y352806D01*
D02*
G37*
G36*
X1035846Y351794D02*
X1033926D01*
X1032152Y351059D01*
X1030795Y349701D01*
X1030060Y347928D01*
Y346008D01*
X1030795Y344234D01*
X1032152Y342877D01*
X1033926Y342142D01*
X1035846D01*
X1037620Y342877D01*
X1038977Y344234D01*
X1039712Y346008D01*
Y347928D01*
X1038977Y349701D01*
X1037620Y351059D01*
X1035846Y351794D01*
D02*
G37*
G36*
X1338670Y351536D02*
X1336750D01*
X1334976Y350801D01*
X1333619Y349444D01*
X1332884Y347670D01*
Y345750D01*
X1333619Y343976D01*
X1334976Y342619D01*
X1336750Y341884D01*
X1338670D01*
X1340444Y342619D01*
X1341801Y343976D01*
X1342536Y345750D01*
Y347670D01*
X1341801Y349444D01*
X1340444Y350801D01*
X1338670Y351536D01*
D02*
G37*
G36*
X1545443Y366322D02*
X1541617D01*
X1537921Y365332D01*
X1534607Y363419D01*
X1531902Y360713D01*
X1529988Y357399D01*
X1528998Y353703D01*
Y349877D01*
X1529988Y346181D01*
X1531902Y342867D01*
X1534607Y340162D01*
X1537921Y338248D01*
X1541617Y337258D01*
X1545443D01*
X1549139Y338248D01*
X1552453Y340162D01*
X1555159Y342867D01*
X1557072Y346181D01*
X1558062Y349877D01*
Y353703D01*
X1557072Y357399D01*
X1555159Y360713D01*
X1552453Y363419D01*
X1549139Y365332D01*
X1545443Y366322D01*
D02*
G37*
G36*
X31913D02*
X28087D01*
X24391Y365332D01*
X21077Y363419D01*
X18371Y360713D01*
X16458Y357399D01*
X15468Y353703D01*
Y349877D01*
X16458Y346181D01*
X18371Y342867D01*
X21077Y340162D01*
X24391Y338248D01*
X28087Y337258D01*
X31913D01*
X35609Y338248D01*
X38923Y340162D01*
X41628Y342867D01*
X43542Y346181D01*
X44532Y349877D01*
Y353703D01*
X43542Y357399D01*
X41628Y360713D01*
X38923Y363419D01*
X35609Y365332D01*
X31913Y366322D01*
D02*
G37*
G36*
X723287Y345186D02*
X721367D01*
X719594Y344451D01*
X718236Y343094D01*
X717501Y341320D01*
Y339400D01*
X718236Y337626D01*
X719594Y336269D01*
X721367Y335534D01*
X723287D01*
X725061Y336269D01*
X726419Y337626D01*
X727153Y339400D01*
Y341320D01*
X726419Y343094D01*
X725061Y344451D01*
X723287Y345186D01*
D02*
G37*
G36*
X1090112Y338836D02*
X1088192D01*
X1086418Y338101D01*
X1085061Y336744D01*
X1084326Y334970D01*
Y333050D01*
X1085061Y331276D01*
X1086418Y329919D01*
X1088192Y329184D01*
X1090112D01*
X1091886Y329919D01*
X1093243Y331276D01*
X1093978Y333050D01*
Y334970D01*
X1093243Y336744D01*
X1091886Y338101D01*
X1090112Y338836D01*
D02*
G37*
G36*
X1413631Y338018D02*
X1411711D01*
X1409937Y337284D01*
X1408580Y335926D01*
X1407845Y334152D01*
Y332233D01*
X1408580Y330459D01*
X1409937Y329101D01*
X1411711Y328366D01*
X1413631D01*
X1415405Y329101D01*
X1416763Y330459D01*
X1417497Y332233D01*
Y334152D01*
X1416763Y335926D01*
X1415405Y337284D01*
X1413631Y338018D01*
D02*
G37*
G36*
X1435997Y337347D02*
X1434077D01*
X1432303Y336613D01*
X1430945Y335255D01*
X1430211Y333481D01*
Y331561D01*
X1430945Y329788D01*
X1432303Y328430D01*
X1434077Y327695D01*
X1435997D01*
X1437770Y328430D01*
X1439128Y329788D01*
X1439863Y331561D01*
Y333481D01*
X1439128Y335255D01*
X1437770Y336613D01*
X1435997Y337347D01*
D02*
G37*
G36*
X1116274Y336550D02*
X1114354D01*
X1112580Y335815D01*
X1111223Y334458D01*
X1110488Y332684D01*
Y330764D01*
X1111223Y328990D01*
X1112580Y327633D01*
X1114354Y326898D01*
X1116274D01*
X1118048Y327633D01*
X1119405Y328990D01*
X1120140Y330764D01*
Y332684D01*
X1119405Y334458D01*
X1118048Y335815D01*
X1116274Y336550D01*
D02*
G37*
G36*
X1392880Y335026D02*
X1390960D01*
X1389186Y334291D01*
X1387829Y332934D01*
X1387094Y331160D01*
Y329240D01*
X1387829Y327466D01*
X1389186Y326109D01*
X1390960Y325374D01*
X1392880D01*
X1394654Y326109D01*
X1396011Y327466D01*
X1396746Y329240D01*
Y331160D01*
X1396011Y332934D01*
X1394654Y334291D01*
X1392880Y335026D01*
D02*
G37*
G36*
X236926Y332994D02*
X235006D01*
X233232Y332259D01*
X231875Y330902D01*
X231140Y329128D01*
Y327208D01*
X231875Y325434D01*
X233232Y324077D01*
X235006Y323342D01*
X236926D01*
X238700Y324077D01*
X240057Y325434D01*
X240792Y327208D01*
Y329128D01*
X240057Y330902D01*
X238700Y332259D01*
X236926Y332994D01*
D02*
G37*
G36*
X1507688Y332486D02*
X1505768D01*
X1503994Y331751D01*
X1502637Y330394D01*
X1501902Y328620D01*
Y326700D01*
X1502637Y324926D01*
X1503994Y323569D01*
X1505768Y322834D01*
X1507688D01*
X1509462Y323569D01*
X1510819Y324926D01*
X1511554Y326700D01*
Y328620D01*
X1510819Y330394D01*
X1509462Y331751D01*
X1507688Y332486D01*
D02*
G37*
G36*
X552648D02*
X550728D01*
X548954Y331751D01*
X547597Y330394D01*
X546862Y328620D01*
Y326700D01*
X547597Y324926D01*
X548954Y323569D01*
X550728Y322834D01*
X552648D01*
X554422Y323569D01*
X555779Y324926D01*
X556514Y326700D01*
Y328620D01*
X555779Y330394D01*
X554422Y331751D01*
X552648Y332486D01*
D02*
G37*
G36*
X1189934Y331216D02*
X1188014D01*
X1186240Y330481D01*
X1184883Y329124D01*
X1184148Y327350D01*
Y325430D01*
X1184883Y323656D01*
X1186240Y322299D01*
X1188014Y321564D01*
X1189934D01*
X1191708Y322299D01*
X1193065Y323656D01*
X1193800Y325430D01*
Y327350D01*
X1193065Y329124D01*
X1191708Y330481D01*
X1189934Y331216D01*
D02*
G37*
G36*
X132786Y324104D02*
X130866D01*
X129092Y323369D01*
X127735Y322012D01*
X127608Y321707D01*
X126614Y321509D01*
X126178Y321571D01*
X124529Y322254D01*
X122609D01*
X120835Y321520D01*
X119477Y320162D01*
X118743Y318388D01*
Y316468D01*
X119477Y314695D01*
X120835Y313337D01*
X122609Y312602D01*
X124529D01*
X126302Y313337D01*
X127660Y314695D01*
X127786Y314999D01*
X128780Y315197D01*
X129217Y315135D01*
X130866Y314452D01*
X132786D01*
X134560Y315187D01*
X135917Y316544D01*
X136652Y318318D01*
Y320238D01*
X135917Y322012D01*
X134560Y323369D01*
X132786Y324104D01*
D02*
G37*
G36*
X871926Y330454D02*
X870006D01*
X868232Y329719D01*
X866875Y328362D01*
X866140Y326588D01*
Y324668D01*
X866875Y322894D01*
X868232Y321537D01*
X870006Y320802D01*
X871926D01*
X873700Y321537D01*
X875057Y322894D01*
X875792Y324668D01*
Y326588D01*
X875057Y328362D01*
X873700Y329719D01*
X871926Y330454D01*
D02*
G37*
G36*
X452667Y326803D02*
X450747D01*
X448973Y326068D01*
X447616Y324711D01*
X446881Y322937D01*
Y321017D01*
X447616Y319243D01*
X448973Y317886D01*
X450747Y317151D01*
X452667D01*
X454441Y317886D01*
X455798Y319243D01*
X456533Y321017D01*
Y322937D01*
X455798Y324711D01*
X454441Y326068D01*
X452667Y326803D01*
D02*
G37*
G36*
X1524706Y325120D02*
X1522786D01*
X1521012Y324385D01*
X1519655Y323028D01*
X1518920Y321254D01*
Y319334D01*
X1519655Y317560D01*
X1521012Y316203D01*
X1522786Y315468D01*
X1524706D01*
X1526480Y316203D01*
X1527837Y317560D01*
X1528572Y319334D01*
Y321254D01*
X1527837Y323028D01*
X1526480Y324385D01*
X1524706Y325120D01*
D02*
G37*
G36*
X569158D02*
X567238D01*
X565464Y324385D01*
X564107Y323028D01*
X563372Y321254D01*
Y319334D01*
X564107Y317560D01*
X565464Y316203D01*
X567238Y315468D01*
X569158D01*
X570932Y316203D01*
X572289Y317560D01*
X573024Y319334D01*
Y321254D01*
X572289Y323028D01*
X570932Y324385D01*
X569158Y325120D01*
D02*
G37*
G36*
X252928Y324866D02*
X251008D01*
X249234Y324131D01*
X247877Y322774D01*
X247142Y321000D01*
Y319080D01*
X247877Y317306D01*
X249234Y315949D01*
X251008Y315214D01*
X252928D01*
X254702Y315949D01*
X256059Y317306D01*
X256794Y319080D01*
Y321000D01*
X256059Y322774D01*
X254702Y324131D01*
X252928Y324866D01*
D02*
G37*
G36*
X887928Y324612D02*
X886008D01*
X884234Y323877D01*
X882877Y322520D01*
X882142Y320746D01*
Y318826D01*
X882877Y317052D01*
X884234Y315695D01*
X886008Y314960D01*
X887928D01*
X889702Y315695D01*
X891059Y317052D01*
X891794Y318826D01*
Y320746D01*
X891059Y322520D01*
X889702Y323877D01*
X887928Y324612D01*
D02*
G37*
G36*
X1082238Y324358D02*
X1080318D01*
X1078544Y323623D01*
X1077187Y322266D01*
X1076452Y320492D01*
Y318572D01*
X1077187Y316798D01*
X1078544Y315441D01*
X1080318Y314706D01*
X1082238D01*
X1084012Y315441D01*
X1085369Y316798D01*
X1086104Y318572D01*
Y320492D01*
X1085369Y322266D01*
X1084012Y323623D01*
X1082238Y324358D01*
D02*
G37*
G36*
X799257Y324294D02*
X797337D01*
X795564Y323559D01*
X794206Y322201D01*
X793471Y320428D01*
Y318508D01*
X794206Y316734D01*
X795564Y315376D01*
X797337Y314642D01*
X799257D01*
X801031Y315376D01*
X802389Y316734D01*
X803123Y318508D01*
Y320428D01*
X802389Y322201D01*
X801031Y323559D01*
X799257Y324294D01*
D02*
G37*
G36*
X761690Y324104D02*
X759770D01*
X757996Y323369D01*
X756639Y322012D01*
X755904Y320238D01*
Y318318D01*
X756639Y316544D01*
X757996Y315187D01*
X759770Y314452D01*
X761690D01*
X763464Y315187D01*
X764821Y316544D01*
X765556Y318318D01*
Y320238D01*
X764821Y322012D01*
X763464Y323369D01*
X761690Y324104D01*
D02*
G37*
G36*
X1206952Y323850D02*
X1205032D01*
X1203258Y323115D01*
X1201901Y321758D01*
X1201166Y319984D01*
Y318064D01*
X1201901Y316290D01*
X1203258Y314933D01*
X1205032Y314198D01*
X1206952D01*
X1208726Y314933D01*
X1210083Y316290D01*
X1210818Y318064D01*
Y319984D01*
X1210083Y321758D01*
X1208726Y323115D01*
X1206952Y323850D01*
D02*
G37*
G36*
X442412Y322834D02*
X440492D01*
X438718Y322099D01*
X437361Y320742D01*
X436626Y318968D01*
Y317048D01*
X437361Y315274D01*
X438718Y313917D01*
X440492Y313182D01*
X442412D01*
X444186Y313917D01*
X445543Y315274D01*
X446278Y317048D01*
Y318968D01*
X445543Y320742D01*
X444186Y322099D01*
X442412Y322834D01*
D02*
G37*
G36*
X816700Y322744D02*
X814780D01*
X813006Y322009D01*
X811648Y320652D01*
X810914Y318878D01*
Y316958D01*
X811648Y315184D01*
X813006Y313827D01*
X814780Y313092D01*
X816700D01*
X818473Y313827D01*
X819831Y315184D01*
X820566Y316958D01*
Y318878D01*
X819831Y320652D01*
X818473Y322009D01*
X816700Y322744D01*
D02*
G37*
G36*
X776168D02*
X774248D01*
X772474Y322009D01*
X771117Y320652D01*
X770382Y318878D01*
Y316958D01*
X771117Y315184D01*
X772474Y313827D01*
X774248Y313092D01*
X776168D01*
X777942Y313827D01*
X779299Y315184D01*
X780034Y316958D01*
Y318878D01*
X779299Y320652D01*
X777942Y322009D01*
X776168Y322744D01*
D02*
G37*
G36*
X165552Y325882D02*
X163632D01*
X161858Y325147D01*
X160501Y323790D01*
X159766Y322016D01*
Y320096D01*
X160501Y318322D01*
X161858Y316965D01*
X163632Y316230D01*
X165552D01*
X166285Y316534D01*
X166862Y315142D01*
X168220Y313784D01*
X169993Y313049D01*
X171913D01*
X173687Y313784D01*
X175044Y315142D01*
X175779Y316915D01*
Y318835D01*
X175044Y320609D01*
X173687Y321967D01*
X171913Y322701D01*
X169993D01*
X169260Y322398D01*
X168683Y323790D01*
X167326Y325147D01*
X165552Y325882D01*
D02*
G37*
G36*
X482544D02*
X480624D01*
X478850Y325147D01*
X477493Y323790D01*
X476758Y322016D01*
Y320096D01*
X477493Y318322D01*
X478850Y316965D01*
X480624Y316230D01*
X482544D01*
X484318Y316965D01*
X484506Y317153D01*
X485776Y316669D01*
X486511Y314895D01*
X487869Y313537D01*
X489643Y312803D01*
X491562D01*
X493336Y313537D01*
X494694Y314895D01*
X495429Y316669D01*
Y318589D01*
X494694Y320362D01*
X493336Y321720D01*
X491562Y322454D01*
X489643D01*
X487869Y321720D01*
X487680Y321531D01*
X486410Y322016D01*
X485675Y323790D01*
X484318Y325147D01*
X482544Y325882D01*
D02*
G37*
G36*
X1123208Y321918D02*
X1121289D01*
X1119515Y321183D01*
X1118157Y319826D01*
X1117422Y318052D01*
Y316132D01*
X1118157Y314358D01*
X1119515Y313001D01*
X1121289Y312266D01*
X1123208D01*
X1124982Y313001D01*
X1126340Y314358D01*
X1127075Y316132D01*
Y318052D01*
X1126340Y319826D01*
X1124982Y321183D01*
X1123208Y321918D01*
D02*
G37*
G36*
X1446931Y321327D02*
X1445011D01*
X1443237Y320592D01*
X1441879Y319235D01*
X1441145Y317461D01*
Y315541D01*
X1441879Y313767D01*
X1443237Y312410D01*
X1445011Y311675D01*
X1446931D01*
X1448704Y312410D01*
X1450062Y313767D01*
X1450797Y315541D01*
Y317461D01*
X1450062Y319235D01*
X1448704Y320592D01*
X1446931Y321327D01*
D02*
G37*
G36*
X1343110Y240172D02*
X1332110D01*
X1331317Y240014D01*
X1330645Y239565D01*
X1330196Y238893D01*
X1330038Y238100D01*
Y218100D01*
X1329110Y217324D01*
X1328182Y218100D01*
Y238100D01*
X1328024Y238893D01*
X1327575Y239565D01*
X1326903Y240014D01*
X1326110Y240172D01*
X1315110D01*
X1314317Y240014D01*
X1313645Y239565D01*
X1313196Y238893D01*
X1313038Y238100D01*
Y218100D01*
X1313196Y217307D01*
X1313645Y216635D01*
X1314317Y216186D01*
X1315110Y216028D01*
X1323828D01*
X1324938Y215100D01*
Y195100D01*
X1325096Y194307D01*
X1325545Y193635D01*
X1326217Y193186D01*
X1327010Y193028D01*
X1338010D01*
X1338803Y193186D01*
X1339475Y193635D01*
X1339924Y194307D01*
X1340082Y195100D01*
Y215100D01*
X1341192Y216028D01*
X1343110D01*
X1343903Y216186D01*
X1344575Y216635D01*
X1345024Y217307D01*
X1345182Y218100D01*
Y238100D01*
X1345024Y238893D01*
X1344575Y239565D01*
X1343903Y240014D01*
X1343110Y240172D01*
D02*
G37*
G36*
X1025260D02*
X1014260D01*
X1013467Y240014D01*
X1012795Y239565D01*
X1012346Y238893D01*
X1012188Y238100D01*
Y218100D01*
X1011260Y217324D01*
X1010332Y218100D01*
Y238100D01*
X1010174Y238893D01*
X1009725Y239565D01*
X1009053Y240014D01*
X1008260Y240172D01*
X997260D01*
X996467Y240014D01*
X995795Y239565D01*
X995346Y238893D01*
X995188Y238100D01*
Y218100D01*
X995346Y217307D01*
X995795Y216635D01*
X996467Y216186D01*
X997260Y216028D01*
X1005978D01*
X1007088Y215100D01*
Y195100D01*
X1007246Y194307D01*
X1007695Y193635D01*
X1008367Y193186D01*
X1009160Y193028D01*
X1020160D01*
X1020953Y193186D01*
X1021625Y193635D01*
X1022074Y194307D01*
X1022232Y195100D01*
Y215100D01*
X1023342Y216028D01*
X1025260D01*
X1026053Y216186D01*
X1026725Y216635D01*
X1027174Y217307D01*
X1027332Y218100D01*
Y238100D01*
X1027174Y238893D01*
X1026725Y239565D01*
X1026053Y240014D01*
X1025260Y240172D01*
D02*
G37*
G36*
X892690D02*
X881690D01*
X880897Y240014D01*
X880225Y239565D01*
X879776Y238893D01*
X879618Y238100D01*
Y218100D01*
X878690Y217324D01*
X877762Y218100D01*
Y238100D01*
X877604Y238893D01*
X877155Y239565D01*
X876483Y240014D01*
X875690Y240172D01*
X864690D01*
X863897Y240014D01*
X863225Y239565D01*
X862776Y238893D01*
X862618Y238100D01*
Y218100D01*
X862776Y217307D01*
X863225Y216635D01*
X863897Y216186D01*
X864690Y216028D01*
X866608D01*
X867718Y215100D01*
Y195100D01*
X867876Y194307D01*
X868325Y193635D01*
X868997Y193186D01*
X869790Y193028D01*
X880790D01*
X881583Y193186D01*
X882255Y193635D01*
X882704Y194307D01*
X882862Y195100D01*
Y215100D01*
X883972Y216028D01*
X892690D01*
X893483Y216186D01*
X894155Y216635D01*
X894604Y217307D01*
X894762Y218100D01*
Y238100D01*
X894604Y238893D01*
X894155Y239565D01*
X893483Y240014D01*
X892690Y240172D01*
D02*
G37*
G36*
X1529310D02*
X1518310D01*
X1517517Y240014D01*
X1516845Y239565D01*
X1516396Y238893D01*
X1516238Y238100D01*
Y218100D01*
X1515310Y217324D01*
X1514382Y218100D01*
Y238100D01*
X1514224Y238893D01*
X1513775Y239565D01*
X1513103Y240014D01*
X1512310Y240172D01*
X1501310D01*
X1500517Y240014D01*
X1499845Y239565D01*
X1499396Y238893D01*
X1499238Y238100D01*
Y218100D01*
X1499396Y217307D01*
X1499845Y216635D01*
X1500517Y216186D01*
X1501310Y216028D01*
X1503228D01*
X1504338Y215100D01*
Y195100D01*
X1504496Y194307D01*
X1504945Y193635D01*
X1505617Y193186D01*
X1506410Y193028D01*
X1517410D01*
X1518203Y193186D01*
X1518875Y193635D01*
X1519324Y194307D01*
X1519482Y195100D01*
Y215100D01*
X1520592Y216028D01*
X1529310D01*
X1530103Y216186D01*
X1530775Y216635D01*
X1531224Y217307D01*
X1531382Y218100D01*
Y238100D01*
X1531224Y238893D01*
X1530775Y239565D01*
X1530103Y240014D01*
X1529310Y240172D01*
D02*
G37*
G36*
X1211460D02*
X1200460D01*
X1199667Y240014D01*
X1198995Y239565D01*
X1198546Y238893D01*
X1198388Y238100D01*
Y218100D01*
X1197460Y217324D01*
X1196532Y218100D01*
Y238100D01*
X1196374Y238893D01*
X1195925Y239565D01*
X1195253Y240014D01*
X1194460Y240172D01*
X1183460D01*
X1182667Y240014D01*
X1181995Y239565D01*
X1181546Y238893D01*
X1181388Y238100D01*
Y218100D01*
X1181546Y217307D01*
X1181995Y216635D01*
X1182667Y216186D01*
X1183460Y216028D01*
X1185378D01*
X1186488Y215100D01*
Y195100D01*
X1186646Y194307D01*
X1187095Y193635D01*
X1187767Y193186D01*
X1188560Y193028D01*
X1199560D01*
X1200353Y193186D01*
X1201025Y193635D01*
X1201474Y194307D01*
X1201632Y195100D01*
Y215100D01*
X1202742Y216028D01*
X1211460D01*
X1212253Y216186D01*
X1212925Y216635D01*
X1213374Y217307D01*
X1213532Y218100D01*
Y238100D01*
X1213374Y238893D01*
X1212925Y239565D01*
X1212253Y240014D01*
X1211460Y240172D01*
D02*
G37*
G36*
X706490D02*
X695490D01*
X694697Y240014D01*
X694025Y239565D01*
X693576Y238893D01*
X693418Y238100D01*
Y218100D01*
X692490Y217324D01*
X691562Y218100D01*
Y238100D01*
X691404Y238893D01*
X690955Y239565D01*
X690283Y240014D01*
X689490Y240172D01*
X678490D01*
X677697Y240014D01*
X677025Y239565D01*
X676576Y238893D01*
X676418Y238100D01*
Y218100D01*
X676576Y217307D01*
X677025Y216635D01*
X677697Y216186D01*
X678490Y216028D01*
X687208D01*
X688318Y215100D01*
Y195100D01*
X688476Y194307D01*
X688925Y193635D01*
X689597Y193186D01*
X690390Y193028D01*
X701390D01*
X702183Y193186D01*
X702855Y193635D01*
X703304Y194307D01*
X703462Y195100D01*
Y215100D01*
X704572Y216028D01*
X706490D01*
X707283Y216186D01*
X707955Y216635D01*
X708404Y217307D01*
X708562Y218100D01*
Y238100D01*
X708404Y238893D01*
X707955Y239565D01*
X707283Y240014D01*
X706490Y240172D01*
D02*
G37*
G36*
X574453D02*
X563452D01*
X562660Y240014D01*
X561987Y239565D01*
X561538Y238893D01*
X561381Y238100D01*
Y218100D01*
X560452Y217324D01*
X559524Y218100D01*
Y238100D01*
X559367Y238893D01*
X558918Y239565D01*
X558245Y240014D01*
X557453Y240172D01*
X546452D01*
X545660Y240014D01*
X544987Y239565D01*
X544538Y238893D01*
X544381Y238100D01*
Y218100D01*
X544538Y217307D01*
X544987Y216635D01*
X545660Y216186D01*
X546452Y216028D01*
X548371D01*
X549481Y215100D01*
Y195100D01*
X549638Y194307D01*
X550088Y193635D01*
X550760Y193186D01*
X551553Y193028D01*
X562552D01*
X563345Y193186D01*
X564017Y193635D01*
X564467Y194307D01*
X564624Y195100D01*
Y215100D01*
X565735Y216028D01*
X574453D01*
X575245Y216186D01*
X575918Y216635D01*
X576367Y217307D01*
X576524Y218100D01*
Y238100D01*
X576367Y238893D01*
X575918Y239565D01*
X575245Y240014D01*
X574453Y240172D01*
D02*
G37*
G36*
X388252D02*
X377253D01*
X376460Y240014D01*
X375788Y239565D01*
X375338Y238893D01*
X375181Y238100D01*
Y218100D01*
X374253Y217324D01*
X373324Y218100D01*
Y238100D01*
X373167Y238893D01*
X372718Y239565D01*
X372045Y240014D01*
X371253Y240172D01*
X360252D01*
X359460Y240014D01*
X358787Y239565D01*
X358338Y238893D01*
X358181Y238100D01*
Y218100D01*
X358338Y217307D01*
X358787Y216635D01*
X359460Y216186D01*
X360252Y216028D01*
X368970D01*
X370081Y215100D01*
Y195100D01*
X370238Y194307D01*
X370687Y193635D01*
X371360Y193186D01*
X372152Y193028D01*
X383153D01*
X383945Y193186D01*
X384618Y193635D01*
X385067Y194307D01*
X385224Y195100D01*
Y215100D01*
X386335Y216028D01*
X388252D01*
X389045Y216186D01*
X389717Y216635D01*
X390167Y217307D01*
X390324Y218100D01*
Y238100D01*
X390167Y238893D01*
X389717Y239565D01*
X389045Y240014D01*
X388252Y240172D01*
D02*
G37*
G36*
X257690D02*
X246690D01*
X245897Y240014D01*
X245225Y239565D01*
X244776Y238893D01*
X244618Y238100D01*
Y218100D01*
X243690Y217324D01*
X242762Y218100D01*
Y238100D01*
X242604Y238893D01*
X242155Y239565D01*
X241483Y240014D01*
X240690Y240172D01*
X229690D01*
X228897Y240014D01*
X228225Y239565D01*
X227776Y238893D01*
X227618Y238100D01*
Y218100D01*
X227776Y217307D01*
X228225Y216635D01*
X228897Y216186D01*
X229690Y216028D01*
X231608D01*
X232718Y215100D01*
Y195100D01*
X232876Y194307D01*
X233325Y193635D01*
X233997Y193186D01*
X234790Y193028D01*
X245790D01*
X246583Y193186D01*
X247255Y193635D01*
X247704Y194307D01*
X247862Y195100D01*
Y215100D01*
X248972Y216028D01*
X257690D01*
X258483Y216186D01*
X259155Y216635D01*
X259604Y217307D01*
X259762Y218100D01*
Y238100D01*
X259604Y238893D01*
X259155Y239565D01*
X258483Y240014D01*
X257690Y240172D01*
D02*
G37*
G36*
X71490D02*
X60490D01*
X59697Y240014D01*
X59025Y239565D01*
X58576Y238893D01*
X58418Y238100D01*
Y218100D01*
X57490Y217324D01*
X56562Y218100D01*
Y238100D01*
X56404Y238893D01*
X55955Y239565D01*
X55283Y240014D01*
X54490Y240172D01*
X43490D01*
X42697Y240014D01*
X42025Y239565D01*
X41576Y238893D01*
X41418Y238100D01*
Y218100D01*
X41576Y217307D01*
X42025Y216635D01*
X42697Y216186D01*
X43490Y216028D01*
X52208D01*
X53318Y215100D01*
Y195100D01*
X53476Y194307D01*
X53925Y193635D01*
X54597Y193186D01*
X55390Y193028D01*
X66390D01*
X67183Y193186D01*
X67855Y193635D01*
X68304Y194307D01*
X68462Y195100D01*
Y215100D01*
X69572Y216028D01*
X71490D01*
X72283Y216186D01*
X72955Y216635D01*
X73404Y217307D01*
X73562Y218100D01*
Y238100D01*
X73404Y238893D01*
X72955Y239565D01*
X72283Y240014D01*
X71490Y240172D01*
D02*
G37*
G36*
X1492410Y248172D02*
X1481410D01*
X1480617Y248014D01*
X1479945Y247565D01*
X1479496Y246893D01*
X1479338Y246100D01*
Y240172D01*
X1477010D01*
X1476217Y240014D01*
X1475545Y239565D01*
X1475096Y238893D01*
X1474938Y238100D01*
Y218100D01*
X1475096Y217307D01*
X1475545Y216635D01*
X1476217Y216186D01*
X1477010Y216028D01*
X1488010D01*
X1488803Y216186D01*
X1489475Y216635D01*
X1489924Y217307D01*
X1490082Y218100D01*
Y219028D01*
X1492410D01*
X1493203Y219186D01*
X1493875Y219635D01*
X1494324Y220307D01*
X1494482Y221100D01*
Y246100D01*
X1494324Y246893D01*
X1493875Y247565D01*
X1493203Y248014D01*
X1492410Y248172D01*
D02*
G37*
G36*
X1467410Y240172D02*
X1452010D01*
X1451217Y240014D01*
X1450545Y239565D01*
X1450096Y238893D01*
X1449938Y238100D01*
Y218100D01*
X1450096Y217307D01*
X1450545Y216635D01*
X1451217Y216186D01*
X1452010Y216028D01*
X1467410D01*
X1468203Y216186D01*
X1468875Y216635D01*
X1469324Y217307D01*
X1469482Y218100D01*
Y238100D01*
X1469324Y238893D01*
X1468875Y239565D01*
X1468203Y240014D01*
X1467410Y240172D01*
D02*
G37*
G36*
X1392410D02*
X1377010D01*
X1376217Y240014D01*
X1375545Y239565D01*
X1375096Y238893D01*
X1374938Y238100D01*
Y218100D01*
X1375096Y217307D01*
X1375545Y216635D01*
X1376217Y216186D01*
X1377010Y216028D01*
X1392410D01*
X1393203Y216186D01*
X1393875Y216635D01*
X1394324Y217307D01*
X1394482Y218100D01*
Y238100D01*
X1394324Y238893D01*
X1393875Y239565D01*
X1393203Y240014D01*
X1392410Y240172D01*
D02*
G37*
G36*
X1363010Y248172D02*
X1352010D01*
X1351217Y248014D01*
X1350545Y247565D01*
X1350096Y246893D01*
X1349938Y246100D01*
Y221100D01*
X1350096Y220307D01*
X1350545Y219635D01*
X1351217Y219186D01*
X1352010Y219028D01*
X1354338D01*
Y218100D01*
X1354496Y217307D01*
X1354945Y216635D01*
X1355617Y216186D01*
X1356410Y216028D01*
X1367410D01*
X1368203Y216186D01*
X1368875Y216635D01*
X1369324Y217307D01*
X1369482Y218100D01*
Y238100D01*
X1369324Y238893D01*
X1368875Y239565D01*
X1368203Y240014D01*
X1367410Y240172D01*
X1365082D01*
Y246100D01*
X1364924Y246893D01*
X1364475Y247565D01*
X1363803Y248014D01*
X1363010Y248172D01*
D02*
G37*
G36*
X1174560D02*
X1163560D01*
X1162767Y248014D01*
X1162095Y247565D01*
X1161646Y246893D01*
X1161488Y246100D01*
Y240172D01*
X1159160D01*
X1158367Y240014D01*
X1157695Y239565D01*
X1157246Y238893D01*
X1157088Y238100D01*
Y218100D01*
X1157246Y217307D01*
X1157695Y216635D01*
X1158367Y216186D01*
X1159160Y216028D01*
X1170160D01*
X1170953Y216186D01*
X1171625Y216635D01*
X1172074Y217307D01*
X1172232Y218100D01*
Y219028D01*
X1174560D01*
X1175353Y219186D01*
X1176025Y219635D01*
X1176474Y220307D01*
X1176632Y221100D01*
Y246100D01*
X1176474Y246893D01*
X1176025Y247565D01*
X1175353Y248014D01*
X1174560Y248172D01*
D02*
G37*
G36*
X1149560Y240172D02*
X1134160D01*
X1133367Y240014D01*
X1132695Y239565D01*
X1132246Y238893D01*
X1132088Y238100D01*
Y218100D01*
X1132246Y217307D01*
X1132695Y216635D01*
X1133367Y216186D01*
X1134160Y216028D01*
X1149560D01*
X1150353Y216186D01*
X1151025Y216635D01*
X1151474Y217307D01*
X1151632Y218100D01*
Y238100D01*
X1151474Y238893D01*
X1151025Y239565D01*
X1150353Y240014D01*
X1149560Y240172D01*
D02*
G37*
G36*
X1074560D02*
X1059160D01*
X1058367Y240014D01*
X1057695Y239565D01*
X1057246Y238893D01*
X1057088Y238100D01*
Y218100D01*
X1057246Y217307D01*
X1057695Y216635D01*
X1058367Y216186D01*
X1059160Y216028D01*
X1074560D01*
X1075353Y216186D01*
X1076025Y216635D01*
X1076474Y217307D01*
X1076632Y218100D01*
Y238100D01*
X1076474Y238893D01*
X1076025Y239565D01*
X1075353Y240014D01*
X1074560Y240172D01*
D02*
G37*
G36*
X1045160Y248172D02*
X1034160D01*
X1033367Y248014D01*
X1032695Y247565D01*
X1032246Y246893D01*
X1032088Y246100D01*
Y221100D01*
X1032246Y220307D01*
X1032695Y219635D01*
X1033367Y219186D01*
X1034160Y219028D01*
X1036488D01*
Y218100D01*
X1036646Y217307D01*
X1037095Y216635D01*
X1037767Y216186D01*
X1038560Y216028D01*
X1049560D01*
X1050353Y216186D01*
X1051025Y216635D01*
X1051474Y217307D01*
X1051632Y218100D01*
Y238100D01*
X1051474Y238893D01*
X1051025Y239565D01*
X1050353Y240014D01*
X1049560Y240172D01*
X1047232D01*
Y246100D01*
X1047074Y246893D01*
X1046625Y247565D01*
X1045953Y248014D01*
X1045160Y248172D01*
D02*
G37*
G36*
X855790D02*
X844790D01*
X843997Y248014D01*
X843325Y247565D01*
X842876Y246893D01*
X842718Y246100D01*
Y240172D01*
X840390D01*
X839597Y240014D01*
X838925Y239565D01*
X838476Y238893D01*
X838318Y238100D01*
Y218100D01*
X838476Y217307D01*
X838925Y216635D01*
X839597Y216186D01*
X840390Y216028D01*
X851390D01*
X852183Y216186D01*
X852855Y216635D01*
X853304Y217307D01*
X853462Y218100D01*
Y219028D01*
X855790D01*
X856583Y219186D01*
X857255Y219635D01*
X857704Y220307D01*
X857862Y221100D01*
Y246100D01*
X857704Y246893D01*
X857255Y247565D01*
X856583Y248014D01*
X855790Y248172D01*
D02*
G37*
G36*
X830790Y240172D02*
X815390D01*
X814597Y240014D01*
X813925Y239565D01*
X813476Y238893D01*
X813318Y238100D01*
Y218100D01*
X813476Y217307D01*
X813925Y216635D01*
X814597Y216186D01*
X815390Y216028D01*
X830790D01*
X831583Y216186D01*
X832255Y216635D01*
X832704Y217307D01*
X832862Y218100D01*
Y238100D01*
X832704Y238893D01*
X832255Y239565D01*
X831583Y240014D01*
X830790Y240172D01*
D02*
G37*
G36*
X755790D02*
X740390D01*
X739597Y240014D01*
X738925Y239565D01*
X738476Y238893D01*
X738318Y238100D01*
Y218100D01*
X738476Y217307D01*
X738925Y216635D01*
X739597Y216186D01*
X740390Y216028D01*
X755790D01*
X756583Y216186D01*
X757255Y216635D01*
X757704Y217307D01*
X757862Y218100D01*
Y238100D01*
X757704Y238893D01*
X757255Y239565D01*
X756583Y240014D01*
X755790Y240172D01*
D02*
G37*
G36*
X726390Y248172D02*
X715390D01*
X714597Y248014D01*
X713925Y247565D01*
X713476Y246893D01*
X713318Y246100D01*
Y221100D01*
X713476Y220307D01*
X713925Y219635D01*
X714597Y219186D01*
X715390Y219028D01*
X717718D01*
Y218100D01*
X717876Y217307D01*
X718325Y216635D01*
X718997Y216186D01*
X719790Y216028D01*
X730790D01*
X731583Y216186D01*
X732255Y216635D01*
X732704Y217307D01*
X732862Y218100D01*
Y238100D01*
X732704Y238893D01*
X732255Y239565D01*
X731583Y240014D01*
X730790Y240172D01*
X728462D01*
Y246100D01*
X728304Y246893D01*
X727855Y247565D01*
X727183Y248014D01*
X726390Y248172D01*
D02*
G37*
G36*
X537552D02*
X526553D01*
X525760Y248014D01*
X525088Y247565D01*
X524638Y246893D01*
X524481Y246100D01*
Y240172D01*
X522152D01*
X521360Y240014D01*
X520687Y239565D01*
X520238Y238893D01*
X520081Y238100D01*
Y218100D01*
X520238Y217307D01*
X520687Y216635D01*
X521360Y216186D01*
X522152Y216028D01*
X533153D01*
X533945Y216186D01*
X534618Y216635D01*
X535067Y217307D01*
X535224Y218100D01*
Y219028D01*
X537552D01*
X538345Y219186D01*
X539017Y219635D01*
X539467Y220307D01*
X539624Y221100D01*
Y246100D01*
X539467Y246893D01*
X539017Y247565D01*
X538345Y248014D01*
X537552Y248172D01*
D02*
G37*
G36*
X512552Y240172D02*
X497152D01*
X496360Y240014D01*
X495687Y239565D01*
X495238Y238893D01*
X495081Y238100D01*
Y218100D01*
X495238Y217307D01*
X495687Y216635D01*
X496360Y216186D01*
X497152Y216028D01*
X512552D01*
X513345Y216186D01*
X514017Y216635D01*
X514467Y217307D01*
X514624Y218100D01*
Y238100D01*
X514467Y238893D01*
X514017Y239565D01*
X513345Y240014D01*
X512552Y240172D01*
D02*
G37*
G36*
X437552D02*
X422152D01*
X421360Y240014D01*
X420687Y239565D01*
X420238Y238893D01*
X420081Y238100D01*
Y218100D01*
X420238Y217307D01*
X420687Y216635D01*
X421360Y216186D01*
X422152Y216028D01*
X437552D01*
X438345Y216186D01*
X439017Y216635D01*
X439467Y217307D01*
X439624Y218100D01*
Y238100D01*
X439467Y238893D01*
X439017Y239565D01*
X438345Y240014D01*
X437552Y240172D01*
D02*
G37*
G36*
X408153Y248172D02*
X397152D01*
X396360Y248014D01*
X395687Y247565D01*
X395238Y246893D01*
X395081Y246100D01*
Y221100D01*
X395238Y220307D01*
X395687Y219635D01*
X396360Y219186D01*
X397152Y219028D01*
X399481D01*
Y218100D01*
X399638Y217307D01*
X400088Y216635D01*
X400760Y216186D01*
X401553Y216028D01*
X412552D01*
X413345Y216186D01*
X414017Y216635D01*
X414467Y217307D01*
X414624Y218100D01*
Y238100D01*
X414467Y238893D01*
X414017Y239565D01*
X413345Y240014D01*
X412552Y240172D01*
X410224D01*
Y246100D01*
X410067Y246893D01*
X409618Y247565D01*
X408945Y248014D01*
X408153Y248172D01*
D02*
G37*
G36*
X220790D02*
X209790D01*
X208997Y248014D01*
X208325Y247565D01*
X207876Y246893D01*
X207718Y246100D01*
Y240172D01*
X205390D01*
X204597Y240014D01*
X203925Y239565D01*
X203476Y238893D01*
X203318Y238100D01*
Y218100D01*
X203476Y217307D01*
X203925Y216635D01*
X204597Y216186D01*
X205390Y216028D01*
X216390D01*
X217183Y216186D01*
X217855Y216635D01*
X218304Y217307D01*
X218462Y218100D01*
Y219028D01*
X220790D01*
X221583Y219186D01*
X222255Y219635D01*
X222704Y220307D01*
X222862Y221100D01*
Y246100D01*
X222704Y246893D01*
X222255Y247565D01*
X221583Y248014D01*
X220790Y248172D01*
D02*
G37*
G36*
X195790Y240172D02*
X180390D01*
X179597Y240014D01*
X178925Y239565D01*
X178476Y238893D01*
X178318Y238100D01*
Y218100D01*
X178476Y217307D01*
X178925Y216635D01*
X179597Y216186D01*
X180390Y216028D01*
X195790D01*
X196583Y216186D01*
X197255Y216635D01*
X197704Y217307D01*
X197862Y218100D01*
Y238100D01*
X197704Y238893D01*
X197255Y239565D01*
X196583Y240014D01*
X195790Y240172D01*
D02*
G37*
G36*
X120790D02*
X105390D01*
X104597Y240014D01*
X103925Y239565D01*
X103476Y238893D01*
X103318Y238100D01*
Y218100D01*
X103476Y217307D01*
X103925Y216635D01*
X104597Y216186D01*
X105390Y216028D01*
X120790D01*
X121583Y216186D01*
X122255Y216635D01*
X122704Y217307D01*
X122862Y218100D01*
Y238100D01*
X122704Y238893D01*
X122255Y239565D01*
X121583Y240014D01*
X120790Y240172D01*
D02*
G37*
G36*
X91390Y248172D02*
X80390D01*
X79597Y248014D01*
X78925Y247565D01*
X78476Y246893D01*
X78318Y246100D01*
Y221100D01*
X78476Y220307D01*
X78925Y219635D01*
X79597Y219186D01*
X80390Y219028D01*
X82718D01*
Y218100D01*
X82876Y217307D01*
X83325Y216635D01*
X83997Y216186D01*
X84790Y216028D01*
X95790D01*
X96583Y216186D01*
X97255Y216635D01*
X97704Y217307D01*
X97862Y218100D01*
Y238100D01*
X97704Y238893D01*
X97255Y239565D01*
X96583Y240014D01*
X95790Y240172D01*
X93462D01*
Y246100D01*
X93304Y246893D01*
X92855Y247565D01*
X92183Y248014D01*
X91390Y248172D01*
D02*
G37*
G36*
X1446410Y241172D02*
X1427410D01*
X1426617Y241014D01*
X1425945Y240565D01*
X1425496Y239893D01*
X1425338Y239100D01*
Y235256D01*
X1425096Y234893D01*
X1424938Y234100D01*
Y214100D01*
X1425096Y213307D01*
X1425545Y212635D01*
X1426217Y212186D01*
X1427010Y212028D01*
X1446410D01*
X1447203Y212186D01*
X1447875Y212635D01*
X1448324Y213307D01*
X1448482Y214100D01*
Y239100D01*
X1448324Y239893D01*
X1447875Y240565D01*
X1447203Y241014D01*
X1446410Y241172D01*
D02*
G37*
G36*
X1417010D02*
X1398010D01*
X1397217Y241014D01*
X1396545Y240565D01*
X1396096Y239893D01*
X1395938Y239100D01*
Y214100D01*
X1396096Y213307D01*
X1396545Y212635D01*
X1397217Y212186D01*
X1398010Y212028D01*
X1417410D01*
X1418203Y212186D01*
X1418875Y212635D01*
X1419324Y213307D01*
X1419482Y214100D01*
Y234100D01*
X1419324Y234893D01*
X1419082Y235256D01*
Y239100D01*
X1418924Y239893D01*
X1418475Y240565D01*
X1417803Y241014D01*
X1417010Y241172D01*
D02*
G37*
G36*
X1128560D02*
X1109560D01*
X1108767Y241014D01*
X1108095Y240565D01*
X1107646Y239893D01*
X1107488Y239100D01*
Y235256D01*
X1107246Y234893D01*
X1107088Y234100D01*
Y214100D01*
X1107246Y213307D01*
X1107695Y212635D01*
X1108367Y212186D01*
X1109160Y212028D01*
X1128560D01*
X1129353Y212186D01*
X1130025Y212635D01*
X1130474Y213307D01*
X1130632Y214100D01*
Y239100D01*
X1130474Y239893D01*
X1130025Y240565D01*
X1129353Y241014D01*
X1128560Y241172D01*
D02*
G37*
G36*
X1099160D02*
X1080160D01*
X1079367Y241014D01*
X1078695Y240565D01*
X1078246Y239893D01*
X1078088Y239100D01*
Y214100D01*
X1078246Y213307D01*
X1078695Y212635D01*
X1079367Y212186D01*
X1080160Y212028D01*
X1099560D01*
X1100353Y212186D01*
X1101025Y212635D01*
X1101474Y213307D01*
X1101632Y214100D01*
Y234100D01*
X1101474Y234893D01*
X1101232Y235256D01*
Y239100D01*
X1101074Y239893D01*
X1100625Y240565D01*
X1099953Y241014D01*
X1099160Y241172D01*
D02*
G37*
G36*
X809790D02*
X790790D01*
X789997Y241014D01*
X789325Y240565D01*
X788876Y239893D01*
X788718Y239100D01*
Y235256D01*
X788476Y234893D01*
X788318Y234100D01*
Y214100D01*
X788476Y213307D01*
X788925Y212635D01*
X789597Y212186D01*
X790390Y212028D01*
X809790D01*
X810583Y212186D01*
X811255Y212635D01*
X811704Y213307D01*
X811862Y214100D01*
Y239100D01*
X811704Y239893D01*
X811255Y240565D01*
X810583Y241014D01*
X809790Y241172D01*
D02*
G37*
G36*
X780390D02*
X761390D01*
X760597Y241014D01*
X759925Y240565D01*
X759476Y239893D01*
X759318Y239100D01*
Y214100D01*
X759476Y213307D01*
X759925Y212635D01*
X760597Y212186D01*
X761390Y212028D01*
X780790D01*
X781583Y212186D01*
X782255Y212635D01*
X782704Y213307D01*
X782862Y214100D01*
Y234100D01*
X782704Y234893D01*
X782462Y235256D01*
Y239100D01*
X782304Y239893D01*
X781855Y240565D01*
X781183Y241014D01*
X780390Y241172D01*
D02*
G37*
G36*
X491553D02*
X472552D01*
X471760Y241014D01*
X471087Y240565D01*
X470638Y239893D01*
X470481Y239100D01*
Y235256D01*
X470238Y234893D01*
X470081Y234100D01*
Y214100D01*
X470238Y213307D01*
X470687Y212635D01*
X471360Y212186D01*
X472152Y212028D01*
X491553D01*
X492345Y212186D01*
X493018Y212635D01*
X493467Y213307D01*
X493624Y214100D01*
Y239100D01*
X493467Y239893D01*
X493018Y240565D01*
X492345Y241014D01*
X491553Y241172D01*
D02*
G37*
G36*
X462152D02*
X443153D01*
X442360Y241014D01*
X441688Y240565D01*
X441238Y239893D01*
X441081Y239100D01*
Y214100D01*
X441238Y213307D01*
X441688Y212635D01*
X442360Y212186D01*
X443153Y212028D01*
X462552D01*
X463345Y212186D01*
X464017Y212635D01*
X464467Y213307D01*
X464624Y214100D01*
Y234100D01*
X464467Y234893D01*
X464224Y235256D01*
Y239100D01*
X464067Y239893D01*
X463618Y240565D01*
X462945Y241014D01*
X462152Y241172D01*
D02*
G37*
G36*
X174790D02*
X155790D01*
X154997Y241014D01*
X154325Y240565D01*
X153876Y239893D01*
X153718Y239100D01*
Y235256D01*
X153476Y234893D01*
X153318Y234100D01*
Y214100D01*
X153476Y213307D01*
X153925Y212635D01*
X154597Y212186D01*
X155390Y212028D01*
X174790D01*
X175583Y212186D01*
X176255Y212635D01*
X176704Y213307D01*
X176862Y214100D01*
Y239100D01*
X176704Y239893D01*
X176255Y240565D01*
X175583Y241014D01*
X174790Y241172D01*
D02*
G37*
G36*
X145390D02*
X126390D01*
X125597Y241014D01*
X124925Y240565D01*
X124476Y239893D01*
X124318Y239100D01*
Y214100D01*
X124476Y213307D01*
X124925Y212635D01*
X125597Y212186D01*
X126390Y212028D01*
X145790D01*
X146583Y212186D01*
X147255Y212635D01*
X147704Y213307D01*
X147862Y214100D01*
Y234100D01*
X147704Y234893D01*
X147462Y235256D01*
Y239100D01*
X147304Y239893D01*
X146855Y240565D01*
X146183Y241014D01*
X145390Y241172D01*
D02*
G37*
G36*
X1283210Y210172D02*
X1271210D01*
X1270417Y210014D01*
X1269745Y209565D01*
X1269296Y208893D01*
X1269138Y208100D01*
Y145100D01*
X1269296Y144307D01*
X1269745Y143635D01*
X1270417Y143186D01*
X1271210Y143028D01*
X1283210D01*
X1284003Y143186D01*
X1284675Y143635D01*
X1285124Y144307D01*
X1285282Y145100D01*
Y208100D01*
X1285124Y208893D01*
X1284675Y209565D01*
X1284003Y210014D01*
X1283210Y210172D01*
D02*
G37*
G36*
X1255360D02*
X1243360D01*
X1242567Y210014D01*
X1241895Y209565D01*
X1241446Y208893D01*
X1241288Y208100D01*
Y145100D01*
X1241446Y144307D01*
X1241895Y143635D01*
X1242567Y143186D01*
X1243360Y143028D01*
X1255360D01*
X1256153Y143186D01*
X1256825Y143635D01*
X1257274Y144307D01*
X1257432Y145100D01*
Y208100D01*
X1257274Y208893D01*
X1256825Y209565D01*
X1256153Y210014D01*
X1255360Y210172D01*
D02*
G37*
G36*
X965360D02*
X953360D01*
X952567Y210014D01*
X951895Y209565D01*
X951446Y208893D01*
X951288Y208100D01*
Y145100D01*
X951446Y144307D01*
X951895Y143635D01*
X952567Y143186D01*
X953360Y143028D01*
X965360D01*
X966153Y143186D01*
X966825Y143635D01*
X967274Y144307D01*
X967432Y145100D01*
Y208100D01*
X967274Y208893D01*
X966825Y209565D01*
X966153Y210014D01*
X965360Y210172D01*
D02*
G37*
G36*
X936590D02*
X924590D01*
X923797Y210014D01*
X923125Y209565D01*
X922676Y208893D01*
X922518Y208100D01*
Y145100D01*
X922676Y144307D01*
X923125Y143635D01*
X923797Y143186D01*
X924590Y143028D01*
X936590D01*
X937383Y143186D01*
X938055Y143635D01*
X938504Y144307D01*
X938662Y145100D01*
Y208100D01*
X938504Y208893D01*
X938055Y209565D01*
X937383Y210014D01*
X936590Y210172D01*
D02*
G37*
G36*
X646590D02*
X634590D01*
X633797Y210014D01*
X633125Y209565D01*
X632676Y208893D01*
X632518Y208100D01*
Y145100D01*
X632676Y144307D01*
X633125Y143635D01*
X633797Y143186D01*
X634590Y143028D01*
X646590D01*
X647383Y143186D01*
X648055Y143635D01*
X648504Y144307D01*
X648662Y145100D01*
Y208100D01*
X648504Y208893D01*
X648055Y209565D01*
X647383Y210014D01*
X646590Y210172D01*
D02*
G37*
G36*
X618353D02*
X606353D01*
X605560Y210014D01*
X604888Y209565D01*
X604438Y208893D01*
X604281Y208100D01*
Y145100D01*
X604438Y144307D01*
X604888Y143635D01*
X605560Y143186D01*
X606353Y143028D01*
X618353D01*
X619145Y143186D01*
X619818Y143635D01*
X620267Y144307D01*
X620424Y145100D01*
Y208100D01*
X620267Y208893D01*
X619818Y209565D01*
X619145Y210014D01*
X618353Y210172D01*
D02*
G37*
G36*
X328353D02*
X316353D01*
X315560Y210014D01*
X314888Y209565D01*
X314438Y208893D01*
X314281Y208100D01*
Y145100D01*
X314438Y144307D01*
X314888Y143635D01*
X315560Y143186D01*
X316353Y143028D01*
X328353D01*
X329145Y143186D01*
X329818Y143635D01*
X330267Y144307D01*
X330424Y145100D01*
Y208100D01*
X330267Y208893D01*
X329818Y209565D01*
X329145Y210014D01*
X328353Y210172D01*
D02*
G37*
G36*
X301590D02*
X289590D01*
X288797Y210014D01*
X288125Y209565D01*
X287676Y208893D01*
X287518Y208100D01*
Y145100D01*
X287676Y144307D01*
X288125Y143635D01*
X288797Y143186D01*
X289590Y143028D01*
X301590D01*
X302383Y143186D01*
X303055Y143635D01*
X303504Y144307D01*
X303662Y145100D01*
Y208100D01*
X303504Y208893D01*
X303055Y209565D01*
X302383Y210014D01*
X301590Y210172D01*
D02*
G37*
%LPD*%
D94*
X706120Y670560D02*
D03*
Y695960D02*
D03*
X680720D02*
D03*
X655320D02*
D03*
X680720Y670560D02*
D03*
D98*
X655320D02*
D03*
D106*
X815740Y317918D02*
X816199D01*
X180168Y410636D02*
Y410890D01*
X481076Y403684D02*
X481293Y403901D01*
D107*
X170540Y364317D02*
X170875Y363982D01*
D111*
X87630Y493014D02*
D03*
X87884Y465074D02*
D03*
X1259332Y411226D02*
D03*
X1259586Y439166D02*
D03*
X960628Y423418D02*
D03*
Y451612D02*
D03*
X325628Y405892D02*
D03*
Y434594D02*
D03*
X645414Y449072D02*
D03*
Y421386D02*
D03*
X701506Y568960D02*
D03*
X668020D02*
D03*
X701506Y543560D02*
D03*
X668020D02*
D03*
X577850Y668020D02*
D03*
X543560D02*
D03*
X578558Y729963D02*
D03*
Y755363D02*
D03*
X603958Y729963D02*
D03*
X543560Y730250D02*
D03*
D112*
X62230Y493014D02*
D03*
X62484Y465074D02*
D03*
X1233932Y411226D02*
D03*
X1234186Y439166D02*
D03*
X935228Y423418D02*
D03*
Y451612D02*
D03*
X300228Y405892D02*
D03*
Y434594D02*
D03*
X620014Y449072D02*
D03*
Y421386D02*
D03*
X603958Y755363D02*
D03*
D113*
X743780Y805800D02*
D03*
X799780D02*
D03*
X763780Y812800D02*
D03*
X755780D02*
D03*
X747780D02*
D03*
X775780Y805800D02*
D03*
X767780D02*
D03*
X787780Y812800D02*
D03*
X795780D02*
D03*
X759780Y805800D02*
D03*
X783780D02*
D03*
X779780Y812800D02*
D03*
D114*
X813077Y811700D02*
D03*
X730480D02*
D03*
X816680Y855700D02*
D03*
X726880D02*
D03*
D115*
X511556Y622046D02*
D03*
X486156D02*
D03*
Y596646D02*
D03*
X511556D02*
D03*
X486156Y571246D02*
D03*
D116*
X511556D02*
D03*
D117*
X543560Y755650D02*
D03*
X701506Y594360D02*
D03*
X668020D02*
D03*
X543560Y693420D02*
D03*
X577850D02*
D03*
D118*
X750570Y594360D02*
D03*
D119*
X807780Y799300D02*
D03*
D120*
X1543530Y351790D02*
D03*
X306860Y836140D02*
D03*
X1265745Y836140D02*
D03*
X30000Y351790D02*
D03*
D121*
X1089152Y334010D02*
D03*
X1407832Y362884D02*
D03*
X1445971Y316501D02*
D03*
X1409192Y442722D02*
D03*
X1387462Y443078D02*
D03*
X1391920Y330200D02*
D03*
X1402588Y321818D02*
D03*
X1104900Y332486D02*
D03*
X1100074Y442468D02*
D03*
X1107186Y361950D02*
D03*
X1122249Y317092D02*
D03*
X1081278Y319532D02*
D03*
X792226Y353568D02*
D03*
X791972Y435864D02*
D03*
X760730Y319278D02*
D03*
X808475Y318071D02*
D03*
X815740Y317918D02*
D03*
X462883Y321791D02*
D03*
X451707Y321977D02*
D03*
X470662Y444246D02*
D03*
X477520Y357124D02*
D03*
X490602Y317628D02*
D03*
X441452Y318008D02*
D03*
X167640Y447294D02*
D03*
X123569Y317428D02*
D03*
X170953Y317875D02*
D03*
X176553Y322260D02*
D03*
X164592Y321056D02*
D03*
X170540Y364317D02*
D03*
X157275Y360506D02*
D03*
X131826Y319278D02*
D03*
X1372870Y443056D02*
D03*
X1357399Y442397D02*
D03*
X1198372Y417068D02*
D03*
X977336Y416818D02*
D03*
X255016Y423164D02*
D03*
X346197Y416852D02*
D03*
X1021358Y524510D02*
D03*
X990977Y569468D02*
D03*
X720554Y434275D02*
D03*
X141920Y454759D02*
D03*
X149032D02*
D03*
X999150Y569468D02*
D03*
X1006856D02*
D03*
X1233424Y773430D02*
D03*
X1242822D02*
D03*
Y788924D02*
D03*
Y781304D02*
D03*
X1233424Y788924D02*
D03*
Y781304D02*
D03*
X1223264Y788924D02*
D03*
Y781304D02*
D03*
X929825Y623575D02*
D03*
X928370Y598170D02*
D03*
X834023Y605790D02*
D03*
X834390Y637576D02*
D03*
Y665576D02*
D03*
X902970Y577261D02*
D03*
X866562Y577576D02*
D03*
X939800Y562610D02*
D03*
X914400Y695052D02*
D03*
X888855Y577721D02*
D03*
X879591D02*
D03*
X1075446Y743018D02*
D03*
X1094005Y743055D02*
D03*
X737870Y554990D02*
D03*
X834023Y581660D02*
D03*
Y625576D02*
D03*
X834390Y657576D02*
D03*
X866562Y673576D02*
D03*
X929485Y645614D02*
D03*
X928370Y577261D02*
D03*
X926247Y694899D02*
D03*
X891178Y695052D02*
D03*
X1106170Y534670D02*
D03*
X878188Y798497D02*
D03*
X1268984Y693420D02*
D03*
X1258824D02*
D03*
X1227074Y731520D02*
D03*
X1247394Y693420D02*
D03*
X1235964D02*
D03*
X1188326Y504063D02*
D03*
X869082Y729946D02*
D03*
X494030Y741680D02*
D03*
X462280Y764540D02*
D03*
X878659Y729946D02*
D03*
X888331D02*
D03*
X723900Y516890D02*
D03*
X620829Y543512D02*
D03*
X328930Y730250D02*
D03*
X878188Y807882D02*
D03*
X411480Y689610D02*
D03*
X770890Y546100D02*
D03*
X489744Y542202D02*
D03*
X98066Y351428D02*
D03*
X179362Y417962D02*
D03*
X90834Y421518D02*
D03*
X138295Y448136D02*
D03*
X756238Y435622D02*
D03*
X797965Y405768D02*
D03*
X775661Y349967D02*
D03*
X710027Y410088D02*
D03*
X722327Y340360D02*
D03*
X440271Y444326D02*
D03*
X480822Y411734D02*
D03*
X458683Y357463D02*
D03*
X392810Y417708D02*
D03*
X405111Y347980D02*
D03*
X122895Y448158D02*
D03*
X112895Y360680D02*
D03*
X742000Y435442D02*
D03*
X732087Y349250D02*
D03*
X91353Y386004D02*
D03*
X190246Y436880D02*
D03*
X710790Y376502D02*
D03*
X807961Y425480D02*
D03*
X393689Y383617D02*
D03*
X491828Y433423D02*
D03*
X1110973Y413214D02*
D03*
X1088898Y356362D02*
D03*
X1022585Y416696D02*
D03*
X1070046Y443313D02*
D03*
X1034886Y346968D02*
D03*
X1413764Y411226D02*
D03*
X1391877Y356131D02*
D03*
X1337710Y346710D02*
D03*
X1325409Y416438D02*
D03*
X180168Y410636D02*
D03*
X798947Y398349D02*
D03*
X1044668Y355880D02*
D03*
X1054646Y443335D02*
D03*
X1347470Y355600D02*
D03*
X1023465Y382605D02*
D03*
X1119426Y431462D02*
D03*
X481293Y403901D02*
D03*
X1112005Y405899D02*
D03*
X1327342Y382581D02*
D03*
X1421805Y430426D02*
D03*
X148336Y361950D02*
D03*
X767109Y352269D02*
D03*
X450342Y358394D02*
D03*
X1081298Y355092D02*
D03*
X1413764Y404114D02*
D03*
X1384808Y355346D02*
D03*
X576326Y599440D02*
D03*
X566420Y598932D02*
D03*
X710027Y400967D02*
D03*
X90834Y412397D02*
D03*
X392810Y408587D02*
D03*
X1022585Y407575D02*
D03*
X1325409Y407318D02*
D03*
X834519Y592843D02*
D03*
X831342Y554990D02*
D03*
X1167556Y526980D02*
D03*
X1072388Y516890D02*
D03*
X482600Y381762D02*
D03*
X491236Y383680D02*
D03*
X551688Y327660D02*
D03*
X568198Y320294D02*
D03*
X491236Y393700D02*
D03*
X481806D02*
D03*
X481584Y321056D02*
D03*
X393446Y374904D02*
D03*
X553720Y383286D02*
D03*
X463550Y572008D02*
D03*
X393925Y367049D02*
D03*
X868934Y375412D02*
D03*
X452120Y577850D02*
D03*
X798127Y375920D02*
D03*
X807707D02*
D03*
X870966Y325628D02*
D03*
X886968Y319786D02*
D03*
X797982Y391017D02*
D03*
X807707Y391160D02*
D03*
X798297Y319468D02*
D03*
X710536Y369307D02*
D03*
X251714Y387604D02*
D03*
X448564Y593852D02*
D03*
X775208Y317918D02*
D03*
X711543Y362266D02*
D03*
X1486553Y381938D02*
D03*
X438912Y602234D02*
D03*
X181356Y386334D02*
D03*
X190500Y387350D02*
D03*
X235966Y328168D02*
D03*
X251968Y320040D02*
D03*
X180611Y402962D02*
D03*
X188515Y402590D02*
D03*
X92456Y377698D02*
D03*
X1184656Y382778D02*
D03*
X424180Y594360D02*
D03*
X92964Y368808D02*
D03*
X1413510Y382270D02*
D03*
X1423090D02*
D03*
X1506728Y327660D02*
D03*
X1523746Y320294D02*
D03*
X1414276Y397020D02*
D03*
X1423090Y397510D02*
D03*
X1435037Y332521D02*
D03*
X1324788Y373603D02*
D03*
X1412671Y333192D02*
D03*
X1326891Y366269D02*
D03*
X1110686Y382528D02*
D03*
X1120266D02*
D03*
X1188974Y326390D02*
D03*
X1205992Y319024D02*
D03*
X1110510Y397768D02*
D03*
X1120266D02*
D03*
X1115314Y331724D02*
D03*
X1020487Y375122D02*
D03*
X1024382Y368300D02*
D03*
X854710Y703750D02*
D03*
X369570Y685800D02*
D03*
X866562Y694589D02*
D03*
X328422Y739394D02*
D03*
X738124Y689610D02*
D03*
X389382Y751840D02*
D03*
X842247Y695052D02*
D03*
X854710D02*
D03*
X788224Y781050D02*
D03*
X795336D02*
D03*
X450949Y486156D02*
D03*
X853000Y551180D02*
D03*
X443837Y486156D02*
D03*
X845889Y551056D02*
D03*
X768165Y478536D02*
D03*
X889000Y551180D02*
D03*
X761053Y478536D02*
D03*
X881889Y551056D02*
D03*
X231648Y492986D02*
D03*
Y500098D02*
D03*
X1383548Y450850D02*
D03*
X928370Y615132D02*
D03*
X1376436Y450850D02*
D03*
X928370Y608020D02*
D03*
X957684Y643303D02*
D03*
X984250Y773148D02*
D03*
X952655Y648332D02*
D03*
X984250Y766036D02*
D03*
X767673Y780101D02*
D03*
X793750Y617662D02*
D03*
X774785Y780101D02*
D03*
X793750Y624774D02*
D03*
X420949Y452120D02*
D03*
X875803Y557530D02*
D03*
X413837Y452120D02*
D03*
X868691Y557530D02*
D03*
X428837Y477774D02*
D03*
X863803Y543560D02*
D03*
X435949Y477774D02*
D03*
X856691Y543560D02*
D03*
X736016Y443464D02*
D03*
X911803Y552450D02*
D03*
X728982Y444520D02*
D03*
X904691Y552450D02*
D03*
X752955Y464812D02*
D03*
X899803Y543560D02*
D03*
X745844Y464812D02*
D03*
X892691Y543560D02*
D03*
X118973Y489966D02*
D03*
X165354Y494510D02*
D03*
X111861Y489966D02*
D03*
X165354Y501622D02*
D03*
X133828Y483108D02*
D03*
X191008Y486890D02*
D03*
X126716Y483108D02*
D03*
X191008Y494002D02*
D03*
X1353548Y484886D02*
D03*
X955373Y635132D02*
D03*
X1346436Y484886D02*
D03*
X955373Y628020D02*
D03*
X1369813Y474020D02*
D03*
X967994Y623062D02*
D03*
X1362644Y474073D02*
D03*
X967994Y615950D02*
D03*
X1050724Y485144D02*
D03*
X1133094Y497812D02*
D03*
X1043612Y485144D02*
D03*
X1133094Y504924D02*
D03*
X1062566Y476078D02*
D03*
X1100328Y480822D02*
D03*
X1055454Y476078D02*
D03*
X1100328Y487934D02*
D03*
X748284Y769366D02*
D03*
X800100Y596020D02*
D03*
X755396Y769366D02*
D03*
X800100Y603132D02*
D03*
X791972Y736346D02*
D03*
X809026Y608020D02*
D03*
X784860Y736346D02*
D03*
X809026Y615132D02*
D03*
X383286Y554482D02*
D03*
X450850Y547661D02*
D03*
X540686Y538226D02*
D03*
X551434Y525780D02*
D03*
X836930Y801370D02*
D03*
X217170Y387350D02*
D03*
X239620Y433070D02*
D03*
X519430Y383540D02*
D03*
X540890Y429260D02*
D03*
X856840Y421640D02*
D03*
X834390Y375944D02*
D03*
X1150900Y382948D02*
D03*
X1172210Y426720D02*
D03*
X1454150Y382270D02*
D03*
X1475740Y426720D02*
D03*
X1081065Y670601D02*
D03*
X1069635D02*
D03*
X1058205D02*
D03*
X1048045D02*
D03*
X826767Y519775D02*
D03*
X540766Y516128D02*
D03*
X378460Y591820D02*
D03*
X737108Y767588D02*
D03*
X382778Y564388D02*
D03*
X414020Y624840D02*
D03*
X914177Y727710D02*
D03*
X1058199Y688842D02*
D03*
X1097026Y356362D02*
D03*
X1326288Y393757D02*
D03*
X362712Y347472D02*
D03*
X977646Y346710D02*
D03*
X663194Y366014D02*
D03*
X1361440Y318516D02*
D03*
X494030Y732790D02*
D03*
X388201Y429660D02*
D03*
X59436Y368300D02*
D03*
X1279144Y378206D02*
D03*
X1025190Y549366D02*
D03*
X278130Y82550D02*
D03*
X1160780Y321650D02*
D03*
X1231900Y95250D02*
D03*
X1289273Y402318D02*
D03*
X900430Y717969D02*
D03*
X907333Y807963D02*
D03*
X986449Y402575D02*
D03*
X1549750Y82550D02*
D03*
X727456Y321818D02*
D03*
X937427Y521970D02*
D03*
X711568Y777380D02*
D03*
X358648Y634746D02*
D03*
X594893Y95250D02*
D03*
X278130D02*
D03*
X1294480Y83820D02*
D03*
X1167556Y579034D02*
D03*
X389890Y726440D02*
D03*
X1446784Y331978D02*
D03*
X1335024Y355854D02*
D03*
X51499Y398762D02*
D03*
X358764Y361233D02*
D03*
X976884Y382016D02*
D03*
X207010Y321650D02*
D03*
X976630Y96012D02*
D03*
X584200Y419520D02*
D03*
X928097Y521970D02*
D03*
X765556Y748284D02*
D03*
X1057910Y544170D02*
D03*
X673890Y395967D02*
D03*
X824324Y685800D02*
D03*
X1291844Y352552D02*
D03*
X913130Y82550D02*
D03*
X1478630Y321650D02*
D03*
X657860Y83820D02*
D03*
X1046988Y322072D02*
D03*
X1084712Y743055D02*
D03*
X470705Y548415D02*
D03*
X1399286Y356108D02*
D03*
X1280160Y416560D02*
D03*
X685292Y343662D02*
D03*
X1279398Y388874D02*
D03*
X918632Y521970D02*
D03*
X836930Y791210D02*
D03*
X379148Y624766D02*
D03*
X783470Y349827D02*
D03*
X400558Y358394D02*
D03*
X681228Y354076D02*
D03*
X977488Y358044D02*
D03*
X339622Y96012D02*
D03*
X409194Y321310D02*
D03*
X946668Y522007D02*
D03*
X806196Y529336D02*
D03*
X1226952Y703495D02*
D03*
X929485Y636182D02*
D03*
X1017976Y428648D02*
D03*
X842010Y321650D02*
D03*
X22860Y96012D02*
D03*
X976630Y83820D02*
D03*
X836332Y519775D02*
D03*
X328930Y748030D02*
D03*
X1112561Y743018D02*
D03*
X813562Y674116D02*
D03*
X144780Y321310D02*
D03*
X1294480Y96012D02*
D03*
X1175004Y687061D02*
D03*
X369570Y676910D02*
D03*
X929640Y659130D02*
D03*
X500349Y526827D02*
D03*
X358140Y591820D02*
D03*
X54698Y407397D02*
D03*
X61214Y356870D02*
D03*
X1289304Y363982D02*
D03*
X339622Y83820D02*
D03*
X951230Y562950D02*
D03*
X356108Y392938D02*
D03*
X977138Y371094D02*
D03*
X663194Y377698D02*
D03*
X523773Y321650D02*
D03*
X1231900Y82550D02*
D03*
X620646Y594959D02*
D03*
X338148Y624512D02*
D03*
X405130Y624840D02*
D03*
X511048Y554990D02*
D03*
X1103311Y743018D02*
D03*
X45585Y421640D02*
D03*
X657860Y96012D02*
D03*
X22860Y83820D02*
D03*
X1549750Y95250D02*
D03*
X1167556Y560578D02*
D03*
X926024Y727710D02*
D03*
X1228090Y764540D02*
D03*
X902970Y410210D02*
D03*
X723900Y618490D02*
D03*
X705417Y422040D02*
D03*
X664210Y410967D02*
D03*
X594893Y82550D02*
D03*
X913130Y95250D02*
D03*
X706882Y754888D02*
D03*
X1127975Y332348D02*
D03*
X48762Y387932D02*
D03*
X408940Y665480D02*
D03*
X92964Y321818D02*
D03*
X1521460Y417830D02*
D03*
X1226952Y722202D02*
D03*
X558388Y562604D02*
D03*
X583753Y549922D02*
D03*
X583524Y574715D02*
D03*
X583753Y562375D02*
D03*
X558617Y550036D02*
D03*
X571040Y562274D02*
D03*
X558503Y574715D02*
D03*
X570956Y549808D02*
D03*
X571527Y575172D02*
D03*
X1145282Y670721D02*
D03*
X1126639Y670636D02*
D03*
X1135895D02*
D03*
X1145489Y680719D02*
D03*
X1136083Y690200D02*
D03*
X1145413Y690426D02*
D03*
X1126602Y680606D02*
D03*
X1126715Y690463D02*
D03*
X1136121Y680531D02*
D03*
X429466Y572568D02*
D03*
X416898Y547661D02*
D03*
X429694Y547775D02*
D03*
X417469Y573025D02*
D03*
X429694Y560229D02*
D03*
X416981Y560128D02*
D03*
X404444Y572568D02*
D03*
X1226952Y712905D02*
D03*
X1234694Y746760D02*
D03*
X1244854D02*
D03*
X1265174D02*
D03*
X1255014D02*
D03*
X1202690Y822960D02*
D03*
X1212850D02*
D03*
X1192530D02*
D03*
X1182370D02*
D03*
X1087374Y717296D02*
D03*
X1058199Y698438D02*
D03*
X1369962Y399847D02*
D03*
X1352462Y417347D02*
D03*
X1387462D02*
D03*
Y382300D02*
D03*
X1352462Y382347D02*
D03*
X1413161Y419951D02*
D03*
X1320800Y428390D02*
D03*
X1335957Y443230D02*
D03*
X1084638Y443335D02*
D03*
X1033133Y443488D02*
D03*
X1084638Y382557D02*
D03*
Y417605D02*
D03*
X1049638D02*
D03*
X1067138Y400105D02*
D03*
X797778Y413601D02*
D03*
X772080Y375950D02*
D03*
X393689Y394970D02*
D03*
X454863Y444348D02*
D03*
X356674Y403587D02*
D03*
X480562Y421221D02*
D03*
X454863Y383570D02*
D03*
Y418617D02*
D03*
X419863D02*
D03*
X437363Y401117D02*
D03*
X466361Y356870D02*
D03*
X91713Y398780D02*
D03*
X86225Y433470D02*
D03*
X152887Y387380D02*
D03*
Y422427D02*
D03*
X117887D02*
D03*
X135387Y404927D02*
D03*
X164385Y360680D02*
D03*
X737080Y410997D02*
D03*
X154940Y321310D02*
D03*
X1178973Y504063D02*
D03*
X782385Y553580D02*
D03*
X928544Y588020D02*
D03*
X848360Y661321D02*
D03*
Y649821D02*
D03*
X878700Y661576D02*
D03*
Y650076D02*
D03*
X904292D02*
D03*
Y661576D02*
D03*
X891591D02*
D03*
Y650076D02*
D03*
X917356Y661576D02*
D03*
Y650076D02*
D03*
X918247Y626326D02*
D03*
Y637826D02*
D03*
X892483Y626326D02*
D03*
Y637826D02*
D03*
X905183D02*
D03*
Y626326D02*
D03*
X879591D02*
D03*
Y637826D02*
D03*
X866562Y637576D02*
D03*
Y626076D02*
D03*
Y615865D02*
D03*
X848360Y615132D02*
D03*
Y592843D02*
D03*
X918247Y615132D02*
D03*
Y605326D02*
D03*
X905183Y615132D02*
D03*
X811276Y581660D02*
D03*
X769620Y567690D02*
D03*
X366776Y522478D02*
D03*
X328676Y555498D02*
D03*
X343916Y564388D02*
D03*
X443230Y689610D02*
D03*
X494030Y764540D02*
D03*
X107950Y448124D02*
D03*
X737616Y543560D02*
D03*
X1081024Y618490D02*
D03*
X1069594D02*
D03*
X1059434D02*
D03*
X1049274D02*
D03*
X1001268Y515112D02*
D03*
X404330Y560457D02*
D03*
X404558Y547889D02*
D03*
X419927Y382148D02*
D03*
X116078Y383032D02*
D03*
X732634Y372018D02*
D03*
X752719Y395037D02*
D03*
X774986Y408276D02*
D03*
X1023465Y393958D02*
D03*
X178586Y425031D02*
D03*
X1110256Y420290D02*
D03*
X719327Y349701D02*
D03*
X710906Y387678D02*
D03*
X1049211Y380639D02*
D03*
X94870Y359952D02*
D03*
X471170Y321818D02*
D03*
X790032Y317842D02*
D03*
X1031748Y357632D02*
D03*
X1423924Y333248D02*
D03*
X152887Y448158D02*
D03*
X771972Y439189D02*
D03*
X403024Y443486D02*
D03*
X414871Y356870D02*
D03*
X424862Y444348D02*
D03*
X393518Y649160D02*
D03*
X422656Y628142D02*
D03*
X535940Y546975D02*
D03*
D122*
X1065530Y822960D02*
D03*
X1075690D02*
D03*
X1055370D02*
D03*
X1045210D02*
D03*
Y807720D02*
D03*
Y815340D02*
D03*
X1055370Y807720D02*
D03*
Y815340D02*
D03*
X1045210Y778490D02*
D03*
Y786110D02*
D03*
X1055370Y778490D02*
D03*
Y786110D02*
D03*
M02*
