M48
;Layer_Color=9474304
;FILE_FORMAT=4:2
METRIC,LZ
;TYPE=PLATED
T01F00S00C0.25
T02F00S00C0.63
T05F00S00C0.80
T06F00S00C0.89
T07F00S00C0.90
T08F00S00C0.95
T10F00S00C1.02
T11F00S00C1.10
T12F00S00C1.15
T13F00S00C1.32
T14F00S00C1.40
T15F00S00C1.57
T16F00S00C1.60
T17F00S00C1.71
T18F00S00C1.96
T19F00S00C2.35
T20F00S00C3.18
T21F00S00C3.50
;TYPE=NON_PLATED
T22F00S00C1.10
T23F00S00C1.15
T24F00S00C1.60
T25F00S00C1.65
T26F00S00C2.70
T27F00S00C3.25
T28F00S00C3.50
T29F00S00C3.51
%
T01
X001346Y000619
X001532Y000622
X001476Y000914
X0014
X001122Y000861
X001862Y000869
X002019Y000851
X002044Y000718
Y000642
X002044Y000508
Y000381
X002313Y000235
X002399Y000234
X002476Y000216
X002552
X002641
X002703Y000162
X002768Y000216
X002668Y000496
X002565Y000492
X002438Y000483
X002324Y000542
Y000618
X002332Y000705
X002341Y000792
Y000868
X002349Y001009
X002538Y001067
X002745Y001063
X002846Y001067
X002893Y001003
X002891Y000915
Y000749
Y000616
X003162Y000737
X003162Y000851
X00316Y00094
X003264Y000965
X003264Y000855
X003251Y000711
Y000579
X003823Y000875
Y000951
X002616Y000853
X002159Y001134
X002044Y00113
X002037Y001041
X00395Y000834
X004772Y000871
Y000947
X004899Y00083
X005733Y000871
Y000947
X00586Y00083
X006675Y000871
Y000947
X006802Y00083
X007616Y000871
Y000947
X007743Y00083
X008559Y000871
Y000947
X008686Y00083
X008315Y001935
Y002039
X008348Y002107
X008509Y002286
X00826Y002527
X00824Y002893
X00824Y003371
X008496Y003145
X009271Y002134
Y002039
Y001935
X008123Y00459
X007821Y00428
X007709Y004216
X007677Y00477
X007601
X007457Y004691
X007367Y004855
X007362Y004946
X007274Y004867
X007198
X007108Y004863
X007155Y004936
Y005012
X006931Y005057
X006995Y004873
X006867Y00487
X006852Y004392
X006986Y004403
X007132Y004377
X007226Y004382
X007362Y00447
X007274Y004597
X007191
X007226Y004059
X007082Y004059
X006945Y004059
X006807Y004064
X006624Y004059
X006477
X006345
X006205
X006104Y003836
X00601
X005918Y004166
X005517Y004216
Y003836
X005308Y003607
X004432Y003645
X004203
X003988
X004Y00428
X004229
X004432
X005057Y005025
Y005105
X005822Y005118
X006134Y004981
X00635Y004877
X006286Y00461
X006172
X006573Y004401
X006722Y004465
X006655Y003435
X006567Y003181
X006497Y0027
Y002613
X006629Y002205
Y00211
X006706Y002234
X006839Y002261
X006972Y00221
X007113
X007251
Y002346
X007214Y00247
X007485Y002624
X007803Y002624
X007726Y002946
X007251
X007252Y003072
X007083
X007074Y003437
X007203Y003327
X007504Y003464
X007823Y003467
X00741Y003838
X007316Y003837
X007657Y004946
Y005022
X007618Y005091
X006926Y002763
X006839Y001918
X006772Y00192
X006706Y001918
X00588Y001956
X005879Y001876
X005877Y002037
X005879Y002135
X005989Y002337
X0061Y002342
X005447Y002134
Y002039
Y001935
X005194Y001829
X005118Y001828
X005043Y00183
X004978Y002012
X004972Y002108
X005194Y002197
X004335Y002252
X004439Y002368
X004Y002142
Y002039
Y001944
X004216Y001859
Y001776
X007585Y002092
X007692Y002093
X003653Y001944
X003646Y001778
X003353Y001778
Y001613
Y001943
X002959
X002777Y002025
X002771Y002369
X002887Y002372
X003007
X003127
X003247
X003367
X003487
X003607
Y00268
X003727
X003705Y002885
X003629
X003487Y00268
X003367
X003247
X003127
X003007
X002647
X002527
X002524Y002579
X002407Y00268
X002287
X002167
X002047
X001927
X001807
Y002372
X001927
X002047
X002167
X002287
X002407
X002647
X001924Y002159
X001727Y002083
X001644Y001914
X001473Y001881
X001384Y00188
X001387Y001975
X001389Y002083
X001346Y002509
Y002667
Y002817
Y002959
Y003099
Y003238
X001593Y003231
X00159Y003098
X001588Y002983
X001592Y002838
X002013Y001962
X00201Y001708
X002015Y001397
X001833Y001486
X001756
X001783Y001607
X001706
X001733Y001194
X001656
X001869Y0012
X002311Y001333
X002489
X00256Y00141
X002636
X002671Y001333
X002745
X002819Y001321
X002895
X003048Y001232
X001234Y001194
Y001607
X001003Y00158
Y00146
X000355Y003251
X000355Y003543
X000438Y003601
X000444Y004191
X000431Y004318
X0024Y004407
Y004597
Y004801
Y004204
X002394Y004
X0024Y003797
X002396Y003404
X003111Y003607
X002997Y004966
X00273Y005093
X003264Y005098
X003543Y004966
X00381Y004574
X003705Y005766
X003629
X003585Y005702
X003509
X003446Y005766
X003327Y005778
X003276Y005669
X003127
Y005778
X002967
Y005669
Y00555
X003127
X003348Y005459
X003377Y005957
X003487Y005956
X003607
X003727
X003721Y006083
X003607
X003487
X003509Y006274
X003585
X003629Y006363
X003705
X00374Y006736
X003326Y006731
X003204Y006681
X003249Y006936
X003282Y007049
X003247Y006274
X00334
X003276Y00607
X003247Y005956
X00316Y005982
X003017Y005969
X003006Y006083
X002895Y00606
X002817
X002712Y006044
X002687Y005969
X00284Y005956
X002845Y005739
X002845Y005646
X002603Y00569
X002527
X002506Y005765
X002687Y005775
X002438Y005954
X002407Y006073
X002326Y006076
X002247Y00597
X002173Y005972
X002046Y005958
X001927Y005982
X001837
X001767Y006083
X001927
Y006274
X002037
X002167
X002367
Y006388
Y006502
X002647
Y006388
Y006274
X002527
X002567Y006083
X002807Y006274
Y006388
Y006502
X002967Y006274
X00308Y006383
X002527Y006693
X001927Y006388
X002108Y006058
X002088Y005774
X001997Y005766
X001888Y005718
X001807Y005766
Y005668
X00192Y005587
X002197Y005486
X002355
X002514Y00527
X001575Y005901
X001352Y005747
X001016Y005839
X000927Y006036
X001003Y006363
X001132
X001257
X001232Y00617
X001132Y006236
X00177Y006962
X001587Y007264
X001727Y00781
X002025Y00799
Y008091
X002126Y008092
Y007991
X002228
Y008092
Y0082
X002126
X002025Y008199
X002356Y00851
X002457Y008511
X002559
X002334Y008917
X002219
X002099
X001575Y00856
X001054Y008814
Y008924
X000467Y008903
X000577Y008687
X000217Y008649
X000101Y008153
Y008039
X000343Y007925
X00033Y007823
Y007709
X000112Y007595
X000127Y007506
X000101Y007379
X000076Y007277
X002356Y007672
X002457Y007673
X002559
X003072Y007955
X003251
X003169Y008084
X003251Y008204
X003073
X003314Y008418
X003594Y008019
X003655Y007981
X003949Y00819
Y008296
X004031Y007634
X004158
X004196Y007392
X004298Y007393
X0044
Y007285
X004298
X004196Y007285
X0044Y007177
X004254Y006872
X004139
X004019
X004178Y006388
X004267
X004407
X004503
Y00649
X004407
X004607
Y006388
X004743
X004824
X005131Y006247
Y006133
X005055Y005672
Y005583
X005042Y005436
X005143
Y005332
Y005235
X005042
Y005332
X004803Y005599
X004743Y005552
X004673Y005554
X004718Y005766
Y005905
X004607Y005837
X004487Y005905
Y005766
X004084Y005373
X005817Y005353
X005816Y005245
X005818Y005474
X005829Y005755
Y005884
X005829Y006004
X005834Y006124
X006074Y006084
X006152Y005991
X006154Y006401
X006272Y006403
X006395Y006399
X006545Y006405
X00667
X006824
X006965Y006421
X007042
X007103Y006467
X007165Y006424
X007242
X007368Y006406
X007322Y006152
X007246Y006152
X00734Y006062
Y005986
X007333Y005862
Y005786
Y005669
X007235Y005666
X007235Y005746
X007268Y005907
X007112Y006083
X007036Y006084
X006944Y006152
X006835Y006151
X006741
X00664
X006464Y006157
X006504Y005736
X006724
Y005945
X006944Y005736
Y005504
X006724
X006504
Y005273
X006724
X006944
X007122Y005293
Y00537
X00725Y005417
Y005494
X007172Y005526
Y005603
X00737Y005494
X007315Y00526
X007241Y005238
Y005162
X007618Y005167
Y005241
Y005317
X007616Y005422
X007709Y005466
Y005542
X007617Y005593
Y005669
Y005743
Y005819
X007759Y005898
Y005974
X007611Y006066
X007611Y006142
X007605Y00651
X006921Y00649
X006705Y006586
X006543Y007045
X006197Y007048
X005917Y007012
Y007088
Y007165
X005878Y007315
X00588Y007464
X005917Y007698
Y007774
Y00785
Y007927
X006197Y00781
X006528Y007808
Y008188
X006204
X005886Y008344
X005871Y008666
X005905Y008852
X005964Y009043
X006178Y008957
X00555Y008903
Y008741
X005554Y008585
X005562Y008268
X00544Y008261
X005452Y008027
X005562Y008026
X005537Y007866
X005562Y007391
Y007226
X005917Y006936
X005964Y006314
X005748Y006332
X006175Y005493
X006083Y005283
X00621Y007422
X006528
X007378Y007807
X00738Y007877
X007378Y008188
X007295Y008185
X005054Y007899
X004737Y00823
Y008788
X005067Y008865
X005066Y008547
X005057Y007026
X004724Y006947
X008001Y006892
Y006816
Y007197
Y007273
X008283Y007252
X008191Y007544
X008001Y007578
Y007654
Y007959
Y008035
X008283Y008014
X008283Y008395
X009208Y008881
X009957Y00893
X008852Y006579
X008839Y00649
X007869Y005706
X007861Y005205
X009721Y005528
X009957Y009438
Y009539
Y01005
X009208Y009928
X008954
X008953Y009557
X009208
Y009251
X008954
Y009145
X00861Y00955
X008077Y009634
Y00971
Y009784
Y00986
X007963Y010109
X007954Y010239
X008177Y010552
X008179Y010719
Y010884
Y011043
Y011204
Y011354
Y011506
Y011659
X008708Y011717
Y011519
X008966Y011532
X008979Y011717
Y011285
X008755
X008866Y011173
X008755Y01106
X00898
X008966Y01082
X008866
X008909Y010536
X008701Y01052
X008433Y010516
X008077Y009366
Y00929
Y009216
Y00914
X008495Y012076
X00861Y012167
X008725Y012167
X009004Y012167
Y012314
Y012433
Y01256
X008852Y012666
Y012768
X008724Y012471
X009312Y011934
X009537Y011358
Y011255
Y011151
Y011047
X007213Y011227
Y011412
Y011582
Y01082
Y010668
Y010516
X007541Y010026
X007742Y00986
Y009784
Y00971
Y009634
X007823Y009747
X007742Y009366
Y00929
Y009216
Y00914
X007823Y009253
X005054Y00926
X004734Y009186
X004496Y009182
X004399
X004305
X004191Y009258
X003991Y009133
X003911Y009409
Y009516
Y009614
X003932Y009841
Y009971
X004188Y009908
X004013Y010295
X00414Y010693
X00426
X004375
X004718Y010643
X004863
Y010516
X004838Y010427
X004842Y010338
X004915Y010262
Y010122
X005267Y010578
X005369Y01079
X005575Y010465
X005646Y010466
X005715Y010465
X005675Y010396
X005607Y010403
X005699Y010559
X006026Y010554
X006046Y010627
X006028Y010807
Y010957
Y011107
Y011257
Y011407
Y011557
X00602Y012128
X006007Y012319
X00574Y012155
Y012068
Y011992
X00574Y0119
X005588Y011951
X005461Y011992
Y012068
X00527Y012027
Y012155
X004991Y012078
Y011976
X005025Y012484
X005155Y012471
X004805Y012653
X004691
X004076Y012751
X003962
X004216Y012967
X004089Y012117
Y012018
X004153Y011455
X00428
X004318Y011213
X004419Y011214
X004521
Y011106
X004419
X004318Y011106
X004521Y010998
X004991Y011328
Y01143
X005258Y011379
X005293Y011575
X005524Y012738
Y012827
X005617Y012826
X005616Y012738
X005715
Y012827
X005918Y012992
X00668Y013056
X007402Y013078
X007607Y012763
X007556Y012548
X007442
X007734Y012278
Y012179
Y012076
X006028Y01042
Y010327
X005804Y010135
X004654Y009434
X003596Y009451
Y009321
X003345Y009382
Y009256
X00335Y00971
X003345Y009906
X003595Y009971
X003596Y009647
X002931Y01001
X00287Y010223
X003048Y010274
X002794Y010592
X002565Y010665
X00227Y010817
X002278Y010927
X002477Y011493
X002579Y011493
X00268
X002349Y011812
Y011913
X002248
Y011812
X002146Y011811
Y011912
Y01202
X002248Y012021
X002349
X002477Y012331
X002579Y012332
X00268
X002654Y012598
X002651Y0127
Y012784
X002654Y012878
X002933Y013005
X003022
X003626Y01298
X003831Y012847
X003458Y012239
X003372Y012018
X003193
X00329Y011905
X003372Y01178
X003193
X003715Y01184
X003862Y011736
X001867Y011857
X001866Y012382
X001867Y012614
Y012738
X001928Y013044
X001713Y013046
X00161Y012871
X001403Y012789
Y012586
Y012332
X001613Y01223
X001613Y012484
X001441Y013072
X002146Y013042
X0024Y013039
X00127Y011747
X000381Y01176
X000436Y010554
X000538Y010555
X000639
X000308Y010244
X000207Y010243
X000105
Y010135
Y010034
X000207
Y010136
X000308
Y010035
X000436Y009716
X000538Y009717
X000639
X001155Y010008
X001333
X001249Y010129
X001333Y010241
X001156
X001416Y010462
X001674Y010064
X00182Y00996
X002044Y010232
X002044Y010325
X002112Y009679
X002239
X002277Y009437
X002325Y009383
X002426Y009381
X002378Y00933
X00248
X002432Y009273
X00248Y009221
Y009438
X002378
X002277Y009329
X002507Y013322
X002861Y01336
X002956
X003061
X003022Y013252
Y013169
Y013087
X002933
Y013169
Y013252
X003175Y013487
X003175Y013589
X003175Y0137
Y013806
X003422Y01382
X003423Y01372
X003422Y01351
X003764Y013449
Y013595
X003855Y013947
X00381Y014217
X003513Y014056
X003331Y013998
Y014186
X002794
Y014021
X002685Y014026
X002349Y013573
X002181Y013696
X002093Y013722
X002042Y013861
X002006Y013455
X001363Y013588
X001329Y013288
X001046Y013288
X000757Y013288
X000393Y013437
X003766Y013088
X003967Y013297
X004077
X004051Y013411
X003899Y013398
X003995Y01361
X004078Y013691
X003995Y013776
X004115Y013983
X004203Y013995
X004292Y013983
X00425Y014096
X004235Y014224
X004009Y014313
X004381Y013818
X004457Y013813
Y013716
X004379Y013666
Y013537
X004292Y013424
X00457Y013398
X004665
X004733Y01343
X004735Y01335
X004813Y013335
X004915
X005004
X00505Y013388
X00508Y013449
X004748Y01361
X004661Y013856
X004889Y01401
X005346Y013741
X005571Y013886
X005448Y014186
X006566Y014008
X006515Y013956
X006622Y014062
X007272Y014063
X00727Y013992
X007224Y01394
X007391Y014021
Y013691
X007398Y013362
X007402Y013273
Y01318
X007247Y013159
Y013289
Y013398
X00715Y013398
X006528Y013411
Y013322
X006526Y013218
X006426Y013411
X006204Y013093
X004521Y013094
X007836Y013538
X007753Y013718
X007747Y013805
X007749Y014084
X008047Y013449
X008153Y013253
X009811Y013264
T02
X002582Y001673
X00307
T05
X006955Y008715
X007209
Y008969
X006955
Y009223
Y009477
Y009731
X007209
Y009985
Y010239
X006955
Y009985
X007209Y009477
Y009223
X006499Y011004
X006245
Y011258
Y011512
Y011766
Y01202
Y012274
Y012528
X006499
Y012274
Y01202
Y011766
Y011512
Y011258
T06
X008837Y008807
X00904
X009388Y009032
X009538Y00893
Y009133
Y009336
Y009539
Y009742
Y009945
X009388Y009844
Y009641
Y009438
Y009235
Y010047
X00904Y01027
X008837
T07
X009801Y007314
Y007568
Y007822
Y008076
X010055Y007949
Y007695
Y007441
Y007187
T08
X004093Y000561
Y000811
Y001011
X005043
Y000811
Y000561
X005994
Y000811
Y001011
X006945
Y000811
Y000561
X007896
Y000811
Y001011
X008847
Y000811
Y000561
Y001261
X007896
X006945
X005994
X005043
X004093
T10
X008005Y004951
X008259Y005078
Y005332
Y005586
Y00584
Y006094
X008005Y005967
Y005713
Y005459
Y005205
X008288Y008887
Y009141
Y009936
Y01019
T11
X000178Y001067
X008359Y003873
X008613
X008867
Y004153
X008613
X008359
X006229Y00351
Y003256
Y003002
Y002748
X005935Y002744
Y002998
Y003252
Y003506
X00066Y001727
Y001473
Y001219
X000178Y001321
Y001575
Y001829
X002105Y014179
X002359
T12
X00994Y00486
Y005114
Y005931
Y006185
T13
X001134Y013951
X001642
T14
X009848Y011374
Y011755
Y012136
X007054Y012517
Y011755
Y010993
T15
X00914Y004735
Y00631
X009538Y00864
Y010438
T16
X00977Y00149
Y001998
Y002506
Y003014
Y003522
Y00403
T17
X008861Y006844
Y008419
T18
X009848Y010993
Y012517
T19
X003822Y000254
X004772
X005723
X006674
X007625
X008576
Y001568
X007625
X006674
X005723
X004772
X003822
T20
X0004Y0004
X009811Y0004
X0004Y013992
X009811Y013992
T21
X000331Y011283
T22
X005306Y009336
T23
X005356Y01228
T24
X005306Y006836
T25
X005356Y01028
T26
X005397Y002674
X000597
Y005974
X005397
T27
X009529Y004951
Y006094
X008639Y009038
Y010039
T28
X000506Y006881
X002916
Y009301
X000506
T29
X009166Y00706
Y008203
M30
