G04*
G04 #@! TF.GenerationSoftware,Altium Limited,Altium Designer,24.0.1 (36)*
G04*
G04 Layer_Color=255*
%FSLAX42Y42*%
%MOMM*%
G71*
G04*
G04 #@! TF.SameCoordinates,E1E02590-05F2-4693-A132-99C86EA4FF08*
G04*
G04*
G04 #@! TF.FilePolarity,Positive*
G04*
G01*
G75*
%ADD19R,1.55X0.30*%
%ADD20R,2.75X1.20*%
%ADD21O,0.27X1.50*%
G04:AMPARAMS|DCode=22|XSize=0.56mm|YSize=0.2mm|CornerRadius=0.05mm|HoleSize=0mm|Usage=FLASHONLY|Rotation=0.000|XOffset=0mm|YOffset=0mm|HoleType=Round|Shape=RoundedRectangle|*
%AMROUNDEDRECTD22*
21,1,0.56,0.10,0,0,0.0*
21,1,0.47,0.20,0,0,0.0*
1,1,0.10,0.23,-0.05*
1,1,0.10,-0.23,-0.05*
1,1,0.10,-0.23,0.05*
1,1,0.10,0.23,0.05*
%
%ADD22ROUNDEDRECTD22*%
%ADD23R,0.60X0.75*%
%ADD24R,0.23X1.36*%
%ADD25R,0.85X0.95*%
%ADD26R,0.75X0.60*%
%ADD27R,0.20X0.70*%
%ADD28R,1.36X0.23*%
%ADD29R,1.90X0.76*%
%ADD30R,1.40X1.20*%
G04:AMPARAMS|DCode=31|XSize=2.17mm|YSize=0.57mm|CornerRadius=0.28mm|HoleSize=0mm|Usage=FLASHONLY|Rotation=0.000|XOffset=0mm|YOffset=0mm|HoleType=Round|Shape=RoundedRectangle|*
%AMROUNDEDRECTD31*
21,1,2.17,0.00,0,0,0.0*
21,1,1.61,0.57,0,0,0.0*
1,1,0.57,0.80,0.00*
1,1,0.57,-0.80,0.00*
1,1,0.57,-0.80,0.00*
1,1,0.57,0.80,0.00*
%
%ADD31ROUNDEDRECTD31*%
G04:AMPARAMS|DCode=32|XSize=0.86mm|YSize=0.27mm|CornerRadius=0.03mm|HoleSize=0mm|Usage=FLASHONLY|Rotation=270.000|XOffset=0mm|YOffset=0mm|HoleType=Round|Shape=RoundedRectangle|*
%AMROUNDEDRECTD32*
21,1,0.86,0.20,0,0,270.0*
21,1,0.79,0.27,0,0,270.0*
1,1,0.07,-0.10,-0.40*
1,1,0.07,-0.10,0.40*
1,1,0.07,0.10,0.40*
1,1,0.07,0.10,-0.40*
%
%ADD32ROUNDEDRECTD32*%
%ADD33R,0.95X0.85*%
%ADD34R,1.35X1.15*%
%ADD35O,1.50X0.27*%
G04:AMPARAMS|DCode=36|XSize=1.32mm|YSize=0.59mm|CornerRadius=0.07mm|HoleSize=0mm|Usage=FLASHONLY|Rotation=180.000|XOffset=0mm|YOffset=0mm|HoleType=Round|Shape=RoundedRectangle|*
%AMROUNDEDRECTD36*
21,1,1.32,0.44,0,0,180.0*
21,1,1.17,0.59,0,0,180.0*
1,1,0.15,-0.59,0.22*
1,1,0.15,0.59,0.22*
1,1,0.15,0.59,-0.22*
1,1,0.15,-0.59,-0.22*
%
%ADD36ROUNDEDRECTD36*%
%ADD37R,0.40X1.75*%
%ADD38R,0.81X0.36*%
%ADD39R,0.90X0.90*%
G04:AMPARAMS|DCode=40|XSize=0.86mm|YSize=0.27mm|CornerRadius=0.03mm|HoleSize=0mm|Usage=FLASHONLY|Rotation=180.000|XOffset=0mm|YOffset=0mm|HoleType=Round|Shape=RoundedRectangle|*
%AMROUNDEDRECTD40*
21,1,0.86,0.20,0,0,180.0*
21,1,0.79,0.27,0,0,180.0*
1,1,0.07,-0.40,0.10*
1,1,0.07,0.40,0.10*
1,1,0.07,0.40,-0.10*
1,1,0.07,-0.40,-0.10*
%
%ADD40ROUNDEDRECTD40*%
%ADD41R,0.90X0.90*%
%ADD42R,0.36X0.81*%
%ADD43R,1.70X3.55*%
%ADD44R,2.70X1.20*%
%ADD45R,2.35X5.10*%
%ADD46R,0.81X0.93*%
%ADD47R,1.70X1.10*%
%ADD48R,1.65X1.20*%
%ADD49R,1.45X2.05*%
G04:AMPARAMS|DCode=50|XSize=1.5mm|YSize=0.4mm|CornerRadius=0.1mm|HoleSize=0mm|Usage=FLASHONLY|Rotation=90.000|XOffset=0mm|YOffset=0mm|HoleType=Round|Shape=RoundedRectangle|*
%AMROUNDEDRECTD50*
21,1,1.50,0.20,0,0,90.0*
21,1,1.30,0.40,0,0,90.0*
1,1,0.20,0.10,0.65*
1,1,0.20,0.10,-0.65*
1,1,0.20,-0.10,-0.65*
1,1,0.20,-0.10,0.65*
%
%ADD50ROUNDEDRECTD50*%
G04:AMPARAMS|DCode=51|XSize=1.5mm|YSize=0.28mm|CornerRadius=0.07mm|HoleSize=0mm|Usage=FLASHONLY|Rotation=270.000|XOffset=0mm|YOffset=0mm|HoleType=Round|Shape=RoundedRectangle|*
%AMROUNDEDRECTD51*
21,1,1.50,0.14,0,0,270.0*
21,1,1.36,0.28,0,0,270.0*
1,1,0.14,-0.07,-0.68*
1,1,0.14,-0.07,0.68*
1,1,0.14,0.07,0.68*
1,1,0.14,0.07,-0.68*
%
%ADD51ROUNDEDRECTD51*%
%ADD52R,1.12X0.36*%
%ADD54R,1.43X2.50*%
%ADD55R,5.99X5.99*%
%ADD56R,2.17X0.57*%
G04:AMPARAMS|DCode=57|XSize=0.56mm|YSize=0.2mm|CornerRadius=0.05mm|HoleSize=0mm|Usage=FLASHONLY|Rotation=270.000|XOffset=0mm|YOffset=0mm|HoleType=Round|Shape=RoundedRectangle|*
%AMROUNDEDRECTD57*
21,1,0.56,0.10,0,0,270.0*
21,1,0.47,0.20,0,0,270.0*
1,1,0.10,-0.05,-0.23*
1,1,0.10,-0.05,0.23*
1,1,0.10,0.05,0.23*
1,1,0.10,0.05,-0.23*
%
%ADD57ROUNDEDRECTD57*%
%ADD73R,2.00X0.60*%
G04:AMPARAMS|DCode=91|XSize=0.56mm|YSize=0.4mm|CornerRadius=0.05mm|HoleSize=0mm|Usage=FLASHONLY|Rotation=270.000|XOffset=0mm|YOffset=0mm|HoleType=Round|Shape=RoundedRectangle|*
%AMROUNDEDRECTD91*
21,1,0.56,0.30,0,0,270.0*
21,1,0.47,0.40,0,0,270.0*
1,1,0.10,-0.15,-0.23*
1,1,0.10,-0.15,0.23*
1,1,0.10,0.15,0.23*
1,1,0.10,0.15,-0.23*
%
%ADD91ROUNDEDRECTD91*%
G04:AMPARAMS|DCode=93|XSize=0.56mm|YSize=0.4mm|CornerRadius=0.05mm|HoleSize=0mm|Usage=FLASHONLY|Rotation=0.000|XOffset=0mm|YOffset=0mm|HoleType=Round|Shape=RoundedRectangle|*
%AMROUNDEDRECTD93*
21,1,0.56,0.30,0,0,0.0*
21,1,0.47,0.40,0,0,0.0*
1,1,0.10,0.23,-0.15*
1,1,0.10,-0.23,-0.15*
1,1,0.10,-0.23,0.15*
1,1,0.10,0.23,0.15*
%
%ADD93ROUNDEDRECTD93*%
%ADD94R,3.20X2.30*%
%ADD133R,2.45X2.45*%
%ADD144C,1.70*%
%ADD145C,1.15*%
%ADD146C,1.65*%
%ADD147C,6.00*%
%ADD148C,1.73*%
%ADD149C,1.53*%
%ADD150C,1.45*%
%ADD151R,1.53X1.53*%
%ADD152R,1.45X1.45*%
%ADD153R,1.70X1.70*%
%ADD154C,1.50*%
%ADD155C,1.41*%
%ADD156R,1.41X1.41*%
%ADD157C,2.36*%
%ADD158C,2.57*%
%ADD159R,1.46X1.46*%
%ADD160O,4.75X2.00*%
%ADD161C,3.00*%
%ADD162C,2.54*%
%ADD163C,2.40*%
%ADD164R,2.54X2.54*%
%ADD165C,1.46*%
%ADD166C,1.20*%
%ADD167C,3.37*%
%ADD168O,2.00X4.50*%
%ADD169R,4.75X2.00*%
%ADD170R,1.50X1.50*%
%ADD171O,1.10X1.60*%
%ADD172O,1.20X2.40*%
G04:AMPARAMS|DCode=173|XSize=2.4mm|YSize=2.4mm|CornerRadius=0.6mm|HoleSize=0mm|Usage=FLASHONLY|Rotation=90.000|XOffset=0mm|YOffset=0mm|HoleType=Round|Shape=RoundedRectangle|*
%AMROUNDEDRECTD173*
21,1,2.40,1.20,0,0,90.0*
21,1,1.20,2.40,0,0,90.0*
1,1,1.20,0.60,0.60*
1,1,1.20,0.60,-0.60*
1,1,1.20,-0.60,-0.60*
1,1,1.20,-0.60,0.60*
%
%ADD173ROUNDEDRECTD173*%
%ADD174C,3.25*%
%ADD175C,2.70*%
%ADD176C,1.10*%
%ADD177C,1.60*%
%ADD178C,3.51*%
%ADD179C,1.63*%
%ADD180C,6.35*%
D19*
X5884Y12205D02*
D03*
X5129Y11730D02*
D03*
X5884Y11705D02*
D03*
X5129Y11680D02*
D03*
X5884Y11655D02*
D03*
X5129Y11630D02*
D03*
X5884Y11605D02*
D03*
X5129Y11580D02*
D03*
Y11530D02*
D03*
X5884Y11505D02*
D03*
Y11455D02*
D03*
Y11355D02*
D03*
Y11305D02*
D03*
X5129Y11280D02*
D03*
Y11230D02*
D03*
X5884Y11205D02*
D03*
X5129Y11180D02*
D03*
X5884Y11155D02*
D03*
X5129Y11130D02*
D03*
Y11080D02*
D03*
X5884Y11055D02*
D03*
X5129Y11030D02*
D03*
X5884Y11005D02*
D03*
X5129Y10980D02*
D03*
Y10930D02*
D03*
X5884Y10905D02*
D03*
X5129Y10880D02*
D03*
X5884Y10855D02*
D03*
X5129Y10830D02*
D03*
Y10780D02*
D03*
X5884Y10755D02*
D03*
X5129Y10730D02*
D03*
X5884Y10705D02*
D03*
X5129Y10680D02*
D03*
X5884Y10655D02*
D03*
X5129Y10630D02*
D03*
X5884Y10605D02*
D03*
X5129Y10530D02*
D03*
X5884Y10505D02*
D03*
Y10405D02*
D03*
Y10455D02*
D03*
Y10805D02*
D03*
Y10955D02*
D03*
Y11105D02*
D03*
Y11255D02*
D03*
Y11405D02*
D03*
Y11555D02*
D03*
Y11955D02*
D03*
Y12105D02*
D03*
Y12155D02*
D03*
X5129Y10380D02*
D03*
Y10430D02*
D03*
Y10480D02*
D03*
Y12130D02*
D03*
Y12180D02*
D03*
X5884Y12005D02*
D03*
Y12055D02*
D03*
X5129Y12080D02*
D03*
X5884Y10555D02*
D03*
Y10355D02*
D03*
X5129Y11430D02*
D03*
Y11380D02*
D03*
Y10580D02*
D03*
Y11480D02*
D03*
Y11330D02*
D03*
Y11980D02*
D03*
Y12030D02*
D03*
D20*
X5806Y10245D02*
D03*
Y12315D02*
D03*
D21*
X2682Y1205D02*
D03*
X2732Y1205D02*
D03*
X2832D02*
D03*
X2882Y1205D02*
D03*
X2782D02*
D03*
X2532Y1205D02*
D03*
X2582Y355D02*
D03*
X2482Y1205D02*
D03*
X2682Y355D02*
D03*
X2632Y355D02*
D03*
X2732D02*
D03*
X2532Y355D02*
D03*
X2332D02*
D03*
X2482Y355D02*
D03*
X2382Y1205D02*
D03*
X2432Y1205D02*
D03*
X2332D02*
D03*
X2432Y355D02*
D03*
X2582Y1205D02*
D03*
X2632Y1205D02*
D03*
X2882Y355D02*
D03*
X2832Y355D02*
D03*
X2782Y355D02*
D03*
X2382Y355D02*
D03*
D22*
X7786Y5304D02*
D03*
Y5254D02*
D03*
Y5154D02*
D03*
Y5104D02*
D03*
X7702D02*
D03*
Y5154D02*
D03*
Y5254D02*
D03*
Y5304D02*
D03*
X7785Y5656D02*
D03*
X7702D02*
D03*
X7785Y5606D02*
D03*
X7702D02*
D03*
X7785Y5806D02*
D03*
X7702D02*
D03*
X7785Y5756D02*
D03*
X7702D02*
D03*
X6086Y6952D02*
D03*
X6002D02*
D03*
X6086Y7002D02*
D03*
X6002D02*
D03*
X6086Y7152D02*
D03*
X6002D02*
D03*
X6086Y7102D02*
D03*
X6002D02*
D03*
Y7764D02*
D03*
X6086D02*
D03*
X6002Y7714D02*
D03*
X6086D02*
D03*
X6002Y7914D02*
D03*
X6086D02*
D03*
X6002Y7864D02*
D03*
X6086D02*
D03*
X7898Y9353D02*
D03*
X7982D02*
D03*
X7898Y9303D02*
D03*
X7982D02*
D03*
X7898Y9797D02*
D03*
X7982D02*
D03*
X7898Y9847D02*
D03*
X7982D02*
D03*
X7898Y9697D02*
D03*
X7982D02*
D03*
X7898Y9647D02*
D03*
X7982D02*
D03*
X7898Y9153D02*
D03*
X7982D02*
D03*
X7898Y9203D02*
D03*
X7982D02*
D03*
D23*
X6104Y4281D02*
D03*
X6010D02*
D03*
X6104Y4166D02*
D03*
X6010Y4059D02*
D03*
X6104D02*
D03*
X7899Y4535D02*
D03*
X6199Y4281D02*
D03*
X6382D02*
D03*
X6293D02*
D03*
X6477D02*
D03*
X6572D02*
D03*
X6759D02*
D03*
X6666D02*
D03*
X6852D02*
D03*
X7037D02*
D03*
X6945D02*
D03*
X7132D02*
D03*
X7226D02*
D03*
X7316D02*
D03*
Y4059D02*
D03*
Y4166D02*
D03*
X7410Y4060D02*
D03*
X8283Y7156D02*
D03*
X8281Y7540D02*
D03*
X8280Y7915D02*
D03*
X8283Y8304D02*
D03*
X8283Y7041D02*
D03*
X8281Y7425D02*
D03*
X8280Y7800D02*
D03*
X8283Y8189D02*
D03*
X6054Y9159D02*
D03*
X6177Y9158D02*
D03*
X5025Y12692D02*
D03*
X5155Y12696D02*
D03*
X6054Y9044D02*
D03*
X5155Y12581D02*
D03*
X1820Y2076D02*
D03*
X3906Y14217D02*
D03*
X5577Y13978D02*
D03*
X5692Y13973D02*
D03*
X3965Y13094D02*
D03*
X4572Y13741D02*
D03*
X4077Y13205D02*
D03*
X6018Y13450D02*
D03*
X6767Y13444D02*
D03*
X6018Y13565D02*
D03*
X6767Y13559D02*
D03*
X3965Y13209D02*
D03*
X4572Y13856D02*
D03*
X5577Y14093D02*
D03*
X5692Y14088D02*
D03*
X4665Y13604D02*
D03*
X4570Y13604D02*
D03*
X4078Y12959D02*
D03*
X4077Y13090D02*
D03*
X3964Y12959D02*
D03*
X4009Y14102D02*
D03*
X3906Y14102D02*
D03*
X9102Y2338D02*
D03*
X9084Y3234D02*
D03*
X9102Y2223D02*
D03*
X9084Y3119D02*
D03*
X4009Y14217D02*
D03*
X4570Y13489D02*
D03*
X1091Y1467D02*
D03*
X5025Y12577D02*
D03*
X6177Y9043D02*
D03*
X4665Y13489D02*
D03*
X4078Y12844D02*
D03*
X3964D02*
D03*
X1820Y1961D02*
D03*
X1924D02*
D03*
X1297Y2088D02*
D03*
X1924Y2076D02*
D03*
X6706Y2138D02*
D03*
X5065Y2053D02*
D03*
X3350Y965D02*
D03*
X7899Y4420D02*
D03*
X6945Y4166D02*
D03*
X6477D02*
D03*
X6010Y3944D02*
D03*
X7410Y3945D02*
D03*
X2015Y1492D02*
D03*
X6706Y2023D02*
D03*
X5065Y1938D02*
D03*
X3350Y850D02*
D03*
X1297Y1973D02*
D03*
X7316Y3944D02*
D03*
X7132Y4166D02*
D03*
X7226D02*
D03*
X6852D02*
D03*
X7037D02*
D03*
X6666D02*
D03*
X6572D02*
D03*
X6382D02*
D03*
X6293D02*
D03*
X6010D02*
D03*
X6199D02*
D03*
X6104Y3944D02*
D03*
X6759Y4166D02*
D03*
X1091Y1582D02*
D03*
X2015Y1607D02*
D03*
D24*
X6424Y4736D02*
D03*
X6384D02*
D03*
X7024Y6272D02*
D03*
X6984D02*
D03*
X7104D02*
D03*
X7064D02*
D03*
X7224D02*
D03*
X7184D02*
D03*
X7304D02*
D03*
X7264D02*
D03*
X7064Y4736D02*
D03*
X7104D02*
D03*
X7304D02*
D03*
X7264D02*
D03*
X7184D02*
D03*
X7224D02*
D03*
X7144D02*
D03*
X6464D02*
D03*
X6544D02*
D03*
X6504D02*
D03*
X6584D02*
D03*
X6624D02*
D03*
X6704D02*
D03*
X6664D02*
D03*
X6744D02*
D03*
X6824D02*
D03*
X6784D02*
D03*
X6864D02*
D03*
X6904D02*
D03*
X6944D02*
D03*
X6864Y6272D02*
D03*
X7144D02*
D03*
X6824D02*
D03*
X6544D02*
D03*
X6264D02*
D03*
X6344Y4736D02*
D03*
X6904Y6272D02*
D03*
X7344D02*
D03*
X6944D02*
D03*
X6704D02*
D03*
X6664D02*
D03*
X6464D02*
D03*
X6264Y4736D02*
D03*
X6304D02*
D03*
X7024D02*
D03*
X7344D02*
D03*
X6784Y6272D02*
D03*
X6744D02*
D03*
X6624D02*
D03*
X6584D02*
D03*
X6504D02*
D03*
X6424D02*
D03*
X6384D02*
D03*
X6344D02*
D03*
X6304D02*
D03*
X6224D02*
D03*
X6184D02*
D03*
X6144D02*
D03*
X6104D02*
D03*
Y4736D02*
D03*
X6144D02*
D03*
X6184D02*
D03*
X6224D02*
D03*
X6984D02*
D03*
D25*
X9634Y6658D02*
D03*
X9631Y6507D02*
D03*
X9765Y6659D02*
D03*
X9762Y6508D02*
D03*
X6103Y2009D02*
D03*
Y1878D02*
D03*
X4447Y1907D02*
D03*
Y1776D02*
D03*
X6941Y3334D02*
D03*
X6957Y3176D02*
D03*
X7149Y2771D02*
D03*
X4316Y1907D02*
D03*
Y1776D02*
D03*
X5972Y2009D02*
D03*
Y1878D02*
D03*
X7072Y3335D02*
D03*
X7018Y2770D02*
D03*
X7088Y3177D02*
D03*
D26*
X9468Y6659D02*
D03*
X8046Y7041D02*
D03*
X8047Y7428D02*
D03*
X7496Y4214D02*
D03*
X9353Y6659D02*
D03*
X8046Y8189D02*
D03*
Y7798D02*
D03*
X8161Y7041D02*
D03*
X8162Y7428D02*
D03*
X8161Y7798D02*
D03*
Y8189D02*
D03*
X8145Y2438D02*
D03*
Y2345D02*
D03*
Y2216D02*
D03*
Y2122D02*
D03*
X8125Y3298D02*
D03*
Y3204D02*
D03*
Y3075D02*
D03*
Y2976D02*
D03*
X1518Y12867D02*
D03*
X1403Y12239D02*
D03*
X1518D02*
D03*
Y12491D02*
D03*
X6104Y2246D02*
D03*
X4450Y2141D02*
D03*
X6104Y2133D02*
D03*
X4450Y2036D02*
D03*
X8047Y13536D02*
D03*
X3520Y13617D02*
D03*
Y13825D02*
D03*
X758Y13069D02*
D03*
X1046Y13067D02*
D03*
X1335D02*
D03*
X1046Y13203D02*
D03*
X754D02*
D03*
X2574Y14099D02*
D03*
X1329Y13203D02*
D03*
X6314Y13218D02*
D03*
X7045Y13159D02*
D03*
X6314Y13321D02*
D03*
X7045Y13289D02*
D03*
X1220Y13067D02*
D03*
X1214Y13203D02*
D03*
X931Y13067D02*
D03*
Y13203D02*
D03*
X639D02*
D03*
X643Y13069D02*
D03*
X9542Y13118D02*
D03*
X6769Y3339D02*
D03*
X3635Y13617D02*
D03*
X3635Y13510D02*
D03*
Y13720D02*
D03*
X3635Y13825D02*
D03*
X7160Y13289D02*
D03*
X6429Y13218D02*
D03*
Y13321D02*
D03*
X7160Y13159D02*
D03*
X8260Y2345D02*
D03*
X8240Y3204D02*
D03*
X8260Y2216D02*
D03*
X8240Y3075D02*
D03*
X9657Y13118D02*
D03*
X3520Y13720D02*
D03*
Y13510D02*
D03*
X2689Y14099D02*
D03*
X1978Y955D02*
D03*
X6652Y3181D02*
D03*
X7034Y2626D02*
D03*
X6767Y3181D02*
D03*
X7149Y2626D02*
D03*
X2574Y2025D02*
D03*
X3071Y2027D02*
D03*
X2956D02*
D03*
X2689Y2025D02*
D03*
X4335Y2036D02*
D03*
X5989Y2133D02*
D03*
X7932Y13536D02*
D03*
X1863Y955D02*
D03*
X1403Y12867D02*
D03*
X8260Y2438D02*
D03*
X7594Y2624D02*
D03*
X8240Y3298D02*
D03*
X7600Y3464D02*
D03*
X7611Y4214D02*
D03*
X1403Y12491D02*
D03*
X4335Y2141D02*
D03*
X5989Y2246D02*
D03*
X6654Y3339D02*
D03*
X8260Y2122D02*
D03*
X7709Y2624D02*
D03*
X8240Y2976D02*
D03*
X7715Y3464D02*
D03*
D27*
X3647Y6174D02*
D03*
X3687D02*
D03*
X3527D02*
D03*
X3567D02*
D03*
X3687Y5866D02*
D03*
X3647D02*
D03*
X3527D02*
D03*
X3567D02*
D03*
X3167D02*
D03*
X3247Y6174D02*
D03*
X3207D02*
D03*
X3247Y5866D02*
D03*
X2767Y6174D02*
D03*
X3287Y5866D02*
D03*
X2247Y6174D02*
D03*
Y5866D02*
D03*
X2527Y6174D02*
D03*
X2367D02*
D03*
X2407D02*
D03*
X2487D02*
D03*
X2527Y5866D02*
D03*
X2607Y6174D02*
D03*
X2927D02*
D03*
X3007D02*
D03*
X3127D02*
D03*
X2847D02*
D03*
Y5866D02*
D03*
X2807Y6174D02*
D03*
Y5866D02*
D03*
X1967Y6174D02*
D03*
X3647Y2782D02*
D03*
X3687D02*
D03*
X3727D02*
D03*
X3527D02*
D03*
X3407Y5866D02*
D03*
X3447D02*
D03*
X2127D02*
D03*
X2167D02*
D03*
X1927D02*
D03*
X3327Y6174D02*
D03*
X1887D02*
D03*
X1847D02*
D03*
X1767Y5866D02*
D03*
X3607Y2782D02*
D03*
Y2474D02*
D03*
X3487Y2782D02*
D03*
Y2474D02*
D03*
X3367Y2782D02*
D03*
Y2474D02*
D03*
X3247Y2782D02*
D03*
Y2474D02*
D03*
X3127Y2782D02*
D03*
Y2474D02*
D03*
X3007Y2782D02*
D03*
Y2474D02*
D03*
X2887D02*
D03*
X2767D02*
D03*
X2647Y2782D02*
D03*
Y2474D02*
D03*
X2527Y2782D02*
D03*
Y2474D02*
D03*
X2407Y2782D02*
D03*
Y2474D02*
D03*
X2287Y2782D02*
D03*
Y2474D02*
D03*
X2167Y2782D02*
D03*
Y2474D02*
D03*
X2047Y2782D02*
D03*
Y2474D02*
D03*
X1927Y2782D02*
D03*
Y2474D02*
D03*
X1807Y2782D02*
D03*
Y2474D02*
D03*
X3727Y6174D02*
D03*
X3607D02*
D03*
X3487D02*
D03*
X3287D02*
D03*
X3087D02*
D03*
X2887D02*
D03*
X2687D02*
D03*
X2567D02*
D03*
X2447D02*
D03*
X2327D02*
D03*
X3727Y5866D02*
D03*
X3327D02*
D03*
X3127D02*
D03*
X2927D02*
D03*
X2727D02*
D03*
X3607D02*
D03*
X3487D02*
D03*
X2567D02*
D03*
X2447D02*
D03*
X2287D02*
D03*
X1807D02*
D03*
X2767D02*
D03*
X3167Y6174D02*
D03*
X2727D02*
D03*
X2647D02*
D03*
X3207Y5866D02*
D03*
X3007D02*
D03*
X2887D02*
D03*
X2967D02*
D03*
Y6174D02*
D03*
X3087Y5866D02*
D03*
X2687D02*
D03*
X2647D02*
D03*
X2607D02*
D03*
X3047D02*
D03*
Y6174D02*
D03*
X2207Y5866D02*
D03*
X1767Y6174D02*
D03*
X3367Y5866D02*
D03*
X1807Y6174D02*
D03*
X1927D02*
D03*
X1887Y5866D02*
D03*
X1847D02*
D03*
X2087Y6174D02*
D03*
X2207D02*
D03*
X2167D02*
D03*
X2127D02*
D03*
X2047D02*
D03*
X2007D02*
D03*
X2087Y5866D02*
D03*
X2047D02*
D03*
X2007D02*
D03*
X1967D02*
D03*
X2327D02*
D03*
X2367D02*
D03*
X2407D02*
D03*
X2487D02*
D03*
X2287Y6174D02*
D03*
X3367D02*
D03*
X3407D02*
D03*
X3447D02*
D03*
X1767Y2474D02*
D03*
Y2782D02*
D03*
X1847Y2474D02*
D03*
Y2782D02*
D03*
X1887Y2474D02*
D03*
Y2782D02*
D03*
X1967Y2474D02*
D03*
Y2782D02*
D03*
X2007Y2474D02*
D03*
Y2782D02*
D03*
X2087Y2474D02*
D03*
Y2782D02*
D03*
X2127Y2474D02*
D03*
Y2782D02*
D03*
X2207Y2474D02*
D03*
Y2782D02*
D03*
X2247Y2474D02*
D03*
Y2782D02*
D03*
X2327Y2474D02*
D03*
Y2782D02*
D03*
X2367Y2474D02*
D03*
Y2782D02*
D03*
X2447Y2474D02*
D03*
Y2782D02*
D03*
X2487Y2474D02*
D03*
Y2782D02*
D03*
X2567Y2474D02*
D03*
Y2782D02*
D03*
X2607Y2474D02*
D03*
Y2782D02*
D03*
X2687Y2474D02*
D03*
Y2782D02*
D03*
X2727Y2474D02*
D03*
Y2782D02*
D03*
X2767D02*
D03*
X2807Y2474D02*
D03*
Y2782D02*
D03*
X2847Y2474D02*
D03*
Y2782D02*
D03*
X2887D02*
D03*
X2927Y2474D02*
D03*
Y2782D02*
D03*
X2967Y2474D02*
D03*
Y2782D02*
D03*
X3047Y2474D02*
D03*
Y2782D02*
D03*
X3087Y2474D02*
D03*
Y2782D02*
D03*
X3167Y2474D02*
D03*
Y2782D02*
D03*
X3207Y2474D02*
D03*
Y2782D02*
D03*
X3287Y2474D02*
D03*
Y2782D02*
D03*
X3327Y2474D02*
D03*
Y2782D02*
D03*
X3407Y2474D02*
D03*
Y2782D02*
D03*
X3447Y2474D02*
D03*
Y2782D02*
D03*
X3527Y2474D02*
D03*
X3567D02*
D03*
Y2782D02*
D03*
X3647Y2474D02*
D03*
X3687D02*
D03*
X3727D02*
D03*
D28*
X7491Y5804D02*
D03*
Y5844D02*
D03*
Y5884D02*
D03*
Y5924D02*
D03*
Y6004D02*
D03*
Y6044D02*
D03*
Y6084D02*
D03*
Y6124D02*
D03*
Y5564D02*
D03*
Y5604D02*
D03*
Y5484D02*
D03*
Y5524D02*
D03*
Y5364D02*
D03*
Y5404D02*
D03*
Y5284D02*
D03*
Y5324D02*
D03*
Y5164D02*
D03*
Y5204D02*
D03*
Y5084D02*
D03*
Y5124D02*
D03*
Y4964D02*
D03*
Y5004D02*
D03*
Y4884D02*
D03*
Y4924D02*
D03*
X5956Y6084D02*
D03*
X7491Y5644D02*
D03*
X5956Y5324D02*
D03*
X7491Y5044D02*
D03*
Y5444D02*
D03*
Y5964D02*
D03*
Y5724D02*
D03*
X5956Y6124D02*
D03*
Y6004D02*
D03*
Y5884D02*
D03*
Y5284D02*
D03*
Y5244D02*
D03*
X7491D02*
D03*
Y5764D02*
D03*
X5956Y6044D02*
D03*
Y5964D02*
D03*
Y5924D02*
D03*
Y5844D02*
D03*
Y5804D02*
D03*
Y5764D02*
D03*
Y5724D02*
D03*
Y5684D02*
D03*
Y5644D02*
D03*
Y5604D02*
D03*
Y5564D02*
D03*
Y5524D02*
D03*
Y5484D02*
D03*
Y5444D02*
D03*
Y5404D02*
D03*
Y5364D02*
D03*
Y5204D02*
D03*
Y5164D02*
D03*
Y5124D02*
D03*
Y5084D02*
D03*
Y5044D02*
D03*
Y5004D02*
D03*
Y4964D02*
D03*
Y4924D02*
D03*
Y4884D02*
D03*
X7491Y5684D02*
D03*
D29*
X6368Y6791D02*
D03*
Y6918D02*
D03*
Y7299D02*
D03*
Y7172D02*
D03*
Y7680D02*
D03*
Y7553D02*
D03*
Y8061D02*
D03*
Y7934D02*
D03*
Y7045D02*
D03*
Y7426D02*
D03*
Y7807D02*
D03*
Y8188D02*
D03*
X7838Y7045D02*
D03*
Y7426D02*
D03*
Y8188D02*
D03*
Y7807D02*
D03*
Y6918D02*
D03*
Y6791D02*
D03*
Y7299D02*
D03*
Y7172D02*
D03*
Y7680D02*
D03*
Y7553D02*
D03*
Y8061D02*
D03*
Y7934D02*
D03*
D30*
X7497Y4373D02*
D03*
X7717Y4543D02*
D03*
Y4373D02*
D03*
X7497Y4543D02*
D03*
D31*
X7898Y2346D02*
D03*
Y2219D02*
D03*
X7897Y3199D02*
D03*
Y3072D02*
D03*
Y2945D02*
D03*
X7898Y2092D02*
D03*
X7425Y2219D02*
D03*
Y2346D02*
D03*
X7424Y3072D02*
D03*
Y3199D02*
D03*
Y2945D02*
D03*
X7425Y2092D02*
D03*
X7897Y3326D02*
D03*
X7898Y2473D02*
D03*
D32*
X4203Y13884D02*
D03*
Y13497D02*
D03*
X4053Y13884D02*
D03*
X3953D02*
D03*
X4103D02*
D03*
X4003Y13497D02*
D03*
X4153Y13884D02*
D03*
Y13497D02*
D03*
X4103D02*
D03*
X3953D02*
D03*
X4003Y13884D02*
D03*
X4053Y13497D02*
D03*
D33*
X4217Y13280D02*
D03*
X4144Y14096D02*
D03*
X8043Y13122D02*
D03*
X7395Y13791D02*
D03*
X4217Y13149D02*
D03*
X4144Y14227D02*
D03*
X5194Y2070D02*
D03*
X6839Y2155D02*
D03*
X8043Y13253D02*
D03*
X7395Y13922D02*
D03*
X3351Y578D02*
D03*
X2199Y5711D02*
D03*
X2356Y5710D02*
D03*
X5194Y1939D02*
D03*
X6839Y2024D02*
D03*
X3351Y709D02*
D03*
X2199Y5580D02*
D03*
X2356Y5579D02*
D03*
D34*
X4401Y13263D02*
D03*
Y13088D02*
D03*
X2251Y13056D02*
D03*
X1604Y13056D02*
D03*
X1820Y13057D02*
D03*
X2035Y13055D02*
D03*
X2251Y13231D02*
D03*
X1604Y13231D02*
D03*
X1820Y13232D02*
D03*
X2035Y13230D02*
D03*
D35*
X2182Y505D02*
D03*
X3032Y905D02*
D03*
X2182Y1005D02*
D03*
Y755D02*
D03*
X3032D02*
D03*
X2182Y1055D02*
D03*
Y905D02*
D03*
Y955D02*
D03*
Y555D02*
D03*
Y605D02*
D03*
Y655D02*
D03*
Y705D02*
D03*
Y805D02*
D03*
Y855D02*
D03*
X3032Y955D02*
D03*
Y1055D02*
D03*
Y855D02*
D03*
Y1005D02*
D03*
Y805D02*
D03*
Y705D02*
D03*
Y655D02*
D03*
Y605D02*
D03*
Y555D02*
D03*
Y505D02*
D03*
D36*
X6280Y2015D02*
D03*
X4635Y1917D02*
D03*
X4864Y2107D02*
D03*
X6509Y2205D02*
D03*
X6280D02*
D03*
X4635Y2107D02*
D03*
X6280Y2110D02*
D03*
X4635Y2012D02*
D03*
X4864D02*
D03*
X6509Y2110D02*
D03*
X4864Y1917D02*
D03*
X6509Y2015D02*
D03*
D37*
X1340Y468D02*
D03*
X1600D02*
D03*
X1470D02*
D03*
X1405D02*
D03*
X1535D02*
D03*
D38*
X7516Y13078D02*
D03*
X5448Y13903D02*
D03*
Y13968D02*
D03*
Y14033D02*
D03*
X6206Y13505D02*
D03*
X6906Y13506D02*
D03*
X6206Y13700D02*
D03*
Y13635D02*
D03*
Y13570D02*
D03*
X6906Y13701D02*
D03*
Y13636D02*
D03*
Y13571D02*
D03*
X5448Y14098D02*
D03*
X5128D02*
D03*
Y14033D02*
D03*
Y13968D02*
D03*
Y13903D02*
D03*
X2505Y13039D02*
D03*
X7836Y13078D02*
D03*
Y13143D02*
D03*
Y13208D02*
D03*
Y13273D02*
D03*
X7226Y13506D02*
D03*
Y13571D02*
D03*
Y13636D02*
D03*
Y13701D02*
D03*
X6526Y13505D02*
D03*
Y13570D02*
D03*
Y13635D02*
D03*
Y13700D02*
D03*
X7516Y13273D02*
D03*
Y13208D02*
D03*
Y13143D02*
D03*
X2505Y13234D02*
D03*
Y13169D02*
D03*
Y13104D02*
D03*
X2825Y13039D02*
D03*
Y13104D02*
D03*
Y13169D02*
D03*
Y13234D02*
D03*
D39*
X8047Y13703D02*
D03*
X7849Y13800D02*
D03*
X8625Y2374D02*
D03*
X8605Y3236D02*
D03*
X8625Y2184D02*
D03*
X8605Y3046D02*
D03*
X8407Y3143D02*
D03*
X8428Y2280D02*
D03*
X8047Y13893D02*
D03*
D40*
X4272Y13716D02*
D03*
Y13816D02*
D03*
Y13766D02*
D03*
X3885D02*
D03*
X4272Y13666D02*
D03*
X3885Y13566D02*
D03*
X4272Y13616D02*
D03*
X3885Y13666D02*
D03*
Y13716D02*
D03*
Y13816D02*
D03*
X4272Y13566D02*
D03*
X3885Y13616D02*
D03*
D41*
X7160Y13882D02*
D03*
X6452Y13894D02*
D03*
X6111Y13093D02*
D03*
X6870D02*
D03*
X6018Y13291D02*
D03*
X6777D02*
D03*
X6262Y13894D02*
D03*
X6970Y13882D02*
D03*
X5921Y13093D02*
D03*
X6680D02*
D03*
X6359Y14092D02*
D03*
X7067Y14079D02*
D03*
D42*
X5528Y13416D02*
D03*
X5593D02*
D03*
X5658D02*
D03*
X5723D02*
D03*
Y13736D02*
D03*
X5658D02*
D03*
X5593D02*
D03*
X5528D02*
D03*
D43*
X5616Y13068D02*
D03*
X5026D02*
D03*
D44*
X2216Y13896D02*
D03*
X4910Y13895D02*
D03*
X2216Y13446D02*
D03*
X4910Y13445D02*
D03*
D45*
X2529Y13693D02*
D03*
X2944D02*
D03*
D46*
X9538Y13264D02*
D03*
X9700D02*
D03*
D47*
X4755Y13029D02*
D03*
Y12759D02*
D03*
D48*
X7601Y13806D02*
D03*
Y14086D02*
D03*
D49*
X8873Y2421D02*
D03*
X8849Y3314D02*
D03*
X8873Y2136D02*
D03*
X8849Y3029D02*
D03*
D50*
X1234Y1325D02*
D03*
X1299D02*
D03*
X1429Y1746D02*
D03*
X1364D02*
D03*
X1234D02*
D03*
X1299D02*
D03*
X1429Y1325D02*
D03*
X1364D02*
D03*
D51*
X1719Y1338D02*
D03*
X1669D02*
D03*
X1769Y1759D02*
D03*
X1719D02*
D03*
X1819D02*
D03*
X1869Y1338D02*
D03*
X1669Y1759D02*
D03*
X1819Y1338D02*
D03*
X1769D02*
D03*
X1869Y1759D02*
D03*
D52*
X7831Y10173D02*
D03*
X6623Y2697D02*
D03*
X6816Y2631D02*
D03*
X7638Y10239D02*
D03*
X6623Y2631D02*
D03*
X7831Y10239D02*
D03*
X7638Y10107D02*
D03*
X6816Y2763D02*
D03*
X7831Y10107D02*
D03*
X6623Y2763D02*
D03*
D54*
X1374Y161D02*
D03*
X1567D02*
D03*
D55*
X6724Y5504D02*
D03*
D56*
X7424Y3326D02*
D03*
X7425Y2473D02*
D03*
D57*
X1463Y727D02*
D03*
Y810D02*
D03*
X1413Y727D02*
D03*
Y810D02*
D03*
X1613D02*
D03*
X1563D02*
D03*
Y727D02*
D03*
X1613D02*
D03*
D73*
X4896Y8866D02*
D03*
X5716Y7866D02*
D03*
X4896Y6946D02*
D03*
X5716Y8746D02*
D03*
Y8826D02*
D03*
X4896Y9266D02*
D03*
Y7026D02*
D03*
X5716Y7226D02*
D03*
Y7466D02*
D03*
X4896Y7906D02*
D03*
X5716Y8026D02*
D03*
X4896Y8226D02*
D03*
X5716Y8266D02*
D03*
Y8346D02*
D03*
X4896Y8546D02*
D03*
X5716Y8586D02*
D03*
Y8666D02*
D03*
X4896Y8786D02*
D03*
X5716Y8906D02*
D03*
X4896Y9186D02*
D03*
X5716Y8186D02*
D03*
Y8106D02*
D03*
Y7386D02*
D03*
Y7306D02*
D03*
Y9226D02*
D03*
Y9146D02*
D03*
X4896Y9106D02*
D03*
X5716Y9066D02*
D03*
X4896Y9026D02*
D03*
X5716Y8986D02*
D03*
X4896Y8946D02*
D03*
Y8706D02*
D03*
Y8626D02*
D03*
Y8466D02*
D03*
Y8386D02*
D03*
Y8306D02*
D03*
Y8146D02*
D03*
Y8066D02*
D03*
Y7986D02*
D03*
X5716Y7946D02*
D03*
X4896Y7506D02*
D03*
Y7426D02*
D03*
Y7346D02*
D03*
Y7266D02*
D03*
Y7186D02*
D03*
X5716Y7146D02*
D03*
X4896Y7106D02*
D03*
X5716Y7066D02*
D03*
Y6986D02*
D03*
Y6906D02*
D03*
Y8506D02*
D03*
Y8426D02*
D03*
D91*
X1513Y727D02*
D03*
Y810D02*
D03*
D93*
X7786Y5204D02*
D03*
X7696Y5204D02*
D03*
X7785Y5706D02*
D03*
X7702D02*
D03*
X7898Y9747D02*
D03*
X7982D02*
D03*
X7898Y9253D02*
D03*
X7982D02*
D03*
X6086Y7052D02*
D03*
X6002D02*
D03*
Y7814D02*
D03*
X6086D02*
D03*
D94*
X5656Y6621D02*
D03*
Y9551D02*
D03*
D133*
X4078Y13691D02*
D03*
D144*
X2105Y14179D02*
D03*
X2359D02*
D03*
X660Y1473D02*
D03*
Y1727D02*
D03*
Y1219D02*
D03*
X6229Y3256D02*
D03*
Y2748D02*
D03*
Y3002D02*
D03*
X178Y1575D02*
D03*
X5935Y3252D02*
D03*
X178Y1067D02*
D03*
Y1321D02*
D03*
X8867Y4153D02*
D03*
Y3873D02*
D03*
X5935Y2744D02*
D03*
X8613Y4153D02*
D03*
Y3873D02*
D03*
X8359D02*
D03*
Y4153D02*
D03*
X5935Y2998D02*
D03*
D145*
X5356Y12280D02*
D03*
D146*
Y10280D02*
D03*
D147*
X331Y11283D02*
D03*
D148*
X9940Y5931D02*
D03*
Y5114D02*
D03*
Y6185D02*
D03*
Y4860D02*
D03*
D149*
X8288Y9936D02*
D03*
Y9141D02*
D03*
X8005Y5205D02*
D03*
X8259Y5078D02*
D03*
X8005Y5459D02*
D03*
X8259Y5332D02*
D03*
X8005Y5713D02*
D03*
X8259Y5586D02*
D03*
X8005Y5967D02*
D03*
X8259Y5840D02*
D03*
X8288Y10190D02*
D03*
Y8887D02*
D03*
X8259Y6094D02*
D03*
D150*
X9538Y9336D02*
D03*
X9388Y9235D02*
D03*
Y9844D02*
D03*
X9538Y9945D02*
D03*
Y9742D02*
D03*
X9388Y9641D02*
D03*
Y9032D02*
D03*
X9538Y9133D02*
D03*
X9388Y9438D02*
D03*
X9538Y9539D02*
D03*
Y8930D02*
D03*
X9040Y8807D02*
D03*
X8837D02*
D03*
X9040Y10270D02*
D03*
X8837D02*
D03*
D151*
X8005Y4951D02*
D03*
D152*
X9388Y10047D02*
D03*
D153*
X6229Y3510D02*
D03*
X5935Y3506D02*
D03*
X178Y1829D02*
D03*
D154*
X6245Y11004D02*
D03*
Y11258D02*
D03*
Y11512D02*
D03*
X7209Y9985D02*
D03*
Y9731D02*
D03*
X6955Y9477D02*
D03*
Y8715D02*
D03*
X7209Y10239D02*
D03*
X6955Y9985D02*
D03*
Y9731D02*
D03*
X7209Y9477D02*
D03*
X6245Y11766D02*
D03*
Y12020D02*
D03*
Y12274D02*
D03*
Y12528D02*
D03*
X6499Y11766D02*
D03*
Y12274D02*
D03*
Y12528D02*
D03*
Y11258D02*
D03*
X6955Y10239D02*
D03*
Y8969D02*
D03*
X6499Y12020D02*
D03*
X6955Y9223D02*
D03*
X7209D02*
D03*
X6499Y11512D02*
D03*
X7209Y8969D02*
D03*
D155*
X9801Y7314D02*
D03*
X10055Y7187D02*
D03*
Y7695D02*
D03*
X9801Y7568D02*
D03*
Y7822D02*
D03*
X10055Y7441D02*
D03*
Y7949D02*
D03*
D156*
X9801Y8076D02*
D03*
D157*
X9538Y10438D02*
D03*
Y8640D02*
D03*
X9140Y6310D02*
D03*
Y4735D02*
D03*
D158*
X8861Y6844D02*
D03*
Y8419D02*
D03*
D159*
X7896Y1261D02*
D03*
X6945D02*
D03*
X8847D02*
D03*
X4093D02*
D03*
X5043D02*
D03*
X5994D02*
D03*
D160*
X8814Y13209D02*
D03*
D161*
X9848Y12517D02*
D03*
Y10993D02*
D03*
D162*
Y12136D02*
D03*
X7054Y11755D02*
D03*
X1134Y13951D02*
D03*
X7054Y10993D02*
D03*
X9848Y11755D02*
D03*
Y11374D02*
D03*
D163*
X9770Y2506D02*
D03*
Y3522D02*
D03*
Y1998D02*
D03*
Y3014D02*
D03*
Y1490D02*
D03*
D164*
X7054Y12517D02*
D03*
X1642Y13951D02*
D03*
D165*
X8847Y1011D02*
D03*
Y811D02*
D03*
X7896Y1011D02*
D03*
Y811D02*
D03*
X6945Y1011D02*
D03*
Y811D02*
D03*
X5994Y1011D02*
D03*
Y811D02*
D03*
X5043Y1011D02*
D03*
Y811D02*
D03*
X4093Y1011D02*
D03*
Y811D02*
D03*
Y561D02*
D03*
X5043D02*
D03*
X5994D02*
D03*
X7896D02*
D03*
X6945D02*
D03*
X8847D02*
D03*
D166*
X2582Y1673D02*
D03*
X3070D02*
D03*
D167*
X3822Y1568D02*
D03*
Y254D02*
D03*
X4772Y1568D02*
D03*
Y254D02*
D03*
X5723Y1568D02*
D03*
Y254D02*
D03*
X7625Y1568D02*
D03*
Y254D02*
D03*
X6674Y1568D02*
D03*
Y254D02*
D03*
X8576Y1568D02*
D03*
Y254D02*
D03*
D168*
X8334Y13499D02*
D03*
D169*
X8814Y13839D02*
D03*
D170*
X7209Y8715D02*
D03*
X6499Y11004D02*
D03*
D171*
X1228Y489D02*
D03*
X1713D02*
D03*
D172*
X1198Y186D02*
D03*
X1743D02*
D03*
D173*
X9770Y4030D02*
D03*
D174*
X9529Y4951D02*
D03*
Y6094D02*
D03*
D175*
X5397Y5974D02*
D03*
X597D02*
D03*
X5397Y2674D02*
D03*
X597D02*
D03*
D176*
X2916Y9301D02*
D03*
X506D02*
D03*
X5306Y9336D02*
D03*
D177*
X506Y6881D02*
D03*
X2916D02*
D03*
X5306Y6836D02*
D03*
D178*
X9166Y8203D02*
D03*
Y7060D02*
D03*
D179*
X8639Y9038D02*
D03*
Y10039D02*
D03*
D180*
X400Y400D02*
D03*
X9811Y400D02*
D03*
X400Y13992D02*
D03*
X9811Y13992D02*
D03*
M02*
