G04*
G04 #@! TF.GenerationSoftware,Altium Limited,Altium Designer,24.0.1 (36)*
G04*
G04 Layer_Physical_Order=6*
G04 Layer_Color=16603738*
%FSLAX42Y42*%
%MOMM*%
G71*
G04*
G04 #@! TF.SameCoordinates,E1E02590-05F2-4693-A132-99C86EA4FF08*
G04*
G04*
G04 #@! TF.FilePolarity,Positive*
G04*
G01*
G75*
%ADD16C,0.15*%
%ADD23R,0.60X0.75*%
%ADD25R,0.85X0.95*%
%ADD26R,0.75X0.60*%
%ADD33R,0.95X0.85*%
%ADD34R,1.35X1.15*%
%ADD38R,0.81X0.36*%
%ADD39R,0.90X0.90*%
%ADD41R,0.90X0.90*%
%ADD42R,0.36X0.81*%
%ADD48R,1.65X1.20*%
%ADD52R,1.12X0.36*%
%ADD134C,0.25*%
%ADD135C,0.16*%
%ADD136C,0.14*%
%ADD137C,0.38*%
%ADD138C,0.76*%
%ADD139C,0.51*%
%ADD140C,0.16*%
%ADD141C,0.20*%
%ADD142C,1.27*%
%ADD143C,0.12*%
%ADD144C,1.70*%
%ADD145C,1.15*%
%ADD146C,1.65*%
%ADD147C,6.00*%
%ADD148C,1.73*%
%ADD149C,1.53*%
%ADD150C,1.45*%
%ADD151R,1.53X1.53*%
%ADD152R,1.45X1.45*%
%ADD153R,1.70X1.70*%
%ADD154C,1.50*%
%ADD155C,1.41*%
%ADD156R,1.41X1.41*%
%ADD157C,2.36*%
%ADD158C,2.57*%
%ADD159R,1.46X1.46*%
%ADD160O,4.75X2.00*%
%ADD161C,3.00*%
%ADD162C,2.54*%
%ADD163C,2.40*%
%ADD164R,2.54X2.54*%
%ADD165C,1.46*%
%ADD166C,1.20*%
%ADD167C,3.37*%
%ADD168O,2.00X4.50*%
%ADD169R,4.75X2.00*%
%ADD170R,1.50X1.50*%
%ADD171O,1.10X1.60*%
%ADD172O,1.20X2.40*%
G04:AMPARAMS|DCode=173|XSize=2.4mm|YSize=2.4mm|CornerRadius=0.6mm|HoleSize=0mm|Usage=FLASHONLY|Rotation=90.000|XOffset=0mm|YOffset=0mm|HoleType=Round|Shape=RoundedRectangle|*
%AMROUNDEDRECTD173*
21,1,2.40,1.20,0,0,90.0*
21,1,1.20,2.40,0,0,90.0*
1,1,1.20,0.60,0.60*
1,1,1.20,0.60,-0.60*
1,1,1.20,-0.60,-0.60*
1,1,1.20,-0.60,0.60*
%
%ADD173ROUNDEDRECTD173*%
%ADD174C,3.25*%
%ADD175C,2.70*%
%ADD176C,1.10*%
%ADD177C,1.60*%
%ADD178C,3.51*%
%ADD179C,1.63*%
%ADD180C,6.35*%
%ADD181C,0.56*%
%ADD184C,0.25*%
%ADD185R,1.35X0.90*%
%ADD186R,2.61X1.56*%
%ADD187R,0.25X0.28*%
%ADD188R,0.28X0.25*%
%ADD189R,2.74X2.16*%
%ADD190R,2.49X1.50*%
%ADD191R,3.51X2.07*%
%ADD192R,0.33X0.91*%
%ADD193R,0.80X2.70*%
%ADD194R,1.15X1.35*%
%ADD195O,1.40X0.45*%
%ADD196R,0.36X0.86*%
%ADD197R,1.27X1.78*%
%ADD198R,2.26X1.88*%
%ADD199R,3.00X1.40*%
%ADD200R,1.05X1.00*%
%ADD201R,0.55X1.40*%
G04:AMPARAMS|DCode=202|XSize=1.93mm|YSize=0.61mm|CornerRadius=0.31mm|HoleSize=0mm|Usage=FLASHONLY|Rotation=0.000|XOffset=0mm|YOffset=0mm|HoleType=Round|Shape=RoundedRectangle|*
%AMROUNDEDRECTD202*
21,1,1.93,0.00,0,0,0.0*
21,1,1.32,0.61,0,0,0.0*
1,1,0.61,0.66,0.00*
1,1,0.61,-0.66,0.00*
1,1,0.61,-0.66,0.00*
1,1,0.61,0.66,0.00*
%
%ADD202ROUNDEDRECTD202*%
%ADD203R,1.93X0.61*%
%ADD204R,5.10X2.35*%
%ADD205R,0.80X0.55*%
%ADD206R,1.10X0.70*%
%ADD207R,0.78X1.05*%
%ADD208R,0.93X0.90*%
%ADD209R,1.50X6.00*%
%ADD210R,1.14X1.47*%
%ADD211R,3.15X3.15*%
G04:AMPARAMS|DCode=212|XSize=1.05mm|YSize=0.34mm|CornerRadius=0.04mm|HoleSize=0mm|Usage=FLASHONLY|Rotation=270.000|XOffset=0mm|YOffset=0mm|HoleType=Round|Shape=RoundedRectangle|*
%AMROUNDEDRECTD212*
21,1,1.05,0.25,0,0,270.0*
21,1,0.97,0.34,0,0,270.0*
1,1,0.09,-0.13,-0.48*
1,1,0.09,-0.13,0.48*
1,1,0.09,0.13,0.48*
1,1,0.09,0.13,-0.48*
%
%ADD212ROUNDEDRECTD212*%
%ADD213R,1.20X1.20*%
%ADD214R,1.50X0.60*%
%ADD215O,1.95X0.65*%
G04:AMPARAMS|DCode=216|XSize=0.34mm|YSize=1.05mm|CornerRadius=0.04mm|HoleSize=0mm|Usage=FLASHONLY|Rotation=270.000|XOffset=0mm|YOffset=0mm|HoleType=Round|Shape=RoundedRectangle|*
%AMROUNDEDRECTD216*
21,1,0.34,0.97,0,0,270.0*
21,1,0.25,1.05,0,0,270.0*
1,1,0.09,-0.48,-0.13*
1,1,0.09,-0.48,0.13*
1,1,0.09,0.48,0.13*
1,1,0.09,0.48,-0.13*
%
%ADD216ROUNDEDRECTD216*%
%ADD217R,1.20X1.65*%
%ADD218R,2.70X5.60*%
%ADD219R,0.96X2.72*%
%ADD220R,1.70X0.60*%
%ADD221R,1.90X1.10*%
%ADD222R,2.71X3.35*%
%ADD223R,3.23X2.31*%
%ADD224R,2.20X1.05*%
%ADD225R,3.33X0.70*%
%ADD226R,2.80X0.86*%
%ADD227R,1.83X1.14*%
%ADD228R,5.00X5.00*%
%ADD229C,0.30*%
G36*
X2531Y9445D02*
Y9202D01*
X2493Y9164D01*
X1426D01*
X1413Y9176D01*
Y9412D01*
X1426Y9425D01*
X1965D01*
X1985Y9445D01*
X2220D01*
X2251Y9476D01*
X2500D01*
X2531Y9445D01*
D02*
G37*
G36*
X4534Y9148D02*
X4519Y9133D01*
X4286D01*
X4267Y9153D01*
Y9416D01*
X4534D01*
Y9148D01*
D02*
G37*
G36*
X2383Y9029D02*
Y8904D01*
X2358Y8879D01*
X2073D01*
X2056Y8896D01*
Y9104D01*
X2383D01*
Y9029D01*
D02*
G37*
G36*
X2625Y8522D02*
Y8295D01*
X2294D01*
Y8313D01*
Y8518D01*
X2332Y8556D01*
X2591D01*
X2625Y8522D01*
D02*
G37*
G36*
X2725Y8178D02*
X3006D01*
X3013Y8172D01*
Y7989D01*
X3001Y7977D01*
X2695D01*
X2660Y7942D01*
X2009D01*
X1987Y7965D01*
Y8219D01*
X2003Y8235D01*
X2668D01*
X2725Y8178D01*
D02*
G37*
G36*
X2626Y7864D02*
Y7660D01*
X2588Y7622D01*
X2329D01*
X2296Y7655D01*
Y7894D01*
X2626D01*
Y7864D01*
D02*
G37*
G36*
X3904Y7901D02*
Y7571D01*
X3879Y7546D01*
X3358D01*
X3333Y7571D01*
Y7890D01*
X3358Y7915D01*
X3371Y7927D01*
X3879D01*
X3904Y7901D01*
D02*
G37*
G36*
X4196Y7664D02*
Y7462D01*
X4171D01*
X4162Y7460D01*
X3976D01*
Y7673D01*
X4188D01*
X4196Y7664D01*
D02*
G37*
G36*
X4450Y7400D02*
Y7157D01*
X4412Y7119D01*
X3345D01*
X3333Y7132D01*
Y7368D01*
X3345Y7380D01*
X3884D01*
X3904Y7400D01*
X4140D01*
X4171Y7431D01*
X4420D01*
X4450Y7400D01*
D02*
G37*
G36*
X4303Y6984D02*
Y6860D01*
X4277Y6834D01*
X3993D01*
X3976Y6852D01*
Y7059D01*
X4303D01*
Y6984D01*
D02*
G37*
G36*
X7322Y6808D02*
Y6407D01*
X7322Y6407D01*
Y6406D01*
X7322Y6406D01*
Y6195D01*
X7313D01*
X7297Y6188D01*
X7292Y6183D01*
X7284Y6177D01*
X7275Y6183D01*
X7270Y6188D01*
X7254Y6195D01*
X7237D01*
X7221Y6188D01*
X7209Y6176D01*
X7202Y6160D01*
Y6143D01*
X7209Y6127D01*
X7221Y6115D01*
X7237Y6108D01*
X7254D01*
X7270Y6115D01*
X7275Y6120D01*
X7284Y6126D01*
X7292Y6120D01*
X7297Y6115D01*
X7310Y6110D01*
X7311Y6108D01*
X7313Y6100D01*
X7313Y6096D01*
X7304Y6087D01*
X7297Y6071D01*
Y6054D01*
X7304Y6038D01*
X7309Y6032D01*
X7315Y6024D01*
X7309Y6016D01*
X7304Y6011D01*
X7297Y5995D01*
Y5978D01*
X7304Y5962D01*
X7316Y5949D01*
X7332Y5943D01*
X7349D01*
X7365Y5949D01*
X7377Y5962D01*
X7382Y5974D01*
X7491D01*
Y5928D01*
X7493Y5917D01*
X7497Y5912D01*
Y5877D01*
X7483Y5862D01*
X7376D01*
Y5871D01*
X7369Y5887D01*
X7357Y5899D01*
X7341Y5905D01*
X7324D01*
X7308Y5899D01*
X7296Y5887D01*
X7290Y5871D01*
Y5862D01*
X7112D01*
X7076Y5898D01*
Y6041D01*
X7089Y6046D01*
X7103Y6040D01*
X7120D01*
X7136Y6047D01*
X7148Y6059D01*
X7155Y6075D01*
Y6092D01*
X7148Y6108D01*
X7136Y6120D01*
X7120Y6126D01*
X7103D01*
X7089Y6121D01*
X7076Y6125D01*
Y6395D01*
X7078Y6397D01*
X7085Y6412D01*
Y6430D01*
X7078Y6446D01*
X7066Y6458D01*
X7058Y6461D01*
Y6625D01*
X7033Y6650D01*
X6911D01*
X6888Y6627D01*
Y6541D01*
X6888Y6540D01*
X6885Y6525D01*
Y6514D01*
X6878Y6498D01*
Y6481D01*
X6885Y6465D01*
X6888Y6462D01*
Y6386D01*
X6868Y6365D01*
X6794D01*
X6775Y6384D01*
Y6598D01*
X6736Y6637D01*
X6652D01*
X6622Y6607D01*
Y6403D01*
X6620Y6390D01*
Y6389D01*
X6589Y6358D01*
X6520D01*
X6510Y6368D01*
Y6551D01*
X6476Y6585D01*
X6355D01*
X6335Y6565D01*
Y6352D01*
X6334D01*
Y6276D01*
X6312Y6254D01*
X6230D01*
X6213Y6271D01*
Y6444D01*
X6213D01*
Y6545D01*
X6211D01*
X6202Y6553D01*
X6086D01*
X6074Y6541D01*
Y6216D01*
X6037Y6179D01*
X5881D01*
Y6275D01*
Y6390D01*
X5781D01*
Y6373D01*
X5763D01*
X5756Y6375D01*
X5739D01*
X5723Y6369D01*
X5711Y6357D01*
X5705Y6341D01*
Y6324D01*
X5711Y6308D01*
X5723Y6296D01*
X5739Y6289D01*
X5756D01*
X5764Y6292D01*
X5781D01*
Y6160D01*
X5792D01*
Y6140D01*
X5773Y6120D01*
Y5725D01*
X5819Y5679D01*
X6261D01*
X6447Y5494D01*
X6461D01*
X6467Y5480D01*
X6479Y5468D01*
X6495Y5461D01*
X6512D01*
X6528Y5468D01*
X6540Y5480D01*
X6546Y5494D01*
X6681D01*
X6687Y5480D01*
X6699Y5468D01*
X6715Y5461D01*
X6732D01*
X6748Y5468D01*
X6760Y5480D01*
X6766Y5494D01*
X6901D01*
X6907Y5480D01*
X6919Y5468D01*
X6935Y5461D01*
X6952D01*
X6968Y5468D01*
X6980Y5480D01*
X6986Y5494D01*
X7144D01*
X7148Y5490D01*
X7164Y5483D01*
X7181D01*
X7194Y5489D01*
X7202Y5486D01*
X7208Y5483D01*
X7213Y5469D01*
X7219Y5464D01*
X7224Y5455D01*
X7219Y5447D01*
X7213Y5442D01*
X7207Y5426D01*
Y5409D01*
X7213Y5393D01*
X7225Y5381D01*
X7241Y5374D01*
X7259D01*
X7274Y5381D01*
X7287Y5393D01*
X7293Y5409D01*
Y5426D01*
X7287Y5442D01*
X7281Y5447D01*
X7275Y5455D01*
X7281Y5464D01*
X7287Y5469D01*
X7293Y5485D01*
Y5494D01*
X7327D01*
Y5485D01*
X7333Y5469D01*
X7346Y5457D01*
X7361Y5450D01*
X7379D01*
X7394Y5457D01*
X7407Y5469D01*
X7409Y5475D01*
X7428Y5494D01*
X7450D01*
Y5483D01*
X7550D01*
Y5494D01*
X7660D01*
X7668Y5481D01*
X7665Y5475D01*
Y5457D01*
X7672Y5442D01*
X7684Y5429D01*
X7700Y5423D01*
X7717D01*
X7733Y5429D01*
X7741Y5438D01*
X7754Y5432D01*
Y5337D01*
X7681D01*
X7673Y5328D01*
X7658Y5332D01*
X7654Y5342D01*
X7642Y5354D01*
X7626Y5360D01*
X7609D01*
X7593Y5354D01*
X7581Y5342D01*
X7575Y5326D01*
Y5309D01*
X7581Y5293D01*
X7587Y5287D01*
X7592Y5279D01*
X7587Y5271D01*
X7581Y5266D01*
X7575Y5250D01*
Y5233D01*
X7581Y5217D01*
X7585Y5212D01*
X7593Y5204D01*
X7585Y5196D01*
X7581Y5192D01*
X7575Y5176D01*
Y5159D01*
X7581Y5143D01*
X7587Y5137D01*
X7592Y5129D01*
X7587Y5121D01*
X7581Y5116D01*
X7575Y5100D01*
Y5083D01*
X7581Y5067D01*
X7593Y5054D01*
X7609Y5048D01*
X7615Y5035D01*
X7613Y5030D01*
Y5013D01*
X7620Y4997D01*
X7625Y4992D01*
X7631Y4984D01*
X7625Y4976D01*
X7620Y4970D01*
X7613Y4954D01*
Y4937D01*
X7620Y4921D01*
X7626Y4915D01*
X7603Y4892D01*
X7388D01*
X7376Y4898D01*
X7359D01*
X7346Y4892D01*
X7310D01*
X7299Y4903D01*
X7283Y4910D01*
X7266D01*
X7250Y4903D01*
X7239Y4892D01*
X7236D01*
X7198Y4930D01*
Y4944D01*
X7192Y4960D01*
X7186Y4965D01*
X7180Y4974D01*
X7186Y4982D01*
X7192Y4987D01*
X7198Y5003D01*
Y5020D01*
X7192Y5036D01*
X7179Y5048D01*
X7164Y5055D01*
X7146D01*
X7131Y5048D01*
X7118Y5036D01*
X7116Y5030D01*
X7101Y5027D01*
X7048Y5080D01*
X6969D01*
X6968Y5082D01*
X6956Y5094D01*
X6940Y5100D01*
X6923D01*
X6907Y5094D01*
X6895Y5082D01*
X6894Y5080D01*
X6878D01*
X6807Y5009D01*
Y4879D01*
X6728Y4801D01*
X5286D01*
X5179Y4907D01*
Y5138D01*
X5123Y5194D01*
X4724D01*
X4711Y5207D01*
Y5270D01*
Y5499D01*
X4719D01*
X4724Y5504D01*
X5164D01*
X5181Y5522D01*
Y6177D01*
X5167Y6192D01*
X5131D01*
X5117Y6205D01*
X5014D01*
X5000Y6219D01*
Y6689D01*
X5169Y6859D01*
X5189D01*
X5195Y6850D01*
Y6821D01*
X5203Y6793D01*
X5217Y6768D01*
X5238Y6747D01*
X5263Y6733D01*
X5291Y6725D01*
X5320D01*
X5348Y6733D01*
X5374Y6747D01*
X5394Y6768D01*
X5409Y6793D01*
X5416Y6821D01*
Y6850D01*
X5423Y6859D01*
X7271D01*
X7322Y6808D01*
D02*
G37*
G36*
X4647Y6502D02*
Y6179D01*
X4583Y6116D01*
Y5982D01*
X4582Y5982D01*
X4407D01*
X4369Y6019D01*
Y6502D01*
X4392Y6525D01*
X4489D01*
X4489Y6525D01*
X4499Y6527D01*
X4500Y6528D01*
X4621D01*
X4647Y6502D01*
D02*
G37*
G36*
X4309Y6397D02*
Y6193D01*
X4183D01*
X4140Y6236D01*
X4140Y6413D01*
X4153Y6426D01*
X4280D01*
X4309Y6397D01*
D02*
G37*
G36*
X4864Y6401D02*
Y6312D01*
X4838Y6286D01*
Y6206D01*
X4824Y6192D01*
X4709D01*
Y6408D01*
X4727Y6426D01*
X4838D01*
X4864Y6401D01*
D02*
G37*
G36*
X5093Y5697D02*
Y5570D01*
X5064Y5541D01*
X4860D01*
Y5667D01*
X4903Y5710D01*
X5081Y5710D01*
X5093Y5697D01*
D02*
G37*
G36*
X4595Y5555D02*
X4630Y5519D01*
Y5222D01*
X4608Y5200D01*
X4528D01*
X4521Y5207D01*
Y5560D01*
X4534Y5573D01*
Y5693D01*
X4595D01*
Y5555D01*
D02*
G37*
G36*
X5095Y5122D02*
Y5010D01*
X5070Y4985D01*
X4981D01*
X4955Y5010D01*
X4875D01*
X4861Y5025D01*
Y5140D01*
X5077D01*
X5095Y5122D01*
D02*
G37*
G36*
X4508Y4293D02*
Y3632D01*
X4483Y3607D01*
X3975D01*
X3924Y3658D01*
Y4318D01*
X3962Y4356D01*
X4445D01*
X4508Y4293D01*
D02*
G37*
G36*
X4432Y2172D02*
Y1916D01*
X4421Y1906D01*
X3987D01*
X3962Y1931D01*
Y2160D01*
X3987Y2185D01*
X4419D01*
X4432Y2172D01*
D02*
G37*
G36*
X7300Y2212D02*
Y1916D01*
X7289Y1906D01*
X6946Y1906D01*
X6921Y1930D01*
Y2210D01*
X6959Y2248D01*
X7264D01*
X7300Y2212D01*
D02*
G37*
G36*
X6344Y2172D02*
Y1916D01*
X6333Y1906D01*
X5867Y1906D01*
X5842Y1930D01*
Y2159D01*
X5868Y2185D01*
X6331D01*
X6344Y2172D01*
D02*
G37*
G36*
X9309Y2146D02*
Y1918D01*
X9283Y1892D01*
X8852D01*
X8839Y1905D01*
Y2161D01*
X8850Y2172D01*
X9283D01*
X9309Y2146D01*
D02*
G37*
G36*
X8337Y2162D02*
X8333Y2148D01*
X8324Y2144D01*
X8311Y2132D01*
X8305Y2116D01*
Y2099D01*
X8311Y2083D01*
X8324Y2071D01*
X8340Y2064D01*
X8353D01*
Y1918D01*
X8327Y1892D01*
X7896D01*
X7883Y1905D01*
Y2161D01*
X7894Y2172D01*
X8327D01*
X8337Y2162D01*
D02*
G37*
G36*
X5485Y2146D02*
Y1918D01*
X5459Y1892D01*
X5028D01*
X5015Y1905D01*
Y2098D01*
X5016Y2099D01*
Y2117D01*
X5015Y2118D01*
Y2161D01*
X5026Y2172D01*
X5459D01*
X5485Y2146D01*
D02*
G37*
G36*
X705Y10567D02*
Y10340D01*
X375D01*
Y10358D01*
Y10562D01*
X413Y10600D01*
X672D01*
X705Y10567D01*
D02*
G37*
G36*
X806Y10223D02*
X1087D01*
X1093Y10216D01*
Y10034D01*
X1081Y10022D01*
X775D01*
X740Y9986D01*
X89D01*
X67Y10009D01*
Y10263D01*
X84Y10280D01*
X749D01*
X806Y10223D01*
D02*
G37*
G36*
X1985Y9946D02*
Y9615D01*
X1959Y9590D01*
X1438D01*
X1413Y9615D01*
Y9934D01*
X1438Y9960D01*
X1451Y9971D01*
X1774D01*
Y9960D01*
X1777Y9942D01*
X1787Y9927D01*
X1803Y9917D01*
X1820Y9913D01*
X1838Y9917D01*
X1853Y9927D01*
X1863Y9942D01*
X1867Y9960D01*
Y9971D01*
X1959D01*
X1985Y9946D01*
D02*
G37*
G36*
X707Y9909D02*
Y9704D01*
X669Y9666D01*
X410D01*
X376Y9700D01*
Y9926D01*
X707D01*
Y9909D01*
D02*
G37*
G36*
X2277Y9709D02*
Y9507D01*
X2251D01*
X2242Y9505D01*
X2056D01*
Y9717D01*
X2268D01*
X2277Y9709D01*
D02*
G37*
G36*
X2748Y11685D02*
Y11481D01*
X2710Y11443D01*
X2451D01*
X2417Y11476D01*
Y11703D01*
X2748D01*
Y11685D01*
D02*
G37*
G36*
X2847Y11999D02*
X3128D01*
X3134Y11993D01*
Y11810D01*
X3122Y11798D01*
X2816D01*
X2781Y11763D01*
X2131D01*
X2108Y11786D01*
Y12040D01*
X2125Y12056D01*
X2790D01*
X2847Y11999D01*
D02*
G37*
G36*
X3213Y13818D02*
Y13551D01*
X3200Y13538D01*
X3093D01*
Y13536D01*
X2824D01*
Y13538D01*
X2798D01*
X2575Y13315D01*
X2566Y13313D01*
X2561Y13310D01*
X2550Y13317D01*
X2551Y13322D01*
X2547Y13339D01*
X2538Y13353D01*
X2524Y13363D01*
X2507Y13366D01*
X2490Y13363D01*
X2476Y13353D01*
X2466Y13339D01*
X2463Y13322D01*
X2466Y13305D01*
X2476Y13291D01*
X2478Y13290D01*
Y13267D01*
X2446D01*
Y13191D01*
X2547D01*
Y13012D01*
X2514Y12979D01*
X2375D01*
X2248Y13106D01*
Y13383D01*
X2707Y13843D01*
X3187Y13843D01*
X3213Y13818D01*
D02*
G37*
G36*
X2838Y12581D02*
X2818Y12560D01*
X2651D01*
X2616Y12595D01*
Y12903D01*
X2632Y12919D01*
X2838D01*
Y12581D01*
D02*
G37*
G36*
X3060Y13259D02*
Y12544D01*
X3026Y12509D01*
X2924D01*
X2898Y12535D01*
Y12926D01*
X2857Y12967D01*
X2603D01*
X2578Y12992D01*
Y13284D01*
X3035D01*
X3060Y13259D01*
D02*
G37*
G36*
X2746Y12343D02*
Y12116D01*
X2416D01*
Y12134D01*
Y12338D01*
X2454Y12377D01*
X2713D01*
X2746Y12343D01*
D02*
G37*
G36*
X7975Y13843D02*
Y13170D01*
X7709Y12903D01*
X6439D01*
X6299Y13043D01*
Y13449D01*
X6375Y13525D01*
X6997D01*
X7417Y13945D01*
X7874D01*
X7975Y13843D01*
D02*
G37*
G36*
X9220Y12586D02*
Y12128D01*
X9195Y12103D01*
X8979D01*
X8953Y12128D01*
Y12586D01*
X8979Y12611D01*
X9195D01*
X9220Y12586D01*
D02*
G37*
G36*
X10020Y12713D02*
Y12031D01*
X9952Y11963D01*
X9421D01*
X9390Y11994D01*
Y12086D01*
X9347Y12128D01*
Y12725D01*
X9372Y12751D01*
X9982D01*
X10020Y12713D01*
D02*
G37*
G36*
X4026Y11722D02*
Y11392D01*
X4000Y11366D01*
X3480D01*
X3454Y11392D01*
Y11711D01*
X3480Y11736D01*
X3492Y11747D01*
X3815D01*
Y11736D01*
X3818Y11718D01*
X3829Y11703D01*
X3844Y11693D01*
X3862Y11690D01*
X3879Y11693D01*
X3894Y11703D01*
X3905Y11718D01*
X3908Y11736D01*
Y11747D01*
X4000D01*
X4026Y11722D01*
D02*
G37*
G36*
X4318Y11485D02*
Y11283D01*
X4292D01*
X4283Y11281D01*
X4097D01*
Y11493D01*
X4309D01*
X4318Y11485D01*
D02*
G37*
G36*
X4572Y11221D02*
Y10978D01*
X4534Y10940D01*
X3467D01*
X3454Y10953D01*
Y11189D01*
X3467Y11201D01*
X4006D01*
X4026Y11221D01*
X4262D01*
X4292Y11252D01*
X4541D01*
X4572Y11221D01*
D02*
G37*
G36*
X4424Y10805D02*
Y10681D01*
X4399Y10655D01*
X4115D01*
X4097Y10673D01*
Y10880D01*
X4424D01*
Y10805D01*
D02*
G37*
G36*
X7594Y11696D02*
Y10503D01*
X7575Y10484D01*
X7164D01*
Y11643D01*
X7177Y11655D01*
X7194Y11681D01*
X7206Y11709D01*
X7211Y11735D01*
X7556D01*
X7594Y11696D01*
D02*
G37*
G36*
X8350Y11680D02*
Y10840D01*
X8255Y10744D01*
Y10514D01*
X8212Y10471D01*
X7816D01*
X7798Y10490D01*
Y11729D01*
X7816Y11747D01*
X8283D01*
X8350Y11680D01*
D02*
G37*
G36*
X4534Y10554D02*
Y10236D01*
X4597Y10173D01*
X4832D01*
X4863Y10142D01*
Y9990D01*
X4562D01*
X4452Y10099D01*
X4306D01*
Y10171D01*
X4260Y10218D01*
Y10541D01*
X4270Y10550D01*
X4488D01*
X4503Y10553D01*
X4506Y10554D01*
X4521Y10564D01*
X4522Y10565D01*
X4534Y10554D01*
D02*
G37*
G36*
X5108Y9776D02*
X5246D01*
X5255Y9768D01*
Y9526D01*
X5238Y9509D01*
X4689D01*
X4673Y9525D01*
Y9652D01*
X4639Y9686D01*
X4611D01*
X4610Y9689D01*
X4606Y9695D01*
X4599Y9700D01*
X4591Y9702D01*
X4267D01*
Y9890D01*
X4286Y9906D01*
X4978D01*
X5108Y9776D01*
D02*
G37*
%LPC*%
G36*
X7250Y6467D02*
X7233D01*
X7217Y6460D01*
X7212Y6455D01*
X7204Y6449D01*
X7195Y6455D01*
X7190Y6460D01*
X7174Y6467D01*
X7157D01*
X7141Y6460D01*
X7129Y6448D01*
X7122Y6432D01*
Y6415D01*
X7129Y6399D01*
X7141Y6387D01*
X7157Y6380D01*
X7174D01*
X7190Y6387D01*
X7195Y6392D01*
X7204Y6398D01*
X7212Y6392D01*
X7217Y6387D01*
X7233Y6380D01*
X7250D01*
X7266Y6387D01*
X7278Y6399D01*
X7285Y6415D01*
Y6432D01*
X7278Y6448D01*
X7266Y6460D01*
X7250Y6467D01*
D02*
G37*
G36*
X5413Y6140D02*
X5381D01*
X5349Y6133D01*
X5319Y6121D01*
X5291Y6103D01*
X5268Y6080D01*
X5250Y6053D01*
X5238Y6022D01*
X5231Y5990D01*
Y5958D01*
X5238Y5926D01*
X5250Y5896D01*
X5268Y5869D01*
X5291Y5846D01*
X5319Y5828D01*
X5349Y5815D01*
X5381Y5809D01*
X5413D01*
X5445Y5815D01*
X5475Y5828D01*
X5502Y5846D01*
X5526Y5869D01*
X5544Y5896D01*
X5556Y5926D01*
X5562Y5958D01*
Y5990D01*
X5556Y6022D01*
X5544Y6053D01*
X5526Y6080D01*
X5502Y6103D01*
X5475Y6121D01*
X5445Y6133D01*
X5413Y6140D01*
D02*
G37*
G36*
X5983Y5528D02*
X5883D01*
Y5510D01*
X5843D01*
X5827Y5517D01*
X5810D01*
X5794Y5510D01*
X5782Y5498D01*
X5775Y5482D01*
Y5465D01*
X5782Y5449D01*
X5794Y5437D01*
X5810Y5430D01*
X5820D01*
X5822Y5430D01*
X5883D01*
Y5412D01*
X5983D01*
Y5528D01*
D02*
G37*
G36*
X6136Y5551D02*
X6035D01*
Y5435D01*
Y5320D01*
X6044D01*
Y5302D01*
X6040Y5292D01*
Y5275D01*
X6046Y5259D01*
X6059Y5247D01*
X6074Y5240D01*
X6092D01*
X6108Y5247D01*
X6120Y5259D01*
X6126Y5275D01*
Y5292D01*
X6124Y5296D01*
Y5320D01*
X6136D01*
Y5453D01*
X6159D01*
X6166Y5450D01*
X6183D01*
X6199Y5456D01*
X6211Y5468D01*
X6218Y5484D01*
Y5501D01*
X6211Y5517D01*
X6199Y5529D01*
X6183Y5536D01*
X6166D01*
X6159Y5533D01*
X6136D01*
Y5551D01*
D02*
G37*
G36*
X7324Y5303D02*
X7306D01*
X7291Y5297D01*
X7278Y5285D01*
X7277Y5281D01*
X7265Y5275D01*
X7262Y5276D01*
X7249Y5281D01*
X7232D01*
X7216Y5275D01*
X7204Y5262D01*
X7197Y5247D01*
Y5229D01*
X7204Y5213D01*
X7209Y5208D01*
X7215Y5200D01*
X7209Y5192D01*
X7204Y5186D01*
X7197Y5170D01*
Y5153D01*
X7204Y5137D01*
X7216Y5125D01*
X7232Y5119D01*
X7249D01*
X7265Y5125D01*
X7277Y5137D01*
X7284Y5153D01*
Y5170D01*
X7277Y5186D01*
X7272Y5192D01*
X7266Y5200D01*
X7272Y5208D01*
X7277Y5213D01*
X7279Y5217D01*
X7291Y5224D01*
X7294Y5222D01*
X7306Y5217D01*
X7324D01*
X7339Y5224D01*
X7352Y5236D01*
X7358Y5252D01*
Y5269D01*
X7352Y5285D01*
X7339Y5297D01*
X7324Y5303D01*
D02*
G37*
G36*
X5982Y5288D02*
X5882D01*
Y5271D01*
X5852D01*
X5850Y5273D01*
X5848Y5274D01*
X5841Y5282D01*
X5825Y5288D01*
X5808D01*
X5792Y5282D01*
X5780Y5270D01*
X5773Y5254D01*
Y5236D01*
X5780Y5221D01*
X5792Y5208D01*
X5808Y5202D01*
X5820Y5194D01*
X5836Y5190D01*
X5882D01*
Y5156D01*
X5844D01*
X5831Y5161D01*
X5813D01*
X5797Y5155D01*
X5785Y5143D01*
X5779Y5127D01*
Y5109D01*
X5785Y5094D01*
X5797Y5081D01*
X5813Y5075D01*
X5831D01*
X5832Y5075D01*
X5882D01*
Y5058D01*
X5982D01*
Y5173D01*
Y5288D01*
D02*
G37*
G36*
X7131Y5413D02*
X7113D01*
X7097Y5406D01*
X7085Y5394D01*
X7079Y5378D01*
Y5361D01*
X7085Y5345D01*
X7091Y5340D01*
X7096Y5331D01*
X7091Y5323D01*
X7085Y5318D01*
X7079Y5302D01*
Y5285D01*
X7085Y5269D01*
X7097Y5257D01*
X7113Y5250D01*
X7131D01*
X7146Y5257D01*
X7159Y5269D01*
X7165Y5285D01*
Y5302D01*
X7159Y5318D01*
X7153Y5323D01*
X7147Y5331D01*
X7153Y5340D01*
X7159Y5345D01*
X7165Y5361D01*
Y5378D01*
X7159Y5394D01*
X7146Y5406D01*
X7131Y5413D01*
D02*
G37*
G36*
X6952Y5316D02*
X6935D01*
X6919Y5309D01*
X6907Y5297D01*
X6900Y5281D01*
Y5264D01*
X6907Y5248D01*
X6919Y5236D01*
X6935Y5230D01*
X6952D01*
X6968Y5236D01*
X6980Y5248D01*
X6987Y5264D01*
Y5281D01*
X6980Y5297D01*
X6968Y5309D01*
X6952Y5316D01*
D02*
G37*
G36*
X6732D02*
X6715D01*
X6699Y5309D01*
X6687Y5297D01*
X6680Y5281D01*
Y5264D01*
X6687Y5248D01*
X6699Y5236D01*
X6715Y5230D01*
X6732D01*
X6748Y5236D01*
X6760Y5248D01*
X6767Y5264D01*
Y5281D01*
X6760Y5297D01*
X6748Y5309D01*
X6732Y5316D01*
D02*
G37*
G36*
X6512D02*
X6495D01*
X6479Y5309D01*
X6467Y5297D01*
X6460Y5281D01*
Y5264D01*
X6467Y5248D01*
X6479Y5236D01*
X6495Y5230D01*
X6512D01*
X6528Y5236D01*
X6540Y5248D01*
X6547Y5264D01*
Y5281D01*
X6540Y5297D01*
X6528Y5309D01*
X6512Y5316D01*
D02*
G37*
G36*
X6297Y5031D02*
X6181D01*
Y5021D01*
X6150D01*
X6142Y5024D01*
X6125D01*
X6109Y5017D01*
X6097Y5005D01*
X6091Y4989D01*
Y4972D01*
X6097Y4956D01*
X6109Y4944D01*
X6125Y4937D01*
X6142D01*
X6150Y4940D01*
X6181D01*
Y4930D01*
X6297D01*
Y5031D01*
D02*
G37*
G36*
X2400Y13084D02*
X2383Y13080D01*
X2369Y13071D01*
X2359Y13056D01*
X2356Y13039D01*
X2359Y13023D01*
X2369Y13008D01*
X2383Y12999D01*
X2400Y12995D01*
X2417Y12999D01*
X2431Y13008D01*
X2441Y13023D01*
X2444Y13039D01*
X2441Y13056D01*
X2431Y13071D01*
X2417Y13080D01*
X2400Y13084D01*
D02*
G37*
G36*
X7844Y13581D02*
X7827D01*
X7811Y13575D01*
X7799Y13563D01*
X7792Y13547D01*
Y13530D01*
X7799Y13514D01*
X7811Y13502D01*
X7827Y13495D01*
X7844D01*
X7860Y13502D01*
X7872Y13514D01*
X7879Y13530D01*
Y13547D01*
X7872Y13563D01*
X7860Y13575D01*
X7844Y13581D01*
D02*
G37*
G36*
X7158Y13442D02*
X7141D01*
X7125Y13435D01*
X7113Y13423D01*
X7107Y13407D01*
Y13390D01*
X7113Y13374D01*
X7125Y13362D01*
X7141Y13355D01*
X7158D01*
X7174Y13362D01*
X7186Y13374D01*
X7192Y13387D01*
X7192Y13387D01*
X7205Y13386D01*
X7210Y13373D01*
X7222Y13361D01*
X7238Y13354D01*
X7255D01*
X7271Y13361D01*
X7283Y13373D01*
X7290Y13389D01*
Y13406D01*
X7283Y13422D01*
X7271Y13434D01*
X7255Y13441D01*
X7238D01*
X7222Y13434D01*
X7210Y13422D01*
X7205Y13409D01*
X7205Y13409D01*
X7192Y13410D01*
X7186Y13423D01*
X7174Y13435D01*
X7158Y13442D01*
D02*
G37*
G36*
X7255Y13332D02*
X7238D01*
X7222Y13326D01*
X7210Y13313D01*
X7204Y13298D01*
Y13280D01*
X7210Y13264D01*
X7222Y13252D01*
X7238Y13246D01*
X7255D01*
X7271Y13252D01*
X7283Y13264D01*
X7290Y13280D01*
Y13298D01*
X7283Y13313D01*
X7271Y13326D01*
X7255Y13332D01*
D02*
G37*
G36*
X6534Y13262D02*
X6517D01*
X6501Y13255D01*
X6489Y13243D01*
X6482Y13227D01*
Y13210D01*
X6489Y13194D01*
X6501Y13182D01*
X6517Y13175D01*
X6534D01*
X6550Y13182D01*
X6562Y13194D01*
X6569Y13210D01*
Y13227D01*
X6562Y13243D01*
X6550Y13255D01*
X6534Y13262D01*
D02*
G37*
G36*
X7411Y13121D02*
X7394D01*
X7378Y13114D01*
X7366Y13102D01*
X7359Y13086D01*
Y13069D01*
X7366Y13053D01*
X7378Y13041D01*
X7394Y13034D01*
X7411D01*
X7427Y13041D01*
X7439Y13053D01*
X7445Y13069D01*
Y13086D01*
X7439Y13102D01*
X7427Y13114D01*
X7411Y13121D01*
D02*
G37*
G36*
X6689Y13099D02*
X6671D01*
X6656Y13092D01*
X6643Y13080D01*
X6637Y13064D01*
Y13047D01*
X6643Y13031D01*
X6656Y13019D01*
X6671Y13012D01*
X6689D01*
X6704Y13019D01*
X6717Y13031D01*
X6723Y13047D01*
Y13064D01*
X6717Y13080D01*
X6704Y13092D01*
X6689Y13099D01*
D02*
G37*
%LPD*%
D16*
X2921Y10147D02*
X3048Y10274D01*
X2789Y10147D02*
X2921D01*
X2739Y10196D02*
X2789Y10147D01*
X2739Y10196D02*
Y10616D01*
X2688Y10669D02*
X2710Y10647D01*
Y10645D02*
X2739Y10616D01*
X2710Y10645D02*
Y10647D01*
X2673Y10669D02*
X2688D01*
X2870Y10223D02*
Y10800D01*
X2843Y10827D02*
X2870Y10800D01*
X2751Y10827D02*
X2843D01*
X2710Y10786D02*
X2751Y10827D01*
X2710Y10784D02*
Y10786D01*
X2688Y10761D02*
X2710Y10784D01*
X2595Y10761D02*
X2688D01*
X2612Y10609D02*
X2673Y10669D01*
X2517Y10716D02*
X2550D01*
X2595Y10761D01*
X2441Y10637D02*
X2468Y10609D01*
X2441Y10637D02*
Y10665D01*
X2468Y10609D02*
X2612D01*
D23*
X7365Y4754D02*
D03*
Y4639D02*
D03*
X5371Y10695D02*
D03*
Y10580D02*
D03*
X3046Y850D02*
D03*
Y735D02*
D03*
X7443Y5799D02*
D03*
Y5914D02*
D03*
X8287Y9339D02*
D03*
X6250Y6111D02*
D03*
X5965Y6101D02*
D03*
X8287Y9454D02*
D03*
X6834Y6060D02*
D03*
X4736Y9547D02*
D03*
X7469Y4930D02*
D03*
X5933Y5355D02*
D03*
X7500Y5426D02*
D03*
X7724Y5375D02*
D03*
X5965Y6216D02*
D03*
X332Y4199D02*
D03*
X954Y8924D02*
D03*
X6148Y10514D02*
D03*
X2144Y499D02*
D03*
X2440Y737D02*
D03*
X2535Y973D02*
D03*
X8890Y11717D02*
D03*
X2009Y13725D02*
D03*
X8890Y11602D02*
D03*
X8785D02*
D03*
Y11717D02*
D03*
X4736Y9432D02*
D03*
X2009Y13610D02*
D03*
X4991Y10389D02*
D03*
X2144Y384D02*
D03*
X2440Y852D02*
D03*
X2535Y858D02*
D03*
X332Y4314D02*
D03*
X7469Y4815D02*
D03*
X5933Y5470D02*
D03*
X5932Y5116D02*
D03*
X6085Y5493D02*
D03*
X5921Y5760D02*
D03*
X5831Y6332D02*
D03*
X6834Y5945D02*
D03*
X6941D02*
D03*
X6637Y5945D02*
D03*
X7500Y5541D02*
D03*
X7724Y5260D02*
D03*
X6148Y10629D02*
D03*
X6250Y5996D02*
D03*
X3253Y9382D02*
D03*
X4991Y10274D02*
D03*
X954Y8809D02*
D03*
X5932Y5231D02*
D03*
X6085Y5378D02*
D03*
X5921Y5875D02*
D03*
X5831Y6217D02*
D03*
X6941Y6060D02*
D03*
X6637Y6060D02*
D03*
X3253Y9267D02*
D03*
D25*
X6339Y9639D02*
D03*
X6208Y9640D02*
D03*
X3851Y12980D02*
D03*
X3720D02*
D03*
D26*
X2292Y13794D02*
D03*
X2177D02*
D03*
X2292Y13898D02*
D03*
X2177D02*
D03*
X2287Y13660D02*
D03*
X2402D02*
D03*
X2177Y14003D02*
D03*
X2292D02*
D03*
X2680Y10669D02*
D03*
X2795D02*
D03*
Y10761D02*
D03*
X2680D02*
D03*
X2377Y10926D02*
D03*
X2492D02*
D03*
X2747Y5866D02*
D03*
X2862D02*
D03*
X2687Y6183D02*
D03*
X2802D02*
D03*
X6775Y6300D02*
D03*
X6660D02*
D03*
X7023Y5689D02*
D03*
X7138D02*
D03*
X9939Y5530D02*
D03*
X4923Y6247D02*
D03*
Y6133D02*
D03*
X8007Y4699D02*
D03*
X6428Y7042D02*
D03*
X6315Y7424D02*
D03*
X6413Y7808D02*
D03*
X9750Y9438D02*
D03*
X9746Y10050D02*
D03*
X9750Y9539D02*
D03*
X9744Y8930D02*
D03*
X6315Y8190D02*
D03*
X7051Y4969D02*
D03*
X7106Y4658D02*
D03*
X9824Y5530D02*
D03*
X4229Y10129D02*
D03*
X4230Y10035D02*
D03*
X4344Y10129D02*
D03*
X4345Y10035D02*
D03*
X6354Y4981D02*
D03*
X6819Y6494D02*
D03*
X6547D02*
D03*
X6270D02*
D03*
X6267Y6302D02*
D03*
X7096Y6573D02*
D03*
X5038Y6247D02*
D03*
X8287Y8481D02*
D03*
X8402D02*
D03*
X1824Y10141D02*
D03*
X1824Y10325D02*
D03*
X1824Y10232D02*
D03*
X1939Y10141D02*
D03*
X1939Y10048D02*
D03*
X1194Y10460D02*
D03*
X1193Y9777D02*
D03*
X1308D02*
D03*
X3976Y11911D02*
D03*
X3977Y11810D02*
D03*
X1727Y8335D02*
D03*
X1618Y7904D02*
D03*
X1612Y8335D02*
D03*
X3860Y7982D02*
D03*
X3860Y8081D02*
D03*
X5761Y7864D02*
D03*
X5646D02*
D03*
X5921Y10557D02*
D03*
X5806D02*
D03*
X2560Y581D02*
D03*
X2690Y964D02*
D03*
X2135Y1009D02*
D03*
X2493Y1234D02*
D03*
X2042Y1217D02*
D03*
X2553Y332D02*
D03*
X9435Y11358D02*
D03*
Y11047D02*
D03*
Y11151D02*
D03*
Y11255D02*
D03*
X8629Y10429D02*
D03*
X3626Y13940D02*
D03*
X3629Y13827D02*
D03*
X3633Y13718D02*
D03*
X7557Y12642D02*
D03*
X8623Y12666D02*
D03*
Y12768D02*
D03*
X9320Y11047D02*
D03*
X8428Y11292D02*
D03*
X9320Y11151D02*
D03*
Y11255D02*
D03*
X8428Y11057D02*
D03*
Y11174D02*
D03*
X9320Y11358D02*
D03*
X9427Y12029D02*
D03*
X7842Y12278D02*
D03*
X8725Y12371D02*
D03*
X8313Y11292D02*
D03*
Y11174D02*
D03*
Y11057D02*
D03*
X4195Y9133D02*
D03*
X8514Y10429D02*
D03*
X3518Y13718D02*
D03*
X7957Y12278D02*
D03*
Y12174D02*
D03*
X7957Y12076D02*
D03*
X8738Y12768D02*
D03*
X7842Y12174D02*
D03*
X8609Y12266D02*
D03*
X8610Y12371D02*
D03*
X3511Y13940D02*
D03*
X3514Y13827D02*
D03*
X3745Y8081D02*
D03*
X3861Y11911D02*
D03*
X3111Y8420D02*
D03*
X3745Y8190D02*
D03*
X3745Y8298D02*
D03*
X3109Y7731D02*
D03*
X3224D02*
D03*
X3862Y12123D02*
D03*
X3861Y12018D02*
D03*
X3219Y11555D02*
D03*
X3334D02*
D03*
X3977Y12123D02*
D03*
X5782Y8867D02*
D03*
X3230Y12239D02*
D03*
X1131Y6036D02*
D03*
X1132Y5934D02*
D03*
X1016Y6036D02*
D03*
Y6140D02*
D03*
X2623Y5357D02*
D03*
X2508D02*
D03*
X3745Y7982D02*
D03*
X7442Y12642D02*
D03*
X8738Y12666D02*
D03*
X7842Y12076D02*
D03*
X8724Y12266D02*
D03*
X9312Y12029D02*
D03*
X2378Y1234D02*
D03*
X2445Y581D02*
D03*
X2805Y964D02*
D03*
X2250Y1009D02*
D03*
X2157Y1217D02*
D03*
X3345Y12239D02*
D03*
X3976Y12018D02*
D03*
X6041Y5991D02*
D03*
X6175Y4708D02*
D03*
X6239Y4981D02*
D03*
X6874Y4765D02*
D03*
X6704Y6494D02*
D03*
X6432D02*
D03*
X6155D02*
D03*
X6152Y6302D02*
D03*
X6392Y6302D02*
D03*
X6981Y6573D02*
D03*
X7507Y6508D02*
D03*
X6991Y4658D02*
D03*
X5038Y6133D02*
D03*
X3862Y11810D02*
D03*
X1352Y5829D02*
D03*
X6313Y7042D02*
D03*
X6430Y7424D02*
D03*
X6298Y7808D02*
D03*
X6430Y8190D02*
D03*
X8122Y4699D02*
D03*
X9865Y9438D02*
D03*
X9861Y10050D02*
D03*
X9865Y9539D02*
D03*
X9859Y8930D02*
D03*
X4080Y9133D02*
D03*
X1309Y10460D02*
D03*
X1824Y10048D02*
D03*
X1939Y10232D02*
D03*
X3226Y8420D02*
D03*
X3860Y8190D02*
D03*
X5667Y8867D02*
D03*
X1017Y5934D02*
D03*
X1131Y6140D02*
D03*
X1467Y5829D02*
D03*
X1939Y10325D02*
D03*
X1733Y7904D02*
D03*
X2668Y332D02*
D03*
X5926Y5991D02*
D03*
X6290Y4708D02*
D03*
X6989Y4765D02*
D03*
X6507Y6302D02*
D03*
X7392Y6508D02*
D03*
X6936Y4969D02*
D03*
X3860Y8298D02*
D03*
D33*
X3046Y1103D02*
D03*
Y972D02*
D03*
X2781Y753D02*
D03*
X5715Y8738D02*
D03*
X4892Y9287D02*
D03*
X4991Y10512D02*
D03*
X4716Y10423D02*
D03*
X2781Y622D02*
D03*
X5715Y8607D02*
D03*
X4892Y9156D02*
D03*
X4991Y10643D02*
D03*
X4716Y10554D02*
D03*
D34*
X4928Y5257D02*
D03*
X4927Y5423D02*
D03*
X4164Y10998D02*
D03*
X4164Y11164D02*
D03*
X4357Y10998D02*
D03*
X2560Y8013D02*
D03*
X2558Y8187D02*
D03*
X2374D02*
D03*
X2375Y8013D02*
D03*
X2485Y11820D02*
D03*
X2679Y11999D02*
D03*
X2680Y11820D02*
D03*
X2483Y11999D02*
D03*
X458Y10050D02*
D03*
X638D02*
D03*
X459Y10209D02*
D03*
X639D02*
D03*
X2560Y7838D02*
D03*
X2558Y8362D02*
D03*
X2374D02*
D03*
X2375Y7838D02*
D03*
X4164Y10823D02*
D03*
X4164Y11339D02*
D03*
X4357Y10823D02*
D03*
X2485Y11645D02*
D03*
X2679Y12174D02*
D03*
X4928Y5082D02*
D03*
X4927Y5598D02*
D03*
X4051Y7000D02*
D03*
X2680Y11645D02*
D03*
X2483Y12174D02*
D03*
X2132Y9561D02*
D03*
X2312Y9045D02*
D03*
X2134D02*
D03*
X458Y9875D02*
D03*
X638D02*
D03*
X459Y10384D02*
D03*
X639D02*
D03*
X4051Y7516D02*
D03*
X4230Y7000D02*
D03*
X2132Y9386D02*
D03*
X2312Y9220D02*
D03*
X2134D02*
D03*
X4051Y7175D02*
D03*
X4051Y7341D02*
D03*
X4230Y7175D02*
D03*
D38*
X2507Y13229D02*
D03*
X2827Y13034D02*
D03*
Y13099D02*
D03*
Y13164D02*
D03*
Y13229D02*
D03*
X2507Y13034D02*
D03*
Y13099D02*
D03*
Y13164D02*
D03*
D39*
X5517Y3932D02*
D03*
X5715Y4029D02*
D03*
X5517Y4122D02*
D03*
D41*
X3861Y13157D02*
D03*
X3764Y13355D02*
D03*
X3671Y13157D02*
D03*
D42*
X2861Y13774D02*
D03*
X2926D02*
D03*
X2991D02*
D03*
X3056D02*
D03*
X2861Y13454D02*
D03*
X3056D02*
D03*
X2991D02*
D03*
X2926D02*
D03*
D48*
X4236Y13832D02*
D03*
Y13552D02*
D03*
D52*
X1308Y6036D02*
D03*
Y6102D02*
D03*
X1501D02*
D03*
Y5970D02*
D03*
X1308D02*
D03*
D134*
X5588Y11951D02*
Y12030D01*
X3059Y13363D02*
Y13452D01*
Y13363D02*
X3061Y13360D01*
X2931Y13385D02*
X2956Y13360D01*
X4727Y5914D02*
Y6026D01*
X4718Y5905D02*
X4727Y5914D01*
X4487Y5648D02*
Y5766D01*
X2794Y10592D02*
X2794Y10592D01*
Y10669D02*
X2795Y10669D01*
X2794Y10592D02*
Y10669D01*
X2795Y10669D02*
Y10761D01*
X2491Y10924D02*
X2492Y10926D01*
X2391Y10817D02*
X2441D01*
X2270D02*
X2391D01*
X2291Y10926D02*
X2377D01*
X2278Y10927D02*
X2290D01*
X2291Y10926D01*
X2491Y10665D02*
X2565D01*
X2491Y10817D02*
X2491Y10817D01*
X2492Y10926D02*
X2594D01*
X2491Y10817D02*
Y10924D01*
X2594Y10926D02*
X2595Y10927D01*
X3056Y13454D02*
X3059Y13452D01*
X4727Y5648D02*
Y5757D01*
X4718Y5766D02*
X4727Y5757D01*
X2784Y749D02*
X2891D01*
X2781Y753D02*
X2784Y749D01*
X8686Y830D02*
Y909D01*
X7743Y830D02*
Y909D01*
X6802Y830D02*
Y909D01*
X5860Y830D02*
Y909D01*
X4899Y830D02*
Y909D01*
X3950Y834D02*
Y913D01*
X1575Y5901D02*
Y5935D01*
X1501Y5970D02*
X1539D01*
X1575Y5935D01*
X8931Y11409D02*
Y11497D01*
X8966Y11532D01*
Y11529D02*
X8996Y11499D01*
Y11409D02*
Y11499D01*
X8966Y11529D02*
Y11532D01*
X8736Y11409D02*
Y11492D01*
X8708Y11519D02*
X8736Y11492D01*
X2931Y13385D02*
Y13449D01*
X2926Y13454D02*
X2931Y13449D01*
X2986D02*
X2991Y13454D01*
X2956Y13360D02*
X2986Y13391D01*
Y13449D01*
X8996Y10850D02*
Y10937D01*
X8966Y10820D02*
X8996Y10850D01*
X8931Y10855D02*
Y10937D01*
Y10855D02*
X8966Y10820D01*
D135*
X2287Y13660D02*
X2288Y13662D01*
X2285Y13659D02*
X2287Y13660D01*
X2181Y13696D02*
X2217Y13660D01*
X2287D01*
X2012Y13722D02*
X2093D01*
X2009Y13725D02*
X2012Y13722D01*
X2181Y13696D02*
Y13790D01*
X2177Y13794D02*
X2181Y13790D01*
X2292Y14000D02*
Y14077D01*
X2359Y14145D02*
Y14179D01*
X2292Y14077D02*
X2359Y14145D01*
X2292Y13896D02*
Y14000D01*
Y13794D02*
Y13896D01*
Y13794D02*
X2293Y13793D01*
X1610Y12871D02*
X1746D01*
X1747Y12872D01*
X7589Y7807D02*
Y9978D01*
X7541Y10026D02*
X7589Y9978D01*
X7629Y7792D02*
Y9987D01*
X7751Y10109D02*
X7963D01*
X7629Y9987D02*
X7751Y10109D01*
X6028Y10327D02*
X6128Y10427D01*
Y10494D01*
X6148Y10514D01*
X5369Y10578D02*
X5371Y10580D01*
X5267Y10578D02*
X5369D01*
X5090Y12075D02*
Y12407D01*
X4991Y11976D02*
X5090Y12075D01*
Y12407D02*
X5155Y12471D01*
X5699Y10559D02*
X5804D01*
X5806Y10557D01*
X1747Y11856D02*
X1866D01*
X1867Y11857D01*
X1740Y12230D02*
X1747Y12237D01*
Y12364D02*
X1766Y12382D01*
X1747Y12618D02*
X1863D01*
X1766Y12382D02*
X1866D01*
X1863Y12618D02*
X1867Y12614D01*
X1613Y12230D02*
X1740D01*
X1613Y12484D02*
X1740D01*
X1747Y12491D01*
X3867Y2317D02*
X4922D01*
X4972Y2108D02*
Y2266D01*
X4922Y2317D02*
X4972Y2266D01*
X7658Y4356D02*
X9435D01*
X10109Y5030D01*
X7484Y4182D02*
X7658Y4356D01*
X6573Y4401D02*
X6791Y4182D01*
X7484D01*
X4327Y4796D02*
X4685Y4438D01*
X5790D02*
X6110Y4119D01*
X4151Y5164D02*
X4749Y4565D01*
X4305Y5271D02*
X4846Y4730D01*
X5772Y4394D02*
X5857Y4310D01*
X5873Y4730D02*
X6269Y4334D01*
X4267Y5244D02*
X4824Y4687D01*
X5863D02*
X6255Y4295D01*
X5825Y4565D02*
X6195Y4194D01*
X4824Y4687D02*
X5863D01*
X4846Y4730D02*
X5873D01*
X4685Y4438D02*
X5790D01*
X5836Y4606D02*
X6215Y4227D01*
X4665Y4394D02*
X5772D01*
X4306Y4753D02*
X4665Y4394D01*
X4749Y4565D02*
X5825D01*
X5801Y4482D02*
X6149Y4134D01*
X4030Y5218D02*
X4723Y4524D01*
X4772Y4606D02*
X5836D01*
X4229Y5217D02*
X4801Y4646D01*
X4350Y4839D02*
X4707Y4482D01*
X5847Y4646D02*
X6229Y4263D01*
X5815Y4524D02*
X6274Y4066D01*
X4192Y5186D02*
X4772Y4606D01*
X4707Y4482D02*
X5801D01*
X4801Y4646D02*
X5847D01*
X4723Y4524D02*
X5815D01*
X2861Y13360D02*
Y13454D01*
X2507Y13229D02*
Y13322D01*
X3764Y13355D02*
Y13449D01*
X3956Y13297D02*
X3967D01*
X3926Y13267D02*
X3956Y13297D01*
X3701Y13267D02*
X3926D01*
X2063Y5583D02*
X2213Y5734D01*
X2173Y5922D02*
X2213Y5882D01*
Y5734D02*
Y5882D01*
X2108Y5914D02*
X2169Y5853D01*
Y5759D02*
Y5853D01*
X2019Y5609D02*
X2169Y5759D01*
X2173Y5922D02*
Y5972D01*
X2108Y5914D02*
Y6058D01*
X4229Y5217D02*
Y5725D01*
X3332Y6013D02*
X3872D01*
X3167Y6139D02*
X3815D01*
X3872Y6013D02*
X4192Y5693D01*
X3957Y5867D02*
X4151Y5673D01*
Y5164D02*
Y5673D01*
X4192Y5186D02*
Y5693D01*
X3119Y5867D02*
X3957D01*
X3815Y6139D02*
X4229Y5725D01*
X8163Y8887D02*
X8288D01*
X8107Y8831D02*
X8163Y8887D01*
X8107Y7056D02*
Y8831D01*
X8064Y9017D02*
X8153Y9106D01*
Y9411D01*
X8064Y7027D02*
Y9017D01*
X8107Y7056D02*
X8693Y6471D01*
X8650Y4657D02*
Y6441D01*
X8064Y7027D02*
X8650Y6441D01*
X8585Y4406D02*
X8792Y4613D01*
Y6443D02*
X8839Y6490D01*
X8792Y4613D02*
Y6443D01*
X8521Y4528D02*
X8650Y4657D01*
X8693Y4638D02*
Y6471D01*
X8543Y4487D02*
X8693Y4638D01*
X8742Y4628D02*
Y6469D01*
X8852Y6579D01*
X7638Y4406D02*
X8585D01*
X7569Y4528D02*
X8521D01*
X7593Y4487D02*
X8543D01*
X8560Y4445D02*
X8742Y4628D01*
X7615Y4445D02*
X8560D01*
X7424Y4318D02*
X7593Y4487D01*
X7423Y4382D02*
X7569Y4528D01*
X7460Y4227D02*
X7638Y4406D01*
X7017Y4227D02*
X7460D01*
X7191Y4318D02*
X7424D01*
X7441Y4271D02*
X7615Y4445D01*
X7118Y4271D02*
X7441D01*
X6986Y4403D02*
X7118Y4271D01*
X6852Y4392D02*
X7017Y4227D01*
X7226Y4382D02*
X7423D01*
X4316Y6625D02*
X5284Y7593D01*
X7430D01*
X4161Y6625D02*
X4316D01*
X5270Y7633D02*
X7414D01*
X4298Y6661D02*
X5270Y7633D01*
X4135Y6661D02*
X4298D01*
X5269Y7686D02*
X5727D01*
X4113Y6699D02*
X4283D01*
X5269Y7686D01*
X4265Y6736D02*
X5452Y7923D01*
X3740Y6736D02*
X4265D01*
X5452Y7923D02*
Y8027D01*
X4185Y6589D02*
X4466D01*
X4085Y6490D02*
X4185Y6589D01*
X4466D02*
X5268Y7391D01*
X4214Y6554D02*
X4489D01*
X4107Y6446D02*
X4214Y6554D01*
X4489D02*
X5250Y7315D01*
X4065Y6530D02*
X4161Y6625D01*
X4021Y6608D02*
X4113Y6699D01*
X4044Y6570D02*
X4135Y6661D01*
X3326Y6646D02*
Y6731D01*
X3364Y6608D02*
X4021D01*
X3326Y6646D02*
X3364Y6608D01*
X2940Y6570D02*
X4044D01*
X2886Y6625D02*
X2940Y6570D01*
X1938Y6625D02*
X2886D01*
X2006Y6595D02*
X2857D01*
X2922Y6530D02*
X4065D01*
X2857Y6595D02*
X2922Y6530D01*
X2705Y6561D02*
X2831D01*
X2903Y6490D02*
X4085D01*
X2831Y6561D02*
X2903Y6490D01*
X2758Y6446D02*
X4107D01*
X3066Y4900D02*
Y5307D01*
X3020Y5352D02*
X3066Y5307D01*
Y4900D02*
X3212Y4753D01*
X2961Y5784D02*
X2967Y5778D01*
X2961Y5784D02*
Y5992D01*
X2996Y6027D01*
X2063Y5417D02*
Y5583D01*
X1520Y4874D02*
X2063Y5417D01*
X1770Y5916D02*
X1964Y5722D01*
Y5636D02*
Y5722D01*
X1920Y5593D02*
X1964Y5636D01*
X1520Y1824D02*
Y4874D01*
X1473Y4890D02*
X2019Y5436D01*
Y5609D01*
X1473Y1881D02*
Y4890D01*
X1431Y2240D02*
Y4908D01*
X1122Y1931D02*
X1431Y2240D01*
X1122Y862D02*
Y1931D01*
X1431Y4908D02*
X1807Y5284D01*
X1496Y1801D02*
X1520Y1824D01*
X4030Y5218D02*
Y5476D01*
X3948Y5558D02*
X4030Y5476D01*
X3243Y5558D02*
X3948D01*
X3254Y5606D02*
X4000D01*
X4084Y5373D02*
Y5522D01*
X4000Y5606D02*
X4084Y5522D01*
X3026Y6215D02*
X3864D01*
X4305Y5774D01*
Y5271D02*
Y5774D01*
X2934Y6179D02*
X3838D01*
X4267Y5244D02*
Y5750D01*
X3838Y6179D02*
X4267Y5750D01*
X2817Y6061D02*
X2934Y6179D01*
X2967Y6274D02*
X3026Y6215D01*
X2996Y6027D02*
X3055D01*
X3167Y6139D01*
X2445Y5505D02*
X2493Y5457D01*
X2445Y5505D02*
Y5873D01*
X2108Y6210D02*
X2445Y5873D01*
X2687Y5545D02*
X2736Y5496D01*
X3045D01*
X3148Y5394D01*
Y4950D02*
Y5394D01*
Y4950D02*
X3259Y4839D01*
X4350D01*
X3104Y4927D02*
X3235Y4796D01*
X3019Y5457D02*
X3104Y5372D01*
Y4927D02*
Y5372D01*
X3212Y4753D02*
X4306D01*
X3235Y4796D02*
X4327D01*
X3188Y5613D02*
X3243Y5558D01*
X3191Y5669D02*
X3254Y5606D01*
X5715Y4029D02*
X5833D01*
X5857Y4052D01*
Y4310D01*
X6981Y2293D02*
X7509D01*
X7585Y2092D02*
Y2217D01*
X7509Y2293D02*
X7585Y2217D01*
X6421Y2853D02*
X6981Y2293D01*
X7131Y2387D02*
X7214Y2470D01*
X7011Y2387D02*
X7131D01*
X6500Y2898D02*
X7011Y2387D01*
X6500Y2898D02*
Y3779D01*
X6463Y2877D02*
Y3765D01*
X6994Y2346D02*
X7251D01*
X6463Y2877D02*
X6994Y2346D01*
X6421Y2853D02*
Y3754D01*
X6149Y4026D02*
X6421Y3754D01*
X6274Y3954D02*
X6463Y3765D01*
X6421Y3857D02*
X6500Y3779D01*
X6421Y3857D02*
Y4146D01*
X6274Y3954D02*
Y4066D01*
X6110Y4012D02*
Y4119D01*
X6379Y2818D02*
Y3742D01*
X6110Y4012D02*
X6379Y3742D01*
X6149Y4026D02*
Y4134D01*
X6215Y4227D02*
X6466D01*
X6195Y4194D02*
X6373D01*
X6229Y4263D02*
X6505D01*
X6255Y4295D02*
X6533D01*
X6269Y4334D02*
X6554D01*
X6505Y4263D02*
X6680Y4089D01*
X6373Y4194D02*
X6421Y4146D01*
X6466Y4227D02*
X6567Y4126D01*
X6533Y4295D02*
X6716Y4112D01*
X6554Y4334D02*
X6753Y4134D01*
X6680Y3964D02*
Y4089D01*
X6716Y3994D02*
X7252Y3458D01*
X6716Y3994D02*
Y4112D01*
X6753Y4016D02*
X7306Y3463D01*
X6753Y4016D02*
Y4134D01*
X7203Y3327D02*
Y3440D01*
X6680Y3964D02*
X7203Y3440D01*
X7251Y2946D02*
X7306Y3001D01*
Y3463D01*
X7252Y3072D02*
Y3458D01*
X2687Y5545D02*
Y5775D01*
X2006Y13455D02*
Y13608D01*
X2009Y13610D01*
X3441Y394D02*
Y2076D01*
X2895Y269D02*
X3316D01*
X3441Y394D01*
X3495Y363D02*
Y2033D01*
X2768Y216D02*
X3347D01*
X3495Y363D01*
X2668Y496D02*
X2895Y269D01*
X2703Y162D02*
X3377D01*
X3551Y336D01*
Y2000D01*
X6567Y3181D02*
Y4126D01*
X7430Y7593D02*
X7629Y7792D01*
X7414Y7633D02*
X7589Y7807D01*
X9200Y10536D02*
X9208Y10528D01*
Y10059D02*
Y10528D01*
X3513Y13942D02*
Y14056D01*
X3511Y13940D02*
X3513Y13942D01*
X3511Y13940D02*
X3514Y13937D01*
X3626Y13940D02*
X3632Y13947D01*
X3855D01*
X2493Y5457D02*
X3019D01*
X1920Y5587D02*
Y5593D01*
X1847Y6076D02*
Y6436D01*
X1770Y5916D02*
Y5999D01*
X1847Y6076D01*
X2647Y6502D02*
X2705Y6561D01*
X2718Y6345D02*
Y6406D01*
X2758Y6446D01*
X2108Y6210D02*
Y6338D01*
X3023Y5613D02*
X3188D01*
X2967Y5669D02*
X3023Y5613D01*
X1770Y6962D02*
Y7239D01*
X1823Y7292D01*
X1727Y8224D02*
Y8335D01*
Y8224D02*
X1823Y8128D01*
Y7292D02*
Y8128D01*
X5761Y7720D02*
Y7864D01*
X5727Y7686D02*
X5761Y7720D01*
X7071Y4870D02*
X7100D01*
X7108Y4863D01*
X7051Y4891D02*
X7071Y4870D01*
X7051Y4891D02*
Y4969D01*
X7108Y4660D02*
Y4863D01*
X7106Y4658D02*
X7108Y4660D01*
X5250Y7315D02*
X5878D01*
X5268Y7391D02*
X5562D01*
X1807Y5284D02*
Y5668D01*
X3127Y5669D02*
X3191D01*
X7132Y4377D02*
X7191Y4318D01*
X8196Y9454D02*
X8287D01*
X8153Y9411D02*
X8196Y9454D01*
X9940Y5690D02*
Y5931D01*
X9939Y5689D02*
X9940Y5690D01*
X9939Y5530D02*
Y5689D01*
Y5347D02*
X9940Y5346D01*
X9939Y5347D02*
Y5530D01*
X9940Y5114D02*
Y5346D01*
X10109Y5030D02*
Y6016D01*
X9940Y6185D02*
X10109Y6016D01*
X1847Y6436D02*
X2006Y6595D01*
X1767Y6453D02*
X1938Y6625D01*
X1767Y6083D02*
Y6453D01*
X3495Y2033D02*
X3830Y2368D01*
X4439D01*
X3551Y2000D02*
X3867Y2317D01*
X6009Y2433D02*
X6100Y2342D01*
X3798Y2433D02*
X6009D01*
X3441Y2076D02*
X3798Y2433D01*
X1385Y1828D02*
Y1879D01*
Y1828D02*
X1412Y1801D01*
X1384Y1880D02*
X1385Y1879D01*
X1412Y1801D02*
X1496D01*
X9721Y5528D02*
X9724Y5530D01*
X9824D01*
X3276Y6070D02*
X3332Y6013D01*
X1737Y6102D02*
X1756Y6083D01*
X1767D01*
X1501Y6102D02*
X1737D01*
X7295Y5725D02*
X7377D01*
X7235Y5666D02*
X7295Y5725D01*
X7377D02*
X7443Y5792D01*
Y5799D01*
X7138Y5689D02*
X7139Y5689D01*
X5436Y9043D02*
X5964D01*
X5258Y8865D02*
X5436Y9043D01*
X5067Y8865D02*
X5258D01*
X2647Y6274D02*
X2718Y6345D01*
X2857Y5352D02*
X3020D01*
X6379Y2818D02*
X6497Y2700D01*
X2058Y6388D02*
X2108Y6338D01*
X1927Y6388D02*
X2058D01*
X2817Y6060D02*
Y6061D01*
X2840Y5945D02*
Y5956D01*
X2862Y5866D02*
Y5924D01*
X2840Y5945D02*
X2862Y5924D01*
X3017Y5969D02*
X3119Y5867D01*
X2857Y4971D02*
X2863Y4966D01*
X2997D01*
X218Y7709D02*
X330D01*
X217Y7710D02*
X218Y7709D01*
X127Y7506D02*
X201D01*
X217Y7490D01*
X222Y7925D02*
X343D01*
X217Y7930D02*
X222Y7925D01*
X101Y8039D02*
X216D01*
X217Y8040D01*
X1675Y10319D02*
X1680Y10325D01*
X1824D01*
X1820Y10241D02*
Y10325D01*
X2552Y216D02*
Y331D01*
X2553Y332D01*
X647Y3398D02*
X650Y3401D01*
X336Y3398D02*
X647D01*
X2396Y3801D02*
X2400Y3797D01*
X2190Y3801D02*
X2396D01*
X2394Y4001D02*
X2394Y4000D01*
X2190Y4001D02*
X2394D01*
X2397Y4201D02*
X2400Y4204D01*
X2190Y4201D02*
X2397D01*
X2394Y4401D02*
X2400Y4407D01*
X2190Y4401D02*
X2394D01*
X2397Y4601D02*
X2400Y4597D01*
X2190Y4601D02*
X2397D01*
X2807Y6188D02*
Y6274D01*
X2802Y6183D02*
X2807Y6188D01*
X927Y6036D02*
X1016D01*
Y6140D01*
X1131Y6036D02*
X1308D01*
X1131Y5934D02*
X1132Y5934D01*
X1131Y5934D02*
Y6036D01*
X2730Y5093D02*
X2736Y5098D01*
X2857D01*
X2852Y5357D02*
X2857Y5352D01*
X2623Y5357D02*
X2852D01*
X3264Y5098D02*
X3407D01*
X3655Y5163D02*
X3695D01*
X3407Y5225D02*
X3594D01*
X3655Y5163D01*
X3604Y5352D02*
X3655Y5403D01*
X3407Y5352D02*
X3604D01*
X3655Y5403D02*
X3695D01*
X8005Y4701D02*
Y4951D01*
Y4701D02*
X8007Y4699D01*
X6046Y6101D02*
X6063Y6084D01*
X5965Y6101D02*
X6046D01*
X6063Y6084D02*
X6074D01*
X6228D02*
X6250Y6106D01*
Y6111D01*
X6074Y6084D02*
X6228D01*
X6835Y6062D02*
Y6151D01*
X6834Y6060D02*
X6835Y6062D01*
X7138Y5689D02*
X7201D01*
X7224Y5666D01*
X7235D01*
X8287Y9339D02*
X8288Y9337D01*
Y9141D02*
Y9337D01*
X4647Y6119D02*
X4660Y6133D01*
X4923D01*
X4647Y6026D02*
Y6119D01*
X4923Y6133D02*
Y6247D01*
X6428Y7042D02*
X6430Y7045D01*
X6543D01*
X6313Y7422D02*
X6315Y7424D01*
X6210Y7422D02*
X6313D01*
X6413Y7808D02*
X6528D01*
X9388Y9438D02*
X9754D01*
X9743Y10047D02*
X9746Y10050D01*
X9388Y10047D02*
X9743D01*
X9538Y9539D02*
X9750D01*
X9538Y8930D02*
X9744D01*
X9744Y8930D01*
X6313Y8188D02*
X6315Y8190D01*
X6204Y8188D02*
X6313D01*
X4061Y9906D02*
X4186D01*
X4188Y9908D01*
X4221Y10129D02*
X4229D01*
X4061Y10101D02*
X4193D01*
X4221Y10129D01*
X4061Y10036D02*
X4229D01*
X4230Y10035D01*
X3932Y9971D02*
X4061D01*
X4911Y10023D02*
Y10118D01*
X4915Y10122D01*
X9208Y8881D02*
Y9013D01*
X8954Y9251D02*
Y9383D01*
X9208Y9557D02*
Y9689D01*
X8954Y9928D02*
Y10059D01*
X1513Y10192D02*
X1674D01*
X1726Y10141D02*
X1824D01*
X1674Y10192D02*
X1726Y10141D01*
X1820Y10241D02*
X1820Y10241D01*
X1513Y10319D02*
X1675D01*
X1939Y10049D02*
Y10141D01*
X1024Y10462D02*
X1189D01*
X985Y10423D02*
X1024Y10462D01*
X985Y10319D02*
Y10423D01*
X3976Y11810D02*
X3977Y11810D01*
X3976Y11810D02*
Y11911D01*
X391Y8774D02*
X573D01*
X577Y8770D01*
Y8687D02*
Y8770D01*
X217Y7820D02*
X327D01*
X330Y7823D01*
X954Y8924D02*
Y8931D01*
X817Y8960D02*
X925D01*
X954Y8931D01*
Y8924D02*
X1054D01*
X105Y8150D02*
X217D01*
X101Y8153D02*
X105Y8150D01*
X215Y7379D02*
X217Y7380D01*
X101Y7379D02*
X215D01*
X1471Y7902D02*
X1617D01*
X1618Y7904D01*
X1463Y8329D02*
X1606D01*
X1612Y8335D01*
X4236Y13832D02*
Y13926D01*
X4292Y13983D01*
X3851Y13148D02*
X3861Y13157D01*
X3851Y12980D02*
Y13148D01*
X3860Y7982D02*
Y8081D01*
Y7982D02*
X3860Y7982D01*
X5645Y7866D02*
X5646Y7864D01*
X5537Y7866D02*
X5645D01*
X5921Y10557D02*
X5923Y10555D01*
X6024D01*
X3626Y13831D02*
Y13940D01*
Y13831D02*
X3629Y13827D01*
X3633Y13824D01*
Y13718D02*
Y13824D01*
X7557Y12642D02*
X7775D01*
X7557Y12642D02*
X7557Y12642D01*
X7557Y12548D02*
Y12642D01*
X7556Y12548D02*
X7557Y12548D01*
X8615Y12666D02*
X8623D01*
X8430Y12642D02*
X8591D01*
X8615Y12666D01*
X8430Y12769D02*
X8622D01*
X8623Y12768D01*
X9102Y11108D02*
X9185D01*
X9246Y11047D02*
X9320D01*
X9185Y11108D02*
X9246Y11047D01*
X8548Y11238D02*
X8630D01*
X8428Y11292D02*
X8495D01*
X8548Y11238D01*
X9102Y11173D02*
X9200D01*
X9222Y11151D02*
X9320D01*
X9200Y11173D02*
X9222Y11151D01*
X9102Y11238D02*
X9206D01*
X9222Y11255D02*
X9320D01*
X9206Y11238D02*
X9222Y11255D01*
X8550Y11108D02*
X8630D01*
X8428Y11057D02*
X8499D01*
X8550Y11108D01*
X8429Y11173D02*
X8630D01*
X8428Y11174D02*
X8429Y11173D01*
X9102Y11303D02*
X9182D01*
X9237Y11358D02*
X9320D01*
X9182Y11303D02*
X9237Y11358D01*
X8866Y11409D02*
Y11495D01*
X8890Y11519D02*
Y11602D01*
X8866Y11495D02*
X8890Y11519D01*
X8801Y11409D02*
Y11503D01*
X8785Y11519D02*
Y11602D01*
Y11519D02*
X8801Y11503D01*
X8953Y9689D02*
X8954Y9689D01*
X8953Y9557D02*
Y9689D01*
X8954Y9013D02*
Y9145D01*
X8793Y9683D02*
X8948D01*
X8953Y9689D01*
X3671Y13157D02*
Y13237D01*
X3701Y13267D01*
X9208Y9928D02*
Y10059D01*
Y9251D02*
Y9383D01*
X7963Y12272D02*
X8188D01*
X7957Y12278D02*
X7963Y12272D01*
X7957Y12174D02*
Y12278D01*
Y12076D02*
Y12174D01*
Y12076D02*
X7957Y12076D01*
X7054Y11755D02*
X7212Y11913D01*
X7899D01*
X7957Y11971D02*
Y12076D01*
X7899Y11913D02*
X7957Y11971D01*
X8866Y10820D02*
Y10937D01*
X8388Y12367D02*
X8392Y12371D01*
X8610D01*
Y12266D02*
Y12371D01*
X8609Y12266D02*
X8610Y12266D01*
X8609Y12167D02*
Y12266D01*
Y12167D02*
X8610Y12167D01*
X7734Y12179D02*
X7837D01*
X7842Y12174D01*
X8738Y12768D02*
X8852D01*
X3514Y13827D02*
Y13937D01*
X7772Y12766D02*
X7775Y12769D01*
X7607Y12763D02*
X7610Y12766D01*
X7772D01*
X3433Y8148D02*
X3588D01*
X3655Y8081D02*
X3745D01*
X3588Y8148D02*
X3655Y8081D01*
X3554Y11969D02*
X3715D01*
X3773Y11911D02*
X3861D01*
X3715Y11969D02*
X3773Y11911D01*
X2904Y8379D02*
X2944Y8418D01*
X3109D01*
X2904Y8275D02*
Y8379D01*
X3433Y8275D02*
X3583D01*
X3607Y8298D02*
X3745D01*
X3583Y8275D02*
X3607Y8298D01*
X3745Y8190D02*
Y8298D01*
X3745Y8190D02*
X3745Y8190D01*
X3716Y12096D02*
X3743Y12123D01*
X3862D01*
X3554Y12096D02*
X3716D01*
X3862Y12018D02*
Y12123D01*
X3861Y12018D02*
X3862Y12018D01*
X3026Y12096D02*
Y12200D01*
X3065Y12239D02*
X3230D01*
X3026Y12200D02*
X3065Y12239D01*
D136*
X2042Y13861D02*
X2078Y13898D01*
X2177D01*
D137*
X3424Y13719D02*
X3518D01*
X3423Y13720D02*
X3424Y13719D01*
X8724Y12265D02*
X8725Y12265D01*
X7442Y12641D02*
X7442Y12641D01*
X6044Y10629D02*
X6148D01*
X2786Y616D02*
X2789Y619D01*
X6044Y10629D02*
X6046Y10627D01*
X4654Y9433D02*
X4735D01*
X4736Y9432D01*
X4654Y9434D02*
X4654Y9433D01*
X4768Y9156D02*
X4892D01*
X4739Y9186D02*
X4768Y9156D01*
X4734Y9186D02*
X4739D01*
X3253Y9382D02*
X3345D01*
X3162Y850D02*
X3162Y851D01*
X3046Y850D02*
X3162D01*
X3155Y940D02*
X3160D01*
X3128Y967D02*
X3155Y940D01*
X3051Y967D02*
X3128D01*
X3046Y972D02*
X3051Y967D01*
X2508Y5281D02*
X2514Y5275D01*
Y5270D02*
Y5275D01*
X2508Y5281D02*
Y5357D01*
X3162Y10241D02*
Y10897D01*
X2931Y10010D02*
X3162Y10241D01*
X2705Y11036D02*
X3022D01*
X2595Y10927D02*
X2705Y11036D01*
X3022D02*
X3162Y10897D01*
X2680Y6183D02*
X2687D01*
X2670Y6086D02*
Y6173D01*
Y6086D02*
X2712Y6044D01*
X2670Y6173D02*
X2680Y6183D01*
X2712Y6044D02*
X2754Y6002D01*
Y5873D02*
Y6002D01*
X1016Y5933D02*
X1016Y5933D01*
X8402Y8481D02*
X8410D01*
X8402D02*
X8403Y8480D01*
X3047Y1104D02*
Y1231D01*
X3046Y1103D02*
X3047Y1104D01*
Y1231D02*
X3048Y1232D01*
X6925Y6525D02*
X6973Y6573D01*
X6921Y6490D02*
X6925Y6493D01*
Y6525D01*
X7507Y6508D02*
X7508Y6509D01*
X7603D01*
X7605Y6510D01*
X6933Y4971D02*
Y5055D01*
Y4971D02*
X6936Y4969D01*
X6931Y5057D02*
X6933Y5055D01*
X7457Y4696D02*
X7469Y4708D01*
X7457Y4691D02*
Y4696D01*
X7469Y4708D02*
Y4815D01*
X7458Y4943D02*
X7469Y4932D01*
X7362Y4946D02*
X7366Y4943D01*
X7469Y4930D02*
Y4932D01*
X7366Y4943D02*
X7458D01*
X7365Y4639D02*
X7404D01*
X7457Y4691D01*
X7366Y4755D02*
Y4853D01*
X7365Y4754D02*
X7366Y4755D01*
Y4853D02*
X7367Y4855D01*
X7363Y4637D02*
X7365Y4639D01*
X7469Y4922D02*
Y4930D01*
Y4922D02*
X7479Y4911D01*
X6874Y4688D02*
Y4765D01*
Y4688D02*
X6904Y4658D01*
X6991D01*
X1425Y1488D02*
X1727Y1789D01*
Y2083D01*
X1425Y1156D02*
Y1488D01*
X1291Y1022D02*
X1425Y1156D01*
X1291Y796D02*
Y1022D01*
Y796D02*
X1346Y741D01*
Y619D02*
Y741D01*
X6942Y5944D02*
X6947Y5939D01*
X6941Y5945D02*
X6942Y5944D01*
Y5737D02*
X6944Y5736D01*
X6942Y5737D02*
Y5944D01*
X6724Y5945D02*
X6834D01*
X2747Y5866D02*
X2754Y5873D01*
X5370Y10696D02*
Y10790D01*
Y10696D02*
X5371Y10695D01*
X5369Y10790D02*
X5370Y10790D01*
X2443Y855D02*
X2532D01*
X2440Y852D02*
X2443Y855D01*
X2532D02*
X2535Y858D01*
X2429Y722D02*
X2440Y733D01*
X2337Y705D02*
X2353Y722D01*
X2440Y733D02*
Y737D01*
X2353Y722D02*
X2429D01*
X2332Y705D02*
X2337D01*
X2157Y1217D02*
X2158Y1216D01*
Y1135D02*
Y1216D01*
Y1135D02*
X2159Y1134D01*
X2043Y1131D02*
Y1216D01*
X2042Y1217D02*
X2043Y1216D01*
Y1131D02*
X2044Y1130D01*
X2250Y1009D02*
X2349D01*
X2042Y1041D02*
X2064Y1019D01*
X2124D02*
X2135Y1009D01*
X2064Y1019D02*
X2124D01*
X2037Y1041D02*
X2042D01*
X2641Y216D02*
X2668Y243D01*
Y332D01*
X2438Y483D02*
Y487D01*
X2445Y495D02*
Y581D01*
X2438Y487D02*
X2445Y495D01*
X2563Y494D02*
Y579D01*
X2560Y581D02*
X2563Y579D01*
Y494D02*
X2565Y492D01*
X2044Y381D02*
X2048Y384D01*
X2144D01*
X2049Y508D02*
X2058Y499D01*
X2044Y508D02*
X2049D01*
X2058Y499D02*
X2144D01*
X2315Y1290D02*
X2371Y1234D01*
X2311Y1333D02*
X2315Y1330D01*
X2371Y1234D02*
X2378D01*
X2315Y1290D02*
Y1330D01*
X2491Y1236D02*
Y1331D01*
Y1236D02*
X2493Y1234D01*
X2489Y1333D02*
X2491Y1331D01*
X2611Y858D02*
X2616Y853D01*
X2535Y858D02*
X2611D01*
X2536Y1066D02*
X2538Y1067D01*
X2535Y973D02*
X2536Y974D01*
Y1066D01*
X2859Y918D02*
X2888D01*
X2805Y964D02*
X2813D01*
X2859Y918D01*
X2888D02*
X2891Y915D01*
X2692Y1010D02*
X2745Y1063D01*
X2692Y966D02*
Y1010D01*
X2690Y964D02*
X2692Y966D01*
X3160Y735D02*
X3162Y737D01*
X3046Y735D02*
X3160D01*
X3046Y850D02*
X3046Y850D01*
X2789Y619D02*
X2888D01*
X2891Y616D01*
X2781Y622D02*
X2786Y616D01*
X5517Y4122D02*
Y4216D01*
X352Y3546D02*
X355Y3543D01*
X184Y3546D02*
X352D01*
X355Y3251D02*
X355Y3251D01*
X184Y3251D02*
X355D01*
X438Y3601D02*
X650D01*
X427Y4314D02*
X431Y4318D01*
X332Y4314D02*
X427D01*
X431Y4199D02*
X439Y4191D01*
X332Y4199D02*
X431D01*
X439Y4191D02*
X444D01*
X640D02*
X650Y4201D01*
X444Y4191D02*
X640D01*
X2394Y3401D02*
X2396Y3404D01*
X2190Y3401D02*
X2394D01*
X2400Y4801D02*
X2400Y4801D01*
X2190Y4801D02*
X2400D01*
X1016Y5839D02*
Y5933D01*
X1016Y5839D02*
X1016Y5839D01*
X1016Y5933D02*
X1017Y5934D01*
X1131Y6235D02*
X1132Y6236D01*
X1131Y6140D02*
Y6235D01*
X1352Y5747D02*
X1352Y5747D01*
Y5829D01*
X1552D02*
X1575Y5851D01*
X1467Y5829D02*
X1552D01*
X1575Y5851D02*
Y5901D01*
X3538Y4971D02*
X3543Y4966D01*
X3407Y4971D02*
X3538D01*
X8122Y4591D02*
X8123Y4590D01*
X8122Y4591D02*
Y4699D01*
X5964Y6314D02*
X5965Y6313D01*
Y6216D02*
Y6313D01*
X5748Y6332D02*
X5748Y6332D01*
X5831D01*
X5833Y6126D02*
Y6216D01*
X5831Y6217D02*
X5833Y6216D01*
Y6126D02*
X5834Y6124D01*
X6155Y5993D02*
X6247D01*
X6250Y5996D01*
X6152Y5991D02*
X6155Y5993D01*
X6041Y5991D02*
X6152D01*
X5833Y6001D02*
X5916D01*
X5926Y5991D01*
X5829Y6004D02*
X5833Y6001D01*
X5829Y5755D02*
X5834Y5760D01*
X5921D01*
X5843Y5875D02*
X5921D01*
X5834Y5884D02*
X5843Y5875D01*
X5829Y5884D02*
X5834D01*
X6723Y5945D02*
X6724Y5945D01*
X6637Y5945D02*
X6723D01*
X6639Y6061D02*
Y6150D01*
X6637Y6060D02*
X6639Y6061D01*
Y6150D02*
X6640Y6151D01*
X6741D02*
Y6155D01*
X6775Y6189D02*
Y6300D01*
X6741Y6155D02*
X6775Y6189D01*
X6660Y6390D02*
X6670Y6400D01*
X6660Y6300D02*
Y6390D01*
X6670Y6400D02*
Y6405D01*
X6154Y6401D02*
Y6494D01*
X6155Y6494D01*
X6154Y6401D02*
X6154Y6401D01*
X6271Y6404D02*
Y6494D01*
X6270Y6494D02*
X6271Y6494D01*
Y6404D02*
X6272Y6403D01*
X6423Y6432D02*
Y6485D01*
X6432Y6494D01*
X6395Y6404D02*
X6423Y6432D01*
X6395Y6399D02*
Y6404D01*
X6392Y6397D02*
X6395Y6399D01*
X6392Y6302D02*
Y6397D01*
X6464Y6162D02*
X6507Y6205D01*
Y6302D01*
X6464Y6157D02*
Y6162D01*
X6152Y6399D02*
X6154Y6401D01*
X6152Y6302D02*
Y6399D01*
X6267Y6302D02*
X6269Y6305D01*
Y6401D01*
X6272Y6403D01*
X6546Y6406D02*
Y6494D01*
X6547Y6494D01*
X6545Y6405D02*
X6546Y6406D01*
X6704Y6585D02*
X6705Y6586D01*
X6704Y6494D02*
Y6585D01*
X6821Y6407D02*
Y6492D01*
X6819Y6494D02*
X6821Y6492D01*
Y6407D02*
X6824Y6405D01*
X6693Y6503D02*
X6701Y6494D01*
X6942Y6061D02*
Y6151D01*
X6941Y6060D02*
X6942Y6061D01*
Y6151D02*
X6944Y6152D01*
X6973Y6573D02*
X6981D01*
X7103Y6467D02*
Y6472D01*
X7096Y6479D02*
Y6573D01*
Y6479D02*
X7103Y6472D01*
X6972Y5732D02*
X7016Y5689D01*
X6944Y5736D02*
X6947Y5732D01*
X7016Y5689D02*
X7023D01*
X6947Y5732D02*
X6972D01*
X7655Y5383D02*
X7715D01*
X7614Y5424D02*
X7655Y5383D01*
X7715D02*
X7724Y5375D01*
X7807Y5260D02*
X7861Y5205D01*
X7724Y5260D02*
X7807D01*
X7371Y5494D02*
X7419Y5541D01*
X7370Y5494D02*
X7371D01*
X7419Y5541D02*
X7500D01*
X7502Y5424D02*
X7614D01*
X7500Y5426D02*
X7502Y5424D01*
X5038Y6247D02*
X5131D01*
X6350Y4877D02*
X6352Y4879D01*
Y4978D02*
X6354Y4981D01*
X6352Y4879D02*
Y4978D01*
X5817Y5353D02*
X5818Y5354D01*
X5932D02*
X5933Y5355D01*
X5818Y5354D02*
X5932D01*
X8615Y9555D02*
Y9683D01*
X8610Y9550D02*
X8615Y9555D01*
X9435Y11358D02*
X9537D01*
X9435Y11255D02*
X9537D01*
X9435Y11151D02*
X9537D01*
X9435Y11047D02*
X9537D01*
X8890Y11717D02*
X8979D01*
X8712Y10531D02*
Y10630D01*
X8701Y10520D02*
X8712Y10531D01*
X8697Y10516D02*
X8701Y10520D01*
X8637Y10429D02*
X8697Y10489D01*
X8629Y10429D02*
X8637D01*
X8697Y10489D02*
Y10516D01*
X8909Y10536D02*
X9022D01*
X8708Y11717D02*
X8785D01*
X8725Y12371D02*
Y12471D01*
X8724Y12471D02*
X8725Y12471D01*
X7734Y12278D02*
X7842D01*
X8432Y10516D02*
Y10630D01*
Y10516D02*
X8433Y10516D01*
X8436Y10512D01*
Y10499D02*
X8507Y10429D01*
X8514D01*
X8436Y10499D02*
Y10512D01*
X4061Y9256D02*
X4189D01*
X4191Y9258D01*
X4193Y9256D01*
Y9136D02*
Y9256D01*
Y9136D02*
X4195Y9133D01*
X3518Y13719D02*
X3518Y13718D01*
X5900Y8852D02*
X5905D01*
X5782Y8867D02*
X5886D01*
X5900Y8852D01*
X5550Y8741D02*
X5551Y8739D01*
X5713D02*
X5715Y8738D01*
X5551Y8739D02*
X5713D01*
X5050Y9260D02*
X5054D01*
X4892Y9287D02*
X5023D01*
X5050Y9260D01*
X4867Y10512D02*
X4991D01*
X4863Y10516D02*
X4867Y10512D01*
X4837Y10425D02*
X4838Y10427D01*
X4716Y10423D02*
X4718Y10425D01*
X4837D01*
X4984Y10381D02*
X4991Y10389D01*
X4889Y10381D02*
X4984D01*
X4842Y10338D02*
X4846D01*
X4889Y10381D01*
X5038Y6133D02*
X5131D01*
X3349Y9386D02*
X3471D01*
X3345Y9382D02*
X3349Y9386D01*
X3471Y9451D02*
X3596D01*
X3471Y9646D02*
X3595D01*
X3596Y9647D01*
X3351Y9711D02*
X3471D01*
X3350Y9710D02*
X3351Y9711D01*
X3345Y9906D02*
X3471D01*
X3345Y9906D02*
X3345Y9906D01*
X3471Y9971D02*
X3595D01*
X3932Y9841D02*
X4061D01*
Y9646D02*
X4062Y9645D01*
X3944Y9646D02*
X4061D01*
X3911Y9614D02*
X3944Y9646D01*
X3944Y9581D02*
X4061D01*
X3911Y9614D02*
X3944Y9581D01*
X3954Y9451D02*
X4061D01*
X3911Y9409D02*
X3954Y9451D01*
X5550Y8903D02*
X5553Y8899D01*
Y8894D02*
X5580Y8867D01*
X5553Y8894D02*
Y8899D01*
X5580Y8867D02*
X5667D01*
X5554Y8585D02*
X5559D01*
X5581Y8607D02*
X5715D01*
X5559Y8585D02*
X5581Y8607D01*
X6430Y7424D02*
X6525D01*
X6528Y7422D01*
X6202Y7048D02*
X6208Y7042D01*
X6197Y7048D02*
X6202D01*
X6208Y7042D02*
X6313D01*
X6197Y7810D02*
X6198Y7809D01*
X6297D02*
X6298Y7808D01*
X6198Y7809D02*
X6297D01*
X6430Y8190D02*
X6525D01*
X6528Y8188D01*
X9865Y9539D02*
X9957D01*
X9865Y9438D02*
X9957D01*
X9859Y8930D02*
X9957D01*
X8724Y12266D02*
X8725Y12265D01*
X8724Y12167D02*
X8725Y12167D01*
X8724Y12167D02*
Y12265D01*
X8388Y12177D02*
X8443D01*
X8495Y12125D01*
Y12076D02*
Y12125D01*
X7734Y12076D02*
X7842D01*
X7442Y12642D02*
X7442Y12641D01*
X7442Y12548D02*
X7442Y12548D01*
X7442Y12548D02*
Y12641D01*
X8738Y12666D02*
X8852D01*
X9312Y11934D02*
Y12029D01*
X9861Y10050D02*
X9957D01*
X4251Y13552D02*
X4292Y13511D01*
X4236Y13552D02*
X4251D01*
X4292Y13424D02*
Y13511D01*
X3626Y12980D02*
X3720D01*
X4716Y10554D02*
Y10642D01*
X4718Y10643D01*
X4915Y10262D02*
X4918Y10265D01*
X4983D02*
X4991Y10274D01*
X4918Y10265D02*
X4983D01*
X4863Y10643D02*
X4991D01*
X3991Y9133D02*
X4080D01*
X6134Y4981D02*
X6239D01*
X6175Y4613D02*
Y4708D01*
X6172Y4610D02*
X6175Y4613D01*
X6874Y4765D02*
Y4863D01*
X6867Y4870D02*
X6874Y4863D01*
X5822Y5470D02*
X5933D01*
X5818Y5474D02*
X5822Y5470D01*
X6085Y5493D02*
X6175D01*
X5824Y5116D02*
X5932D01*
X5822Y5118D02*
X5824Y5116D01*
X3346Y9256D02*
X3471D01*
X3345Y9256D02*
X3346Y9256D01*
X3342Y9259D02*
X3345Y9256D01*
X3253Y9267D02*
X3261Y9259D01*
X3342D01*
X3471Y9321D02*
X3596D01*
X3911Y9516D02*
X4061D01*
X6286Y4610D02*
X6288Y4612D01*
Y4707D02*
X6290Y4708D01*
X6288Y4612D02*
Y4707D01*
X6989Y4765D02*
X6992Y4768D01*
Y4870D02*
X6995Y4873D01*
X6992Y4768D02*
Y4870D01*
X6084Y5284D02*
Y5377D01*
X6085Y5378D01*
X6083Y5283D02*
X6084Y5284D01*
X5816Y5245D02*
X5821D01*
X5836Y5231D02*
X5932D01*
X5821Y5245D02*
X5836Y5231D01*
D138*
X7016Y10399D02*
X7300D01*
X7417Y8445D02*
Y10282D01*
X7300Y10399D02*
X7417Y10282D01*
X6665Y10750D02*
X7016Y10399D01*
X6398Y10750D02*
X6665D01*
X6339Y10690D02*
X6398Y10750D01*
X6339Y10539D02*
Y10690D01*
X6339Y9639D02*
Y9644D01*
X6343Y9648D02*
X6360D01*
X6518Y9806D01*
X6559D01*
X6339Y9644D02*
X6343Y9648D01*
X6559Y9806D02*
X6629Y9875D01*
X6302Y10234D02*
X6339Y10271D01*
Y10539D01*
X6268Y10234D02*
X6302D01*
X6530Y10387D02*
X6600Y10317D01*
X6530Y10417D02*
X6530Y10417D01*
X6514Y10539D02*
X6530Y10523D01*
X6530Y10387D02*
Y10417D01*
X6600Y10317D02*
X6629D01*
X6530Y10417D02*
Y10523D01*
X5612Y10234D02*
X5646Y10268D01*
X5705Y10329D02*
Y10455D01*
Y10203D02*
Y10329D01*
X5646Y10268D02*
Y10465D01*
X5715D01*
X5575D02*
X5646D01*
X5750Y10375D02*
Y10429D01*
X5705Y10329D02*
X5750Y10375D01*
X5715Y10465D02*
X5750Y10429D01*
X5575Y10271D02*
Y10465D01*
X5531Y10213D02*
Y10421D01*
X5575Y10465D01*
X5646D02*
Y10466D01*
X5705Y10455D02*
X5715Y10465D01*
X5701Y10200D02*
X5705Y10203D01*
X5575Y10271D02*
X5612Y10234D01*
X5618D01*
X6546Y8507D02*
Y9062D01*
Y8507D02*
X6785Y8268D01*
X7212D01*
X7295Y8185D01*
X7296Y8186D01*
X7377D01*
X7378Y8188D01*
Y7807D02*
Y7988D01*
X7505Y8115D01*
Y8357D01*
X7417Y8445D02*
X7505Y8357D01*
X8488Y8560D02*
X8719D01*
X8861Y8419D01*
X8410Y8481D02*
X8488Y8560D01*
X6205Y9403D02*
X6546Y9062D01*
X6205Y9403D02*
Y9640D01*
X6208D02*
Y9931D01*
X6205Y9934D02*
X6208Y9931D01*
X8191Y7544D02*
Y7760D01*
X8283Y7851D02*
Y8014D01*
X8191Y7760D02*
X8283Y7851D01*
X8191Y7343D02*
X8283Y7252D01*
X8191Y7343D02*
Y7544D01*
X8283Y8014D02*
Y8394D01*
X8283Y8395D01*
X8283Y8014D02*
X8283Y8014D01*
X8283Y8478D02*
X8287Y8481D01*
X8283Y8395D02*
Y8478D01*
D139*
X2165Y14007D02*
Y14015D01*
X2112Y14068D02*
Y14172D01*
X2170Y14003D02*
X2177D01*
X2165Y14007D02*
X2170Y14003D01*
X2112Y14068D02*
X2165Y14015D01*
X2105Y14179D02*
X2112Y14172D01*
X3246Y13998D02*
X3331D01*
X3223Y14097D02*
Y14163D01*
Y14021D02*
X3246Y13998D01*
X3223Y14021D02*
Y14097D01*
X2794Y14021D02*
X2875D01*
X1363Y13483D02*
X1415Y13430D01*
X1363Y13483D02*
Y13588D01*
X1415Y13430D02*
X1459D01*
X3977Y12018D02*
X3977Y12018D01*
X3556Y11840D02*
X3556Y11841D01*
X3434Y8019D02*
X3435Y8020D01*
X1514Y10064D02*
X1515Y10064D01*
X1304Y10462D02*
X1416D01*
X1753Y12738D02*
X1754Y12739D01*
X1820Y9960D02*
Y10049D01*
X261Y7276D02*
X262Y7277D01*
X196Y11762D02*
X377D01*
X379Y11760D01*
X381D01*
X1270Y11747D02*
X1445D01*
X1459Y11762D01*
X1747Y12745D02*
X1753Y12738D01*
X1754Y12739D02*
X1866D01*
X1867Y12738D01*
X196Y13430D02*
X386D01*
X392Y13437D01*
X393D01*
X4743Y5553D02*
X4745D01*
X4747Y5555D02*
X4762D01*
X4803Y5595D02*
Y5597D01*
X4673Y5554D02*
X4743D01*
X4743Y5553D01*
X4745D02*
X4747Y5555D01*
X4762D02*
X4803Y5595D01*
Y5597D02*
X4803D01*
X3111Y3468D02*
Y3607D01*
Y3468D02*
X3201Y3378D01*
X5232D01*
X3111Y3607D02*
Y3608D01*
X3663Y10597D02*
X4488D01*
X2629Y9563D02*
X3663Y10597D01*
X2629Y8791D02*
Y9563D01*
X4488Y10597D02*
X4772Y10881D01*
X3745Y7982D02*
X3745Y7982D01*
X3656Y7982D02*
X3745D01*
X3655Y7981D02*
X3656Y7982D01*
X2904Y7784D02*
X2957Y7731D01*
X2904Y7784D02*
Y7894D01*
X2957Y7731D02*
X3109D01*
X3026Y11600D02*
Y11715D01*
X3071Y11555D02*
X3219D01*
X3026Y11600D02*
X3071Y11555D01*
X1312Y9772D02*
X1328D01*
X1683Y9725D02*
X1702Y9707D01*
X1375Y9725D02*
X1683D01*
X1308Y9777D02*
X1312Y9772D01*
X1328D02*
X1375Y9725D01*
X1026Y9777D02*
X1193D01*
X985Y9819D02*
X1026Y9777D01*
X985Y9819D02*
Y9938D01*
X1939Y10325D02*
X1939Y10325D01*
X2562Y8725D02*
X2629Y8791D01*
X2121Y8725D02*
X2562D01*
X1917Y8522D02*
X2121Y8725D01*
X1917Y6949D02*
Y8522D01*
X1730Y6761D02*
X1917Y6949D01*
X838Y6604D02*
X995Y6761D01*
X838Y5296D02*
Y6604D01*
Y5296D02*
X1041Y5093D01*
X7380Y6503D02*
X7385Y6508D01*
X7380Y6419D02*
Y6503D01*
X7368Y6407D02*
X7380Y6419D01*
X7368Y6406D02*
Y6407D01*
X7385Y6508D02*
X7392D01*
X995Y6761D02*
X1730D01*
X6204Y11255D02*
Y11509D01*
Y11001D02*
Y11255D01*
X4772Y10881D02*
X6084D01*
X6204Y11001D01*
X5308Y3454D02*
Y3607D01*
X5232Y3378D02*
X5308Y3454D01*
X1041Y4318D02*
Y5093D01*
X924Y4201D02*
X1041Y4318D01*
X650Y4201D02*
X924D01*
X5517Y3836D02*
Y3932D01*
X5313Y3613D02*
Y3971D01*
X5308Y3607D02*
Y3608D01*
X5313Y3613D01*
X3111Y3608D02*
X3116Y3613D01*
Y3971D01*
X4143Y10295D02*
Y10473D01*
X4013Y10295D02*
X4143D01*
X4345Y9960D02*
Y10035D01*
X4399Y9780D02*
Y9905D01*
X4345Y9960D02*
X4399Y9905D01*
X3223Y14163D02*
X3246Y14186D01*
X3331D01*
X3213Y7734D02*
X3220D01*
X3608Y7664D02*
X3619Y7675D01*
X3290Y7664D02*
X3608D01*
X3220Y7734D02*
X3290Y7664D01*
X3412Y11485D02*
X3746D01*
X3334Y11555D02*
X3342D01*
X3412Y11485D01*
X3981Y12118D02*
X4089D01*
X3977Y12123D02*
X3981Y12118D01*
X4089D02*
X4089Y12117D01*
X4673Y5554D02*
Y5559D01*
X4648Y5584D02*
X4673Y5559D01*
X4648Y5584D02*
Y5646D01*
X2898Y14097D02*
Y14163D01*
X2875Y14186D02*
X2898Y14163D01*
X2794Y14186D02*
X2875D01*
Y14074D02*
X2898Y14097D01*
X2875Y14021D02*
Y14074D01*
X3345Y12239D02*
X3458D01*
X3554Y11842D02*
X3556Y11840D01*
X3715Y11841D02*
X3715Y11840D01*
X3556Y11841D02*
X3715D01*
X3862Y11736D02*
Y11810D01*
X3976Y12018D02*
X3977Y12018D01*
X4089Y12018D02*
X4089Y12018D01*
X3977Y12018D02*
X4089D01*
X1513Y10065D02*
X1514Y10064D01*
X1673Y10064D02*
X1674Y10064D01*
X1515Y10064D02*
X1673D01*
X1939Y10232D02*
X2044D01*
X3435Y8020D02*
X3593D01*
X3594Y8019D01*
X3433Y8021D02*
X3434Y8019D01*
X3228Y8418D02*
X3314D01*
X3860Y8190D02*
X3949D01*
X502Y8867D02*
X575D01*
X577Y8865D01*
X467Y8903D02*
X502Y8867D01*
X216Y8650D02*
Y8774D01*
Y8650D02*
X217Y8649D01*
Y8539D02*
X218Y8538D01*
X217Y8539D02*
Y8649D01*
X1343Y8560D02*
X1574D01*
X1575Y8560D01*
X1343Y7264D02*
X1587D01*
X211Y7595D02*
X217Y7600D01*
X112Y7595D02*
X211D01*
X262Y7277D02*
X267Y7272D01*
X76Y7277D02*
X77Y7276D01*
X261D01*
X2044Y10325D02*
X2044Y10325D01*
X1939Y10325D02*
X1939Y10325D01*
X1939Y10325D02*
X2044D01*
X3860Y8298D02*
X3862Y8296D01*
X3949D01*
X954Y8801D02*
Y8809D01*
X817Y8770D02*
X923D01*
X954Y8801D01*
Y8809D02*
X1049D01*
X1054Y8814D01*
X1733Y7818D02*
Y7904D01*
X1727Y7810D02*
Y7812D01*
X1733Y7818D01*
D140*
X5546Y12012D02*
X5548Y12010D01*
X5461Y11992D02*
X5465D01*
X5485Y12012D01*
Y12048D02*
X5539D01*
X5485Y12012D02*
X5539D01*
X5539Y12012D01*
X5546D01*
X5628Y12010D02*
X5630Y12012D01*
X5636D01*
X5636Y12012D01*
X5716D01*
X5636Y12048D02*
X5716D01*
Y12012D02*
X5736Y11992D01*
X5740D01*
X5461Y12068D02*
X5465D01*
X5485Y12048D01*
X5539D02*
X5539Y12048D01*
X5546D01*
X5548Y12050D01*
X5628D02*
X5630Y12048D01*
X5636D01*
X5636Y12048D01*
X5716D02*
X5736Y12068D01*
X5740D01*
X5938Y926D02*
X5969Y957D01*
X5912Y890D02*
X5940D01*
X5969Y861D01*
X5912Y926D02*
X5938D01*
X5969Y957D02*
Y985D01*
X4784Y871D02*
Y877D01*
Y940D02*
Y947D01*
X3835Y875D02*
Y881D01*
Y944D02*
Y951D01*
X8571Y940D02*
Y947D01*
Y871D02*
Y877D01*
X5745Y871D02*
Y877D01*
Y940D02*
Y947D01*
X8644Y891D02*
X8646Y889D01*
X8584Y927D02*
X8637D01*
X8637Y891D02*
X8644D01*
X8637Y891D02*
X8637Y891D01*
X8637Y927D02*
X8637Y927D01*
X8571Y940D02*
X8584Y927D01*
X8637Y927D02*
X8644D01*
X8584Y891D02*
X8637D01*
X8571Y877D02*
X8584Y891D01*
X8644Y927D02*
X8646Y929D01*
X8847Y811D02*
Y819D01*
X8735Y891D02*
X8775D01*
X8847Y819D01*
X8821Y974D02*
Y985D01*
X8773Y927D02*
X8821Y974D01*
X8735Y927D02*
X8773D01*
X8735Y927D02*
X8735Y927D01*
X8728Y891D02*
X8735D01*
X8735Y891D01*
X8726Y929D02*
X8728Y927D01*
X8735D01*
X8726Y889D02*
X8728Y891D01*
X7783Y929D02*
X7785Y927D01*
X7791D02*
X7791Y927D01*
X7833D02*
X7896Y989D01*
X7785Y891D02*
X7791D01*
X7791Y891D01*
X7785Y927D02*
X7791D01*
X7791Y927D02*
X7833D01*
X7791Y891D02*
X7833D01*
X7783Y889D02*
X7785Y891D01*
X7833Y891D02*
X7896Y828D01*
X7701Y891D02*
X7703Y889D01*
X7627Y940D02*
X7641Y927D01*
X7694Y891D02*
X7701D01*
X7694Y927D02*
X7701D01*
X7694Y927D02*
X7694Y927D01*
X7694Y891D02*
X7694Y891D01*
X7641Y927D02*
X7694D01*
X7701Y927D02*
X7703Y929D01*
X7627Y940D02*
Y947D01*
Y877D02*
X7641Y891D01*
X7694D01*
X7627Y871D02*
Y877D01*
X5745Y940D02*
X5758Y927D01*
X5812Y891D02*
X5818D01*
X5758Y927D02*
X5811D01*
Y891D02*
X5812Y891D01*
X5758Y891D02*
X5811D01*
Y927D02*
X5812Y927D01*
X5818D01*
X5745Y877D02*
X5758Y891D01*
X5969Y836D02*
Y861D01*
Y836D02*
X5994Y811D01*
X4939Y889D02*
X4993D01*
X5043Y838D01*
Y811D02*
Y838D01*
X4948Y927D02*
X4994D01*
X5043Y977D02*
Y1011D01*
X4994Y927D02*
X5043Y977D01*
X4941Y927D02*
X4948D01*
X4948Y927D01*
X4939Y929D02*
X4941Y927D01*
X4857Y891D02*
X4859Y889D01*
X4797Y927D02*
X4850D01*
X4850Y891D02*
X4857D01*
X4797Y891D02*
X4850D01*
Y927D02*
X4850Y927D01*
X4857D01*
X4850Y891D02*
X4850Y891D01*
X4784Y877D02*
X4797Y891D01*
X4784Y940D02*
X4797Y927D01*
X4857Y927D02*
X4859Y929D01*
X3909Y895D02*
X3910Y893D01*
X3902Y895D02*
X3909D01*
X3902Y931D02*
X3909D01*
X3849Y931D02*
X3902D01*
Y895D02*
X3902Y895D01*
X3849Y895D02*
X3902D01*
X3909Y931D02*
X3910Y933D01*
X3902Y931D02*
X3902Y931D01*
X3835Y944D02*
X3849Y931D01*
X3835Y881D02*
X3849Y895D01*
X3823Y951D02*
X3835D01*
X4032Y895D02*
X4067Y859D01*
Y836D02*
Y859D01*
X3999Y895D02*
X4032D01*
X4067Y836D02*
X4093Y811D01*
X3992Y895D02*
X3999D01*
X3999Y895D01*
X3990Y893D02*
X3992Y895D01*
X4031Y933D02*
X4093Y994D01*
Y1011D01*
X3990Y933D02*
X4031D01*
X3705Y2885D02*
X3705Y2885D01*
X7616Y871D02*
X7627D01*
X7616Y947D02*
X7627D01*
X6760Y926D02*
X6762Y929D01*
X6675Y947D02*
X6687D01*
X6750Y926D02*
X6760D01*
X6749Y925D02*
X6750Y926D01*
X6709Y925D02*
X6749D01*
X6687Y947D02*
X6709Y925D01*
X6750Y891D02*
X6760D01*
X6762Y889D01*
X6709Y892D02*
X6749D01*
X6750Y891D01*
X6687Y871D02*
X6709Y892D01*
X6675Y871D02*
X6687D01*
X5733Y947D02*
X5745D01*
X5733Y871D02*
X5745D01*
X8559Y947D02*
X8571D01*
X8559Y871D02*
X8571D01*
X4772Y947D02*
X4784D01*
X4772Y871D02*
X4784D01*
X3823Y875D02*
X3835D01*
X5969Y985D02*
X5994Y1011D01*
X6855Y892D02*
X6890D01*
X6945Y811D02*
Y837D01*
X6890Y892D02*
X6945Y837D01*
X6854Y891D02*
X6855Y892D01*
X6842Y889D02*
X6845Y891D01*
X6854D01*
X6945Y979D02*
Y1011D01*
X6891Y925D02*
X6945Y979D01*
X7896Y811D02*
Y828D01*
Y989D02*
Y1011D01*
X8821Y985D02*
X8847Y1011D01*
X6947Y871D02*
X6955D01*
X6854Y926D02*
X6855Y925D01*
X6891D01*
X6842Y929D02*
X6845Y926D01*
X6854D01*
D141*
X7277Y5907D02*
X7298Y5928D01*
X7350D01*
X7268Y5907D02*
X7277D01*
X7350Y5928D02*
X7364Y5914D01*
X7443D01*
X1232Y6140D02*
Y6170D01*
Y6140D02*
X1270Y6102D01*
X1308D01*
D142*
X5476Y9627D02*
Y9652D01*
X5501D02*
X5598Y9748D01*
X5476Y9652D02*
X5501D01*
X5609Y9934D02*
X5618D01*
X5598Y9922D02*
X5609Y9934D01*
X5598Y9748D02*
Y9922D01*
X4133Y1472D02*
Y1504D01*
X4093Y1261D02*
Y1431D01*
X4133Y1472D01*
X4173Y1544D02*
X4245D01*
X4133Y1504D02*
X4173Y1544D01*
X5043Y1261D02*
Y1426D01*
X5089Y1471D02*
Y1504D01*
X5043Y1426D02*
X5089Y1471D01*
X5129Y1544D02*
X5201D01*
X5089Y1504D02*
X5129Y1544D01*
X6945Y1437D02*
X7001Y1493D01*
X6945Y1261D02*
Y1437D01*
X7001Y1493D02*
Y1504D01*
X7041Y1544D01*
X7113D01*
X5994Y1429D02*
X6045Y1480D01*
Y1504D02*
X6085Y1544D01*
X5994Y1261D02*
Y1429D01*
X6045Y1480D02*
Y1504D01*
X6085Y1544D02*
X6157D01*
X7896Y1427D02*
X7957Y1488D01*
X7997Y1544D02*
X8069D01*
X7957Y1504D02*
X7997Y1544D01*
X7896Y1261D02*
Y1427D01*
X7957Y1488D02*
Y1504D01*
X8913Y1495D02*
Y1504D01*
X8847Y1428D02*
X8913Y1495D01*
X8847Y1261D02*
Y1428D01*
X8913Y1504D02*
X8953Y1544D01*
X9025D01*
X10022Y10438D02*
X10109Y10350D01*
X9538Y10438D02*
X10022D01*
X10109Y8814D02*
Y10350D01*
X9935Y8640D02*
X10109Y8814D01*
X9538Y8640D02*
X9935D01*
X9082D02*
X9538D01*
X8861Y8419D02*
X9082Y8640D01*
X8648Y7056D02*
Y8207D01*
Y7056D02*
X8861Y6844D01*
X8648Y8207D02*
X8861Y8419D01*
X9140Y6310D02*
Y6565D01*
X8861Y6844D02*
X9140Y6565D01*
Y4735D02*
Y6310D01*
D143*
X7155Y7110D02*
X7474D01*
X7683Y6071D02*
Y6901D01*
X7487Y7143D02*
X7716Y6914D01*
X7155Y7143D02*
X7487D01*
X7716Y6084D02*
Y6914D01*
X7474Y7110D02*
X7683Y6901D01*
X7165Y6424D02*
X7187D01*
X7242D02*
Y6424D01*
X7447Y6289D02*
X7454Y6297D01*
X7511D02*
X7518Y6289D01*
Y5928D02*
Y6289D01*
X7440Y6329D02*
X7524D01*
X7414Y6058D02*
Y6303D01*
X7447Y6044D02*
Y6289D01*
X7454Y6297D02*
X7511D01*
X7414Y6303D02*
X7440Y6329D01*
X7524D02*
X7551Y6303D01*
Y5941D02*
Y6303D01*
Y5941D02*
X7574Y5918D01*
X7661D01*
X7741Y5838D01*
Y5648D02*
Y5838D01*
X7707Y5614D02*
X7741Y5648D01*
X7646Y5614D02*
X7707D01*
X7624Y5593D02*
X7646Y5614D01*
X7348Y6062D02*
X7369Y6041D01*
X7340Y6062D02*
X7348D01*
X7369Y6041D02*
X7397D01*
X7617Y5593D02*
X7624D01*
X7397Y6041D02*
X7414Y6058D01*
X7410Y6008D02*
X7447Y6044D01*
X7697Y5714D02*
X7709Y5703D01*
Y5662D02*
Y5703D01*
X7699Y5652D02*
X7709Y5662D01*
Y5807D02*
Y5824D01*
Y5764D02*
Y5807D01*
X7683Y5752D02*
X7697D01*
X7709Y5764D01*
X7683Y5714D02*
X7697D01*
X7672Y5726D02*
X7683Y5714D01*
X7694Y5647D02*
X7699Y5652D01*
X7348Y5986D02*
X7369Y6008D01*
X7410D01*
X7340Y5986D02*
X7348D01*
X7672Y5741D02*
X7683Y5752D01*
X7672Y5726D02*
Y5741D01*
X7647Y5885D02*
X7709Y5824D01*
X7646Y5647D02*
X7694D01*
X7518Y5928D02*
X7561Y5885D01*
X7647D01*
X7624Y5669D02*
X7646Y5647D01*
X7617Y5669D02*
X7624D01*
X7333Y5786D02*
X7333Y5786D01*
Y5808D01*
X7332Y5862D02*
X7333D01*
X6667Y7143D02*
X6685D01*
X6704Y7162D01*
Y7209D01*
X6742Y7247D01*
X6794D01*
X6832Y7209D01*
Y7035D02*
Y7209D01*
Y7035D02*
X6851Y7016D01*
X6877D01*
X6896Y7035D01*
Y7215D01*
X6934Y7253D01*
X6986D01*
X7024Y7215D01*
Y7035D02*
Y7215D01*
Y7035D02*
X7043Y7016D01*
X7069D01*
X7087Y7035D01*
Y7105D01*
X7126Y7143D01*
X7155D01*
X6667Y7110D02*
X6698D01*
X6737Y7148D01*
Y7195D01*
X6756Y7214D01*
X6781D01*
X6800Y7195D01*
Y7021D02*
Y7195D01*
Y7021D02*
X6838Y6983D01*
X6890D01*
X6928Y7021D01*
Y7202D01*
X6947Y7221D01*
X6973D01*
X6992Y7202D01*
Y7021D02*
Y7202D01*
Y7021D02*
X7030Y6983D01*
X7082D01*
X7120Y7021D01*
Y7091D01*
X7139Y7110D01*
X7155D01*
X5946Y7143D02*
X6667D01*
X6155Y7110D02*
X6667D01*
X6140D02*
X6155D01*
X6129Y7099D02*
X6140Y7110D01*
X6129Y7083D02*
Y7099D01*
X6117Y7072D02*
X6129Y7083D01*
X6102Y7072D02*
X6117D01*
X6091Y7083D02*
X6102Y7072D01*
X6091Y7083D02*
Y7099D01*
X6080Y7110D02*
X6091Y7099D01*
X6065Y7110D02*
X6080D01*
X6053Y7099D02*
X6065Y7110D01*
X6053Y7083D02*
Y7099D01*
X6042Y7072D02*
X6053Y7083D01*
X6027Y7072D02*
X6042D01*
X6015Y7083D02*
X6027Y7072D01*
X6015Y7083D02*
Y7099D01*
X6004Y7110D02*
X6015Y7099D01*
X5960Y7110D02*
X6004D01*
X5946D02*
X5960D01*
X5924Y7088D02*
X5946Y7110D01*
X7782Y5550D02*
Y5771D01*
X7724Y6030D02*
X7808D01*
X7858Y5801D02*
Y6026D01*
X7821Y6063D02*
X7858Y6026D01*
X7808Y6030D02*
X7825Y6012D01*
Y5814D02*
Y6012D01*
X7737Y6063D02*
X7821D01*
X7683Y6071D02*
X7724Y6030D01*
X7716Y6084D02*
X7737Y6063D01*
X7782Y5771D02*
X7825Y5814D01*
X7738Y5521D02*
X7753D01*
X7782Y5550D01*
X7716Y5542D02*
X7738Y5521D01*
X7709Y5542D02*
X7716D01*
X7814Y5757D02*
X7858Y5801D01*
X7814Y5536D02*
Y5757D01*
X7766Y5488D02*
X7814Y5536D01*
X7738Y5488D02*
X7766D01*
X7716Y5466D02*
X7738Y5488D01*
X7709Y5466D02*
X7716D01*
X5924Y7165D02*
X5946Y7143D01*
X5917Y7165D02*
X5924D01*
X5917Y7088D02*
X5924D01*
D144*
X2105Y14179D02*
D03*
X2359D02*
D03*
X660Y1473D02*
D03*
Y1727D02*
D03*
Y1219D02*
D03*
X6229Y3256D02*
D03*
Y2748D02*
D03*
Y3002D02*
D03*
X178Y1575D02*
D03*
X5935Y3252D02*
D03*
X178Y1067D02*
D03*
Y1321D02*
D03*
X8867Y4153D02*
D03*
Y3873D02*
D03*
X5935Y2744D02*
D03*
X8613Y4153D02*
D03*
Y3873D02*
D03*
X8359D02*
D03*
Y4153D02*
D03*
X5935Y2998D02*
D03*
D145*
X5356Y12280D02*
D03*
D146*
Y10280D02*
D03*
D147*
X331Y11283D02*
D03*
D148*
X9940Y5931D02*
D03*
Y5114D02*
D03*
Y6185D02*
D03*
Y4860D02*
D03*
D149*
X8288Y9936D02*
D03*
Y9141D02*
D03*
X8005Y5205D02*
D03*
X8259Y5078D02*
D03*
X8005Y5459D02*
D03*
X8259Y5332D02*
D03*
X8005Y5713D02*
D03*
X8259Y5586D02*
D03*
X8005Y5967D02*
D03*
X8259Y5840D02*
D03*
X8288Y10190D02*
D03*
Y8887D02*
D03*
X8259Y6094D02*
D03*
D150*
X9538Y9336D02*
D03*
X9388Y9235D02*
D03*
Y9844D02*
D03*
X9538Y9945D02*
D03*
Y9742D02*
D03*
X9388Y9641D02*
D03*
Y9032D02*
D03*
X9538Y9133D02*
D03*
X9388Y9438D02*
D03*
X9538Y9539D02*
D03*
Y8930D02*
D03*
X9040Y8807D02*
D03*
X8837D02*
D03*
X9040Y10270D02*
D03*
X8837D02*
D03*
D151*
X8005Y4951D02*
D03*
D152*
X9388Y10047D02*
D03*
D153*
X6229Y3510D02*
D03*
X5935Y3506D02*
D03*
X178Y1829D02*
D03*
D154*
X6245Y11004D02*
D03*
Y11258D02*
D03*
Y11512D02*
D03*
X7209Y9985D02*
D03*
Y9731D02*
D03*
X6955Y9477D02*
D03*
Y8715D02*
D03*
X7209Y10239D02*
D03*
X6955Y9985D02*
D03*
Y9731D02*
D03*
X7209Y9477D02*
D03*
X6245Y11766D02*
D03*
Y12020D02*
D03*
Y12274D02*
D03*
Y12528D02*
D03*
X6499Y11766D02*
D03*
Y12274D02*
D03*
Y12528D02*
D03*
Y11258D02*
D03*
X6955Y10239D02*
D03*
Y8969D02*
D03*
X6499Y12020D02*
D03*
X6955Y9223D02*
D03*
X7209D02*
D03*
X6499Y11512D02*
D03*
X7209Y8969D02*
D03*
D155*
X9801Y7314D02*
D03*
X10055Y7187D02*
D03*
Y7695D02*
D03*
X9801Y7568D02*
D03*
Y7822D02*
D03*
X10055Y7441D02*
D03*
Y7949D02*
D03*
D156*
X9801Y8076D02*
D03*
D157*
X9538Y10438D02*
D03*
Y8640D02*
D03*
X9140Y6310D02*
D03*
Y4735D02*
D03*
D158*
X8861Y6844D02*
D03*
Y8419D02*
D03*
D159*
X7896Y1261D02*
D03*
X6945D02*
D03*
X8847D02*
D03*
X4093D02*
D03*
X5043D02*
D03*
X5994D02*
D03*
D160*
X8814Y13209D02*
D03*
D161*
X9848Y12517D02*
D03*
Y10993D02*
D03*
D162*
Y12136D02*
D03*
X7054Y11755D02*
D03*
X1134Y13951D02*
D03*
X7054Y10993D02*
D03*
X9848Y11755D02*
D03*
Y11374D02*
D03*
D163*
X9770Y2506D02*
D03*
Y3522D02*
D03*
Y1998D02*
D03*
Y3014D02*
D03*
Y1490D02*
D03*
D164*
X7054Y12517D02*
D03*
X1642Y13951D02*
D03*
D165*
X8847Y1011D02*
D03*
Y811D02*
D03*
X7896Y1011D02*
D03*
Y811D02*
D03*
X6945Y1011D02*
D03*
Y811D02*
D03*
X5994Y1011D02*
D03*
Y811D02*
D03*
X5043Y1011D02*
D03*
Y811D02*
D03*
X4093Y1011D02*
D03*
Y811D02*
D03*
Y561D02*
D03*
X5043D02*
D03*
X5994D02*
D03*
X7896D02*
D03*
X6945D02*
D03*
X8847D02*
D03*
D166*
X2582Y1673D02*
D03*
X3070D02*
D03*
D167*
X3822Y1568D02*
D03*
Y254D02*
D03*
X4772Y1568D02*
D03*
Y254D02*
D03*
X5723Y1568D02*
D03*
Y254D02*
D03*
X7625Y1568D02*
D03*
Y254D02*
D03*
X6674Y1568D02*
D03*
Y254D02*
D03*
X8576Y1568D02*
D03*
Y254D02*
D03*
D168*
X8334Y13499D02*
D03*
D169*
X8814Y13839D02*
D03*
D170*
X7209Y8715D02*
D03*
X6499Y11004D02*
D03*
D171*
X1228Y489D02*
D03*
X1713D02*
D03*
D172*
X1198Y186D02*
D03*
X1743D02*
D03*
D173*
X9770Y4030D02*
D03*
D174*
X9529Y4951D02*
D03*
Y6094D02*
D03*
D175*
X5397Y5974D02*
D03*
X597D02*
D03*
X5397Y2674D02*
D03*
X597D02*
D03*
D176*
X2916Y9301D02*
D03*
X506D02*
D03*
X5306Y9336D02*
D03*
D177*
X506Y6881D02*
D03*
X2916D02*
D03*
X5306Y6836D02*
D03*
D178*
X9166Y8203D02*
D03*
Y7060D02*
D03*
D179*
X8639Y9038D02*
D03*
Y10039D02*
D03*
D180*
X400Y400D02*
D03*
X9811Y400D02*
D03*
X400Y13992D02*
D03*
X9811Y13992D02*
D03*
D181*
X2349Y13573D02*
D03*
X2093Y13722D02*
D03*
X2042Y13861D02*
D03*
X2181Y13696D02*
D03*
X3423Y13720D02*
D03*
X3331Y13998D02*
D03*
X2685Y14026D02*
D03*
X2794Y14021D02*
D03*
X3175Y13806D02*
D03*
Y13700D02*
D03*
X4691Y12653D02*
D03*
X4805D02*
D03*
X5025Y12484D02*
D03*
X1441Y13072D02*
D03*
X5293Y11575D02*
D03*
X1610Y12871D02*
D03*
X1363Y13588D02*
D03*
X7541Y10026D02*
D03*
X5267Y10578D02*
D03*
X6046Y10627D02*
D03*
X5270Y12155D02*
D03*
X5461Y11992D02*
D03*
Y12068D02*
D03*
X4991Y12078D02*
D03*
X5270Y12027D02*
D03*
X4654Y9434D02*
D03*
X4734Y9186D02*
D03*
X5607Y10403D02*
D03*
X5575Y10465D02*
D03*
X5646Y10466D02*
D03*
X5675Y10396D02*
D03*
X5715Y10465D02*
D03*
X5699Y10559D02*
D03*
X6028Y10957D02*
D03*
X6026Y10554D02*
D03*
X6028Y11407D02*
D03*
Y10807D02*
D03*
Y11107D02*
D03*
Y11557D02*
D03*
Y11257D02*
D03*
Y10420D02*
D03*
Y10327D02*
D03*
X4991Y11976D02*
D03*
X5588Y11951D02*
D03*
X5740Y11900D02*
D03*
X5740Y11992D02*
D03*
Y12068D02*
D03*
Y12155D02*
D03*
X6020Y12128D02*
D03*
X6007Y12319D02*
D03*
X4991Y11328D02*
D03*
Y11430D02*
D03*
X5258Y11379D02*
D03*
X5804Y10135D02*
D03*
X1403Y12789D02*
D03*
X381Y11760D02*
D03*
X1270Y11747D02*
D03*
X1403Y12586D02*
D03*
Y12332D02*
D03*
X1613Y12230D02*
D03*
X1613Y12484D02*
D03*
X1866Y12382D02*
D03*
X1867Y12614D02*
D03*
Y12738D02*
D03*
Y11857D02*
D03*
X393Y13437D02*
D03*
X7821Y4280D02*
D03*
X7709Y4216D02*
D03*
X4381Y13818D02*
D03*
X4216Y12967D02*
D03*
X2933Y13252D02*
D03*
X3022D02*
D03*
X2956Y13360D02*
D03*
X2861D02*
D03*
X3061D02*
D03*
X2507Y13322D02*
D03*
X3764Y13449D02*
D03*
X2933Y13169D02*
D03*
X3022D02*
D03*
X2933Y13087D02*
D03*
X3022D02*
D03*
X2933Y13005D02*
D03*
X3022D02*
D03*
X3967Y13297D02*
D03*
X4115Y13983D02*
D03*
X3995Y13776D02*
D03*
Y13610D02*
D03*
X3175Y13487D02*
D03*
X3175Y13589D02*
D03*
X4743Y5552D02*
D03*
X4803Y5599D02*
D03*
X3345Y9382D02*
D03*
X2088Y5774D02*
D03*
X2046Y5958D02*
D03*
X2197Y5486D02*
D03*
X2399Y234D02*
D03*
X2313Y235D02*
D03*
X2671Y1333D02*
D03*
X2560Y1410D02*
D03*
X1706Y1607D02*
D03*
X1783D02*
D03*
X3264Y965D02*
D03*
X3162Y851D02*
D03*
X3160Y940D02*
D03*
X2893Y1003D02*
D03*
X2819Y1321D02*
D03*
X2514Y5270D02*
D03*
X2438Y5954D02*
D03*
X2407Y6073D02*
D03*
X2931Y10010D02*
D03*
X2794Y10592D02*
D03*
X3048Y10274D02*
D03*
X2870Y10223D02*
D03*
X2480Y9221D02*
D03*
X2334Y8917D02*
D03*
X2378Y9330D02*
D03*
X2432Y9273D02*
D03*
X2506Y5765D02*
D03*
X2527Y5690D02*
D03*
X2603D02*
D03*
X2687Y5775D02*
D03*
X2712Y6044D02*
D03*
X2687Y5969D02*
D03*
X8179Y10884D02*
D03*
X2325Y9383D02*
D03*
X2426Y9381D02*
D03*
X1592Y2838D02*
D03*
X1588Y2983D02*
D03*
X1590Y3098D02*
D03*
X1593Y3231D02*
D03*
X2006Y13455D02*
D03*
X3655Y7981D02*
D03*
X1389Y2083D02*
D03*
X1387Y1975D02*
D03*
X2010Y1708D02*
D03*
X8348Y2107D02*
D03*
X6926Y2763D02*
D03*
X7203Y3327D02*
D03*
X7214Y2470D02*
D03*
X7692Y2093D02*
D03*
X7823Y3467D02*
D03*
X7803Y2624D02*
D03*
X7726Y2946D02*
D03*
X2703Y162D02*
D03*
X5879Y2135D02*
D03*
X5877Y2037D02*
D03*
X5879Y1876D02*
D03*
X5043Y1830D02*
D03*
X5118Y1828D02*
D03*
X6772Y1920D02*
D03*
X9271Y2039D02*
D03*
Y1935D02*
D03*
Y2134D02*
D03*
X6567Y3181D02*
D03*
X6205Y4059D02*
D03*
X5440Y8261D02*
D03*
X5054Y7899D02*
D03*
X5452Y8027D02*
D03*
X5562Y8026D02*
D03*
X2270Y10817D02*
D03*
X2278Y10927D02*
D03*
X2565Y10665D02*
D03*
X5050Y13388D02*
D03*
X5080Y13449D02*
D03*
X4735Y13350D02*
D03*
X4733Y13430D02*
D03*
X4915Y13335D02*
D03*
X7272Y14063D02*
D03*
X6622Y14062D02*
D03*
X7398Y13362D02*
D03*
X7753Y13718D02*
D03*
X7224Y13940D02*
D03*
X7270Y13992D02*
D03*
X6515Y13956D02*
D03*
X6566Y14008D02*
D03*
X8496Y3145D02*
D03*
X8509Y2286D02*
D03*
X7295Y8185D02*
D03*
X7963Y10109D02*
D03*
X8839Y6490D02*
D03*
X8852Y6579D02*
D03*
X6178Y8957D02*
D03*
X7380Y7877D02*
D03*
X3766Y13088D02*
D03*
X5346Y13741D02*
D03*
X2108Y6058D02*
D03*
X2173Y5972D02*
D03*
X2895Y1321D02*
D03*
X3048Y1232D02*
D03*
X2846Y1067D02*
D03*
X2745Y1333D02*
D03*
X6921Y6490D02*
D03*
X3629Y5766D02*
D03*
X7165Y6424D02*
D03*
X3705Y5766D02*
D03*
X7242Y6424D02*
D03*
X7617Y5593D02*
D03*
X7340Y6062D02*
D03*
Y5986D02*
D03*
X7617Y5669D02*
D03*
X7605Y6510D02*
D03*
X7759Y5974D02*
D03*
X7618Y5241D02*
D03*
X7759Y5898D02*
D03*
X7618Y5317D02*
D03*
X7611Y6066D02*
D03*
X7617Y5819D02*
D03*
X7611Y6142D02*
D03*
X7617Y5743D02*
D03*
X7618Y5167D02*
D03*
X7333Y5786D02*
D03*
Y5862D02*
D03*
X7618Y5091D02*
D03*
X7241Y5238D02*
D03*
X8077Y9290D02*
D03*
X7241Y5162D02*
D03*
X8077Y9366D02*
D03*
X7601Y4770D02*
D03*
X8077Y9140D02*
D03*
X7677Y4770D02*
D03*
X8077Y9216D02*
D03*
X7657Y5022D02*
D03*
X8077Y9634D02*
D03*
X7742D02*
D03*
X7657Y4946D02*
D03*
X8077Y9710D02*
D03*
X7742D02*
D03*
X7155Y5012D02*
D03*
X8077Y9860D02*
D03*
X7155Y4936D02*
D03*
X8077Y9784D02*
D03*
X7742Y9860D02*
D03*
Y9784D02*
D03*
Y9140D02*
D03*
Y9216D02*
D03*
Y9290D02*
D03*
Y9366D02*
D03*
X3160Y5982D02*
D03*
X7315Y5260D02*
D03*
X3513Y14056D02*
D03*
X3855Y13947D02*
D03*
X2326Y6076D02*
D03*
X2845Y5646D02*
D03*
X3810Y4574D02*
D03*
X1770Y6962D02*
D03*
X7122Y5293D02*
D03*
Y5370D02*
D03*
X6931Y5057D02*
D03*
X7274Y4597D02*
D03*
X7457Y4691D02*
D03*
X7191Y4597D02*
D03*
X7367Y4855D02*
D03*
X7368Y6406D02*
D03*
X1122Y861D02*
D03*
X1003Y1580D02*
D03*
X4084Y5373D02*
D03*
X7132Y4377D02*
D03*
X7226Y4382D02*
D03*
X7378Y7807D02*
D03*
Y8188D02*
D03*
X8153Y13253D02*
D03*
X8047Y13449D02*
D03*
X2527Y6693D02*
D03*
X3646Y1778D02*
D03*
X3653Y1944D02*
D03*
X3353Y1613D02*
D03*
Y1778D02*
D03*
Y1943D02*
D03*
X1346Y2509D02*
D03*
Y2667D02*
D03*
Y2817D02*
D03*
Y2959D02*
D03*
Y3099D02*
D03*
Y3238D02*
D03*
X1003Y6363D02*
D03*
X1257D02*
D03*
X1132D02*
D03*
X3831Y12847D02*
D03*
X4250Y14096D02*
D03*
X2771Y2369D02*
D03*
X3705Y2885D02*
D03*
X3629D02*
D03*
X2524Y2579D02*
D03*
X4439Y2368D02*
D03*
X6100Y2342D02*
D03*
X2013Y1962D02*
D03*
X1644Y1914D02*
D03*
X1384Y1880D02*
D03*
X1473Y1881D02*
D03*
X6986Y4403D02*
D03*
X6852Y4392D02*
D03*
X6722Y4465D02*
D03*
X6573Y4401D02*
D03*
X9721Y5528D02*
D03*
X3446Y5766D02*
D03*
X3348Y5459D02*
D03*
X3740Y6736D02*
D03*
X3326Y6731D02*
D03*
X3080Y6383D02*
D03*
X3006Y6083D02*
D03*
X2967Y6274D02*
D03*
X3377Y5957D02*
D03*
X1888Y5718D02*
D03*
X1920Y5587D02*
D03*
X2845Y5739D02*
D03*
X3204Y6681D02*
D03*
X3282Y7049D02*
D03*
X3249Y6936D02*
D03*
X1927Y6083D02*
D03*
X1767D02*
D03*
X1927Y6274D02*
D03*
X7235Y5746D02*
D03*
X2044Y718D02*
D03*
Y642D02*
D03*
X6675Y947D02*
D03*
Y871D02*
D03*
X7268Y5907D02*
D03*
X3509Y5702D02*
D03*
X3585D02*
D03*
X7322Y6152D02*
D03*
X7246Y6152D02*
D03*
X7036Y6084D02*
D03*
X7112Y6083D02*
D03*
X3509Y6274D02*
D03*
X3585D02*
D03*
X3629Y6363D02*
D03*
X3705D02*
D03*
X7042Y6421D02*
D03*
X6965D02*
D03*
X7709Y5542D02*
D03*
Y5466D02*
D03*
X5917Y7165D02*
D03*
Y7088D02*
D03*
X6497Y2700D02*
D03*
X1927Y6388D02*
D03*
X7585Y2092D02*
D03*
X2840Y5956D02*
D03*
X2817Y6060D02*
D03*
X7082Y4059D02*
D03*
X6807Y4064D02*
D03*
X6624Y4059D02*
D03*
X6345D02*
D03*
X2997Y4966D02*
D03*
X3247Y5956D02*
D03*
X3276Y6070D02*
D03*
X3340Y6274D02*
D03*
X3276Y5669D02*
D03*
X3127D02*
D03*
Y5550D02*
D03*
X2967Y5669D02*
D03*
Y5550D02*
D03*
X330Y7709D02*
D03*
X127Y7506D02*
D03*
X343Y7925D02*
D03*
X101Y8039D02*
D03*
X2367Y6502D02*
D03*
X2895Y6060D02*
D03*
X8755Y11060D02*
D03*
Y11285D02*
D03*
X8980Y11060D02*
D03*
X8979Y11285D02*
D03*
X8866Y11173D02*
D03*
X7616Y871D02*
D03*
Y947D02*
D03*
X4078Y13691D02*
D03*
X3193Y11780D02*
D03*
Y12018D02*
D03*
X3372Y11780D02*
D03*
Y12018D02*
D03*
X3290Y11905D02*
D03*
X4487Y5766D02*
D03*
Y5905D02*
D03*
X4718Y5766D02*
D03*
Y5905D02*
D03*
X4607Y5837D02*
D03*
X7954Y10239D02*
D03*
X5369Y10790D02*
D03*
X3251Y7955D02*
D03*
X3072D02*
D03*
X3073Y8204D02*
D03*
X3251D02*
D03*
X3169Y8084D02*
D03*
X1333Y10008D02*
D03*
X1155D02*
D03*
X1156Y10241D02*
D03*
X1333D02*
D03*
X1249Y10129D02*
D03*
X8001Y7578D02*
D03*
Y7654D02*
D03*
X8191Y7544D02*
D03*
X5917Y7927D02*
D03*
Y7850D02*
D03*
X7250Y5417D02*
D03*
Y5494D02*
D03*
X5917Y7698D02*
D03*
Y7774D02*
D03*
Y7012D02*
D03*
Y6936D02*
D03*
X8001Y6892D02*
D03*
Y6816D02*
D03*
Y7273D02*
D03*
Y7197D02*
D03*
Y7959D02*
D03*
Y8035D02*
D03*
X8559Y947D02*
D03*
X2324Y542D02*
D03*
X8559Y871D02*
D03*
X2324Y618D02*
D03*
X4772Y871D02*
D03*
Y947D02*
D03*
X2636Y1410D02*
D03*
X3823Y951D02*
D03*
Y875D02*
D03*
X2341Y868D02*
D03*
Y792D02*
D03*
X1733Y1194D02*
D03*
X1656D02*
D03*
X1400Y914D02*
D03*
X1476D02*
D03*
X1756Y1486D02*
D03*
X1833D02*
D03*
X2332Y705D02*
D03*
X2019Y851D02*
D03*
X2159Y1134D02*
D03*
X2349Y1009D02*
D03*
X2044Y1130D02*
D03*
X2037Y1041D02*
D03*
X2768Y216D02*
D03*
X2641D02*
D03*
X2668Y496D02*
D03*
X2565Y492D02*
D03*
X2552Y216D02*
D03*
X2476D02*
D03*
X2438Y483D02*
D03*
X2044Y381D02*
D03*
Y508D02*
D03*
X2311Y1333D02*
D03*
X2489D02*
D03*
X2616Y853D02*
D03*
X2538Y1067D02*
D03*
X2891Y915D02*
D03*
X2745Y1063D02*
D03*
X3251Y579D02*
D03*
Y711D02*
D03*
X3264Y855D02*
D03*
X3162Y737D02*
D03*
X2891Y616D02*
D03*
Y749D02*
D03*
X1862Y869D02*
D03*
X1346Y619D02*
D03*
X1532Y622D02*
D03*
X1003Y1460D02*
D03*
X1234Y1194D02*
D03*
Y1607D02*
D03*
X2015Y1397D02*
D03*
X1924Y2159D02*
D03*
X1727Y2083D02*
D03*
X1869Y1200D02*
D03*
X2959Y1943D02*
D03*
X2777Y2025D02*
D03*
X5733Y947D02*
D03*
X8686Y830D02*
D03*
X7743D02*
D03*
X6802D02*
D03*
X5860D02*
D03*
X5733Y871D02*
D03*
X4899Y830D02*
D03*
X3950Y834D02*
D03*
X3727Y2680D02*
D03*
X1807Y2372D02*
D03*
X1927D02*
D03*
X2047D02*
D03*
X2167D02*
D03*
X2287D02*
D03*
X2407D02*
D03*
X2647D02*
D03*
X2887D02*
D03*
X3007D02*
D03*
X3127D02*
D03*
X3247D02*
D03*
X3367D02*
D03*
X3487D02*
D03*
X3607D02*
D03*
Y2680D02*
D03*
X3487D02*
D03*
X3367D02*
D03*
X3247D02*
D03*
X3127D02*
D03*
X3007D02*
D03*
X2647D02*
D03*
X2527D02*
D03*
X2407D02*
D03*
X2287D02*
D03*
X2167D02*
D03*
X2047D02*
D03*
X1927D02*
D03*
X1807D02*
D03*
X3988Y3645D02*
D03*
X4432D02*
D03*
X4203D02*
D03*
X4432Y4280D02*
D03*
X4229D02*
D03*
X4000D02*
D03*
X5517Y4216D02*
D03*
Y3836D02*
D03*
X5308Y3607D02*
D03*
X3111D02*
D03*
X355Y3543D02*
D03*
X355Y3251D02*
D03*
X438Y3601D02*
D03*
X431Y4318D02*
D03*
X444Y4191D02*
D03*
X2396Y3404D02*
D03*
X2400Y3797D02*
D03*
X2394Y4000D02*
D03*
X2400Y4204D02*
D03*
Y4407D02*
D03*
Y4597D02*
D03*
Y4801D02*
D03*
X2247Y5970D02*
D03*
X2647Y6502D02*
D03*
X2807D02*
D03*
X2967Y5778D02*
D03*
X3017Y5969D02*
D03*
X3127Y5778D02*
D03*
X3327D02*
D03*
X3487Y5956D02*
D03*
X3727D02*
D03*
X3607D02*
D03*
X3721Y6083D02*
D03*
X3607D02*
D03*
X3487D02*
D03*
X3247Y6274D02*
D03*
X2807Y6388D02*
D03*
Y6274D02*
D03*
X2647Y6388D02*
D03*
Y6274D02*
D03*
X2567Y6083D02*
D03*
X2527Y6274D02*
D03*
X2367Y6388D02*
D03*
Y6274D02*
D03*
X2167D02*
D03*
X2037D02*
D03*
X927Y6036D02*
D03*
X1016Y5839D02*
D03*
X1232Y6170D02*
D03*
X1132Y6236D02*
D03*
X2355Y5486D02*
D03*
X1837Y5982D02*
D03*
X1997Y5766D02*
D03*
X1927Y5982D02*
D03*
X1807Y5668D02*
D03*
Y5766D02*
D03*
X1352Y5747D02*
D03*
X1575Y5901D02*
D03*
X2730Y5093D02*
D03*
X3543Y4966D02*
D03*
X3264Y5098D02*
D03*
X4335Y2252D02*
D03*
X4216Y1859D02*
D03*
Y1776D02*
D03*
X5194Y2197D02*
D03*
X5194Y1829D02*
D03*
X4972Y2108D02*
D03*
X4978Y2012D02*
D03*
X5880Y1956D02*
D03*
X5989Y2337D02*
D03*
X6629Y2205D02*
D03*
Y2110D02*
D03*
X6839Y1918D02*
D03*
X6706D02*
D03*
Y2234D02*
D03*
X6839Y2261D02*
D03*
X6972Y2210D02*
D03*
X7113D02*
D03*
X7251D02*
D03*
Y2346D02*
D03*
X4000Y1944D02*
D03*
Y2142D02*
D03*
Y2039D02*
D03*
X5447Y2134D02*
D03*
Y1935D02*
D03*
Y2039D02*
D03*
X8315Y1935D02*
D03*
Y2039D02*
D03*
X7504Y3464D02*
D03*
X7485Y2624D02*
D03*
X8260Y2527D02*
D03*
X8240Y3371D02*
D03*
X8240Y2893D02*
D03*
X7251Y2946D02*
D03*
X7252Y3072D02*
D03*
X6497Y2613D02*
D03*
X6655Y3435D02*
D03*
X7074Y3437D02*
D03*
X7083Y3072D02*
D03*
X8123Y4590D02*
D03*
X5964Y6314D02*
D03*
X5748Y6332D02*
D03*
X6152Y5991D02*
D03*
X5829Y5755D02*
D03*
Y5884D02*
D03*
X5829Y6004D02*
D03*
X6074Y6084D02*
D03*
X5834Y6124D02*
D03*
X6724Y5945D02*
D03*
X6741Y6151D02*
D03*
X6670Y6405D02*
D03*
X6640Y6151D02*
D03*
X6395Y6399D02*
D03*
X6154Y6401D02*
D03*
X6705Y6586D02*
D03*
X6272Y6403D02*
D03*
X6464Y6157D02*
D03*
X6545Y6405D02*
D03*
X6824D02*
D03*
X6835Y6151D02*
D03*
X6944Y6152D02*
D03*
X7103Y6467D02*
D03*
X6504Y5273D02*
D03*
Y5504D02*
D03*
Y5736D02*
D03*
X6724D02*
D03*
Y5273D02*
D03*
X6944D02*
D03*
Y5504D02*
D03*
Y5736D02*
D03*
X6724Y5504D02*
D03*
X7370Y5494D02*
D03*
X7362Y4946D02*
D03*
X7274Y4867D02*
D03*
X7198D02*
D03*
X7108Y4863D02*
D03*
X7616Y5422D02*
D03*
X7172Y5603D02*
D03*
Y5526D02*
D03*
X7235Y5666D02*
D03*
X7333Y5669D02*
D03*
X7869Y5706D02*
D03*
X7861Y5205D02*
D03*
X6543Y7045D02*
D03*
X6210Y7422D02*
D03*
X6528Y7808D02*
D03*
X6204Y8188D02*
D03*
X4188Y9908D02*
D03*
X4013Y10295D02*
D03*
X3932Y9971D02*
D03*
X4915Y10122D02*
D03*
X5131Y6247D02*
D03*
X5042Y5436D02*
D03*
Y5332D02*
D03*
Y5235D02*
D03*
X5143Y5436D02*
D03*
Y5332D02*
D03*
Y5235D02*
D03*
X6350Y4877D02*
D03*
X5817Y5353D02*
D03*
X9208Y8881D02*
D03*
X8954Y9251D02*
D03*
X9208Y9557D02*
D03*
X8954Y9928D02*
D03*
X8283Y8014D02*
D03*
X8283Y8395D02*
D03*
X8283Y7252D02*
D03*
X1820Y9960D02*
D03*
X577Y8687D02*
D03*
X330Y7823D02*
D03*
X1054Y8924D02*
D03*
X101Y8153D02*
D03*
Y7379D02*
D03*
X4292Y13983D02*
D03*
X5964Y9043D02*
D03*
X5067Y8865D02*
D03*
X5155Y12471D02*
D03*
X5537Y7866D02*
D03*
X7402Y13078D02*
D03*
X8610Y9550D02*
D03*
X9537Y11358D02*
D03*
Y11255D02*
D03*
Y11151D02*
D03*
Y11047D02*
D03*
X8966Y11532D02*
D03*
X8979Y11717D02*
D03*
X8701Y10520D02*
D03*
X3422Y13820D02*
D03*
X3810Y14217D02*
D03*
X4457Y13716D02*
D03*
X5715Y12738D02*
D03*
Y12827D02*
D03*
X5616Y12738D02*
D03*
X5524D02*
D03*
Y12827D02*
D03*
X5617Y12826D02*
D03*
X1046Y13288D02*
D03*
X757Y13288D02*
D03*
X4457Y13813D02*
D03*
X5571Y13886D02*
D03*
X4521Y13094D02*
D03*
X1329Y13288D02*
D03*
X4203Y13995D02*
D03*
X7556Y12548D02*
D03*
X4379Y13666D02*
D03*
X4077Y13297D02*
D03*
X6204Y13093D02*
D03*
X8953Y9557D02*
D03*
X8954Y9145D02*
D03*
X5448Y14186D02*
D03*
X4661Y13856D02*
D03*
X4889Y14010D02*
D03*
X4748Y13610D02*
D03*
X2400Y13039D02*
D03*
X3899Y13398D02*
D03*
X4051Y13411D02*
D03*
X7247Y13289D02*
D03*
Y13398D02*
D03*
X7150Y13398D02*
D03*
X6526Y13218D02*
D03*
X7747Y13805D02*
D03*
X7391Y13691D02*
D03*
X7402Y13273D02*
D03*
Y13180D02*
D03*
X7247Y13159D02*
D03*
X6528Y13322D02*
D03*
Y13411D02*
D03*
X6426D02*
D03*
X9208Y9928D02*
D03*
Y9251D02*
D03*
X8909Y10536D02*
D03*
X8708Y11519D02*
D03*
Y11717D02*
D03*
X8179Y11659D02*
D03*
Y11354D02*
D03*
Y11204D02*
D03*
Y11043D02*
D03*
X8177Y10552D02*
D03*
X8179Y11506D02*
D03*
Y10719D02*
D03*
X8724Y12471D02*
D03*
X7734Y12278D02*
D03*
X8433Y10516D02*
D03*
X4191Y9258D02*
D03*
X4305Y9182D02*
D03*
X4399D02*
D03*
X4496D02*
D03*
X3331Y14186D02*
D03*
X2654Y12878D02*
D03*
X2651Y12784D02*
D03*
Y12700D02*
D03*
X2654Y12598D02*
D03*
X1713Y13046D02*
D03*
X1928Y13044D02*
D03*
X2146Y13042D02*
D03*
X3422Y13510D02*
D03*
X4235Y14224D02*
D03*
X4009Y14313D02*
D03*
X4570Y13398D02*
D03*
X8866Y10820D02*
D03*
X8610Y12167D02*
D03*
X7734Y12179D02*
D03*
X8852Y12768D02*
D03*
X7607Y12763D02*
D03*
X4318Y11213D02*
D03*
X4419Y11214D02*
D03*
X4521D02*
D03*
X4318Y11106D02*
D03*
X4419Y11106D02*
D03*
X4521D02*
D03*
Y10998D02*
D03*
X4089Y12117D02*
D03*
X5905Y8852D02*
D03*
X5550Y8741D02*
D03*
X5054Y9260D02*
D03*
X4724Y6947D02*
D03*
X4863Y10516D02*
D03*
X4838Y10427D02*
D03*
X4842Y10338D02*
D03*
X4665Y13398D02*
D03*
X5004Y13335D02*
D03*
X4813D02*
D03*
X2349Y12021D02*
D03*
Y11913D02*
D03*
Y11812D02*
D03*
X2248D02*
D03*
Y11913D02*
D03*
Y12021D02*
D03*
X2146Y11811D02*
D03*
Y11912D02*
D03*
Y12020D02*
D03*
X308Y10136D02*
D03*
X207Y10243D02*
D03*
X308Y10035D02*
D03*
X207Y10034D02*
D03*
Y10136D02*
D03*
X308Y10244D02*
D03*
X105Y10034D02*
D03*
Y10135D02*
D03*
Y10243D02*
D03*
X2025Y8199D02*
D03*
Y8091D02*
D03*
Y7990D02*
D03*
X2126Y8200D02*
D03*
Y8092D02*
D03*
Y7991D02*
D03*
X2228D02*
D03*
Y8092D02*
D03*
Y8200D02*
D03*
X4407Y6388D02*
D03*
X4503D02*
D03*
X4607D02*
D03*
Y6490D02*
D03*
X4503D02*
D03*
X4407D02*
D03*
X4673Y5554D02*
D03*
X4379Y13537D02*
D03*
X3962Y12751D02*
D03*
X4076D02*
D03*
X7836Y13538D02*
D03*
X7749Y14084D02*
D03*
X7391Y14021D02*
D03*
X6680Y13056D02*
D03*
X5918Y12992D02*
D03*
X2794Y14186D02*
D03*
X2477Y12331D02*
D03*
X2579Y12332D02*
D03*
X2680D02*
D03*
X2477Y11493D02*
D03*
X2579Y11493D02*
D03*
X2680D02*
D03*
X3458Y12239D02*
D03*
X3715Y11840D02*
D03*
X3862Y11736D02*
D03*
X4089Y12018D02*
D03*
X4153Y11455D02*
D03*
X4280D02*
D03*
X4140Y10693D02*
D03*
X4260D02*
D03*
X4375D02*
D03*
X2044Y10232D02*
D03*
X1416Y10462D02*
D03*
X1674Y10064D02*
D03*
X2112Y9679D02*
D03*
X2239D02*
D03*
X2099Y8917D02*
D03*
X2219D02*
D03*
X436Y9716D02*
D03*
X538Y9717D02*
D03*
X639D02*
D03*
X4254Y6872D02*
D03*
X4139D02*
D03*
X4019D02*
D03*
X4158Y7634D02*
D03*
X4031D02*
D03*
X3594Y8019D02*
D03*
X3314Y8418D02*
D03*
X3949Y8190D02*
D03*
X2356Y7672D02*
D03*
X2457Y7673D02*
D03*
X2559D02*
D03*
X2356Y8510D02*
D03*
X2457Y8511D02*
D03*
X2559D02*
D03*
X5131Y6133D02*
D03*
X4267Y6388D02*
D03*
X4178D02*
D03*
X4743D02*
D03*
X4824D02*
D03*
X5057Y5025D02*
D03*
Y5105D02*
D03*
X5055Y5672D02*
D03*
Y5583D02*
D03*
X467Y8903D02*
D03*
X217Y8649D02*
D03*
X1575Y8560D02*
D03*
X1587Y7264D02*
D03*
X112Y7595D02*
D03*
X76Y7277D02*
D03*
X3596Y9451D02*
D03*
X3596Y9647D02*
D03*
X3350Y9710D02*
D03*
X3345Y9906D02*
D03*
X3595Y9971D02*
D03*
X3932Y9841D02*
D03*
X3911Y9614D02*
D03*
Y9409D02*
D03*
X5562Y8268D02*
D03*
X5886Y8344D02*
D03*
X5550Y8903D02*
D03*
X5554Y8585D02*
D03*
X5871Y8666D02*
D03*
X4737Y8788D02*
D03*
X5066Y8547D02*
D03*
X4737Y8230D02*
D03*
X5880Y7464D02*
D03*
X5562Y7226D02*
D03*
X5057Y7026D02*
D03*
X6528Y7422D02*
D03*
X6197Y7810D02*
D03*
Y7048D02*
D03*
X6528Y8188D02*
D03*
X7823Y9747D02*
D03*
Y9253D02*
D03*
X9957Y9539D02*
D03*
Y9438D02*
D03*
Y8930D02*
D03*
X8966Y10820D02*
D03*
X7213Y11582D02*
D03*
Y11412D02*
D03*
Y11227D02*
D03*
Y10820D02*
D03*
Y10668D02*
D03*
Y10516D02*
D03*
X8725Y12167D02*
D03*
X8495Y12076D02*
D03*
X7734D02*
D03*
X7442Y12548D02*
D03*
X8852Y12666D02*
D03*
X9004Y12560D02*
D03*
Y12433D02*
D03*
Y12314D02*
D03*
Y12167D02*
D03*
X9312Y11934D02*
D03*
X9811Y13264D02*
D03*
X9957Y10050D02*
D03*
X4292Y13424D02*
D03*
X3764Y13595D02*
D03*
X3626Y12980D02*
D03*
X4718Y10643D02*
D03*
X4915Y10262D02*
D03*
X4863Y10643D02*
D03*
X3991Y9133D02*
D03*
X6134Y4981D02*
D03*
X6172Y4610D02*
D03*
X6867Y4870D02*
D03*
X5818Y5474D02*
D03*
X6175Y5493D02*
D03*
X5822Y5118D02*
D03*
X6477Y4059D02*
D03*
X6945D02*
D03*
X7410Y3838D02*
D03*
X6010Y3836D02*
D03*
X7362Y4470D02*
D03*
X5562Y7391D02*
D03*
X5878Y7315D02*
D03*
X2044Y10325D02*
D03*
X2378Y9438D02*
D03*
X2480D02*
D03*
X2277Y9329D02*
D03*
X2480Y9330D02*
D03*
X2277Y9437D02*
D03*
X4400Y7177D02*
D03*
Y7285D02*
D03*
X4298D02*
D03*
X4196Y7285D02*
D03*
X4400Y7393D02*
D03*
X4298D02*
D03*
X4196Y7392D02*
D03*
X3949Y8296D02*
D03*
X1054Y8814D02*
D03*
X1727Y7810D02*
D03*
X3345Y9256D02*
D03*
X3596Y9321D02*
D03*
X3911Y9516D02*
D03*
X6286Y4610D02*
D03*
X6995Y4873D02*
D03*
X5816Y5245D02*
D03*
X6083Y5283D02*
D03*
X5918Y4166D02*
D03*
X7226Y4059D02*
D03*
X7316Y3837D02*
D03*
X6104Y3836D02*
D03*
X639Y10555D02*
D03*
X538D02*
D03*
X436Y10554D02*
D03*
D184*
X5588Y12030D02*
D03*
X5548Y12010D02*
D03*
Y12050D02*
D03*
X5628Y12010D02*
D03*
Y12050D02*
D03*
X8726Y929D02*
D03*
Y889D02*
D03*
X7783Y929D02*
D03*
Y889D02*
D03*
X6842Y929D02*
D03*
Y889D02*
D03*
X5900Y929D02*
D03*
Y889D02*
D03*
X8646Y929D02*
D03*
Y889D02*
D03*
X7703Y929D02*
D03*
Y889D02*
D03*
X4939Y929D02*
D03*
Y889D02*
D03*
X3990Y933D02*
D03*
Y893D02*
D03*
X7743Y909D02*
D03*
X5860D02*
D03*
X4899D02*
D03*
X3950Y913D02*
D03*
X8686Y909D02*
D03*
X6802D02*
D03*
X6762Y929D02*
D03*
Y889D02*
D03*
X5820Y929D02*
D03*
Y889D02*
D03*
X4859Y929D02*
D03*
Y889D02*
D03*
X3910Y933D02*
D03*
Y893D02*
D03*
D185*
X1747Y12745D02*
D03*
Y12491D02*
D03*
Y12364D02*
D03*
Y12237D02*
D03*
Y11856D02*
D03*
Y12618D02*
D03*
Y12872D02*
D03*
D186*
X1459Y13430D02*
D03*
X196D02*
D03*
Y11762D02*
D03*
X1459D02*
D03*
D187*
X2491Y10817D02*
D03*
X2441D02*
D03*
X2391D02*
D03*
Y10665D02*
D03*
X2441D02*
D03*
X2491D02*
D03*
D188*
X2364Y10766D02*
D03*
Y10716D02*
D03*
X2517D02*
D03*
Y10766D02*
D03*
D189*
X6629Y10317D02*
D03*
Y9875D02*
D03*
D190*
X5618Y10234D02*
D03*
X6268D02*
D03*
Y9934D02*
D03*
X5618D02*
D03*
D191*
X5201Y1544D02*
D03*
Y2039D02*
D03*
X8069Y1544D02*
D03*
X7113D02*
D03*
X9025D02*
D03*
X4245D02*
D03*
X6157D02*
D03*
X8069Y2039D02*
D03*
X4245D02*
D03*
X6157D02*
D03*
X7113D02*
D03*
X9025D02*
D03*
D192*
X4647Y6026D02*
D03*
X4567Y5648D02*
D03*
X4647D02*
D03*
X4567Y6026D02*
D03*
X4487D02*
D03*
Y5648D02*
D03*
X4727D02*
D03*
Y6026D02*
D03*
D193*
X4568Y5347D02*
D03*
X4758D02*
D03*
D194*
X4143Y10473D02*
D03*
Y10295D02*
D03*
X4318Y10473D02*
D03*
Y10295D02*
D03*
X6514Y10539D02*
D03*
X6339D02*
D03*
X391Y8774D02*
D03*
X2781Y12648D02*
D03*
Y12851D02*
D03*
X4426Y6260D02*
D03*
X4592Y6259D02*
D03*
X2956Y12648D02*
D03*
Y12851D02*
D03*
X216Y8774D02*
D03*
X4251Y6260D02*
D03*
X4767Y6259D02*
D03*
D195*
X4061Y9906D02*
D03*
Y10101D02*
D03*
Y10036D02*
D03*
Y9971D02*
D03*
Y9256D02*
D03*
X3471Y9386D02*
D03*
Y9451D02*
D03*
Y9646D02*
D03*
Y9711D02*
D03*
Y9906D02*
D03*
Y9971D02*
D03*
X4061Y9841D02*
D03*
Y9646D02*
D03*
Y9581D02*
D03*
Y9451D02*
D03*
X3471Y9256D02*
D03*
Y9321D02*
D03*
X4061Y9516D02*
D03*
Y9321D02*
D03*
Y9386D02*
D03*
Y9711D02*
D03*
Y9776D02*
D03*
X3471Y10101D02*
D03*
Y10036D02*
D03*
Y9841D02*
D03*
Y9776D02*
D03*
Y9581D02*
D03*
Y9516D02*
D03*
D196*
X4911Y10023D02*
D03*
X4716D02*
D03*
X4781D02*
D03*
X4846D02*
D03*
X4911Y9713D02*
D03*
X4846D02*
D03*
X4781D02*
D03*
X4716D02*
D03*
D197*
X5476Y9627D02*
D03*
X5192D02*
D03*
D198*
X4399Y9780D02*
D03*
Y9338D02*
D03*
D199*
X2190Y4201D02*
D03*
Y4401D02*
D03*
Y4601D02*
D03*
Y4001D02*
D03*
Y3801D02*
D03*
X650Y3401D02*
D03*
Y4201D02*
D03*
X2190Y4801D02*
D03*
Y3401D02*
D03*
X650Y3601D02*
D03*
Y4801D02*
D03*
Y4601D02*
D03*
Y4401D02*
D03*
Y4001D02*
D03*
Y3801D02*
D03*
X2190Y3601D02*
D03*
D200*
X336Y3398D02*
D03*
D201*
X9208Y9013D02*
D03*
X8954Y9383D02*
D03*
X9208Y9689D02*
D03*
X8954Y10059D02*
D03*
Y9689D02*
D03*
Y9013D02*
D03*
X9208Y10059D02*
D03*
Y9383D02*
D03*
D202*
X1513Y10192D02*
D03*
Y10319D02*
D03*
X985D02*
D03*
X1513Y9938D02*
D03*
X3433Y8148D02*
D03*
X3554Y11969D02*
D03*
X2904Y8275D02*
D03*
X3433D02*
D03*
Y7894D02*
D03*
X3554Y12096D02*
D03*
Y11715D02*
D03*
X3026Y12096D02*
D03*
Y11842D02*
D03*
Y11969D02*
D03*
X2904Y8148D02*
D03*
Y8021D02*
D03*
X985Y10192D02*
D03*
Y10065D02*
D03*
X3554Y11842D02*
D03*
X3433Y8021D02*
D03*
X1513Y10065D02*
D03*
D203*
X985Y9938D02*
D03*
X2904Y7894D02*
D03*
X3026Y11715D02*
D03*
D204*
X1702Y9707D02*
D03*
X3619Y7675D02*
D03*
X3746Y11485D02*
D03*
Y11070D02*
D03*
X1702Y9292D02*
D03*
X3619Y7260D02*
D03*
D205*
X577Y8770D02*
D03*
X817Y8960D02*
D03*
X577Y8865D02*
D03*
X817Y8770D02*
D03*
X577Y8960D02*
D03*
D206*
X217Y7820D02*
D03*
Y8040D02*
D03*
Y8150D02*
D03*
Y7380D02*
D03*
Y7490D02*
D03*
Y7930D02*
D03*
Y7710D02*
D03*
Y7600D02*
D03*
D207*
X1471Y7902D02*
D03*
D208*
X1463Y8329D02*
D03*
D209*
X5313Y3971D02*
D03*
X3116D02*
D03*
D210*
X8615Y9683D02*
D03*
X8793D02*
D03*
X9200Y10536D02*
D03*
X9022D02*
D03*
D211*
X8866Y11173D02*
D03*
D212*
X8996Y11409D02*
D03*
X8931D02*
D03*
X8866D02*
D03*
X8801D02*
D03*
X8736D02*
D03*
X8866Y10937D02*
D03*
X8931D02*
D03*
X8996D02*
D03*
X8801D02*
D03*
X8736D02*
D03*
D213*
X8712Y10630D02*
D03*
X8432D02*
D03*
D214*
X2857Y4971D02*
D03*
X2857Y5098D02*
D03*
X3407D02*
D03*
Y5225D02*
D03*
Y5352D02*
D03*
X2857Y5352D02*
D03*
X3407Y4971D02*
D03*
X2857Y5225D02*
D03*
D215*
X7775Y12642D02*
D03*
X8430D02*
D03*
Y12769D02*
D03*
X7775D02*
D03*
D216*
X9102Y11108D02*
D03*
X8630Y11238D02*
D03*
X9102Y11173D02*
D03*
Y11238D02*
D03*
X8630Y11108D02*
D03*
Y11173D02*
D03*
X9102Y11303D02*
D03*
Y11043D02*
D03*
X8630D02*
D03*
Y11303D02*
D03*
D217*
X9421Y12464D02*
D03*
Y12232D02*
D03*
X9141Y12464D02*
D03*
Y12232D02*
D03*
D218*
X7951Y11412D02*
D03*
Y10786D02*
D03*
X7421Y11412D02*
D03*
Y10786D02*
D03*
D219*
X3223Y14097D02*
D03*
X2898D02*
D03*
D220*
X8188Y12272D02*
D03*
X8388Y12367D02*
D03*
Y12177D02*
D03*
D221*
X3695Y5163D02*
D03*
Y5403D02*
D03*
D222*
X3290Y11905D02*
D03*
X3169Y8084D02*
D03*
X1249Y10129D02*
D03*
D223*
X4607Y5837D02*
D03*
D224*
X184Y3251D02*
D03*
Y3546D02*
D03*
D225*
X1343Y7264D02*
D03*
Y8560D02*
D03*
D226*
X267Y7272D02*
D03*
D227*
X218Y8538D02*
D03*
D228*
X4215Y3971D02*
D03*
D229*
X2379Y13645D02*
X2394Y13660D01*
X2379Y13637D02*
X2379Y13637D01*
X2349Y13573D02*
X2379Y13603D01*
X2394Y13660D02*
X2402D01*
X2379Y13603D02*
Y13637D01*
X2379Y13637D02*
Y13645D01*
M02*
