G04*
G04 #@! TF.GenerationSoftware,Altium Limited,Altium Designer,24.0.1 (36)*
G04*
G04 Layer_Color=128*
%FSLAX42Y42*%
%MOMM*%
G71*
G04*
G04 #@! TF.SameCoordinates,E1E02590-05F2-4693-A132-99C86EA4FF08*
G04*
G04*
G04 #@! TF.FilePolarity,Positive*
G04*
G01*
G75*
%ADD23R,0.60X0.75*%
%ADD25R,0.85X0.95*%
%ADD26R,0.75X0.60*%
%ADD33R,0.95X0.85*%
%ADD34R,1.35X1.15*%
%ADD38R,0.81X0.36*%
%ADD39R,0.90X0.90*%
%ADD41R,0.90X0.90*%
%ADD42R,0.36X0.81*%
%ADD48R,1.65X1.20*%
%ADD52R,1.12X0.36*%
%ADD184C,0.25*%
%ADD185R,1.35X0.90*%
%ADD186R,2.61X1.56*%
%ADD187R,0.25X0.28*%
%ADD188R,0.28X0.25*%
%ADD189R,2.74X2.16*%
%ADD191R,3.51X2.07*%
%ADD192R,0.33X0.91*%
%ADD193R,0.80X2.70*%
%ADD194R,1.15X1.35*%
%ADD195O,1.40X0.45*%
%ADD196R,0.36X0.86*%
%ADD197R,1.27X1.78*%
%ADD198R,2.26X1.88*%
%ADD199R,3.00X1.40*%
%ADD200R,1.05X1.00*%
%ADD201R,0.55X1.40*%
G04:AMPARAMS|DCode=202|XSize=1.93mm|YSize=0.61mm|CornerRadius=0.31mm|HoleSize=0mm|Usage=FLASHONLY|Rotation=0.000|XOffset=0mm|YOffset=0mm|HoleType=Round|Shape=RoundedRectangle|*
%AMROUNDEDRECTD202*
21,1,1.93,0.00,0,0,0.0*
21,1,1.32,0.61,0,0,0.0*
1,1,0.61,0.66,0.00*
1,1,0.61,-0.66,0.00*
1,1,0.61,-0.66,0.00*
1,1,0.61,0.66,0.00*
%
%ADD202ROUNDEDRECTD202*%
%ADD203R,1.93X0.61*%
%ADD204R,5.10X2.35*%
%ADD205R,0.80X0.55*%
%ADD206R,1.10X0.70*%
%ADD207R,0.78X1.05*%
%ADD208R,0.93X0.90*%
%ADD209R,1.50X6.00*%
%ADD210R,1.14X1.47*%
G04:AMPARAMS|DCode=212|XSize=1.05mm|YSize=0.34mm|CornerRadius=0.04mm|HoleSize=0mm|Usage=FLASHONLY|Rotation=270.000|XOffset=0mm|YOffset=0mm|HoleType=Round|Shape=RoundedRectangle|*
%AMROUNDEDRECTD212*
21,1,1.05,0.25,0,0,270.0*
21,1,0.97,0.34,0,0,270.0*
1,1,0.09,-0.13,-0.48*
1,1,0.09,-0.13,0.48*
1,1,0.09,0.13,0.48*
1,1,0.09,0.13,-0.48*
%
%ADD212ROUNDEDRECTD212*%
%ADD214R,1.50X0.60*%
%ADD215O,1.95X0.65*%
G04:AMPARAMS|DCode=216|XSize=0.34mm|YSize=1.05mm|CornerRadius=0.04mm|HoleSize=0mm|Usage=FLASHONLY|Rotation=270.000|XOffset=0mm|YOffset=0mm|HoleType=Round|Shape=RoundedRectangle|*
%AMROUNDEDRECTD216*
21,1,0.34,0.97,0,0,270.0*
21,1,0.25,1.05,0,0,270.0*
1,1,0.09,-0.48,-0.13*
1,1,0.09,-0.48,0.13*
1,1,0.09,0.48,0.13*
1,1,0.09,0.48,-0.13*
%
%ADD216ROUNDEDRECTD216*%
%ADD217R,1.20X1.65*%
%ADD218R,2.70X5.60*%
%ADD219R,0.96X2.72*%
%ADD220R,1.70X0.60*%
%ADD221R,1.90X1.10*%
%ADD223R,3.23X2.31*%
%ADD224R,2.20X1.05*%
%ADD225R,3.33X0.70*%
%ADD226R,2.80X0.86*%
%ADD227R,1.83X1.14*%
%ADD228R,5.00X5.00*%
%ADD266R,1.61X2.25*%
%ADD267R,1.10X1.10*%
G36*
X3093Y13536D02*
X2824D01*
Y13736D01*
X3093D01*
Y13536D01*
D02*
G37*
G36*
X2789Y12997D02*
X2588D01*
Y13266D01*
X2789D01*
Y12997D01*
D02*
G37*
G36*
X8985Y11192D02*
X8885D01*
Y11292D01*
X8985D01*
Y11192D01*
D02*
G37*
G36*
X8846D02*
X8746D01*
Y11292D01*
X8846D01*
Y11192D01*
D02*
G37*
G36*
X8985Y11053D02*
X8885D01*
Y11153D01*
X8985D01*
Y11053D01*
D02*
G37*
G36*
X8846D02*
X8746D01*
Y11153D01*
X8846D01*
Y11053D01*
D02*
G37*
G36*
X4929Y9723D02*
X4698D01*
Y9903D01*
X4929D01*
Y9723D01*
D02*
G37*
G36*
X4758Y5731D02*
X4617D01*
Y5943D01*
X4758D01*
Y5731D01*
D02*
G37*
G36*
X4597D02*
X4455D01*
Y5943D01*
X4597D01*
Y5731D01*
D02*
G37*
D23*
X7365Y4754D02*
D03*
Y4639D02*
D03*
X5371Y10695D02*
D03*
Y10580D02*
D03*
X3046Y850D02*
D03*
Y735D02*
D03*
X7443Y5799D02*
D03*
Y5914D02*
D03*
X8287Y9339D02*
D03*
X6250Y6111D02*
D03*
X5965Y6101D02*
D03*
X8287Y9454D02*
D03*
X6834Y6060D02*
D03*
X4736Y9547D02*
D03*
X7469Y4930D02*
D03*
X5933Y5355D02*
D03*
X7500Y5426D02*
D03*
X7724Y5375D02*
D03*
X5965Y6216D02*
D03*
X332Y4199D02*
D03*
X954Y8924D02*
D03*
X6148Y10514D02*
D03*
X2144Y499D02*
D03*
X2440Y737D02*
D03*
X2535Y973D02*
D03*
X8890Y11717D02*
D03*
X2009Y13725D02*
D03*
X8890Y11602D02*
D03*
X8785D02*
D03*
Y11717D02*
D03*
X4736Y9432D02*
D03*
X2009Y13610D02*
D03*
X4991Y10389D02*
D03*
X2144Y384D02*
D03*
X2440Y852D02*
D03*
X2535Y858D02*
D03*
X332Y4314D02*
D03*
X7469Y4815D02*
D03*
X5933Y5470D02*
D03*
X5932Y5116D02*
D03*
X6085Y5493D02*
D03*
X5921Y5760D02*
D03*
X5831Y6332D02*
D03*
X6834Y5945D02*
D03*
X6941D02*
D03*
X6637Y5945D02*
D03*
X7500Y5541D02*
D03*
X7724Y5260D02*
D03*
X6148Y10629D02*
D03*
X6250Y5996D02*
D03*
X3253Y9382D02*
D03*
X4991Y10274D02*
D03*
X954Y8809D02*
D03*
X5932Y5231D02*
D03*
X6085Y5378D02*
D03*
X5921Y5875D02*
D03*
X5831Y6217D02*
D03*
X6941Y6060D02*
D03*
X6637Y6060D02*
D03*
X3253Y9267D02*
D03*
D25*
X6339Y9639D02*
D03*
X6208Y9640D02*
D03*
X3851Y12980D02*
D03*
X3720D02*
D03*
D26*
X2292Y13794D02*
D03*
X2177D02*
D03*
X2292Y13898D02*
D03*
X2177D02*
D03*
X2287Y13660D02*
D03*
X2402D02*
D03*
X2177Y14003D02*
D03*
X2292D02*
D03*
X2747Y5866D02*
D03*
X2862D02*
D03*
X2687Y6183D02*
D03*
X2802D02*
D03*
X6775Y6300D02*
D03*
X6660D02*
D03*
X7023Y5689D02*
D03*
X7138D02*
D03*
X9939Y5530D02*
D03*
X4923Y6247D02*
D03*
Y6133D02*
D03*
X8007Y4699D02*
D03*
X6428Y7042D02*
D03*
X6315Y7424D02*
D03*
X6413Y7808D02*
D03*
X9750Y9438D02*
D03*
X9746Y10050D02*
D03*
X9750Y9539D02*
D03*
X9744Y8930D02*
D03*
X6315Y8190D02*
D03*
X7051Y4969D02*
D03*
X7106Y4658D02*
D03*
X9824Y5530D02*
D03*
X4229Y10129D02*
D03*
X4230Y10035D02*
D03*
X4344Y10129D02*
D03*
X4345Y10035D02*
D03*
X6354Y4981D02*
D03*
X6819Y6494D02*
D03*
X6547D02*
D03*
X6270D02*
D03*
X6267Y6302D02*
D03*
X7096Y6573D02*
D03*
X5038Y6247D02*
D03*
X8287Y8481D02*
D03*
X8402D02*
D03*
X1824Y10141D02*
D03*
X1824Y10325D02*
D03*
X1824Y10232D02*
D03*
X1939Y10141D02*
D03*
X1939Y10048D02*
D03*
X1194Y10460D02*
D03*
X1193Y9777D02*
D03*
X1308D02*
D03*
X3976Y11911D02*
D03*
X3977Y11810D02*
D03*
X1727Y8335D02*
D03*
X1618Y7904D02*
D03*
X1612Y8335D02*
D03*
X3860Y7982D02*
D03*
X3860Y8081D02*
D03*
X5761Y7864D02*
D03*
X5646D02*
D03*
X5921Y10557D02*
D03*
X5806D02*
D03*
X2560Y581D02*
D03*
X2690Y964D02*
D03*
X2135Y1009D02*
D03*
X2493Y1234D02*
D03*
X2042Y1217D02*
D03*
X2553Y332D02*
D03*
X9435Y11358D02*
D03*
Y11047D02*
D03*
Y11151D02*
D03*
Y11255D02*
D03*
X8629Y10429D02*
D03*
X3626Y13940D02*
D03*
X3629Y13827D02*
D03*
X3633Y13718D02*
D03*
X7557Y12642D02*
D03*
X8623Y12666D02*
D03*
Y12768D02*
D03*
X9320Y11047D02*
D03*
X8428Y11292D02*
D03*
X9320Y11151D02*
D03*
Y11255D02*
D03*
X8428Y11057D02*
D03*
Y11174D02*
D03*
X9320Y11358D02*
D03*
X9427Y12029D02*
D03*
X7842Y12278D02*
D03*
X8725Y12371D02*
D03*
X8313Y11292D02*
D03*
Y11174D02*
D03*
Y11057D02*
D03*
X4195Y9133D02*
D03*
X8514Y10429D02*
D03*
X3518Y13718D02*
D03*
X7957Y12278D02*
D03*
Y12174D02*
D03*
X7957Y12076D02*
D03*
X8738Y12768D02*
D03*
X7842Y12174D02*
D03*
X8609Y12266D02*
D03*
X8610Y12371D02*
D03*
X3511Y13940D02*
D03*
X3514Y13827D02*
D03*
X3745Y8081D02*
D03*
X3861Y11911D02*
D03*
X3111Y8420D02*
D03*
X3745Y8190D02*
D03*
X3745Y8298D02*
D03*
X3109Y7731D02*
D03*
X3224D02*
D03*
X3862Y12123D02*
D03*
X3861Y12018D02*
D03*
X3219Y11555D02*
D03*
X3334D02*
D03*
X3977Y12123D02*
D03*
X5782Y8867D02*
D03*
X3230Y12239D02*
D03*
X1131Y6036D02*
D03*
X1132Y5934D02*
D03*
X1016Y6036D02*
D03*
Y6140D02*
D03*
X2623Y5357D02*
D03*
X2508D02*
D03*
X3745Y7982D02*
D03*
X7442Y12642D02*
D03*
X8738Y12666D02*
D03*
X7842Y12076D02*
D03*
X8724Y12266D02*
D03*
X9312Y12029D02*
D03*
X2378Y1234D02*
D03*
X2445Y581D02*
D03*
X2805Y964D02*
D03*
X2250Y1009D02*
D03*
X2157Y1217D02*
D03*
X3345Y12239D02*
D03*
X3976Y12018D02*
D03*
X6041Y5991D02*
D03*
X6175Y4708D02*
D03*
X6239Y4981D02*
D03*
X6874Y4765D02*
D03*
X6704Y6494D02*
D03*
X6432D02*
D03*
X6155D02*
D03*
X6152Y6302D02*
D03*
X6392Y6302D02*
D03*
X6981Y6573D02*
D03*
X7507Y6508D02*
D03*
X6991Y4658D02*
D03*
X5038Y6133D02*
D03*
X3862Y11810D02*
D03*
X1352Y5829D02*
D03*
X6313Y7042D02*
D03*
X6430Y7424D02*
D03*
X6298Y7808D02*
D03*
X6430Y8190D02*
D03*
X8122Y4699D02*
D03*
X9865Y9438D02*
D03*
X9861Y10050D02*
D03*
X9865Y9539D02*
D03*
X9859Y8930D02*
D03*
X4080Y9133D02*
D03*
X1309Y10460D02*
D03*
X1824Y10048D02*
D03*
X1939Y10232D02*
D03*
X3226Y8420D02*
D03*
X3860Y8190D02*
D03*
X5667Y8867D02*
D03*
X1017Y5934D02*
D03*
X1131Y6140D02*
D03*
X1467Y5829D02*
D03*
X1939Y10325D02*
D03*
X1733Y7904D02*
D03*
X2668Y332D02*
D03*
X5926Y5991D02*
D03*
X6290Y4708D02*
D03*
X6989Y4765D02*
D03*
X6507Y6302D02*
D03*
X7392Y6508D02*
D03*
X6936Y4969D02*
D03*
X3860Y8298D02*
D03*
D33*
X3046Y1103D02*
D03*
Y972D02*
D03*
X2781Y753D02*
D03*
X5715Y8738D02*
D03*
X4892Y9287D02*
D03*
X4991Y10512D02*
D03*
X4716Y10423D02*
D03*
X2781Y622D02*
D03*
X5715Y8607D02*
D03*
X4892Y9156D02*
D03*
X4991Y10643D02*
D03*
X4716Y10554D02*
D03*
D34*
X4928Y5257D02*
D03*
X4927Y5423D02*
D03*
X4164Y10998D02*
D03*
X4164Y11164D02*
D03*
X4357Y10998D02*
D03*
X2560Y8013D02*
D03*
X2558Y8187D02*
D03*
X2374D02*
D03*
X2375Y8013D02*
D03*
X2485Y11820D02*
D03*
X2679Y11999D02*
D03*
X2680Y11820D02*
D03*
X2483Y11999D02*
D03*
X458Y10050D02*
D03*
X638D02*
D03*
X459Y10209D02*
D03*
X639D02*
D03*
X2560Y7838D02*
D03*
X2558Y8362D02*
D03*
X2374D02*
D03*
X2375Y7838D02*
D03*
X4164Y10823D02*
D03*
X4164Y11339D02*
D03*
X4357Y10823D02*
D03*
X2485Y11645D02*
D03*
X2679Y12174D02*
D03*
X4928Y5082D02*
D03*
X4927Y5598D02*
D03*
X4051Y7000D02*
D03*
X2680Y11645D02*
D03*
X2483Y12174D02*
D03*
X2132Y9561D02*
D03*
X2312Y9045D02*
D03*
X2134D02*
D03*
X458Y9875D02*
D03*
X638D02*
D03*
X459Y10384D02*
D03*
X639D02*
D03*
X4051Y7516D02*
D03*
X4230Y7000D02*
D03*
X2132Y9386D02*
D03*
X2312Y9220D02*
D03*
X2134D02*
D03*
X4051Y7175D02*
D03*
X4051Y7341D02*
D03*
X4230Y7175D02*
D03*
D38*
X2507Y13229D02*
D03*
X2827Y13034D02*
D03*
Y13099D02*
D03*
Y13164D02*
D03*
Y13229D02*
D03*
X2507Y13034D02*
D03*
Y13099D02*
D03*
Y13164D02*
D03*
D39*
X5517Y3932D02*
D03*
X5715Y4029D02*
D03*
X5517Y4122D02*
D03*
D41*
X3861Y13157D02*
D03*
X3764Y13355D02*
D03*
X3671Y13157D02*
D03*
D42*
X2861Y13774D02*
D03*
X2926D02*
D03*
X2991D02*
D03*
X3056D02*
D03*
X2861Y13454D02*
D03*
X3056D02*
D03*
X2991D02*
D03*
X2926D02*
D03*
D48*
X4236Y13832D02*
D03*
Y13552D02*
D03*
D52*
X1308Y6036D02*
D03*
Y6102D02*
D03*
X1501D02*
D03*
Y5970D02*
D03*
X1308D02*
D03*
D184*
X5588Y12030D02*
D03*
X5548Y12010D02*
D03*
Y12050D02*
D03*
X5628Y12010D02*
D03*
Y12050D02*
D03*
X8726Y929D02*
D03*
Y889D02*
D03*
X7783Y929D02*
D03*
Y889D02*
D03*
X6842Y929D02*
D03*
Y889D02*
D03*
X5900Y929D02*
D03*
Y889D02*
D03*
X8646Y929D02*
D03*
Y889D02*
D03*
X7703Y929D02*
D03*
Y889D02*
D03*
X4939Y929D02*
D03*
Y889D02*
D03*
X3990Y933D02*
D03*
Y893D02*
D03*
X7743Y909D02*
D03*
X5860D02*
D03*
X4899D02*
D03*
X3950Y913D02*
D03*
X8686Y909D02*
D03*
X6802D02*
D03*
X6762Y929D02*
D03*
Y889D02*
D03*
X5820Y929D02*
D03*
Y889D02*
D03*
X4859Y929D02*
D03*
Y889D02*
D03*
X3910Y933D02*
D03*
Y893D02*
D03*
D185*
X1747Y12745D02*
D03*
Y12491D02*
D03*
Y12364D02*
D03*
Y12237D02*
D03*
Y11856D02*
D03*
Y12618D02*
D03*
Y12872D02*
D03*
D186*
X1459Y13430D02*
D03*
X196D02*
D03*
Y11762D02*
D03*
X1459D02*
D03*
D187*
X2491Y10817D02*
D03*
X2441D02*
D03*
X2391D02*
D03*
Y10665D02*
D03*
X2441D02*
D03*
X2491D02*
D03*
D188*
X2364Y10766D02*
D03*
Y10716D02*
D03*
X2517D02*
D03*
Y10766D02*
D03*
D189*
X6629Y10317D02*
D03*
Y9875D02*
D03*
D191*
X5201Y1544D02*
D03*
Y2039D02*
D03*
X8069Y1544D02*
D03*
X7113D02*
D03*
X9025D02*
D03*
X4245D02*
D03*
X6157D02*
D03*
X8069Y2039D02*
D03*
X4245D02*
D03*
X6157D02*
D03*
X7113D02*
D03*
X9025D02*
D03*
D192*
X4647Y6026D02*
D03*
X4567Y5648D02*
D03*
X4647D02*
D03*
X4567Y6026D02*
D03*
X4487D02*
D03*
Y5648D02*
D03*
X4727D02*
D03*
Y6026D02*
D03*
D193*
X4568Y5347D02*
D03*
X4758D02*
D03*
D194*
X4143Y10473D02*
D03*
Y10295D02*
D03*
X4318Y10473D02*
D03*
Y10295D02*
D03*
X6514Y10539D02*
D03*
X6339D02*
D03*
X391Y8774D02*
D03*
X2781Y12648D02*
D03*
Y12851D02*
D03*
X4426Y6260D02*
D03*
X4592Y6259D02*
D03*
X2956Y12648D02*
D03*
Y12851D02*
D03*
X216Y8774D02*
D03*
X4251Y6260D02*
D03*
X4767Y6259D02*
D03*
D195*
X4061Y9906D02*
D03*
Y10101D02*
D03*
Y10036D02*
D03*
Y9971D02*
D03*
Y9256D02*
D03*
X3471Y9386D02*
D03*
Y9451D02*
D03*
Y9646D02*
D03*
Y9711D02*
D03*
Y9906D02*
D03*
Y9971D02*
D03*
X4061Y9841D02*
D03*
Y9646D02*
D03*
Y9581D02*
D03*
Y9451D02*
D03*
X3471Y9256D02*
D03*
Y9321D02*
D03*
X4061Y9516D02*
D03*
Y9321D02*
D03*
Y9386D02*
D03*
Y9711D02*
D03*
Y9776D02*
D03*
X3471Y10101D02*
D03*
Y10036D02*
D03*
Y9841D02*
D03*
Y9776D02*
D03*
Y9581D02*
D03*
Y9516D02*
D03*
D196*
X4911Y10023D02*
D03*
X4716D02*
D03*
X4781D02*
D03*
X4846D02*
D03*
X4911Y9713D02*
D03*
X4846D02*
D03*
X4781D02*
D03*
X4716D02*
D03*
D197*
X5476Y9627D02*
D03*
X5192D02*
D03*
D198*
X4399Y9780D02*
D03*
Y9338D02*
D03*
D199*
X2190Y4201D02*
D03*
Y4401D02*
D03*
Y4601D02*
D03*
Y4001D02*
D03*
Y3801D02*
D03*
X650Y3401D02*
D03*
Y4201D02*
D03*
X2190Y4801D02*
D03*
Y3401D02*
D03*
X650Y3601D02*
D03*
Y4801D02*
D03*
Y4601D02*
D03*
Y4401D02*
D03*
Y4001D02*
D03*
Y3801D02*
D03*
X2190Y3601D02*
D03*
D200*
X336Y3398D02*
D03*
D201*
X9208Y9013D02*
D03*
X8954Y9383D02*
D03*
X9208Y9689D02*
D03*
X8954Y10059D02*
D03*
Y9689D02*
D03*
Y9013D02*
D03*
X9208Y10059D02*
D03*
Y9383D02*
D03*
D202*
X1513Y10192D02*
D03*
Y10319D02*
D03*
X985D02*
D03*
X1513Y9938D02*
D03*
X3433Y8148D02*
D03*
X3554Y11969D02*
D03*
X2904Y8275D02*
D03*
X3433D02*
D03*
Y7894D02*
D03*
X3554Y12096D02*
D03*
Y11715D02*
D03*
X3026Y12096D02*
D03*
Y11842D02*
D03*
Y11969D02*
D03*
X2904Y8148D02*
D03*
Y8021D02*
D03*
X985Y10192D02*
D03*
Y10065D02*
D03*
X3554Y11842D02*
D03*
X3433Y8021D02*
D03*
X1513Y10065D02*
D03*
D203*
X985Y9938D02*
D03*
X2904Y7894D02*
D03*
X3026Y11715D02*
D03*
D204*
X1702Y9707D02*
D03*
X3619Y7675D02*
D03*
X3746Y11485D02*
D03*
Y11070D02*
D03*
X1702Y9292D02*
D03*
X3619Y7260D02*
D03*
D205*
X577Y8770D02*
D03*
X817Y8960D02*
D03*
X577Y8865D02*
D03*
X817Y8770D02*
D03*
X577Y8960D02*
D03*
D206*
X217Y7820D02*
D03*
Y8040D02*
D03*
Y8150D02*
D03*
Y7380D02*
D03*
Y7490D02*
D03*
Y7930D02*
D03*
Y7710D02*
D03*
Y7600D02*
D03*
D207*
X1471Y7902D02*
D03*
D208*
X1463Y8329D02*
D03*
D209*
X5313Y3971D02*
D03*
X3116D02*
D03*
D210*
X8615Y9683D02*
D03*
X8793D02*
D03*
X9200Y10536D02*
D03*
X9022D02*
D03*
D212*
X8996Y11409D02*
D03*
X8931D02*
D03*
X8866D02*
D03*
X8801D02*
D03*
X8736D02*
D03*
X8866Y10937D02*
D03*
X8931D02*
D03*
X8996D02*
D03*
X8801D02*
D03*
X8736D02*
D03*
D214*
X2857Y4971D02*
D03*
X2857Y5098D02*
D03*
X3407D02*
D03*
Y5225D02*
D03*
Y5352D02*
D03*
X2857Y5352D02*
D03*
X3407Y4971D02*
D03*
X2857Y5225D02*
D03*
D215*
X7775Y12642D02*
D03*
X8430D02*
D03*
Y12769D02*
D03*
X7775D02*
D03*
D216*
X9102Y11108D02*
D03*
X8630Y11238D02*
D03*
X9102Y11173D02*
D03*
Y11238D02*
D03*
X8630Y11108D02*
D03*
Y11173D02*
D03*
X9102Y11303D02*
D03*
Y11043D02*
D03*
X8630D02*
D03*
Y11303D02*
D03*
D217*
X9421Y12464D02*
D03*
Y12232D02*
D03*
X9141Y12464D02*
D03*
Y12232D02*
D03*
D218*
X7951Y11412D02*
D03*
Y10786D02*
D03*
X7421Y11412D02*
D03*
Y10786D02*
D03*
D219*
X3223Y14097D02*
D03*
X2898D02*
D03*
D220*
X8188Y12272D02*
D03*
X8388Y12367D02*
D03*
Y12177D02*
D03*
D221*
X3695Y5163D02*
D03*
Y5403D02*
D03*
D223*
X4607Y5837D02*
D03*
D224*
X184Y3251D02*
D03*
Y3546D02*
D03*
D225*
X1343Y7264D02*
D03*
Y8560D02*
D03*
D226*
X267Y7272D02*
D03*
D227*
X218Y8538D02*
D03*
D228*
X4215Y3971D02*
D03*
D266*
X1249Y10129D02*
D03*
X3169Y8084D02*
D03*
X3290Y11905D02*
D03*
D267*
X8712Y10630D02*
D03*
X8432D02*
D03*
M02*
