G04*
G04 #@! TF.GenerationSoftware,Altium Limited,Altium Designer,24.0.1 (36)*
G04*
G04 Layer_Color=8388736*
%FSLAX42Y42*%
%MOMM*%
G71*
G04*
G04 #@! TF.SameCoordinates,E1E02590-05F2-4693-A132-99C86EA4FF08*
G04*
G04*
G04 #@! TF.FilePolarity,Negative*
G04*
G01*
G75*
G04:AMPARAMS|DCode=22|XSize=0.56mm|YSize=0.2mm|CornerRadius=0.05mm|HoleSize=0mm|Usage=FLASHONLY|Rotation=0.000|XOffset=0mm|YOffset=0mm|HoleType=Round|Shape=RoundedRectangle|*
%AMROUNDEDRECTD22*
21,1,0.56,0.10,0,0,0.0*
21,1,0.47,0.20,0,0,0.0*
1,1,0.10,0.23,-0.05*
1,1,0.10,-0.23,-0.05*
1,1,0.10,-0.23,0.05*
1,1,0.10,0.23,0.05*
%
%ADD22ROUNDEDRECTD22*%
G04:AMPARAMS|DCode=31|XSize=2.17mm|YSize=0.57mm|CornerRadius=0.28mm|HoleSize=0mm|Usage=FLASHONLY|Rotation=0.000|XOffset=0mm|YOffset=0mm|HoleType=Round|Shape=RoundedRectangle|*
%AMROUNDEDRECTD31*
21,1,2.17,0.00,0,0,0.0*
21,1,1.61,0.57,0,0,0.0*
1,1,0.57,0.80,0.00*
1,1,0.57,-0.80,0.00*
1,1,0.57,-0.80,0.00*
1,1,0.57,0.80,0.00*
%
%ADD31ROUNDEDRECTD31*%
%ADD38R,0.81X0.36*%
%ADD42R,0.36X0.81*%
%ADD43R,1.70X3.55*%
%ADD56R,2.17X0.57*%
G04:AMPARAMS|DCode=57|XSize=0.56mm|YSize=0.2mm|CornerRadius=0.05mm|HoleSize=0mm|Usage=FLASHONLY|Rotation=270.000|XOffset=0mm|YOffset=0mm|HoleType=Round|Shape=RoundedRectangle|*
%AMROUNDEDRECTD57*
21,1,0.56,0.10,0,0,270.0*
21,1,0.47,0.20,0,0,270.0*
1,1,0.10,-0.05,-0.23*
1,1,0.10,-0.05,0.23*
1,1,0.10,0.05,0.23*
1,1,0.10,0.05,-0.23*
%
%ADD57ROUNDEDRECTD57*%
%ADD59R,1.75X0.50*%
%ADD60R,2.95X1.40*%
%ADD61O,0.37X1.60*%
%ADD62R,0.80X0.95*%
%ADD63R,0.43X1.56*%
%ADD64R,1.05X1.15*%
%ADD65R,0.95X0.80*%
%ADD66R,0.34X0.84*%
%ADD67R,1.56X0.43*%
%ADD68R,2.10X0.96*%
%ADD69R,1.60X1.40*%
G04:AMPARAMS|DCode=70|XSize=1.06mm|YSize=0.47mm|CornerRadius=0.14mm|HoleSize=0mm|Usage=FLASHONLY|Rotation=270.000|XOffset=0mm|YOffset=0mm|HoleType=Round|Shape=RoundedRectangle|*
%AMROUNDEDRECTD70*
21,1,1.06,0.20,0,0,270.0*
21,1,0.79,0.47,0,0,270.0*
1,1,0.27,-0.10,-0.40*
1,1,0.27,-0.10,0.40*
1,1,0.27,0.10,0.40*
1,1,0.27,0.10,-0.40*
%
%ADD70ROUNDEDRECTD70*%
%ADD71R,1.15X1.05*%
%ADD72R,1.55X1.35*%
%ADD73R,2.00X0.60*%
%ADD74O,1.60X0.37*%
G04:AMPARAMS|DCode=75|XSize=1.52mm|YSize=0.79mm|CornerRadius=0.18mm|HoleSize=0mm|Usage=FLASHONLY|Rotation=180.000|XOffset=0mm|YOffset=0mm|HoleType=Round|Shape=RoundedRectangle|*
%AMROUNDEDRECTD75*
21,1,1.52,0.44,0,0,180.0*
21,1,1.17,0.79,0,0,180.0*
1,1,0.35,-0.59,0.22*
1,1,0.35,0.59,0.22*
1,1,0.35,0.59,-0.22*
1,1,0.35,-0.59,-0.22*
%
%ADD75ROUNDEDRECTD75*%
%ADD76R,0.60X1.95*%
%ADD77R,1.10X1.10*%
G04:AMPARAMS|DCode=78|XSize=1.06mm|YSize=0.47mm|CornerRadius=0.14mm|HoleSize=0mm|Usage=FLASHONLY|Rotation=180.000|XOffset=0mm|YOffset=0mm|HoleType=Round|Shape=RoundedRectangle|*
%AMROUNDEDRECTD78*
21,1,1.06,0.20,0,0,180.0*
21,1,0.79,0.47,0,0,180.0*
1,1,0.27,-0.40,0.10*
1,1,0.27,0.40,0.10*
1,1,0.27,0.40,-0.10*
1,1,0.27,-0.40,-0.10*
%
%ADD78ROUNDEDRECTD78*%
%ADD79R,1.10X1.10*%
%ADD80R,2.90X1.40*%
%ADD81R,2.55X5.30*%
%ADD82R,1.01X1.13*%
%ADD83R,1.90X1.30*%
%ADD84R,1.85X1.40*%
%ADD85R,1.65X2.25*%
G04:AMPARAMS|DCode=86|XSize=1.6mm|YSize=0.5mm|CornerRadius=0.15mm|HoleSize=0mm|Usage=FLASHONLY|Rotation=90.000|XOffset=0mm|YOffset=0mm|HoleType=Round|Shape=RoundedRectangle|*
%AMROUNDEDRECTD86*
21,1,1.60,0.20,0,0,90.0*
21,1,1.30,0.50,0,0,90.0*
1,1,0.30,0.10,0.65*
1,1,0.30,0.10,-0.65*
1,1,0.30,-0.10,-0.65*
1,1,0.30,-0.10,0.65*
%
%ADD86ROUNDEDRECTD86*%
G04:AMPARAMS|DCode=87|XSize=1.7mm|YSize=0.48mm|CornerRadius=0.17mm|HoleSize=0mm|Usage=FLASHONLY|Rotation=270.000|XOffset=0mm|YOffset=0mm|HoleType=Round|Shape=RoundedRectangle|*
%AMROUNDEDRECTD87*
21,1,1.70,0.14,0,0,270.0*
21,1,1.36,0.48,0,0,270.0*
1,1,0.34,-0.07,-0.68*
1,1,0.34,-0.07,0.68*
1,1,0.34,0.07,0.68*
1,1,0.34,0.07,-0.68*
%
%ADD87ROUNDEDRECTD87*%
%ADD88R,1.32X0.56*%
%ADD89R,2.65X2.65*%
%ADD90R,1.63X2.70*%
G04:AMPARAMS|DCode=91|XSize=0.56mm|YSize=0.4mm|CornerRadius=0.05mm|HoleSize=0mm|Usage=FLASHONLY|Rotation=270.000|XOffset=0mm|YOffset=0mm|HoleType=Round|Shape=RoundedRectangle|*
%AMROUNDEDRECTD91*
21,1,0.56,0.30,0,0,270.0*
21,1,0.47,0.40,0,0,270.0*
1,1,0.10,-0.15,-0.23*
1,1,0.10,-0.15,0.23*
1,1,0.10,0.15,0.23*
1,1,0.10,0.15,-0.23*
%
%ADD91ROUNDEDRECTD91*%
%ADD92R,6.20X6.20*%
G04:AMPARAMS|DCode=93|XSize=0.56mm|YSize=0.4mm|CornerRadius=0.05mm|HoleSize=0mm|Usage=FLASHONLY|Rotation=0.000|XOffset=0mm|YOffset=0mm|HoleType=Round|Shape=RoundedRectangle|*
%AMROUNDEDRECTD93*
21,1,0.56,0.30,0,0,0.0*
21,1,0.47,0.40,0,0,0.0*
1,1,0.10,0.23,-0.15*
1,1,0.10,-0.23,-0.15*
1,1,0.10,-0.23,0.15*
1,1,0.10,0.23,0.15*
%
%ADD93ROUNDEDRECTD93*%
%ADD94R,3.20X2.30*%
%ADD95C,1.90*%
%ADD96C,1.35*%
%ADD97C,1.85*%
%ADD98C,6.20*%
%ADD99C,1.93*%
%ADD100C,1.73*%
%ADD101C,1.65*%
%ADD102R,1.73X1.73*%
%ADD103R,1.65X1.65*%
%ADD104R,1.90X1.90*%
%ADD105C,1.70*%
%ADD106C,1.61*%
%ADD107R,1.61X1.61*%
%ADD108C,2.56*%
%ADD109C,2.77*%
%ADD110R,1.66X1.66*%
%ADD111O,4.95X2.20*%
%ADD112C,3.20*%
%ADD113C,2.74*%
%ADD114C,2.60*%
%ADD115R,2.74X2.74*%
%ADD116C,1.66*%
%ADD117C,1.40*%
%ADD118C,3.57*%
%ADD119O,2.20X4.70*%
%ADD120R,4.95X2.20*%
%ADD121R,1.70X1.70*%
%ADD122O,1.30X1.80*%
%ADD123O,1.40X2.60*%
G04:AMPARAMS|DCode=124|XSize=2.6mm|YSize=2.6mm|CornerRadius=0.7mm|HoleSize=0mm|Usage=FLASHONLY|Rotation=90.000|XOffset=0mm|YOffset=0mm|HoleType=Round|Shape=RoundedRectangle|*
%AMROUNDEDRECTD124*
21,1,2.60,1.20,0,0,90.0*
21,1,1.20,2.60,0,0,90.0*
1,1,1.40,0.60,0.60*
1,1,1.40,0.60,-0.60*
1,1,1.40,-0.60,-0.60*
1,1,1.40,-0.60,0.60*
%
%ADD124ROUNDEDRECTD124*%
%ADD125C,3.45*%
%ADD126C,2.90*%
%ADD127C,1.30*%
%ADD128C,1.80*%
%ADD129C,3.71*%
%ADD130C,1.83*%
%ADD131C,6.49*%
%ADD132C,0.76*%
G36*
X5367Y13866D02*
X5166D01*
Y14136D01*
X5367D01*
Y13866D01*
D02*
G37*
G36*
X7188Y13469D02*
X6988D01*
Y13738D01*
X7188D01*
Y13469D01*
D02*
G37*
G36*
X6488Y13468D02*
X6287D01*
Y13737D01*
X6488D01*
Y13468D01*
D02*
G37*
G36*
X5760Y13454D02*
X5491D01*
Y13655D01*
X5760D01*
Y13454D01*
D02*
G37*
G36*
X7798Y13040D02*
X7598D01*
Y13310D01*
X7798D01*
Y13040D01*
D02*
G37*
G36*
X2787Y13002D02*
X2586D01*
Y13272D01*
X2787D01*
Y13002D01*
D02*
G37*
G36*
X8017Y9830D02*
X7947D01*
Y9864D01*
X8017D01*
Y9830D01*
D02*
G37*
G36*
X7934D02*
X7863D01*
Y9864D01*
X7934D01*
Y9830D01*
D02*
G37*
G36*
X8017Y9780D02*
X7947D01*
Y9814D01*
X8017D01*
Y9780D01*
D02*
G37*
G36*
X7934D02*
X7863D01*
Y9814D01*
X7934D01*
Y9780D01*
D02*
G37*
G36*
X8017Y9720D02*
X7947D01*
Y9774D01*
X8017D01*
Y9720D01*
D02*
G37*
G36*
X7934D02*
X7863D01*
Y9774D01*
X7934D01*
Y9720D01*
D02*
G37*
G36*
X8017Y9680D02*
X7947D01*
Y9714D01*
X8017D01*
Y9680D01*
D02*
G37*
G36*
X7934D02*
X7863D01*
Y9714D01*
X7934D01*
Y9680D01*
D02*
G37*
G36*
X8017Y9630D02*
X7947D01*
Y9664D01*
X8017D01*
Y9630D01*
D02*
G37*
G36*
X7934D02*
X7863D01*
Y9664D01*
X7934D01*
Y9630D01*
D02*
G37*
G36*
X5826Y9426D02*
X5487D01*
Y9676D01*
X5826D01*
Y9426D01*
D02*
G37*
G36*
X8017Y9336D02*
X7947D01*
Y9370D01*
X8017D01*
Y9336D01*
D02*
G37*
G36*
X7934D02*
X7863D01*
Y9370D01*
X7934D01*
Y9336D01*
D02*
G37*
G36*
X8017Y9286D02*
X7947D01*
Y9320D01*
X8017D01*
Y9286D01*
D02*
G37*
G36*
X7934D02*
X7863D01*
Y9320D01*
X7934D01*
Y9286D01*
D02*
G37*
G36*
X5003Y9231D02*
X4788D01*
Y9299D01*
X5003D01*
Y9231D01*
D02*
G37*
G36*
X8017Y9226D02*
X7947D01*
Y9280D01*
X8017D01*
Y9226D01*
D02*
G37*
G36*
X7934D02*
X7863D01*
Y9280D01*
X7934D01*
Y9226D01*
D02*
G37*
G36*
X5823Y9191D02*
X5608D01*
Y9259D01*
X5823D01*
Y9191D01*
D02*
G37*
G36*
X8017Y9186D02*
X7947D01*
Y9220D01*
X8017D01*
Y9186D01*
D02*
G37*
G36*
X7934D02*
X7863D01*
Y9220D01*
X7934D01*
Y9186D01*
D02*
G37*
G36*
X5003Y9151D02*
X4788D01*
Y9219D01*
X5003D01*
Y9151D01*
D02*
G37*
G36*
X8017Y9136D02*
X7947D01*
Y9170D01*
X8017D01*
Y9136D01*
D02*
G37*
G36*
X7934D02*
X7863D01*
Y9170D01*
X7934D01*
Y9136D01*
D02*
G37*
G36*
X5823Y9111D02*
X5608D01*
Y9179D01*
X5823D01*
Y9111D01*
D02*
G37*
G36*
X5003Y9071D02*
X4788D01*
Y9139D01*
X5003D01*
Y9071D01*
D02*
G37*
G36*
X5823Y9031D02*
X5608D01*
Y9099D01*
X5823D01*
Y9031D01*
D02*
G37*
G36*
X5003Y8991D02*
X4788D01*
Y9059D01*
X5003D01*
Y8991D01*
D02*
G37*
G36*
X5823Y8951D02*
X5608D01*
Y9019D01*
X5823D01*
Y8951D01*
D02*
G37*
G36*
X5003Y8911D02*
X4788D01*
Y8979D01*
X5003D01*
Y8911D01*
D02*
G37*
G36*
X5823Y8871D02*
X5608D01*
Y8939D01*
X5823D01*
Y8871D01*
D02*
G37*
G36*
X5003Y8831D02*
X4788D01*
Y8899D01*
X5003D01*
Y8831D01*
D02*
G37*
G36*
X5823Y8791D02*
X5608D01*
Y8859D01*
X5823D01*
Y8791D01*
D02*
G37*
G36*
X5003Y8751D02*
X4788D01*
Y8819D01*
X5003D01*
Y8751D01*
D02*
G37*
G36*
X5823Y8711D02*
X5608D01*
Y8779D01*
X5823D01*
Y8711D01*
D02*
G37*
G36*
X5003Y8671D02*
X4788D01*
Y8739D01*
X5003D01*
Y8671D01*
D02*
G37*
G36*
X5823Y8631D02*
X5608D01*
Y8699D01*
X5823D01*
Y8631D01*
D02*
G37*
G36*
X5003Y8591D02*
X4788D01*
Y8659D01*
X5003D01*
Y8591D01*
D02*
G37*
G36*
X5823Y8551D02*
X5608D01*
Y8619D01*
X5823D01*
Y8551D01*
D02*
G37*
G36*
X5003Y8511D02*
X4788D01*
Y8579D01*
X5003D01*
Y8511D01*
D02*
G37*
G36*
X5823Y8471D02*
X5608D01*
Y8539D01*
X5823D01*
Y8471D01*
D02*
G37*
G36*
X5003Y8431D02*
X4788D01*
Y8499D01*
X5003D01*
Y8431D01*
D02*
G37*
G36*
X5823Y8391D02*
X5608D01*
Y8459D01*
X5823D01*
Y8391D01*
D02*
G37*
G36*
X5003Y8351D02*
X4788D01*
Y8419D01*
X5003D01*
Y8351D01*
D02*
G37*
G36*
X5823Y8311D02*
X5608D01*
Y8379D01*
X5823D01*
Y8311D01*
D02*
G37*
G36*
X5003Y8271D02*
X4788D01*
Y8339D01*
X5003D01*
Y8271D01*
D02*
G37*
G36*
X5823Y8231D02*
X5608D01*
Y8299D01*
X5823D01*
Y8231D01*
D02*
G37*
G36*
X5003Y8191D02*
X4788D01*
Y8259D01*
X5003D01*
Y8191D01*
D02*
G37*
G36*
X5823Y8151D02*
X5608D01*
Y8219D01*
X5823D01*
Y8151D01*
D02*
G37*
G36*
X5003Y8111D02*
X4788D01*
Y8179D01*
X5003D01*
Y8111D01*
D02*
G37*
G36*
X5823Y8071D02*
X5608D01*
Y8139D01*
X5823D01*
Y8071D01*
D02*
G37*
G36*
X5003Y8031D02*
X4788D01*
Y8099D01*
X5003D01*
Y8031D01*
D02*
G37*
G36*
X5823Y7991D02*
X5608D01*
Y8059D01*
X5823D01*
Y7991D01*
D02*
G37*
G36*
X5003Y7951D02*
X4788D01*
Y8019D01*
X5003D01*
Y7951D01*
D02*
G37*
G36*
X5823Y7911D02*
X5608D01*
Y7979D01*
X5823D01*
Y7911D01*
D02*
G37*
G36*
X6121Y7897D02*
X6051D01*
Y7931D01*
X6121D01*
Y7897D01*
D02*
G37*
G36*
X6038D02*
X5967D01*
Y7931D01*
X6038D01*
Y7897D01*
D02*
G37*
G36*
X5003Y7871D02*
X4788D01*
Y7939D01*
X5003D01*
Y7871D01*
D02*
G37*
G36*
X6121Y7847D02*
X6051D01*
Y7881D01*
X6121D01*
Y7847D01*
D02*
G37*
G36*
X6038D02*
X5967D01*
Y7881D01*
X6038D01*
Y7847D01*
D02*
G37*
G36*
X5823Y7831D02*
X5608D01*
Y7899D01*
X5823D01*
Y7831D01*
D02*
G37*
G36*
X6121Y7787D02*
X6051D01*
Y7841D01*
X6121D01*
Y7787D01*
D02*
G37*
G36*
X6038D02*
X5967D01*
Y7841D01*
X6038D01*
Y7787D01*
D02*
G37*
G36*
X6121Y7747D02*
X6051D01*
Y7781D01*
X6121D01*
Y7747D01*
D02*
G37*
G36*
X6038D02*
X5967D01*
Y7781D01*
X6038D01*
Y7747D01*
D02*
G37*
G36*
X6121Y7697D02*
X6051D01*
Y7731D01*
X6121D01*
Y7697D01*
D02*
G37*
G36*
X6038D02*
X5967D01*
Y7731D01*
X6038D01*
Y7697D01*
D02*
G37*
G36*
X5003Y7471D02*
X4788D01*
Y7539D01*
X5003D01*
Y7471D01*
D02*
G37*
G36*
X5823Y7431D02*
X5608D01*
Y7499D01*
X5823D01*
Y7431D01*
D02*
G37*
G36*
X5003Y7391D02*
X4788D01*
Y7459D01*
X5003D01*
Y7391D01*
D02*
G37*
G36*
X5823Y7351D02*
X5608D01*
Y7419D01*
X5823D01*
Y7351D01*
D02*
G37*
G36*
X5003Y7311D02*
X4788D01*
Y7379D01*
X5003D01*
Y7311D01*
D02*
G37*
G36*
X5823Y7271D02*
X5608D01*
Y7339D01*
X5823D01*
Y7271D01*
D02*
G37*
G36*
X5003Y7231D02*
X4788D01*
Y7299D01*
X5003D01*
Y7231D01*
D02*
G37*
G36*
X5823Y7191D02*
X5608D01*
Y7259D01*
X5823D01*
Y7191D01*
D02*
G37*
G36*
X5003Y7151D02*
X4788D01*
Y7219D01*
X5003D01*
Y7151D01*
D02*
G37*
G36*
X6121Y7135D02*
X6051D01*
Y7169D01*
X6121D01*
Y7135D01*
D02*
G37*
G36*
X6038D02*
X5967D01*
Y7169D01*
X6038D01*
Y7135D01*
D02*
G37*
G36*
X5823Y7111D02*
X5608D01*
Y7179D01*
X5823D01*
Y7111D01*
D02*
G37*
G36*
X6121Y7085D02*
X6051D01*
Y7119D01*
X6121D01*
Y7085D01*
D02*
G37*
G36*
X6038D02*
X5967D01*
Y7119D01*
X6038D01*
Y7085D01*
D02*
G37*
G36*
X5003Y7071D02*
X4788D01*
Y7139D01*
X5003D01*
Y7071D01*
D02*
G37*
G36*
X5823Y7031D02*
X5608D01*
Y7099D01*
X5823D01*
Y7031D01*
D02*
G37*
G36*
X6121Y7025D02*
X6051D01*
Y7079D01*
X6121D01*
Y7025D01*
D02*
G37*
G36*
X6038D02*
X5967D01*
Y7079D01*
X6038D01*
Y7025D01*
D02*
G37*
G36*
X5003Y6991D02*
X4788D01*
Y7059D01*
X5003D01*
Y6991D01*
D02*
G37*
G36*
X6121Y6985D02*
X6051D01*
Y7019D01*
X6121D01*
Y6985D01*
D02*
G37*
G36*
X6038D02*
X5967D01*
Y7019D01*
X6038D01*
Y6985D01*
D02*
G37*
G36*
X5823Y6951D02*
X5608D01*
Y7019D01*
X5823D01*
Y6951D01*
D02*
G37*
G36*
X6121Y6935D02*
X6051D01*
Y6969D01*
X6121D01*
Y6935D01*
D02*
G37*
G36*
X6038D02*
X5967D01*
Y6969D01*
X6038D01*
Y6935D01*
D02*
G37*
G36*
X5003Y6911D02*
X4788D01*
Y6979D01*
X5003D01*
Y6911D01*
D02*
G37*
G36*
X5823Y6871D02*
X5608D01*
Y6939D01*
X5823D01*
Y6871D01*
D02*
G37*
G36*
X5824Y6496D02*
X5486D01*
Y6746D01*
X5824D01*
Y6496D01*
D02*
G37*
G36*
X7821Y5789D02*
X7750D01*
Y5823D01*
X7821D01*
Y5789D01*
D02*
G37*
G36*
X7737D02*
X7667D01*
Y5823D01*
X7737D01*
Y5789D01*
D02*
G37*
G36*
X7821Y5739D02*
X7750D01*
Y5773D01*
X7821D01*
Y5739D01*
D02*
G37*
G36*
X7737D02*
X7667D01*
Y5773D01*
X7737D01*
Y5739D01*
D02*
G37*
G36*
X7821Y5679D02*
X7750D01*
Y5733D01*
X7821D01*
Y5679D01*
D02*
G37*
G36*
X7737D02*
X7667D01*
Y5733D01*
X7737D01*
Y5679D01*
D02*
G37*
G36*
X7821Y5639D02*
X7750D01*
Y5673D01*
X7821D01*
Y5639D01*
D02*
G37*
G36*
X7737D02*
X7667D01*
Y5673D01*
X7737D01*
Y5639D01*
D02*
G37*
G36*
X7821Y5589D02*
X7750D01*
Y5623D01*
X7821D01*
Y5589D01*
D02*
G37*
G36*
X7737D02*
X7667D01*
Y5623D01*
X7737D01*
Y5589D01*
D02*
G37*
G36*
X7821Y5287D02*
X7751D01*
Y5321D01*
X7821D01*
Y5287D01*
D02*
G37*
G36*
X7738D02*
X7667D01*
Y5321D01*
X7738D01*
Y5287D01*
D02*
G37*
G36*
X7821Y5237D02*
X7751D01*
Y5271D01*
X7821D01*
Y5237D01*
D02*
G37*
G36*
X7738D02*
X7667D01*
Y5271D01*
X7738D01*
Y5237D01*
D02*
G37*
G36*
X7821Y5177D02*
X7751D01*
Y5231D01*
X7821D01*
Y5177D01*
D02*
G37*
G36*
X7738D02*
X7667D01*
Y5231D01*
X7738D01*
Y5177D01*
D02*
G37*
G36*
X7821Y5137D02*
X7751D01*
Y5171D01*
X7821D01*
Y5137D01*
D02*
G37*
G36*
X7738D02*
X7667D01*
Y5171D01*
X7738D01*
Y5137D01*
D02*
G37*
G36*
X7821Y5087D02*
X7751D01*
Y5121D01*
X7821D01*
Y5087D01*
D02*
G37*
G36*
X7738D02*
X7667D01*
Y5121D01*
X7738D01*
Y5087D01*
D02*
G37*
G36*
X1630Y775D02*
X1596D01*
Y845D01*
X1630D01*
Y775D01*
D02*
G37*
G36*
X1580D02*
X1546D01*
Y845D01*
X1580D01*
Y775D01*
D02*
G37*
G36*
X1540D02*
X1486D01*
Y845D01*
X1540D01*
Y775D01*
D02*
G37*
G36*
X1480D02*
X1446D01*
Y845D01*
X1480D01*
Y775D01*
D02*
G37*
G36*
X1430D02*
X1396D01*
Y845D01*
X1430D01*
Y775D01*
D02*
G37*
G36*
X1630Y691D02*
X1596D01*
Y762D01*
X1630D01*
Y691D01*
D02*
G37*
G36*
X1580D02*
X1546D01*
Y762D01*
X1580D01*
Y691D01*
D02*
G37*
G36*
X1540D02*
X1486D01*
Y762D01*
X1540D01*
Y691D01*
D02*
G37*
G36*
X1480D02*
X1446D01*
Y762D01*
X1480D01*
Y691D01*
D02*
G37*
G36*
X1430D02*
X1396D01*
Y762D01*
X1430D01*
Y691D01*
D02*
G37*
D22*
X6086Y6952D02*
D03*
X6002D02*
D03*
X6086Y7002D02*
D03*
X6002D02*
D03*
X6086Y7152D02*
D03*
X6002D02*
D03*
X6086Y7102D02*
D03*
X6002D02*
D03*
Y7764D02*
D03*
X6086D02*
D03*
X6002Y7714D02*
D03*
X6086D02*
D03*
X6002Y7914D02*
D03*
X6086D02*
D03*
X6002Y7864D02*
D03*
X6086D02*
D03*
D31*
X7898Y2346D02*
D03*
Y2219D02*
D03*
X7897Y3199D02*
D03*
Y3072D02*
D03*
Y2945D02*
D03*
X7898Y2092D02*
D03*
X7425Y2219D02*
D03*
Y2346D02*
D03*
X7424Y3072D02*
D03*
Y3199D02*
D03*
Y2945D02*
D03*
X7425Y2092D02*
D03*
X7897Y3326D02*
D03*
X7898Y2473D02*
D03*
D38*
X7516Y13078D02*
D03*
X5448Y13903D02*
D03*
Y13968D02*
D03*
Y14033D02*
D03*
X6206Y13505D02*
D03*
X6906Y13506D02*
D03*
X6206Y13700D02*
D03*
Y13635D02*
D03*
Y13570D02*
D03*
X6906Y13701D02*
D03*
Y13636D02*
D03*
Y13571D02*
D03*
X5448Y14098D02*
D03*
X5128D02*
D03*
Y14033D02*
D03*
Y13968D02*
D03*
Y13903D02*
D03*
X2505Y13039D02*
D03*
X7836Y13078D02*
D03*
Y13143D02*
D03*
Y13208D02*
D03*
Y13273D02*
D03*
X7226Y13506D02*
D03*
Y13571D02*
D03*
Y13636D02*
D03*
Y13701D02*
D03*
X6526Y13505D02*
D03*
Y13570D02*
D03*
Y13635D02*
D03*
Y13700D02*
D03*
X7516Y13273D02*
D03*
Y13208D02*
D03*
Y13143D02*
D03*
X2505Y13234D02*
D03*
Y13169D02*
D03*
Y13104D02*
D03*
X2825Y13039D02*
D03*
Y13104D02*
D03*
Y13169D02*
D03*
Y13234D02*
D03*
D42*
X5528Y13416D02*
D03*
X5593D02*
D03*
X5658D02*
D03*
X5723D02*
D03*
Y13736D02*
D03*
X5658D02*
D03*
X5593D02*
D03*
X5528D02*
D03*
D43*
X5616Y13068D02*
D03*
X5026D02*
D03*
D56*
X7424Y3326D02*
D03*
X7425Y2473D02*
D03*
D57*
X1463Y727D02*
D03*
Y810D02*
D03*
X1413Y727D02*
D03*
Y810D02*
D03*
X1613D02*
D03*
X1563D02*
D03*
Y727D02*
D03*
X1613D02*
D03*
D59*
X5884Y12205D02*
D03*
X5129Y11730D02*
D03*
X5884Y11705D02*
D03*
X5129Y11680D02*
D03*
X5884Y11655D02*
D03*
X5129Y11630D02*
D03*
X5884Y11605D02*
D03*
X5129Y11580D02*
D03*
Y11530D02*
D03*
X5884Y11505D02*
D03*
Y11455D02*
D03*
Y11355D02*
D03*
Y11305D02*
D03*
X5129Y11280D02*
D03*
Y11230D02*
D03*
X5884Y11205D02*
D03*
X5129Y11180D02*
D03*
X5884Y11155D02*
D03*
X5129Y11130D02*
D03*
Y11080D02*
D03*
X5884Y11055D02*
D03*
X5129Y11030D02*
D03*
X5884Y11005D02*
D03*
X5129Y10980D02*
D03*
Y10930D02*
D03*
X5884Y10905D02*
D03*
X5129Y10880D02*
D03*
X5884Y10855D02*
D03*
X5129Y10830D02*
D03*
Y10780D02*
D03*
X5884Y10755D02*
D03*
X5129Y10730D02*
D03*
X5884Y10705D02*
D03*
X5129Y10680D02*
D03*
X5884Y10655D02*
D03*
X5129Y10630D02*
D03*
X5884Y10605D02*
D03*
X5129Y10530D02*
D03*
X5884Y10505D02*
D03*
Y10405D02*
D03*
Y10455D02*
D03*
Y10805D02*
D03*
Y10955D02*
D03*
Y11105D02*
D03*
Y11255D02*
D03*
Y11405D02*
D03*
Y11555D02*
D03*
Y11955D02*
D03*
Y12105D02*
D03*
Y12155D02*
D03*
X5129Y10380D02*
D03*
Y10430D02*
D03*
Y10480D02*
D03*
Y12130D02*
D03*
Y12180D02*
D03*
X5884Y12005D02*
D03*
Y12055D02*
D03*
X5129Y12080D02*
D03*
X5884Y10555D02*
D03*
Y10355D02*
D03*
X5129Y11430D02*
D03*
Y11380D02*
D03*
Y10580D02*
D03*
Y11480D02*
D03*
Y11330D02*
D03*
Y11980D02*
D03*
Y12030D02*
D03*
D60*
X5806Y10245D02*
D03*
Y12315D02*
D03*
D61*
X2682Y1205D02*
D03*
X2732Y1205D02*
D03*
X2832D02*
D03*
X2882Y1205D02*
D03*
X2782D02*
D03*
X2532Y1205D02*
D03*
X2582Y355D02*
D03*
X2482Y1205D02*
D03*
X2682Y355D02*
D03*
X2632Y355D02*
D03*
X2732D02*
D03*
X2532Y355D02*
D03*
X2332D02*
D03*
X2482Y355D02*
D03*
X2382Y1205D02*
D03*
X2432Y1205D02*
D03*
X2332D02*
D03*
X2432Y355D02*
D03*
X2582Y1205D02*
D03*
X2632Y1205D02*
D03*
X2882Y355D02*
D03*
X2832Y355D02*
D03*
X2782Y355D02*
D03*
X2382Y355D02*
D03*
D62*
X6104Y4281D02*
D03*
X6010D02*
D03*
X6104Y4166D02*
D03*
X6010Y4059D02*
D03*
X6104D02*
D03*
X7899Y4535D02*
D03*
X6199Y4281D02*
D03*
X6382D02*
D03*
X6293D02*
D03*
X6477D02*
D03*
X6572D02*
D03*
X6759D02*
D03*
X6666D02*
D03*
X6852D02*
D03*
X7037D02*
D03*
X6945D02*
D03*
X7132D02*
D03*
X7226D02*
D03*
X7316D02*
D03*
Y4059D02*
D03*
Y4166D02*
D03*
X7410Y4060D02*
D03*
X8283Y7156D02*
D03*
X8281Y7540D02*
D03*
X8280Y7915D02*
D03*
X8283Y8304D02*
D03*
X8283Y7041D02*
D03*
X8281Y7425D02*
D03*
X8280Y7800D02*
D03*
X8283Y8189D02*
D03*
X6054Y9159D02*
D03*
X6177Y9158D02*
D03*
X5025Y12692D02*
D03*
X5155Y12696D02*
D03*
X6054Y9044D02*
D03*
X5155Y12581D02*
D03*
X1820Y2076D02*
D03*
X3906Y14217D02*
D03*
X5577Y13978D02*
D03*
X5692Y13973D02*
D03*
X3965Y13094D02*
D03*
X4572Y13741D02*
D03*
X4077Y13205D02*
D03*
X6018Y13450D02*
D03*
X6767Y13444D02*
D03*
X6018Y13565D02*
D03*
X6767Y13559D02*
D03*
X3965Y13209D02*
D03*
X4572Y13856D02*
D03*
X5577Y14093D02*
D03*
X5692Y14088D02*
D03*
X4665Y13604D02*
D03*
X4570Y13604D02*
D03*
X4078Y12959D02*
D03*
X4077Y13090D02*
D03*
X3964Y12959D02*
D03*
X4009Y14102D02*
D03*
X3906Y14102D02*
D03*
X9102Y2338D02*
D03*
X9084Y3234D02*
D03*
X9102Y2223D02*
D03*
X9084Y3119D02*
D03*
X4009Y14217D02*
D03*
X4570Y13489D02*
D03*
X1091Y1467D02*
D03*
X5025Y12577D02*
D03*
X6177Y9043D02*
D03*
X4665Y13489D02*
D03*
X4078Y12844D02*
D03*
X3964D02*
D03*
X1820Y1961D02*
D03*
X1924D02*
D03*
X1297Y2088D02*
D03*
X1924Y2076D02*
D03*
X6706Y2138D02*
D03*
X5065Y2053D02*
D03*
X3350Y965D02*
D03*
X7899Y4420D02*
D03*
X6945Y4166D02*
D03*
X6477D02*
D03*
X6010Y3944D02*
D03*
X7410Y3945D02*
D03*
X2015Y1492D02*
D03*
X6706Y2023D02*
D03*
X5065Y1938D02*
D03*
X3350Y850D02*
D03*
X1297Y1973D02*
D03*
X7316Y3944D02*
D03*
X7132Y4166D02*
D03*
X7226D02*
D03*
X6852D02*
D03*
X7037D02*
D03*
X6666D02*
D03*
X6572D02*
D03*
X6382D02*
D03*
X6293D02*
D03*
X6010D02*
D03*
X6199D02*
D03*
X6104Y3944D02*
D03*
X6759Y4166D02*
D03*
X1091Y1582D02*
D03*
X2015Y1607D02*
D03*
D63*
X6424Y4736D02*
D03*
X6384D02*
D03*
X7024Y6272D02*
D03*
X6984D02*
D03*
X7104D02*
D03*
X7064D02*
D03*
X7224D02*
D03*
X7184D02*
D03*
X7304D02*
D03*
X7264D02*
D03*
X7064Y4736D02*
D03*
X7104D02*
D03*
X7304D02*
D03*
X7264D02*
D03*
X7184D02*
D03*
X7224D02*
D03*
X7144D02*
D03*
X6464D02*
D03*
X6544D02*
D03*
X6504D02*
D03*
X6584D02*
D03*
X6624D02*
D03*
X6704D02*
D03*
X6664D02*
D03*
X6744D02*
D03*
X6824D02*
D03*
X6784D02*
D03*
X6864D02*
D03*
X6904D02*
D03*
X6944D02*
D03*
X6864Y6272D02*
D03*
X7144D02*
D03*
X6824D02*
D03*
X6544D02*
D03*
X6264D02*
D03*
X6344Y4736D02*
D03*
X6904Y6272D02*
D03*
X7344D02*
D03*
X6944D02*
D03*
X6704D02*
D03*
X6664D02*
D03*
X6464D02*
D03*
X6264Y4736D02*
D03*
X6304D02*
D03*
X7024D02*
D03*
X7344D02*
D03*
X6784Y6272D02*
D03*
X6744D02*
D03*
X6624D02*
D03*
X6584D02*
D03*
X6504D02*
D03*
X6424D02*
D03*
X6384D02*
D03*
X6344D02*
D03*
X6304D02*
D03*
X6224D02*
D03*
X6184D02*
D03*
X6144D02*
D03*
X6104D02*
D03*
Y4736D02*
D03*
X6144D02*
D03*
X6184D02*
D03*
X6224D02*
D03*
X6984D02*
D03*
D64*
X9634Y6658D02*
D03*
X9631Y6507D02*
D03*
X9765Y6659D02*
D03*
X9762Y6508D02*
D03*
X6103Y2009D02*
D03*
Y1878D02*
D03*
X4447Y1907D02*
D03*
Y1776D02*
D03*
X6941Y3334D02*
D03*
X6957Y3176D02*
D03*
X7149Y2771D02*
D03*
X4316Y1907D02*
D03*
Y1776D02*
D03*
X5972Y2009D02*
D03*
Y1878D02*
D03*
X7072Y3335D02*
D03*
X7018Y2770D02*
D03*
X7088Y3177D02*
D03*
D65*
X9468Y6659D02*
D03*
X8046Y7041D02*
D03*
X8047Y7428D02*
D03*
X7496Y4214D02*
D03*
X9353Y6659D02*
D03*
X8046Y8189D02*
D03*
Y7798D02*
D03*
X8161Y7041D02*
D03*
X8162Y7428D02*
D03*
X8161Y7798D02*
D03*
Y8189D02*
D03*
X8145Y2438D02*
D03*
Y2345D02*
D03*
Y2216D02*
D03*
Y2122D02*
D03*
X8125Y3298D02*
D03*
Y3204D02*
D03*
Y3075D02*
D03*
Y2976D02*
D03*
X1518Y12867D02*
D03*
X1403Y12239D02*
D03*
X1518D02*
D03*
Y12491D02*
D03*
X6104Y2246D02*
D03*
X4450Y2141D02*
D03*
X6104Y2133D02*
D03*
X4450Y2036D02*
D03*
X8047Y13536D02*
D03*
X3520Y13617D02*
D03*
Y13825D02*
D03*
X758Y13069D02*
D03*
X1046Y13067D02*
D03*
X1335D02*
D03*
X1046Y13203D02*
D03*
X754D02*
D03*
X2574Y14099D02*
D03*
X1329Y13203D02*
D03*
X6314Y13218D02*
D03*
X7045Y13159D02*
D03*
X6314Y13321D02*
D03*
X7045Y13289D02*
D03*
X1220Y13067D02*
D03*
X1214Y13203D02*
D03*
X931Y13067D02*
D03*
Y13203D02*
D03*
X639D02*
D03*
X643Y13069D02*
D03*
X9542Y13118D02*
D03*
X6769Y3339D02*
D03*
X3635Y13617D02*
D03*
X3635Y13510D02*
D03*
Y13720D02*
D03*
X3635Y13825D02*
D03*
X7160Y13289D02*
D03*
X6429Y13218D02*
D03*
Y13321D02*
D03*
X7160Y13159D02*
D03*
X8260Y2345D02*
D03*
X8240Y3204D02*
D03*
X8260Y2216D02*
D03*
X8240Y3075D02*
D03*
X9657Y13118D02*
D03*
X3520Y13720D02*
D03*
Y13510D02*
D03*
X2689Y14099D02*
D03*
X1978Y955D02*
D03*
X6652Y3181D02*
D03*
X7034Y2626D02*
D03*
X6767Y3181D02*
D03*
X7149Y2626D02*
D03*
X2574Y2025D02*
D03*
X3071Y2027D02*
D03*
X2956D02*
D03*
X2689Y2025D02*
D03*
X4335Y2036D02*
D03*
X5989Y2133D02*
D03*
X7932Y13536D02*
D03*
X1863Y955D02*
D03*
X1403Y12867D02*
D03*
X8260Y2438D02*
D03*
X7594Y2624D02*
D03*
X8240Y3298D02*
D03*
X7600Y3464D02*
D03*
X7611Y4214D02*
D03*
X1403Y12491D02*
D03*
X4335Y2141D02*
D03*
X5989Y2246D02*
D03*
X6654Y3339D02*
D03*
X8260Y2122D02*
D03*
X7709Y2624D02*
D03*
X8240Y2976D02*
D03*
X7715Y3464D02*
D03*
D66*
X3647Y6174D02*
D03*
X3687D02*
D03*
X3527D02*
D03*
X3567D02*
D03*
X3687Y5866D02*
D03*
X3647D02*
D03*
X3527D02*
D03*
X3567D02*
D03*
X3167D02*
D03*
X3247Y6174D02*
D03*
X3207D02*
D03*
X3247Y5866D02*
D03*
X2767Y6174D02*
D03*
X3287Y5866D02*
D03*
X2247Y6174D02*
D03*
Y5866D02*
D03*
X2527Y6174D02*
D03*
X2367D02*
D03*
X2407D02*
D03*
X2487D02*
D03*
X2527Y5866D02*
D03*
X2607Y6174D02*
D03*
X2927D02*
D03*
X3007D02*
D03*
X3127D02*
D03*
X2847D02*
D03*
Y5866D02*
D03*
X2807Y6174D02*
D03*
Y5866D02*
D03*
X1967Y6174D02*
D03*
X3647Y2782D02*
D03*
X3687D02*
D03*
X3727D02*
D03*
X3527D02*
D03*
X3407Y5866D02*
D03*
X3447D02*
D03*
X2127D02*
D03*
X2167D02*
D03*
X1927D02*
D03*
X3327Y6174D02*
D03*
X1887D02*
D03*
X1847D02*
D03*
X1767Y5866D02*
D03*
X3607Y2782D02*
D03*
Y2474D02*
D03*
X3487Y2782D02*
D03*
Y2474D02*
D03*
X3367Y2782D02*
D03*
Y2474D02*
D03*
X3247Y2782D02*
D03*
Y2474D02*
D03*
X3127Y2782D02*
D03*
Y2474D02*
D03*
X3007Y2782D02*
D03*
Y2474D02*
D03*
X2887D02*
D03*
X2767D02*
D03*
X2647Y2782D02*
D03*
Y2474D02*
D03*
X2527Y2782D02*
D03*
Y2474D02*
D03*
X2407Y2782D02*
D03*
Y2474D02*
D03*
X2287Y2782D02*
D03*
Y2474D02*
D03*
X2167Y2782D02*
D03*
Y2474D02*
D03*
X2047Y2782D02*
D03*
Y2474D02*
D03*
X1927Y2782D02*
D03*
Y2474D02*
D03*
X1807Y2782D02*
D03*
Y2474D02*
D03*
X3727Y6174D02*
D03*
X3607D02*
D03*
X3487D02*
D03*
X3287D02*
D03*
X3087D02*
D03*
X2887D02*
D03*
X2687D02*
D03*
X2567D02*
D03*
X2447D02*
D03*
X2327D02*
D03*
X3727Y5866D02*
D03*
X3327D02*
D03*
X3127D02*
D03*
X2927D02*
D03*
X2727D02*
D03*
X3607D02*
D03*
X3487D02*
D03*
X2567D02*
D03*
X2447D02*
D03*
X2287D02*
D03*
X1807D02*
D03*
X2767D02*
D03*
X3167Y6174D02*
D03*
X2727D02*
D03*
X2647D02*
D03*
X3207Y5866D02*
D03*
X3007D02*
D03*
X2887D02*
D03*
X2967D02*
D03*
Y6174D02*
D03*
X3087Y5866D02*
D03*
X2687D02*
D03*
X2647D02*
D03*
X2607D02*
D03*
X3047D02*
D03*
Y6174D02*
D03*
X2207Y5866D02*
D03*
X1767Y6174D02*
D03*
X3367Y5866D02*
D03*
X1807Y6174D02*
D03*
X1927D02*
D03*
X1887Y5866D02*
D03*
X1847D02*
D03*
X2087Y6174D02*
D03*
X2207D02*
D03*
X2167D02*
D03*
X2127D02*
D03*
X2047D02*
D03*
X2007D02*
D03*
X2087Y5866D02*
D03*
X2047D02*
D03*
X2007D02*
D03*
X1967D02*
D03*
X2327D02*
D03*
X2367D02*
D03*
X2407D02*
D03*
X2487D02*
D03*
X2287Y6174D02*
D03*
X3367D02*
D03*
X3407D02*
D03*
X3447D02*
D03*
X1767Y2474D02*
D03*
Y2782D02*
D03*
X1847Y2474D02*
D03*
Y2782D02*
D03*
X1887Y2474D02*
D03*
Y2782D02*
D03*
X1967Y2474D02*
D03*
Y2782D02*
D03*
X2007Y2474D02*
D03*
Y2782D02*
D03*
X2087Y2474D02*
D03*
Y2782D02*
D03*
X2127Y2474D02*
D03*
Y2782D02*
D03*
X2207Y2474D02*
D03*
Y2782D02*
D03*
X2247Y2474D02*
D03*
Y2782D02*
D03*
X2327Y2474D02*
D03*
Y2782D02*
D03*
X2367Y2474D02*
D03*
Y2782D02*
D03*
X2447Y2474D02*
D03*
Y2782D02*
D03*
X2487Y2474D02*
D03*
Y2782D02*
D03*
X2567Y2474D02*
D03*
Y2782D02*
D03*
X2607Y2474D02*
D03*
Y2782D02*
D03*
X2687Y2474D02*
D03*
Y2782D02*
D03*
X2727Y2474D02*
D03*
Y2782D02*
D03*
X2767D02*
D03*
X2807Y2474D02*
D03*
Y2782D02*
D03*
X2847Y2474D02*
D03*
Y2782D02*
D03*
X2887D02*
D03*
X2927Y2474D02*
D03*
Y2782D02*
D03*
X2967Y2474D02*
D03*
Y2782D02*
D03*
X3047Y2474D02*
D03*
Y2782D02*
D03*
X3087Y2474D02*
D03*
Y2782D02*
D03*
X3167Y2474D02*
D03*
Y2782D02*
D03*
X3207Y2474D02*
D03*
Y2782D02*
D03*
X3287Y2474D02*
D03*
Y2782D02*
D03*
X3327Y2474D02*
D03*
Y2782D02*
D03*
X3407Y2474D02*
D03*
Y2782D02*
D03*
X3447Y2474D02*
D03*
Y2782D02*
D03*
X3527Y2474D02*
D03*
X3567D02*
D03*
Y2782D02*
D03*
X3647Y2474D02*
D03*
X3687D02*
D03*
X3727D02*
D03*
D67*
X7491Y5804D02*
D03*
Y5844D02*
D03*
Y5884D02*
D03*
Y5924D02*
D03*
Y6004D02*
D03*
Y6044D02*
D03*
Y6084D02*
D03*
Y6124D02*
D03*
Y5564D02*
D03*
Y5604D02*
D03*
Y5484D02*
D03*
Y5524D02*
D03*
Y5364D02*
D03*
Y5404D02*
D03*
Y5284D02*
D03*
Y5324D02*
D03*
Y5164D02*
D03*
Y5204D02*
D03*
Y5084D02*
D03*
Y5124D02*
D03*
Y4964D02*
D03*
Y5004D02*
D03*
Y4884D02*
D03*
Y4924D02*
D03*
X5956Y6084D02*
D03*
X7491Y5644D02*
D03*
X5956Y5324D02*
D03*
X7491Y5044D02*
D03*
Y5444D02*
D03*
Y5964D02*
D03*
Y5724D02*
D03*
X5956Y6124D02*
D03*
Y6004D02*
D03*
Y5884D02*
D03*
Y5284D02*
D03*
Y5244D02*
D03*
X7491D02*
D03*
Y5764D02*
D03*
X5956Y6044D02*
D03*
Y5964D02*
D03*
Y5924D02*
D03*
Y5844D02*
D03*
Y5804D02*
D03*
Y5764D02*
D03*
Y5724D02*
D03*
Y5684D02*
D03*
Y5644D02*
D03*
Y5604D02*
D03*
Y5564D02*
D03*
Y5524D02*
D03*
Y5484D02*
D03*
Y5444D02*
D03*
Y5404D02*
D03*
Y5364D02*
D03*
Y5204D02*
D03*
Y5164D02*
D03*
Y5124D02*
D03*
Y5084D02*
D03*
Y5044D02*
D03*
Y5004D02*
D03*
Y4964D02*
D03*
Y4924D02*
D03*
Y4884D02*
D03*
X7491Y5684D02*
D03*
D68*
X6368Y6791D02*
D03*
Y6918D02*
D03*
Y7299D02*
D03*
Y7172D02*
D03*
Y7680D02*
D03*
Y7553D02*
D03*
Y8061D02*
D03*
Y7934D02*
D03*
Y7045D02*
D03*
Y7426D02*
D03*
Y7807D02*
D03*
Y8188D02*
D03*
X7838Y7045D02*
D03*
Y7426D02*
D03*
Y8188D02*
D03*
Y7807D02*
D03*
Y6918D02*
D03*
Y6791D02*
D03*
Y7299D02*
D03*
Y7172D02*
D03*
Y7680D02*
D03*
Y7553D02*
D03*
Y8061D02*
D03*
Y7934D02*
D03*
D69*
X7497Y4373D02*
D03*
X7717Y4543D02*
D03*
Y4373D02*
D03*
X7497Y4543D02*
D03*
D70*
X4203Y13884D02*
D03*
Y13497D02*
D03*
X4053Y13884D02*
D03*
X3953D02*
D03*
X4103D02*
D03*
X4003Y13497D02*
D03*
X4153Y13884D02*
D03*
Y13497D02*
D03*
X4103D02*
D03*
X3953D02*
D03*
X4003Y13884D02*
D03*
X4053Y13497D02*
D03*
D71*
X4217Y13280D02*
D03*
X4144Y14096D02*
D03*
X8043Y13122D02*
D03*
X7395Y13791D02*
D03*
X4217Y13149D02*
D03*
X4144Y14227D02*
D03*
X5194Y2070D02*
D03*
X6839Y2155D02*
D03*
X8043Y13253D02*
D03*
X7395Y13922D02*
D03*
X3351Y578D02*
D03*
X2199Y5711D02*
D03*
X2356Y5710D02*
D03*
X5194Y1939D02*
D03*
X6839Y2024D02*
D03*
X3351Y709D02*
D03*
X2199Y5580D02*
D03*
X2356Y5579D02*
D03*
D72*
X4401Y13263D02*
D03*
Y13088D02*
D03*
X2251Y13056D02*
D03*
X1604Y13056D02*
D03*
X1820Y13057D02*
D03*
X2035Y13055D02*
D03*
X2251Y13231D02*
D03*
X1604Y13231D02*
D03*
X1820Y13232D02*
D03*
X2035Y13230D02*
D03*
D73*
X4896Y8866D02*
D03*
X5716Y7866D02*
D03*
X4896Y6946D02*
D03*
X5716Y8746D02*
D03*
Y8826D02*
D03*
X4896Y9266D02*
D03*
Y7026D02*
D03*
X5716Y7226D02*
D03*
Y7466D02*
D03*
X4896Y7906D02*
D03*
X5716Y8026D02*
D03*
X4896Y8226D02*
D03*
X5716Y8266D02*
D03*
Y8346D02*
D03*
X4896Y8546D02*
D03*
X5716Y8586D02*
D03*
Y8666D02*
D03*
X4896Y8786D02*
D03*
X5716Y8906D02*
D03*
X4896Y9186D02*
D03*
X5716Y8186D02*
D03*
Y8106D02*
D03*
Y7386D02*
D03*
Y7306D02*
D03*
Y9226D02*
D03*
Y9146D02*
D03*
X4896Y9106D02*
D03*
X5716Y9066D02*
D03*
X4896Y9026D02*
D03*
X5716Y8986D02*
D03*
X4896Y8946D02*
D03*
Y8706D02*
D03*
Y8626D02*
D03*
Y8466D02*
D03*
Y8386D02*
D03*
Y8306D02*
D03*
Y8146D02*
D03*
Y8066D02*
D03*
Y7986D02*
D03*
X5716Y7946D02*
D03*
X4896Y7506D02*
D03*
Y7426D02*
D03*
Y7346D02*
D03*
Y7266D02*
D03*
Y7186D02*
D03*
X5716Y7146D02*
D03*
X4896Y7106D02*
D03*
X5716Y7066D02*
D03*
Y6986D02*
D03*
Y6906D02*
D03*
Y8506D02*
D03*
Y8426D02*
D03*
D74*
X2182Y505D02*
D03*
X3032Y905D02*
D03*
X2182Y1005D02*
D03*
Y755D02*
D03*
X3032D02*
D03*
X2182Y1055D02*
D03*
Y905D02*
D03*
Y955D02*
D03*
Y555D02*
D03*
Y605D02*
D03*
Y655D02*
D03*
Y705D02*
D03*
Y805D02*
D03*
Y855D02*
D03*
X3032Y955D02*
D03*
Y1055D02*
D03*
Y855D02*
D03*
Y1005D02*
D03*
Y805D02*
D03*
Y705D02*
D03*
Y655D02*
D03*
Y605D02*
D03*
Y555D02*
D03*
Y505D02*
D03*
D75*
X6280Y2015D02*
D03*
X4635Y1917D02*
D03*
X4864Y2107D02*
D03*
X6509Y2205D02*
D03*
X6280D02*
D03*
X4635Y2107D02*
D03*
X6280Y2110D02*
D03*
X4635Y2012D02*
D03*
X4864D02*
D03*
X6509Y2110D02*
D03*
X4864Y1917D02*
D03*
X6509Y2015D02*
D03*
D76*
X1340Y468D02*
D03*
X1600D02*
D03*
X1470D02*
D03*
X1405D02*
D03*
X1535D02*
D03*
D77*
X8047Y13703D02*
D03*
X7849Y13800D02*
D03*
X8625Y2374D02*
D03*
X8605Y3236D02*
D03*
X8625Y2184D02*
D03*
X8605Y3046D02*
D03*
X8407Y3143D02*
D03*
X8428Y2280D02*
D03*
X8047Y13893D02*
D03*
D78*
X4272Y13716D02*
D03*
Y13816D02*
D03*
Y13766D02*
D03*
X3885D02*
D03*
X4272Y13666D02*
D03*
X3885Y13566D02*
D03*
X4272Y13616D02*
D03*
X3885Y13666D02*
D03*
Y13716D02*
D03*
Y13816D02*
D03*
X4272Y13566D02*
D03*
X3885Y13616D02*
D03*
D79*
X7160Y13882D02*
D03*
X6452Y13894D02*
D03*
X6111Y13093D02*
D03*
X6870D02*
D03*
X6018Y13291D02*
D03*
X6777D02*
D03*
X6262Y13894D02*
D03*
X6970Y13882D02*
D03*
X5921Y13093D02*
D03*
X6680D02*
D03*
X6359Y14092D02*
D03*
X7067Y14079D02*
D03*
D80*
X2216Y13896D02*
D03*
X4910Y13895D02*
D03*
X2216Y13446D02*
D03*
X4910Y13445D02*
D03*
D81*
X2529Y13693D02*
D03*
X2944D02*
D03*
D82*
X9538Y13264D02*
D03*
X9700D02*
D03*
D83*
X4755Y13029D02*
D03*
Y12759D02*
D03*
D84*
X7601Y13806D02*
D03*
Y14086D02*
D03*
D85*
X8873Y2421D02*
D03*
X8849Y3314D02*
D03*
X8873Y2136D02*
D03*
X8849Y3029D02*
D03*
D86*
X1234Y1325D02*
D03*
X1299D02*
D03*
X1429Y1746D02*
D03*
X1364D02*
D03*
X1234D02*
D03*
X1299D02*
D03*
X1429Y1325D02*
D03*
X1364D02*
D03*
D87*
X1719Y1338D02*
D03*
X1669D02*
D03*
X1769Y1759D02*
D03*
X1719D02*
D03*
X1819D02*
D03*
X1869Y1338D02*
D03*
X1669Y1759D02*
D03*
X1819Y1338D02*
D03*
X1769D02*
D03*
X1869Y1759D02*
D03*
D88*
X7831Y10173D02*
D03*
X6623Y2697D02*
D03*
X6816Y2631D02*
D03*
X7638Y10239D02*
D03*
X6623Y2631D02*
D03*
X7831Y10239D02*
D03*
X7638Y10107D02*
D03*
X6816Y2763D02*
D03*
X7831Y10107D02*
D03*
X6623Y2763D02*
D03*
D89*
X4078Y13691D02*
D03*
D90*
X1374Y161D02*
D03*
X1567D02*
D03*
D91*
X1513Y727D02*
D03*
Y810D02*
D03*
D92*
X6724Y5504D02*
D03*
D93*
X6086Y7052D02*
D03*
X6002D02*
D03*
Y7814D02*
D03*
X6086D02*
D03*
D94*
X5656Y6621D02*
D03*
Y9551D02*
D03*
D95*
X2105Y14179D02*
D03*
X2359D02*
D03*
X6229Y3256D02*
D03*
Y2748D02*
D03*
Y3002D02*
D03*
X178Y1575D02*
D03*
X5935Y3252D02*
D03*
X178Y1067D02*
D03*
Y1321D02*
D03*
X8867Y4153D02*
D03*
Y3873D02*
D03*
X5935Y2744D02*
D03*
X8613Y4153D02*
D03*
Y3873D02*
D03*
X8359D02*
D03*
Y4153D02*
D03*
X5935Y2998D02*
D03*
D96*
X5356Y12280D02*
D03*
D97*
Y10280D02*
D03*
D98*
X331Y11283D02*
D03*
D99*
X9940Y5931D02*
D03*
Y5114D02*
D03*
Y6185D02*
D03*
Y4860D02*
D03*
D100*
X8288Y9936D02*
D03*
Y9141D02*
D03*
X8005Y5205D02*
D03*
X8259Y5078D02*
D03*
X8005Y5459D02*
D03*
X8259Y5332D02*
D03*
X8005Y5713D02*
D03*
X8259Y5586D02*
D03*
X8005Y5967D02*
D03*
X8259Y5840D02*
D03*
X8288Y10190D02*
D03*
Y8887D02*
D03*
X8259Y6094D02*
D03*
D101*
X9538Y9336D02*
D03*
X9388Y9235D02*
D03*
Y9844D02*
D03*
X9538Y9945D02*
D03*
Y9742D02*
D03*
X9388Y9641D02*
D03*
Y9032D02*
D03*
X9538Y9133D02*
D03*
X9388Y9438D02*
D03*
X9538Y9539D02*
D03*
Y8930D02*
D03*
X9040Y8807D02*
D03*
X8837D02*
D03*
X9040Y10270D02*
D03*
X8837D02*
D03*
D102*
X8005Y4951D02*
D03*
D103*
X9388Y10047D02*
D03*
D104*
X6229Y3510D02*
D03*
X5935Y3506D02*
D03*
X178Y1829D02*
D03*
D105*
X6245Y11004D02*
D03*
Y11258D02*
D03*
Y11512D02*
D03*
X7209Y9985D02*
D03*
Y9731D02*
D03*
X6955Y9477D02*
D03*
Y8715D02*
D03*
X7209Y10239D02*
D03*
X6955Y9985D02*
D03*
Y9731D02*
D03*
X7209Y9477D02*
D03*
X6245Y11766D02*
D03*
Y12020D02*
D03*
Y12274D02*
D03*
Y12528D02*
D03*
X6499Y11766D02*
D03*
Y12274D02*
D03*
Y12528D02*
D03*
Y11258D02*
D03*
X6955Y10239D02*
D03*
Y8969D02*
D03*
X6499Y12020D02*
D03*
X6955Y9223D02*
D03*
X7209D02*
D03*
X6499Y11512D02*
D03*
X7209Y8969D02*
D03*
D106*
X9801Y7314D02*
D03*
X10055Y7187D02*
D03*
Y7695D02*
D03*
X9801Y7568D02*
D03*
Y7822D02*
D03*
X10055Y7441D02*
D03*
Y7949D02*
D03*
D107*
X9801Y8076D02*
D03*
D108*
X9538Y10438D02*
D03*
Y8640D02*
D03*
X9140Y6310D02*
D03*
Y4735D02*
D03*
D109*
X8861Y6844D02*
D03*
Y8419D02*
D03*
D110*
X7896Y1261D02*
D03*
X6945D02*
D03*
X8847D02*
D03*
X4093D02*
D03*
X5043D02*
D03*
X5994D02*
D03*
D111*
X8814Y13209D02*
D03*
D112*
X9848Y12517D02*
D03*
Y10993D02*
D03*
D113*
Y12136D02*
D03*
X7054Y11755D02*
D03*
X1134Y13951D02*
D03*
X7054Y10993D02*
D03*
X9848Y11755D02*
D03*
Y11374D02*
D03*
D114*
X9770Y2506D02*
D03*
Y3522D02*
D03*
Y1998D02*
D03*
Y3014D02*
D03*
Y1490D02*
D03*
D115*
X7054Y12517D02*
D03*
X1642Y13951D02*
D03*
D116*
X8847Y1011D02*
D03*
Y811D02*
D03*
X7896Y1011D02*
D03*
Y811D02*
D03*
X6945Y1011D02*
D03*
Y811D02*
D03*
X5994Y1011D02*
D03*
Y811D02*
D03*
X5043Y1011D02*
D03*
Y811D02*
D03*
X4093Y1011D02*
D03*
Y811D02*
D03*
Y561D02*
D03*
X5043D02*
D03*
X5994D02*
D03*
X7896D02*
D03*
X6945D02*
D03*
X8847D02*
D03*
D117*
X2582Y1673D02*
D03*
X3070D02*
D03*
D118*
X3822Y1568D02*
D03*
Y254D02*
D03*
X4772Y1568D02*
D03*
Y254D02*
D03*
X5723Y1568D02*
D03*
Y254D02*
D03*
X7625Y1568D02*
D03*
Y254D02*
D03*
X6674Y1568D02*
D03*
Y254D02*
D03*
X8576Y1568D02*
D03*
Y254D02*
D03*
D119*
X8334Y13499D02*
D03*
D120*
X8814Y13839D02*
D03*
D121*
X7209Y8715D02*
D03*
X6499Y11004D02*
D03*
D122*
X1228Y489D02*
D03*
X1713D02*
D03*
D123*
X1198Y186D02*
D03*
X1743D02*
D03*
D124*
X9770Y4030D02*
D03*
D125*
X9529Y4951D02*
D03*
Y6094D02*
D03*
D126*
X5397Y5974D02*
D03*
X597D02*
D03*
X5397Y2674D02*
D03*
X597D02*
D03*
D127*
X2916Y9301D02*
D03*
X506D02*
D03*
X5306Y9336D02*
D03*
D128*
X506Y6881D02*
D03*
X2916D02*
D03*
X5306Y6836D02*
D03*
D129*
X9166Y8203D02*
D03*
Y7060D02*
D03*
D130*
X8639Y9038D02*
D03*
Y10039D02*
D03*
D131*
X400Y400D02*
D03*
X9811Y400D02*
D03*
X400Y13992D02*
D03*
X9811Y13992D02*
D03*
D132*
X2349Y13573D02*
D03*
X2042Y13861D02*
D03*
X2181Y13696D02*
D03*
X1441Y13072D02*
D03*
X7541Y10026D02*
D03*
M02*
