G04*
G04 #@! TF.GenerationSoftware,Altium Limited,Altium Designer,24.0.1 (36)*
G04*
G04 Layer_Color=16711935*
%FSLAX42Y42*%
%MOMM*%
G71*
G04*
G04 #@! TF.SameCoordinates,E1E02590-05F2-4693-A132-99C86EA4FF08*
G04*
G04*
G04 #@! TF.FilePolarity,Negative*
G04*
G01*
G75*
%ADD38R,0.81X0.36*%
%ADD42R,0.36X0.81*%
%ADD62R,0.80X0.95*%
%ADD64R,1.05X1.15*%
%ADD65R,0.95X0.80*%
%ADD71R,1.15X1.05*%
%ADD72R,1.55X1.35*%
%ADD77R,1.10X1.10*%
%ADD79R,1.10X1.10*%
%ADD84R,1.85X1.40*%
%ADD88R,1.32X0.56*%
%ADD95C,1.90*%
%ADD96C,1.35*%
%ADD97C,1.85*%
%ADD98C,6.20*%
%ADD99C,1.93*%
%ADD100C,1.73*%
%ADD101C,1.65*%
%ADD102R,1.73X1.73*%
%ADD103R,1.65X1.65*%
%ADD104R,1.90X1.90*%
%ADD105C,1.70*%
%ADD106C,1.61*%
%ADD107R,1.61X1.61*%
%ADD108C,2.56*%
%ADD109C,2.77*%
%ADD110R,1.66X1.66*%
%ADD111O,4.95X2.20*%
%ADD112C,3.20*%
%ADD113C,2.74*%
%ADD114C,2.60*%
%ADD115R,2.74X2.74*%
%ADD116C,1.66*%
%ADD117C,1.40*%
%ADD118C,3.57*%
%ADD119O,2.20X4.70*%
%ADD120R,4.95X2.20*%
%ADD121R,1.70X1.70*%
%ADD122O,1.30X1.80*%
%ADD123O,1.40X2.60*%
G04:AMPARAMS|DCode=124|XSize=2.6mm|YSize=2.6mm|CornerRadius=0.7mm|HoleSize=0mm|Usage=FLASHONLY|Rotation=90.000|XOffset=0mm|YOffset=0mm|HoleType=Round|Shape=RoundedRectangle|*
%AMROUNDEDRECTD124*
21,1,2.60,1.20,0,0,90.0*
21,1,1.20,2.60,0,0,90.0*
1,1,1.40,0.60,0.60*
1,1,1.40,0.60,-0.60*
1,1,1.40,-0.60,-0.60*
1,1,1.40,-0.60,0.60*
%
%ADD124ROUNDEDRECTD124*%
%ADD125C,3.45*%
%ADD126C,2.90*%
%ADD127C,1.30*%
%ADD128C,1.80*%
%ADD129C,3.71*%
%ADD130C,1.83*%
%ADD131C,6.49*%
%ADD132C,0.76*%
%ADD184C,0.25*%
%ADD190R,2.49X1.50*%
%ADD196R,0.36X0.86*%
%ADD197R,1.27X1.78*%
%ADD198R,2.26X1.88*%
G04:AMPARAMS|DCode=202|XSize=1.93mm|YSize=0.61mm|CornerRadius=0.31mm|HoleSize=0mm|Usage=FLASHONLY|Rotation=0.000|XOffset=0mm|YOffset=0mm|HoleType=Round|Shape=RoundedRectangle|*
%AMROUNDEDRECTD202*
21,1,1.93,0.00,0,0,0.0*
21,1,1.32,0.61,0,0,0.0*
1,1,0.61,0.66,0.00*
1,1,0.61,-0.66,0.00*
1,1,0.61,-0.66,0.00*
1,1,0.61,0.66,0.00*
%
%ADD202ROUNDEDRECTD202*%
%ADD203R,1.93X0.61*%
%ADD218R,2.70X5.60*%
%ADD222R,2.71X3.35*%
%ADD230R,1.55X1.10*%
%ADD231R,2.81X1.76*%
%ADD232R,0.35X0.38*%
%ADD233R,0.38X0.35*%
%ADD234R,2.95X2.36*%
%ADD235R,3.71X2.27*%
%ADD236R,0.53X1.12*%
%ADD237R,1.00X2.90*%
%ADD238R,1.35X1.55*%
%ADD239O,1.50X0.55*%
%ADD240R,3.20X1.60*%
%ADD241R,1.25X1.20*%
%ADD242R,0.75X1.60*%
%ADD243R,5.30X2.55*%
%ADD244R,1.00X0.75*%
%ADD245R,1.30X0.90*%
%ADD246R,0.98X1.25*%
%ADD247R,1.13X1.10*%
%ADD248R,1.70X6.20*%
%ADD249R,1.34X1.67*%
%ADD250R,3.35X3.35*%
G04:AMPARAMS|DCode=251|XSize=1.25mm|YSize=0.54mm|CornerRadius=0.14mm|HoleSize=0mm|Usage=FLASHONLY|Rotation=270.000|XOffset=0mm|YOffset=0mm|HoleType=Round|Shape=RoundedRectangle|*
%AMROUNDEDRECTD251*
21,1,1.25,0.25,0,0,270.0*
21,1,0.97,0.54,0,0,270.0*
1,1,0.29,-0.13,-0.48*
1,1,0.29,-0.13,0.48*
1,1,0.29,0.13,0.48*
1,1,0.29,0.13,-0.48*
%
%ADD251ROUNDEDRECTD251*%
%ADD252R,1.40X1.40*%
%ADD253R,1.70X0.80*%
%ADD254O,2.15X0.85*%
G04:AMPARAMS|DCode=255|XSize=0.54mm|YSize=1.25mm|CornerRadius=0.14mm|HoleSize=0mm|Usage=FLASHONLY|Rotation=270.000|XOffset=0mm|YOffset=0mm|HoleType=Round|Shape=RoundedRectangle|*
%AMROUNDEDRECTD255*
21,1,0.54,0.97,0,0,270.0*
21,1,0.25,1.25,0,0,270.0*
1,1,0.29,-0.48,-0.13*
1,1,0.29,-0.48,0.13*
1,1,0.29,0.48,0.13*
1,1,0.29,0.48,-0.13*
%
%ADD255ROUNDEDRECTD255*%
%ADD256R,1.40X1.85*%
%ADD257R,1.16X2.92*%
%ADD258R,1.90X0.80*%
%ADD259R,2.10X1.30*%
%ADD260R,3.43X2.51*%
%ADD261R,2.40X1.25*%
%ADD262R,3.53X0.90*%
%ADD263R,3.00X1.06*%
%ADD264R,2.03X1.34*%
%ADD265R,5.20X5.20*%
G36*
X4929Y9903D02*
X4698D01*
Y9723D01*
X4929D01*
Y9903D01*
D02*
G37*
G36*
X2789Y13266D02*
Y12997D01*
X2588D01*
Y13266D01*
X2789D01*
D02*
G37*
G36*
X2824Y13736D02*
X3093D01*
Y13536D01*
X2824D01*
Y13736D01*
D02*
G37*
D38*
X2507Y13229D02*
D03*
X2827Y13034D02*
D03*
Y13099D02*
D03*
Y13164D02*
D03*
Y13229D02*
D03*
X2507Y13034D02*
D03*
Y13099D02*
D03*
Y13164D02*
D03*
D42*
X2861Y13774D02*
D03*
X2926D02*
D03*
X2991D02*
D03*
X3056D02*
D03*
X2861Y13454D02*
D03*
X3056D02*
D03*
X2991D02*
D03*
X2926D02*
D03*
D62*
X7365Y4754D02*
D03*
Y4639D02*
D03*
X5371Y10695D02*
D03*
Y10580D02*
D03*
X3046Y850D02*
D03*
Y735D02*
D03*
X7443Y5799D02*
D03*
Y5914D02*
D03*
X8287Y9339D02*
D03*
X6250Y6111D02*
D03*
X5965Y6101D02*
D03*
X8287Y9454D02*
D03*
X6834Y6060D02*
D03*
X4736Y9547D02*
D03*
X7469Y4930D02*
D03*
X5933Y5355D02*
D03*
X7500Y5426D02*
D03*
X7724Y5375D02*
D03*
X5965Y6216D02*
D03*
X332Y4199D02*
D03*
X954Y8924D02*
D03*
X6148Y10514D02*
D03*
X2144Y499D02*
D03*
X2440Y737D02*
D03*
X2535Y973D02*
D03*
X8890Y11717D02*
D03*
X2009Y13725D02*
D03*
X8890Y11602D02*
D03*
X8785D02*
D03*
Y11717D02*
D03*
X4736Y9432D02*
D03*
X2009Y13610D02*
D03*
X4991Y10389D02*
D03*
X2144Y384D02*
D03*
X2440Y852D02*
D03*
X2535Y858D02*
D03*
X332Y4314D02*
D03*
X7469Y4815D02*
D03*
X5933Y5470D02*
D03*
X5932Y5116D02*
D03*
X6085Y5493D02*
D03*
X5921Y5760D02*
D03*
X5831Y6332D02*
D03*
X6834Y5945D02*
D03*
X6941D02*
D03*
X6637Y5945D02*
D03*
X7500Y5541D02*
D03*
X7724Y5260D02*
D03*
X6148Y10629D02*
D03*
X6250Y5996D02*
D03*
X3253Y9382D02*
D03*
X4991Y10274D02*
D03*
X954Y8809D02*
D03*
X5932Y5231D02*
D03*
X6085Y5378D02*
D03*
X5921Y5875D02*
D03*
X5831Y6217D02*
D03*
X6941Y6060D02*
D03*
X6637Y6060D02*
D03*
X3253Y9267D02*
D03*
D64*
X6339Y9639D02*
D03*
X6208Y9640D02*
D03*
X3851Y12980D02*
D03*
X3720D02*
D03*
D65*
X2292Y13794D02*
D03*
X2177D02*
D03*
X2292Y13898D02*
D03*
X2177D02*
D03*
X2287Y13660D02*
D03*
X2402D02*
D03*
X2177Y14003D02*
D03*
X2292D02*
D03*
X2680Y10669D02*
D03*
X2795D02*
D03*
Y10761D02*
D03*
X2680D02*
D03*
X2377Y10926D02*
D03*
X2492D02*
D03*
X2747Y5866D02*
D03*
X2862D02*
D03*
X2687Y6183D02*
D03*
X2802D02*
D03*
X6775Y6300D02*
D03*
X6660D02*
D03*
X7023Y5689D02*
D03*
X7138D02*
D03*
X9939Y5530D02*
D03*
X4923Y6247D02*
D03*
Y6133D02*
D03*
X8007Y4699D02*
D03*
X6428Y7042D02*
D03*
X6315Y7424D02*
D03*
X6413Y7808D02*
D03*
X9750Y9438D02*
D03*
X9746Y10050D02*
D03*
X9750Y9539D02*
D03*
X9744Y8930D02*
D03*
X6315Y8190D02*
D03*
X7051Y4969D02*
D03*
X7106Y4658D02*
D03*
X9824Y5530D02*
D03*
X4229Y10129D02*
D03*
X4230Y10035D02*
D03*
X4344Y10129D02*
D03*
X4345Y10035D02*
D03*
X6354Y4981D02*
D03*
X6819Y6494D02*
D03*
X6547D02*
D03*
X6270D02*
D03*
X6267Y6302D02*
D03*
X7096Y6573D02*
D03*
X5038Y6247D02*
D03*
X8287Y8481D02*
D03*
X8402D02*
D03*
X1824Y10141D02*
D03*
X1824Y10325D02*
D03*
X1824Y10232D02*
D03*
X1939Y10141D02*
D03*
X1939Y10048D02*
D03*
X1194Y10460D02*
D03*
X1193Y9777D02*
D03*
X1308D02*
D03*
X3976Y11911D02*
D03*
X3977Y11810D02*
D03*
X1727Y8335D02*
D03*
X1618Y7904D02*
D03*
X1612Y8335D02*
D03*
X3860Y7982D02*
D03*
X3860Y8081D02*
D03*
X5761Y7864D02*
D03*
X5646D02*
D03*
X5921Y10557D02*
D03*
X5806D02*
D03*
X2560Y581D02*
D03*
X2690Y964D02*
D03*
X2135Y1009D02*
D03*
X2493Y1234D02*
D03*
X2042Y1217D02*
D03*
X2553Y332D02*
D03*
X9435Y11358D02*
D03*
Y11047D02*
D03*
Y11151D02*
D03*
Y11255D02*
D03*
X8629Y10429D02*
D03*
X3626Y13940D02*
D03*
X3629Y13827D02*
D03*
X3633Y13718D02*
D03*
X7557Y12642D02*
D03*
X8623Y12666D02*
D03*
Y12768D02*
D03*
X9320Y11047D02*
D03*
X8428Y11292D02*
D03*
X9320Y11151D02*
D03*
Y11255D02*
D03*
X8428Y11057D02*
D03*
Y11174D02*
D03*
X9320Y11358D02*
D03*
X9427Y12029D02*
D03*
X7842Y12278D02*
D03*
X8725Y12371D02*
D03*
X8313Y11292D02*
D03*
Y11174D02*
D03*
Y11057D02*
D03*
X4195Y9133D02*
D03*
X8514Y10429D02*
D03*
X3518Y13718D02*
D03*
X7957Y12278D02*
D03*
Y12174D02*
D03*
X7957Y12076D02*
D03*
X8738Y12768D02*
D03*
X7842Y12174D02*
D03*
X8609Y12266D02*
D03*
X8610Y12371D02*
D03*
X3511Y13940D02*
D03*
X3514Y13827D02*
D03*
X3745Y8081D02*
D03*
X3861Y11911D02*
D03*
X3111Y8420D02*
D03*
X3745Y8190D02*
D03*
X3745Y8298D02*
D03*
X3109Y7731D02*
D03*
X3224D02*
D03*
X3862Y12123D02*
D03*
X3861Y12018D02*
D03*
X3219Y11555D02*
D03*
X3334D02*
D03*
X3977Y12123D02*
D03*
X5782Y8867D02*
D03*
X3230Y12239D02*
D03*
X1131Y6036D02*
D03*
X1132Y5934D02*
D03*
X1016Y6036D02*
D03*
Y6140D02*
D03*
X2623Y5357D02*
D03*
X2508D02*
D03*
X3745Y7982D02*
D03*
X7442Y12642D02*
D03*
X8738Y12666D02*
D03*
X7842Y12076D02*
D03*
X8724Y12266D02*
D03*
X9312Y12029D02*
D03*
X2378Y1234D02*
D03*
X2445Y581D02*
D03*
X2805Y964D02*
D03*
X2250Y1009D02*
D03*
X2157Y1217D02*
D03*
X3345Y12239D02*
D03*
X3976Y12018D02*
D03*
X6041Y5991D02*
D03*
X6175Y4708D02*
D03*
X6239Y4981D02*
D03*
X6874Y4765D02*
D03*
X6704Y6494D02*
D03*
X6432D02*
D03*
X6155D02*
D03*
X6152Y6302D02*
D03*
X6392Y6302D02*
D03*
X6981Y6573D02*
D03*
X7507Y6508D02*
D03*
X6991Y4658D02*
D03*
X5038Y6133D02*
D03*
X3862Y11810D02*
D03*
X1352Y5829D02*
D03*
X6313Y7042D02*
D03*
X6430Y7424D02*
D03*
X6298Y7808D02*
D03*
X6430Y8190D02*
D03*
X8122Y4699D02*
D03*
X9865Y9438D02*
D03*
X9861Y10050D02*
D03*
X9865Y9539D02*
D03*
X9859Y8930D02*
D03*
X4080Y9133D02*
D03*
X1309Y10460D02*
D03*
X1824Y10048D02*
D03*
X1939Y10232D02*
D03*
X3226Y8420D02*
D03*
X3860Y8190D02*
D03*
X5667Y8867D02*
D03*
X1017Y5934D02*
D03*
X1131Y6140D02*
D03*
X1467Y5829D02*
D03*
X1939Y10325D02*
D03*
X1733Y7904D02*
D03*
X2668Y332D02*
D03*
X5926Y5991D02*
D03*
X6290Y4708D02*
D03*
X6989Y4765D02*
D03*
X6507Y6302D02*
D03*
X7392Y6508D02*
D03*
X6936Y4969D02*
D03*
X3860Y8298D02*
D03*
D71*
X3046Y1103D02*
D03*
Y972D02*
D03*
X2781Y753D02*
D03*
X5715Y8738D02*
D03*
X4892Y9287D02*
D03*
X4991Y10512D02*
D03*
X4716Y10423D02*
D03*
X2781Y622D02*
D03*
X5715Y8607D02*
D03*
X4892Y9156D02*
D03*
X4991Y10643D02*
D03*
X4716Y10554D02*
D03*
D72*
X4928Y5257D02*
D03*
X4927Y5423D02*
D03*
X4164Y10998D02*
D03*
X4164Y11164D02*
D03*
X4357Y10998D02*
D03*
X2560Y8013D02*
D03*
X2558Y8187D02*
D03*
X2374D02*
D03*
X2375Y8013D02*
D03*
X2485Y11820D02*
D03*
X2679Y11999D02*
D03*
X2680Y11820D02*
D03*
X2483Y11999D02*
D03*
X458Y10050D02*
D03*
X638D02*
D03*
X459Y10209D02*
D03*
X639D02*
D03*
X2560Y7838D02*
D03*
X2558Y8362D02*
D03*
X2374D02*
D03*
X2375Y7838D02*
D03*
X4164Y10823D02*
D03*
X4164Y11339D02*
D03*
X4357Y10823D02*
D03*
X2485Y11645D02*
D03*
X2679Y12174D02*
D03*
X4928Y5082D02*
D03*
X4927Y5598D02*
D03*
X4051Y7000D02*
D03*
X2680Y11645D02*
D03*
X2483Y12174D02*
D03*
X2132Y9561D02*
D03*
X2312Y9045D02*
D03*
X2134D02*
D03*
X458Y9875D02*
D03*
X638D02*
D03*
X459Y10384D02*
D03*
X639D02*
D03*
X4051Y7516D02*
D03*
X4230Y7000D02*
D03*
X2132Y9386D02*
D03*
X2312Y9220D02*
D03*
X2134D02*
D03*
X4051Y7175D02*
D03*
X4051Y7341D02*
D03*
X4230Y7175D02*
D03*
D77*
X5517Y3932D02*
D03*
X5715Y4029D02*
D03*
X5517Y4122D02*
D03*
D79*
X3861Y13157D02*
D03*
X3764Y13355D02*
D03*
X3671Y13157D02*
D03*
D84*
X4236Y13832D02*
D03*
Y13552D02*
D03*
D88*
X1308Y6036D02*
D03*
Y6102D02*
D03*
X1501D02*
D03*
Y5970D02*
D03*
X1308D02*
D03*
D95*
X2105Y14179D02*
D03*
X2359D02*
D03*
X6229Y3256D02*
D03*
Y2748D02*
D03*
Y3002D02*
D03*
X178Y1575D02*
D03*
X5935Y3252D02*
D03*
X178Y1067D02*
D03*
Y1321D02*
D03*
X8867Y4153D02*
D03*
Y3873D02*
D03*
X5935Y2744D02*
D03*
X8613Y4153D02*
D03*
Y3873D02*
D03*
X8359D02*
D03*
Y4153D02*
D03*
X5935Y2998D02*
D03*
D96*
X5356Y12280D02*
D03*
D97*
Y10280D02*
D03*
D98*
X331Y11283D02*
D03*
D99*
X9940Y5931D02*
D03*
Y5114D02*
D03*
Y6185D02*
D03*
Y4860D02*
D03*
D100*
X8288Y9936D02*
D03*
Y9141D02*
D03*
X8005Y5205D02*
D03*
X8259Y5078D02*
D03*
X8005Y5459D02*
D03*
X8259Y5332D02*
D03*
X8005Y5713D02*
D03*
X8259Y5586D02*
D03*
X8005Y5967D02*
D03*
X8259Y5840D02*
D03*
X8288Y10190D02*
D03*
Y8887D02*
D03*
X8259Y6094D02*
D03*
D101*
X9538Y9336D02*
D03*
X9388Y9235D02*
D03*
Y9844D02*
D03*
X9538Y9945D02*
D03*
Y9742D02*
D03*
X9388Y9641D02*
D03*
Y9032D02*
D03*
X9538Y9133D02*
D03*
X9388Y9438D02*
D03*
X9538Y9539D02*
D03*
Y8930D02*
D03*
X9040Y8807D02*
D03*
X8837D02*
D03*
X9040Y10270D02*
D03*
X8837D02*
D03*
D102*
X8005Y4951D02*
D03*
D103*
X9388Y10047D02*
D03*
D104*
X6229Y3510D02*
D03*
X5935Y3506D02*
D03*
X178Y1829D02*
D03*
D105*
X6245Y11004D02*
D03*
Y11258D02*
D03*
Y11512D02*
D03*
X7209Y9985D02*
D03*
Y9731D02*
D03*
X6955Y9477D02*
D03*
Y8715D02*
D03*
X7209Y10239D02*
D03*
X6955Y9985D02*
D03*
Y9731D02*
D03*
X7209Y9477D02*
D03*
X6245Y11766D02*
D03*
Y12020D02*
D03*
Y12274D02*
D03*
Y12528D02*
D03*
X6499Y11766D02*
D03*
Y12274D02*
D03*
Y12528D02*
D03*
Y11258D02*
D03*
X6955Y10239D02*
D03*
Y8969D02*
D03*
X6499Y12020D02*
D03*
X6955Y9223D02*
D03*
X7209D02*
D03*
X6499Y11512D02*
D03*
X7209Y8969D02*
D03*
D106*
X9801Y7314D02*
D03*
X10055Y7187D02*
D03*
Y7695D02*
D03*
X9801Y7568D02*
D03*
Y7822D02*
D03*
X10055Y7441D02*
D03*
Y7949D02*
D03*
D107*
X9801Y8076D02*
D03*
D108*
X9538Y10438D02*
D03*
Y8640D02*
D03*
X9140Y6310D02*
D03*
Y4735D02*
D03*
D109*
X8861Y6844D02*
D03*
Y8419D02*
D03*
D110*
X7896Y1261D02*
D03*
X6945D02*
D03*
X8847D02*
D03*
X4093D02*
D03*
X5043D02*
D03*
X5994D02*
D03*
D111*
X8814Y13209D02*
D03*
D112*
X9848Y12517D02*
D03*
Y10993D02*
D03*
D113*
Y12136D02*
D03*
X7054Y11755D02*
D03*
X1134Y13951D02*
D03*
X7054Y10993D02*
D03*
X9848Y11755D02*
D03*
Y11374D02*
D03*
D114*
X9770Y2506D02*
D03*
Y3522D02*
D03*
Y1998D02*
D03*
Y3014D02*
D03*
Y1490D02*
D03*
D115*
X7054Y12517D02*
D03*
X1642Y13951D02*
D03*
D116*
X8847Y1011D02*
D03*
Y811D02*
D03*
X7896Y1011D02*
D03*
Y811D02*
D03*
X6945Y1011D02*
D03*
Y811D02*
D03*
X5994Y1011D02*
D03*
Y811D02*
D03*
X5043Y1011D02*
D03*
Y811D02*
D03*
X4093Y1011D02*
D03*
Y811D02*
D03*
Y561D02*
D03*
X5043D02*
D03*
X5994D02*
D03*
X7896D02*
D03*
X6945D02*
D03*
X8847D02*
D03*
D117*
X2582Y1673D02*
D03*
X3070D02*
D03*
D118*
X3822Y1568D02*
D03*
Y254D02*
D03*
X4772Y1568D02*
D03*
Y254D02*
D03*
X5723Y1568D02*
D03*
Y254D02*
D03*
X7625Y1568D02*
D03*
Y254D02*
D03*
X6674Y1568D02*
D03*
Y254D02*
D03*
X8576Y1568D02*
D03*
Y254D02*
D03*
D119*
X8334Y13499D02*
D03*
D120*
X8814Y13839D02*
D03*
D121*
X7209Y8715D02*
D03*
X6499Y11004D02*
D03*
D122*
X1228Y489D02*
D03*
X1713D02*
D03*
D123*
X1198Y186D02*
D03*
X1743D02*
D03*
D124*
X9770Y4030D02*
D03*
D125*
X9529Y4951D02*
D03*
Y6094D02*
D03*
D126*
X5397Y5974D02*
D03*
X597D02*
D03*
X5397Y2674D02*
D03*
X597D02*
D03*
D127*
X2916Y9301D02*
D03*
X506D02*
D03*
X5306Y9336D02*
D03*
D128*
X506Y6881D02*
D03*
X2916D02*
D03*
X5306Y6836D02*
D03*
D129*
X9166Y8203D02*
D03*
Y7060D02*
D03*
D130*
X8639Y9038D02*
D03*
Y10039D02*
D03*
D131*
X400Y400D02*
D03*
X9811Y400D02*
D03*
X400Y13992D02*
D03*
X9811Y13992D02*
D03*
D132*
X2349Y13573D02*
D03*
X2042Y13861D02*
D03*
X2181Y13696D02*
D03*
X1441Y13072D02*
D03*
X7541Y10026D02*
D03*
D184*
X5588Y12030D02*
D03*
X5548Y12010D02*
D03*
Y12050D02*
D03*
X5628Y12010D02*
D03*
Y12050D02*
D03*
X8726Y929D02*
D03*
Y889D02*
D03*
X7783Y929D02*
D03*
Y889D02*
D03*
X6842Y929D02*
D03*
Y889D02*
D03*
X5900Y929D02*
D03*
Y889D02*
D03*
X8646Y929D02*
D03*
Y889D02*
D03*
X7703Y929D02*
D03*
Y889D02*
D03*
X4939Y929D02*
D03*
Y889D02*
D03*
X3990Y933D02*
D03*
Y893D02*
D03*
X7743Y909D02*
D03*
X5860D02*
D03*
X4899D02*
D03*
X3950Y913D02*
D03*
X8686Y909D02*
D03*
X6802D02*
D03*
X6762Y929D02*
D03*
Y889D02*
D03*
X5820Y929D02*
D03*
Y889D02*
D03*
X4859Y929D02*
D03*
Y889D02*
D03*
X3910Y933D02*
D03*
Y893D02*
D03*
D190*
X5618Y10234D02*
D03*
X6268D02*
D03*
Y9934D02*
D03*
X5618D02*
D03*
D196*
X4911Y10023D02*
D03*
X4716D02*
D03*
X4781D02*
D03*
X4846D02*
D03*
X4911Y9713D02*
D03*
X4846D02*
D03*
X4781D02*
D03*
X4716D02*
D03*
D197*
X5476Y9627D02*
D03*
X5192D02*
D03*
D198*
X4399Y9780D02*
D03*
Y9338D02*
D03*
D202*
X1513Y10192D02*
D03*
Y10319D02*
D03*
X985D02*
D03*
X1513Y9938D02*
D03*
X3433Y8148D02*
D03*
X3554Y11969D02*
D03*
X2904Y8275D02*
D03*
X3433D02*
D03*
Y7894D02*
D03*
X3554Y12096D02*
D03*
Y11715D02*
D03*
X3026Y12096D02*
D03*
Y11842D02*
D03*
Y11969D02*
D03*
X2904Y8148D02*
D03*
Y8021D02*
D03*
X985Y10192D02*
D03*
Y10065D02*
D03*
X3554Y11842D02*
D03*
X3433Y8021D02*
D03*
X1513Y10065D02*
D03*
D203*
X985Y9938D02*
D03*
X2904Y7894D02*
D03*
X3026Y11715D02*
D03*
D218*
X7951Y11412D02*
D03*
Y10786D02*
D03*
X7421Y11412D02*
D03*
Y10786D02*
D03*
D222*
X3290Y11905D02*
D03*
X3169Y8084D02*
D03*
X1249Y10129D02*
D03*
D230*
X1747Y12745D02*
D03*
Y12491D02*
D03*
Y12364D02*
D03*
Y12237D02*
D03*
Y11856D02*
D03*
Y12618D02*
D03*
Y12872D02*
D03*
D231*
X1459Y13430D02*
D03*
X196D02*
D03*
Y11762D02*
D03*
X1459D02*
D03*
D232*
X2491Y10817D02*
D03*
X2441D02*
D03*
X2391D02*
D03*
Y10665D02*
D03*
X2441D02*
D03*
X2491D02*
D03*
D233*
X2364Y10766D02*
D03*
Y10716D02*
D03*
X2517D02*
D03*
Y10766D02*
D03*
D234*
X6629Y10317D02*
D03*
Y9875D02*
D03*
D235*
X5201Y1544D02*
D03*
Y2039D02*
D03*
X8069Y1544D02*
D03*
X7113D02*
D03*
X9025D02*
D03*
X4245D02*
D03*
X6157D02*
D03*
X8069Y2039D02*
D03*
X4245D02*
D03*
X6157D02*
D03*
X7113D02*
D03*
X9025D02*
D03*
D236*
X4647Y6026D02*
D03*
X4567Y5648D02*
D03*
X4647D02*
D03*
X4567Y6026D02*
D03*
X4487D02*
D03*
Y5648D02*
D03*
X4727D02*
D03*
Y6026D02*
D03*
D237*
X4568Y5347D02*
D03*
X4758D02*
D03*
D238*
X4143Y10473D02*
D03*
Y10295D02*
D03*
X4318Y10473D02*
D03*
Y10295D02*
D03*
X6514Y10539D02*
D03*
X6339D02*
D03*
X391Y8774D02*
D03*
X2781Y12648D02*
D03*
Y12851D02*
D03*
X4426Y6260D02*
D03*
X4592Y6259D02*
D03*
X2956Y12648D02*
D03*
Y12851D02*
D03*
X216Y8774D02*
D03*
X4251Y6260D02*
D03*
X4767Y6259D02*
D03*
D239*
X4061Y9906D02*
D03*
Y10101D02*
D03*
Y10036D02*
D03*
Y9971D02*
D03*
Y9256D02*
D03*
X3471Y9386D02*
D03*
Y9451D02*
D03*
Y9646D02*
D03*
Y9711D02*
D03*
Y9906D02*
D03*
Y9971D02*
D03*
X4061Y9841D02*
D03*
Y9646D02*
D03*
Y9581D02*
D03*
Y9451D02*
D03*
X3471Y9256D02*
D03*
Y9321D02*
D03*
X4061Y9516D02*
D03*
Y9321D02*
D03*
Y9386D02*
D03*
Y9711D02*
D03*
Y9776D02*
D03*
X3471Y10101D02*
D03*
Y10036D02*
D03*
Y9841D02*
D03*
Y9776D02*
D03*
Y9581D02*
D03*
Y9516D02*
D03*
D240*
X2190Y4201D02*
D03*
Y4401D02*
D03*
Y4601D02*
D03*
Y4001D02*
D03*
Y3801D02*
D03*
X650Y3401D02*
D03*
Y4201D02*
D03*
X2190Y4801D02*
D03*
Y3401D02*
D03*
X650Y3601D02*
D03*
Y4801D02*
D03*
Y4601D02*
D03*
Y4401D02*
D03*
Y4001D02*
D03*
Y3801D02*
D03*
X2190Y3601D02*
D03*
D241*
X336Y3398D02*
D03*
D242*
X9208Y9013D02*
D03*
X8954Y9383D02*
D03*
X9208Y9689D02*
D03*
X8954Y10059D02*
D03*
Y9689D02*
D03*
Y9013D02*
D03*
X9208Y10059D02*
D03*
Y9383D02*
D03*
D243*
X1702Y9707D02*
D03*
X3619Y7675D02*
D03*
X3746Y11485D02*
D03*
Y11070D02*
D03*
X1702Y9292D02*
D03*
X3619Y7260D02*
D03*
D244*
X577Y8770D02*
D03*
X817Y8960D02*
D03*
X577Y8865D02*
D03*
X817Y8770D02*
D03*
X577Y8960D02*
D03*
D245*
X217Y7820D02*
D03*
Y8040D02*
D03*
Y8150D02*
D03*
Y7380D02*
D03*
Y7490D02*
D03*
Y7930D02*
D03*
Y7710D02*
D03*
Y7600D02*
D03*
D246*
X1471Y7902D02*
D03*
D247*
X1463Y8329D02*
D03*
D248*
X5313Y3971D02*
D03*
X3116D02*
D03*
D249*
X8615Y9683D02*
D03*
X8793D02*
D03*
X9200Y10536D02*
D03*
X9022D02*
D03*
D250*
X8866Y11173D02*
D03*
D251*
X8996Y11409D02*
D03*
X8931D02*
D03*
X8866D02*
D03*
X8801D02*
D03*
X8736D02*
D03*
X8866Y10937D02*
D03*
X8931D02*
D03*
X8996D02*
D03*
X8801D02*
D03*
X8736D02*
D03*
D252*
X8712Y10630D02*
D03*
X8432D02*
D03*
D253*
X2857Y4971D02*
D03*
X2857Y5098D02*
D03*
X3407D02*
D03*
Y5225D02*
D03*
Y5352D02*
D03*
X2857Y5352D02*
D03*
X3407Y4971D02*
D03*
X2857Y5225D02*
D03*
D254*
X7775Y12642D02*
D03*
X8430D02*
D03*
Y12769D02*
D03*
X7775D02*
D03*
D255*
X9102Y11108D02*
D03*
X8630Y11238D02*
D03*
X9102Y11173D02*
D03*
Y11238D02*
D03*
X8630Y11108D02*
D03*
Y11173D02*
D03*
X9102Y11303D02*
D03*
Y11043D02*
D03*
X8630D02*
D03*
Y11303D02*
D03*
D256*
X9421Y12464D02*
D03*
Y12232D02*
D03*
X9141Y12464D02*
D03*
Y12232D02*
D03*
D257*
X3223Y14097D02*
D03*
X2898D02*
D03*
D258*
X8188Y12272D02*
D03*
X8388Y12367D02*
D03*
Y12177D02*
D03*
D259*
X3695Y5163D02*
D03*
Y5403D02*
D03*
D260*
X4607Y5837D02*
D03*
D261*
X184Y3251D02*
D03*
Y3546D02*
D03*
D262*
X1343Y7264D02*
D03*
Y8560D02*
D03*
D263*
X267Y7272D02*
D03*
D264*
X218Y8538D02*
D03*
D265*
X4215Y3971D02*
D03*
M02*
