G04*
G04 #@! TF.GenerationSoftware,Altium Limited,Altium Designer,24.0.1 (36)*
G04*
G04 Layer_Color=9279142*
%FSLAX42Y42*%
%MOMM*%
G71*
G04*
G04 #@! TF.SameCoordinates,E1E02590-05F2-4693-A132-99C86EA4FF08*
G04*
G04*
G04 #@! TF.FilePolarity,Positive*
G04*
G01*
G75*
%ADD268C,0.07*%
%ADD269C,0.05*%
%ADD270C,0.03*%
D268*
X2126Y14179D02*
G03*
X2126Y14179I-20J0D01*
G01*
X2380D02*
G03*
X2380Y14179I-20J0D01*
G01*
X680Y1473D02*
G03*
X680Y1473I-20J0D01*
G01*
Y1727D02*
G03*
X680Y1727I-20J0D01*
G01*
Y1219D02*
G03*
X680Y1219I-20J0D01*
G01*
X6249Y3510D02*
G03*
X6249Y3510I-20J0D01*
G01*
Y3256D02*
G03*
X6249Y3256I-20J0D01*
G01*
Y2748D02*
G03*
X6249Y2748I-20J0D01*
G01*
Y3002D02*
G03*
X6249Y3002I-20J0D01*
G01*
X198Y1575D02*
G03*
X198Y1575I-20J0D01*
G01*
X5955Y3506D02*
G03*
X5955Y3506I-20J0D01*
G01*
Y3252D02*
G03*
X5955Y3252I-20J0D01*
G01*
X1663Y13951D02*
G03*
X1663Y13951I-20J0D01*
G01*
X198Y1067D02*
G03*
X198Y1067I-20J0D01*
G01*
Y1321D02*
G03*
X198Y1321I-20J0D01*
G01*
X8887Y4153D02*
G03*
X8887Y4153I-20J0D01*
G01*
Y3873D02*
G03*
X8887Y3873I-20J0D01*
G01*
X5955Y2744D02*
G03*
X5955Y2744I-20J0D01*
G01*
X1155Y13951D02*
G03*
X1155Y13951I-20J0D01*
G01*
X198Y1829D02*
G03*
X198Y1829I-20J0D01*
G01*
X8633Y4153D02*
G03*
X8633Y4153I-20J0D01*
G01*
Y3873D02*
G03*
X8633Y3873I-20J0D01*
G01*
X8379D02*
G03*
X8379Y3873I-20J0D01*
G01*
Y4153D02*
G03*
X8379Y4153I-20J0D01*
G01*
X5955Y2998D02*
G03*
X5955Y2998I-20J0D01*
G01*
D269*
X5336Y12260D02*
X5346D01*
X5356Y12270D01*
X5367Y12260D01*
X5377D01*
Y12270D01*
X5367Y12280D01*
X5377Y12290D01*
Y12300D01*
X5367D01*
X5356Y12290D01*
X5346Y12300D01*
X5336D01*
Y12290D01*
X5346Y12280D01*
X5336Y12270D01*
Y12260D01*
X5346Y12270D02*
X5351D01*
X5356Y12275D01*
X5362Y12270D01*
X5367D01*
Y12275D01*
X5362Y12280D01*
X5367Y12285D01*
Y12290D01*
X5362D01*
X5356Y12285D01*
X5351Y12290D01*
X5346D01*
Y12285D01*
X5351Y12280D01*
X5346Y12275D01*
Y12270D01*
X5356Y10260D02*
X5336Y10300D01*
X5377D01*
X5356Y10260D01*
Y10270D02*
X5346Y10290D01*
X5367D01*
X5356Y10270D01*
X321Y11273D02*
Y11263D01*
X342D01*
Y11273D01*
X352D01*
Y11293D01*
X342D01*
Y11303D01*
X321D01*
Y11293D01*
X311D01*
Y11273D01*
X321D01*
X9973Y5940D02*
Y5974D01*
X9965Y5982D01*
X9948D01*
X9940Y5974D01*
Y5940D01*
X9948Y5931D01*
X9965D01*
X9957Y5948D02*
X9973Y5931D01*
X9965D02*
X9973Y5940D01*
Y5123D02*
Y5157D01*
X9965Y5165D01*
X9948D01*
X9940Y5157D01*
Y5123D01*
X9948Y5114D01*
X9965D01*
X9957Y5131D02*
X9973Y5114D01*
X9965D02*
X9973Y5123D01*
X8288Y9987D02*
Y9936D01*
Y9962D01*
X8322D01*
Y9987D01*
Y9936D01*
X8288Y9192D02*
Y9141D01*
Y9167D01*
X8322D01*
Y9192D01*
Y9141D01*
X8005Y5256D02*
Y5205D01*
Y5231D01*
X8038D01*
Y5256D01*
Y5205D01*
X8259Y5129D02*
Y5078D01*
Y5104D01*
X8292D01*
Y5129D01*
Y5078D01*
X8005Y5510D02*
Y5459D01*
Y5485D01*
X8038D01*
Y5510D01*
Y5459D01*
X8259Y5383D02*
Y5332D01*
Y5358D01*
X8292D01*
Y5383D01*
Y5332D01*
X8005Y5764D02*
Y5713D01*
Y5739D01*
X8038D01*
Y5764D01*
Y5713D01*
X8259Y5637D02*
Y5586D01*
Y5612D01*
X8292D01*
Y5637D01*
Y5586D01*
X8005Y6018D02*
Y5967D01*
Y5993D01*
X8038D01*
Y6018D01*
Y5967D01*
X8259Y5891D02*
Y5840D01*
Y5866D01*
X8292D01*
Y5891D01*
Y5840D01*
X9572Y9387D02*
X9538D01*
Y9336D01*
X9572D01*
X9538Y9361D02*
X9555D01*
X9422Y9286D02*
X9388D01*
Y9235D01*
X9422D01*
X9388Y9260D02*
X9405D01*
X9422Y9895D02*
X9388D01*
Y9844D01*
X9422D01*
X9388Y9869D02*
X9405D01*
X9572Y9996D02*
X9538D01*
Y9945D01*
X9572D01*
X9538Y9970D02*
X9555D01*
X9572Y9793D02*
X9538D01*
Y9742D01*
X9572D01*
X9538Y9767D02*
X9555D01*
X9422Y9692D02*
X9388D01*
Y9641D01*
X9422D01*
X9388Y9666D02*
X9405D01*
X9422Y9083D02*
X9388D01*
Y9032D01*
X9422D01*
X9388Y9057D02*
X9405D01*
X9572Y9184D02*
X9538D01*
Y9133D01*
X9572D01*
X9538Y9158D02*
X9555D01*
X8005Y5002D02*
Y4951D01*
Y4977D01*
X8038D01*
Y5002D01*
Y4951D01*
X9422Y9489D02*
X9388D01*
Y9438D01*
X9422D01*
X9388Y9463D02*
X9405D01*
X9422Y10098D02*
X9388D01*
Y10047D01*
X9422D01*
X9388Y10072D02*
X9405D01*
X9572Y9590D02*
X9538D01*
Y9539D01*
X9572D01*
X9538Y9564D02*
X9555D01*
X9572Y8981D02*
X9538D01*
Y8930D01*
X9572D01*
X9538Y8955D02*
X9555D01*
X9973Y6194D02*
Y6228D01*
X9965Y6236D01*
X9948D01*
X9940Y6228D01*
Y6194D01*
X9948Y6185D01*
X9965D01*
X9957Y6202D02*
X9973Y6185D01*
X9965D02*
X9973Y6194D01*
Y4869D02*
Y4903D01*
X9965Y4911D01*
X9948D01*
X9940Y4903D01*
Y4869D01*
X9948Y4860D01*
X9965D01*
X9957Y4877D02*
X9973Y4860D01*
X9965D02*
X9973Y4869D01*
X8288Y10241D02*
Y10190D01*
Y10216D01*
X8322D01*
Y10241D01*
Y10190D01*
X8288Y8938D02*
Y8887D01*
Y8913D01*
X8322D01*
Y8938D01*
Y8887D01*
X6225Y10983D02*
Y11024D01*
X6266D01*
Y10983D01*
X6225D01*
Y11237D02*
Y11278D01*
X6266D01*
Y11237D01*
X6225D01*
Y11491D02*
Y11532D01*
X6266D01*
Y11491D01*
X6225D01*
X9074Y8858D02*
X9040D01*
Y8807D01*
X9074D01*
X9040Y8833D02*
X9057D01*
X8871Y8858D02*
X8837D01*
Y8807D01*
X8871D01*
X8837Y8833D02*
X8854D01*
X9074Y10321D02*
X9040D01*
Y10270D01*
X9074D01*
X9040Y10296D02*
X9057D01*
X8871Y10321D02*
X8837D01*
Y10270D01*
X8871D01*
X8837Y10296D02*
X8854D01*
X9801Y7293D02*
X9811Y7304D01*
X9821D01*
X9811Y7314D01*
X9821Y7324D01*
X9811D01*
X9801Y7334D01*
X9790Y7324D01*
X9780D01*
X9790Y7314D01*
X9780Y7304D01*
X9790D01*
X9801Y7293D01*
Y7304D02*
X9806Y7309D01*
X9811D01*
X9806Y7314D01*
X9811Y7319D01*
X9806D01*
X9801Y7324D01*
X9795Y7319D01*
X9790D01*
X9795Y7314D01*
X9790Y7309D01*
X9795D01*
X9801Y7304D01*
X10055Y7166D02*
X10065Y7177D01*
X10075D01*
X10065Y7187D01*
X10075Y7197D01*
X10065D01*
X10055Y7207D01*
X10044Y7197D01*
X10034D01*
X10044Y7187D01*
X10034Y7177D01*
X10044D01*
X10055Y7166D01*
Y7177D02*
X10060Y7182D01*
X10065D01*
X10060Y7187D01*
X10065Y7192D01*
X10060D01*
X10055Y7197D01*
X10049Y7192D01*
X10044D01*
X10049Y7187D01*
X10044Y7182D01*
X10049D01*
X10055Y7177D01*
Y7674D02*
X10065Y7685D01*
X10075D01*
X10065Y7695D01*
X10075Y7705D01*
X10065D01*
X10055Y7715D01*
X10044Y7705D01*
X10034D01*
X10044Y7695D01*
X10034Y7685D01*
X10044D01*
X10055Y7674D01*
Y7685D02*
X10060Y7690D01*
X10065D01*
X10060Y7695D01*
X10065Y7700D01*
X10060D01*
X10055Y7705D01*
X10049Y7700D01*
X10044D01*
X10049Y7695D01*
X10044Y7690D01*
X10049D01*
X10055Y7685D01*
X9801Y7547D02*
X9811Y7558D01*
X9821D01*
X9811Y7568D01*
X9821Y7578D01*
X9811D01*
X9801Y7588D01*
X9790Y7578D01*
X9780D01*
X9790Y7568D01*
X9780Y7558D01*
X9790D01*
X9801Y7547D01*
Y7558D02*
X9806Y7563D01*
X9811D01*
X9806Y7568D01*
X9811Y7573D01*
X9806D01*
X9801Y7578D01*
X9795Y7573D01*
X9790D01*
X9795Y7568D01*
X9790Y7563D01*
X9795D01*
X9801Y7558D01*
Y7801D02*
X9811Y7812D01*
X9821D01*
X9811Y7822D01*
X9821Y7832D01*
X9811D01*
X9801Y7842D01*
X9790Y7832D01*
X9780D01*
X9790Y7822D01*
X9780Y7812D01*
X9790D01*
X9801Y7801D01*
Y7812D02*
X9806Y7817D01*
X9811D01*
X9806Y7822D01*
X9811Y7827D01*
X9806D01*
X9801Y7832D01*
X9795Y7827D01*
X9790D01*
X9795Y7822D01*
X9790Y7817D01*
X9795D01*
X9801Y7812D01*
X10055Y7420D02*
X10065Y7431D01*
X10075D01*
X10065Y7441D01*
X10075Y7451D01*
X10065D01*
X10055Y7461D01*
X10044Y7451D01*
X10034D01*
X10044Y7441D01*
X10034Y7431D01*
X10044D01*
X10055Y7420D01*
Y7431D02*
X10060Y7436D01*
X10065D01*
X10060Y7441D01*
X10065Y7446D01*
X10060D01*
X10055Y7451D01*
X10049Y7446D01*
X10044D01*
X10049Y7441D01*
X10044Y7436D01*
X10049D01*
X10055Y7431D01*
X9801Y8055D02*
X9811Y8066D01*
X9821D01*
X9811Y8076D01*
X9821Y8086D01*
X9811D01*
X9801Y8096D01*
X9790Y8086D01*
X9780D01*
X9790Y8076D01*
X9780Y8066D01*
X9790D01*
X9801Y8055D01*
Y8066D02*
X9806Y8071D01*
X9811D01*
X9806Y8076D01*
X9811Y8081D01*
X9806D01*
X9801Y8086D01*
X9795Y8081D01*
X9790D01*
X9795Y8076D01*
X9790Y8071D01*
X9795D01*
X9801Y8066D01*
X10055Y7928D02*
X10065Y7939D01*
X10075D01*
X10065Y7949D01*
X10075Y7959D01*
X10065D01*
X10055Y7969D01*
X10044Y7959D01*
X10034D01*
X10044Y7949D01*
X10034Y7939D01*
X10044D01*
X10055Y7928D01*
Y7939D02*
X10060Y7944D01*
X10065D01*
X10060Y7949D01*
X10065Y7954D01*
X10060D01*
X10055Y7959D01*
X10049Y7954D01*
X10044D01*
X10049Y7949D01*
X10044Y7944D01*
X10049D01*
X10055Y7939D01*
X9538Y10438D02*
Y10489D01*
X9564D01*
X9572Y10480D01*
Y10463D01*
X9564Y10455D01*
X9538D01*
Y8640D02*
Y8691D01*
X9564D01*
X9572Y8682D01*
Y8665D01*
X9564Y8657D01*
X9538D01*
X8850Y6834D02*
Y6823D01*
X8871D01*
Y6834D01*
X8881D01*
Y6854D01*
X8871D01*
Y6864D01*
X8850D01*
Y6854D01*
X8840D01*
Y6834D01*
X8850D01*
X8855Y6839D02*
Y6834D01*
X8866D01*
Y6839D01*
X8871D01*
Y6849D01*
X8866D01*
Y6854D01*
X8855D01*
Y6849D01*
X8850D01*
Y6839D01*
X8855D01*
X8850Y8409D02*
Y8398D01*
X8871D01*
Y8409D01*
X8881D01*
Y8429D01*
X8871D01*
Y8439D01*
X8850D01*
Y8429D01*
X8840D01*
Y8409D01*
X8850D01*
X8855Y8414D02*
Y8409D01*
X8866D01*
Y8414D01*
X8871D01*
Y8424D01*
X8866D01*
Y8429D01*
X8855D01*
Y8424D01*
X8850D01*
Y8414D01*
X8855D01*
X9140Y6310D02*
Y6361D01*
X9165D01*
X9173Y6353D01*
Y6336D01*
X9165Y6327D01*
X9140D01*
Y4735D02*
Y4786D01*
X9165D01*
X9173Y4778D01*
Y4761D01*
X9165Y4752D01*
X9140D01*
X7921Y1312D02*
X7904D01*
X7896Y1303D01*
Y1269D01*
X7904Y1261D01*
X7921D01*
X7930Y1269D01*
Y1303D01*
X7921Y1312D01*
X6970D02*
X6953D01*
X6945Y1303D01*
Y1269D01*
X6953Y1261D01*
X6970D01*
X6979Y1269D01*
Y1303D01*
X6970Y1312D01*
X8872D02*
X8855D01*
X8847Y1303D01*
Y1269D01*
X8855Y1261D01*
X8872D01*
X8880Y1269D01*
Y1303D01*
X8872Y1312D01*
X4118D02*
X4101D01*
X4093Y1303D01*
Y1269D01*
X4101Y1261D01*
X4118D01*
X4127Y1269D01*
Y1303D01*
X4118Y1312D01*
X5069D02*
X5052D01*
X5043Y1303D01*
Y1269D01*
X5052Y1261D01*
X5069D01*
X5077Y1269D01*
Y1303D01*
X5069Y1312D01*
X6020D02*
X6003D01*
X5994Y1303D01*
Y1269D01*
X6003Y1261D01*
X6020D01*
X6028Y1269D01*
Y1303D01*
X6020Y1312D01*
X8814Y13260D02*
X8831D01*
X8823D01*
Y13209D01*
X8814D01*
X8831D01*
X9848Y12517D02*
Y12568D01*
X9882Y12517D01*
Y12568D01*
X9848Y12187D02*
Y12136D01*
Y12153D01*
X9882Y12187D01*
X9857Y12162D01*
X9882Y12136D01*
X9750Y2486D02*
Y2527D01*
X9791D01*
Y2486D01*
X9750D01*
X9760Y2496D02*
Y2516D01*
X9780D01*
Y2496D01*
X9760D01*
X9750Y3502D02*
Y3543D01*
X9791D01*
Y3502D01*
X9750D01*
X9760Y3512D02*
Y3532D01*
X9780D01*
Y3512D01*
X9760D01*
X9750Y1978D02*
Y2019D01*
X9791D01*
Y1978D01*
X9750D01*
X9760Y1988D02*
Y2008D01*
X9780D01*
Y1988D01*
X9760D01*
X9750Y2994D02*
Y3035D01*
X9791D01*
Y2994D01*
X9750D01*
X9760Y3004D02*
Y3024D01*
X9780D01*
Y3004D01*
X9760D01*
X7054Y12568D02*
Y12517D01*
Y12534D01*
X7088Y12568D01*
X7063Y12543D01*
X7088Y12517D01*
X8872Y1062D02*
X8855D01*
X8847Y1053D01*
Y1019D01*
X8855Y1011D01*
X8872D01*
X8880Y1019D01*
Y1053D01*
X8872Y1062D01*
Y862D02*
X8855D01*
X8847Y853D01*
Y819D01*
X8855Y811D01*
X8872D01*
X8880Y819D01*
Y853D01*
X8872Y862D01*
X7921Y1062D02*
X7904D01*
X7896Y1053D01*
Y1019D01*
X7904Y1011D01*
X7921D01*
X7930Y1019D01*
Y1053D01*
X7921Y1062D01*
Y862D02*
X7904D01*
X7896Y853D01*
Y819D01*
X7904Y811D01*
X7921D01*
X7930Y819D01*
Y853D01*
X7921Y862D01*
X6970Y1062D02*
X6953D01*
X6945Y1053D01*
Y1019D01*
X6953Y1011D01*
X6970D01*
X6979Y1019D01*
Y1053D01*
X6970Y1062D01*
Y862D02*
X6953D01*
X6945Y853D01*
Y819D01*
X6953Y811D01*
X6970D01*
X6979Y819D01*
Y853D01*
X6970Y862D01*
X6020Y1062D02*
X6003D01*
X5994Y1053D01*
Y1019D01*
X6003Y1011D01*
X6020D01*
X6028Y1019D01*
Y1053D01*
X6020Y1062D01*
Y862D02*
X6003D01*
X5994Y853D01*
Y819D01*
X6003Y811D01*
X6020D01*
X6028Y819D01*
Y853D01*
X6020Y862D01*
X7054Y11806D02*
Y11755D01*
Y11772D01*
X7088Y11806D01*
X7063Y11781D01*
X7088Y11755D01*
X5069Y1062D02*
X5052D01*
X5043Y1053D01*
Y1019D01*
X5052Y1011D01*
X5069D01*
X5077Y1019D01*
Y1053D01*
X5069Y1062D01*
Y862D02*
X5052D01*
X5043Y853D01*
Y819D01*
X5052Y811D01*
X5069D01*
X5077Y819D01*
Y853D01*
X5069Y862D01*
X4118Y1062D02*
X4101D01*
X4093Y1053D01*
Y1019D01*
X4101Y1011D01*
X4118D01*
X4127Y1019D01*
Y1053D01*
X4118Y1062D01*
Y862D02*
X4101D01*
X4093Y853D01*
Y819D01*
X4101Y811D01*
X4118D01*
X4127Y819D01*
Y853D01*
X4118Y862D01*
X7188Y9965D02*
Y10005D01*
X7229D01*
Y9965D01*
X7188D01*
Y9711D02*
Y9751D01*
X7229D01*
Y9711D01*
X7188D01*
X6934Y9457D02*
Y9497D01*
X6975D01*
Y9457D01*
X6934D01*
Y8695D02*
Y8735D01*
X6975D01*
Y8695D01*
X6934D01*
X7188Y10219D02*
Y10259D01*
X7229D01*
Y10219D01*
X7188D01*
X2582Y1653D02*
X2561Y1694D01*
X2602D01*
X2582Y1653D01*
X3070D02*
X3049Y1694D01*
X3090D01*
X3070Y1653D01*
X3856Y1610D02*
X3847Y1619D01*
X3830D01*
X3822Y1610D01*
Y1576D01*
X3830Y1568D01*
X3847D01*
X3856Y1576D01*
Y1593D01*
X3839D01*
X3856Y296D02*
X3847Y305D01*
X3830D01*
X3822Y296D01*
Y262D01*
X3830Y254D01*
X3847D01*
X3856Y262D01*
Y279D01*
X3839D01*
X4118Y612D02*
X4101D01*
X4093Y603D01*
Y569D01*
X4101Y561D01*
X4118D01*
X4127Y569D01*
Y603D01*
X4118Y612D01*
X4806Y1610D02*
X4798Y1619D01*
X4781D01*
X4772Y1610D01*
Y1576D01*
X4781Y1568D01*
X4798D01*
X4806Y1576D01*
Y1593D01*
X4789D01*
X4806Y296D02*
X4798Y305D01*
X4781D01*
X4772Y296D01*
Y262D01*
X4781Y254D01*
X4798D01*
X4806Y262D01*
Y279D01*
X4789D01*
X5069Y612D02*
X5052D01*
X5043Y603D01*
Y569D01*
X5052Y561D01*
X5069D01*
X5077Y569D01*
Y603D01*
X5069Y612D01*
X5757Y1610D02*
X5749Y1619D01*
X5732D01*
X5723Y1610D01*
Y1576D01*
X5732Y1568D01*
X5749D01*
X5757Y1576D01*
Y1593D01*
X5740D01*
X5757Y296D02*
X5749Y305D01*
X5732D01*
X5723Y296D01*
Y262D01*
X5732Y254D01*
X5749D01*
X5757Y262D01*
Y279D01*
X5740D01*
X6020Y612D02*
X6003D01*
X5994Y603D01*
Y569D01*
X6003Y561D01*
X6020D01*
X6028Y569D01*
Y603D01*
X6020Y612D01*
X7659Y1610D02*
X7650Y1619D01*
X7633D01*
X7625Y1610D01*
Y1576D01*
X7633Y1568D01*
X7650D01*
X7659Y1576D01*
Y1593D01*
X7642D01*
X7659Y296D02*
X7650Y305D01*
X7633D01*
X7625Y296D01*
Y262D01*
X7633Y254D01*
X7650D01*
X7659Y262D01*
Y279D01*
X7642D01*
X7921Y612D02*
X7904D01*
X7896Y603D01*
Y569D01*
X7904Y561D01*
X7921D01*
X7930Y569D01*
Y603D01*
X7921Y612D01*
X6708Y1610D02*
X6699Y1619D01*
X6682D01*
X6674Y1610D01*
Y1576D01*
X6682Y1568D01*
X6699D01*
X6708Y1576D01*
Y1593D01*
X6691D01*
X6708Y296D02*
X6699Y305D01*
X6682D01*
X6674Y296D01*
Y262D01*
X6682Y254D01*
X6699D01*
X6708Y262D01*
Y279D01*
X6691D01*
X6970Y612D02*
X6953D01*
X6945Y603D01*
Y569D01*
X6953Y561D01*
X6970D01*
X6979Y569D01*
Y603D01*
X6970Y612D01*
X8609Y1610D02*
X8601Y1619D01*
X8584D01*
X8576Y1610D01*
Y1576D01*
X8584Y1568D01*
X8601D01*
X8609Y1576D01*
Y1593D01*
X8592D01*
X8609Y296D02*
X8601Y305D01*
X8584D01*
X8576Y296D01*
Y262D01*
X8584Y254D01*
X8601D01*
X8609Y262D01*
Y279D01*
X8592D01*
X8872Y612D02*
X8855D01*
X8847Y603D01*
Y569D01*
X8855Y561D01*
X8872D01*
X8880Y569D01*
Y603D01*
X8872Y612D01*
X8368Y13550D02*
X8351D01*
X8360D01*
Y13507D01*
X8351Y13499D01*
X8343D01*
X8334Y13507D01*
X8814Y13890D02*
X8831D01*
X8823D01*
Y13839D01*
X8814D01*
X8831D01*
X6934Y9965D02*
Y10005D01*
X6975D01*
Y9965D01*
X6934D01*
Y9711D02*
Y9751D01*
X6975D01*
Y9711D01*
X6934D01*
X7188Y9457D02*
Y9497D01*
X7229D01*
Y9457D01*
X7188D01*
Y8695D02*
Y8735D01*
X7229D01*
Y8695D01*
X7188D01*
X1228Y540D02*
Y489D01*
X1253D01*
X1262Y497D01*
Y506D01*
X1253Y514D01*
X1228D01*
X1253D01*
X1262Y523D01*
Y531D01*
X1253Y540D01*
X1228D01*
X1713D02*
Y489D01*
X1738D01*
X1747Y497D01*
Y506D01*
X1738Y514D01*
X1713D01*
X1738D01*
X1747Y523D01*
Y531D01*
X1738Y540D01*
X1713D01*
X1198Y186D02*
Y237D01*
X1215Y220D01*
X1232Y237D01*
Y186D01*
X1743D02*
Y237D01*
X1760Y220D01*
X1777Y237D01*
Y186D01*
X9750Y1470D02*
Y1511D01*
X9791D01*
Y1470D01*
X9750D01*
X9760Y1480D02*
Y1500D01*
X9780D01*
Y1480D01*
X9760D01*
X8259Y6145D02*
Y6094D01*
Y6120D01*
X8292D01*
Y6145D01*
Y6094D01*
X6225Y11745D02*
Y11786D01*
X6266D01*
Y11745D01*
X6225D01*
Y11999D02*
Y12040D01*
X6266D01*
Y11999D01*
X6225D01*
Y12253D02*
Y12294D01*
X6266D01*
Y12253D01*
X6225D01*
Y12507D02*
Y12548D01*
X6266D01*
Y12507D01*
X6225D01*
X9848Y10993D02*
Y11044D01*
X9882Y10993D01*
Y11044D01*
X7054D02*
Y10993D01*
Y11010D01*
X7088Y11044D01*
X7063Y11019D01*
X7088Y10993D01*
X6479Y11745D02*
Y11786D01*
X6520D01*
Y11745D01*
X6479D01*
Y12253D02*
Y12294D01*
X6520D01*
Y12253D01*
X6479D01*
Y12507D02*
Y12548D01*
X6520D01*
Y12507D01*
X6479D01*
Y11237D02*
Y11278D01*
X6520D01*
Y11237D01*
X6479D01*
Y10983D02*
Y11024D01*
X6520D01*
Y10983D01*
X6479D01*
X6934Y10219D02*
Y10259D01*
X6975D01*
Y10219D01*
X6934D01*
Y8949D02*
Y8989D01*
X6975D01*
Y8949D01*
X6934D01*
X6479Y11999D02*
Y12040D01*
X6520D01*
Y11999D01*
X6479D01*
X6934Y9203D02*
Y9243D01*
X6975D01*
Y9203D01*
X6934D01*
X7188D02*
Y9243D01*
X7229D01*
Y9203D01*
X7188D01*
X9750Y4010D02*
Y4051D01*
X9791D01*
Y4010D01*
X9750D01*
X9760Y4020D02*
Y4040D01*
X9780D01*
Y4020D01*
X9760D01*
X9848Y11806D02*
Y11755D01*
Y11772D01*
X9882Y11806D01*
X9857Y11781D01*
X9882Y11755D01*
X9848Y11425D02*
Y11374D01*
Y11391D01*
X9882Y11425D01*
X9857Y11400D01*
X9882Y11374D01*
X6479Y11491D02*
Y11532D01*
X6520D01*
Y11491D01*
X6479D01*
X9508Y4931D02*
X9518D01*
X9529Y4941D01*
X9539Y4931D01*
X9549D01*
Y4941D01*
X9539Y4951D01*
X9549Y4962D01*
Y4972D01*
X9539D01*
X9529Y4962D01*
X9518Y4972D01*
X9508D01*
Y4962D01*
X9518Y4951D01*
X9508Y4941D01*
Y4931D01*
Y6074D02*
X9518D01*
X9529Y6084D01*
X9539Y6074D01*
X9549D01*
Y6084D01*
X9539Y6094D01*
X9549Y6105D01*
Y6115D01*
X9539D01*
X9529Y6105D01*
X9518Y6115D01*
X9508D01*
Y6105D01*
X9518Y6094D01*
X9508Y6084D01*
Y6074D01*
X5397Y5974D02*
Y6008D01*
X5414Y6025D01*
X5431Y6008D01*
Y5974D01*
Y6000D01*
X5397D01*
X597Y5974D02*
Y6008D01*
X614Y6025D01*
X631Y6008D01*
Y5974D01*
Y6000D01*
X597D01*
X5397Y2674D02*
Y2708D01*
X5414Y2725D01*
X5431Y2708D01*
Y2674D01*
Y2700D01*
X5397D01*
X597Y2674D02*
Y2708D01*
X614Y2725D01*
X631Y2708D01*
Y2674D01*
Y2700D01*
X597D01*
X7188Y8949D02*
Y8989D01*
X7229D01*
Y8949D01*
X7188D01*
X2895Y9301D02*
X2916Y9321D01*
X2936Y9301D01*
X2916Y9280D01*
X2895Y9301D01*
X485Y6881D02*
X506Y6901D01*
X526Y6881D01*
X506Y6860D01*
X485Y6881D01*
X2895D02*
X2916Y6901D01*
X2936Y6881D01*
X2916Y6860D01*
X2895Y6881D01*
X485Y9301D02*
X506Y9321D01*
X526Y9301D01*
X506Y9280D01*
X485Y9301D01*
X5285Y9315D02*
X5296Y9336D01*
X5285Y9356D01*
X5306Y9346D01*
X5326Y9356D01*
X5316Y9336D01*
X5326Y9315D01*
X5306Y9325D01*
X5285Y9315D01*
X5306Y6815D02*
X5316Y6825D01*
X5326D01*
X5316Y6836D01*
X5326Y6846D01*
X5316D01*
X5306Y6856D01*
X5296Y6846D01*
X5285D01*
X5296Y6836D01*
X5285Y6825D01*
X5296D01*
X5306Y6815D01*
X9199Y8245D02*
X9191Y8253D01*
X9174D01*
X9166Y8245D01*
Y8211D01*
X9174Y8203D01*
X9191D01*
X9199Y8211D01*
Y7102D02*
X9191Y7110D01*
X9174D01*
X9166Y7102D01*
Y7068D01*
X9174Y7060D01*
X9191D01*
X9199Y7068D01*
X8619Y9018D02*
X8629D01*
X8639Y9028D01*
X8649Y9018D01*
X8659D01*
Y9028D01*
X8649Y9038D01*
X8659Y9049D01*
Y9059D01*
X8649D01*
X8639Y9049D01*
X8629Y9059D01*
X8619D01*
Y9049D01*
X8629Y9038D01*
X8619Y9028D01*
Y9018D01*
Y10019D02*
X8629D01*
X8639Y10029D01*
X8649Y10019D01*
X8659D01*
Y10029D01*
X8649Y10039D01*
X8659Y10050D01*
Y10060D01*
X8649D01*
X8639Y10050D01*
X8629Y10060D01*
X8619D01*
Y10050D01*
X8629Y10039D01*
X8619Y10029D01*
Y10019D01*
X400Y451D02*
Y400D01*
X425D01*
X434Y408D01*
Y442D01*
X425Y451D01*
X400D01*
X9811Y451D02*
Y400D01*
X9836D01*
X9844Y408D01*
Y442D01*
X9836Y451D01*
X9811D01*
X400Y14043D02*
Y13992D01*
X425D01*
X434Y14000D01*
Y14034D01*
X425Y14043D01*
X400D01*
X9811Y14043D02*
Y13992D01*
X9836D01*
X9844Y14000D01*
Y14034D01*
X9836Y14043D01*
X9811D01*
X2383Y13624D02*
X2349D01*
Y13598D01*
X2366D01*
X2349D01*
Y13573D01*
X2126Y13772D02*
X2093D01*
Y13747D01*
X2110D01*
X2093D01*
Y13722D01*
X2076Y13912D02*
X2042D01*
Y13887D01*
X2059D01*
X2042D01*
Y13861D01*
X2215Y13747D02*
X2181D01*
Y13722D01*
X2198D01*
X2181D01*
Y13696D01*
X3457Y13770D02*
X3423D01*
Y13745D01*
X3440D01*
X3423D01*
Y13720D01*
X3365Y14049D02*
X3331D01*
Y14024D01*
X3348D01*
X3331D01*
Y13998D01*
X2718Y14077D02*
X2685D01*
Y14051D01*
X2701D01*
X2685D01*
Y14026D01*
X2828Y14072D02*
X2794D01*
Y14046D01*
X2811D01*
X2794D01*
Y14021D01*
X3209Y13857D02*
X3175D01*
Y13831D01*
X3192D01*
X3175D01*
Y13806D01*
X3209Y13751D02*
X3175D01*
Y13725D01*
X3192D01*
X3175D01*
Y13700D01*
X4725Y12704D02*
X4691D01*
Y12678D01*
X4708D01*
X4691D01*
Y12653D01*
X4839Y12704D02*
X4805D01*
Y12678D01*
X4822D01*
X4805D01*
Y12653D01*
X5058Y12535D02*
X5025D01*
Y12509D01*
X5042D01*
X5025D01*
Y12484D01*
X1474Y13122D02*
X1441D01*
Y13097D01*
X1458D01*
X1441D01*
Y13072D01*
X5327Y11626D02*
X5293D01*
Y11601D01*
X5310D01*
X5293D01*
Y11575D01*
X1644Y12921D02*
X1610D01*
Y12896D01*
X1627D01*
X1610D01*
Y12871D01*
X1396Y13639D02*
X1363D01*
Y13613D01*
X1379D01*
X1363D01*
Y13588D01*
X7575Y10077D02*
X7541D01*
Y10051D01*
X7558D01*
X7541D01*
Y10026D01*
X5301Y10629D02*
X5267D01*
Y10604D01*
X5284D01*
X5267D01*
Y10578D01*
X6080Y10677D02*
X6046D01*
Y10652D01*
X6063D01*
X6046D01*
Y10627D01*
X5304Y12206D02*
X5270D01*
Y12180D01*
X5287D01*
X5270D01*
Y12155D01*
X5495Y12043D02*
X5461D01*
Y12017D01*
X5478D01*
X5461D01*
Y11992D01*
X5495Y12119D02*
X5461D01*
Y12093D01*
X5478D01*
X5461D01*
Y12068D01*
X5025Y12128D02*
X4991D01*
Y12103D01*
X5008D01*
X4991D01*
Y12078D01*
X5304Y12078D02*
X5270D01*
Y12052D01*
X5287D01*
X5270D01*
Y12027D01*
X4687Y9485D02*
X4654D01*
Y9459D01*
X4670D01*
X4654D01*
Y9434D01*
X4768Y9236D02*
X4734D01*
Y9211D01*
X4751D01*
X4734D01*
Y9186D01*
X5641Y10454D02*
X5607D01*
Y10429D01*
X5624D01*
X5607D01*
Y10403D01*
X5609Y10516D02*
X5575D01*
Y10490D01*
X5592D01*
X5575D01*
Y10465D01*
X5680Y10517D02*
X5646D01*
Y10491D01*
X5663D01*
X5646D01*
Y10466D01*
X5709Y10447D02*
X5675D01*
Y10421D01*
X5692D01*
X5675D01*
Y10396D01*
X5749Y10516D02*
X5715D01*
Y10490D01*
X5732D01*
X5715D01*
Y10465D01*
X5733Y10610D02*
X5699D01*
Y10585D01*
X5716D01*
X5699D01*
Y10559D01*
X6062Y11008D02*
X6028D01*
Y10982D01*
X6045D01*
X6028D01*
Y10957D01*
X6060Y10604D02*
X6026D01*
Y10579D01*
X6043D01*
X6026D01*
Y10554D01*
X6062Y11458D02*
X6028D01*
Y11432D01*
X6045D01*
X6028D01*
Y11407D01*
X6062Y10858D02*
X6028D01*
Y10832D01*
X6045D01*
X6028D01*
Y10807D01*
X6062Y11158D02*
X6028D01*
Y11132D01*
X6045D01*
X6028D01*
Y11107D01*
X6062Y11608D02*
X6028D01*
Y11582D01*
X6045D01*
X6028D01*
Y11557D01*
X6062Y11308D02*
X6028D01*
Y11282D01*
X6045D01*
X6028D01*
Y11257D01*
X6062Y10471D02*
X6028D01*
Y10445D01*
X6045D01*
X6028D01*
Y10420D01*
X6062Y10378D02*
X6028D01*
Y10352D01*
X6045D01*
X6028D01*
Y10327D01*
X5025Y12027D02*
X4991D01*
Y12001D01*
X5008D01*
X4991D01*
Y11976D01*
X5622Y12001D02*
X5588D01*
Y11976D01*
X5605D01*
X5588D01*
Y11951D01*
X5774Y11951D02*
X5740D01*
Y11925D01*
X5757D01*
X5740D01*
Y11900D01*
X5774Y12043D02*
X5740D01*
Y12017D01*
X5757D01*
X5740D01*
Y11992D01*
X5774Y12119D02*
X5740D01*
Y12093D01*
X5757D01*
X5740D01*
Y12068D01*
X5774Y12206D02*
X5740D01*
Y12180D01*
X5757D01*
X5740D01*
Y12155D01*
X6053Y12179D02*
X6020D01*
Y12154D01*
X6036D01*
X6020D01*
Y12128D01*
X6041Y12370D02*
X6007D01*
Y12344D01*
X6024D01*
X6007D01*
Y12319D01*
X5025Y11379D02*
X4991D01*
Y11354D01*
X5008D01*
X4991D01*
Y11328D01*
X5025Y11481D02*
X4991D01*
Y11455D01*
X5008D01*
X4991D01*
Y11430D01*
X5291Y11430D02*
X5258D01*
Y11405D01*
X5274D01*
X5258D01*
Y11379D01*
X5838Y10185D02*
X5804D01*
Y10160D01*
X5821D01*
X5804D01*
Y10135D01*
X1437Y12840D02*
X1403D01*
Y12814D01*
X1420D01*
X1403D01*
Y12789D01*
X415Y11811D02*
X381D01*
Y11786D01*
X398D01*
X381D01*
Y11760D01*
X1304Y11798D02*
X1270D01*
Y11773D01*
X1287D01*
X1270D01*
Y11747D01*
X1437Y12636D02*
X1403D01*
Y12611D01*
X1420D01*
X1403D01*
Y12586D01*
X1437Y12382D02*
X1403D01*
Y12357D01*
X1420D01*
X1403D01*
Y12332D01*
X1647Y12281D02*
X1613D01*
Y12255D01*
X1630D01*
X1613D01*
Y12230D01*
X1647Y12535D02*
X1613D01*
Y12509D01*
X1630D01*
X1613D01*
Y12484D01*
X1900Y12433D02*
X1866D01*
Y12408D01*
X1883D01*
X1866D01*
Y12382D01*
X1901Y12665D02*
X1867D01*
Y12639D01*
X1884D01*
X1867D01*
Y12614D01*
X1901Y12789D02*
X1867D01*
Y12763D01*
X1884D01*
X1867D01*
Y12738D01*
X1901Y11907D02*
X1867D01*
Y11882D01*
X1884D01*
X1867D01*
Y11857D01*
X427Y13487D02*
X393D01*
Y13462D01*
X410D01*
X393D01*
Y13437D01*
X7855Y4330D02*
X7821D01*
Y4305D01*
X7838D01*
X7821D01*
Y4280D01*
X7743Y4267D02*
X7709D01*
Y4242D01*
X7726D01*
X7709D01*
Y4216D01*
X4415Y13868D02*
X4381D01*
Y13843D01*
X4398D01*
X4381D01*
Y13818D01*
X4250Y13017D02*
X4216D01*
Y12992D01*
X4233D01*
X4216D01*
Y12967D01*
X2967Y13302D02*
X2933D01*
Y13277D01*
X2950D01*
X2933D01*
Y13252D01*
X3056Y13302D02*
X3022D01*
Y13277D01*
X3039D01*
X3022D01*
Y13252D01*
X2990Y13411D02*
X2956D01*
Y13386D01*
X2973D01*
X2956D01*
Y13360D01*
X2895Y13411D02*
X2861D01*
Y13386D01*
X2878D01*
X2861D01*
Y13360D01*
X3095Y13411D02*
X3061D01*
Y13386D01*
X3078D01*
X3061D01*
Y13360D01*
X2541Y13373D02*
X2507D01*
Y13348D01*
X2524D01*
X2507D01*
Y13322D01*
X3798Y13500D02*
X3764D01*
Y13475D01*
X3781D01*
X3764D01*
Y13449D01*
X2967Y13220D02*
X2933D01*
Y13195D01*
X2950D01*
X2933D01*
Y13169D01*
X3056Y13220D02*
X3022D01*
Y13195D01*
X3039D01*
X3022D01*
Y13169D01*
X2967Y13137D02*
X2933D01*
Y13112D01*
X2950D01*
X2933D01*
Y13087D01*
X3056Y13137D02*
X3022D01*
Y13112D01*
X3039D01*
X3022D01*
Y13087D01*
X2967Y13056D02*
X2933D01*
Y13030D01*
X2950D01*
X2933D01*
Y13005D01*
X3056Y13056D02*
X3022D01*
Y13030D01*
X3039D01*
X3022D01*
Y13005D01*
X4001Y13348D02*
X3967D01*
Y13322D01*
X3984D01*
X3967D01*
Y13297D01*
X4148Y14033D02*
X4115D01*
Y14008D01*
X4131D01*
X4115D01*
Y13983D01*
X4029Y13827D02*
X3995D01*
Y13801D01*
X4012D01*
X3995D01*
Y13776D01*
X4029Y13661D02*
X3995D01*
Y13635D01*
X4012D01*
X3995D01*
Y13610D01*
X3209Y13538D02*
X3175D01*
Y13513D01*
X3192D01*
X3175D01*
Y13487D01*
X3209Y13640D02*
X3175D01*
Y13614D01*
X3192D01*
X3175D01*
Y13589D01*
X4777Y5603D02*
X4743D01*
Y5578D01*
X4760D01*
X4743D01*
Y5552D01*
X4837Y5650D02*
X4803D01*
Y5624D01*
X4820D01*
X4803D01*
Y5599D01*
X3379Y9433D02*
X3345D01*
Y9407D01*
X3362D01*
X3345D01*
Y9382D01*
X2122Y5825D02*
X2088D01*
Y5799D01*
X2105D01*
X2088D01*
Y5774D01*
X2080Y6009D02*
X2046D01*
Y5984D01*
X2063D01*
X2046D01*
Y5958D01*
X2231Y5537D02*
X2197D01*
Y5512D01*
X2214D01*
X2197D01*
Y5486D01*
X2433Y284D02*
X2399D01*
Y259D01*
X2416D01*
X2399D01*
Y234D01*
X2347Y286D02*
X2313D01*
Y261D01*
X2330D01*
X2313D01*
Y235D01*
X2705Y1384D02*
X2671D01*
Y1359D01*
X2688D01*
X2671D01*
Y1333D01*
X2594Y1460D02*
X2560D01*
Y1435D01*
X2577D01*
X2560D01*
Y1410D01*
X1740Y1658D02*
X1706D01*
Y1633D01*
X1723D01*
X1706D01*
Y1607D01*
X1816Y1658D02*
X1783D01*
Y1633D01*
X1799D01*
X1783D01*
Y1607D01*
X3298Y1016D02*
X3264D01*
Y990D01*
X3281D01*
X3264D01*
Y965D01*
X3196Y902D02*
X3162D01*
Y876D01*
X3179D01*
X3162D01*
Y851D01*
X3194Y991D02*
X3160D01*
Y965D01*
X3177D01*
X3160D01*
Y940D01*
X2927Y1053D02*
X2893D01*
Y1028D01*
X2910D01*
X2893D01*
Y1003D01*
X2853Y1372D02*
X2819D01*
Y1346D01*
X2836D01*
X2819D01*
Y1321D01*
X2548Y5321D02*
X2514D01*
Y5296D01*
X2531D01*
X2514D01*
Y5270D01*
X2471Y6004D02*
X2438D01*
Y5979D01*
X2455D01*
X2438D01*
Y5954D01*
X2441Y6124D02*
X2407D01*
Y6099D01*
X2424D01*
X2407D01*
Y6073D01*
X2965Y10061D02*
X2931D01*
Y10035D01*
X2948D01*
X2931D01*
Y10010D01*
X2828Y10643D02*
X2794D01*
Y10617D01*
X2811D01*
X2794D01*
Y10592D01*
X3082Y10325D02*
X3048D01*
Y10300D01*
X3065D01*
X3048D01*
Y10274D01*
X2904Y10274D02*
X2870D01*
Y10249D01*
X2887D01*
X2870D01*
Y10223D01*
X2514Y9272D02*
X2480D01*
Y9246D01*
X2497D01*
X2480D01*
Y9221D01*
X2368Y8968D02*
X2334D01*
Y8942D01*
X2351D01*
X2334D01*
Y8917D01*
X2412Y9381D02*
X2378D01*
Y9355D01*
X2395D01*
X2378D01*
Y9330D01*
X2466Y9323D02*
X2432D01*
Y9298D01*
X2449D01*
X2432D01*
Y9273D01*
X2540Y5816D02*
X2506D01*
Y5791D01*
X2523D01*
X2506D01*
Y5765D01*
X2561Y5740D02*
X2527D01*
Y5715D01*
X2544D01*
X2527D01*
Y5690D01*
X2637Y5740D02*
X2603D01*
Y5715D01*
X2620D01*
X2603D01*
Y5690D01*
X2721Y5826D02*
X2687D01*
Y5800D01*
X2704D01*
X2687D01*
Y5775D01*
X2746Y6095D02*
X2712D01*
Y6070D01*
X2729D01*
X2712D01*
Y6044D01*
X2721Y6020D02*
X2687D01*
Y5994D01*
X2704D01*
X2687D01*
Y5969D01*
X8212Y10935D02*
X8179D01*
Y10909D01*
X8195D01*
X8179D01*
Y10884D01*
X2359Y9434D02*
X2325D01*
Y9409D01*
X2342D01*
X2325D01*
Y9383D01*
X2459Y9432D02*
X2426D01*
Y9407D01*
X2443D01*
X2426D01*
Y9381D01*
X1626Y2889D02*
X1592D01*
Y2863D01*
X1609D01*
X1592D01*
Y2838D01*
X1622Y3034D02*
X1588D01*
Y3009D01*
X1605D01*
X1588D01*
Y2983D01*
X1624Y3148D02*
X1590D01*
Y3123D01*
X1607D01*
X1590D01*
Y3098D01*
X1626Y3282D02*
X1593D01*
Y3257D01*
X1610D01*
X1593D01*
Y3231D01*
X2040Y13506D02*
X2006D01*
Y13481D01*
X2023D01*
X2006D01*
Y13455D01*
X3689Y8032D02*
X3655D01*
Y8007D01*
X3672D01*
X3655D01*
Y7981D01*
X1423Y2134D02*
X1389D01*
Y2108D01*
X1406D01*
X1389D01*
Y2083D01*
X1421Y2025D02*
X1387D01*
Y2000D01*
X1404D01*
X1387D01*
Y1975D01*
X2044Y1758D02*
X2010D01*
Y1733D01*
X2027D01*
X2010D01*
Y1708D01*
X8382Y2158D02*
X8348D01*
Y2133D01*
X8365D01*
X8348D01*
Y2107D01*
X6960Y2814D02*
X6926D01*
Y2789D01*
X6943D01*
X6926D01*
Y2763D01*
X7237Y3378D02*
X7203D01*
Y3352D01*
X7220D01*
X7203D01*
Y3327D01*
X7248Y2521D02*
X7214D01*
Y2496D01*
X7231D01*
X7214D01*
Y2470D01*
X7726Y2144D02*
X7692D01*
Y2118D01*
X7709D01*
X7692D01*
Y2093D01*
X7857Y3518D02*
X7823D01*
Y3492D01*
X7840D01*
X7823D01*
Y3467D01*
X7837Y2675D02*
X7803D01*
Y2649D01*
X7820D01*
X7803D01*
Y2624D01*
X7760Y2997D02*
X7726D01*
Y2972D01*
X7743D01*
X7726D01*
Y2946D01*
X2736Y212D02*
X2703D01*
Y187D01*
X2720D01*
X2703D01*
Y162D01*
X5912Y2186D02*
X5879D01*
Y2161D01*
X5896D01*
X5879D01*
Y2135D01*
X5910Y2088D02*
X5877D01*
Y2063D01*
X5893D01*
X5877D01*
Y2037D01*
X5913Y1927D02*
X5879D01*
Y1901D01*
X5896D01*
X5879D01*
Y1876D01*
X5077Y1881D02*
X5043D01*
Y1856D01*
X5060D01*
X5043D01*
Y1830D01*
X5152Y1879D02*
X5118D01*
Y1854D01*
X5135D01*
X5118D01*
Y1828D01*
X6806Y1971D02*
X6772D01*
Y1945D01*
X6789D01*
X6772D01*
Y1920D01*
X9305Y2089D02*
X9271D01*
Y2064D01*
X9288D01*
X9271D01*
Y2039D01*
X9305Y1986D02*
X9271D01*
Y1960D01*
X9288D01*
X9271D01*
Y1935D01*
X9305Y2184D02*
X9271D01*
Y2159D01*
X9288D01*
X9271D01*
Y2134D01*
X6601Y3232D02*
X6567D01*
Y3206D01*
X6584D01*
X6567D01*
Y3181D01*
X6238Y4109D02*
X6205D01*
Y4084D01*
X6222D01*
X6205D01*
Y4059D01*
X5473Y8312D02*
X5440D01*
Y8287D01*
X5457D01*
X5440D01*
Y8261D01*
X5088Y7950D02*
X5054D01*
Y7925D01*
X5071D01*
X5054D01*
Y7899D01*
X5486Y8078D02*
X5452D01*
Y8052D01*
X5469D01*
X5452D01*
Y8027D01*
X5596Y8076D02*
X5562D01*
Y8051D01*
X5579D01*
X5562D01*
Y8026D01*
X2304Y10868D02*
X2270D01*
Y10842D01*
X2287D01*
X2270D01*
Y10817D01*
X2312Y10977D02*
X2278D01*
Y10952D01*
X2295D01*
X2278D01*
Y10927D01*
X2599Y10715D02*
X2565D01*
Y10690D01*
X2582D01*
X2565D01*
Y10665D01*
X5084Y13439D02*
X5050D01*
Y13414D01*
X5067D01*
X5050D01*
Y13388D01*
X5114Y13500D02*
X5080D01*
Y13475D01*
X5097D01*
X5080D01*
Y13449D01*
X4769Y13401D02*
X4735D01*
Y13376D01*
X4752D01*
X4735D01*
Y13350D01*
X4767Y13480D02*
X4733D01*
Y13455D01*
X4750D01*
X4733D01*
Y13430D01*
X4949Y13386D02*
X4915D01*
Y13360D01*
X4932D01*
X4915D01*
Y13335D01*
X7306Y14114D02*
X7272D01*
Y14089D01*
X7289D01*
X7272D01*
Y14063D01*
X6656Y14113D02*
X6622D01*
Y14088D01*
X6639D01*
X6622D01*
Y14062D01*
X7432Y13412D02*
X7398D01*
Y13387D01*
X7415D01*
X7398D01*
Y13362D01*
X7786Y13768D02*
X7753D01*
Y13743D01*
X7770D01*
X7753D01*
Y13718D01*
X7258Y13991D02*
X7224D01*
Y13965D01*
X7241D01*
X7224D01*
Y13940D01*
X7304Y14043D02*
X7270D01*
Y14017D01*
X7287D01*
X7270D01*
Y13992D01*
X6548Y14006D02*
X6515D01*
Y13981D01*
X6531D01*
X6515D01*
Y13956D01*
X6600Y14059D02*
X6566D01*
Y14034D01*
X6583D01*
X6566D01*
Y14008D01*
X8530Y3196D02*
X8496D01*
Y3171D01*
X8513D01*
X8496D01*
Y3145D01*
X8543Y2337D02*
X8509D01*
Y2311D01*
X8526D01*
X8509D01*
Y2286D01*
X7329Y8236D02*
X7295D01*
Y8211D01*
X7312D01*
X7295D01*
Y8185D01*
X7997Y10160D02*
X7963D01*
Y10135D01*
X7980D01*
X7963D01*
Y10109D01*
X8873Y6540D02*
X8839D01*
Y6515D01*
X8856D01*
X8839D01*
Y6490D01*
X8886Y6629D02*
X8852D01*
Y6604D01*
X8869D01*
X8852D01*
Y6579D01*
X6212Y9007D02*
X6178D01*
Y8982D01*
X6195D01*
X6178D01*
Y8957D01*
X7414Y7928D02*
X7380D01*
Y7903D01*
X7397D01*
X7380D01*
Y7877D01*
X3800Y13139D02*
X3766D01*
Y13114D01*
X3783D01*
X3766D01*
Y13088D01*
X5380Y13792D02*
X5346D01*
Y13767D01*
X5363D01*
X5346D01*
Y13741D01*
X2142Y6109D02*
X2108D01*
Y6083D01*
X2125D01*
X2108D01*
Y6058D01*
X2207Y6022D02*
X2173D01*
Y5997D01*
X2190D01*
X2173D01*
Y5972D01*
X2929Y1372D02*
X2895D01*
Y1346D01*
X2912D01*
X2895D01*
Y1321D01*
X3082Y1283D02*
X3048D01*
Y1257D01*
X3065D01*
X3048D01*
Y1232D01*
X2880Y1117D02*
X2846D01*
Y1092D01*
X2863D01*
X2846D01*
Y1067D01*
X2779Y1384D02*
X2745D01*
Y1359D01*
X2762D01*
X2745D01*
Y1333D01*
X6955Y6540D02*
X6921D01*
Y6515D01*
X6938D01*
X6921D01*
Y6490D01*
X3663Y5817D02*
X3629D01*
Y5791D01*
X3646D01*
X3629D01*
Y5766D01*
X7199Y6474D02*
X7165D01*
Y6449D01*
X7182D01*
X7165D01*
Y6424D01*
X3739Y5817D02*
X3705D01*
Y5791D01*
X3722D01*
X3705D01*
Y5766D01*
X7275Y6474D02*
X7242D01*
Y6449D01*
X7259D01*
X7242D01*
Y6424D01*
X7651Y5643D02*
X7617D01*
Y5618D01*
X7634D01*
X7617D01*
Y5593D01*
X7374Y6113D02*
X7340D01*
Y6088D01*
X7357D01*
X7340D01*
Y6062D01*
X7374Y6037D02*
X7340D01*
Y6011D01*
X7357D01*
X7340D01*
Y5986D01*
X7651Y5720D02*
X7617D01*
Y5694D01*
X7634D01*
X7617D01*
Y5669D01*
X7638Y6561D02*
X7605D01*
Y6535D01*
X7621D01*
X7605D01*
Y6510D01*
X7793Y6025D02*
X7759D01*
Y6000D01*
X7776D01*
X7759D01*
Y5974D01*
X7652Y5292D02*
X7618D01*
Y5266D01*
X7635D01*
X7618D01*
Y5241D01*
X7793Y5949D02*
X7759D01*
Y5924D01*
X7776D01*
X7759D01*
Y5898D01*
X7652Y5368D02*
X7618D01*
Y5343D01*
X7635D01*
X7618D01*
Y5317D01*
X7645Y6117D02*
X7611D01*
Y6092D01*
X7628D01*
X7611D01*
Y6066D01*
X7651Y5870D02*
X7617D01*
Y5844D01*
X7634D01*
X7617D01*
Y5819D01*
X7645Y6193D02*
X7611D01*
Y6168D01*
X7628D01*
X7611D01*
Y6142D01*
X7651Y5793D02*
X7617D01*
Y5768D01*
X7634D01*
X7617D01*
Y5743D01*
X7652Y5218D02*
X7618D01*
Y5193D01*
X7635D01*
X7618D01*
Y5167D01*
X7367Y5837D02*
X7333D01*
Y5811D01*
X7350D01*
X7333D01*
Y5786D01*
X7367Y5913D02*
X7333D01*
Y5888D01*
X7350D01*
X7333D01*
Y5862D01*
X7652Y5142D02*
X7618D01*
Y5116D01*
X7635D01*
X7618D01*
Y5091D01*
X7275Y5289D02*
X7241D01*
Y5263D01*
X7258D01*
X7241D01*
Y5238D01*
X8111Y9340D02*
X8077D01*
Y9315D01*
X8094D01*
X8077D01*
Y9290D01*
X7275Y5213D02*
X7241D01*
Y5187D01*
X7258D01*
X7241D01*
Y5162D01*
X8111Y9417D02*
X8077D01*
Y9391D01*
X8094D01*
X8077D01*
Y9366D01*
X7635Y4821D02*
X7601D01*
Y4795D01*
X7618D01*
X7601D01*
Y4770D01*
X8111Y9190D02*
X8077D01*
Y9165D01*
X8094D01*
X8077D01*
Y9140D01*
X7711Y4821D02*
X7677D01*
Y4795D01*
X7694D01*
X7677D01*
Y4770D01*
X8111Y9267D02*
X8077D01*
Y9241D01*
X8094D01*
X8077D01*
Y9216D01*
X7690Y5073D02*
X7657D01*
Y5047D01*
X7674D01*
X7657D01*
Y5022D01*
X8111Y9684D02*
X8077D01*
Y9659D01*
X8094D01*
X8077D01*
Y9634D01*
X7776Y9684D02*
X7742D01*
Y9659D01*
X7759D01*
X7742D01*
Y9634D01*
X7690Y4996D02*
X7657D01*
Y4971D01*
X7674D01*
X7657D01*
Y4946D01*
X8111Y9761D02*
X8077D01*
Y9735D01*
X8094D01*
X8077D01*
Y9710D01*
X7776Y9761D02*
X7742D01*
Y9735D01*
X7759D01*
X7742D01*
Y9710D01*
X7189Y5063D02*
X7155D01*
Y5037D01*
X7172D01*
X7155D01*
Y5012D01*
X8111Y9911D02*
X8077D01*
Y9885D01*
X8094D01*
X8077D01*
Y9860D01*
X7189Y4986D02*
X7155D01*
Y4961D01*
X7172D01*
X7155D01*
Y4936D01*
X8111Y9834D02*
X8077D01*
Y9809D01*
X8094D01*
X8077D01*
Y9784D01*
X7776Y9911D02*
X7742D01*
Y9885D01*
X7759D01*
X7742D01*
Y9860D01*
X7776Y9834D02*
X7742D01*
Y9809D01*
X7759D01*
X7742D01*
Y9784D01*
X7776Y9190D02*
X7742D01*
Y9165D01*
X7759D01*
X7742D01*
Y9140D01*
X7776Y9267D02*
X7742D01*
Y9241D01*
X7759D01*
X7742D01*
Y9216D01*
X7776Y9340D02*
X7742D01*
Y9315D01*
X7759D01*
X7742D01*
Y9290D01*
X7776Y9417D02*
X7742D01*
Y9391D01*
X7759D01*
X7742D01*
Y9366D01*
X3193Y6032D02*
X3160D01*
Y6007D01*
X3176D01*
X3160D01*
Y5982D01*
X7349Y5311D02*
X7315D01*
Y5286D01*
X7332D01*
X7315D01*
Y5260D01*
X3546Y14107D02*
X3513D01*
Y14082D01*
X3530D01*
X3513D01*
Y14056D01*
X3889Y13998D02*
X3855D01*
Y13972D01*
X3872D01*
X3855D01*
Y13947D01*
X2360Y6126D02*
X2326D01*
Y6101D01*
X2343D01*
X2326D01*
Y6076D01*
X2878Y5697D02*
X2845D01*
Y5672D01*
X2861D01*
X2845D01*
Y5646D01*
X3844Y4625D02*
X3810D01*
Y4600D01*
X3827D01*
X3810D01*
Y4574D01*
X1804Y7013D02*
X1770D01*
Y6987D01*
X1787D01*
X1770D01*
Y6962D01*
X7156Y5344D02*
X7122D01*
Y5319D01*
X7139D01*
X7122D01*
Y5293D01*
X7156Y5420D02*
X7122D01*
Y5395D01*
X7139D01*
X7122D01*
Y5370D01*
X6965Y5108D02*
X6931D01*
Y5082D01*
X6948D01*
X6931D01*
Y5057D01*
X7307Y4648D02*
X7274D01*
Y4623D01*
X7290D01*
X7274D01*
Y4597D01*
X7490Y4742D02*
X7457D01*
Y4717D01*
X7473D01*
X7457D01*
Y4691D01*
X7225Y4648D02*
X7191D01*
Y4623D01*
X7208D01*
X7191D01*
Y4597D01*
X7401Y4905D02*
X7367D01*
Y4880D01*
X7384D01*
X7367D01*
Y4855D01*
X7402Y6457D02*
X7368D01*
Y6431D01*
X7385D01*
X7368D01*
Y6406D01*
X1156Y912D02*
X1122D01*
Y886D01*
X1139D01*
X1122D01*
Y861D01*
X1037Y1631D02*
X1003D01*
Y1605D01*
X1020D01*
X1003D01*
Y1580D01*
X4118Y5424D02*
X4084D01*
Y5399D01*
X4101D01*
X4084D01*
Y5373D01*
X7166Y4428D02*
X7132D01*
Y4402D01*
X7149D01*
X7132D01*
Y4377D01*
X7260Y4432D02*
X7226D01*
Y4407D01*
X7243D01*
X7226D01*
Y4382D01*
X7412Y7857D02*
X7378D01*
Y7832D01*
X7395D01*
X7378D01*
Y7807D01*
X7412Y8238D02*
X7378D01*
Y8213D01*
X7395D01*
X7378D01*
Y8188D01*
X8187Y13304D02*
X8153D01*
Y13279D01*
X8170D01*
X8153D01*
Y13253D01*
X8080Y13500D02*
X8047D01*
Y13475D01*
X8064D01*
X8047D01*
Y13449D01*
X2561Y6744D02*
X2527D01*
Y6718D01*
X2544D01*
X2527D01*
Y6693D01*
X3680Y1829D02*
X3646D01*
Y1804D01*
X3663D01*
X3646D01*
Y1778D01*
X3687Y1994D02*
X3653D01*
Y1969D01*
X3670D01*
X3653D01*
Y1944D01*
X3386Y1664D02*
X3353D01*
Y1639D01*
X3369D01*
X3353D01*
Y1613D01*
X3386Y1829D02*
X3353D01*
Y1803D01*
X3369D01*
X3353D01*
Y1778D01*
X3386Y1994D02*
X3353D01*
Y1968D01*
X3369D01*
X3353D01*
Y1943D01*
X1380Y2560D02*
X1346D01*
Y2535D01*
X1363D01*
X1346D01*
Y2509D01*
X1380Y2718D02*
X1346D01*
Y2692D01*
X1363D01*
X1346D01*
Y2667D01*
X1380Y2868D02*
X1346D01*
Y2843D01*
X1363D01*
X1346D01*
Y2817D01*
X1380Y3010D02*
X1346D01*
Y2984D01*
X1363D01*
X1346D01*
Y2959D01*
X1380Y3150D02*
X1346D01*
Y3124D01*
X1363D01*
X1346D01*
Y3099D01*
X1380Y3289D02*
X1346D01*
Y3264D01*
X1363D01*
X1346D01*
Y3238D01*
X1037Y6413D02*
X1003D01*
Y6388D01*
X1020D01*
X1003D01*
Y6363D01*
X1291Y6413D02*
X1257D01*
Y6388D01*
X1274D01*
X1257D01*
Y6363D01*
X1165Y6413D02*
X1132D01*
Y6388D01*
X1148D01*
X1132D01*
Y6363D01*
X3865Y12898D02*
X3831D01*
Y12873D01*
X3848D01*
X3831D01*
Y12847D01*
X4284Y14147D02*
X4250D01*
Y14122D01*
X4267D01*
X4250D01*
Y14096D01*
X2805Y2420D02*
X2771D01*
Y2395D01*
X2788D01*
X2771D01*
Y2369D01*
X3739Y2935D02*
X3705D01*
Y2910D01*
X3722D01*
X3705D01*
Y2885D01*
X3663Y2935D02*
X3629D01*
Y2910D01*
X3646D01*
X3629D01*
Y2885D01*
X2558Y2630D02*
X2524D01*
Y2604D01*
X2541D01*
X2524D01*
Y2579D01*
X4473Y2418D02*
X4439D01*
Y2393D01*
X4456D01*
X4439D01*
Y2368D01*
X6134Y2392D02*
X6100D01*
Y2367D01*
X6117D01*
X6100D01*
Y2342D01*
X2047Y2012D02*
X2013D01*
Y1987D01*
X2030D01*
X2013D01*
Y1962D01*
X1678Y1965D02*
X1644D01*
Y1940D01*
X1661D01*
X1644D01*
Y1914D01*
X1418Y1930D02*
X1384D01*
Y1905D01*
X1401D01*
X1384D01*
Y1880D01*
X1507Y1931D02*
X1473D01*
Y1906D01*
X1490D01*
X1473D01*
Y1881D01*
X7020Y4453D02*
X6986D01*
Y4428D01*
X7003D01*
X6986D01*
Y4403D01*
X6886Y4443D02*
X6852D01*
Y4418D01*
X6869D01*
X6852D01*
Y4392D01*
X6756Y4516D02*
X6722D01*
Y4491D01*
X6739D01*
X6722D01*
Y4465D01*
X6607Y4452D02*
X6573D01*
Y4426D01*
X6590D01*
X6573D01*
Y4401D01*
X9755Y5579D02*
X9721D01*
Y5553D01*
X9738D01*
X9721D01*
Y5528D01*
X3479Y5816D02*
X3446D01*
Y5791D01*
X3463D01*
X3446D01*
Y5766D01*
X3382Y5509D02*
X3348D01*
Y5484D01*
X3365D01*
X3348D01*
Y5459D01*
X3774Y6786D02*
X3740D01*
Y6761D01*
X3757D01*
X3740D01*
Y6736D01*
X3360Y6781D02*
X3326D01*
Y6756D01*
X3343D01*
X3326D01*
Y6731D01*
X3114Y6433D02*
X3080D01*
Y6408D01*
X3097D01*
X3080D01*
Y6383D01*
X3040Y6134D02*
X3006D01*
Y6109D01*
X3023D01*
X3006D01*
Y6083D01*
X3001Y6325D02*
X2967D01*
Y6299D01*
X2984D01*
X2967D01*
Y6274D01*
X3411Y6008D02*
X3377D01*
Y5983D01*
X3394D01*
X3377D01*
Y5957D01*
X1922Y5769D02*
X1888D01*
Y5744D01*
X1905D01*
X1888D01*
Y5718D01*
X1954Y5638D02*
X1920D01*
Y5612D01*
X1937D01*
X1920D01*
Y5587D01*
X2879Y5789D02*
X2845D01*
Y5764D01*
X2862D01*
X2845D01*
Y5739D01*
X3238Y6732D02*
X3204D01*
Y6706D01*
X3221D01*
X3204D01*
Y6681D01*
X3316Y7100D02*
X3282D01*
Y7074D01*
X3299D01*
X3282D01*
Y7049D01*
X3283Y6987D02*
X3249D01*
Y6962D01*
X3266D01*
X3249D01*
Y6936D01*
X1961Y6134D02*
X1927D01*
Y6109D01*
X1944D01*
X1927D01*
Y6083D01*
X1801Y6134D02*
X1767D01*
Y6109D01*
X1784D01*
X1767D01*
Y6083D01*
X1961Y6325D02*
X1927D01*
Y6299D01*
X1944D01*
X1927D01*
Y6274D01*
X7269Y5797D02*
X7235D01*
Y5772D01*
X7252D01*
X7235D01*
Y5746D01*
X2078Y769D02*
X2044D01*
Y744D01*
X2061D01*
X2044D01*
Y718D01*
X2078Y693D02*
X2044D01*
Y668D01*
X2061D01*
X2044D01*
Y642D01*
X6709Y998D02*
X6675D01*
Y972D01*
X6692D01*
X6675D01*
Y947D01*
X6709Y921D02*
X6675D01*
Y896D01*
X6692D01*
X6675D01*
Y871D01*
X7302Y5958D02*
X7268D01*
Y5932D01*
X7285D01*
X7268D01*
Y5907D01*
X3543Y5753D02*
X3509D01*
Y5728D01*
X3526D01*
X3509D01*
Y5702D01*
X3619Y5753D02*
X3585D01*
Y5728D01*
X3602D01*
X3585D01*
Y5702D01*
X7356Y6202D02*
X7322D01*
Y6177D01*
X7339D01*
X7322D01*
Y6152D01*
X7279Y6202D02*
X7246D01*
Y6177D01*
X7262D01*
X7246D01*
Y6152D01*
X7069Y6135D02*
X7036D01*
Y6109D01*
X7053D01*
X7036D01*
Y6084D01*
X7146Y6134D02*
X7112D01*
Y6109D01*
X7129D01*
X7112D01*
Y6083D01*
X3543Y6325D02*
X3509D01*
Y6299D01*
X3526D01*
X3509D01*
Y6274D01*
X3619Y6325D02*
X3585D01*
Y6299D01*
X3602D01*
X3585D01*
Y6274D01*
X3663Y6413D02*
X3629D01*
Y6388D01*
X3646D01*
X3629D01*
Y6363D01*
X3739Y6413D02*
X3705D01*
Y6388D01*
X3722D01*
X3705D01*
Y6363D01*
X7075Y6472D02*
X7042D01*
Y6446D01*
X7059D01*
X7042D01*
Y6421D01*
X6999Y6472D02*
X6965D01*
Y6446D01*
X6982D01*
X6965D01*
Y6421D01*
X7743Y5593D02*
X7709D01*
Y5568D01*
X7726D01*
X7709D01*
Y5542D01*
X7743Y5517D02*
X7709D01*
Y5491D01*
X7726D01*
X7709D01*
Y5466D01*
X5951Y7215D02*
X5917D01*
Y7190D01*
X5934D01*
X5917D01*
Y7165D01*
X5951Y7139D02*
X5917D01*
Y7114D01*
X5934D01*
X5917D01*
Y7088D01*
X6531Y2751D02*
X6497D01*
Y2725D01*
X6514D01*
X6497D01*
Y2700D01*
X1961Y6439D02*
X1927D01*
Y6413D01*
X1944D01*
X1927D01*
Y6388D01*
X7619Y2143D02*
X7585D01*
Y2117D01*
X7602D01*
X7585D01*
Y2092D01*
X2874Y6007D02*
X2840D01*
Y5982D01*
X2857D01*
X2840D01*
Y5956D01*
X2851Y6111D02*
X2817D01*
Y6086D01*
X2834D01*
X2817D01*
Y6060D01*
X7116Y4110D02*
X7082D01*
Y4085D01*
X7099D01*
X7082D01*
Y4059D01*
X6841Y4115D02*
X6807D01*
Y4089D01*
X6824D01*
X6807D01*
Y4064D01*
X6657Y4109D02*
X6624D01*
Y4084D01*
X6640D01*
X6624D01*
Y4059D01*
X6379Y4109D02*
X6345D01*
Y4084D01*
X6362D01*
X6345D01*
Y4059D01*
X3031Y5016D02*
X2997D01*
Y4991D01*
X3014D01*
X2997D01*
Y4966D01*
X3281Y6007D02*
X3247D01*
Y5982D01*
X3264D01*
X3247D01*
Y5956D01*
X3310Y6120D02*
X3276D01*
Y6095D01*
X3293D01*
X3276D01*
Y6070D01*
X3374Y6325D02*
X3340D01*
Y6299D01*
X3357D01*
X3340D01*
Y6274D01*
X3310Y5720D02*
X3276D01*
Y5694D01*
X3293D01*
X3276D01*
Y5669D01*
X3161Y5720D02*
X3127D01*
Y5694D01*
X3144D01*
X3127D01*
Y5669D01*
X3161Y5601D02*
X3127D01*
Y5575D01*
X3144D01*
X3127D01*
Y5550D01*
X3001Y5720D02*
X2967D01*
Y5694D01*
X2984D01*
X2967D01*
Y5669D01*
X3001Y5601D02*
X2967D01*
Y5575D01*
X2984D01*
X2967D01*
Y5550D01*
X364Y7760D02*
X330D01*
Y7734D01*
X347D01*
X330D01*
Y7709D01*
X161Y7556D02*
X127D01*
Y7531D01*
X144D01*
X127D01*
Y7506D01*
X377Y7976D02*
X343D01*
Y7950D01*
X360D01*
X343D01*
Y7925D01*
X135Y8090D02*
X101D01*
Y8064D01*
X118D01*
X101D01*
Y8039D01*
X2401Y6553D02*
X2367D01*
Y6528D01*
X2384D01*
X2367D01*
Y6502D01*
X2929Y6111D02*
X2895D01*
Y6086D01*
X2912D01*
X2895D01*
Y6060D01*
X8789Y11111D02*
X8755D01*
Y11085D01*
X8772D01*
X8755D01*
Y11060D01*
X8789Y11335D02*
X8755D01*
Y11310D01*
X8772D01*
X8755D01*
Y11285D01*
X9014Y11111D02*
X8980D01*
Y11085D01*
X8997D01*
X8980D01*
Y11060D01*
X9013Y11335D02*
X8979D01*
Y11310D01*
X8996D01*
X8979D01*
Y11285D01*
X8900Y11224D02*
X8866D01*
Y11198D01*
X8883D01*
X8866D01*
Y11173D01*
X7650Y921D02*
X7616D01*
Y896D01*
X7633D01*
X7616D01*
Y871D01*
X7650Y998D02*
X7616D01*
Y972D01*
X7633D01*
X7616D01*
Y947D01*
X4112Y13742D02*
X4078D01*
Y13716D01*
X4095D01*
X4078D01*
Y13691D01*
X3227Y11831D02*
X3193D01*
Y11806D01*
X3210D01*
X3193D01*
Y11780D01*
X3227Y12069D02*
X3193D01*
Y12043D01*
X3210D01*
X3193D01*
Y12018D01*
X3406Y11831D02*
X3372D01*
Y11806D01*
X3389D01*
X3372D01*
Y11780D01*
X3406Y12069D02*
X3372D01*
Y12043D01*
X3389D01*
X3372D01*
Y12018D01*
X3324Y11956D02*
X3290D01*
Y11931D01*
X3307D01*
X3290D01*
Y11905D01*
X4521Y5817D02*
X4487D01*
Y5791D01*
X4504D01*
X4487D01*
Y5766D01*
X4521Y5956D02*
X4487D01*
Y5931D01*
X4504D01*
X4487D01*
Y5905D01*
X4752Y5817D02*
X4718D01*
Y5791D01*
X4735D01*
X4718D01*
Y5766D01*
X4752Y5956D02*
X4718D01*
Y5931D01*
X4735D01*
X4718D01*
Y5905D01*
X4641Y5888D02*
X4607D01*
Y5862D01*
X4624D01*
X4607D01*
Y5837D01*
X7987Y10289D02*
X7954D01*
Y10264D01*
X7970D01*
X7954D01*
Y10239D01*
X5403Y10841D02*
X5369D01*
Y10816D01*
X5386D01*
X5369D01*
Y10790D01*
X3285Y8006D02*
X3251D01*
Y7981D01*
X3268D01*
X3251D01*
Y7955D01*
X3105Y8006D02*
X3072D01*
Y7981D01*
X3089D01*
X3072D01*
Y7955D01*
X3107Y8255D02*
X3073D01*
Y8230D01*
X3090D01*
X3073D01*
Y8204D01*
X3285Y8255D02*
X3251D01*
Y8230D01*
X3268D01*
X3251D01*
Y8204D01*
X3202Y8135D02*
X3169D01*
Y8110D01*
X3185D01*
X3169D01*
Y8084D01*
X1367Y10058D02*
X1333D01*
Y10033D01*
X1350D01*
X1333D01*
Y10008D01*
X1189Y10058D02*
X1155D01*
Y10033D01*
X1172D01*
X1155D01*
Y10008D01*
X1190Y10292D02*
X1156D01*
Y10267D01*
X1173D01*
X1156D01*
Y10241D01*
X1367Y10292D02*
X1333D01*
Y10267D01*
X1350D01*
X1333D01*
Y10241D01*
X1283Y10180D02*
X1249D01*
Y10154D01*
X1266D01*
X1249D01*
Y10129D01*
X8035Y7629D02*
X8001D01*
Y7603D01*
X8018D01*
X8001D01*
Y7578D01*
X8035Y7705D02*
X8001D01*
Y7680D01*
X8018D01*
X8001D01*
Y7654D01*
X8225Y7595D02*
X8191D01*
Y7569D01*
X8208D01*
X8191D01*
Y7544D01*
X5951Y7977D02*
X5917D01*
Y7952D01*
X5934D01*
X5917D01*
Y7927D01*
X5951Y7901D02*
X5917D01*
Y7876D01*
X5934D01*
X5917D01*
Y7850D01*
X7284Y5468D02*
X7250D01*
Y5443D01*
X7267D01*
X7250D01*
Y5417D01*
X7284Y5544D02*
X7250D01*
Y5519D01*
X7267D01*
X7250D01*
Y5494D01*
X5951Y7749D02*
X5917D01*
Y7723D01*
X5934D01*
X5917D01*
Y7698D01*
X5951Y7825D02*
X5917D01*
Y7800D01*
X5934D01*
X5917D01*
Y7774D01*
X5951Y7063D02*
X5917D01*
Y7038D01*
X5934D01*
X5917D01*
Y7012D01*
X5951Y6987D02*
X5917D01*
Y6961D01*
X5934D01*
X5917D01*
Y6936D01*
X8035Y6943D02*
X8001D01*
Y6918D01*
X8018D01*
X8001D01*
Y6892D01*
X8035Y6867D02*
X8001D01*
Y6841D01*
X8018D01*
X8001D01*
Y6816D01*
X8035Y7324D02*
X8001D01*
Y7299D01*
X8018D01*
X8001D01*
Y7273D01*
X8035Y7248D02*
X8001D01*
Y7222D01*
X8018D01*
X8001D01*
Y7197D01*
X8035Y8010D02*
X8001D01*
Y7984D01*
X8018D01*
X8001D01*
Y7959D01*
X8035Y8086D02*
X8001D01*
Y8061D01*
X8018D01*
X8001D01*
Y8035D01*
X8593Y998D02*
X8559D01*
Y972D01*
X8576D01*
X8559D01*
Y947D01*
X2358Y593D02*
X2324D01*
Y568D01*
X2341D01*
X2324D01*
Y542D01*
X8593Y921D02*
X8559D01*
Y896D01*
X8576D01*
X8559D01*
Y871D01*
X2358Y669D02*
X2324D01*
Y644D01*
X2341D01*
X2324D01*
Y618D01*
X4806Y921D02*
X4772D01*
Y896D01*
X4789D01*
X4772D01*
Y871D01*
X4806Y998D02*
X4772D01*
Y972D01*
X4789D01*
X4772D01*
Y947D01*
X2670Y1460D02*
X2636D01*
Y1435D01*
X2653D01*
X2636D01*
Y1410D01*
X3857Y1002D02*
X3823D01*
Y976D01*
X3840D01*
X3823D01*
Y951D01*
X3857Y926D02*
X3823D01*
Y900D01*
X3840D01*
X3823D01*
Y875D01*
X2375Y919D02*
X2341D01*
Y894D01*
X2358D01*
X2341D01*
Y868D01*
X2375Y843D02*
X2341D01*
Y818D01*
X2358D01*
X2341D01*
Y792D01*
X1766Y1245D02*
X1733D01*
Y1219D01*
X1749D01*
X1733D01*
Y1194D01*
X1690Y1245D02*
X1656D01*
Y1219D01*
X1673D01*
X1656D01*
Y1194D01*
X1434Y965D02*
X1400D01*
Y940D01*
X1417D01*
X1400D01*
Y914D01*
X1510Y965D02*
X1476D01*
Y940D01*
X1493D01*
X1476D01*
Y914D01*
X1790Y1537D02*
X1756D01*
Y1511D01*
X1773D01*
X1756D01*
Y1486D01*
X1866Y1537D02*
X1833D01*
Y1511D01*
X1849D01*
X1833D01*
Y1486D01*
X2366Y756D02*
X2332D01*
Y731D01*
X2349D01*
X2332D01*
Y705D01*
X2053Y902D02*
X2019D01*
Y876D01*
X2036D01*
X2019D01*
Y851D01*
X2193Y1185D02*
X2159D01*
Y1160D01*
X2176D01*
X2159D01*
Y1134D01*
X2383Y1059D02*
X2349D01*
Y1034D01*
X2366D01*
X2349D01*
Y1009D01*
X2078Y1181D02*
X2044D01*
Y1156D01*
X2061D01*
X2044D01*
Y1130D01*
X2071Y1092D02*
X2037D01*
Y1067D01*
X2054D01*
X2037D01*
Y1041D01*
X2802Y267D02*
X2768D01*
Y241D01*
X2785D01*
X2768D01*
Y216D01*
X2675Y267D02*
X2641D01*
Y241D01*
X2658D01*
X2641D01*
Y216D01*
X2702Y547D02*
X2668D01*
Y521D01*
X2685D01*
X2668D01*
Y496D01*
X2599Y543D02*
X2565D01*
Y517D01*
X2582D01*
X2565D01*
Y492D01*
X2586Y267D02*
X2552D01*
Y241D01*
X2569D01*
X2552D01*
Y216D01*
X2510Y267D02*
X2476D01*
Y241D01*
X2493D01*
X2476D01*
Y216D01*
X2472Y533D02*
X2438D01*
Y508D01*
X2455D01*
X2438D01*
Y483D01*
X2078Y432D02*
X2044D01*
Y406D01*
X2061D01*
X2044D01*
Y381D01*
X2078Y559D02*
X2044D01*
Y533D01*
X2061D01*
X2044D01*
Y508D01*
X2345Y1384D02*
X2311D01*
Y1359D01*
X2328D01*
X2311D01*
Y1333D01*
X2523Y1384D02*
X2489D01*
Y1359D01*
X2506D01*
X2489D01*
Y1333D01*
X2650Y903D02*
X2616D01*
Y878D01*
X2633D01*
X2616D01*
Y853D01*
X2571Y1117D02*
X2538D01*
Y1092D01*
X2554D01*
X2538D01*
Y1067D01*
X2925Y966D02*
X2891D01*
Y940D01*
X2908D01*
X2891D01*
Y915D01*
X2779Y1114D02*
X2745D01*
Y1088D01*
X2762D01*
X2745D01*
Y1063D01*
X3285Y630D02*
X3251D01*
Y604D01*
X3268D01*
X3251D01*
Y579D01*
X3285Y762D02*
X3251D01*
Y737D01*
X3268D01*
X3251D01*
Y711D01*
X3298Y906D02*
X3264D01*
Y881D01*
X3281D01*
X3264D01*
Y855D01*
X3195Y787D02*
X3162D01*
Y762D01*
X3179D01*
X3162D01*
Y737D01*
X2925Y666D02*
X2891D01*
Y641D01*
X2908D01*
X2891D01*
Y616D01*
X2925Y800D02*
X2891D01*
Y775D01*
X2908D01*
X2891D01*
Y749D01*
X1896Y920D02*
X1862D01*
Y894D01*
X1879D01*
X1862D01*
Y869D01*
X1380Y670D02*
X1346D01*
Y644D01*
X1363D01*
X1346D01*
Y619D01*
X1566Y673D02*
X1532D01*
Y648D01*
X1549D01*
X1532D01*
Y622D01*
X1037Y1511D02*
X1003D01*
Y1486D01*
X1020D01*
X1003D01*
Y1460D01*
X1268Y1245D02*
X1234D01*
Y1219D01*
X1251D01*
X1234D01*
Y1194D01*
X1268Y1658D02*
X1234D01*
Y1633D01*
X1251D01*
X1234D01*
Y1607D01*
X2049Y1448D02*
X2015D01*
Y1422D01*
X2032D01*
X2015D01*
Y1397D01*
X1958Y2210D02*
X1924D01*
Y2184D01*
X1941D01*
X1924D01*
Y2159D01*
X1761Y2134D02*
X1727D01*
Y2108D01*
X1744D01*
X1727D01*
Y2083D01*
X1903Y1251D02*
X1869D01*
Y1226D01*
X1886D01*
X1869D01*
Y1200D01*
X2993Y1994D02*
X2959D01*
Y1968D01*
X2976D01*
X2959D01*
Y1943D01*
X2811Y2076D02*
X2777D01*
Y2050D01*
X2794D01*
X2777D01*
Y2025D01*
X5767Y998D02*
X5733D01*
Y972D01*
X5750D01*
X5733D01*
Y947D01*
X8720Y880D02*
X8686D01*
Y855D01*
X8703D01*
X8686D01*
Y830D01*
X7777Y880D02*
X7743D01*
Y855D01*
X7760D01*
X7743D01*
Y830D01*
X6836Y880D02*
X6802D01*
Y855D01*
X6819D01*
X6802D01*
Y830D01*
X5894Y880D02*
X5860D01*
Y855D01*
X5877D01*
X5860D01*
Y830D01*
X5767Y921D02*
X5733D01*
Y896D01*
X5750D01*
X5733D01*
Y871D01*
X4933Y880D02*
X4899D01*
Y855D01*
X4916D01*
X4899D01*
Y830D01*
X3984Y884D02*
X3950D01*
Y859D01*
X3967D01*
X3950D01*
Y834D01*
X3761Y2730D02*
X3727D01*
Y2705D01*
X3744D01*
X3727D01*
Y2680D01*
X1841Y2422D02*
X1807D01*
Y2397D01*
X1824D01*
X1807D01*
Y2372D01*
X1961Y2422D02*
X1927D01*
Y2397D01*
X1944D01*
X1927D01*
Y2372D01*
X2081Y2422D02*
X2047D01*
Y2397D01*
X2064D01*
X2047D01*
Y2372D01*
X2201Y2422D02*
X2167D01*
Y2397D01*
X2184D01*
X2167D01*
Y2372D01*
X2321Y2422D02*
X2287D01*
Y2397D01*
X2304D01*
X2287D01*
Y2372D01*
X2441Y2422D02*
X2407D01*
Y2397D01*
X2424D01*
X2407D01*
Y2372D01*
X2681Y2422D02*
X2647D01*
Y2397D01*
X2664D01*
X2647D01*
Y2372D01*
X2921Y2422D02*
X2887D01*
Y2397D01*
X2904D01*
X2887D01*
Y2372D01*
X3041Y2422D02*
X3007D01*
Y2397D01*
X3024D01*
X3007D01*
Y2372D01*
X3161Y2422D02*
X3127D01*
Y2397D01*
X3144D01*
X3127D01*
Y2372D01*
X3281Y2422D02*
X3247D01*
Y2397D01*
X3264D01*
X3247D01*
Y2372D01*
X3401Y2422D02*
X3367D01*
Y2397D01*
X3384D01*
X3367D01*
Y2372D01*
X3521Y2422D02*
X3487D01*
Y2397D01*
X3504D01*
X3487D01*
Y2372D01*
X3641Y2422D02*
X3607D01*
Y2397D01*
X3624D01*
X3607D01*
Y2372D01*
X3641Y2730D02*
X3607D01*
Y2705D01*
X3624D01*
X3607D01*
Y2680D01*
X3521Y2730D02*
X3487D01*
Y2705D01*
X3504D01*
X3487D01*
Y2680D01*
X3401Y2730D02*
X3367D01*
Y2705D01*
X3384D01*
X3367D01*
Y2680D01*
X3281Y2730D02*
X3247D01*
Y2705D01*
X3264D01*
X3247D01*
Y2680D01*
X3161Y2730D02*
X3127D01*
Y2705D01*
X3144D01*
X3127D01*
Y2680D01*
X3041Y2730D02*
X3007D01*
Y2705D01*
X3024D01*
X3007D01*
Y2680D01*
X2681Y2730D02*
X2647D01*
Y2705D01*
X2664D01*
X2647D01*
Y2680D01*
X2561Y2730D02*
X2527D01*
Y2705D01*
X2544D01*
X2527D01*
Y2680D01*
X2441Y2730D02*
X2407D01*
Y2705D01*
X2424D01*
X2407D01*
Y2680D01*
X2321Y2730D02*
X2287D01*
Y2705D01*
X2304D01*
X2287D01*
Y2680D01*
X2201Y2730D02*
X2167D01*
Y2705D01*
X2184D01*
X2167D01*
Y2680D01*
X2081Y2730D02*
X2047D01*
Y2705D01*
X2064D01*
X2047D01*
Y2680D01*
X1961Y2730D02*
X1927D01*
Y2705D01*
X1944D01*
X1927D01*
Y2680D01*
X1841Y2730D02*
X1807D01*
Y2705D01*
X1824D01*
X1807D01*
Y2680D01*
X4021Y3696D02*
X3988D01*
Y3670D01*
X4004D01*
X3988D01*
Y3645D01*
X4466Y3696D02*
X4432D01*
Y3670D01*
X4449D01*
X4432D01*
Y3645D01*
X4237Y3696D02*
X4203D01*
Y3670D01*
X4220D01*
X4203D01*
Y3645D01*
X4466Y4331D02*
X4432D01*
Y4305D01*
X4449D01*
X4432D01*
Y4280D01*
X4263Y4331D02*
X4229D01*
Y4305D01*
X4246D01*
X4229D01*
Y4280D01*
X4034Y4331D02*
X4000D01*
Y4305D01*
X4017D01*
X4000D01*
Y4280D01*
X5551Y4267D02*
X5517D01*
Y4242D01*
X5534D01*
X5517D01*
Y4216D01*
X5551Y3887D02*
X5517D01*
Y3862D01*
X5534D01*
X5517D01*
Y3836D01*
X5342Y3658D02*
X5308D01*
Y3632D01*
X5325D01*
X5308D01*
Y3607D01*
X3145Y3658D02*
X3111D01*
Y3632D01*
X3128D01*
X3111D01*
Y3607D01*
X389Y3594D02*
X355D01*
Y3569D01*
X372D01*
X355D01*
Y3543D01*
X389Y3302D02*
X355D01*
Y3277D01*
X372D01*
X355D01*
Y3251D01*
X472Y3652D02*
X438D01*
Y3626D01*
X455D01*
X438D01*
Y3601D01*
X465Y4369D02*
X431D01*
Y4343D01*
X448D01*
X431D01*
Y4318D01*
X478Y4242D02*
X444D01*
Y4216D01*
X461D01*
X444D01*
Y4191D01*
X2430Y3454D02*
X2396D01*
Y3429D01*
X2413D01*
X2396D01*
Y3404D01*
X2434Y3848D02*
X2400D01*
Y3823D01*
X2417D01*
X2400D01*
Y3797D01*
X2428Y4051D02*
X2394D01*
Y4026D01*
X2411D01*
X2394D01*
Y4000D01*
X2434Y4254D02*
X2400D01*
Y4229D01*
X2417D01*
X2400D01*
Y4204D01*
X2434Y4458D02*
X2400D01*
Y4432D01*
X2417D01*
X2400D01*
Y4407D01*
X2434Y4648D02*
X2400D01*
Y4623D01*
X2417D01*
X2400D01*
Y4597D01*
X2434Y4851D02*
X2400D01*
Y4826D01*
X2417D01*
X2400D01*
Y4801D01*
X2281Y6021D02*
X2247D01*
Y5996D01*
X2264D01*
X2247D01*
Y5970D01*
X2681Y6553D02*
X2647D01*
Y6528D01*
X2664D01*
X2647D01*
Y6502D01*
X2841Y6553D02*
X2807D01*
Y6528D01*
X2824D01*
X2807D01*
Y6502D01*
X3001Y5828D02*
X2967D01*
Y5803D01*
X2984D01*
X2967D01*
Y5778D01*
X3051Y6020D02*
X3017D01*
Y5994D01*
X3034D01*
X3017D01*
Y5969D01*
X3161Y5828D02*
X3127D01*
Y5803D01*
X3144D01*
X3127D01*
Y5778D01*
X3361Y5828D02*
X3327D01*
Y5803D01*
X3344D01*
X3327D01*
Y5778D01*
X3521Y6007D02*
X3487D01*
Y5982D01*
X3504D01*
X3487D01*
Y5956D01*
X3761Y6007D02*
X3727D01*
Y5982D01*
X3744D01*
X3727D01*
Y5956D01*
X3641Y6007D02*
X3607D01*
Y5982D01*
X3624D01*
X3607D01*
Y5956D01*
X3755Y6134D02*
X3721D01*
Y6109D01*
X3738D01*
X3721D01*
Y6083D01*
X3641Y6134D02*
X3607D01*
Y6109D01*
X3624D01*
X3607D01*
Y6083D01*
X3521Y6134D02*
X3487D01*
Y6109D01*
X3504D01*
X3487D01*
Y6083D01*
X3281Y6325D02*
X3247D01*
Y6299D01*
X3264D01*
X3247D01*
Y6274D01*
X2841Y6439D02*
X2807D01*
Y6413D01*
X2824D01*
X2807D01*
Y6388D01*
X2841Y6325D02*
X2807D01*
Y6299D01*
X2824D01*
X2807D01*
Y6274D01*
X2681Y6439D02*
X2647D01*
Y6413D01*
X2664D01*
X2647D01*
Y6388D01*
X2681Y6325D02*
X2647D01*
Y6299D01*
X2664D01*
X2647D01*
Y6274D01*
X2601Y6134D02*
X2567D01*
Y6109D01*
X2584D01*
X2567D01*
Y6083D01*
X2561Y6325D02*
X2527D01*
Y6299D01*
X2544D01*
X2527D01*
Y6274D01*
X2401Y6439D02*
X2367D01*
Y6413D01*
X2384D01*
X2367D01*
Y6388D01*
X2401Y6325D02*
X2367D01*
Y6299D01*
X2384D01*
X2367D01*
Y6274D01*
X2201Y6325D02*
X2167D01*
Y6299D01*
X2184D01*
X2167D01*
Y6274D01*
X2071Y6325D02*
X2037D01*
Y6299D01*
X2054D01*
X2037D01*
Y6274D01*
X961Y6087D02*
X927D01*
Y6061D01*
X944D01*
X927D01*
Y6036D01*
X1050Y5890D02*
X1016D01*
Y5865D01*
X1033D01*
X1016D01*
Y5839D01*
X1266Y6220D02*
X1232D01*
Y6195D01*
X1249D01*
X1232D01*
Y6170D01*
X1165Y6286D02*
X1132D01*
Y6261D01*
X1148D01*
X1132D01*
Y6236D01*
X2388Y5537D02*
X2355D01*
Y5512D01*
X2371D01*
X2355D01*
Y5486D01*
X1871Y6032D02*
X1837D01*
Y6007D01*
X1854D01*
X1837D01*
Y5982D01*
X2031Y5817D02*
X1997D01*
Y5791D01*
X2014D01*
X1997D01*
Y5766D01*
X1961Y6032D02*
X1927D01*
Y6007D01*
X1944D01*
X1927D01*
Y5982D01*
X1841Y5718D02*
X1807D01*
Y5693D01*
X1824D01*
X1807D01*
Y5668D01*
X1841Y5817D02*
X1807D01*
Y5791D01*
X1824D01*
X1807D01*
Y5766D01*
X1386Y5797D02*
X1352D01*
Y5772D01*
X1369D01*
X1352D01*
Y5747D01*
X1608Y5952D02*
X1575D01*
Y5926D01*
X1591D01*
X1575D01*
Y5901D01*
X2764Y5143D02*
X2730D01*
Y5118D01*
X2747D01*
X2730D01*
Y5093D01*
X3577Y5016D02*
X3543D01*
Y4991D01*
X3560D01*
X3543D01*
Y4966D01*
X3298Y5149D02*
X3264D01*
Y5124D01*
X3281D01*
X3264D01*
Y5098D01*
X4368Y2303D02*
X4335D01*
Y2277D01*
X4351D01*
X4335D01*
Y2252D01*
X4250Y1910D02*
X4216D01*
Y1885D01*
X4233D01*
X4216D01*
Y1859D01*
X4250Y1826D02*
X4216D01*
Y1801D01*
X4233D01*
X4216D01*
Y1776D01*
X5228Y2248D02*
X5194D01*
Y2222D01*
X5211D01*
X5194D01*
Y2197D01*
X5228Y1880D02*
X5194D01*
Y1854D01*
X5211D01*
X5194D01*
Y1829D01*
X5006Y2159D02*
X4972D01*
Y2133D01*
X4989D01*
X4972D01*
Y2108D01*
X5012Y2063D02*
X4978D01*
Y2038D01*
X4995D01*
X4978D01*
Y2012D01*
X5914Y2007D02*
X5880D01*
Y1981D01*
X5897D01*
X5880D01*
Y1956D01*
X6023Y2388D02*
X5989D01*
Y2362D01*
X6006D01*
X5989D01*
Y2337D01*
X6663Y2256D02*
X6629D01*
Y2230D01*
X6646D01*
X6629D01*
Y2205D01*
X6663Y2161D02*
X6629D01*
Y2135D01*
X6646D01*
X6629D01*
Y2110D01*
X6873Y1968D02*
X6839D01*
Y1943D01*
X6856D01*
X6839D01*
Y1918D01*
X6740Y1968D02*
X6706D01*
Y1943D01*
X6723D01*
X6706D01*
Y1918D01*
X6740Y2285D02*
X6706D01*
Y2260D01*
X6723D01*
X6706D01*
Y2234D01*
X6873Y2311D02*
X6839D01*
Y2286D01*
X6856D01*
X6839D01*
Y2261D01*
X7006Y2261D02*
X6972D01*
Y2235D01*
X6989D01*
X6972D01*
Y2210D01*
X7147Y2261D02*
X7113D01*
Y2235D01*
X7130D01*
X7113D01*
Y2210D01*
X7285Y2261D02*
X7251D01*
Y2235D01*
X7268D01*
X7251D01*
Y2210D01*
X7285Y2397D02*
X7251D01*
Y2371D01*
X7268D01*
X7251D01*
Y2346D01*
X4034Y1994D02*
X4000D01*
Y1969D01*
X4017D01*
X4000D01*
Y1944D01*
X4034Y2193D02*
X4000D01*
Y2167D01*
X4017D01*
X4000D01*
Y2142D01*
X4034Y2089D02*
X4000D01*
Y2064D01*
X4017D01*
X4000D01*
Y2039D01*
X5481Y2184D02*
X5447D01*
Y2159D01*
X5464D01*
X5447D01*
Y2134D01*
X5481Y1986D02*
X5447D01*
Y1960D01*
X5464D01*
X5447D01*
Y1935D01*
X5481Y2089D02*
X5447D01*
Y2064D01*
X5464D01*
X5447D01*
Y2039D01*
X8349Y1986D02*
X8315D01*
Y1960D01*
X8332D01*
X8315D01*
Y1935D01*
X8349Y2089D02*
X8315D01*
Y2064D01*
X8332D01*
X8315D01*
Y2039D01*
X7538Y3515D02*
X7504D01*
Y3490D01*
X7521D01*
X7504D01*
Y3464D01*
X7519Y2675D02*
X7485D01*
Y2649D01*
X7502D01*
X7485D01*
Y2624D01*
X8294Y2578D02*
X8260D01*
Y2553D01*
X8277D01*
X8260D01*
Y2527D01*
X8274Y3421D02*
X8240D01*
Y3396D01*
X8257D01*
X8240D01*
Y3371D01*
X8273Y2944D02*
X8240D01*
Y2918D01*
X8256D01*
X8240D01*
Y2893D01*
X7285Y2997D02*
X7251D01*
Y2972D01*
X7268D01*
X7251D01*
Y2946D01*
X7286Y3122D02*
X7252D01*
Y3097D01*
X7269D01*
X7252D01*
Y3072D01*
X6531Y2664D02*
X6497D01*
Y2638D01*
X6514D01*
X6497D01*
Y2613D01*
X6688Y3486D02*
X6655D01*
Y3461D01*
X6671D01*
X6655D01*
Y3435D01*
X7108Y3487D02*
X7074D01*
Y3462D01*
X7091D01*
X7074D01*
Y3437D01*
X7117Y3122D02*
X7083D01*
Y3097D01*
X7100D01*
X7083D01*
Y3072D01*
X8157Y4641D02*
X8123D01*
Y4615D01*
X8140D01*
X8123D01*
Y4590D01*
X5998Y6365D02*
X5964D01*
Y6340D01*
X5981D01*
X5964D01*
Y6314D01*
X5782Y6383D02*
X5748D01*
Y6358D01*
X5765D01*
X5748D01*
Y6332D01*
X6186Y6041D02*
X6152D01*
Y6016D01*
X6169D01*
X6152D01*
Y5991D01*
X5863Y5806D02*
X5829D01*
Y5780D01*
X5846D01*
X5829D01*
Y5755D01*
X5863Y5935D02*
X5829D01*
Y5910D01*
X5846D01*
X5829D01*
Y5884D01*
X5863Y6055D02*
X5829D01*
Y6030D01*
X5846D01*
X5829D01*
Y6004D01*
X6108Y6135D02*
X6074D01*
Y6110D01*
X6091D01*
X6074D01*
Y6084D01*
X5868Y6175D02*
X5834D01*
Y6149D01*
X5851D01*
X5834D01*
Y6124D01*
X6757Y5996D02*
X6724D01*
Y5971D01*
X6740D01*
X6724D01*
Y5945D01*
X6775Y6201D02*
X6741D01*
Y6176D01*
X6758D01*
X6741D01*
Y6151D01*
X6703Y6455D02*
X6670D01*
Y6430D01*
X6687D01*
X6670D01*
Y6405D01*
X6673Y6201D02*
X6640D01*
Y6176D01*
X6657D01*
X6640D01*
Y6151D01*
X6428Y6450D02*
X6395D01*
Y6424D01*
X6412D01*
X6395D01*
Y6399D01*
X6187Y6451D02*
X6154D01*
Y6426D01*
X6171D01*
X6154D01*
Y6401D01*
X6739Y6637D02*
X6705D01*
Y6612D01*
X6722D01*
X6705D01*
Y6586D01*
X6306Y6454D02*
X6272D01*
Y6428D01*
X6289D01*
X6272D01*
Y6403D01*
X6498Y6208D02*
X6464D01*
Y6182D01*
X6481D01*
X6464D01*
Y6157D01*
X6579Y6455D02*
X6545D01*
Y6430D01*
X6562D01*
X6545D01*
Y6405D01*
X6857Y6455D02*
X6824D01*
Y6430D01*
X6840D01*
X6824D01*
Y6405D01*
X6869Y6201D02*
X6835D01*
Y6176D01*
X6852D01*
X6835D01*
Y6151D01*
X6977Y6203D02*
X6944D01*
Y6178D01*
X6960D01*
X6944D01*
Y6152D01*
X7136Y6518D02*
X7103D01*
Y6492D01*
X7120D01*
X7103D01*
Y6467D01*
X6537Y5324D02*
X6504D01*
Y5298D01*
X6520D01*
X6504D01*
Y5273D01*
X6537Y5555D02*
X6504D01*
Y5530D01*
X6520D01*
X6504D01*
Y5504D01*
X6537Y5786D02*
X6504D01*
Y5761D01*
X6520D01*
X6504D01*
Y5736D01*
X6757Y5786D02*
X6724D01*
Y5761D01*
X6740D01*
X6724D01*
Y5736D01*
X6757Y5324D02*
X6724D01*
Y5298D01*
X6740D01*
X6724D01*
Y5273D01*
X6977Y5324D02*
X6944D01*
Y5298D01*
X6960D01*
X6944D01*
Y5273D01*
X6977Y5555D02*
X6944D01*
Y5530D01*
X6960D01*
X6944D01*
Y5504D01*
X6977Y5786D02*
X6944D01*
Y5761D01*
X6960D01*
X6944D01*
Y5736D01*
X6757Y5555D02*
X6724D01*
Y5530D01*
X6740D01*
X6724D01*
Y5504D01*
X7404Y5544D02*
X7370D01*
Y5519D01*
X7387D01*
X7370D01*
Y5494D01*
X7396Y4997D02*
X7362D01*
Y4971D01*
X7379D01*
X7362D01*
Y4946D01*
X7308Y4917D02*
X7274D01*
Y4892D01*
X7291D01*
X7274D01*
Y4867D01*
X7232Y4917D02*
X7198D01*
Y4892D01*
X7215D01*
X7198D01*
Y4867D01*
X7142Y4914D02*
X7108D01*
Y4888D01*
X7125D01*
X7108D01*
Y4863D01*
X7650Y5473D02*
X7616D01*
Y5448D01*
X7633D01*
X7616D01*
Y5422D01*
X7206Y5653D02*
X7172D01*
Y5628D01*
X7189D01*
X7172D01*
Y5603D01*
X7206Y5577D02*
X7172D01*
Y5552D01*
X7189D01*
X7172D01*
Y5526D01*
X7269Y5716D02*
X7235D01*
Y5691D01*
X7252D01*
X7235D01*
Y5666D01*
X7367Y5720D02*
X7333D01*
Y5695D01*
X7350D01*
X7333D01*
Y5669D01*
X7903Y5756D02*
X7869D01*
Y5731D01*
X7886D01*
X7869D01*
Y5706D01*
X7895Y5256D02*
X7861D01*
Y5231D01*
X7878D01*
X7861D01*
Y5205D01*
X6576Y7095D02*
X6543D01*
Y7070D01*
X6559D01*
X6543D01*
Y7045D01*
X6244Y7473D02*
X6210D01*
Y7447D01*
X6227D01*
X6210D01*
Y7422D01*
X6561Y7859D02*
X6528D01*
Y7834D01*
X6544D01*
X6528D01*
Y7808D01*
X6238Y8238D02*
X6204D01*
Y8213D01*
X6221D01*
X6204D01*
Y8188D01*
X4222Y9959D02*
X4188D01*
Y9934D01*
X4205D01*
X4188D01*
Y9908D01*
X4047Y10345D02*
X4013D01*
Y10320D01*
X4030D01*
X4013D01*
Y10295D01*
X3966Y10022D02*
X3932D01*
Y9997D01*
X3949D01*
X3932D01*
Y9971D01*
X4949Y10173D02*
X4915D01*
Y10147D01*
X4932D01*
X4915D01*
Y10122D01*
X5164Y6298D02*
X5131D01*
Y6272D01*
X5147D01*
X5131D01*
Y6247D01*
X5076Y5486D02*
X5042D01*
Y5461D01*
X5059D01*
X5042D01*
Y5436D01*
X5076Y5383D02*
X5042D01*
Y5357D01*
X5059D01*
X5042D01*
Y5332D01*
X5076Y5286D02*
X5042D01*
Y5261D01*
X5059D01*
X5042D01*
Y5235D01*
X5177Y5486D02*
X5143D01*
Y5461D01*
X5160D01*
X5143D01*
Y5436D01*
X5177Y5383D02*
X5143D01*
Y5357D01*
X5160D01*
X5143D01*
Y5332D01*
X5177Y5286D02*
X5143D01*
Y5261D01*
X5160D01*
X5143D01*
Y5235D01*
X6384Y4928D02*
X6350D01*
Y4902D01*
X6367D01*
X6350D01*
Y4877D01*
X5851Y5404D02*
X5817D01*
Y5378D01*
X5834D01*
X5817D01*
Y5353D01*
X9242Y8932D02*
X9208D01*
Y8906D01*
X9225D01*
X9208D01*
Y8881D01*
X8988Y9302D02*
X8954D01*
Y9276D01*
X8971D01*
X8954D01*
Y9251D01*
X9242Y9608D02*
X9208D01*
Y9582D01*
X9225D01*
X9208D01*
Y9557D01*
X8988Y9978D02*
X8954D01*
Y9953D01*
X8971D01*
X8954D01*
Y9928D01*
X8316Y8064D02*
X8283D01*
Y8039D01*
X8300D01*
X8283D01*
Y8014D01*
X8317Y8445D02*
X8283D01*
Y8420D01*
X8300D01*
X8283D01*
Y8395D01*
X8316Y7302D02*
X8283D01*
Y7277D01*
X8299D01*
X8283D01*
Y7252D01*
X1854Y10011D02*
X1820D01*
Y9985D01*
X1837D01*
X1820D01*
Y9960D01*
X611Y8738D02*
X577D01*
Y8712D01*
X594D01*
X577D01*
Y8687D01*
X364Y7874D02*
X330D01*
Y7849D01*
X347D01*
X330D01*
Y7823D01*
X1088Y8975D02*
X1054D01*
Y8949D01*
X1071D01*
X1054D01*
Y8924D01*
X135Y8204D02*
X101D01*
Y8179D01*
X118D01*
X101D01*
Y8153D01*
X135Y7429D02*
X101D01*
Y7404D01*
X118D01*
X101D01*
Y7379D01*
X4326Y14033D02*
X4292D01*
Y14008D01*
X4309D01*
X4292D01*
Y13983D01*
X5997Y9094D02*
X5964D01*
Y9068D01*
X5980D01*
X5964D01*
Y9043D01*
X5101Y8915D02*
X5067D01*
Y8890D01*
X5084D01*
X5067D01*
Y8865D01*
X5188Y12522D02*
X5155D01*
Y12497D01*
X5171D01*
X5155D01*
Y12471D01*
X5571Y7916D02*
X5537D01*
Y7891D01*
X5554D01*
X5537D01*
Y7866D01*
X7436Y13128D02*
X7402D01*
Y13103D01*
X7419D01*
X7402D01*
Y13078D01*
X8644Y9601D02*
X8610D01*
Y9576D01*
X8627D01*
X8610D01*
Y9550D01*
X9571Y11409D02*
X9537D01*
Y11383D01*
X9554D01*
X9537D01*
Y11358D01*
X9571Y11305D02*
X9537D01*
Y11280D01*
X9554D01*
X9537D01*
Y11255D01*
X9571Y11201D02*
X9537D01*
Y11176D01*
X9554D01*
X9537D01*
Y11151D01*
X9571Y11097D02*
X9537D01*
Y11072D01*
X9554D01*
X9537D01*
Y11047D01*
X9000Y11582D02*
X8966D01*
Y11557D01*
X8983D01*
X8966D01*
Y11532D01*
X9013Y11768D02*
X8979D01*
Y11743D01*
X8996D01*
X8979D01*
Y11717D01*
X8735Y10570D02*
X8701D01*
Y10545D01*
X8718D01*
X8701D01*
Y10520D01*
X3456Y13870D02*
X3422D01*
Y13845D01*
X3439D01*
X3422D01*
Y13820D01*
X3844Y14268D02*
X3810D01*
Y14243D01*
X3827D01*
X3810D01*
Y14217D01*
X4491Y13767D02*
X4457D01*
Y13741D01*
X4474D01*
X4457D01*
Y13716D01*
X5749Y12789D02*
X5715D01*
Y12763D01*
X5732D01*
X5715D01*
Y12738D01*
X5749Y12878D02*
X5715D01*
Y12852D01*
X5732D01*
X5715D01*
Y12827D01*
X5650Y12789D02*
X5616D01*
Y12763D01*
X5633D01*
X5616D01*
Y12738D01*
X5558Y12789D02*
X5524D01*
Y12763D01*
X5541D01*
X5524D01*
Y12738D01*
X5558Y12878D02*
X5524D01*
Y12852D01*
X5541D01*
X5524D01*
Y12827D01*
X5650Y12877D02*
X5617D01*
Y12852D01*
X5634D01*
X5617D01*
Y12826D01*
X1080Y13339D02*
X1046D01*
Y13314D01*
X1063D01*
X1046D01*
Y13288D01*
X791Y13339D02*
X757D01*
Y13313D01*
X774D01*
X757D01*
Y13288D01*
X4491Y13864D02*
X4457D01*
Y13839D01*
X4474D01*
X4457D01*
Y13813D01*
X5605Y13936D02*
X5571D01*
Y13911D01*
X5588D01*
X5571D01*
Y13886D01*
X4555Y13144D02*
X4521D01*
Y13119D01*
X4538D01*
X4521D01*
Y13094D01*
X1363Y13339D02*
X1329D01*
Y13314D01*
X1346D01*
X1329D01*
Y13288D01*
X4237Y14046D02*
X4203D01*
Y14021D01*
X4220D01*
X4203D01*
Y13995D01*
X7590Y12598D02*
X7556D01*
Y12573D01*
X7573D01*
X7556D01*
Y12548D01*
X4413Y13717D02*
X4379D01*
Y13691D01*
X4396D01*
X4379D01*
Y13666D01*
X4111Y13348D02*
X4077D01*
Y13322D01*
X4094D01*
X4077D01*
Y13297D01*
X6238Y13144D02*
X6204D01*
Y13119D01*
X6221D01*
X6204D01*
Y13093D01*
X8987Y9608D02*
X8953D01*
Y9582D01*
X8970D01*
X8953D01*
Y9557D01*
X8988Y9195D02*
X8954D01*
Y9170D01*
X8971D01*
X8954D01*
Y9145D01*
X5482Y14237D02*
X5448D01*
Y14211D01*
X5465D01*
X5448D01*
Y14186D01*
X4695Y13906D02*
X4661D01*
Y13881D01*
X4678D01*
X4661D01*
Y13856D01*
X4923Y14061D02*
X4889D01*
Y14035D01*
X4906D01*
X4889D01*
Y14010D01*
X4781Y13661D02*
X4748D01*
Y13635D01*
X4765D01*
X4748D01*
Y13610D01*
X2434Y13090D02*
X2400D01*
Y13065D01*
X2417D01*
X2400D01*
Y13039D01*
X3933Y13449D02*
X3899D01*
Y13424D01*
X3916D01*
X3899D01*
Y13398D01*
X4085Y13462D02*
X4051D01*
Y13437D01*
X4068D01*
X4051D01*
Y13411D01*
X7281Y13340D02*
X7247D01*
Y13314D01*
X7264D01*
X7247D01*
Y13289D01*
X7281Y13448D02*
X7247D01*
Y13423D01*
X7264D01*
X7247D01*
Y13398D01*
X7184Y13449D02*
X7150D01*
Y13424D01*
X7167D01*
X7150D01*
Y13398D01*
X6559Y13269D02*
X6526D01*
Y13244D01*
X6543D01*
X6526D01*
Y13218D01*
X7781Y13856D02*
X7747D01*
Y13830D01*
X7764D01*
X7747D01*
Y13805D01*
X7425Y13741D02*
X7391D01*
Y13716D01*
X7408D01*
X7391D01*
Y13691D01*
X7436Y13323D02*
X7402D01*
Y13298D01*
X7419D01*
X7402D01*
Y13273D01*
X7436Y13231D02*
X7402D01*
Y13205D01*
X7419D01*
X7402D01*
Y13180D01*
X7281Y13210D02*
X7247D01*
Y13184D01*
X7264D01*
X7247D01*
Y13159D01*
X6561Y13373D02*
X6528D01*
Y13348D01*
X6544D01*
X6528D01*
Y13322D01*
X6561Y13462D02*
X6528D01*
Y13437D01*
X6544D01*
X6528D01*
Y13411D01*
X6460Y13462D02*
X6426D01*
Y13437D01*
X6443D01*
X6426D01*
Y13411D01*
X9242Y9978D02*
X9208D01*
Y9953D01*
X9225D01*
X9208D01*
Y9928D01*
X9242Y9302D02*
X9208D01*
Y9276D01*
X9225D01*
X9208D01*
Y9251D01*
X8943Y10587D02*
X8909D01*
Y10562D01*
X8926D01*
X8909D01*
Y10536D01*
X8742Y11570D02*
X8708D01*
Y11545D01*
X8725D01*
X8708D01*
Y11519D01*
X8742Y11768D02*
X8708D01*
Y11743D01*
X8725D01*
X8708D01*
Y11717D01*
X8212Y11709D02*
X8179D01*
Y11684D01*
X8195D01*
X8179D01*
Y11659D01*
X8212Y11405D02*
X8179D01*
Y11379D01*
X8195D01*
X8179D01*
Y11354D01*
X8212Y11255D02*
X8179D01*
Y11230D01*
X8195D01*
X8179D01*
Y11204D01*
X8212Y11094D02*
X8179D01*
Y11068D01*
X8195D01*
X8179D01*
Y11043D01*
X8211Y10603D02*
X8177D01*
Y10577D01*
X8194D01*
X8177D01*
Y10552D01*
X8212Y11557D02*
X8179D01*
Y11532D01*
X8195D01*
X8179D01*
Y11506D01*
X8212Y10770D02*
X8179D01*
Y10744D01*
X8195D01*
X8179D01*
Y10719D01*
X8758Y12522D02*
X8724D01*
Y12497D01*
X8741D01*
X8724D01*
Y12471D01*
X7768Y12328D02*
X7734D01*
Y12303D01*
X7751D01*
X7734D01*
Y12278D01*
X8466Y10566D02*
X8433D01*
Y10541D01*
X8449D01*
X8433D01*
Y10516D01*
X4225Y9309D02*
X4191D01*
Y9284D01*
X4208D01*
X4191D01*
Y9258D01*
X4339Y9233D02*
X4305D01*
Y9207D01*
X4322D01*
X4305D01*
Y9182D01*
X4433Y9233D02*
X4399D01*
Y9207D01*
X4416D01*
X4399D01*
Y9182D01*
X4529Y9233D02*
X4496D01*
Y9207D01*
X4512D01*
X4496D01*
Y9182D01*
X3365Y14237D02*
X3331D01*
Y14211D01*
X3348D01*
X3331D01*
Y14186D01*
X2688Y12929D02*
X2654D01*
Y12903D01*
X2671D01*
X2654D01*
Y12878D01*
X2685Y12835D02*
X2651D01*
Y12809D01*
X2668D01*
X2651D01*
Y12784D01*
X2685Y12751D02*
X2651D01*
Y12725D01*
X2668D01*
X2651D01*
Y12700D01*
X2688Y12649D02*
X2654D01*
Y12624D01*
X2671D01*
X2654D01*
Y12598D01*
X1747Y13097D02*
X1713D01*
Y13072D01*
X1730D01*
X1713D01*
Y13046D01*
X1962Y13095D02*
X1928D01*
Y13070D01*
X1945D01*
X1928D01*
Y13044D01*
X2180Y13092D02*
X2146D01*
Y13067D01*
X2163D01*
X2146D01*
Y13042D01*
X3456Y13561D02*
X3422D01*
Y13536D01*
X3439D01*
X3422D01*
Y13510D01*
X4269Y14275D02*
X4235D01*
Y14249D01*
X4252D01*
X4235D01*
Y14224D01*
X4043Y14364D02*
X4009D01*
Y14338D01*
X4026D01*
X4009D01*
Y14313D01*
X4604Y13449D02*
X4570D01*
Y13424D01*
X4587D01*
X4570D01*
Y13398D01*
X8900Y10871D02*
X8866D01*
Y10846D01*
X8883D01*
X8866D01*
Y10820D01*
X8643Y12217D02*
X8610D01*
Y12192D01*
X8627D01*
X8610D01*
Y12167D01*
X7768Y12230D02*
X7734D01*
Y12205D01*
X7751D01*
X7734D01*
Y12179D01*
X8886Y12819D02*
X8852D01*
Y12794D01*
X8869D01*
X8852D01*
Y12768D01*
X7641Y12814D02*
X7607D01*
Y12789D01*
X7624D01*
X7607D01*
Y12763D01*
X4352Y11264D02*
X4318D01*
Y11239D01*
X4335D01*
X4318D01*
Y11213D01*
X4453Y11265D02*
X4419D01*
Y11239D01*
X4436D01*
X4419D01*
Y11214D01*
X4555Y11265D02*
X4521D01*
Y11239D01*
X4538D01*
X4521D01*
Y11214D01*
X4352Y11156D02*
X4318D01*
Y11131D01*
X4335D01*
X4318D01*
Y11106D01*
X4453Y11157D02*
X4419D01*
Y11132D01*
X4436D01*
X4419D01*
Y11106D01*
X4555Y11157D02*
X4521D01*
Y11132D01*
X4538D01*
X4521D01*
Y11106D01*
X4555Y11048D02*
X4521D01*
Y11023D01*
X4538D01*
X4521D01*
Y10998D01*
X4123Y12168D02*
X4089D01*
Y12143D01*
X4106D01*
X4089D01*
Y12117D01*
X5939Y8903D02*
X5905D01*
Y8877D01*
X5922D01*
X5905D01*
Y8852D01*
X5584Y8792D02*
X5550D01*
Y8766D01*
X5567D01*
X5550D01*
Y8741D01*
X5088Y9311D02*
X5054D01*
Y9286D01*
X5071D01*
X5054D01*
Y9260D01*
X4758Y6998D02*
X4724D01*
Y6972D01*
X4741D01*
X4724D01*
Y6947D01*
X4897Y10566D02*
X4863D01*
Y10541D01*
X4880D01*
X4863D01*
Y10516D01*
X4872Y10477D02*
X4838D01*
Y10452D01*
X4855D01*
X4838D01*
Y10427D01*
X4875Y10389D02*
X4842D01*
Y10364D01*
X4859D01*
X4842D01*
Y10338D01*
X4698Y13449D02*
X4665D01*
Y13424D01*
X4682D01*
X4665D01*
Y13398D01*
X5037Y13386D02*
X5004D01*
Y13360D01*
X5020D01*
X5004D01*
Y13335D01*
X4847Y13386D02*
X4813D01*
Y13360D01*
X4830D01*
X4813D01*
Y13335D01*
X2383Y12072D02*
X2349D01*
Y12046D01*
X2366D01*
X2349D01*
Y12021D01*
X2383Y11963D02*
X2349D01*
Y11938D01*
X2366D01*
X2349D01*
Y11913D01*
X2383Y11863D02*
X2349D01*
Y11837D01*
X2366D01*
X2349D01*
Y11812D01*
X2282Y11863D02*
X2248D01*
Y11837D01*
X2265D01*
X2248D01*
Y11812D01*
X2282Y11963D02*
X2248D01*
Y11938D01*
X2265D01*
X2248D01*
Y11913D01*
X2282Y12072D02*
X2248D01*
Y12046D01*
X2265D01*
X2248D01*
Y12021D01*
X2180Y11862D02*
X2146D01*
Y11836D01*
X2163D01*
X2146D01*
Y11811D01*
X2180Y11963D02*
X2146D01*
Y11937D01*
X2163D01*
X2146D01*
Y11912D01*
X2180Y12071D02*
X2146D01*
Y12045D01*
X2163D01*
X2146D01*
Y12020D01*
X342Y10187D02*
X308D01*
Y10161D01*
X325D01*
X308D01*
Y10136D01*
X241Y10294D02*
X207D01*
Y10269D01*
X224D01*
X207D01*
Y10243D01*
X342Y10086D02*
X308D01*
Y10061D01*
X325D01*
X308D01*
Y10035D01*
X240Y10085D02*
X207D01*
Y10060D01*
X223D01*
X207D01*
Y10034D01*
X240Y10187D02*
X207D01*
Y10161D01*
X223D01*
X207D01*
Y10136D01*
X342Y10295D02*
X308D01*
Y10270D01*
X325D01*
X308D01*
Y10244D01*
X139Y10085D02*
X105D01*
Y10060D01*
X122D01*
X105D01*
Y10034D01*
X139Y10186D02*
X105D01*
Y10161D01*
X122D01*
X105D01*
Y10135D01*
X139Y10294D02*
X105D01*
Y10269D01*
X122D01*
X105D01*
Y10243D01*
X2059Y8250D02*
X2025D01*
Y8224D01*
X2042D01*
X2025D01*
Y8199D01*
X2059Y8142D02*
X2025D01*
Y8116D01*
X2042D01*
X2025D01*
Y8091D01*
X2059Y8041D02*
X2025D01*
Y8015D01*
X2042D01*
X2025D01*
Y7990D01*
X2160Y8251D02*
X2126D01*
Y8225D01*
X2143D01*
X2126D01*
Y8200D01*
X2160Y8142D02*
X2126D01*
Y8117D01*
X2143D01*
X2126D01*
Y8092D01*
X2160Y8042D02*
X2126D01*
Y8016D01*
X2143D01*
X2126D01*
Y7991D01*
X2262Y8042D02*
X2228D01*
Y8016D01*
X2245D01*
X2228D01*
Y7991D01*
X2262Y8142D02*
X2228D01*
Y8117D01*
X2245D01*
X2228D01*
Y8092D01*
X2262Y8251D02*
X2228D01*
Y8225D01*
X2245D01*
X2228D01*
Y8200D01*
X4441Y6439D02*
X4407D01*
Y6413D01*
X4424D01*
X4407D01*
Y6388D01*
X4537Y6439D02*
X4503D01*
Y6413D01*
X4520D01*
X4503D01*
Y6388D01*
X4641Y6439D02*
X4607D01*
Y6413D01*
X4624D01*
X4607D01*
Y6388D01*
X4641Y6540D02*
X4607D01*
Y6515D01*
X4624D01*
X4607D01*
Y6490D01*
X4537Y6540D02*
X4503D01*
Y6515D01*
X4520D01*
X4503D01*
Y6490D01*
X4441Y6540D02*
X4407D01*
Y6515D01*
X4424D01*
X4407D01*
Y6490D01*
X4707Y5605D02*
X4673D01*
Y5579D01*
X4690D01*
X4673D01*
Y5554D01*
X4413Y13588D02*
X4379D01*
Y13562D01*
X4396D01*
X4379D01*
Y13537D01*
X3996Y12802D02*
X3962D01*
Y12776D01*
X3979D01*
X3962D01*
Y12751D01*
X4110Y12802D02*
X4076D01*
Y12776D01*
X4093D01*
X4076D01*
Y12751D01*
X7870Y13589D02*
X7836D01*
Y13564D01*
X7853D01*
X7836D01*
Y13538D01*
X7783Y14135D02*
X7749D01*
Y14110D01*
X7766D01*
X7749D01*
Y14084D01*
X7425Y14072D02*
X7391D01*
Y14046D01*
X7408D01*
X7391D01*
Y14021D01*
X6714Y13106D02*
X6680D01*
Y13081D01*
X6697D01*
X6680D01*
Y13056D01*
X5952Y13043D02*
X5918D01*
Y13017D01*
X5935D01*
X5918D01*
Y12992D01*
X2828Y14237D02*
X2794D01*
Y14211D01*
X2811D01*
X2794D01*
Y14186D01*
X2511Y12382D02*
X2477D01*
Y12356D01*
X2494D01*
X2477D01*
Y12331D01*
X2613Y12382D02*
X2579D01*
Y12357D01*
X2596D01*
X2579D01*
Y12332D01*
X2714Y12382D02*
X2680D01*
Y12357D01*
X2697D01*
X2680D01*
Y12332D01*
X2511Y11543D02*
X2477D01*
Y11518D01*
X2494D01*
X2477D01*
Y11493D01*
X2613Y11544D02*
X2579D01*
Y11519D01*
X2596D01*
X2579D01*
Y11493D01*
X2714Y11544D02*
X2680D01*
Y11519D01*
X2697D01*
X2680D01*
Y11493D01*
X3491Y12290D02*
X3458D01*
Y12264D01*
X3475D01*
X3458D01*
Y12239D01*
X3749Y11891D02*
X3715D01*
Y11866D01*
X3732D01*
X3715D01*
Y11840D01*
X3895Y11787D02*
X3862D01*
Y11762D01*
X3878D01*
X3862D01*
Y11736D01*
X4123Y12069D02*
X4089D01*
Y12043D01*
X4106D01*
X4089D01*
Y12018D01*
X4187Y11506D02*
X4153D01*
Y11481D01*
X4170D01*
X4153D01*
Y11455D01*
X4314Y11506D02*
X4280D01*
Y11481D01*
X4297D01*
X4280D01*
Y11455D01*
X4174Y10744D02*
X4140D01*
Y10719D01*
X4157D01*
X4140D01*
Y10693D01*
X4294Y10744D02*
X4260D01*
Y10719D01*
X4277D01*
X4260D01*
Y10693D01*
X4409Y10744D02*
X4375D01*
Y10719D01*
X4392D01*
X4375D01*
Y10693D01*
X2078Y10282D02*
X2044D01*
Y10257D01*
X2061D01*
X2044D01*
Y10232D01*
X1450Y10513D02*
X1416D01*
Y10488D01*
X1433D01*
X1416D01*
Y10462D01*
X1708Y10115D02*
X1674D01*
Y10089D01*
X1691D01*
X1674D01*
Y10064D01*
X2145Y9730D02*
X2112D01*
Y9704D01*
X2128D01*
X2112D01*
Y9679D01*
X2272Y9730D02*
X2239D01*
Y9704D01*
X2255D01*
X2239D01*
Y9679D01*
X2133Y8968D02*
X2099D01*
Y8942D01*
X2116D01*
X2099D01*
Y8917D01*
X2253Y8968D02*
X2219D01*
Y8942D01*
X2236D01*
X2219D01*
Y8917D01*
X470Y9767D02*
X436D01*
Y9742D01*
X453D01*
X436D01*
Y9716D01*
X571Y9768D02*
X538D01*
Y9742D01*
X555D01*
X538D01*
Y9717D01*
X673Y9768D02*
X639D01*
Y9742D01*
X656D01*
X639D01*
Y9717D01*
X4288Y6923D02*
X4254D01*
Y6898D01*
X4271D01*
X4254D01*
Y6872D01*
X4173Y6923D02*
X4139D01*
Y6898D01*
X4156D01*
X4139D01*
Y6872D01*
X4052Y6923D02*
X4019D01*
Y6898D01*
X4035D01*
X4019D01*
Y6872D01*
X4192Y7685D02*
X4158D01*
Y7660D01*
X4175D01*
X4158D01*
Y7634D01*
X4065Y7685D02*
X4031D01*
Y7660D01*
X4048D01*
X4031D01*
Y7634D01*
X3628Y8070D02*
X3594D01*
Y8045D01*
X3611D01*
X3594D01*
Y8019D01*
X3348Y8469D02*
X3314D01*
Y8443D01*
X3331D01*
X3314D01*
Y8418D01*
X3983Y8241D02*
X3949D01*
Y8215D01*
X3966D01*
X3949D01*
Y8190D01*
X2390Y7723D02*
X2356D01*
Y7697D01*
X2373D01*
X2356D01*
Y7672D01*
X2491Y7723D02*
X2457D01*
Y7698D01*
X2474D01*
X2457D01*
Y7673D01*
X2593Y7723D02*
X2559D01*
Y7698D01*
X2576D01*
X2559D01*
Y7673D01*
X2390Y8561D02*
X2356D01*
Y8535D01*
X2373D01*
X2356D01*
Y8510D01*
X2491Y8562D02*
X2457D01*
Y8536D01*
X2474D01*
X2457D01*
Y8511D01*
X2593Y8562D02*
X2559D01*
Y8536D01*
X2576D01*
X2559D01*
Y8511D01*
X5164Y6183D02*
X5131D01*
Y6158D01*
X5147D01*
X5131D01*
Y6133D01*
X4301Y6439D02*
X4267D01*
Y6413D01*
X4284D01*
X4267D01*
Y6388D01*
X4212Y6439D02*
X4178D01*
Y6413D01*
X4195D01*
X4178D01*
Y6388D01*
X4777Y6439D02*
X4743D01*
Y6413D01*
X4760D01*
X4743D01*
Y6388D01*
X4858Y6439D02*
X4824D01*
Y6413D01*
X4841D01*
X4824D01*
Y6388D01*
X5091Y5075D02*
X5057D01*
Y5050D01*
X5074D01*
X5057D01*
Y5025D01*
X5091Y5156D02*
X5057D01*
Y5131D01*
X5074D01*
X5057D01*
Y5105D01*
X5089Y5723D02*
X5055D01*
Y5697D01*
X5072D01*
X5055D01*
Y5672D01*
X5089Y5634D02*
X5055D01*
Y5608D01*
X5072D01*
X5055D01*
Y5583D01*
X501Y8953D02*
X467D01*
Y8928D01*
X484D01*
X467D01*
Y8903D01*
X251Y8699D02*
X217D01*
Y8674D01*
X234D01*
X217D01*
Y8649D01*
X1608Y8611D02*
X1575D01*
Y8585D01*
X1591D01*
X1575D01*
Y8560D01*
X1621Y7315D02*
X1587D01*
Y7290D01*
X1604D01*
X1587D01*
Y7264D01*
X146Y7645D02*
X112D01*
Y7620D01*
X129D01*
X112D01*
Y7595D01*
X110Y7328D02*
X76D01*
Y7302D01*
X93D01*
X76D01*
Y7277D01*
X3630Y9502D02*
X3596D01*
Y9477D01*
X3613D01*
X3596D01*
Y9451D01*
X3630Y9698D02*
X3596D01*
Y9672D01*
X3613D01*
X3596D01*
Y9647D01*
X3384Y9761D02*
X3350D01*
Y9736D01*
X3367D01*
X3350D01*
Y9710D01*
X3379Y9957D02*
X3345D01*
Y9931D01*
X3362D01*
X3345D01*
Y9906D01*
X3629Y10022D02*
X3595D01*
Y9997D01*
X3612D01*
X3595D01*
Y9971D01*
X3966Y9892D02*
X3932D01*
Y9867D01*
X3949D01*
X3932D01*
Y9841D01*
X3945Y9665D02*
X3911D01*
Y9639D01*
X3928D01*
X3911D01*
Y9614D01*
X3945Y9460D02*
X3911D01*
Y9434D01*
X3928D01*
X3911D01*
Y9409D01*
X5596Y8318D02*
X5562D01*
Y8293D01*
X5579D01*
X5562D01*
Y8268D01*
X5920Y8395D02*
X5886D01*
Y8369D01*
X5903D01*
X5886D01*
Y8344D01*
X5584Y8953D02*
X5550D01*
Y8928D01*
X5567D01*
X5550D01*
Y8903D01*
X5588Y8636D02*
X5554D01*
Y8611D01*
X5571D01*
X5554D01*
Y8585D01*
X5905Y8716D02*
X5871D01*
Y8691D01*
X5888D01*
X5871D01*
Y8666D01*
X4771Y8839D02*
X4737D01*
Y8814D01*
X4754D01*
X4737D01*
Y8788D01*
X5100Y8598D02*
X5066D01*
Y8572D01*
X5083D01*
X5066D01*
Y8547D01*
X4771Y8280D02*
X4737D01*
Y8255D01*
X4754D01*
X4737D01*
Y8230D01*
X5914Y7514D02*
X5880D01*
Y7489D01*
X5897D01*
X5880D01*
Y7464D01*
X5596Y7277D02*
X5562D01*
Y7252D01*
X5579D01*
X5562D01*
Y7226D01*
X5091Y7076D02*
X5057D01*
Y7051D01*
X5074D01*
X5057D01*
Y7026D01*
X6561Y7473D02*
X6528D01*
Y7447D01*
X6544D01*
X6528D01*
Y7422D01*
X6231Y7861D02*
X6197D01*
Y7836D01*
X6214D01*
X6197D01*
Y7810D01*
X6231Y7099D02*
X6197D01*
Y7074D01*
X6214D01*
X6197D01*
Y7048D01*
X6561Y8238D02*
X6528D01*
Y8213D01*
X6544D01*
X6528D01*
Y8188D01*
X7857Y9797D02*
X7823D01*
Y9772D01*
X7840D01*
X7823D01*
Y9747D01*
X7857Y9304D02*
X7823D01*
Y9278D01*
X7840D01*
X7823D01*
Y9253D01*
X9990Y9590D02*
X9957D01*
Y9564D01*
X9973D01*
X9957D01*
Y9539D01*
X9990Y9489D02*
X9957D01*
Y9463D01*
X9973D01*
X9957D01*
Y9438D01*
X9990Y8981D02*
X9957D01*
Y8956D01*
X9973D01*
X9957D01*
Y8930D01*
X9000Y10871D02*
X8966D01*
Y10846D01*
X8983D01*
X8966D01*
Y10820D01*
X7247Y11633D02*
X7213D01*
Y11608D01*
X7230D01*
X7213D01*
Y11582D01*
X7247Y11462D02*
X7213D01*
Y11437D01*
X7230D01*
X7213D01*
Y11412D01*
X7247Y11278D02*
X7213D01*
Y11252D01*
X7230D01*
X7213D01*
Y11227D01*
X7247Y10871D02*
X7213D01*
Y10846D01*
X7230D01*
X7213D01*
Y10820D01*
X7247Y10719D02*
X7213D01*
Y10693D01*
X7230D01*
X7213D01*
Y10668D01*
X7247Y10566D02*
X7213D01*
Y10541D01*
X7230D01*
X7213D01*
Y10516D01*
X8758Y12218D02*
X8725D01*
Y12192D01*
X8742D01*
X8725D01*
Y12167D01*
X8529Y12126D02*
X8495D01*
Y12101D01*
X8512D01*
X8495D01*
Y12076D01*
X7768Y12126D02*
X7734D01*
Y12101D01*
X7751D01*
X7734D01*
Y12076D01*
X7476Y12598D02*
X7442D01*
Y12573D01*
X7459D01*
X7442D01*
Y12548D01*
X8886Y12716D02*
X8852D01*
Y12691D01*
X8869D01*
X8852D01*
Y12666D01*
X9038Y12611D02*
X9004D01*
Y12586D01*
X9021D01*
X9004D01*
Y12560D01*
X9038Y12484D02*
X9004D01*
Y12459D01*
X9021D01*
X9004D01*
Y12433D01*
X9038Y12365D02*
X9004D01*
Y12339D01*
X9021D01*
X9004D01*
Y12314D01*
X9038Y12218D02*
X9004D01*
Y12192D01*
X9021D01*
X9004D01*
Y12167D01*
X9346Y11985D02*
X9312D01*
Y11960D01*
X9329D01*
X9312D01*
Y11934D01*
X9844Y13315D02*
X9811D01*
Y13290D01*
X9828D01*
X9811D01*
Y13264D01*
X9990Y10101D02*
X9957D01*
Y10075D01*
X9973D01*
X9957D01*
Y10050D01*
X4326Y13475D02*
X4292D01*
Y13449D01*
X4309D01*
X4292D01*
Y13424D01*
X3798Y13646D02*
X3764D01*
Y13621D01*
X3781D01*
X3764D01*
Y13595D01*
X3659Y13031D02*
X3626D01*
Y13005D01*
X3642D01*
X3626D01*
Y12980D01*
X4752Y10694D02*
X4718D01*
Y10669D01*
X4735D01*
X4718D01*
Y10643D01*
X4949Y10312D02*
X4915D01*
Y10287D01*
X4932D01*
X4915D01*
Y10262D01*
X4897Y10694D02*
X4863D01*
Y10669D01*
X4880D01*
X4863D01*
Y10643D01*
X4025Y9184D02*
X3991D01*
Y9159D01*
X4008D01*
X3991D01*
Y9133D01*
X6168Y5031D02*
X6134D01*
Y5006D01*
X6151D01*
X6134D01*
Y4981D01*
X6206Y4661D02*
X6172D01*
Y4635D01*
X6189D01*
X6172D01*
Y4610D01*
X6901Y4921D02*
X6867D01*
Y4895D01*
X6884D01*
X6867D01*
Y4870D01*
X5852Y5524D02*
X5818D01*
Y5499D01*
X5835D01*
X5818D01*
Y5474D01*
X6209Y5544D02*
X6175D01*
Y5518D01*
X6192D01*
X6175D01*
Y5493D01*
X5856Y5169D02*
X5822D01*
Y5143D01*
X5839D01*
X5822D01*
Y5118D01*
X6511Y4109D02*
X6477D01*
Y4084D01*
X6494D01*
X6477D01*
Y4059D01*
X6979Y4109D02*
X6945D01*
Y4084D01*
X6962D01*
X6945D01*
Y4059D01*
X7444Y3888D02*
X7410D01*
Y3863D01*
X7427D01*
X7410D01*
Y3838D01*
X6044Y3887D02*
X6010D01*
Y3862D01*
X6027D01*
X6010D01*
Y3836D01*
X7396Y4521D02*
X7362D01*
Y4496D01*
X7379D01*
X7362D01*
Y4470D01*
X5596Y7442D02*
X5562D01*
Y7417D01*
X5579D01*
X5562D01*
Y7391D01*
X5912Y7366D02*
X5878D01*
Y7341D01*
X5895D01*
X5878D01*
Y7315D01*
X2078Y10376D02*
X2044D01*
Y10350D01*
X2061D01*
X2044D01*
Y10325D01*
X2412Y9488D02*
X2378D01*
Y9463D01*
X2395D01*
X2378D01*
Y9438D01*
X2514Y9488D02*
X2480D01*
Y9463D01*
X2497D01*
X2480D01*
Y9438D01*
X2310Y9380D02*
X2277D01*
Y9355D01*
X2294D01*
X2277D01*
Y9329D01*
X2514Y9381D02*
X2480D01*
Y9355D01*
X2497D01*
X2480D01*
Y9330D01*
X2310Y9488D02*
X2277D01*
Y9462D01*
X2294D01*
X2277D01*
Y9437D01*
X4433Y7227D02*
X4400D01*
Y7202D01*
X4416D01*
X4400D01*
Y7177D01*
X4433Y7336D02*
X4400D01*
Y7311D01*
X4416D01*
X4400D01*
Y7285D01*
X4332Y7336D02*
X4298D01*
Y7311D01*
X4315D01*
X4298D01*
Y7285D01*
X4230Y7335D02*
X4196D01*
Y7310D01*
X4213D01*
X4196D01*
Y7285D01*
X4433Y7444D02*
X4400D01*
Y7419D01*
X4416D01*
X4400D01*
Y7393D01*
X4332Y7444D02*
X4298D01*
Y7419D01*
X4315D01*
X4298D01*
Y7393D01*
X4230Y7443D02*
X4196D01*
Y7418D01*
X4213D01*
X4196D01*
Y7392D01*
X3983Y8347D02*
X3949D01*
Y8322D01*
X3966D01*
X3949D01*
Y8296D01*
X1088Y8865D02*
X1054D01*
Y8839D01*
X1071D01*
X1054D01*
Y8814D01*
X1761Y7861D02*
X1727D01*
Y7836D01*
X1744D01*
X1727D01*
Y7810D01*
X3379Y9307D02*
X3345D01*
Y9281D01*
X3362D01*
X3345D01*
Y9256D01*
X3630Y9372D02*
X3596D01*
Y9347D01*
X3613D01*
X3596D01*
Y9321D01*
X3945Y9567D02*
X3911D01*
Y9542D01*
X3928D01*
X3911D01*
Y9516D01*
X6320Y4661D02*
X6286D01*
Y4635D01*
X6303D01*
X6286D01*
Y4610D01*
X7029Y4924D02*
X6995D01*
Y4898D01*
X7012D01*
X6995D01*
Y4873D01*
X5850Y5296D02*
X5816D01*
Y5270D01*
X5833D01*
X5816D01*
Y5245D01*
X6117Y5334D02*
X6083D01*
Y5309D01*
X6100D01*
X6083D01*
Y5283D01*
X5952Y4217D02*
X5918D01*
Y4192D01*
X5935D01*
X5918D01*
Y4166D01*
X7260Y4109D02*
X7226D01*
Y4084D01*
X7243D01*
X7226D01*
Y4059D01*
X7350Y3888D02*
X7316D01*
Y3862D01*
X7333D01*
X7316D01*
Y3837D01*
X6138Y3887D02*
X6104D01*
Y3862D01*
X6121D01*
X6104D01*
Y3836D01*
X673Y10606D02*
X639D01*
Y10581D01*
X656D01*
X639D01*
Y10555D01*
X571Y10606D02*
X538D01*
Y10581D01*
X555D01*
X538D01*
Y10555D01*
X470Y10605D02*
X436D01*
Y10580D01*
X453D01*
X436D01*
Y10554D01*
D270*
X1652Y13951D02*
G03*
X1652Y13951I-10J0D01*
G01*
X1144D02*
G03*
X1144Y13951I-10J0D01*
G01*
M02*
