G04*
G04 #@! TF.GenerationSoftware,Altium Limited,Altium Designer,24.0.1 (36)*
G04*
G04 Layer_Color=32896*
%FSLAX42Y42*%
%MOMM*%
G71*
G04*
G04 #@! TF.SameCoordinates,E1E02590-05F2-4693-A132-99C86EA4FF08*
G04*
G04*
G04 #@! TF.FilePolarity,Positive*
G04*
G01*
G75*
%ADD10C,0.20*%
%ADD11C,0.10*%
%ADD14C,0.13*%
%ADD15C,0.25*%
%ADD16C,0.15*%
%ADD17C,0.15*%
%ADD18C,0.10*%
G36*
X7925Y14054D02*
Y14051D01*
Y14047D01*
Y14044D01*
Y14040D01*
Y14037D01*
Y14033D01*
Y14030D01*
Y14027D01*
Y14023D01*
Y14020D01*
Y14016D01*
Y14013D01*
Y14009D01*
Y14006D01*
Y14003D01*
Y13999D01*
Y13996D01*
Y13992D01*
Y13989D01*
Y13985D01*
Y13982D01*
Y13979D01*
Y13975D01*
Y13972D01*
Y13968D01*
Y13965D01*
Y13961D01*
Y13958D01*
Y13955D01*
Y13951D01*
Y13948D01*
Y13944D01*
Y13941D01*
Y13937D01*
Y13934D01*
Y13931D01*
Y13927D01*
Y13924D01*
Y13920D01*
Y13917D01*
Y13913D01*
Y13910D01*
Y13907D01*
Y13903D01*
Y13900D01*
Y13896D01*
Y13893D01*
Y13889D01*
Y13886D01*
Y13883D01*
Y13879D01*
Y13876D01*
Y13872D01*
Y13869D01*
Y13865D01*
Y13862D01*
Y13859D01*
Y13855D01*
Y13852D01*
Y13848D01*
Y13845D01*
Y13841D01*
Y13838D01*
Y13835D01*
Y13831D01*
Y13828D01*
Y13824D01*
Y13821D01*
Y13817D01*
Y13814D01*
Y13811D01*
Y13807D01*
Y13804D01*
Y13800D01*
Y13797D01*
Y13793D01*
Y13790D01*
Y13787D01*
Y13783D01*
Y13780D01*
Y13776D01*
Y13773D01*
Y13769D01*
Y13766D01*
Y13763D01*
Y13759D01*
Y13756D01*
Y13752D01*
Y13749D01*
Y13745D01*
Y13742D01*
Y13739D01*
Y13735D01*
Y13732D01*
Y13728D01*
Y13725D01*
Y13721D01*
Y13718D01*
Y13715D01*
Y13711D01*
Y13708D01*
Y13704D01*
Y13701D01*
Y13697D01*
Y13694D01*
Y13691D01*
Y13687D01*
Y13684D01*
Y13680D01*
Y13677D01*
Y13673D01*
Y13670D01*
Y13667D01*
Y13663D01*
Y13660D01*
Y13656D01*
Y13653D01*
Y13649D01*
Y13646D01*
Y13643D01*
Y13639D01*
Y13636D01*
Y13632D01*
Y13629D01*
Y13625D01*
Y13622D01*
Y13619D01*
Y13615D01*
Y13612D01*
Y13608D01*
Y13605D01*
Y13601D01*
Y13598D01*
Y13594D01*
Y13591D01*
Y13588D01*
Y13584D01*
Y13581D01*
Y13577D01*
Y13574D01*
Y13570D01*
Y13567D01*
Y13564D01*
Y13560D01*
Y13557D01*
Y13553D01*
Y13550D01*
Y13546D01*
Y13543D01*
Y13540D01*
Y13536D01*
Y13533D01*
Y13529D01*
Y13526D01*
Y13522D01*
Y13519D01*
Y13516D01*
Y13512D01*
Y13509D01*
Y13505D01*
Y13502D01*
Y13498D01*
Y13495D01*
Y13492D01*
Y13488D01*
Y13485D01*
Y13481D01*
Y13478D01*
Y13474D01*
Y13471D01*
Y13468D01*
Y13464D01*
Y13461D01*
Y13457D01*
Y13454D01*
Y13450D01*
Y13447D01*
Y13444D01*
Y13440D01*
Y13437D01*
Y13433D01*
Y13430D01*
Y13426D01*
Y13423D01*
Y13420D01*
Y13416D01*
Y13413D01*
Y13409D01*
Y13406D01*
Y13402D01*
Y13399D01*
Y13396D01*
Y13392D01*
Y13389D01*
Y13385D01*
Y13382D01*
Y13378D01*
Y13375D01*
Y13372D01*
Y13368D01*
Y13365D01*
Y13361D01*
Y13358D01*
Y13354D01*
Y13351D01*
Y13348D01*
Y13344D01*
Y13341D01*
Y13337D01*
Y13334D01*
Y13330D01*
Y13327D01*
Y13324D01*
Y13320D01*
Y13317D01*
Y13313D01*
Y13310D01*
Y13306D01*
Y13303D01*
Y13300D01*
Y13296D01*
Y13293D01*
Y13289D01*
Y13286D01*
Y13282D01*
Y13279D01*
Y13276D01*
Y13272D01*
Y13269D01*
Y13265D01*
Y13262D01*
Y13258D01*
Y13255D01*
Y13252D01*
Y13248D01*
Y13245D01*
Y13241D01*
Y13238D01*
Y13234D01*
Y13231D01*
Y13228D01*
Y13224D01*
Y13221D01*
Y13217D01*
Y13214D01*
Y13210D01*
Y13207D01*
Y13204D01*
Y13200D01*
Y13197D01*
Y13193D01*
Y13190D01*
Y13186D01*
Y13183D01*
Y13180D01*
Y13176D01*
Y13173D01*
Y13169D01*
Y13166D01*
Y13162D01*
Y13159D01*
Y13155D01*
Y13152D01*
Y13149D01*
Y13145D01*
Y13142D01*
Y13138D01*
Y13135D01*
Y13131D01*
Y13128D01*
Y13125D01*
Y13121D01*
Y13118D01*
Y13114D01*
Y13111D01*
Y13107D01*
Y13104D01*
Y13101D01*
Y13097D01*
Y13094D01*
Y13090D01*
Y13087D01*
Y13083D01*
Y13080D01*
Y13077D01*
Y13073D01*
Y13070D01*
Y13066D01*
Y13063D01*
Y13059D01*
Y13056D01*
X4495D01*
Y13059D01*
Y13063D01*
Y13066D01*
Y13070D01*
Y13073D01*
Y13077D01*
Y13080D01*
Y13083D01*
Y13087D01*
Y13090D01*
Y13094D01*
Y13097D01*
Y13101D01*
Y13104D01*
Y13107D01*
Y13111D01*
Y13114D01*
Y13118D01*
Y13121D01*
Y13125D01*
Y13128D01*
Y13131D01*
Y13135D01*
Y13138D01*
Y13142D01*
Y13145D01*
Y13149D01*
Y13152D01*
Y13155D01*
Y13159D01*
Y13162D01*
Y13166D01*
Y13169D01*
Y13173D01*
Y13176D01*
Y13180D01*
Y13183D01*
Y13186D01*
Y13190D01*
Y13193D01*
Y13197D01*
Y13200D01*
Y13204D01*
Y13207D01*
Y13210D01*
Y13214D01*
Y13217D01*
Y13221D01*
Y13224D01*
Y13228D01*
Y13231D01*
Y13234D01*
Y13238D01*
Y13241D01*
Y13245D01*
Y13248D01*
Y13252D01*
Y13255D01*
Y13258D01*
Y13262D01*
Y13265D01*
Y13269D01*
Y13272D01*
Y13276D01*
Y13279D01*
Y13282D01*
Y13286D01*
Y13289D01*
Y13293D01*
Y13296D01*
Y13300D01*
Y13303D01*
Y13306D01*
Y13310D01*
Y13313D01*
Y13317D01*
Y13320D01*
Y13324D01*
Y13327D01*
Y13330D01*
Y13334D01*
Y13337D01*
Y13341D01*
Y13344D01*
Y13348D01*
Y13351D01*
Y13354D01*
Y13358D01*
Y13361D01*
Y13365D01*
Y13368D01*
Y13372D01*
Y13375D01*
Y13378D01*
Y13382D01*
Y13385D01*
Y13389D01*
Y13392D01*
Y13396D01*
Y13399D01*
Y13402D01*
Y13406D01*
Y13409D01*
Y13413D01*
Y13416D01*
Y13420D01*
Y13423D01*
Y13426D01*
Y13430D01*
Y13433D01*
Y13437D01*
Y13440D01*
Y13444D01*
Y13447D01*
Y13450D01*
Y13454D01*
Y13457D01*
Y13461D01*
Y13464D01*
Y13468D01*
Y13471D01*
Y13474D01*
Y13478D01*
Y13481D01*
Y13485D01*
Y13488D01*
Y13492D01*
Y13495D01*
Y13498D01*
Y13502D01*
Y13505D01*
Y13509D01*
Y13512D01*
Y13516D01*
Y13519D01*
Y13522D01*
Y13526D01*
Y13529D01*
Y13533D01*
Y13536D01*
Y13540D01*
Y13543D01*
Y13546D01*
Y13550D01*
Y13553D01*
Y13557D01*
Y13560D01*
Y13564D01*
Y13567D01*
Y13570D01*
Y13574D01*
Y13577D01*
Y13581D01*
Y13584D01*
Y13588D01*
Y13591D01*
Y13594D01*
Y13598D01*
Y13601D01*
Y13605D01*
Y13608D01*
Y13612D01*
Y13615D01*
Y13619D01*
Y13622D01*
Y13625D01*
Y13629D01*
Y13632D01*
Y13636D01*
Y13639D01*
Y13643D01*
Y13646D01*
Y13649D01*
Y13653D01*
Y13656D01*
Y13660D01*
Y13663D01*
Y13667D01*
Y13670D01*
Y13673D01*
Y13677D01*
Y13680D01*
Y13684D01*
Y13687D01*
Y13691D01*
Y13694D01*
Y13697D01*
Y13701D01*
Y13704D01*
Y13708D01*
Y13711D01*
Y13715D01*
Y13718D01*
Y13721D01*
Y13725D01*
Y13728D01*
Y13732D01*
Y13735D01*
Y13739D01*
Y13742D01*
Y13745D01*
Y13749D01*
Y13752D01*
Y13756D01*
Y13759D01*
Y13763D01*
Y13766D01*
Y13769D01*
Y13773D01*
Y13776D01*
Y13780D01*
Y13783D01*
Y13787D01*
Y13790D01*
Y13793D01*
Y13797D01*
Y13800D01*
Y13804D01*
Y13807D01*
Y13811D01*
Y13814D01*
Y13817D01*
Y13821D01*
Y13824D01*
Y13828D01*
Y13831D01*
Y13835D01*
Y13838D01*
Y13841D01*
Y13845D01*
Y13848D01*
Y13852D01*
Y13855D01*
Y13859D01*
Y13862D01*
Y13865D01*
Y13869D01*
Y13872D01*
Y13876D01*
Y13879D01*
Y13883D01*
Y13886D01*
Y13889D01*
Y13893D01*
Y13896D01*
Y13900D01*
Y13903D01*
Y13907D01*
Y13910D01*
Y13913D01*
Y13917D01*
Y13920D01*
Y13924D01*
Y13927D01*
Y13931D01*
Y13934D01*
Y13937D01*
Y13941D01*
Y13944D01*
Y13948D01*
Y13951D01*
Y13955D01*
Y13958D01*
Y13961D01*
Y13965D01*
Y13968D01*
Y13972D01*
Y13975D01*
Y13979D01*
Y13982D01*
Y13985D01*
Y13989D01*
Y13992D01*
Y13996D01*
Y13999D01*
Y14003D01*
Y14006D01*
Y14009D01*
Y14013D01*
Y14016D01*
Y14020D01*
Y14023D01*
Y14027D01*
Y14030D01*
Y14033D01*
Y14037D01*
Y14040D01*
Y14044D01*
Y14047D01*
Y14051D01*
Y14054D01*
Y14057D01*
X7925D01*
Y14054D01*
D02*
G37*
%LPC*%
G36*
X6076Y13749D02*
X6018D01*
Y13745D01*
Y13742D01*
Y13739D01*
Y13735D01*
Y13732D01*
Y13728D01*
Y13725D01*
Y13721D01*
Y13718D01*
Y13715D01*
Y13711D01*
Y13708D01*
Y13704D01*
Y13701D01*
Y13697D01*
Y13694D01*
Y13691D01*
Y13687D01*
Y13684D01*
Y13680D01*
Y13677D01*
Y13673D01*
Y13670D01*
Y13667D01*
Y13663D01*
Y13660D01*
Y13656D01*
Y13653D01*
X5911D01*
Y13656D01*
Y13660D01*
Y13663D01*
Y13667D01*
Y13670D01*
Y13673D01*
Y13677D01*
Y13680D01*
Y13684D01*
Y13687D01*
Y13691D01*
Y13694D01*
Y13697D01*
Y13701D01*
Y13704D01*
Y13708D01*
Y13711D01*
Y13715D01*
Y13718D01*
Y13721D01*
Y13725D01*
Y13728D01*
Y13732D01*
Y13735D01*
Y13739D01*
Y13742D01*
Y13745D01*
Y13749D01*
X5850D01*
Y13745D01*
Y13742D01*
Y13739D01*
Y13735D01*
Y13732D01*
Y13728D01*
Y13725D01*
Y13721D01*
Y13718D01*
Y13715D01*
Y13711D01*
Y13708D01*
Y13704D01*
Y13701D01*
Y13697D01*
Y13694D01*
Y13691D01*
Y13687D01*
Y13684D01*
Y13680D01*
Y13677D01*
Y13673D01*
Y13670D01*
Y13667D01*
Y13663D01*
Y13660D01*
Y13656D01*
Y13653D01*
Y13649D01*
Y13646D01*
Y13643D01*
Y13639D01*
Y13636D01*
Y13632D01*
Y13629D01*
Y13625D01*
Y13622D01*
Y13619D01*
Y13615D01*
Y13612D01*
Y13608D01*
Y13605D01*
Y13601D01*
Y13598D01*
Y13594D01*
Y13591D01*
Y13588D01*
Y13584D01*
Y13581D01*
Y13577D01*
Y13574D01*
Y13570D01*
Y13567D01*
Y13564D01*
Y13560D01*
Y13557D01*
Y13553D01*
Y13550D01*
Y13546D01*
Y13543D01*
Y13540D01*
Y13536D01*
Y13533D01*
Y13529D01*
Y13526D01*
Y13522D01*
Y13519D01*
Y13516D01*
Y13512D01*
Y13509D01*
Y13505D01*
Y13502D01*
X5911D01*
Y13505D01*
Y13509D01*
Y13512D01*
Y13516D01*
Y13519D01*
Y13522D01*
Y13526D01*
Y13529D01*
Y13533D01*
Y13536D01*
Y13540D01*
Y13543D01*
Y13546D01*
Y13550D01*
Y13553D01*
Y13557D01*
Y13560D01*
Y13564D01*
Y13567D01*
Y13570D01*
Y13574D01*
Y13577D01*
Y13581D01*
Y13584D01*
Y13588D01*
Y13591D01*
Y13594D01*
Y13598D01*
Y13601D01*
X6018D01*
Y13598D01*
Y13594D01*
Y13591D01*
Y13588D01*
Y13584D01*
Y13581D01*
Y13577D01*
Y13574D01*
Y13570D01*
Y13567D01*
Y13564D01*
Y13560D01*
Y13557D01*
Y13553D01*
Y13550D01*
Y13546D01*
Y13543D01*
Y13540D01*
Y13536D01*
Y13533D01*
Y13529D01*
Y13526D01*
Y13522D01*
Y13519D01*
Y13516D01*
Y13512D01*
Y13509D01*
Y13505D01*
Y13502D01*
X6076D01*
Y13505D01*
Y13509D01*
Y13512D01*
Y13516D01*
Y13519D01*
Y13522D01*
Y13526D01*
Y13529D01*
Y13533D01*
Y13536D01*
Y13540D01*
Y13543D01*
Y13546D01*
Y13550D01*
Y13553D01*
Y13557D01*
Y13560D01*
Y13564D01*
Y13567D01*
Y13570D01*
Y13574D01*
Y13577D01*
Y13581D01*
Y13584D01*
Y13588D01*
Y13591D01*
Y13594D01*
Y13598D01*
Y13601D01*
Y13605D01*
Y13608D01*
Y13612D01*
Y13615D01*
Y13619D01*
Y13622D01*
Y13625D01*
Y13629D01*
Y13632D01*
Y13636D01*
Y13639D01*
Y13643D01*
Y13646D01*
Y13649D01*
Y13653D01*
Y13656D01*
Y13660D01*
Y13663D01*
Y13667D01*
Y13670D01*
Y13673D01*
Y13677D01*
Y13680D01*
Y13684D01*
Y13687D01*
Y13691D01*
Y13694D01*
Y13697D01*
Y13701D01*
Y13704D01*
Y13708D01*
Y13711D01*
Y13715D01*
Y13718D01*
Y13721D01*
Y13725D01*
Y13728D01*
Y13732D01*
Y13735D01*
Y13739D01*
Y13742D01*
Y13745D01*
Y13749D01*
D02*
G37*
G36*
X7379Y14033D02*
X7376D01*
Y14030D01*
X7372D01*
Y14027D01*
Y14023D01*
X7369D01*
Y14020D01*
X7366D01*
Y14016D01*
Y14013D01*
X7362D01*
Y14009D01*
Y14006D01*
X7359D01*
Y14003D01*
X7355D01*
Y13999D01*
Y13996D01*
X7352D01*
Y13992D01*
Y13989D01*
X7348D01*
Y13985D01*
Y13982D01*
X7345D01*
Y13979D01*
X7342D01*
Y13975D01*
Y13972D01*
X7338D01*
Y13968D01*
Y13965D01*
X7335D01*
Y13961D01*
Y13958D01*
X7331D01*
Y13955D01*
X7328D01*
Y13951D01*
Y13948D01*
X7324D01*
Y13944D01*
Y13941D01*
X7321D01*
Y13937D01*
Y13934D01*
X7318D01*
Y13931D01*
X7314D01*
Y13927D01*
Y13924D01*
X7311D01*
Y13920D01*
Y13917D01*
X7307D01*
Y13913D01*
X7304D01*
Y13910D01*
Y13907D01*
X7300D01*
Y13903D01*
Y13900D01*
X7297D01*
Y13896D01*
Y13893D01*
X7294D01*
Y13889D01*
X7290D01*
Y13886D01*
Y13883D01*
X7287D01*
Y13879D01*
Y13876D01*
X7283D01*
Y13872D01*
Y13869D01*
X7280D01*
Y13865D01*
X7276D01*
Y13862D01*
Y13859D01*
X7273D01*
Y13855D01*
Y13852D01*
X7270D01*
Y13848D01*
X7266D01*
Y13845D01*
Y13841D01*
X7263D01*
Y13838D01*
Y13835D01*
X7259D01*
Y13831D01*
Y13828D01*
X7256D01*
Y13824D01*
X7252D01*
Y13821D01*
Y13817D01*
X7249D01*
Y13814D01*
Y13811D01*
X7246D01*
Y13807D01*
Y13804D01*
X7242D01*
Y13800D01*
X7239D01*
Y13797D01*
Y13793D01*
X7235D01*
Y13797D01*
X7228D01*
Y13800D01*
X7225D01*
Y13804D01*
X7218D01*
Y13807D01*
X7211D01*
Y13811D01*
X7204D01*
Y13814D01*
X7198D01*
Y13817D01*
X7191D01*
Y13821D01*
X7184D01*
Y13824D01*
X7177D01*
Y13828D01*
X7170D01*
Y13824D01*
Y13821D01*
X7174D01*
Y13817D01*
Y13814D01*
Y13811D01*
Y13807D01*
X7177D01*
Y13804D01*
Y13800D01*
Y13797D01*
X7180D01*
Y13793D01*
Y13790D01*
Y13787D01*
Y13783D01*
X7184D01*
Y13780D01*
Y13776D01*
Y13773D01*
Y13769D01*
X7187D01*
Y13766D01*
Y13763D01*
Y13759D01*
X7191D01*
Y13756D01*
Y13752D01*
Y13749D01*
Y13745D01*
X7194D01*
Y13742D01*
Y13739D01*
Y13735D01*
Y13732D01*
X7198D01*
Y13728D01*
Y13725D01*
Y13721D01*
Y13718D01*
X7201D01*
Y13715D01*
Y13711D01*
Y13708D01*
X7204D01*
Y13704D01*
Y13701D01*
Y13697D01*
Y13694D01*
X7208D01*
Y13691D01*
Y13687D01*
Y13684D01*
Y13680D01*
X7211D01*
Y13677D01*
Y13673D01*
Y13670D01*
X7215D01*
Y13667D01*
Y13663D01*
Y13660D01*
Y13656D01*
X7218D01*
Y13653D01*
Y13649D01*
Y13646D01*
Y13643D01*
X7222D01*
Y13639D01*
X7225D01*
Y13643D01*
X7228D01*
Y13646D01*
Y13649D01*
X7232D01*
Y13653D01*
Y13656D01*
X7235D01*
Y13660D01*
Y13663D01*
X7239D01*
Y13667D01*
X7242D01*
Y13670D01*
Y13673D01*
X7246D01*
Y13677D01*
Y13680D01*
X7249D01*
Y13684D01*
X7252D01*
Y13687D01*
Y13691D01*
X7256D01*
Y13694D01*
Y13697D01*
X7259D01*
Y13701D01*
Y13704D01*
X7263D01*
Y13708D01*
X7266D01*
Y13711D01*
Y13715D01*
X7270D01*
Y13718D01*
Y13721D01*
X7273D01*
Y13725D01*
Y13728D01*
X7276D01*
Y13732D01*
X7280D01*
Y13735D01*
Y13739D01*
X7283D01*
Y13742D01*
Y13745D01*
X7287D01*
Y13749D01*
X7290D01*
Y13752D01*
Y13756D01*
X7294D01*
Y13759D01*
Y13763D01*
X7297D01*
Y13766D01*
Y13769D01*
X7300D01*
Y13773D01*
X7304D01*
Y13776D01*
Y13780D01*
X7307D01*
Y13783D01*
Y13787D01*
X7311D01*
Y13790D01*
X7314D01*
Y13793D01*
Y13797D01*
X7318D01*
Y13800D01*
Y13804D01*
X7321D01*
Y13807D01*
Y13811D01*
X7324D01*
Y13814D01*
X7328D01*
Y13817D01*
Y13821D01*
X7331D01*
Y13824D01*
Y13828D01*
X7335D01*
Y13831D01*
Y13835D01*
X7338D01*
Y13838D01*
X7342D01*
Y13841D01*
Y13845D01*
X7345D01*
Y13848D01*
Y13852D01*
X7348D01*
Y13855D01*
X7352D01*
Y13859D01*
Y13862D01*
X7355D01*
Y13865D01*
Y13869D01*
X7359D01*
Y13872D01*
Y13876D01*
X7362D01*
Y13879D01*
X7366D01*
Y13883D01*
Y13886D01*
X7369D01*
Y13889D01*
Y13893D01*
X7372D01*
Y13896D01*
X7376D01*
Y13900D01*
Y13903D01*
X7379D01*
Y13907D01*
Y13910D01*
X7383D01*
Y13907D01*
X7386D01*
Y13903D01*
Y13900D01*
X7390D01*
Y13896D01*
Y13893D01*
X7393D01*
Y13889D01*
Y13886D01*
X7396D01*
Y13883D01*
X7400D01*
Y13879D01*
Y13876D01*
X7403D01*
Y13872D01*
Y13869D01*
X7407D01*
Y13865D01*
X7410D01*
Y13862D01*
Y13859D01*
X7414D01*
Y13855D01*
Y13852D01*
X7417D01*
Y13848D01*
Y13845D01*
X7420D01*
Y13841D01*
X7424D01*
Y13838D01*
Y13835D01*
X7427D01*
Y13831D01*
Y13828D01*
X7431D01*
Y13824D01*
Y13821D01*
X7434D01*
Y13817D01*
X7438D01*
Y13814D01*
Y13811D01*
X7441D01*
Y13807D01*
Y13804D01*
X7444D01*
Y13800D01*
Y13797D01*
X7448D01*
Y13793D01*
X7451D01*
Y13790D01*
Y13787D01*
X7455D01*
Y13783D01*
Y13780D01*
X7458D01*
Y13776D01*
X7462D01*
Y13773D01*
Y13769D01*
X7465D01*
Y13766D01*
Y13763D01*
X7468D01*
Y13759D01*
Y13756D01*
X7472D01*
Y13752D01*
X7475D01*
Y13749D01*
Y13745D01*
X7479D01*
Y13742D01*
Y13739D01*
X7482D01*
Y13735D01*
Y13732D01*
X7486D01*
Y13728D01*
X7489D01*
Y13725D01*
Y13721D01*
X7493D01*
Y13718D01*
Y13715D01*
X7496D01*
Y13711D01*
X7499D01*
Y13708D01*
Y13704D01*
X7503D01*
Y13701D01*
Y13697D01*
X7506D01*
Y13694D01*
Y13691D01*
X7510D01*
Y13687D01*
X7513D01*
Y13684D01*
Y13680D01*
X7517D01*
Y13677D01*
Y13673D01*
X7520D01*
Y13670D01*
Y13667D01*
X7523D01*
Y13663D01*
X7527D01*
Y13660D01*
Y13656D01*
X7530D01*
Y13653D01*
Y13649D01*
X7534D01*
Y13646D01*
Y13643D01*
X7537D01*
Y13639D01*
X7541D01*
Y13636D01*
Y13632D01*
X7544D01*
Y13629D01*
Y13625D01*
X7547D01*
Y13622D01*
X7551D01*
Y13619D01*
Y13615D01*
X7554D01*
Y13612D01*
Y13608D01*
X7558D01*
Y13605D01*
Y13601D01*
X7561D01*
Y13598D01*
X7565D01*
Y13594D01*
Y13591D01*
X7568D01*
Y13588D01*
Y13584D01*
X7571D01*
Y13581D01*
Y13577D01*
X7575D01*
Y13574D01*
X7578D01*
Y13570D01*
Y13567D01*
X7582D01*
Y13564D01*
X7585D01*
Y13567D01*
X7589D01*
Y13570D01*
X7592D01*
Y13574D01*
Y13577D01*
X7595D01*
Y13581D01*
Y13584D01*
X7599D01*
Y13588D01*
X7602D01*
Y13591D01*
Y13594D01*
X7606D01*
Y13598D01*
Y13601D01*
X7609D01*
Y13605D01*
X7613D01*
Y13608D01*
Y13612D01*
X7616D01*
Y13615D01*
X7619D01*
Y13619D01*
Y13622D01*
X7616D01*
Y13625D01*
X7613D01*
Y13629D01*
Y13632D01*
X7609D01*
Y13636D01*
Y13639D01*
X7606D01*
Y13643D01*
Y13646D01*
X7602D01*
Y13649D01*
X7599D01*
Y13653D01*
Y13656D01*
X7595D01*
Y13660D01*
Y13663D01*
X7592D01*
Y13667D01*
Y13670D01*
X7589D01*
Y13673D01*
X7585D01*
Y13677D01*
Y13680D01*
X7582D01*
Y13684D01*
Y13687D01*
X7578D01*
Y13691D01*
Y13694D01*
X7575D01*
Y13697D01*
X7571D01*
Y13701D01*
Y13704D01*
X7568D01*
Y13708D01*
Y13711D01*
X7565D01*
Y13715D01*
X7561D01*
Y13718D01*
Y13721D01*
X7558D01*
Y13725D01*
Y13728D01*
X7554D01*
Y13732D01*
Y13735D01*
X7551D01*
Y13739D01*
X7547D01*
Y13742D01*
Y13745D01*
X7544D01*
Y13749D01*
Y13752D01*
X7541D01*
Y13756D01*
Y13759D01*
X7537D01*
Y13763D01*
X7534D01*
Y13766D01*
Y13769D01*
X7530D01*
Y13773D01*
Y13776D01*
X7527D01*
Y13780D01*
Y13783D01*
X7523D01*
Y13787D01*
X7520D01*
Y13790D01*
Y13793D01*
X7517D01*
Y13797D01*
Y13800D01*
X7513D01*
Y13804D01*
X7510D01*
Y13807D01*
Y13811D01*
X7506D01*
Y13814D01*
Y13817D01*
X7503D01*
Y13821D01*
Y13824D01*
X7499D01*
Y13828D01*
X7496D01*
Y13831D01*
Y13835D01*
X7493D01*
Y13838D01*
Y13841D01*
X7489D01*
Y13845D01*
Y13848D01*
X7486D01*
Y13852D01*
X7482D01*
Y13855D01*
Y13859D01*
X7479D01*
Y13862D01*
Y13865D01*
X7475D01*
Y13869D01*
Y13872D01*
X7472D01*
Y13876D01*
X7468D01*
Y13879D01*
Y13883D01*
X7465D01*
Y13886D01*
Y13889D01*
X7462D01*
Y13893D01*
X7458D01*
Y13896D01*
Y13900D01*
X7455D01*
Y13903D01*
Y13907D01*
X7451D01*
Y13910D01*
Y13913D01*
X7448D01*
Y13917D01*
X7444D01*
Y13920D01*
Y13924D01*
X7441D01*
Y13927D01*
Y13931D01*
X7438D01*
Y13934D01*
Y13937D01*
X7434D01*
Y13941D01*
X7431D01*
Y13944D01*
Y13948D01*
X7427D01*
Y13951D01*
Y13955D01*
X7424D01*
Y13958D01*
Y13961D01*
X7420D01*
Y13965D01*
X7417D01*
Y13968D01*
Y13972D01*
X7414D01*
Y13975D01*
Y13979D01*
X7410D01*
Y13982D01*
X7407D01*
Y13985D01*
Y13989D01*
X7403D01*
Y13992D01*
Y13996D01*
X7400D01*
Y13999D01*
Y14003D01*
X7396D01*
Y14006D01*
X7393D01*
Y14009D01*
Y14013D01*
X7390D01*
Y14016D01*
Y14020D01*
X7386D01*
Y14023D01*
Y14027D01*
X7383D01*
Y14030D01*
X7379D01*
Y14033D01*
D02*
G37*
G36*
X7304Y13619D02*
X7297D01*
Y13615D01*
Y13612D01*
X7294D01*
Y13608D01*
Y13605D01*
X7290D01*
Y13601D01*
Y13598D01*
X7287D01*
Y13594D01*
Y13591D01*
X7283D01*
Y13588D01*
X7280D01*
Y13584D01*
Y13581D01*
X7276D01*
Y13577D01*
Y13574D01*
X7273D01*
Y13570D01*
Y13567D01*
X7270D01*
Y13564D01*
Y13560D01*
X7266D01*
Y13557D01*
X7263D01*
Y13553D01*
Y13550D01*
X7259D01*
Y13546D01*
Y13543D01*
X7256D01*
Y13540D01*
Y13536D01*
X7252D01*
Y13533D01*
Y13529D01*
X7249D01*
Y13526D01*
X7246D01*
Y13522D01*
Y13519D01*
X7242D01*
Y13516D01*
Y13512D01*
X7239D01*
Y13509D01*
Y13505D01*
X7235D01*
Y13502D01*
X7335D01*
Y13505D01*
X7331D01*
Y13509D01*
Y13512D01*
Y13516D01*
Y13519D01*
X7328D01*
Y13522D01*
Y13526D01*
Y13529D01*
Y13533D01*
X7324D01*
Y13536D01*
Y13540D01*
Y13543D01*
Y13546D01*
X7321D01*
Y13550D01*
Y13553D01*
Y13557D01*
Y13560D01*
X7318D01*
Y13564D01*
Y13567D01*
Y13570D01*
Y13574D01*
X7314D01*
Y13577D01*
Y13581D01*
Y13584D01*
Y13588D01*
X7311D01*
Y13591D01*
Y13594D01*
Y13598D01*
X7307D01*
Y13601D01*
Y13605D01*
Y13608D01*
Y13612D01*
X7304D01*
Y13615D01*
Y13619D01*
D02*
G37*
G36*
X6786Y13749D02*
X6728D01*
Y13745D01*
X6724D01*
Y13742D01*
Y13739D01*
X6721D01*
Y13735D01*
Y13732D01*
X6717D01*
Y13728D01*
Y13725D01*
X6714D01*
Y13721D01*
Y13718D01*
Y13715D01*
X6711D01*
Y13711D01*
Y13708D01*
X6707D01*
Y13704D01*
Y13701D01*
X6704D01*
Y13697D01*
Y13694D01*
X6700D01*
Y13691D01*
Y13687D01*
Y13684D01*
X6697D01*
Y13680D01*
Y13677D01*
X6693D01*
Y13673D01*
Y13670D01*
X6690D01*
Y13667D01*
Y13663D01*
X6687D01*
Y13660D01*
Y13656D01*
Y13653D01*
X6683D01*
Y13649D01*
Y13646D01*
X6680D01*
Y13643D01*
Y13639D01*
X6676D01*
Y13636D01*
Y13632D01*
X6673D01*
Y13629D01*
Y13625D01*
X6669D01*
Y13622D01*
Y13619D01*
Y13615D01*
X6666D01*
Y13612D01*
Y13608D01*
X6663D01*
Y13605D01*
Y13601D01*
X6659D01*
Y13598D01*
Y13594D01*
X6656D01*
Y13591D01*
Y13588D01*
Y13584D01*
X6652D01*
Y13581D01*
Y13577D01*
X6649D01*
Y13574D01*
Y13570D01*
X6645D01*
Y13567D01*
Y13564D01*
X6642D01*
Y13560D01*
Y13557D01*
Y13553D01*
X6639D01*
Y13550D01*
Y13546D01*
X6635D01*
Y13543D01*
Y13540D01*
X6632D01*
Y13536D01*
Y13533D01*
X6628D01*
Y13529D01*
Y13526D01*
Y13522D01*
X6625D01*
Y13519D01*
Y13516D01*
X6621D01*
Y13512D01*
Y13509D01*
X6618D01*
Y13505D01*
Y13502D01*
X6680D01*
Y13505D01*
X6683D01*
Y13509D01*
Y13512D01*
X6687D01*
Y13516D01*
Y13519D01*
X6690D01*
Y13522D01*
Y13526D01*
Y13529D01*
X6693D01*
Y13533D01*
Y13536D01*
X6697D01*
Y13540D01*
Y13543D01*
Y13546D01*
X6700D01*
Y13550D01*
Y13553D01*
X6813D01*
Y13550D01*
Y13546D01*
Y13543D01*
X6817D01*
Y13540D01*
Y13536D01*
X6820D01*
Y13533D01*
Y13529D01*
Y13526D01*
X6824D01*
Y13522D01*
Y13519D01*
X6827D01*
Y13516D01*
Y13512D01*
X6831D01*
Y13509D01*
Y13505D01*
Y13502D01*
X6892D01*
Y13505D01*
Y13509D01*
Y13512D01*
X6889D01*
Y13516D01*
Y13519D01*
X6885D01*
Y13522D01*
Y13526D01*
X6882D01*
Y13529D01*
Y13533D01*
Y13536D01*
X6879D01*
Y13540D01*
Y13543D01*
X6875D01*
Y13546D01*
Y13550D01*
X6872D01*
Y13553D01*
Y13557D01*
X6868D01*
Y13560D01*
Y13564D01*
Y13567D01*
X6865D01*
Y13570D01*
Y13574D01*
X6861D01*
Y13577D01*
Y13581D01*
X6858D01*
Y13584D01*
Y13588D01*
X6855D01*
Y13591D01*
Y13594D01*
Y13598D01*
X6851D01*
Y13601D01*
Y13605D01*
X6848D01*
Y13608D01*
Y13612D01*
X6844D01*
Y13615D01*
Y13619D01*
X6841D01*
Y13622D01*
Y13625D01*
Y13629D01*
X6837D01*
Y13632D01*
Y13636D01*
X6834D01*
Y13639D01*
Y13643D01*
X6831D01*
Y13646D01*
Y13649D01*
X6827D01*
Y13653D01*
Y13656D01*
Y13660D01*
X6824D01*
Y13663D01*
Y13667D01*
X6820D01*
Y13670D01*
Y13673D01*
X6817D01*
Y13677D01*
Y13680D01*
X6813D01*
Y13684D01*
Y13687D01*
Y13691D01*
X6810D01*
Y13694D01*
Y13697D01*
X6807D01*
Y13701D01*
Y13704D01*
X6803D01*
Y13708D01*
Y13711D01*
X6800D01*
Y13715D01*
Y13718D01*
Y13721D01*
X6796D01*
Y13725D01*
Y13728D01*
X6793D01*
Y13732D01*
Y13735D01*
X6789D01*
Y13739D01*
Y13742D01*
X6786D01*
Y13745D01*
Y13749D01*
D02*
G37*
G36*
X6597D02*
X6536D01*
Y13745D01*
Y13742D01*
Y13739D01*
Y13735D01*
Y13732D01*
Y13728D01*
Y13725D01*
Y13721D01*
Y13718D01*
Y13715D01*
Y13711D01*
Y13708D01*
Y13704D01*
Y13701D01*
Y13697D01*
Y13694D01*
Y13691D01*
Y13687D01*
Y13684D01*
Y13680D01*
Y13677D01*
Y13673D01*
Y13670D01*
Y13667D01*
Y13663D01*
Y13660D01*
Y13656D01*
Y13653D01*
Y13649D01*
Y13646D01*
Y13643D01*
Y13639D01*
Y13636D01*
Y13632D01*
Y13629D01*
Y13625D01*
Y13622D01*
Y13619D01*
Y13615D01*
Y13612D01*
Y13608D01*
Y13605D01*
Y13601D01*
Y13598D01*
Y13594D01*
Y13591D01*
Y13588D01*
Y13584D01*
Y13581D01*
Y13577D01*
Y13574D01*
Y13570D01*
Y13567D01*
Y13564D01*
Y13560D01*
Y13557D01*
Y13553D01*
Y13550D01*
X6416D01*
Y13546D01*
Y13543D01*
Y13540D01*
Y13536D01*
Y13533D01*
Y13529D01*
Y13526D01*
Y13522D01*
Y13519D01*
Y13516D01*
Y13512D01*
Y13509D01*
Y13505D01*
Y13502D01*
X6597D01*
Y13505D01*
Y13509D01*
Y13512D01*
Y13516D01*
Y13519D01*
Y13522D01*
Y13526D01*
Y13529D01*
Y13533D01*
Y13536D01*
Y13540D01*
Y13543D01*
Y13546D01*
Y13550D01*
Y13553D01*
Y13557D01*
Y13560D01*
Y13564D01*
Y13567D01*
Y13570D01*
Y13574D01*
Y13577D01*
Y13581D01*
Y13584D01*
Y13588D01*
Y13591D01*
Y13594D01*
Y13598D01*
Y13601D01*
Y13605D01*
Y13608D01*
Y13612D01*
Y13615D01*
Y13619D01*
Y13622D01*
Y13625D01*
Y13629D01*
Y13632D01*
Y13636D01*
Y13639D01*
Y13643D01*
Y13646D01*
Y13649D01*
Y13653D01*
Y13656D01*
Y13660D01*
Y13663D01*
Y13667D01*
Y13670D01*
Y13673D01*
Y13677D01*
Y13680D01*
Y13684D01*
Y13687D01*
Y13691D01*
Y13694D01*
Y13697D01*
Y13701D01*
Y13704D01*
Y13708D01*
Y13711D01*
Y13715D01*
Y13718D01*
Y13721D01*
Y13725D01*
Y13728D01*
Y13732D01*
Y13735D01*
Y13739D01*
Y13742D01*
Y13745D01*
Y13749D01*
D02*
G37*
G36*
X6385D02*
X6326D01*
Y13745D01*
Y13742D01*
Y13739D01*
Y13735D01*
Y13732D01*
Y13728D01*
Y13725D01*
Y13721D01*
Y13718D01*
Y13715D01*
Y13711D01*
Y13708D01*
Y13704D01*
Y13701D01*
Y13697D01*
Y13694D01*
Y13691D01*
Y13687D01*
Y13684D01*
Y13680D01*
Y13677D01*
Y13673D01*
Y13670D01*
Y13667D01*
Y13663D01*
Y13660D01*
Y13656D01*
Y13653D01*
Y13649D01*
Y13646D01*
Y13643D01*
Y13639D01*
Y13636D01*
Y13632D01*
Y13629D01*
Y13625D01*
Y13622D01*
Y13619D01*
Y13615D01*
Y13612D01*
Y13608D01*
Y13605D01*
Y13601D01*
Y13598D01*
Y13594D01*
Y13591D01*
Y13588D01*
Y13584D01*
Y13581D01*
Y13577D01*
Y13574D01*
Y13570D01*
Y13567D01*
Y13564D01*
Y13560D01*
Y13557D01*
Y13553D01*
Y13550D01*
X6203D01*
Y13546D01*
Y13543D01*
Y13540D01*
Y13536D01*
Y13533D01*
Y13529D01*
Y13526D01*
Y13522D01*
Y13519D01*
Y13516D01*
Y13512D01*
Y13509D01*
Y13505D01*
Y13502D01*
X6385D01*
Y13505D01*
Y13509D01*
Y13512D01*
Y13516D01*
Y13519D01*
Y13522D01*
Y13526D01*
Y13529D01*
Y13533D01*
Y13536D01*
Y13540D01*
Y13543D01*
Y13546D01*
Y13550D01*
Y13553D01*
Y13557D01*
Y13560D01*
Y13564D01*
Y13567D01*
Y13570D01*
Y13574D01*
Y13577D01*
Y13581D01*
Y13584D01*
Y13588D01*
Y13591D01*
Y13594D01*
Y13598D01*
Y13601D01*
Y13605D01*
Y13608D01*
Y13612D01*
Y13615D01*
Y13619D01*
Y13622D01*
Y13625D01*
Y13629D01*
Y13632D01*
Y13636D01*
Y13639D01*
Y13643D01*
Y13646D01*
Y13649D01*
Y13653D01*
Y13656D01*
Y13660D01*
Y13663D01*
Y13667D01*
Y13670D01*
Y13673D01*
Y13677D01*
Y13680D01*
Y13684D01*
Y13687D01*
Y13691D01*
Y13694D01*
Y13697D01*
Y13701D01*
Y13704D01*
Y13708D01*
Y13711D01*
Y13715D01*
Y13718D01*
Y13721D01*
Y13725D01*
Y13728D01*
Y13732D01*
Y13735D01*
Y13739D01*
Y13742D01*
Y13745D01*
Y13749D01*
D02*
G37*
G36*
X5726D02*
X5664D01*
Y13745D01*
Y13742D01*
X5661D01*
Y13739D01*
Y13735D01*
Y13732D01*
X5658D01*
Y13728D01*
Y13725D01*
X5654D01*
Y13721D01*
Y13718D01*
X5651D01*
Y13715D01*
Y13711D01*
X5647D01*
Y13708D01*
Y13704D01*
Y13701D01*
X5644D01*
Y13697D01*
Y13694D01*
X5640D01*
Y13691D01*
Y13687D01*
X5637D01*
Y13684D01*
Y13680D01*
X5634D01*
Y13677D01*
Y13673D01*
X5630D01*
Y13670D01*
Y13667D01*
Y13663D01*
X5627D01*
Y13660D01*
Y13656D01*
X5623D01*
Y13653D01*
Y13649D01*
X5620D01*
Y13646D01*
Y13643D01*
X5616D01*
Y13639D01*
Y13636D01*
Y13632D01*
X5613D01*
Y13629D01*
Y13625D01*
X5610D01*
Y13622D01*
Y13619D01*
X5606D01*
Y13615D01*
Y13612D01*
X5603D01*
Y13608D01*
Y13605D01*
Y13601D01*
X5599D01*
Y13598D01*
Y13594D01*
X5596D01*
Y13591D01*
Y13588D01*
X5592D01*
Y13584D01*
Y13581D01*
X5589D01*
Y13577D01*
Y13574D01*
Y13570D01*
X5586D01*
Y13567D01*
Y13564D01*
X5582D01*
Y13560D01*
Y13557D01*
X5579D01*
Y13553D01*
Y13550D01*
X5575D01*
Y13546D01*
Y13543D01*
X5572D01*
Y13540D01*
Y13536D01*
Y13533D01*
X5568D01*
Y13529D01*
Y13526D01*
X5565D01*
Y13522D01*
Y13519D01*
X5562D01*
Y13516D01*
Y13512D01*
X5558D01*
Y13509D01*
Y13505D01*
Y13502D01*
X5620D01*
Y13505D01*
X5623D01*
Y13509D01*
Y13512D01*
Y13516D01*
X5627D01*
Y13519D01*
Y13522D01*
X5630D01*
Y13526D01*
Y13529D01*
X5634D01*
Y13533D01*
Y13536D01*
Y13540D01*
X5637D01*
Y13543D01*
Y13546D01*
X5640D01*
Y13550D01*
Y13553D01*
X5750D01*
Y13550D01*
X5754D01*
Y13546D01*
Y13543D01*
X5757D01*
Y13540D01*
Y13536D01*
Y13533D01*
X5761D01*
Y13529D01*
Y13526D01*
X5764D01*
Y13522D01*
Y13519D01*
Y13516D01*
X5767D01*
Y13512D01*
Y13509D01*
X5771D01*
Y13505D01*
Y13502D01*
X5833D01*
Y13505D01*
Y13509D01*
X5829D01*
Y13512D01*
Y13516D01*
Y13519D01*
X5826D01*
Y13522D01*
Y13526D01*
X5822D01*
Y13529D01*
Y13533D01*
X5819D01*
Y13536D01*
Y13540D01*
X5815D01*
Y13543D01*
Y13546D01*
Y13550D01*
X5812D01*
Y13553D01*
Y13557D01*
X5809D01*
Y13560D01*
Y13564D01*
X5805D01*
Y13567D01*
Y13570D01*
X5802D01*
Y13574D01*
Y13577D01*
Y13581D01*
X5798D01*
Y13584D01*
Y13588D01*
X5795D01*
Y13591D01*
Y13594D01*
X5791D01*
Y13598D01*
Y13601D01*
X5788D01*
Y13605D01*
Y13608D01*
X5785D01*
Y13612D01*
Y13615D01*
Y13619D01*
X5781D01*
Y13622D01*
Y13625D01*
X5778D01*
Y13629D01*
Y13632D01*
X5774D01*
Y13636D01*
Y13639D01*
X5771D01*
Y13643D01*
Y13646D01*
Y13649D01*
X5767D01*
Y13653D01*
Y13656D01*
X5764D01*
Y13660D01*
Y13663D01*
X5761D01*
Y13667D01*
Y13670D01*
X5757D01*
Y13673D01*
Y13677D01*
Y13680D01*
X5754D01*
Y13684D01*
Y13687D01*
X5750D01*
Y13691D01*
Y13694D01*
X5747D01*
Y13697D01*
Y13701D01*
X5743D01*
Y13704D01*
Y13708D01*
Y13711D01*
X5740D01*
Y13715D01*
Y13718D01*
X5737D01*
Y13721D01*
Y13725D01*
X5733D01*
Y13728D01*
Y13732D01*
X5730D01*
Y13735D01*
Y13739D01*
Y13742D01*
X5726D01*
Y13745D01*
Y13749D01*
D02*
G37*
G36*
X5538D02*
X5328D01*
Y13745D01*
Y13742D01*
Y13739D01*
Y13735D01*
Y13732D01*
Y13728D01*
Y13725D01*
Y13721D01*
Y13718D01*
Y13715D01*
Y13711D01*
Y13708D01*
Y13704D01*
X5332D01*
Y13701D01*
X5335D01*
Y13697D01*
X5339D01*
Y13694D01*
X5342D01*
Y13691D01*
Y13687D01*
X5346D01*
Y13684D01*
X5349D01*
Y13680D01*
X5352D01*
Y13677D01*
X5356D01*
Y13673D01*
X5359D01*
Y13670D01*
Y13667D01*
X5363D01*
Y13663D01*
X5366D01*
Y13660D01*
X5370D01*
Y13656D01*
X5373D01*
Y13653D01*
Y13649D01*
X5376D01*
Y13646D01*
X5380D01*
Y13643D01*
X5383D01*
Y13639D01*
X5387D01*
Y13636D01*
X5390D01*
Y13632D01*
Y13629D01*
X5394D01*
Y13625D01*
X5397D01*
Y13622D01*
X5400D01*
Y13619D01*
X5404D01*
Y13615D01*
X5407D01*
Y13612D01*
Y13608D01*
X5411D01*
Y13605D01*
X5414D01*
Y13601D01*
X5418D01*
Y13598D01*
X5421D01*
Y13594D01*
X5424D01*
Y13591D01*
Y13588D01*
X5428D01*
Y13584D01*
X5431D01*
Y13581D01*
X5435D01*
Y13577D01*
X5438D01*
Y13574D01*
Y13570D01*
X5442D01*
Y13567D01*
X5445D01*
Y13564D01*
X5448D01*
Y13560D01*
X5452D01*
Y13557D01*
X5455D01*
Y13553D01*
Y13550D01*
X5322D01*
Y13546D01*
Y13543D01*
Y13540D01*
Y13536D01*
Y13533D01*
Y13529D01*
Y13526D01*
Y13522D01*
Y13519D01*
Y13516D01*
Y13512D01*
Y13509D01*
Y13505D01*
Y13502D01*
X5538D01*
Y13505D01*
Y13509D01*
Y13512D01*
Y13516D01*
Y13519D01*
Y13522D01*
Y13526D01*
Y13529D01*
Y13533D01*
Y13536D01*
Y13540D01*
Y13543D01*
X5534D01*
Y13546D01*
Y13550D01*
X5531D01*
Y13553D01*
X5527D01*
Y13557D01*
X5524D01*
Y13560D01*
X5520D01*
Y13564D01*
X5517D01*
Y13567D01*
Y13570D01*
X5514D01*
Y13574D01*
X5510D01*
Y13577D01*
X5507D01*
Y13581D01*
X5503D01*
Y13584D01*
X5500D01*
Y13588D01*
Y13591D01*
X5496D01*
Y13594D01*
X5493D01*
Y13598D01*
X5490D01*
Y13601D01*
X5486D01*
Y13605D01*
X5483D01*
Y13608D01*
Y13612D01*
X5479D01*
Y13615D01*
X5476D01*
Y13619D01*
X5472D01*
Y13622D01*
X5469D01*
Y13625D01*
X5466D01*
Y13629D01*
Y13632D01*
X5462D01*
Y13636D01*
X5459D01*
Y13639D01*
X5455D01*
Y13643D01*
X5452D01*
Y13646D01*
X5448D01*
Y13649D01*
Y13653D01*
X5445D01*
Y13656D01*
X5442D01*
Y13660D01*
X5438D01*
Y13663D01*
X5435D01*
Y13667D01*
Y13670D01*
X5431D01*
Y13673D01*
X5428D01*
Y13677D01*
X5424D01*
Y13680D01*
X5421D01*
Y13684D01*
X5418D01*
Y13687D01*
Y13691D01*
X5414D01*
Y13694D01*
X5411D01*
Y13697D01*
X5538D01*
Y13701D01*
Y13704D01*
Y13708D01*
Y13711D01*
Y13715D01*
Y13718D01*
Y13721D01*
Y13725D01*
Y13728D01*
Y13732D01*
Y13735D01*
Y13739D01*
Y13742D01*
Y13745D01*
Y13749D01*
D02*
G37*
G36*
X5198D02*
X5136D01*
Y13745D01*
Y13742D01*
X5133D01*
Y13739D01*
Y13735D01*
X5129D01*
Y13732D01*
Y13728D01*
Y13725D01*
X5126D01*
Y13721D01*
Y13718D01*
X5123D01*
Y13715D01*
Y13711D01*
X5119D01*
Y13708D01*
Y13704D01*
X5116D01*
Y13701D01*
Y13697D01*
Y13694D01*
X5112D01*
Y13691D01*
Y13687D01*
X5109D01*
Y13684D01*
Y13680D01*
X5105D01*
Y13677D01*
Y13673D01*
X5102D01*
Y13670D01*
Y13667D01*
Y13663D01*
X5099D01*
Y13660D01*
Y13656D01*
X5095D01*
Y13653D01*
Y13649D01*
X5092D01*
Y13646D01*
Y13643D01*
X5088D01*
Y13639D01*
Y13636D01*
Y13632D01*
X5085D01*
Y13629D01*
Y13625D01*
X5081D01*
Y13622D01*
Y13619D01*
X5078D01*
Y13615D01*
Y13612D01*
X5075D01*
Y13608D01*
Y13605D01*
X5071D01*
Y13601D01*
Y13598D01*
Y13594D01*
X5068D01*
Y13591D01*
Y13588D01*
X5064D01*
Y13584D01*
Y13581D01*
X5061D01*
Y13577D01*
Y13574D01*
X5057D01*
Y13570D01*
Y13567D01*
Y13564D01*
X5054D01*
Y13560D01*
Y13557D01*
X5051D01*
Y13553D01*
Y13550D01*
X5047D01*
Y13546D01*
Y13543D01*
X5044D01*
Y13540D01*
Y13536D01*
Y13533D01*
X5040D01*
Y13529D01*
Y13526D01*
X5037D01*
Y13522D01*
Y13519D01*
X5033D01*
Y13516D01*
Y13512D01*
X5030D01*
Y13509D01*
Y13505D01*
Y13502D01*
X5092D01*
Y13505D01*
X5095D01*
Y13509D01*
Y13512D01*
Y13516D01*
X5099D01*
Y13519D01*
Y13522D01*
X5102D01*
Y13526D01*
Y13529D01*
Y13533D01*
X5105D01*
Y13536D01*
Y13540D01*
X5109D01*
Y13543D01*
Y13546D01*
X5112D01*
Y13550D01*
Y13553D01*
X5222D01*
Y13550D01*
X5225D01*
Y13546D01*
Y13543D01*
Y13540D01*
X5229D01*
Y13536D01*
Y13533D01*
X5232D01*
Y13529D01*
Y13526D01*
X5236D01*
Y13522D01*
Y13519D01*
Y13516D01*
X5239D01*
Y13512D01*
Y13509D01*
X5243D01*
Y13505D01*
Y13502D01*
X5304D01*
Y13505D01*
Y13509D01*
X5301D01*
Y13512D01*
Y13516D01*
X5298D01*
Y13519D01*
Y13522D01*
Y13526D01*
X5294D01*
Y13529D01*
Y13533D01*
X5291D01*
Y13536D01*
Y13540D01*
X5287D01*
Y13543D01*
Y13546D01*
X5284D01*
Y13550D01*
Y13553D01*
Y13557D01*
X5280D01*
Y13560D01*
Y13564D01*
X5277D01*
Y13567D01*
Y13570D01*
X5274D01*
Y13574D01*
Y13577D01*
X5270D01*
Y13581D01*
Y13584D01*
Y13588D01*
X5267D01*
Y13591D01*
Y13594D01*
X5263D01*
Y13598D01*
Y13601D01*
X5260D01*
Y13605D01*
Y13608D01*
X5256D01*
Y13612D01*
Y13615D01*
Y13619D01*
X5253D01*
Y13622D01*
Y13625D01*
X5249D01*
Y13629D01*
Y13632D01*
X5246D01*
Y13636D01*
Y13639D01*
X5243D01*
Y13643D01*
Y13646D01*
Y13649D01*
X5239D01*
Y13653D01*
Y13656D01*
X5236D01*
Y13660D01*
Y13663D01*
X5232D01*
Y13667D01*
Y13670D01*
X5229D01*
Y13673D01*
Y13677D01*
Y13680D01*
X5225D01*
Y13684D01*
Y13687D01*
X5222D01*
Y13691D01*
Y13694D01*
X5219D01*
Y13697D01*
Y13701D01*
X5215D01*
Y13704D01*
Y13708D01*
Y13711D01*
X5212D01*
Y13715D01*
Y13718D01*
X5208D01*
Y13721D01*
Y13725D01*
X5205D01*
Y13728D01*
Y13732D01*
X5201D01*
Y13735D01*
Y13739D01*
Y13742D01*
X5198D01*
Y13745D01*
Y13749D01*
D02*
G37*
G36*
X5013D02*
X4889D01*
Y13745D01*
X4865D01*
Y13742D01*
X4855D01*
Y13739D01*
X4845D01*
Y13735D01*
X4838D01*
Y13732D01*
X4835D01*
Y13728D01*
X4828D01*
Y13725D01*
X4824D01*
Y13721D01*
X4821D01*
Y13718D01*
X4817D01*
Y13715D01*
X4814D01*
Y13711D01*
X4810D01*
Y13708D01*
Y13704D01*
X4807D01*
Y13701D01*
Y13697D01*
X4804D01*
Y13694D01*
Y13691D01*
X4800D01*
Y13687D01*
Y13684D01*
Y13680D01*
Y13677D01*
X4797D01*
Y13673D01*
Y13670D01*
Y13667D01*
Y13663D01*
Y13660D01*
Y13656D01*
Y13653D01*
Y13649D01*
Y13646D01*
Y13643D01*
Y13639D01*
X4800D01*
Y13636D01*
Y13632D01*
Y13629D01*
Y13625D01*
X4804D01*
Y13622D01*
Y13619D01*
X4807D01*
Y13615D01*
Y13612D01*
X4810D01*
Y13608D01*
Y13605D01*
X4814D01*
Y13601D01*
X4817D01*
Y13598D01*
X4821D01*
Y13594D01*
X4824D01*
Y13591D01*
X4828D01*
Y13588D01*
X4835D01*
Y13584D01*
X4841D01*
Y13581D01*
X4845D01*
Y13577D01*
X4841D01*
Y13574D01*
Y13570D01*
X4838D01*
Y13567D01*
X4835D01*
Y13564D01*
X4831D01*
Y13560D01*
Y13557D01*
X4828D01*
Y13553D01*
X4824D01*
Y13550D01*
Y13546D01*
X4821D01*
Y13543D01*
X4817D01*
Y13540D01*
Y13536D01*
X4814D01*
Y13533D01*
X4810D01*
Y13529D01*
Y13526D01*
X4807D01*
Y13522D01*
X4804D01*
Y13519D01*
X4800D01*
Y13516D01*
Y13512D01*
X4797D01*
Y13509D01*
X4793D01*
Y13505D01*
Y13502D01*
X4859D01*
Y13505D01*
X4862D01*
Y13509D01*
Y13512D01*
X4865D01*
Y13516D01*
X4869D01*
Y13519D01*
Y13522D01*
X4872D01*
Y13526D01*
X4876D01*
Y13529D01*
Y13533D01*
X4879D01*
Y13536D01*
X4883D01*
Y13540D01*
X4886D01*
Y13543D01*
Y13546D01*
X4889D01*
Y13550D01*
X4893D01*
Y13553D01*
Y13557D01*
X4896D01*
Y13560D01*
X4900D01*
Y13564D01*
Y13567D01*
X4951D01*
Y13564D01*
Y13560D01*
Y13557D01*
Y13553D01*
Y13550D01*
Y13546D01*
Y13543D01*
Y13540D01*
Y13536D01*
Y13533D01*
Y13529D01*
Y13526D01*
Y13522D01*
Y13519D01*
Y13516D01*
Y13512D01*
Y13509D01*
Y13505D01*
Y13502D01*
X5013D01*
Y13505D01*
Y13509D01*
Y13512D01*
Y13516D01*
Y13519D01*
Y13522D01*
Y13526D01*
Y13529D01*
Y13533D01*
Y13536D01*
Y13540D01*
Y13543D01*
Y13546D01*
Y13550D01*
Y13553D01*
Y13557D01*
Y13560D01*
Y13564D01*
Y13567D01*
Y13570D01*
Y13574D01*
Y13577D01*
Y13581D01*
Y13584D01*
Y13588D01*
Y13591D01*
Y13594D01*
Y13598D01*
Y13601D01*
Y13605D01*
Y13608D01*
Y13612D01*
Y13615D01*
Y13619D01*
Y13622D01*
Y13625D01*
Y13629D01*
Y13632D01*
Y13636D01*
Y13639D01*
Y13643D01*
Y13646D01*
Y13649D01*
Y13653D01*
Y13656D01*
Y13660D01*
Y13663D01*
Y13667D01*
Y13670D01*
Y13673D01*
Y13677D01*
Y13680D01*
Y13684D01*
Y13687D01*
Y13691D01*
Y13694D01*
Y13697D01*
Y13701D01*
Y13704D01*
Y13708D01*
Y13711D01*
Y13715D01*
Y13718D01*
Y13721D01*
Y13725D01*
Y13728D01*
Y13732D01*
Y13735D01*
Y13739D01*
Y13742D01*
Y13745D01*
Y13749D01*
D02*
G37*
G36*
X4776D02*
X4646D01*
Y13745D01*
X4622D01*
Y13742D01*
X4612D01*
Y13739D01*
X4601D01*
Y13735D01*
X4594D01*
Y13732D01*
X4588D01*
Y13728D01*
X4581D01*
Y13725D01*
X4574D01*
Y13721D01*
X4570D01*
Y13718D01*
X4567D01*
Y13715D01*
X4564D01*
Y13711D01*
X4560D01*
Y13708D01*
X4557D01*
Y13704D01*
X4553D01*
Y13701D01*
X4550D01*
Y13697D01*
X4546D01*
Y13694D01*
Y13691D01*
X4543D01*
Y13687D01*
Y13684D01*
X4540D01*
Y13680D01*
Y13677D01*
X4536D01*
Y13673D01*
Y13670D01*
X4533D01*
Y13667D01*
Y13663D01*
Y13660D01*
X4529D01*
Y13656D01*
Y13653D01*
Y13649D01*
Y13646D01*
Y13643D01*
Y13639D01*
X4526D01*
Y13636D01*
Y13632D01*
Y13629D01*
Y13625D01*
Y13622D01*
Y13619D01*
Y13615D01*
Y13612D01*
X4529D01*
Y13608D01*
Y13605D01*
Y13601D01*
Y13598D01*
Y13594D01*
Y13591D01*
X4533D01*
Y13588D01*
Y13584D01*
Y13581D01*
Y13577D01*
X4536D01*
Y13574D01*
Y13570D01*
X4540D01*
Y13567D01*
Y13564D01*
X4543D01*
Y13560D01*
Y13557D01*
X4546D01*
Y13553D01*
X4550D01*
Y13550D01*
Y13546D01*
X4553D01*
Y13543D01*
X4557D01*
Y13540D01*
X4560D01*
Y13536D01*
X4564D01*
Y13533D01*
X4567D01*
Y13529D01*
X4570D01*
Y13526D01*
X4577D01*
Y13522D01*
X4581D01*
Y13519D01*
X4588D01*
Y13516D01*
X4594D01*
Y13512D01*
X4605D01*
Y13509D01*
X4615D01*
Y13505D01*
X4629D01*
Y13502D01*
X4776D01*
Y13505D01*
Y13509D01*
Y13512D01*
Y13516D01*
Y13519D01*
Y13522D01*
Y13526D01*
Y13529D01*
Y13533D01*
Y13536D01*
Y13540D01*
Y13543D01*
Y13546D01*
Y13550D01*
Y13553D01*
Y13557D01*
Y13560D01*
Y13564D01*
Y13567D01*
Y13570D01*
Y13574D01*
Y13577D01*
Y13581D01*
Y13584D01*
Y13588D01*
Y13591D01*
Y13594D01*
Y13598D01*
Y13601D01*
Y13605D01*
Y13608D01*
Y13612D01*
Y13615D01*
Y13619D01*
Y13622D01*
Y13625D01*
Y13629D01*
Y13632D01*
Y13636D01*
Y13639D01*
Y13643D01*
Y13646D01*
Y13649D01*
Y13653D01*
Y13656D01*
Y13660D01*
Y13663D01*
Y13667D01*
Y13670D01*
Y13673D01*
Y13677D01*
Y13680D01*
Y13684D01*
Y13687D01*
Y13691D01*
Y13694D01*
Y13697D01*
Y13701D01*
Y13704D01*
Y13708D01*
Y13711D01*
Y13715D01*
Y13718D01*
Y13721D01*
Y13725D01*
Y13728D01*
Y13732D01*
Y13735D01*
Y13739D01*
Y13742D01*
Y13745D01*
Y13749D01*
D02*
G37*
G36*
X6889Y13382D02*
X6539D01*
Y13378D01*
Y13375D01*
Y13372D01*
Y13368D01*
Y13365D01*
Y13361D01*
X6889D01*
Y13365D01*
Y13368D01*
Y13372D01*
Y13375D01*
Y13378D01*
Y13382D01*
D02*
G37*
G36*
X4886D02*
X4536D01*
Y13378D01*
Y13375D01*
Y13372D01*
Y13368D01*
Y13365D01*
Y13361D01*
X4886D01*
Y13365D01*
Y13368D01*
Y13372D01*
Y13375D01*
Y13378D01*
Y13382D01*
D02*
G37*
G36*
X5291Y13430D02*
X5236D01*
Y13426D01*
X5232D01*
Y13423D01*
X5229D01*
Y13420D01*
X5225D01*
Y13416D01*
Y13413D01*
X5222D01*
Y13409D01*
X5219D01*
Y13406D01*
X5215D01*
Y13402D01*
X5212D01*
Y13399D01*
Y13396D01*
X5208D01*
Y13392D01*
X5205D01*
Y13389D01*
X5201D01*
Y13385D01*
Y13382D01*
X5198D01*
Y13378D01*
X5195D01*
Y13375D01*
X5191D01*
Y13372D01*
X5188D01*
Y13368D01*
Y13365D01*
X5184D01*
Y13361D01*
X5181D01*
Y13358D01*
X5177D01*
Y13361D01*
Y13365D01*
Y13368D01*
Y13372D01*
Y13375D01*
Y13378D01*
Y13382D01*
Y13385D01*
Y13389D01*
Y13392D01*
Y13396D01*
Y13399D01*
Y13402D01*
Y13406D01*
Y13409D01*
Y13413D01*
Y13416D01*
Y13420D01*
Y13423D01*
Y13426D01*
Y13430D01*
X5140D01*
Y13426D01*
Y13423D01*
Y13420D01*
Y13416D01*
Y13413D01*
Y13409D01*
Y13406D01*
Y13402D01*
Y13399D01*
Y13396D01*
Y13392D01*
Y13389D01*
Y13385D01*
Y13382D01*
Y13378D01*
Y13375D01*
Y13372D01*
Y13368D01*
Y13365D01*
Y13361D01*
Y13358D01*
Y13354D01*
Y13351D01*
Y13348D01*
Y13344D01*
Y13341D01*
Y13337D01*
Y13334D01*
Y13330D01*
Y13327D01*
Y13324D01*
Y13320D01*
Y13317D01*
X5198D01*
Y13320D01*
Y13324D01*
X5201D01*
Y13327D01*
X5205D01*
Y13330D01*
X5208D01*
Y13334D01*
Y13337D01*
X5212D01*
Y13341D01*
X5215D01*
Y13344D01*
X5219D01*
Y13348D01*
X5222D01*
Y13351D01*
Y13354D01*
X5225D01*
Y13358D01*
X5229D01*
Y13361D01*
X5232D01*
Y13365D01*
X5236D01*
Y13368D01*
Y13372D01*
X5239D01*
Y13375D01*
X5243D01*
Y13378D01*
X5246D01*
Y13382D01*
Y13385D01*
X5249D01*
Y13389D01*
X5253D01*
Y13392D01*
X5256D01*
Y13389D01*
Y13385D01*
Y13382D01*
Y13378D01*
Y13375D01*
Y13372D01*
Y13368D01*
Y13365D01*
Y13361D01*
Y13358D01*
Y13354D01*
Y13351D01*
Y13348D01*
Y13344D01*
Y13341D01*
Y13337D01*
Y13334D01*
Y13330D01*
Y13327D01*
Y13324D01*
Y13320D01*
Y13317D01*
X5291D01*
Y13320D01*
Y13324D01*
Y13327D01*
Y13330D01*
Y13334D01*
Y13337D01*
Y13341D01*
Y13344D01*
Y13348D01*
Y13351D01*
Y13354D01*
Y13358D01*
Y13361D01*
Y13365D01*
Y13368D01*
Y13372D01*
Y13375D01*
Y13378D01*
Y13382D01*
Y13385D01*
Y13389D01*
Y13392D01*
Y13396D01*
Y13399D01*
Y13402D01*
Y13406D01*
Y13409D01*
Y13413D01*
Y13416D01*
Y13420D01*
Y13423D01*
Y13426D01*
Y13430D01*
D02*
G37*
G36*
X5939D02*
X5901D01*
Y13426D01*
Y13423D01*
Y13420D01*
Y13416D01*
Y13413D01*
Y13409D01*
Y13406D01*
Y13402D01*
Y13399D01*
Y13396D01*
Y13392D01*
Y13389D01*
Y13385D01*
Y13382D01*
Y13378D01*
Y13375D01*
Y13372D01*
Y13368D01*
Y13365D01*
Y13361D01*
Y13358D01*
X5898D01*
Y13354D01*
Y13351D01*
X5891D01*
Y13348D01*
X5843D01*
Y13351D01*
X5839D01*
Y13354D01*
X5836D01*
Y13358D01*
Y13361D01*
X5833D01*
Y13365D01*
Y13368D01*
Y13372D01*
Y13375D01*
Y13378D01*
Y13382D01*
Y13385D01*
Y13389D01*
Y13392D01*
Y13396D01*
Y13399D01*
Y13402D01*
Y13406D01*
Y13409D01*
Y13413D01*
Y13416D01*
Y13420D01*
Y13423D01*
Y13426D01*
Y13430D01*
X5798D01*
Y13426D01*
Y13423D01*
Y13420D01*
Y13416D01*
Y13413D01*
Y13409D01*
Y13406D01*
Y13402D01*
Y13399D01*
Y13396D01*
Y13392D01*
Y13389D01*
Y13385D01*
Y13382D01*
Y13378D01*
Y13375D01*
Y13372D01*
Y13368D01*
Y13365D01*
Y13361D01*
Y13358D01*
Y13354D01*
Y13351D01*
Y13348D01*
Y13344D01*
Y13341D01*
Y13337D01*
X5802D01*
Y13334D01*
Y13330D01*
X5805D01*
Y13327D01*
X5809D01*
Y13324D01*
X5815D01*
Y13320D01*
X5822D01*
Y13317D01*
X5911D01*
Y13320D01*
X5918D01*
Y13324D01*
X5925D01*
Y13327D01*
X5929D01*
Y13330D01*
X5932D01*
Y13334D01*
Y13337D01*
X5935D01*
Y13341D01*
Y13344D01*
Y13348D01*
Y13351D01*
Y13354D01*
X5939D01*
Y13358D01*
Y13361D01*
Y13365D01*
Y13368D01*
Y13372D01*
Y13375D01*
Y13378D01*
Y13382D01*
Y13385D01*
Y13389D01*
Y13392D01*
Y13396D01*
Y13399D01*
Y13402D01*
Y13406D01*
Y13409D01*
Y13413D01*
Y13416D01*
Y13420D01*
Y13423D01*
Y13426D01*
Y13430D01*
D02*
G37*
G36*
X6443Y13433D02*
X6371D01*
Y13430D01*
X6354D01*
Y13426D01*
X6347D01*
Y13423D01*
X6344D01*
Y13420D01*
Y13416D01*
X6340D01*
Y13413D01*
Y13409D01*
Y13406D01*
Y13402D01*
Y13399D01*
Y13396D01*
Y13392D01*
X6378D01*
Y13396D01*
Y13399D01*
Y13402D01*
X6436D01*
Y13399D01*
X6440D01*
Y13396D01*
Y13392D01*
X6433D01*
Y13389D01*
X6357D01*
Y13385D01*
X6347D01*
Y13382D01*
X6344D01*
Y13378D01*
X6340D01*
Y13375D01*
X6337D01*
Y13372D01*
Y13368D01*
Y13365D01*
Y13361D01*
Y13358D01*
Y13354D01*
Y13351D01*
Y13348D01*
Y13344D01*
Y13341D01*
Y13337D01*
Y13334D01*
Y13330D01*
X6340D01*
Y13327D01*
X6344D01*
Y13324D01*
X6347D01*
Y13320D01*
X6357D01*
Y13317D01*
X6457D01*
Y13320D01*
X6464D01*
Y13324D01*
X6470D01*
Y13327D01*
Y13330D01*
X6474D01*
Y13334D01*
Y13337D01*
Y13341D01*
X6477D01*
Y13344D01*
Y13348D01*
Y13351D01*
Y13354D01*
Y13358D01*
X6440D01*
Y13354D01*
Y13351D01*
X6436D01*
Y13348D01*
X6433D01*
Y13344D01*
X6378D01*
Y13348D01*
X6374D01*
Y13351D01*
Y13354D01*
Y13358D01*
X6385D01*
Y13361D01*
X6457D01*
Y13365D01*
X6467D01*
Y13368D01*
X6470D01*
Y13372D01*
X6474D01*
Y13375D01*
Y13378D01*
Y13382D01*
Y13385D01*
Y13389D01*
X6477D01*
Y13392D01*
Y13396D01*
Y13399D01*
Y13402D01*
X6474D01*
Y13406D01*
Y13409D01*
Y13413D01*
Y13416D01*
Y13420D01*
X6470D01*
Y13423D01*
X6467D01*
Y13426D01*
X6460D01*
Y13430D01*
X6443D01*
Y13433D01*
D02*
G37*
G36*
X6258D02*
X6182D01*
Y13430D01*
X6165D01*
Y13426D01*
X6158D01*
Y13423D01*
X6155D01*
Y13420D01*
X6151D01*
Y13416D01*
X6148D01*
Y13413D01*
Y13409D01*
X6145D01*
Y13406D01*
Y13402D01*
Y13399D01*
Y13396D01*
Y13392D01*
Y13389D01*
Y13385D01*
Y13382D01*
Y13378D01*
Y13375D01*
Y13372D01*
Y13368D01*
Y13365D01*
Y13361D01*
Y13358D01*
Y13354D01*
Y13351D01*
Y13348D01*
Y13344D01*
Y13341D01*
X6148D01*
Y13337D01*
Y13334D01*
Y13330D01*
X6151D01*
Y13327D01*
X6155D01*
Y13324D01*
X6162D01*
Y13320D01*
X6172D01*
Y13317D01*
X6272D01*
Y13320D01*
X6278D01*
Y13324D01*
X6285D01*
Y13327D01*
X6289D01*
Y13330D01*
X6292D01*
Y13334D01*
Y13337D01*
X6296D01*
Y13341D01*
Y13344D01*
Y13348D01*
Y13351D01*
Y13354D01*
Y13358D01*
Y13361D01*
Y13365D01*
Y13368D01*
Y13372D01*
Y13375D01*
Y13378D01*
Y13382D01*
Y13385D01*
Y13389D01*
Y13392D01*
Y13396D01*
Y13399D01*
Y13402D01*
Y13406D01*
Y13409D01*
Y13413D01*
X6292D01*
Y13416D01*
Y13420D01*
X6289D01*
Y13423D01*
X6282D01*
Y13426D01*
X6278D01*
Y13430D01*
X6258D01*
Y13433D01*
D02*
G37*
G36*
X6086Y13430D02*
X6049D01*
Y13426D01*
Y13423D01*
Y13420D01*
Y13416D01*
Y13413D01*
Y13409D01*
Y13406D01*
Y13402D01*
Y13399D01*
Y13396D01*
Y13392D01*
Y13389D01*
Y13385D01*
Y13382D01*
Y13378D01*
Y13375D01*
Y13372D01*
Y13368D01*
Y13365D01*
Y13361D01*
Y13358D01*
Y13354D01*
Y13351D01*
X5977D01*
Y13348D01*
Y13344D01*
Y13341D01*
Y13337D01*
Y13334D01*
Y13330D01*
Y13327D01*
Y13324D01*
Y13320D01*
Y13317D01*
X6086D01*
Y13320D01*
Y13324D01*
Y13327D01*
Y13330D01*
Y13334D01*
Y13337D01*
Y13341D01*
Y13344D01*
Y13348D01*
Y13351D01*
Y13354D01*
Y13358D01*
Y13361D01*
Y13365D01*
Y13368D01*
Y13372D01*
Y13375D01*
Y13378D01*
Y13382D01*
Y13385D01*
Y13389D01*
Y13392D01*
Y13396D01*
Y13399D01*
Y13402D01*
Y13406D01*
Y13409D01*
Y13413D01*
Y13416D01*
Y13420D01*
Y13423D01*
Y13426D01*
Y13430D01*
D02*
G37*
G36*
X5757D02*
X5627D01*
Y13426D01*
Y13423D01*
Y13420D01*
Y13416D01*
Y13413D01*
Y13409D01*
Y13406D01*
Y13402D01*
Y13399D01*
X5675D01*
Y13396D01*
Y13392D01*
Y13389D01*
Y13385D01*
Y13382D01*
Y13378D01*
Y13375D01*
Y13372D01*
Y13368D01*
Y13365D01*
Y13361D01*
Y13358D01*
Y13354D01*
Y13351D01*
Y13348D01*
Y13344D01*
Y13341D01*
Y13337D01*
Y13334D01*
Y13330D01*
Y13327D01*
Y13324D01*
Y13320D01*
Y13317D01*
X5713D01*
Y13320D01*
Y13324D01*
Y13327D01*
Y13330D01*
Y13334D01*
Y13337D01*
Y13341D01*
Y13344D01*
Y13348D01*
Y13351D01*
Y13354D01*
Y13358D01*
Y13361D01*
Y13365D01*
Y13368D01*
Y13372D01*
Y13375D01*
Y13378D01*
Y13382D01*
Y13385D01*
Y13389D01*
Y13392D01*
Y13396D01*
Y13399D01*
X5757D01*
Y13402D01*
Y13406D01*
Y13409D01*
Y13413D01*
Y13416D01*
Y13420D01*
Y13423D01*
Y13426D01*
Y13430D01*
D02*
G37*
G36*
X5582D02*
X5544D01*
Y13426D01*
Y13423D01*
Y13420D01*
Y13416D01*
Y13413D01*
Y13409D01*
Y13406D01*
Y13402D01*
Y13399D01*
Y13396D01*
Y13392D01*
Y13389D01*
Y13385D01*
Y13382D01*
Y13378D01*
Y13375D01*
Y13372D01*
Y13368D01*
Y13365D01*
Y13361D01*
Y13358D01*
Y13354D01*
Y13351D01*
Y13348D01*
Y13344D01*
Y13341D01*
Y13337D01*
Y13334D01*
Y13330D01*
Y13327D01*
Y13324D01*
Y13320D01*
Y13317D01*
X5582D01*
Y13320D01*
Y13324D01*
Y13327D01*
Y13330D01*
Y13334D01*
Y13337D01*
Y13341D01*
Y13344D01*
Y13348D01*
Y13351D01*
Y13354D01*
Y13358D01*
Y13361D01*
Y13365D01*
Y13368D01*
Y13372D01*
Y13375D01*
Y13378D01*
Y13382D01*
Y13385D01*
Y13389D01*
Y13392D01*
Y13396D01*
Y13399D01*
Y13402D01*
Y13406D01*
Y13409D01*
Y13413D01*
Y13416D01*
Y13420D01*
Y13423D01*
Y13426D01*
Y13430D01*
D02*
G37*
G36*
X5455Y13433D02*
X5376D01*
Y13430D01*
X5359D01*
Y13426D01*
X5352D01*
Y13423D01*
X5349D01*
Y13420D01*
X5346D01*
Y13416D01*
X5342D01*
Y13413D01*
Y13409D01*
Y13406D01*
X5339D01*
Y13402D01*
Y13399D01*
Y13396D01*
Y13392D01*
Y13389D01*
Y13385D01*
Y13382D01*
Y13378D01*
Y13375D01*
Y13372D01*
Y13368D01*
Y13365D01*
Y13361D01*
Y13358D01*
Y13354D01*
Y13351D01*
Y13348D01*
Y13344D01*
X5342D01*
Y13341D01*
Y13337D01*
Y13334D01*
X5346D01*
Y13330D01*
Y13327D01*
X5349D01*
Y13324D01*
X5356D01*
Y13320D01*
X5366D01*
Y13317D01*
X5466D01*
Y13320D01*
X5476D01*
Y13324D01*
X5479D01*
Y13327D01*
X5483D01*
Y13330D01*
X5486D01*
Y13334D01*
X5490D01*
Y13337D01*
Y13341D01*
Y13344D01*
Y13348D01*
X5493D01*
Y13351D01*
Y13354D01*
Y13358D01*
Y13361D01*
Y13365D01*
Y13368D01*
Y13372D01*
Y13375D01*
Y13378D01*
Y13382D01*
Y13385D01*
Y13389D01*
Y13392D01*
Y13396D01*
Y13399D01*
Y13402D01*
X5490D01*
Y13406D01*
Y13409D01*
Y13413D01*
X5486D01*
Y13416D01*
Y13420D01*
X5483D01*
Y13423D01*
X5479D01*
Y13426D01*
X5472D01*
Y13430D01*
X5455D01*
Y13433D01*
D02*
G37*
G36*
X5061D02*
X4989D01*
Y13430D01*
X4972D01*
Y13426D01*
X4965D01*
Y13423D01*
X4961D01*
Y13420D01*
Y13416D01*
X4958D01*
Y13413D01*
Y13409D01*
Y13406D01*
Y13402D01*
Y13399D01*
Y13396D01*
Y13392D01*
X4992D01*
Y13396D01*
X4996D01*
Y13399D01*
Y13402D01*
X5054D01*
Y13399D01*
X5057D01*
Y13396D01*
X5054D01*
Y13392D01*
X5047D01*
Y13389D01*
X4975D01*
Y13385D01*
X4965D01*
Y13382D01*
X4958D01*
Y13378D01*
Y13375D01*
X4955D01*
Y13372D01*
Y13368D01*
Y13365D01*
Y13361D01*
X4951D01*
Y13358D01*
Y13354D01*
Y13351D01*
Y13348D01*
Y13344D01*
X4955D01*
Y13341D01*
Y13337D01*
Y13334D01*
Y13330D01*
X4958D01*
Y13327D01*
Y13324D01*
X4965D01*
Y13320D01*
X4975D01*
Y13317D01*
X5075D01*
Y13320D01*
X5081D01*
Y13324D01*
X5088D01*
Y13327D01*
Y13330D01*
X5092D01*
Y13334D01*
Y13337D01*
Y13341D01*
Y13344D01*
Y13348D01*
Y13351D01*
Y13354D01*
Y13358D01*
X5057D01*
Y13354D01*
Y13351D01*
X5054D01*
Y13348D01*
X5051D01*
Y13344D01*
X4996D01*
Y13348D01*
X4992D01*
Y13351D01*
X4989D01*
Y13354D01*
X4992D01*
Y13358D01*
X5003D01*
Y13361D01*
X5075D01*
Y13365D01*
X5081D01*
Y13368D01*
X5088D01*
Y13372D01*
Y13375D01*
X5092D01*
Y13378D01*
Y13382D01*
Y13385D01*
Y13389D01*
Y13392D01*
Y13396D01*
Y13399D01*
Y13402D01*
Y13406D01*
Y13409D01*
Y13413D01*
Y13416D01*
X5088D01*
Y13420D01*
Y13423D01*
X5085D01*
Y13426D01*
X5078D01*
Y13430D01*
X5061D01*
Y13433D01*
D02*
G37*
G36*
X7386Y13749D02*
X7379D01*
Y13745D01*
Y13742D01*
X7376D01*
Y13739D01*
Y13735D01*
X7372D01*
Y13732D01*
X7369D01*
Y13728D01*
Y13725D01*
X7366D01*
Y13721D01*
X7362D01*
Y13718D01*
Y13715D01*
X7359D01*
Y13711D01*
X7355D01*
Y13708D01*
Y13704D01*
X7352D01*
Y13701D01*
X7348D01*
Y13697D01*
Y13694D01*
X7345D01*
Y13691D01*
X7342D01*
Y13687D01*
Y13684D01*
X7338D01*
Y13680D01*
X7335D01*
Y13677D01*
Y13673D01*
X7331D01*
Y13670D01*
X7328D01*
Y13667D01*
Y13663D01*
X7324D01*
Y13660D01*
X7321D01*
Y13656D01*
Y13653D01*
X7318D01*
Y13649D01*
X7314D01*
Y13646D01*
Y13643D01*
X7311D01*
Y13639D01*
Y13636D01*
X7314D01*
Y13632D01*
Y13629D01*
X7318D01*
Y13625D01*
X7321D01*
Y13622D01*
Y13619D01*
X7324D01*
Y13615D01*
X7328D01*
Y13612D01*
Y13608D01*
X7331D01*
Y13605D01*
X7335D01*
Y13601D01*
Y13598D01*
X7338D01*
Y13594D01*
X7342D01*
Y13591D01*
Y13588D01*
X7345D01*
Y13584D01*
X7348D01*
Y13581D01*
Y13577D01*
X7352D01*
Y13574D01*
X7355D01*
Y13570D01*
Y13567D01*
X7359D01*
Y13564D01*
X7362D01*
Y13560D01*
Y13557D01*
X7366D01*
Y13553D01*
X7369D01*
Y13550D01*
Y13546D01*
X7372D01*
Y13543D01*
X7376D01*
Y13540D01*
Y13536D01*
X7379D01*
Y13533D01*
X7383D01*
Y13529D01*
Y13526D01*
X7386D01*
Y13522D01*
X7390D01*
Y13519D01*
Y13516D01*
X7393D01*
Y13512D01*
X7396D01*
Y13509D01*
Y13505D01*
X7400D01*
Y13502D01*
X7403D01*
Y13498D01*
Y13495D01*
X7407D01*
Y13492D01*
X7410D01*
Y13488D01*
Y13485D01*
X7414D01*
Y13481D01*
X7417D01*
Y13478D01*
Y13474D01*
X7420D01*
Y13471D01*
Y13468D01*
X7424D01*
Y13464D01*
X7427D01*
Y13461D01*
Y13457D01*
X7431D01*
Y13454D01*
X7434D01*
Y13450D01*
Y13447D01*
X7438D01*
Y13444D01*
X7441D01*
Y13440D01*
X7300D01*
Y13437D01*
Y13433D01*
Y13430D01*
Y13426D01*
X7304D01*
Y13423D01*
Y13420D01*
Y13416D01*
Y13413D01*
Y13409D01*
Y13406D01*
Y13402D01*
X7307D01*
Y13399D01*
Y13396D01*
Y13392D01*
Y13389D01*
Y13385D01*
Y13382D01*
Y13378D01*
X7311D01*
Y13375D01*
Y13372D01*
Y13368D01*
Y13365D01*
Y13361D01*
Y13358D01*
Y13354D01*
X7314D01*
Y13351D01*
Y13348D01*
Y13344D01*
Y13341D01*
Y13337D01*
Y13334D01*
Y13330D01*
X7318D01*
Y13327D01*
Y13324D01*
X7321D01*
Y13327D01*
X7324D01*
Y13330D01*
Y13334D01*
X7328D01*
Y13337D01*
X7331D01*
Y13341D01*
X7335D01*
Y13344D01*
X7338D01*
Y13348D01*
X7342D01*
Y13351D01*
X7345D01*
Y13354D01*
X7359D01*
Y13358D01*
X7482D01*
Y13354D01*
Y13351D01*
X7486D01*
Y13348D01*
Y13344D01*
X7489D01*
Y13341D01*
Y13337D01*
X7493D01*
Y13334D01*
Y13330D01*
X7496D01*
Y13327D01*
Y13324D01*
X7499D01*
Y13320D01*
Y13317D01*
X7503D01*
Y13313D01*
Y13310D01*
X7506D01*
Y13306D01*
Y13303D01*
X7510D01*
Y13300D01*
X7640D01*
Y13303D01*
X7637D01*
Y13306D01*
Y13310D01*
X7633D01*
Y13313D01*
X7630D01*
Y13317D01*
Y13320D01*
X7626D01*
Y13324D01*
Y13327D01*
X7623D01*
Y13330D01*
Y13334D01*
X7619D01*
Y13337D01*
X7616D01*
Y13341D01*
Y13344D01*
X7613D01*
Y13348D01*
Y13351D01*
X7609D01*
Y13354D01*
Y13358D01*
X7606D01*
Y13361D01*
Y13365D01*
X7602D01*
Y13368D01*
X7599D01*
Y13372D01*
Y13375D01*
X7595D01*
Y13378D01*
Y13382D01*
X7592D01*
Y13385D01*
Y13389D01*
X7589D01*
Y13392D01*
X7585D01*
Y13396D01*
Y13399D01*
X7582D01*
Y13402D01*
Y13406D01*
X7578D01*
Y13409D01*
Y13413D01*
X7575D01*
Y13416D01*
X7571D01*
Y13420D01*
Y13423D01*
X7568D01*
Y13426D01*
Y13430D01*
X7565D01*
Y13433D01*
Y13437D01*
X7561D01*
Y13440D01*
X7558D01*
Y13444D01*
Y13447D01*
X7554D01*
Y13450D01*
Y13454D01*
X7551D01*
Y13457D01*
Y13461D01*
X7547D01*
Y13464D01*
X7544D01*
Y13468D01*
Y13471D01*
X7541D01*
Y13474D01*
Y13478D01*
X7537D01*
Y13481D01*
Y13485D01*
X7534D01*
Y13488D01*
Y13492D01*
X7530D01*
Y13495D01*
X7527D01*
Y13498D01*
Y13502D01*
X7523D01*
Y13505D01*
Y13509D01*
X7520D01*
Y13512D01*
Y13516D01*
X7517D01*
Y13519D01*
X7513D01*
Y13522D01*
Y13526D01*
X7510D01*
Y13529D01*
Y13533D01*
X7506D01*
Y13536D01*
Y13540D01*
X7503D01*
Y13543D01*
X7499D01*
Y13546D01*
Y13550D01*
X7496D01*
Y13553D01*
Y13557D01*
X7493D01*
Y13560D01*
Y13564D01*
X7489D01*
Y13567D01*
X7486D01*
Y13570D01*
Y13574D01*
X7482D01*
Y13577D01*
Y13581D01*
X7479D01*
Y13584D01*
Y13588D01*
X7475D01*
Y13591D01*
X7472D01*
Y13594D01*
Y13598D01*
X7468D01*
Y13601D01*
Y13605D01*
X7465D01*
Y13608D01*
Y13612D01*
X7462D01*
Y13615D01*
X7458D01*
Y13619D01*
Y13622D01*
X7455D01*
Y13625D01*
Y13629D01*
X7451D01*
Y13632D01*
Y13636D01*
X7448D01*
Y13639D01*
Y13643D01*
X7444D01*
Y13646D01*
X7441D01*
Y13649D01*
Y13653D01*
X7438D01*
Y13656D01*
Y13660D01*
X7434D01*
Y13663D01*
Y13667D01*
X7431D01*
Y13670D01*
X7427D01*
Y13673D01*
Y13677D01*
X7424D01*
Y13680D01*
Y13684D01*
X7420D01*
Y13687D01*
Y13691D01*
X7417D01*
Y13694D01*
X7414D01*
Y13697D01*
Y13701D01*
X7410D01*
Y13704D01*
Y13708D01*
X7407D01*
Y13711D01*
Y13715D01*
X7403D01*
Y13718D01*
X7400D01*
Y13721D01*
Y13725D01*
X7396D01*
Y13728D01*
Y13732D01*
X7393D01*
Y13735D01*
Y13739D01*
X7390D01*
Y13742D01*
X7386D01*
Y13745D01*
Y13749D01*
D02*
G37*
G36*
X7222Y13468D02*
X7218D01*
Y13464D01*
X7215D01*
Y13461D01*
Y13457D01*
X7211D01*
Y13454D01*
Y13450D01*
X7208D01*
Y13447D01*
X7204D01*
Y13444D01*
Y13440D01*
X7201D01*
Y13437D01*
Y13433D01*
X7198D01*
Y13430D01*
Y13426D01*
X7194D01*
Y13423D01*
Y13420D01*
X7191D01*
Y13416D01*
X7187D01*
Y13413D01*
Y13409D01*
X7184D01*
Y13406D01*
Y13402D01*
X7180D01*
Y13399D01*
Y13396D01*
X7177D01*
Y13392D01*
Y13389D01*
X7174D01*
Y13385D01*
X7170D01*
Y13382D01*
Y13378D01*
X7167D01*
Y13375D01*
Y13372D01*
X7163D01*
Y13368D01*
Y13365D01*
X7160D01*
Y13361D01*
Y13358D01*
X7156D01*
Y13354D01*
X7153D01*
Y13351D01*
Y13348D01*
X7150D01*
Y13344D01*
Y13341D01*
X7146D01*
Y13337D01*
Y13334D01*
X7143D01*
Y13330D01*
Y13327D01*
X7139D01*
Y13324D01*
Y13320D01*
X7136D01*
Y13317D01*
X7132D01*
Y13313D01*
Y13310D01*
X7129D01*
Y13306D01*
Y13303D01*
X7126D01*
Y13300D01*
X7242D01*
Y13303D01*
X7246D01*
Y13306D01*
X7249D01*
Y13310D01*
Y13313D01*
X7252D01*
Y13317D01*
Y13320D01*
X7256D01*
Y13324D01*
X7259D01*
Y13327D01*
Y13330D01*
X7263D01*
Y13334D01*
Y13337D01*
X7266D01*
Y13341D01*
X7270D01*
Y13344D01*
Y13348D01*
X7273D01*
Y13351D01*
Y13354D01*
X7276D01*
Y13358D01*
Y13361D01*
X7273D01*
Y13365D01*
Y13368D01*
X7270D01*
Y13372D01*
Y13375D01*
X7266D01*
Y13378D01*
Y13382D01*
X7263D01*
Y13385D01*
Y13389D01*
X7259D01*
Y13392D01*
Y13396D01*
X7256D01*
Y13399D01*
Y13402D01*
X7252D01*
Y13406D01*
Y13409D01*
X7249D01*
Y13413D01*
Y13416D01*
X7246D01*
Y13420D01*
Y13423D01*
X7242D01*
Y13426D01*
Y13430D01*
X7239D01*
Y13433D01*
Y13437D01*
X7235D01*
Y13440D01*
Y13444D01*
X7232D01*
Y13447D01*
Y13450D01*
X7228D01*
Y13454D01*
X7225D01*
Y13457D01*
Y13461D01*
X7222D01*
Y13464D01*
Y13468D01*
D02*
G37*
G36*
X7633Y13495D02*
X7630D01*
Y13492D01*
Y13488D01*
Y13485D01*
X7633D01*
Y13481D01*
Y13478D01*
X7637D01*
Y13474D01*
X7640D01*
Y13471D01*
Y13468D01*
X7643D01*
Y13464D01*
Y13461D01*
X7647D01*
Y13457D01*
Y13454D01*
X7650D01*
Y13450D01*
X7654D01*
Y13447D01*
Y13444D01*
X7657D01*
Y13440D01*
Y13437D01*
X7661D01*
Y13433D01*
Y13430D01*
X7664D01*
Y13426D01*
X7667D01*
Y13423D01*
Y13420D01*
X7671D01*
Y13416D01*
Y13413D01*
X7674D01*
Y13409D01*
Y13406D01*
X7678D01*
Y13402D01*
X7681D01*
Y13399D01*
Y13396D01*
X7685D01*
Y13392D01*
Y13389D01*
X7688D01*
Y13385D01*
Y13382D01*
X7691D01*
Y13378D01*
X7695D01*
Y13375D01*
Y13372D01*
X7698D01*
Y13368D01*
Y13365D01*
X7702D01*
Y13361D01*
X7705D01*
Y13358D01*
Y13354D01*
X7709D01*
Y13351D01*
Y13348D01*
X7712D01*
Y13344D01*
Y13341D01*
X7715D01*
Y13337D01*
X7719D01*
Y13334D01*
Y13330D01*
X7722D01*
Y13327D01*
Y13324D01*
X7726D01*
Y13320D01*
Y13317D01*
X7729D01*
Y13313D01*
X7733D01*
Y13310D01*
Y13306D01*
X7736D01*
Y13303D01*
Y13300D01*
X7739D01*
Y13296D01*
Y13293D01*
X7743D01*
Y13289D01*
X7746D01*
Y13286D01*
Y13282D01*
X7750D01*
Y13279D01*
Y13276D01*
X7753D01*
Y13272D01*
Y13269D01*
X7757D01*
Y13265D01*
X7760D01*
Y13262D01*
Y13258D01*
X7763D01*
Y13255D01*
Y13252D01*
X7767D01*
Y13248D01*
Y13245D01*
X7770D01*
Y13241D01*
X7774D01*
Y13238D01*
Y13234D01*
X7777D01*
Y13231D01*
Y13228D01*
X7781D01*
Y13224D01*
Y13221D01*
X7383D01*
Y13217D01*
Y13214D01*
Y13210D01*
X7386D01*
Y13207D01*
Y13204D01*
X7390D01*
Y13200D01*
X7393D01*
Y13197D01*
Y13193D01*
X7396D01*
Y13190D01*
Y13186D01*
X7400D01*
Y13183D01*
Y13180D01*
X7403D01*
Y13176D01*
Y13173D01*
X7407D01*
Y13169D01*
Y13166D01*
X7410D01*
Y13162D01*
X7894D01*
Y13166D01*
X7890D01*
Y13169D01*
X7887D01*
Y13173D01*
Y13176D01*
X7883D01*
Y13180D01*
Y13183D01*
X7880D01*
Y13186D01*
Y13190D01*
X7877D01*
Y13193D01*
X7873D01*
Y13197D01*
Y13200D01*
X7870D01*
Y13204D01*
Y13207D01*
X7866D01*
Y13210D01*
Y13214D01*
X7863D01*
Y13217D01*
X7859D01*
Y13221D01*
Y13224D01*
X7856D01*
Y13228D01*
Y13231D01*
X7853D01*
Y13234D01*
Y13238D01*
X7849D01*
Y13241D01*
X7846D01*
Y13245D01*
Y13248D01*
X7842D01*
Y13252D01*
Y13255D01*
X7839D01*
Y13258D01*
X7835D01*
Y13262D01*
Y13265D01*
X7832D01*
Y13269D01*
Y13272D01*
X7829D01*
Y13276D01*
Y13279D01*
X7825D01*
Y13282D01*
X7822D01*
Y13286D01*
Y13289D01*
X7818D01*
Y13293D01*
Y13296D01*
X7815D01*
Y13300D01*
Y13303D01*
X7811D01*
Y13306D01*
X7808D01*
Y13310D01*
Y13313D01*
X7805D01*
Y13317D01*
Y13320D01*
X7801D01*
Y13324D01*
Y13327D01*
X7798D01*
Y13330D01*
X7794D01*
Y13334D01*
Y13337D01*
X7791D01*
Y13341D01*
Y13344D01*
X7787D01*
Y13348D01*
X7784D01*
Y13351D01*
Y13354D01*
X7781D01*
Y13358D01*
Y13361D01*
X7777D01*
Y13365D01*
Y13368D01*
X7774D01*
Y13372D01*
X7770D01*
Y13375D01*
Y13378D01*
X7767D01*
Y13382D01*
Y13385D01*
X7763D01*
Y13389D01*
Y13392D01*
X7760D01*
Y13396D01*
X7757D01*
Y13399D01*
Y13402D01*
Y13406D01*
X7763D01*
Y13409D01*
X7767D01*
Y13413D01*
X7774D01*
Y13416D01*
X7777D01*
Y13420D01*
X7784D01*
Y13423D01*
X7791D01*
Y13426D01*
X7794D01*
Y13430D01*
X7801D01*
Y13433D01*
X7805D01*
Y13437D01*
X7811D01*
Y13440D01*
X7818D01*
Y13444D01*
X7815D01*
Y13447D01*
X7801D01*
Y13450D01*
X7791D01*
Y13454D01*
X7777D01*
Y13457D01*
X7763D01*
Y13461D01*
X7750D01*
Y13464D01*
X7739D01*
Y13468D01*
X7726D01*
Y13471D01*
X7712D01*
Y13474D01*
X7698D01*
Y13478D01*
X7688D01*
Y13481D01*
X7674D01*
Y13485D01*
X7661D01*
Y13488D01*
X7647D01*
Y13492D01*
X7633D01*
Y13495D01*
D02*
G37*
G36*
X7180Y13570D02*
X7112D01*
Y13567D01*
Y13564D01*
X7108D01*
Y13560D01*
X7105D01*
Y13557D01*
Y13553D01*
X7102D01*
Y13550D01*
Y13546D01*
X7098D01*
Y13543D01*
Y13540D01*
X7095D01*
Y13536D01*
X7091D01*
Y13533D01*
Y13529D01*
X7088D01*
Y13526D01*
Y13522D01*
X7084D01*
Y13519D01*
Y13516D01*
X7081D01*
Y13512D01*
X7078D01*
Y13509D01*
Y13505D01*
X7074D01*
Y13502D01*
Y13498D01*
X7071D01*
Y13495D01*
X7067D01*
Y13492D01*
Y13488D01*
X7064D01*
Y13485D01*
Y13481D01*
X7060D01*
Y13478D01*
Y13474D01*
X7057D01*
Y13471D01*
X7054D01*
Y13468D01*
Y13464D01*
X7050D01*
Y13461D01*
Y13457D01*
X7047D01*
Y13454D01*
Y13450D01*
X7043D01*
Y13447D01*
X7040D01*
Y13444D01*
Y13440D01*
X7036D01*
Y13437D01*
Y13433D01*
X7033D01*
Y13430D01*
Y13426D01*
X7029D01*
Y13423D01*
X7026D01*
Y13420D01*
Y13416D01*
X7023D01*
Y13413D01*
Y13409D01*
X7019D01*
Y13406D01*
X7016D01*
Y13402D01*
Y13399D01*
X7012D01*
Y13396D01*
Y13392D01*
X7009D01*
Y13389D01*
Y13385D01*
X7005D01*
Y13382D01*
X7002D01*
Y13378D01*
Y13375D01*
X6999D01*
Y13372D01*
Y13368D01*
X6995D01*
Y13365D01*
Y13361D01*
X6992D01*
Y13358D01*
X6988D01*
Y13354D01*
Y13351D01*
X6985D01*
Y13348D01*
Y13344D01*
X6981D01*
Y13341D01*
Y13337D01*
X6978D01*
Y13334D01*
X6975D01*
Y13330D01*
Y13327D01*
X6971D01*
Y13324D01*
Y13320D01*
X6968D01*
Y13317D01*
X6964D01*
Y13313D01*
Y13310D01*
X6961D01*
Y13306D01*
Y13303D01*
X6957D01*
Y13300D01*
Y13296D01*
X6954D01*
Y13293D01*
X6951D01*
Y13289D01*
Y13286D01*
X6947D01*
Y13282D01*
Y13279D01*
X6944D01*
Y13276D01*
Y13272D01*
X6940D01*
Y13269D01*
X6937D01*
Y13265D01*
Y13262D01*
X6933D01*
Y13258D01*
Y13255D01*
X6930D01*
Y13252D01*
Y13248D01*
X6927D01*
Y13245D01*
X6923D01*
Y13241D01*
Y13238D01*
X6920D01*
Y13234D01*
Y13231D01*
X6916D01*
Y13228D01*
X6913D01*
Y13224D01*
Y13221D01*
X6909D01*
Y13217D01*
Y13214D01*
X6906D01*
Y13210D01*
Y13207D01*
X6903D01*
Y13204D01*
X6899D01*
Y13200D01*
Y13197D01*
X6896D01*
Y13193D01*
Y13190D01*
X6892D01*
Y13186D01*
Y13183D01*
X6889D01*
Y13180D01*
X6885D01*
Y13176D01*
Y13173D01*
X6882D01*
Y13169D01*
Y13166D01*
X6879D01*
Y13162D01*
Y13159D01*
X6875D01*
Y13155D01*
Y13152D01*
X7153D01*
Y13149D01*
Y13145D01*
Y13142D01*
Y13138D01*
Y13135D01*
Y13131D01*
Y13128D01*
Y13125D01*
Y13121D01*
Y13118D01*
Y13114D01*
Y13111D01*
Y13107D01*
Y13104D01*
Y13101D01*
Y13097D01*
Y13094D01*
Y13090D01*
Y13087D01*
Y13083D01*
Y13080D01*
Y13077D01*
X7156D01*
Y13080D01*
X7160D01*
Y13083D01*
X7163D01*
Y13087D01*
X7167D01*
Y13090D01*
X7170D01*
Y13094D01*
X7174D01*
Y13097D01*
X7177D01*
Y13101D01*
X7180D01*
Y13104D01*
X7184D01*
Y13107D01*
X7187D01*
Y13111D01*
X7191D01*
Y13114D01*
X7194D01*
Y13118D01*
X7198D01*
Y13121D01*
X7201D01*
Y13125D01*
X7204D01*
Y13128D01*
X7208D01*
Y13131D01*
X7211D01*
Y13135D01*
X7215D01*
Y13138D01*
X7218D01*
Y13142D01*
X7222D01*
Y13145D01*
X7225D01*
Y13149D01*
X7228D01*
Y13152D01*
X7232D01*
Y13155D01*
X7235D01*
Y13159D01*
X7239D01*
Y13162D01*
X7242D01*
Y13166D01*
X7246D01*
Y13169D01*
X7249D01*
Y13173D01*
X7252D01*
Y13176D01*
X7256D01*
Y13180D01*
X7259D01*
Y13183D01*
X7263D01*
Y13186D01*
X7266D01*
Y13190D01*
X7270D01*
Y13193D01*
X7273D01*
Y13197D01*
X7276D01*
Y13200D01*
X7280D01*
Y13204D01*
X7283D01*
Y13207D01*
X7287D01*
Y13210D01*
X7290D01*
Y13214D01*
X7294D01*
Y13217D01*
X6978D01*
Y13221D01*
X6981D01*
Y13224D01*
X6985D01*
Y13228D01*
Y13231D01*
X6988D01*
Y13234D01*
Y13238D01*
X6992D01*
Y13241D01*
Y13245D01*
X6995D01*
Y13248D01*
X6999D01*
Y13252D01*
Y13255D01*
X7002D01*
Y13258D01*
Y13262D01*
X7005D01*
Y13265D01*
X7009D01*
Y13269D01*
Y13272D01*
X7012D01*
Y13276D01*
Y13279D01*
X7016D01*
Y13282D01*
Y13286D01*
X7019D01*
Y13289D01*
X7023D01*
Y13293D01*
Y13296D01*
X7026D01*
Y13300D01*
Y13303D01*
X7029D01*
Y13306D01*
Y13310D01*
X7033D01*
Y13313D01*
X7036D01*
Y13317D01*
Y13320D01*
X7040D01*
Y13324D01*
Y13327D01*
X7043D01*
Y13330D01*
Y13334D01*
X7047D01*
Y13337D01*
X7050D01*
Y13341D01*
Y13344D01*
X7054D01*
Y13348D01*
Y13351D01*
X7057D01*
Y13354D01*
Y13358D01*
X7060D01*
Y13361D01*
X7064D01*
Y13365D01*
Y13368D01*
X7067D01*
Y13372D01*
Y13375D01*
X7071D01*
Y13378D01*
Y13382D01*
X7074D01*
Y13385D01*
X7078D01*
Y13389D01*
Y13392D01*
X7081D01*
Y13396D01*
Y13399D01*
X7084D01*
Y13402D01*
Y13406D01*
X7088D01*
Y13409D01*
X7091D01*
Y13413D01*
Y13416D01*
X7095D01*
Y13420D01*
Y13423D01*
X7098D01*
Y13426D01*
X7102D01*
Y13430D01*
Y13433D01*
X7105D01*
Y13437D01*
Y13440D01*
X7108D01*
Y13444D01*
Y13447D01*
X7112D01*
Y13450D01*
X7115D01*
Y13454D01*
Y13457D01*
X7119D01*
Y13461D01*
Y13464D01*
X7122D01*
Y13468D01*
Y13471D01*
X7126D01*
Y13474D01*
X7129D01*
Y13478D01*
Y13481D01*
X7132D01*
Y13485D01*
Y13488D01*
X7136D01*
Y13492D01*
Y13495D01*
X7139D01*
Y13498D01*
X7143D01*
Y13502D01*
Y13505D01*
X7146D01*
Y13509D01*
Y13512D01*
X7150D01*
Y13516D01*
Y13519D01*
X7153D01*
Y13522D01*
X7156D01*
Y13526D01*
Y13529D01*
X7160D01*
Y13533D01*
Y13536D01*
X7163D01*
Y13540D01*
Y13543D01*
X7167D01*
Y13546D01*
X7170D01*
Y13550D01*
Y13553D01*
X7174D01*
Y13557D01*
Y13560D01*
X7177D01*
Y13564D01*
Y13567D01*
X7180D01*
Y13570D01*
D02*
G37*
%LPD*%
G36*
X6759Y13680D02*
Y13677D01*
X6762D01*
Y13673D01*
Y13670D01*
Y13667D01*
X6765D01*
Y13663D01*
Y13660D01*
X6769D01*
Y13656D01*
Y13653D01*
Y13649D01*
X6772D01*
Y13646D01*
Y13643D01*
X6776D01*
Y13639D01*
Y13636D01*
X6779D01*
Y13632D01*
Y13629D01*
Y13625D01*
X6783D01*
Y13622D01*
Y13619D01*
X6786D01*
Y13615D01*
Y13612D01*
Y13608D01*
X6789D01*
Y13605D01*
Y13601D01*
X6793D01*
Y13598D01*
X6721D01*
Y13601D01*
Y13605D01*
X6724D01*
Y13608D01*
Y13612D01*
X6728D01*
Y13615D01*
Y13619D01*
X6731D01*
Y13622D01*
Y13625D01*
Y13629D01*
X6735D01*
Y13632D01*
Y13636D01*
X6738D01*
Y13639D01*
Y13643D01*
Y13646D01*
X6741D01*
Y13649D01*
Y13653D01*
X6745D01*
Y13656D01*
Y13660D01*
X6748D01*
Y13663D01*
Y13667D01*
Y13670D01*
X6752D01*
Y13673D01*
Y13677D01*
X6755D01*
Y13680D01*
Y13684D01*
X6759D01*
Y13680D01*
D02*
G37*
G36*
X5699Y13677D02*
Y13673D01*
X5702D01*
Y13670D01*
Y13667D01*
X5706D01*
Y13663D01*
Y13660D01*
Y13656D01*
X5709D01*
Y13653D01*
Y13649D01*
X5713D01*
Y13646D01*
Y13643D01*
Y13639D01*
X5716D01*
Y13636D01*
Y13632D01*
X5719D01*
Y13629D01*
Y13625D01*
Y13622D01*
X5723D01*
Y13619D01*
Y13615D01*
X5726D01*
Y13612D01*
Y13608D01*
X5730D01*
Y13605D01*
Y13601D01*
Y13598D01*
X5661D01*
Y13601D01*
Y13605D01*
X5664D01*
Y13608D01*
Y13612D01*
Y13615D01*
X5668D01*
Y13619D01*
Y13622D01*
X5671D01*
Y13625D01*
Y13629D01*
X5675D01*
Y13632D01*
Y13636D01*
Y13639D01*
X5678D01*
Y13643D01*
Y13646D01*
X5682D01*
Y13649D01*
Y13653D01*
Y13656D01*
X5685D01*
Y13660D01*
Y13663D01*
X5688D01*
Y13667D01*
Y13670D01*
X5692D01*
Y13673D01*
Y13677D01*
Y13680D01*
X5699D01*
Y13677D01*
D02*
G37*
G36*
X5171D02*
Y13673D01*
X5174D01*
Y13670D01*
Y13667D01*
Y13663D01*
X5177D01*
Y13660D01*
Y13656D01*
X5181D01*
Y13653D01*
Y13649D01*
X5184D01*
Y13646D01*
Y13643D01*
Y13639D01*
X5188D01*
Y13636D01*
Y13632D01*
X5191D01*
Y13629D01*
Y13625D01*
Y13622D01*
X5195D01*
Y13619D01*
Y13615D01*
X5198D01*
Y13612D01*
Y13608D01*
X5201D01*
Y13605D01*
Y13601D01*
Y13598D01*
X5133D01*
Y13601D01*
Y13605D01*
X5136D01*
Y13608D01*
Y13612D01*
Y13615D01*
X5140D01*
Y13619D01*
Y13622D01*
X5143D01*
Y13625D01*
Y13629D01*
Y13632D01*
X5147D01*
Y13636D01*
Y13639D01*
X5150D01*
Y13643D01*
Y13646D01*
X5153D01*
Y13649D01*
Y13653D01*
Y13656D01*
X5157D01*
Y13660D01*
Y13663D01*
X5160D01*
Y13667D01*
Y13670D01*
Y13673D01*
X5164D01*
Y13677D01*
Y13680D01*
X5171D01*
Y13677D01*
D02*
G37*
G36*
X4951Y13694D02*
Y13691D01*
Y13687D01*
Y13684D01*
Y13680D01*
Y13677D01*
Y13673D01*
Y13670D01*
Y13667D01*
Y13663D01*
Y13660D01*
Y13656D01*
Y13653D01*
Y13649D01*
Y13646D01*
Y13643D01*
Y13639D01*
Y13636D01*
Y13632D01*
Y13629D01*
Y13625D01*
Y13622D01*
Y13619D01*
X4886D01*
Y13622D01*
X4876D01*
Y13625D01*
X4872D01*
Y13629D01*
X4869D01*
Y13632D01*
X4865D01*
Y13636D01*
X4862D01*
Y13639D01*
Y13643D01*
X4859D01*
Y13646D01*
Y13649D01*
Y13653D01*
Y13656D01*
Y13660D01*
Y13663D01*
Y13667D01*
Y13670D01*
Y13673D01*
X4862D01*
Y13677D01*
Y13680D01*
X4865D01*
Y13684D01*
X4869D01*
Y13687D01*
X4872D01*
Y13691D01*
X4879D01*
Y13694D01*
X4886D01*
Y13697D01*
X4951D01*
Y13694D01*
D02*
G37*
G36*
X4714D02*
Y13691D01*
Y13687D01*
Y13684D01*
Y13680D01*
Y13677D01*
Y13673D01*
Y13670D01*
Y13667D01*
Y13663D01*
Y13660D01*
Y13656D01*
Y13653D01*
Y13649D01*
Y13646D01*
Y13643D01*
Y13639D01*
Y13636D01*
Y13632D01*
Y13629D01*
Y13625D01*
Y13622D01*
Y13619D01*
Y13615D01*
Y13612D01*
Y13608D01*
Y13605D01*
Y13601D01*
Y13598D01*
Y13594D01*
Y13591D01*
Y13588D01*
Y13584D01*
Y13581D01*
Y13577D01*
Y13574D01*
Y13570D01*
Y13567D01*
Y13564D01*
Y13560D01*
Y13557D01*
Y13553D01*
Y13550D01*
X4653D01*
Y13553D01*
X4636D01*
Y13557D01*
X4629D01*
Y13560D01*
X4622D01*
Y13564D01*
X4615D01*
Y13567D01*
X4612D01*
Y13570D01*
X4608D01*
Y13574D01*
X4605D01*
Y13577D01*
X4601D01*
Y13581D01*
X4598D01*
Y13584D01*
Y13588D01*
X4594D01*
Y13591D01*
Y13594D01*
X4591D01*
Y13598D01*
Y13601D01*
Y13605D01*
Y13608D01*
X4588D01*
Y13612D01*
Y13615D01*
Y13619D01*
Y13622D01*
Y13625D01*
Y13629D01*
Y13632D01*
Y13636D01*
Y13639D01*
Y13643D01*
X4591D01*
Y13646D01*
Y13649D01*
Y13653D01*
X4594D01*
Y13656D01*
Y13660D01*
X4598D01*
Y13663D01*
Y13667D01*
X4601D01*
Y13670D01*
X4605D01*
Y13673D01*
X4608D01*
Y13677D01*
X4612D01*
Y13680D01*
X4615D01*
Y13684D01*
X4618D01*
Y13687D01*
X4625D01*
Y13691D01*
X4632D01*
Y13694D01*
X4646D01*
Y13697D01*
X4714D01*
Y13694D01*
D02*
G37*
G36*
X6251Y13396D02*
X6254D01*
Y13392D01*
X6258D01*
Y13389D01*
Y13385D01*
Y13382D01*
Y13378D01*
Y13375D01*
Y13372D01*
Y13368D01*
Y13365D01*
Y13361D01*
Y13358D01*
Y13354D01*
X6254D01*
Y13351D01*
X6251D01*
Y13348D01*
X6193D01*
Y13351D01*
X6186D01*
Y13354D01*
X6182D01*
Y13358D01*
Y13361D01*
Y13365D01*
Y13368D01*
Y13372D01*
Y13375D01*
Y13378D01*
Y13382D01*
Y13385D01*
Y13389D01*
Y13392D01*
X6186D01*
Y13396D01*
X6189D01*
Y13399D01*
X6251D01*
Y13396D01*
D02*
G37*
G36*
X5448D02*
X5452D01*
Y13392D01*
Y13389D01*
Y13385D01*
X5455D01*
Y13382D01*
Y13378D01*
Y13375D01*
Y13372D01*
Y13368D01*
Y13365D01*
Y13361D01*
X5452D01*
Y13358D01*
Y13354D01*
Y13351D01*
X5445D01*
Y13348D01*
X5387D01*
Y13351D01*
X5380D01*
Y13354D01*
Y13358D01*
X5376D01*
Y13361D01*
Y13365D01*
Y13368D01*
Y13372D01*
Y13375D01*
Y13378D01*
Y13382D01*
Y13385D01*
Y13389D01*
X5380D01*
Y13392D01*
Y13396D01*
X5383D01*
Y13399D01*
X5448D01*
Y13396D01*
D02*
G37*
D10*
X2601Y10766D02*
G03*
X2601Y10766I-10J0D01*
G01*
X5420Y9944D02*
G03*
X5420Y9944I-10J0D01*
G01*
X8350Y10640D02*
G03*
X8350Y10640I-10J0D01*
G01*
X2455Y12971D02*
G03*
X2455Y12971I-10J0D01*
G01*
X4672Y10089D02*
G03*
X4672Y10089I-10J0D01*
G01*
X3816Y3987D02*
G03*
X3501Y3987I-157J189D01*
G01*
X4851Y3146D02*
G03*
X5112Y3223I101J137D01*
G01*
X4851Y3146D02*
G03*
X3585Y3146I-633J-859D01*
G01*
X3325Y3223D02*
G03*
X3585Y3146I159J60D01*
G01*
X4936Y3987D02*
G03*
X4621Y3987I-157J189D01*
G01*
X3416Y5424D02*
G03*
X3416Y5424I-10J0D01*
G01*
X8746Y11521D02*
G03*
X8746Y11521I-10J0D01*
G01*
X2407Y4804D02*
G03*
X2407Y4804I-10J0D01*
G01*
X3130Y13393D02*
G03*
X3130Y13393I-10J0D01*
G01*
X36Y11809D02*
Y13384D01*
X1635Y11809D02*
X1652D01*
Y12980D01*
X1753D01*
Y13384D01*
X1635D02*
X1753D01*
X6806Y9866D02*
X6829D01*
X6806Y10326D02*
X6829D01*
X6429Y9866D02*
X6452D01*
X6429Y10326D02*
X6452D01*
X6829Y9866D02*
Y10326D01*
X6429Y9866D02*
Y10326D01*
X5071Y1698D02*
X5331D01*
X5376Y1679D02*
Y1903D01*
X5026Y1679D02*
Y1903D01*
X3616Y10169D02*
X3916D01*
X3416Y9189D02*
X3916D01*
X1119Y9884D02*
X1379D01*
X1119Y10374D02*
X1379D01*
X1303Y5921D02*
X1507D01*
X1303Y6150D02*
X1507D01*
X1519Y6009D02*
Y6060D01*
X3479Y4730D02*
X3523Y4686D01*
X3429Y4730D02*
X3479D01*
X3148Y4449D02*
X3429Y4730D01*
X4914Y4686D02*
X4958Y4730D01*
X5008D01*
X5282Y4456D01*
X3148Y4312D02*
Y4449D01*
X5282Y4312D02*
Y4456D01*
X4623Y3481D02*
Y3987D01*
X4933Y3481D02*
Y3987D01*
X3813Y3481D02*
Y3987D01*
X3503Y3481D02*
Y3987D01*
X4215Y4457D02*
Y4569D01*
X4102Y4457D02*
X4215D01*
X4102Y4423D02*
Y4457D01*
Y4423D02*
X4215D01*
Y4310D02*
Y4423D01*
Y4310D02*
X4249D01*
Y4423D01*
X4361D01*
Y4457D01*
X4249D02*
X4361D01*
X4249D02*
Y4569D01*
X4215D02*
X4249D01*
X3816Y3481D02*
Y3987D01*
X3501Y3481D02*
Y3987D01*
Y3481D02*
X3816D01*
X5112Y3223D02*
X5246Y3582D01*
X3190Y3585D02*
X3325Y3223D01*
X3523Y4686D02*
X4914D01*
X4621Y3481D02*
X4936D01*
Y3987D01*
X4621Y3481D02*
Y3987D01*
X3642Y5304D02*
X3742D01*
X3575Y5082D02*
X3634D01*
X3813D02*
Y5308D01*
X3634Y5082D02*
X3813D01*
X3575D02*
Y5467D01*
Y5483D02*
X3592D01*
X3575Y5467D02*
Y5483D01*
X3813Y5308D02*
Y5483D01*
X3592D02*
X3813D01*
X3692Y5304D02*
X3692Y5329D01*
X3642Y5266D02*
X3742D01*
X3692D02*
X3692Y5240D01*
X3038Y7839D02*
X3299D01*
X3038Y8329D02*
X3299D01*
X8292Y12560D02*
Y12850D01*
X7912Y12560D02*
Y12850D01*
X8292D01*
X7912Y12560D02*
X8292D01*
X7593Y10511D02*
X7778D01*
X7593Y11061D02*
X7778D01*
X8895Y1698D02*
X9155D01*
X9200Y1679D02*
Y1903D01*
X8850Y1679D02*
Y1903D01*
X8218Y12422D02*
X8268D01*
X8218Y12342D02*
Y12422D01*
Y12122D02*
X8268D01*
X8218D02*
Y12202D01*
X77Y7257D02*
Y8567D01*
X1482Y7324D02*
Y7825D01*
Y8399D02*
Y8500D01*
X347Y8567D02*
X637D01*
X937D02*
X1147D01*
X6938Y1679D02*
Y1903D01*
X7288Y1679D02*
Y1903D01*
X6983Y1698D02*
X7243D01*
X5982Y1679D02*
Y1903D01*
X6332Y1679D02*
Y1903D01*
X6027Y1698D02*
X6287D01*
X4070Y1679D02*
Y1903D01*
X4420Y1679D02*
Y1903D01*
X4114Y1698D02*
X4374D01*
X7894Y1679D02*
Y1903D01*
X8244Y1679D02*
Y1903D01*
X7939Y1698D02*
X8199D01*
X3160Y12150D02*
X3420D01*
X3160Y11660D02*
X3420D01*
X7593Y11137D02*
X7778D01*
X7593Y11687D02*
X7778D01*
D11*
X2351Y13743D02*
Y13847D01*
X2118Y13743D02*
Y13847D01*
X2351D01*
X2118Y13743D02*
X2351D01*
Y13847D02*
Y13950D01*
X2118Y13847D02*
Y13950D01*
X2351D01*
X2118Y13847D02*
X2351D01*
X2118Y13950D02*
Y14054D01*
X2351Y13950D02*
Y14054D01*
X2118Y13950D02*
X2351D01*
X2118Y14054D02*
X2351D01*
X8688Y10377D02*
Y10481D01*
X8456D02*
X8688D01*
X8456Y10377D02*
Y10481D01*
Y10377D02*
X8688D01*
X3686Y8246D02*
Y8350D01*
X3919Y8246D02*
Y8350D01*
X3686Y8246D02*
X3919D01*
X3686Y8350D02*
X3919D01*
Y8139D02*
Y8242D01*
X3686Y8139D02*
Y8242D01*
X3919D01*
X3686Y8139D02*
X3919D01*
X3052Y8369D02*
X3284D01*
X3052D02*
Y8472D01*
X3284D01*
Y8369D02*
Y8472D01*
X6130Y9571D02*
X6145D01*
X6130D02*
Y9708D01*
X6142D01*
X6139Y9571D02*
Y9708D01*
X6145D01*
Y9571D02*
Y9708D01*
X6402D01*
X6145Y9571D02*
X6402D01*
X1294Y5880D02*
X1526D01*
Y5777D02*
Y5880D01*
X1294Y5777D02*
X1526D01*
X1294D02*
Y5880D01*
X1190Y6088D02*
Y6192D01*
X958Y6088D02*
Y6192D01*
X1190D01*
X958Y6088D02*
X1190D01*
X958Y5881D02*
Y5985D01*
X1190Y5881D02*
Y5985D01*
X958Y5881D02*
X1190D01*
X958Y5985D02*
X1190D01*
Y5985D02*
Y6088D01*
X958D02*
X1190D01*
X958Y5985D02*
Y6088D01*
Y5985D02*
X1190D01*
X3803Y11861D02*
X4035D01*
Y11758D02*
Y11861D01*
X3803Y11758D02*
X4035D01*
X3803D02*
Y11861D01*
X9249Y9003D02*
X9259D01*
X8992Y9393D02*
X9170D01*
X9259Y9007D02*
Y9388D01*
X8903Y9007D02*
Y9393D01*
X8992Y9003D02*
X9170D01*
X9249Y9393D02*
X9259D01*
X8906D02*
X8913D01*
X8906Y9003D02*
X8916D01*
X5096Y6081D02*
Y6185D01*
X4864Y6081D02*
Y6185D01*
X5096D01*
X4864Y6081D02*
X5096D01*
Y6196D02*
Y6299D01*
X4864Y6196D02*
Y6299D01*
X5096D01*
X4864Y6196D02*
X5096D01*
X8906Y9679D02*
X8916D01*
X8906Y10069D02*
X8913D01*
X9249D02*
X9259D01*
X8992Y9679D02*
X9170D01*
X8903Y9684D02*
Y10069D01*
X9259Y9684D02*
Y10065D01*
X8992Y10069D02*
X9170D01*
X9249Y9679D02*
X9259D01*
X3803Y11966D02*
X4035D01*
X3803Y12070D02*
X4035D01*
X3803Y11966D02*
Y12070D01*
X4035Y11966D02*
Y12070D01*
X3803Y12174D02*
X4035D01*
X3803Y12070D02*
X4035D01*
Y12174D01*
X3803Y12070D02*
Y12174D01*
Y11860D02*
X4035D01*
X3803Y11964D02*
X4035D01*
X3803Y11860D02*
Y11964D01*
X4035Y11860D02*
Y11964D01*
X3172Y12188D02*
X3404D01*
X3172D02*
Y12291D01*
X3404D01*
Y12188D02*
Y12291D01*
X3161Y11606D02*
X3393D01*
Y11503D02*
Y11606D01*
X3161Y11503D02*
X3393D01*
X3161D02*
Y11606D01*
X8254Y11005D02*
Y11108D01*
X8487Y11005D02*
Y11108D01*
X8254Y11005D02*
X8487D01*
X8254Y11108D02*
X8487D01*
X8254Y11122D02*
Y11225D01*
X8487Y11122D02*
Y11225D01*
X8254Y11122D02*
X8487D01*
X8254Y11225D02*
X8487D01*
X8254Y11239D02*
Y11343D01*
X8487Y11239D02*
Y11343D01*
X8254Y11239D02*
X8487D01*
X8254Y11343D02*
X8487D01*
X3460Y13667D02*
X3692D01*
X3460Y13771D02*
X3692D01*
X3460Y13667D02*
Y13771D01*
X3692Y13667D02*
Y13771D01*
X3456Y13879D02*
X3688D01*
X3456Y13775D02*
X3688D01*
Y13879D01*
X3456Y13775D02*
Y13879D01*
X9262Y11203D02*
X9494D01*
X9262Y11307D02*
X9494D01*
X9262Y11203D02*
Y11307D01*
X9494Y11203D02*
Y11307D01*
X8836Y11544D02*
Y11776D01*
X8733Y11544D02*
Y11776D01*
Y11544D02*
X8836D01*
X8733Y11776D02*
X8836D01*
X8551Y12422D02*
X8783D01*
X8551Y12318D02*
X8783D01*
Y12422D01*
X8551Y12318D02*
Y12422D01*
Y12214D02*
X8783D01*
X8551Y12318D02*
X8783D01*
X8551Y12214D02*
Y12318D01*
X8783Y12214D02*
Y12318D01*
X8941Y11544D02*
Y11776D01*
X8838Y11544D02*
Y11776D01*
Y11544D02*
X8941D01*
X8838Y11776D02*
X8941D01*
X7784Y12127D02*
X8016D01*
X7784Y12023D02*
X8016D01*
Y12127D01*
X7784Y12023D02*
Y12127D01*
Y12123D02*
X8016D01*
X7784Y12227D02*
X8016D01*
X7784Y12123D02*
Y12227D01*
X8016Y12123D02*
Y12227D01*
X7784Y12226D02*
X8016D01*
X7784Y12330D02*
X8016D01*
X7784Y12226D02*
Y12330D01*
X8016Y12226D02*
Y12330D01*
X8564Y12717D02*
X8796D01*
X8564Y12613D02*
X8796D01*
Y12717D01*
X8564Y12613D02*
Y12717D01*
Y12819D02*
X8796D01*
X8564Y12716D02*
X8796D01*
Y12819D01*
X8564Y12716D02*
Y12819D01*
X7383Y12590D02*
X7615D01*
X7383Y12694D02*
X7615D01*
X7383Y12590D02*
Y12694D01*
X7615Y12590D02*
Y12694D01*
X9262Y11099D02*
X9494D01*
X9262Y11203D02*
X9494D01*
X9262Y11099D02*
Y11203D01*
X9494Y11099D02*
Y11203D01*
X9262Y10995D02*
X9494D01*
X9262Y11099D02*
X9494D01*
X9262Y10995D02*
Y11099D01*
X9494Y10995D02*
Y11099D01*
Y11307D02*
Y11410D01*
X9262Y11307D02*
Y11410D01*
X9494D01*
X9262Y11307D02*
X9494D01*
X3686Y8030D02*
X3919D01*
X3686Y8134D02*
X3919D01*
X3686Y8030D02*
Y8134D01*
X3919Y8030D02*
Y8134D01*
X3686Y8033D02*
X3919D01*
Y7929D02*
Y8033D01*
X3686Y7929D02*
X3919D01*
X3686D02*
Y8033D01*
X3050Y7678D02*
Y7782D01*
Y7678D02*
X3283D01*
Y7782D01*
X3050D02*
X3283D01*
X2449Y5305D02*
Y5409D01*
Y5305D02*
X2682D01*
Y5409D01*
X2449D02*
X2682D01*
D14*
X2233Y13707D02*
X2456D01*
X2233Y13614D02*
X2456D01*
Y13707D01*
X2233Y13614D02*
Y13707D01*
X2626Y10623D02*
Y10716D01*
X2849Y10623D02*
Y10716D01*
X2626Y10623D02*
X2849D01*
X2626Y10716D02*
X2849D01*
X2626Y10715D02*
Y10808D01*
X2849Y10715D02*
Y10808D01*
X2626Y10715D02*
X2849D01*
X2626Y10808D02*
X2849D01*
X2324Y10972D02*
X2546D01*
X2324Y10879D02*
X2546D01*
Y10972D01*
X2324Y10879D02*
Y10972D01*
X2541Y10641D02*
Y10671D01*
Y10810D02*
Y10841D01*
X2341Y10641D02*
Y10671D01*
Y10810D02*
Y10841D01*
X7318Y4585D02*
X7411D01*
X7318Y4808D02*
X7411D01*
Y4585D02*
Y4808D01*
X7318Y4585D02*
Y4808D01*
X5324Y10748D02*
X5417D01*
X5324Y10526D02*
X5417D01*
X5324D02*
Y10748D01*
X5417Y10526D02*
Y10748D01*
X2982Y913D02*
Y1162D01*
X3110Y913D02*
Y1162D01*
X2982Y913D02*
X3110D01*
X2982Y1162D02*
X3110D01*
X2999Y681D02*
Y904D01*
X3092Y681D02*
Y904D01*
X2999D02*
X3092D01*
X2999Y681D02*
X3092D01*
X2915Y5819D02*
Y5912D01*
X2693Y5819D02*
Y5912D01*
X2915D01*
X2693Y5819D02*
X2915D01*
X2856Y6137D02*
Y6230D01*
X2633Y6137D02*
Y6230D01*
X2856D01*
X2633Y6137D02*
X2856D01*
X6606Y6254D02*
X6829D01*
X6606Y6347D02*
X6829D01*
X6606Y6254D02*
Y6347D01*
X6829Y6254D02*
Y6347D01*
X6970Y5736D02*
X7192D01*
X6970Y5642D02*
X7192D01*
Y5736D01*
X6970Y5642D02*
Y5736D01*
X7397Y5968D02*
X7490D01*
X7397Y5745D02*
X7490D01*
X7397D02*
Y5968D01*
X7490Y5745D02*
Y5968D01*
X5885Y5062D02*
Y5285D01*
X5978Y5062D02*
Y5285D01*
X5885D02*
X5978D01*
X5885Y5062D02*
X5978D01*
X5980Y5301D02*
Y5524D01*
X5886Y5301D02*
Y5524D01*
Y5301D02*
X5980D01*
X5886Y5524D02*
X5980D01*
X6121Y4755D02*
X6344D01*
X6121Y4662D02*
X6344D01*
Y4755D01*
X6121Y4662D02*
Y4755D01*
X6185Y5027D02*
X6408D01*
X6185Y4934D02*
X6408D01*
Y5027D01*
X6185Y4934D02*
Y5027D01*
X6132Y5324D02*
Y5546D01*
X6039Y5324D02*
Y5546D01*
Y5324D02*
X6132D01*
X6039Y5546D02*
X6132D01*
X5918Y6270D02*
X6012D01*
X5918Y6047D02*
X6012D01*
X5918D02*
Y6270D01*
X6012Y6047D02*
Y6270D01*
X6203Y5942D02*
Y6165D01*
X6296Y5942D02*
Y6165D01*
X6203D02*
X6296D01*
X6203Y5942D02*
X6296D01*
X5878Y6163D02*
Y6386D01*
X5784Y6163D02*
Y6386D01*
Y6163D02*
X5878D01*
X5784Y6386D02*
X5878D01*
X5874Y5706D02*
Y5929D01*
X5968Y5706D02*
Y5929D01*
X5874D02*
X5968D01*
X5874Y5706D02*
X5968D01*
X5872Y5944D02*
X6095D01*
X5872Y6037D02*
X6095D01*
X5872Y5944D02*
Y6037D01*
X6095Y5944D02*
Y6037D01*
X6098Y6349D02*
X6321D01*
X6098Y6256D02*
X6321D01*
Y6349D01*
X6098Y6256D02*
Y6349D01*
X6338Y6348D02*
X6561D01*
X6338Y6255D02*
X6561D01*
Y6348D01*
X6338Y6255D02*
Y6348D01*
X6101Y6541D02*
X6324D01*
X6101Y6448D02*
X6324D01*
Y6541D01*
X6101Y6448D02*
Y6541D01*
X6591Y5891D02*
Y6114D01*
X6684Y5891D02*
Y6114D01*
X6591D02*
X6684D01*
X6591Y5891D02*
X6684D01*
X6378Y6541D02*
X6601D01*
X6378Y6448D02*
X6601D01*
Y6541D01*
X6378Y6448D02*
Y6541D01*
X6820Y4811D02*
X7043D01*
X6820Y4718D02*
X7043D01*
Y4811D01*
X6820Y4718D02*
Y4811D01*
X6937Y4705D02*
X7160D01*
X6937Y4612D02*
X7160D01*
Y4705D01*
X6937Y4612D02*
Y4705D01*
X6882Y4922D02*
Y5016D01*
X7105Y4922D02*
Y5016D01*
X6882Y4922D02*
X7105D01*
X6882Y5016D02*
X7105D01*
X7422Y4761D02*
Y4984D01*
X7515Y4761D02*
Y4984D01*
X7422D02*
X7515D01*
X7422Y4761D02*
X7515D01*
X7547Y5372D02*
Y5595D01*
X7454Y5372D02*
Y5595D01*
Y5372D02*
X7547D01*
X7454Y5595D02*
X7547D01*
X7677Y5206D02*
Y5429D01*
X7770Y5206D02*
Y5429D01*
X7677D02*
X7770D01*
X7677Y5206D02*
X7770D01*
X6787Y5891D02*
X6880D01*
X6787Y6114D02*
X6880D01*
Y5891D02*
Y6114D01*
X6787Y5891D02*
Y6114D01*
X6895Y5891D02*
Y6114D01*
X6988Y5891D02*
Y6114D01*
X6895D02*
X6988D01*
X6895Y5891D02*
X6988D01*
X6650Y6541D02*
X6873D01*
X6650Y6448D02*
X6873D01*
Y6541D01*
X6650Y6448D02*
Y6541D01*
X6927Y6620D02*
X7150D01*
X6927Y6527D02*
X7150D01*
Y6620D01*
X6927Y6527D02*
Y6620D01*
X7338Y6461D02*
X7561D01*
X7338Y6554D02*
X7561D01*
X7338Y6461D02*
Y6554D01*
X7561Y6461D02*
Y6554D01*
X4945Y10220D02*
X5038D01*
X4945Y10443D02*
X5038D01*
Y10220D02*
Y10443D01*
X4945Y10220D02*
Y10443D01*
X4652Y10613D02*
X4780D01*
X4652Y10364D02*
X4780D01*
Y10613D01*
X4652Y10364D02*
Y10613D01*
X4928Y10702D02*
X5055D01*
X4928Y10453D02*
X5055D01*
Y10702D01*
X4928Y10453D02*
Y10702D01*
X8532Y10715D02*
X8612D01*
X8532Y10545D02*
X8612D01*
X4956Y9097D02*
Y9346D01*
X4828Y9097D02*
Y9346D01*
X4956D01*
X4828Y9097D02*
X4956D01*
X5778Y8548D02*
Y8797D01*
X5651Y8548D02*
Y8797D01*
X5778D01*
X5651Y8548D02*
X5778D01*
X5614Y8913D02*
X5836D01*
X5614Y8820D02*
X5836D01*
Y8913D01*
X5614Y8820D02*
Y8913D01*
X1993Y10185D02*
Y10278D01*
X1770Y10185D02*
Y10278D01*
X1993D01*
X1770Y10185D02*
X1993D01*
X1770Y10278D02*
Y10371D01*
X1993Y10278D02*
Y10371D01*
X1770Y10278D02*
X1993D01*
X1770Y10371D02*
X1993D01*
X1770Y10002D02*
Y10095D01*
X1993Y10002D02*
Y10095D01*
X1770Y10002D02*
X1993D01*
X1770Y10095D02*
X1993D01*
Y10094D02*
Y10187D01*
X1770Y10094D02*
Y10187D01*
X1993D01*
X1770Y10094D02*
X1993D01*
X1362Y10413D02*
Y10507D01*
X1140Y10413D02*
Y10507D01*
X1362D01*
X1140Y10413D02*
X1362D01*
X724Y10134D02*
Y10460D01*
X554D02*
X724D01*
X554Y10134D02*
Y10460D01*
X577Y10134D02*
X724D01*
X554D02*
X577D01*
X543D02*
Y10460D01*
X373D02*
X543D01*
X373Y10134D02*
Y10460D01*
X396Y10134D02*
X543D01*
X373D02*
X396D01*
X1139Y9730D02*
Y9824D01*
X1362Y9730D02*
Y9824D01*
X1139Y9730D02*
X1362D01*
X1139Y9824D02*
X1362D01*
X1402Y9200D02*
X1422D01*
X1402D02*
Y9800D01*
X1422D01*
X1982Y9200D02*
X2002D01*
Y9800D01*
X1982D02*
X2002D01*
X554Y9799D02*
Y10124D01*
Y9799D02*
X724D01*
Y10124D01*
X554D02*
X701D01*
X724D01*
X373Y9799D02*
Y10124D01*
Y9799D02*
X543D01*
Y10124D01*
X373D02*
X520D01*
X543D01*
X2197Y9294D02*
X2220D01*
X2050D02*
X2197D01*
X2220Y8969D02*
Y9294D01*
X2050Y8969D02*
X2220D01*
X2050D02*
Y9294D01*
X2374D02*
X2398D01*
X2227D02*
X2374D01*
X2398Y8969D02*
Y9294D01*
X2227Y8969D02*
X2398D01*
X2227D02*
Y9294D01*
X2047Y9311D02*
X2070D01*
X2217D01*
X2047D02*
Y9636D01*
X2217D01*
Y9311D02*
Y9636D01*
X4026Y9087D02*
Y9180D01*
X4249Y9087D02*
Y9180D01*
X4026Y9087D02*
X4249D01*
X4026Y9180D02*
X4249D01*
X4175Y10083D02*
X4398D01*
X4175Y10176D02*
X4398D01*
X4175Y10083D02*
Y10176D01*
X4398Y10083D02*
Y10176D01*
X3207Y9435D02*
X3300D01*
X3207Y9213D02*
X3300D01*
X3207D02*
Y9435D01*
X3300Y9213D02*
Y9435D01*
X4176Y9989D02*
X4398D01*
X4176Y10082D02*
X4398D01*
X4176Y9989D02*
Y10082D01*
X4398Y9989D02*
Y10082D01*
X4689Y9601D02*
X4782D01*
X4689Y9378D02*
X4782D01*
X4689D02*
Y9601D01*
X4782Y9378D02*
Y9601D01*
X9691Y8884D02*
Y8977D01*
X9913Y8884D02*
Y8977D01*
X9691Y8884D02*
X9913D01*
X9691Y8977D02*
X9913D01*
X9696Y9492D02*
Y9586D01*
X9919Y9492D02*
Y9586D01*
X9696Y9492D02*
X9919D01*
X9696Y9586D02*
X9919D01*
X9692Y10004D02*
Y10097D01*
X9915Y10004D02*
Y10097D01*
X9692Y10004D02*
X9915D01*
X9692Y10097D02*
X9915D01*
X9696Y9391D02*
Y9485D01*
X9919Y9391D02*
Y9485D01*
X9696Y9391D02*
X9919D01*
X9696Y9485D02*
X9919D01*
X8240Y9285D02*
Y9508D01*
X8333Y9285D02*
Y9508D01*
X8240D02*
X8333D01*
X8240Y9285D02*
X8333D01*
X9770Y5484D02*
X9993D01*
X9770Y5577D02*
X9993D01*
X9770Y5484D02*
Y5577D01*
X9993Y5484D02*
Y5577D01*
X7953Y4652D02*
Y4745D01*
X8176Y4652D02*
Y4745D01*
X7953Y4652D02*
X8176D01*
X7953Y4745D02*
X8176D01*
X6262Y8143D02*
Y8236D01*
X6484Y8143D02*
Y8236D01*
X6262Y8143D02*
X6484D01*
X6262Y8236D02*
X6484D01*
X6466Y7762D02*
Y7855D01*
X6244Y7762D02*
Y7855D01*
X6466D01*
X6244Y7762D02*
X6466D01*
X6262Y7378D02*
Y7471D01*
X6484Y7378D02*
Y7471D01*
X6262Y7378D02*
X6484D01*
X6262Y7471D02*
X6484D01*
X6481Y6996D02*
Y7089D01*
X6259Y6996D02*
Y7089D01*
X6481D01*
X6259Y6996D02*
X6481D01*
X8616Y11352D02*
Y11423D01*
X8687D01*
X9045D02*
X9116D01*
Y11352D02*
Y11423D01*
Y10923D02*
Y10994D01*
X9045Y10923D02*
X9116D01*
X8616D02*
X8687D01*
X8616D02*
Y10994D01*
X3319Y7168D02*
X3339D01*
X3319D02*
Y7768D01*
X3339D01*
X3899Y7168D02*
X3919D01*
Y7768D01*
X3899D02*
X3919D01*
X2970Y14227D02*
X3152D01*
X2970Y13967D02*
X3001D01*
X3152D01*
X5815Y7818D02*
Y7911D01*
X5592Y7818D02*
Y7911D01*
X5815D01*
X5592Y7818D02*
X5815D01*
X54Y3268D02*
Y3528D01*
X314Y3465D02*
Y3528D01*
Y3268D02*
Y3331D01*
X620Y3301D02*
X2220D01*
X620Y4901D02*
X2220D01*
X5012Y5349D02*
Y5674D01*
X4842D02*
X5012D01*
X4842Y5349D02*
Y5674D01*
X4865Y5349D02*
X5012D01*
X4842D02*
X4865D01*
X4517Y6175D02*
X4842D01*
Y6345D01*
X4517D02*
X4842D01*
X4517Y6175D02*
Y6322D01*
Y6345D01*
X4176D02*
X4501D01*
X4176Y6175D02*
Y6345D01*
Y6175D02*
X4501D01*
Y6198D02*
Y6345D01*
Y6175D02*
Y6198D01*
X4844Y5007D02*
Y5332D01*
Y5007D02*
X5014D01*
Y5332D01*
X4844D02*
X4991D01*
X5014D01*
X8456Y8435D02*
Y8528D01*
X8233Y8435D02*
Y8528D01*
X8456D01*
X8233Y8435D02*
X8456D01*
X6101Y10683D02*
X6195D01*
X6101Y10460D02*
X6195D01*
X6101D02*
Y10683D01*
X6195Y10460D02*
Y10683D01*
X5752Y10511D02*
Y10604D01*
X5975Y10511D02*
Y10604D01*
X5752Y10511D02*
X5975D01*
X5752Y10604D02*
X5975D01*
X286Y4368D02*
X379D01*
X286Y4145D02*
X379D01*
X286D02*
Y4368D01*
X379Y4145D02*
Y4368D01*
X3446Y10978D02*
X3466D01*
X3446D02*
Y11578D01*
X3466D01*
X4026Y10978D02*
X4046D01*
Y11578D01*
X4026D02*
X4046D01*
X2211Y1170D02*
Y1263D01*
X1988Y1170D02*
Y1263D01*
X2211D01*
X1988Y1170D02*
X2211D01*
X2304Y962D02*
Y1055D01*
X2081Y962D02*
Y1055D01*
X2304D01*
X2081Y962D02*
X2304D01*
X2489Y805D02*
X2582D01*
X2489Y1027D02*
X2582D01*
Y805D02*
Y1027D01*
X2489Y805D02*
Y1027D01*
X2859Y918D02*
Y1011D01*
X2636Y918D02*
Y1011D01*
X2859D01*
X2636Y918D02*
X2859D01*
X2500Y378D02*
X2722D01*
X2500Y285D02*
X2722D01*
Y378D01*
X2500Y285D02*
Y378D01*
X2392Y535D02*
Y628D01*
X2614Y535D02*
Y628D01*
X2392Y535D02*
X2614D01*
X2392Y628D02*
X2614D01*
X2394Y906D02*
X2487D01*
X2394Y683D02*
X2487D01*
X2394D02*
Y906D01*
X2487Y683D02*
Y906D01*
X2097Y331D02*
X2190D01*
X2097Y553D02*
X2190D01*
Y331D02*
Y553D01*
X2097Y331D02*
Y553D01*
X2717Y563D02*
X2844D01*
X2717Y812D02*
X2844D01*
X2717Y563D02*
Y812D01*
X2844Y563D02*
Y812D01*
X2325Y1188D02*
Y1281D01*
X2547Y1188D02*
Y1281D01*
X2325Y1188D02*
X2547D01*
X2325Y1281D02*
X2547D01*
X1000Y8755D02*
Y8978D01*
X907Y8755D02*
Y8978D01*
Y8755D02*
X1000D01*
X907Y8978D02*
X1000D01*
X1558Y8289D02*
X1781D01*
X1558Y8382D02*
X1781D01*
X1558Y8289D02*
Y8382D01*
X1781Y8289D02*
Y8382D01*
X1564Y7857D02*
X1787D01*
X1564Y7950D02*
X1787D01*
X1564Y7857D02*
Y7950D01*
X1787Y7857D02*
Y7950D01*
X466Y8689D02*
Y8712D01*
Y8859D01*
X140Y8689D02*
X466D01*
X140D02*
Y8859D01*
X466D01*
X2055Y13556D02*
Y13779D01*
X1962Y13556D02*
Y13779D01*
Y13556D02*
X2055D01*
X1962Y13779D02*
X2055D01*
X3457Y13987D02*
X3680D01*
X3457Y13894D02*
X3680D01*
Y13987D01*
X3457Y13894D02*
Y13987D01*
X3661Y12916D02*
X3910D01*
X3661Y13044D02*
X3910D01*
Y12916D02*
Y13044D01*
X3661Y12916D02*
Y13044D01*
X9259Y12076D02*
X9481D01*
X9259Y11983D02*
X9481D01*
Y12076D01*
X9259Y11983D02*
Y12076D01*
D15*
X6633Y10471D02*
G03*
X6633Y10471I-12J0D01*
G01*
X1000Y9858D02*
G03*
X1000Y9858I-12J0D01*
G01*
X2910Y7815D02*
G03*
X2910Y7815I-12J0D01*
G01*
X8442Y12856D02*
G03*
X8442Y12856I-12J0D01*
G01*
X8401Y12452D02*
G03*
X8401Y12452I-12J0D01*
G01*
X3047Y11633D02*
G03*
X3047Y11633I-12J0D01*
G01*
D16*
X4447Y6093D02*
G03*
X4447Y6093I-10J0D01*
G01*
X5579Y11976D02*
X5596D01*
X5571Y10406D02*
X6315D01*
Y10342D02*
Y10406D01*
X5571Y9761D02*
X6315D01*
X5571D02*
Y9826D01*
Y10042D02*
Y10126D01*
Y10342D02*
Y10406D01*
X6315Y10042D02*
Y10126D01*
Y9761D02*
Y9826D01*
X2837Y12949D02*
Y12983D01*
X2497Y13315D02*
X2837D01*
Y13280D02*
Y13315D01*
X2497Y12949D02*
X2837D01*
X2497D02*
Y12983D01*
Y13280D02*
Y13315D01*
X4962Y10048D02*
X4993D01*
X4633D02*
X4665D01*
X4633Y9688D02*
Y10048D01*
X4962Y9688D02*
X4993D01*
Y10048D01*
X4633Y9688D02*
X4665D01*
X5286Y9728D02*
X5382D01*
X5286Y9525D02*
X5382D01*
X4546Y9800D02*
X4609D01*
X4190Y9318D02*
Y9800D01*
X4253D01*
X4609Y9318D02*
Y9800D01*
X4546Y9318D02*
X4609D01*
X4190D02*
X4253D01*
X6794Y855D02*
X6811D01*
X4777Y6054D02*
X4824D01*
X4390D02*
X4437D01*
X4390Y5620D02*
Y6054D01*
X4777Y5620D02*
X4824D01*
Y6054D01*
X4390Y5620D02*
X4437D01*
X8678Y855D02*
X8694D01*
X3942Y860D02*
X3959D01*
X4891Y855D02*
X4907D01*
X5852D02*
X5868D01*
X7734D02*
X7751D01*
X2776Y13444D02*
X2810D01*
X3107D02*
X3142D01*
Y13785D01*
X2776D02*
X2810D01*
X2776Y13444D02*
Y13785D01*
X3107D02*
X3142D01*
D17*
X9498Y12297D02*
Y12332D01*
X9063D02*
X9498D01*
Y12132D02*
Y12297D01*
X9063Y12132D02*
X9498D01*
X9063D02*
Y12332D01*
X9498Y12530D02*
Y12565D01*
X9063D02*
X9498D01*
Y12365D02*
Y12530D01*
X9063Y12365D02*
X9498D01*
X9063D02*
Y12565D01*
X4300Y7257D02*
X4320D01*
X4140D02*
X4300D01*
X4320Y6917D02*
Y7257D01*
X4160Y6917D02*
X4320D01*
X4140D02*
Y7257D01*
Y6917D02*
X4160D01*
X3961Y7259D02*
X3981D01*
X4141D01*
X3961D02*
Y7599D01*
X4121D01*
X4141Y7259D02*
Y7599D01*
X4121D02*
X4141D01*
X2553Y12256D02*
X2573D01*
Y11916D02*
Y12256D01*
X2393D02*
X2553D01*
X2393Y11916D02*
Y12256D01*
X2413Y11916D02*
X2573D01*
X2393D02*
X2413D01*
X2590Y11563D02*
X2610D01*
X2590D02*
Y11903D01*
X2610Y11563D02*
X2770D01*
Y11903D01*
X2590D02*
X2750D01*
X2770D01*
X3038Y12761D02*
Y12781D01*
Y12941D01*
X2698Y12761D02*
X3038D01*
X2698D02*
Y12921D01*
Y12941D02*
X3038D01*
X2698Y12921D02*
Y12941D01*
X3038Y12558D02*
Y12578D01*
Y12738D01*
X2698Y12558D02*
X3038D01*
X2698D02*
Y12718D01*
Y12738D02*
X3038D01*
X2698Y12718D02*
Y12738D01*
X4060Y10365D02*
Y10385D01*
Y10205D02*
Y10365D01*
Y10385D02*
X4400D01*
Y10225D02*
Y10385D01*
X4060Y10205D02*
X4400D01*
Y10225D01*
X4060Y10543D02*
Y10563D01*
Y10383D02*
Y10543D01*
Y10563D02*
X4400D01*
Y10403D02*
Y10563D01*
X4060Y10383D02*
X4400D01*
Y10403D01*
X6596Y10449D02*
Y10469D01*
Y10629D01*
X6256Y10449D02*
X6596D01*
X6256D02*
Y10609D01*
Y10629D02*
X6596D01*
X6256Y10609D02*
Y10629D01*
X2966Y5411D02*
X3291D01*
X2966Y4914D02*
Y5411D01*
X2970Y4914D02*
X3295D01*
X3291Y5411D02*
X3301D01*
Y4914D02*
Y5411D01*
X3295Y4914D02*
X3301D01*
X4121Y7257D02*
X4141D01*
X3961D02*
X4121D01*
X4141Y6917D02*
Y7257D01*
X3981Y6917D02*
X4141D01*
X3961D02*
Y7257D01*
Y6917D02*
X3981D01*
X4136Y13910D02*
X4170D01*
X4136Y13474D02*
Y13910D01*
X4170D02*
X4336D01*
Y13474D02*
Y13910D01*
X4136Y13474D02*
X4336D01*
X649Y8722D02*
X748D01*
Y9004D01*
X649Y8722D02*
Y9004D01*
X748D01*
X2589Y11916D02*
X2609D01*
X2769D01*
X2589D02*
Y12256D01*
X2749D01*
X2769Y11916D02*
Y12256D01*
X2749D02*
X2769D01*
X2555Y11903D02*
X2575D01*
X2395D02*
X2555D01*
X2575Y11563D02*
Y11903D01*
X2415Y11563D02*
X2575D01*
X2395D02*
Y11903D01*
Y11563D02*
X2415D01*
X4267Y10740D02*
X4287D01*
X4267D02*
Y11080D01*
X4287Y10740D02*
X4447D01*
Y11080D01*
X4267D02*
X4427D01*
X4447D01*
X4234Y11421D02*
X4254D01*
Y11081D02*
Y11421D01*
X4074D02*
X4234D01*
X4074Y11081D02*
Y11421D01*
X4094Y11081D02*
X4254D01*
X4074D02*
X4094D01*
X4074Y10740D02*
X4094D01*
X4074D02*
Y11080D01*
X4094Y10740D02*
X4254D01*
Y11080D01*
X4074D02*
X4234D01*
X4254D01*
X5535Y3995D02*
Y4059D01*
X5587Y4179D02*
X5670D01*
Y4101D02*
Y4179D01*
X5670Y3879D02*
Y3956D01*
X5592Y3879D02*
X5670D01*
X3734Y13175D02*
X3797D01*
X3614Y13227D02*
Y13310D01*
X3691D01*
X3836Y13310D02*
X3914D01*
Y13232D02*
Y13310D01*
X2285Y7755D02*
X2305D01*
X2285D02*
Y8095D01*
X2305Y7755D02*
X2465D01*
Y8095D01*
X2285D02*
X2445D01*
X2465D01*
X2444Y8444D02*
X2464D01*
Y8104D02*
Y8444D01*
X2284D02*
X2444D01*
X2284Y8104D02*
Y8444D01*
X2304Y8104D02*
X2464D01*
X2284D02*
X2304D01*
X2628Y8444D02*
X2648D01*
Y8104D02*
Y8444D01*
X2468D02*
X2628D01*
X2468Y8104D02*
Y8444D01*
X2488Y8104D02*
X2648D01*
X2468D02*
X2488D01*
X2470Y7755D02*
X2490D01*
X2470D02*
Y8095D01*
X2490Y7755D02*
X2650D01*
Y8095D01*
X2470D02*
X2630D01*
X2650D01*
X2567Y13750D02*
Y13820D01*
X2532D01*
X2520Y13808D01*
Y13785D01*
X2532Y13773D01*
X2567D01*
X2544D02*
X2520Y13750D01*
X2462D02*
Y13820D01*
X2497Y13785D01*
X2450D01*
X2427Y13820D02*
X2380D01*
Y13808D01*
X2427Y13762D01*
Y13750D01*
X2562Y13863D02*
Y13933D01*
X2527D01*
X2515Y13921D01*
Y13898D01*
X2527Y13886D01*
X2562D01*
X2538D02*
X2515Y13863D01*
X2457D02*
Y13933D01*
X2492Y13898D01*
X2445D01*
X2375Y13933D02*
X2398Y13921D01*
X2422Y13898D01*
Y13874D01*
X2410Y13863D01*
X2387D01*
X2375Y13874D01*
Y13886D01*
X2387Y13898D01*
X2422D01*
X2541Y13635D02*
X2530Y13623D01*
X2506D01*
X2495Y13635D01*
Y13681D01*
X2506Y13693D01*
X2530D01*
X2541Y13681D01*
X2565Y13635D02*
X2576Y13623D01*
X2600D01*
X2611Y13635D01*
Y13646D01*
X2600Y13658D01*
X2611Y13670D01*
Y13681D01*
X2600Y13693D01*
X2576D01*
X2565Y13681D01*
Y13670D01*
X2576Y13658D01*
X2565Y13646D01*
Y13635D01*
X2576Y13658D02*
X2600D01*
X2635Y13635D02*
X2646Y13623D01*
X2670D01*
X2681Y13635D01*
Y13646D01*
X2670Y13658D01*
X2681Y13670D01*
Y13681D01*
X2670Y13693D01*
X2646D01*
X2635Y13681D01*
Y13670D01*
X2646Y13658D01*
X2635Y13646D01*
Y13635D01*
X2646Y13658D02*
X2670D01*
X2546Y13981D02*
Y14051D01*
X2511D01*
X2500Y14039D01*
Y14016D01*
X2511Y14004D01*
X2546D01*
X2523D02*
X2500Y13981D01*
X2430Y14051D02*
X2476D01*
Y14016D01*
X2453Y14028D01*
X2441D01*
X2430Y14016D01*
Y13993D01*
X2441Y13981D01*
X2465D01*
X2476Y13993D01*
X2406Y13981D02*
X2383D01*
X2395D01*
Y14051D01*
X2406Y14039D01*
X5634Y12189D02*
X5681D01*
Y12154D01*
X5658D01*
X5681D01*
Y12119D01*
X5611Y12189D02*
Y12119D01*
X5564D01*
X5494Y12189D02*
X5541D01*
Y12154D01*
X5518Y12166D01*
X5506D01*
X5494Y12154D01*
Y12131D01*
X5506Y12119D01*
X5529D01*
X5541Y12131D01*
X1481Y11623D02*
X1504D01*
X1493D01*
Y11565D01*
X1504Y11553D01*
X1516D01*
X1528Y11565D01*
X1458Y11553D02*
X1434D01*
X1446D01*
Y11623D01*
X1458Y11612D01*
X1399Y11623D02*
X1353D01*
Y11612D01*
X1399Y11565D01*
Y11553D01*
X4074Y6759D02*
X4086Y6747D01*
Y6724D01*
X4074Y6712D01*
X4028D01*
X4016Y6724D01*
Y6747D01*
X4028Y6759D01*
X4086Y6829D02*
Y6782D01*
X4051D01*
X4063Y6806D01*
Y6817D01*
X4051Y6829D01*
X4028D01*
X4016Y6817D01*
Y6794D01*
X4028Y6782D01*
X4016Y6852D02*
Y6875D01*
Y6864D01*
X4086D01*
X4074Y6852D01*
X2837Y10841D02*
Y10911D01*
X2802D01*
X2790Y10899D01*
Y10876D01*
X2802Y10864D01*
X2837D01*
X2814D02*
X2790Y10841D01*
X2767Y10899D02*
X2755Y10911D01*
X2732D01*
X2720Y10899D01*
Y10887D01*
X2732Y10876D01*
X2744D01*
X2732D01*
X2720Y10864D01*
Y10852D01*
X2732Y10841D01*
X2755D01*
X2767Y10852D01*
X2697Y10899D02*
X2685Y10911D01*
X2662D01*
X2650Y10899D01*
Y10887D01*
X2662Y10876D01*
X2674D01*
X2662D01*
X2650Y10864D01*
Y10852D01*
X2662Y10841D01*
X2685D01*
X2697Y10852D01*
X2828Y10523D02*
Y10593D01*
X2793D01*
X2782Y10582D01*
Y10558D01*
X2793Y10547D01*
X2828D01*
X2805D02*
X2782Y10523D01*
X2758Y10582D02*
X2747Y10593D01*
X2723D01*
X2712Y10582D01*
Y10570D01*
X2723Y10558D01*
X2735D01*
X2723D01*
X2712Y10547D01*
Y10535D01*
X2723Y10523D01*
X2747D01*
X2758Y10535D01*
X2642Y10523D02*
X2688D01*
X2642Y10570D01*
Y10582D01*
X2653Y10593D01*
X2677D01*
X2688Y10582D01*
X2509Y11066D02*
X2521Y11078D01*
X2544D01*
X2556Y11066D01*
Y11020D01*
X2544Y11008D01*
X2521D01*
X2509Y11020D01*
X2486Y11008D02*
X2463D01*
X2474D01*
Y11078D01*
X2486Y11066D01*
X2381Y11078D02*
X2428D01*
Y11043D01*
X2404Y11055D01*
X2393D01*
X2381Y11043D01*
Y11020D01*
X2393Y11008D01*
X2416D01*
X2428Y11020D01*
X2358Y11066D02*
X2346Y11078D01*
X2323D01*
X2311Y11066D01*
Y11055D01*
X2323Y11043D01*
X2334D01*
X2323D01*
X2311Y11031D01*
Y11020D01*
X2323Y11008D01*
X2346D01*
X2358Y11020D01*
X2490Y10536D02*
Y10583D01*
X2466Y10606D01*
X2443Y10583D01*
Y10536D01*
Y10571D01*
X2490D01*
X2420Y10536D02*
X2396D01*
X2408D01*
Y10606D01*
X2420Y10594D01*
X9673Y5489D02*
Y5559D01*
X9638D01*
X9626Y5548D01*
Y5524D01*
X9638Y5513D01*
X9673D01*
X9649D02*
X9626Y5489D01*
X9603D02*
X9579D01*
X9591D01*
Y5559D01*
X9603Y5548D01*
X9544D02*
X9533Y5559D01*
X9509D01*
X9498Y5548D01*
Y5501D01*
X9509Y5489D01*
X9533D01*
X9544Y5501D01*
Y5548D01*
X9428Y5559D02*
X9451Y5548D01*
X9474Y5524D01*
Y5501D01*
X9463Y5489D01*
X9439D01*
X9428Y5501D01*
Y5513D01*
X9439Y5524D01*
X9474D01*
X8131Y9274D02*
X8201D01*
Y9309D01*
X8189Y9320D01*
X8166D01*
X8154Y9309D01*
Y9274D01*
Y9297D02*
X8131Y9320D01*
Y9344D02*
Y9367D01*
Y9355D01*
X8201D01*
X8189Y9344D01*
Y9402D02*
X8201Y9414D01*
Y9437D01*
X8189Y9449D01*
X8142D01*
X8131Y9437D01*
Y9414D01*
X8142Y9402D01*
X8189D01*
X8131Y9507D02*
X8201D01*
X8166Y9472D01*
Y9519D01*
X4339Y5872D02*
Y5814D01*
X4327Y5802D01*
X4304D01*
X4292Y5814D01*
Y5872D01*
X4269Y5802D02*
X4246D01*
X4257D01*
Y5872D01*
X4269Y5860D01*
X4176Y5802D02*
Y5872D01*
X4211Y5837D01*
X4164D01*
X4722Y5140D02*
Y5070D01*
X4675D01*
X4605Y5140D02*
X4628Y5129D01*
X4652Y5105D01*
Y5082D01*
X4640Y5070D01*
X4617D01*
X4605Y5082D01*
Y5094D01*
X4617Y5105D01*
X4652D01*
X5154Y5523D02*
X5166Y5511D01*
Y5488D01*
X5154Y5476D01*
X5107D01*
X5096Y5488D01*
Y5511D01*
X5107Y5523D01*
X5096Y5546D02*
Y5569D01*
Y5558D01*
X5166D01*
X5154Y5546D01*
X5166Y5651D02*
Y5604D01*
X5131D01*
X5142Y5628D01*
Y5639D01*
X5131Y5651D01*
X5107D01*
X5096Y5639D01*
Y5616D01*
X5107Y5604D01*
X5096Y5721D02*
Y5674D01*
X5142Y5721D01*
X5154D01*
X5166Y5709D01*
Y5686D01*
X5154Y5674D01*
X4992Y4951D02*
X5003Y4963D01*
X5027D01*
X5038Y4951D01*
Y4904D01*
X5027Y4893D01*
X5003D01*
X4992Y4904D01*
X4968Y4893D02*
X4945D01*
X4957D01*
Y4963D01*
X4968Y4951D01*
X4863Y4963D02*
X4910D01*
Y4928D01*
X4887Y4939D01*
X4875D01*
X4863Y4928D01*
Y4904D01*
X4875Y4893D01*
X4898D01*
X4910Y4904D01*
X4840Y4893D02*
X4817D01*
X4828D01*
Y4963D01*
X4840Y4951D01*
X4093Y6277D02*
X4104Y6289D01*
X4128D01*
X4139Y6277D01*
Y6230D01*
X4128Y6219D01*
X4104D01*
X4093Y6230D01*
X4069Y6219D02*
X4046D01*
X4058D01*
Y6289D01*
X4069Y6277D01*
X3964Y6289D02*
X4011D01*
Y6254D01*
X3988Y6265D01*
X3976D01*
X3964Y6254D01*
Y6230D01*
X3976Y6219D01*
X3999D01*
X4011Y6230D01*
X3941Y6277D02*
X3929Y6289D01*
X3906D01*
X3894Y6277D01*
Y6230D01*
X3906Y6219D01*
X3929D01*
X3941Y6230D01*
Y6277D01*
X4749Y6462D02*
X4761Y6474D01*
X4784D01*
X4796Y6462D01*
Y6416D01*
X4784Y6404D01*
X4761D01*
X4749Y6416D01*
X4726Y6404D02*
X4703D01*
X4714D01*
Y6474D01*
X4726Y6462D01*
X4633Y6404D02*
Y6474D01*
X4668Y6439D01*
X4621D01*
X4598Y6416D02*
X4586Y6404D01*
X4563D01*
X4551Y6416D01*
Y6462D01*
X4563Y6474D01*
X4586D01*
X4598Y6462D01*
Y6451D01*
X4586Y6439D01*
X4551D01*
X8155Y4536D02*
X8166Y4548D01*
X8190D01*
X8201Y4536D01*
Y4489D01*
X8190Y4478D01*
X8166D01*
X8155Y4489D01*
X8131Y4478D02*
X8108D01*
X8120D01*
Y4548D01*
X8131Y4536D01*
X8038Y4478D02*
Y4548D01*
X8073Y4513D01*
X8026D01*
X8003Y4536D02*
X7991Y4548D01*
X7968D01*
X7956Y4536D01*
Y4524D01*
X7968Y4513D01*
X7956Y4501D01*
Y4489D01*
X7968Y4478D01*
X7991D01*
X8003Y4489D01*
Y4501D01*
X7991Y4513D01*
X8003Y4524D01*
Y4536D01*
X7991Y4513D02*
X7968D01*
X6438Y6932D02*
X6450Y6944D01*
X6473D01*
X6485Y6932D01*
Y6885D01*
X6473Y6874D01*
X6450D01*
X6438Y6885D01*
X6415Y6874D02*
X6392D01*
X6403D01*
Y6944D01*
X6415Y6932D01*
X6322Y6874D02*
Y6944D01*
X6357Y6909D01*
X6310D01*
X6287Y6944D02*
X6240D01*
Y6932D01*
X6287Y6885D01*
Y6874D01*
X6458Y7565D02*
X6470Y7576D01*
X6493D01*
X6505Y7565D01*
Y7518D01*
X6493Y7506D01*
X6470D01*
X6458Y7518D01*
X6435Y7506D02*
X6412D01*
X6423D01*
Y7576D01*
X6435Y7565D01*
X6342Y7506D02*
Y7576D01*
X6377Y7541D01*
X6330D01*
X6260Y7576D02*
X6283Y7565D01*
X6307Y7541D01*
Y7518D01*
X6295Y7506D01*
X6272D01*
X6260Y7518D01*
Y7530D01*
X6272Y7541D01*
X6307D01*
X6426Y7948D02*
X6437Y7960D01*
X6461D01*
X6472Y7948D01*
Y7901D01*
X6461Y7890D01*
X6437D01*
X6426Y7901D01*
X6402Y7890D02*
X6379D01*
X6391D01*
Y7960D01*
X6402Y7948D01*
X6309Y7890D02*
Y7960D01*
X6344Y7925D01*
X6297D01*
X6227Y7960D02*
X6274D01*
Y7925D01*
X6251Y7936D01*
X6239D01*
X6227Y7925D01*
Y7901D01*
X6239Y7890D01*
X6262D01*
X6274Y7901D01*
X9871Y9354D02*
X9882Y9366D01*
X9906D01*
X9917Y9354D01*
Y9308D01*
X9906Y9296D01*
X9882D01*
X9871Y9308D01*
X9847Y9296D02*
X9824D01*
X9836D01*
Y9366D01*
X9847Y9354D01*
X9754Y9296D02*
Y9366D01*
X9789Y9331D01*
X9742D01*
X9684Y9296D02*
Y9366D01*
X9719Y9331D01*
X9672D01*
X9879Y10187D02*
X9891Y10199D01*
X9914D01*
X9926Y10187D01*
Y10141D01*
X9914Y10129D01*
X9891D01*
X9879Y10141D01*
X9856Y10129D02*
X9832D01*
X9844D01*
Y10199D01*
X9856Y10187D01*
X9763Y10129D02*
Y10199D01*
X9797Y10164D01*
X9751D01*
X9728Y10187D02*
X9716Y10199D01*
X9693D01*
X9681Y10187D01*
Y10176D01*
X9693Y10164D01*
X9704D01*
X9693D01*
X9681Y10152D01*
Y10141D01*
X9693Y10129D01*
X9716D01*
X9728Y10141D01*
X9893Y9674D02*
X9905Y9686D01*
X9928D01*
X9940Y9674D01*
Y9628D01*
X9928Y9616D01*
X9905D01*
X9893Y9628D01*
X9870Y9616D02*
X9847D01*
X9858D01*
Y9686D01*
X9870Y9674D01*
X9777Y9616D02*
Y9686D01*
X9812Y9651D01*
X9765D01*
X9695Y9616D02*
X9742D01*
X9695Y9663D01*
Y9674D01*
X9707Y9686D01*
X9730D01*
X9742Y9674D01*
X9859Y9072D02*
X9871Y9084D01*
X9894D01*
X9906Y9072D01*
Y9026D01*
X9894Y9014D01*
X9871D01*
X9859Y9026D01*
X9836Y9014D02*
X9813D01*
X9824D01*
Y9084D01*
X9836Y9072D01*
X9743Y9014D02*
Y9084D01*
X9778Y9049D01*
X9731D01*
X9708Y9014D02*
X9684D01*
X9696D01*
Y9084D01*
X9708Y9072D01*
X5056Y9903D02*
X5103D01*
X5115Y9892D01*
Y9868D01*
X5103Y9857D01*
X5056D01*
X5045Y9868D01*
Y9892D01*
X5068Y9880D02*
X5045Y9903D01*
Y9892D02*
X5056Y9903D01*
X5045Y9927D02*
Y9950D01*
Y9938D01*
X5115D01*
X5103Y9927D01*
Y9985D02*
X5115Y9997D01*
Y10020D01*
X5103Y10032D01*
X5091D01*
X5080Y10020D01*
Y10008D01*
Y10020D01*
X5068Y10032D01*
X5056D01*
X5045Y10020D01*
Y9997D01*
X5056Y9985D01*
X6722Y9704D02*
Y9634D01*
X6687D01*
X6676Y9645D01*
Y9692D01*
X6687Y9704D01*
X6722D01*
X6606Y9634D02*
X6652D01*
X6606Y9680D01*
Y9692D01*
X6618Y9704D01*
X6641D01*
X6652Y9692D01*
X6536Y9704D02*
X6559Y9692D01*
X6583Y9669D01*
Y9645D01*
X6571Y9634D01*
X6548D01*
X6536Y9645D01*
Y9657D01*
X6548Y9669D01*
X6583D01*
X4480Y8962D02*
X4410D01*
Y8997D01*
X4421Y9008D01*
X4468D01*
X4480Y8997D01*
Y8962D01*
X4410Y9078D02*
Y9032D01*
X4456Y9078D01*
X4468D01*
X4480Y9067D01*
Y9043D01*
X4468Y9032D01*
X4480Y9148D02*
Y9102D01*
X4445D01*
X4456Y9125D01*
Y9137D01*
X4445Y9148D01*
X4421D01*
X4410Y9137D01*
Y9113D01*
X4421Y9102D01*
X3608Y9066D02*
Y9125D01*
X3620Y9136D01*
X3643D01*
X3655Y9125D01*
Y9066D01*
X3725Y9136D02*
X3678D01*
X3725Y9090D01*
Y9078D01*
X3713Y9066D01*
X3690D01*
X3678Y9078D01*
X3795Y9066D02*
X3748D01*
Y9101D01*
X3771Y9090D01*
X3783D01*
X3795Y9101D01*
Y9125D01*
X3783Y9136D01*
X3760D01*
X3748Y9125D01*
X4022Y10442D02*
Y10512D01*
X3987D01*
X3976Y10501D01*
Y10477D01*
X3987Y10466D01*
X4022D01*
X3999D02*
X3976Y10442D01*
X3952D02*
X3929D01*
X3941D01*
Y10512D01*
X3952Y10501D01*
X3847Y10512D02*
X3894D01*
Y10477D01*
X3871Y10489D01*
X3859D01*
X3847Y10477D01*
Y10454D01*
X3859Y10442D01*
X3882D01*
X3894Y10454D01*
X3824Y10442D02*
X3801D01*
X3812D01*
Y10512D01*
X3824Y10501D01*
X3970Y10260D02*
Y10330D01*
X3935D01*
X3924Y10318D01*
Y10295D01*
X3935Y10283D01*
X3970D01*
X3947D02*
X3924Y10260D01*
X3900D02*
X3877D01*
X3889D01*
Y10330D01*
X3900Y10318D01*
X3795Y10330D02*
X3842D01*
Y10295D01*
X3819Y10306D01*
X3807D01*
X3795Y10295D01*
Y10271D01*
X3807Y10260D01*
X3830D01*
X3842Y10271D01*
X3772Y10318D02*
X3760Y10330D01*
X3737D01*
X3725Y10318D01*
Y10271D01*
X3737Y10260D01*
X3760D01*
X3772Y10271D01*
Y10318D01*
X4498Y10205D02*
X4428D01*
Y10170D01*
X4440Y10158D01*
X4463D01*
X4475Y10170D01*
Y10205D01*
Y10181D02*
X4498Y10158D01*
Y10135D02*
Y10111D01*
Y10123D01*
X4428D01*
X4440Y10135D01*
X4498Y10041D02*
X4428D01*
X4463Y10076D01*
Y10030D01*
X4487Y10006D02*
X4498Y9995D01*
Y9971D01*
X4487Y9960D01*
X4440D01*
X4428Y9971D01*
Y9995D01*
X4440Y10006D01*
X4452D01*
X4463Y9995D01*
Y9960D01*
X6548Y10671D02*
Y10741D01*
X6513D01*
X6502Y10729D01*
Y10706D01*
X6513Y10694D01*
X6548D01*
X6525D02*
X6502Y10671D01*
X6478D02*
X6455D01*
X6467D01*
Y10741D01*
X6478Y10729D01*
X6385Y10671D02*
Y10741D01*
X6420Y10706D01*
X6373D01*
X6350Y10729D02*
X6338Y10741D01*
X6315D01*
X6304Y10729D01*
Y10718D01*
X6315Y10706D01*
X6304Y10694D01*
Y10683D01*
X6315Y10671D01*
X6338D01*
X6350Y10683D01*
Y10694D01*
X6338Y10706D01*
X6350Y10718D01*
Y10729D01*
X6338Y10706D02*
X6315D01*
X4177Y9961D02*
Y9891D01*
X4212D01*
X4224Y9903D01*
Y9926D01*
X4212Y9938D01*
X4177D01*
X4200D02*
X4224Y9961D01*
X4247D02*
X4270D01*
X4258D01*
Y9891D01*
X4247Y9903D01*
X4340Y9961D02*
Y9891D01*
X4305Y9926D01*
X4352D01*
X4375Y9891D02*
X4422D01*
Y9903D01*
X4375Y9949D01*
Y9961D01*
X7115Y5046D02*
Y5116D01*
X7080D01*
X7068Y5105D01*
Y5081D01*
X7080Y5070D01*
X7115D01*
X7092D02*
X7068Y5046D01*
X7045D02*
X7022D01*
X7033D01*
Y5116D01*
X7045Y5105D01*
X6987D02*
X6975Y5116D01*
X6952D01*
X6940Y5105D01*
Y5093D01*
X6952Y5081D01*
X6963D01*
X6952D01*
X6940Y5070D01*
Y5058D01*
X6952Y5046D01*
X6975D01*
X6987Y5058D01*
X6917Y5105D02*
X6905Y5116D01*
X6882D01*
X6870Y5105D01*
Y5093D01*
X6882Y5081D01*
X6870Y5070D01*
Y5058D01*
X6882Y5046D01*
X6905D01*
X6917Y5058D01*
Y5070D01*
X6905Y5081D01*
X6917Y5093D01*
Y5105D01*
X6905Y5081D02*
X6882D01*
X5858Y6061D02*
Y6131D01*
X5823D01*
X5811Y6119D01*
Y6096D01*
X5823Y6084D01*
X5858D01*
X5835D02*
X5811Y6061D01*
X5788D02*
X5765D01*
X5776D01*
Y6131D01*
X5788Y6119D01*
X5730Y6061D02*
X5706D01*
X5718D01*
Y6131D01*
X5730Y6119D01*
X5671Y6061D02*
X5648D01*
X5660D01*
Y6131D01*
X5671Y6119D01*
X7509Y5751D02*
X7579D01*
Y5786D01*
X7567Y5797D01*
X7544D01*
X7532Y5786D01*
Y5751D01*
Y5774D02*
X7509Y5797D01*
Y5821D02*
Y5844D01*
Y5832D01*
X7579D01*
X7567Y5821D01*
X7509Y5879D02*
Y5902D01*
Y5891D01*
X7579D01*
X7567Y5879D01*
Y5937D02*
X7579Y5949D01*
Y5972D01*
X7567Y5984D01*
X7520D01*
X7509Y5972D01*
Y5949D01*
X7520Y5937D01*
X7567D01*
X6784Y5674D02*
X6854D01*
Y5709D01*
X6842Y5721D01*
X6819D01*
X6807Y5709D01*
Y5674D01*
Y5697D02*
X6784Y5721D01*
Y5791D02*
Y5744D01*
X6831Y5791D01*
X6842D01*
X6854Y5779D01*
Y5756D01*
X6842Y5744D01*
Y5814D02*
X6854Y5826D01*
Y5849D01*
X6842Y5861D01*
X6831D01*
X6819Y5849D01*
Y5837D01*
Y5849D01*
X6807Y5861D01*
X6796D01*
X6784Y5849D01*
Y5826D01*
X6796Y5814D01*
X5951Y9700D02*
Y9630D01*
X5904D01*
X5834Y9700D02*
X5881D01*
Y9665D01*
X5858Y9676D01*
X5846D01*
X5834Y9665D01*
Y9641D01*
X5846Y9630D01*
X5869D01*
X5881Y9641D01*
X5270Y9827D02*
X5317D01*
Y9792D01*
X5294D01*
X5317D01*
Y9757D01*
X5247D02*
X5224D01*
X5235D01*
Y9827D01*
X5247Y9815D01*
X6367Y9509D02*
Y9439D01*
X6332D01*
X6320Y9451D01*
Y9497D01*
X6332Y9509D01*
X6367D01*
X6250Y9439D02*
X6297D01*
X6250Y9486D01*
Y9497D01*
X6262Y9509D01*
X6285D01*
X6297Y9497D01*
X6227Y9509D02*
X6180D01*
Y9497D01*
X6227Y9451D01*
Y9439D01*
X3108Y9410D02*
X3096Y9422D01*
Y9445D01*
X3108Y9457D01*
X3154D01*
X3166Y9445D01*
Y9422D01*
X3154Y9410D01*
X3166Y9387D02*
Y9363D01*
Y9375D01*
X3096D01*
X3108Y9387D01*
X3166Y9293D02*
X3096D01*
X3131Y9328D01*
Y9282D01*
X3108Y9258D02*
X3096Y9247D01*
Y9223D01*
X3108Y9212D01*
X3154D01*
X3166Y9223D01*
Y9247D01*
X3154Y9258D01*
X3108D01*
X4697Y9132D02*
X4708Y9120D01*
Y9097D01*
X4697Y9085D01*
X4650D01*
X4638Y9097D01*
Y9120D01*
X4650Y9132D01*
X4638Y9155D02*
Y9178D01*
Y9167D01*
X4708D01*
X4697Y9155D01*
Y9213D02*
X4708Y9225D01*
Y9248D01*
X4697Y9260D01*
X4685D01*
X4673Y9248D01*
Y9237D01*
Y9248D01*
X4662Y9260D01*
X4650D01*
X4638Y9248D01*
Y9225D01*
X4650Y9213D01*
Y9283D02*
X4638Y9295D01*
Y9318D01*
X4650Y9330D01*
X4697D01*
X4708Y9318D01*
Y9295D01*
X4697Y9283D01*
X4685D01*
X4673Y9295D01*
Y9330D01*
X4216Y9040D02*
X4227Y9052D01*
X4251D01*
X4262Y9040D01*
Y8994D01*
X4251Y8982D01*
X4227D01*
X4216Y8994D01*
X4192Y8982D02*
X4169D01*
X4181D01*
Y9052D01*
X4192Y9040D01*
X4134D02*
X4122Y9052D01*
X4099D01*
X4087Y9040D01*
Y9029D01*
X4099Y9017D01*
X4111D01*
X4099D01*
X4087Y9005D01*
Y8994D01*
X4099Y8982D01*
X4122D01*
X4134Y8994D01*
X4064Y9040D02*
X4052Y9052D01*
X4029D01*
X4018Y9040D01*
Y9029D01*
X4029Y9017D01*
X4018Y9005D01*
Y8994D01*
X4029Y8982D01*
X4052D01*
X4064Y8994D01*
Y9005D01*
X4052Y9017D01*
X4064Y9029D01*
Y9040D01*
X4052Y9017D02*
X4029D01*
X7120Y4567D02*
X7132Y4578D01*
X7155D01*
X7167Y4567D01*
Y4520D01*
X7155Y4508D01*
X7132D01*
X7120Y4520D01*
X7097Y4508D02*
X7074D01*
X7085D01*
Y4578D01*
X7097Y4567D01*
X7039D02*
X7027Y4578D01*
X7004D01*
X6992Y4567D01*
Y4555D01*
X7004Y4543D01*
X7016D01*
X7004D01*
X6992Y4532D01*
Y4520D01*
X7004Y4508D01*
X7027D01*
X7039Y4520D01*
X6969Y4578D02*
X6922D01*
Y4567D01*
X6969Y4520D01*
Y4508D01*
X6271Y5715D02*
X6283Y5704D01*
Y5680D01*
X6271Y5669D01*
X6225D01*
X6213Y5680D01*
Y5704D01*
X6225Y5715D01*
X6213Y5739D02*
Y5762D01*
Y5750D01*
X6283D01*
X6271Y5739D01*
Y5797D02*
X6283Y5809D01*
Y5832D01*
X6271Y5844D01*
X6260D01*
X6248Y5832D01*
Y5820D01*
Y5832D01*
X6237Y5844D01*
X6225D01*
X6213Y5832D01*
Y5809D01*
X6225Y5797D01*
X6283Y5914D02*
X6271Y5890D01*
X6248Y5867D01*
X6225D01*
X6213Y5879D01*
Y5902D01*
X6225Y5914D01*
X6237D01*
X6248Y5902D01*
Y5867D01*
X7153Y5598D02*
X7164Y5609D01*
X7188D01*
X7199Y5598D01*
Y5551D01*
X7188Y5539D01*
X7164D01*
X7153Y5551D01*
X7129Y5539D02*
X7106D01*
X7118D01*
Y5609D01*
X7129Y5598D01*
X7071D02*
X7059Y5609D01*
X7036D01*
X7024Y5598D01*
Y5586D01*
X7036Y5574D01*
X7048D01*
X7036D01*
X7024Y5563D01*
Y5551D01*
X7036Y5539D01*
X7059D01*
X7071Y5551D01*
X6954Y5609D02*
X7001D01*
Y5574D01*
X6978Y5586D01*
X6966D01*
X6954Y5574D01*
Y5551D01*
X6966Y5539D01*
X6989D01*
X7001Y5551D01*
X7275Y4610D02*
X7286Y4599D01*
Y4575D01*
X7275Y4564D01*
X7228D01*
X7216Y4575D01*
Y4599D01*
X7228Y4610D01*
X7216Y4634D02*
Y4657D01*
Y4645D01*
X7286D01*
X7275Y4634D01*
Y4692D02*
X7286Y4704D01*
Y4727D01*
X7275Y4739D01*
X7263D01*
X7251Y4727D01*
Y4715D01*
Y4727D01*
X7240Y4739D01*
X7228D01*
X7216Y4727D01*
Y4704D01*
X7228Y4692D01*
X7216Y4797D02*
X7286D01*
X7251Y4762D01*
Y4809D01*
X7592Y4788D02*
X7604Y4777D01*
Y4753D01*
X7592Y4742D01*
X7546D01*
X7534Y4753D01*
Y4777D01*
X7546Y4788D01*
X7534Y4812D02*
Y4835D01*
Y4823D01*
X7604D01*
X7592Y4812D01*
Y4870D02*
X7604Y4882D01*
Y4905D01*
X7592Y4917D01*
X7581D01*
X7569Y4905D01*
Y4893D01*
Y4905D01*
X7557Y4917D01*
X7546D01*
X7534Y4905D01*
Y4882D01*
X7546Y4870D01*
X7592Y4940D02*
X7604Y4952D01*
Y4975D01*
X7592Y4987D01*
X7581D01*
X7569Y4975D01*
Y4963D01*
Y4975D01*
X7557Y4987D01*
X7546D01*
X7534Y4975D01*
Y4952D01*
X7546Y4940D01*
X6731Y4786D02*
X6743Y4797D01*
X6766D01*
X6778Y4786D01*
Y4739D01*
X6766Y4727D01*
X6743D01*
X6731Y4739D01*
X6708Y4727D02*
X6685D01*
X6696D01*
Y4797D01*
X6708Y4786D01*
X6650D02*
X6638Y4797D01*
X6615D01*
X6603Y4786D01*
Y4774D01*
X6615Y4762D01*
X6626D01*
X6615D01*
X6603Y4751D01*
Y4739D01*
X6615Y4727D01*
X6638D01*
X6650Y4739D01*
X6580Y4727D02*
X6556D01*
X6568D01*
Y4797D01*
X6580Y4786D01*
X7421Y5404D02*
X7433Y5392D01*
Y5369D01*
X7421Y5357D01*
X7375D01*
X7363Y5369D01*
Y5392D01*
X7375Y5404D01*
X7363Y5427D02*
Y5451D01*
Y5439D01*
X7433D01*
X7421Y5427D01*
X7363Y5532D02*
Y5486D01*
X7410Y5532D01*
X7421D01*
X7433Y5521D01*
Y5497D01*
X7421Y5486D01*
X7375Y5556D02*
X7363Y5567D01*
Y5591D01*
X7375Y5602D01*
X7421D01*
X7433Y5591D01*
Y5567D01*
X7421Y5556D01*
X7410D01*
X7398Y5567D01*
Y5602D01*
X7857Y5234D02*
X7868Y5222D01*
Y5199D01*
X7857Y5187D01*
X7810D01*
X7798Y5199D01*
Y5222D01*
X7810Y5234D01*
X7798Y5257D02*
Y5281D01*
Y5269D01*
X7868D01*
X7857Y5257D01*
X7798Y5362D02*
Y5316D01*
X7845Y5362D01*
X7857D01*
X7868Y5351D01*
Y5327D01*
X7857Y5316D01*
Y5386D02*
X7868Y5397D01*
Y5421D01*
X7857Y5432D01*
X7845D01*
X7833Y5421D01*
X7822Y5432D01*
X7810D01*
X7798Y5421D01*
Y5397D01*
X7810Y5386D01*
X7822D01*
X7833Y5397D01*
X7845Y5386D01*
X7857D01*
X7833Y5397D02*
Y5421D01*
X7099Y6716D02*
X7110Y6728D01*
X7134D01*
X7145Y6716D01*
Y6670D01*
X7134Y6658D01*
X7110D01*
X7099Y6670D01*
X7075Y6658D02*
X7052D01*
X7064D01*
Y6728D01*
X7075Y6716D01*
X6970Y6658D02*
X7017D01*
X6970Y6705D01*
Y6716D01*
X6982Y6728D01*
X7005D01*
X7017Y6716D01*
X6947Y6728D02*
X6900D01*
Y6716D01*
X6947Y6670D01*
Y6658D01*
X6349Y5129D02*
X6361Y5140D01*
X6384D01*
X6396Y5129D01*
Y5082D01*
X6384Y5070D01*
X6361D01*
X6349Y5082D01*
X6326Y5070D02*
X6303D01*
X6314D01*
Y5140D01*
X6326Y5129D01*
X6221Y5070D02*
X6268D01*
X6221Y5117D01*
Y5129D01*
X6233Y5140D01*
X6256D01*
X6268Y5129D01*
X6151Y5140D02*
X6174Y5129D01*
X6198Y5105D01*
Y5082D01*
X6186Y5070D01*
X6163D01*
X6151Y5082D01*
Y5094D01*
X6163Y5105D01*
X6198D01*
X6322Y4842D02*
X6333Y4854D01*
X6357D01*
X6368Y4842D01*
Y4796D01*
X6357Y4784D01*
X6333D01*
X6322Y4796D01*
X6298Y4784D02*
X6275D01*
X6287D01*
Y4854D01*
X6298Y4842D01*
X6193Y4784D02*
X6240D01*
X6193Y4831D01*
Y4842D01*
X6205Y4854D01*
X6228D01*
X6240Y4842D01*
X6123Y4854D02*
X6170D01*
Y4819D01*
X6147Y4831D01*
X6135D01*
X6123Y4819D01*
Y4796D01*
X6135Y4784D01*
X6158D01*
X6170Y4796D01*
X5700Y6240D02*
X5712Y6228D01*
Y6205D01*
X5700Y6193D01*
X5653D01*
X5642Y6205D01*
Y6228D01*
X5653Y6240D01*
X5712Y6263D02*
Y6310D01*
X5700D01*
X5653Y6263D01*
X5642D01*
X5700Y6333D02*
X5712Y6345D01*
Y6368D01*
X5700Y6380D01*
X5688D01*
X5677Y6368D01*
X5665Y6380D01*
X5653D01*
X5642Y6368D01*
Y6345D01*
X5653Y6333D01*
X5665D01*
X5677Y6345D01*
X5688Y6333D01*
X5700D01*
X5677Y6345D02*
Y6368D01*
X5749Y5992D02*
X5760Y6004D01*
X5784D01*
X5795Y5992D01*
Y5946D01*
X5784Y5934D01*
X5760D01*
X5749Y5946D01*
X5725Y6004D02*
X5679D01*
Y5992D01*
X5725Y5946D01*
Y5934D01*
X5655Y6004D02*
X5609D01*
Y5992D01*
X5655Y5946D01*
Y5934D01*
X6041Y6411D02*
X6052Y6423D01*
X6076D01*
X6087Y6411D01*
Y6365D01*
X6076Y6353D01*
X6052D01*
X6041Y6365D01*
X6017Y6423D02*
X5971D01*
Y6411D01*
X6017Y6365D01*
Y6353D01*
X5948Y6411D02*
X5936Y6423D01*
X5913D01*
X5901Y6411D01*
Y6365D01*
X5913Y6353D01*
X5936D01*
X5948Y6365D01*
Y6411D01*
X6056Y5770D02*
X6067Y5758D01*
Y5735D01*
X6056Y5723D01*
X6009D01*
X5997Y5735D01*
Y5758D01*
X6009Y5770D01*
X6067Y5840D02*
X6056Y5817D01*
X6032Y5793D01*
X6009D01*
X5997Y5805D01*
Y5828D01*
X6009Y5840D01*
X6021D01*
X6032Y5828D01*
Y5793D01*
X6009Y5863D02*
X5997Y5875D01*
Y5898D01*
X6009Y5910D01*
X6056D01*
X6067Y5898D01*
Y5875D01*
X6056Y5863D01*
X6044D01*
X6032Y5875D01*
Y5910D01*
X6473Y6221D02*
X6484Y6233D01*
X6508D01*
X6519Y6221D01*
Y6174D01*
X6508Y6163D01*
X6484D01*
X6473Y6174D01*
X6403Y6233D02*
X6426Y6221D01*
X6449Y6198D01*
Y6174D01*
X6438Y6163D01*
X6414D01*
X6403Y6174D01*
Y6186D01*
X6414Y6198D01*
X6449D01*
X6379Y6221D02*
X6368Y6233D01*
X6344D01*
X6333Y6221D01*
Y6209D01*
X6344Y6198D01*
X6333Y6186D01*
Y6174D01*
X6344Y6163D01*
X6368D01*
X6379Y6174D01*
Y6186D01*
X6368Y6198D01*
X6379Y6209D01*
Y6221D01*
X6368Y6198D02*
X6344D01*
X6231Y6627D02*
X6243Y6639D01*
X6266D01*
X6278Y6627D01*
Y6581D01*
X6266Y6569D01*
X6243D01*
X6231Y6581D01*
X6161Y6639D02*
X6185Y6627D01*
X6208Y6604D01*
Y6581D01*
X6196Y6569D01*
X6173D01*
X6161Y6581D01*
Y6592D01*
X6173Y6604D01*
X6208D01*
X6138Y6639D02*
X6091D01*
Y6627D01*
X6138Y6581D01*
Y6569D01*
X7006Y6322D02*
X7018Y6334D01*
X7041D01*
X7053Y6322D01*
Y6276D01*
X7041Y6264D01*
X7018D01*
X7006Y6276D01*
X6936Y6334D02*
X6959Y6322D01*
X6983Y6299D01*
Y6276D01*
X6971Y6264D01*
X6948D01*
X6936Y6276D01*
Y6287D01*
X6948Y6299D01*
X6983D01*
X6866Y6334D02*
X6889Y6322D01*
X6913Y6299D01*
Y6276D01*
X6901Y6264D01*
X6878D01*
X6866Y6276D01*
Y6287D01*
X6878Y6299D01*
X6913D01*
X6657Y5720D02*
X6669Y5708D01*
Y5685D01*
X6657Y5673D01*
X6610D01*
X6599Y5685D01*
Y5708D01*
X6610Y5720D01*
X6669Y5790D02*
X6657Y5767D01*
X6634Y5743D01*
X6610D01*
X6599Y5755D01*
Y5778D01*
X6610Y5790D01*
X6622D01*
X6634Y5778D01*
Y5743D01*
X6669Y5860D02*
Y5813D01*
X6634D01*
X6645Y5837D01*
Y5848D01*
X6634Y5860D01*
X6610D01*
X6599Y5848D01*
Y5825D01*
X6610Y5813D01*
X6511Y6627D02*
X6522Y6639D01*
X6546D01*
X6557Y6627D01*
Y6581D01*
X6546Y6569D01*
X6522D01*
X6511Y6581D01*
X6441Y6639D02*
X6464Y6627D01*
X6487Y6604D01*
Y6581D01*
X6476Y6569D01*
X6452D01*
X6441Y6581D01*
Y6592D01*
X6452Y6604D01*
X6487D01*
X6382Y6569D02*
Y6639D01*
X6417Y6604D01*
X6371D01*
X5841Y5117D02*
X5853Y5106D01*
Y5082D01*
X5841Y5071D01*
X5795D01*
X5783Y5082D01*
Y5106D01*
X5795Y5117D01*
X5853Y5187D02*
X5841Y5164D01*
X5818Y5141D01*
X5795D01*
X5783Y5152D01*
Y5176D01*
X5795Y5187D01*
X5806D01*
X5818Y5176D01*
Y5141D01*
X5841Y5211D02*
X5853Y5222D01*
Y5246D01*
X5841Y5257D01*
X5830D01*
X5818Y5246D01*
Y5234D01*
Y5246D01*
X5806Y5257D01*
X5795D01*
X5783Y5246D01*
Y5222D01*
X5795Y5211D01*
X6221Y5383D02*
X6233Y5371D01*
Y5348D01*
X6221Y5336D01*
X6175D01*
X6163Y5348D01*
Y5371D01*
X6175Y5383D01*
X6233Y5453D02*
X6221Y5430D01*
X6198Y5406D01*
X6175D01*
X6163Y5418D01*
Y5441D01*
X6175Y5453D01*
X6186D01*
X6198Y5441D01*
Y5406D01*
X6163Y5523D02*
Y5476D01*
X6209Y5523D01*
X6221D01*
X6233Y5511D01*
Y5488D01*
X6221Y5476D01*
X5843Y5396D02*
X5855Y5385D01*
Y5361D01*
X5843Y5350D01*
X5796D01*
X5785Y5361D01*
Y5385D01*
X5796Y5396D01*
X5855Y5466D02*
X5843Y5443D01*
X5820Y5420D01*
X5796D01*
X5785Y5431D01*
Y5455D01*
X5796Y5466D01*
X5808D01*
X5820Y5455D01*
Y5420D01*
X5785Y5490D02*
Y5513D01*
Y5501D01*
X5855D01*
X5843Y5490D01*
X7072Y5897D02*
X7083Y5885D01*
Y5862D01*
X7072Y5850D01*
X7025D01*
X7013Y5862D01*
Y5885D01*
X7025Y5897D01*
X7083Y5967D02*
X7072Y5944D01*
X7048Y5920D01*
X7025D01*
X7013Y5932D01*
Y5955D01*
X7025Y5967D01*
X7037D01*
X7048Y5955D01*
Y5920D01*
X7072Y5990D02*
X7083Y6002D01*
Y6025D01*
X7072Y6037D01*
X7025D01*
X7013Y6025D01*
Y6002D01*
X7025Y5990D01*
X7072D01*
X6803Y6653D02*
X6814Y6664D01*
X6838D01*
X6849Y6653D01*
Y6606D01*
X6838Y6594D01*
X6814D01*
X6803Y6606D01*
X6733Y6664D02*
X6779D01*
Y6629D01*
X6756Y6641D01*
X6745D01*
X6733Y6629D01*
Y6606D01*
X6745Y6594D01*
X6768D01*
X6779Y6606D01*
X6675Y6594D02*
Y6664D01*
X6710Y6629D01*
X6663D01*
X7393Y6370D02*
X7381Y6359D01*
X7358D01*
X7346Y6370D01*
Y6417D01*
X7358Y6429D01*
X7381D01*
X7393Y6417D01*
X7463Y6359D02*
X7416D01*
Y6394D01*
X7439Y6382D01*
X7451D01*
X7463Y6394D01*
Y6417D01*
X7451Y6429D01*
X7428D01*
X7416Y6417D01*
X7486Y6370D02*
X7498Y6359D01*
X7521D01*
X7533Y6370D01*
Y6382D01*
X7521Y6394D01*
X7509D01*
X7521D01*
X7533Y6405D01*
Y6417D01*
X7521Y6429D01*
X7498D01*
X7486Y6417D01*
X2586Y6150D02*
Y6220D01*
X2551D01*
X2539Y6208D01*
Y6185D01*
X2551Y6173D01*
X2586D01*
X2563D02*
X2539Y6150D01*
X2516D02*
X2493D01*
X2504D01*
Y6220D01*
X2516Y6208D01*
X2458D02*
X2446Y6220D01*
X2423D01*
X2411Y6208D01*
Y6162D01*
X2423Y6150D01*
X2446D01*
X2458Y6162D01*
Y6208D01*
X2388Y6162D02*
X2376Y6150D01*
X2353D01*
X2341Y6162D01*
Y6208D01*
X2353Y6220D01*
X2376D01*
X2388Y6208D01*
Y6197D01*
X2376Y6185D01*
X2341D01*
X2650Y5820D02*
Y5890D01*
X2615D01*
X2603Y5878D01*
Y5855D01*
X2615Y5843D01*
X2650D01*
X2626D02*
X2603Y5820D01*
X2580D02*
X2556D01*
X2568D01*
Y5890D01*
X2580Y5878D01*
X2521D02*
X2510Y5890D01*
X2486D01*
X2475Y5878D01*
Y5831D01*
X2486Y5820D01*
X2510D01*
X2521Y5831D01*
Y5878D01*
X2451D02*
X2440Y5890D01*
X2416D01*
X2405Y5878D01*
Y5866D01*
X2416Y5855D01*
X2405Y5843D01*
Y5831D01*
X2416Y5820D01*
X2440D01*
X2451Y5831D01*
Y5843D01*
X2440Y5855D01*
X2451Y5866D01*
Y5878D01*
X2440Y5855D02*
X2416D01*
X1503Y5039D02*
Y4980D01*
X1491Y4969D01*
X1468D01*
X1456Y4980D01*
Y5039D01*
X1386Y4969D02*
X1433D01*
X1386Y5015D01*
Y5027D01*
X1398Y5039D01*
X1421D01*
X1433Y5027D01*
X1328Y4969D02*
Y5039D01*
X1363Y5004D01*
X1316D01*
X213Y3700D02*
Y3676D01*
Y3688D01*
X154D01*
X143Y3676D01*
Y3665D01*
X154Y3653D01*
X143Y3770D02*
Y3723D01*
X189Y3770D01*
X201D01*
X213Y3758D01*
Y3735D01*
X201Y3723D01*
X213Y3840D02*
Y3793D01*
X178D01*
X189Y3816D01*
Y3828D01*
X178Y3840D01*
X154D01*
X143Y3828D01*
Y3805D01*
X154Y3793D01*
X366Y4449D02*
X378Y4437D01*
Y4414D01*
X366Y4402D01*
X319D01*
X308Y4414D01*
Y4437D01*
X319Y4449D01*
X308Y4507D02*
X378D01*
X343Y4472D01*
Y4519D01*
X366Y4542D02*
X378Y4554D01*
Y4577D01*
X366Y4589D01*
X319D01*
X308Y4577D01*
Y4554D01*
X319Y4542D01*
X366D01*
X6451Y8329D02*
X6463Y8341D01*
X6486D01*
X6498Y8329D01*
Y8282D01*
X6486Y8271D01*
X6463D01*
X6451Y8282D01*
X6428Y8271D02*
X6404D01*
X6416D01*
Y8341D01*
X6428Y8329D01*
X6323Y8271D02*
X6369D01*
X6323Y8317D01*
Y8329D01*
X6334Y8341D01*
X6358D01*
X6369Y8329D01*
X6264Y8271D02*
Y8341D01*
X6299Y8306D01*
X6253D01*
X8127Y8494D02*
X8139Y8506D01*
X8162D01*
X8174Y8494D01*
Y8448D01*
X8162Y8436D01*
X8139D01*
X8127Y8448D01*
X8104Y8436D02*
X8081D01*
X8092D01*
Y8506D01*
X8104Y8494D01*
X7999Y8436D02*
X8046D01*
X7999Y8483D01*
Y8494D01*
X8011Y8506D01*
X8034D01*
X8046Y8494D01*
X7976D02*
X7964Y8506D01*
X7941D01*
X7929Y8494D01*
Y8483D01*
X7941Y8471D01*
X7952D01*
X7941D01*
X7929Y8459D01*
Y8448D01*
X7941Y8436D01*
X7964D01*
X7976Y8448D01*
X2308Y10197D02*
Y10267D01*
X2273D01*
X2261Y10255D01*
Y10232D01*
X2273Y10220D01*
X2308D01*
X2284D02*
X2261Y10197D01*
X2238D02*
X2214D01*
X2226D01*
Y10267D01*
X2238Y10255D01*
X2179D02*
X2168Y10267D01*
X2144D01*
X2133Y10255D01*
Y10208D01*
X2144Y10197D01*
X2168D01*
X2179Y10208D01*
Y10255D01*
X2109Y10197D02*
X2086D01*
X2098D01*
Y10267D01*
X2109Y10255D01*
X2203Y10103D02*
Y10173D01*
X2168D01*
X2156Y10161D01*
Y10138D01*
X2168Y10126D01*
X2203D01*
X2180D02*
X2156Y10103D01*
X2086D02*
X2133D01*
X2086Y10149D01*
Y10161D01*
X2098Y10173D01*
X2121D01*
X2133Y10161D01*
X2063Y10173D02*
X2016D01*
Y10161D01*
X2063Y10114D01*
Y10103D01*
X2265Y10290D02*
Y10360D01*
X2230D01*
X2218Y10348D01*
Y10325D01*
X2230Y10313D01*
X2265D01*
X2241D02*
X2218Y10290D01*
X2148D02*
X2195D01*
X2148Y10336D01*
Y10348D01*
X2160Y10360D01*
X2183D01*
X2195Y10348D01*
X2125D02*
X2113Y10360D01*
X2090D01*
X2078Y10348D01*
Y10301D01*
X2090Y10290D01*
X2113D01*
X2125Y10301D01*
Y10348D01*
X2153Y10062D02*
X2165Y10073D01*
X2188D01*
X2200Y10062D01*
Y10015D01*
X2188Y10003D01*
X2165D01*
X2153Y10015D01*
X2083Y10073D02*
X2130D01*
Y10038D01*
X2107Y10050D01*
X2095D01*
X2083Y10038D01*
Y10015D01*
X2095Y10003D01*
X2118D01*
X2130Y10015D01*
X2013Y10003D02*
X2060D01*
X2013Y10050D01*
Y10062D01*
X2025Y10073D01*
X2048D01*
X2060Y10062D01*
X1300Y10596D02*
X1311Y10608D01*
X1335D01*
X1346Y10596D01*
Y10550D01*
X1335Y10538D01*
X1311D01*
X1300Y10550D01*
X1241Y10538D02*
Y10608D01*
X1276Y10573D01*
X1230D01*
X1206Y10596D02*
X1195Y10608D01*
X1171D01*
X1160Y10596D01*
Y10585D01*
X1171Y10573D01*
X1160Y10561D01*
Y10550D01*
X1171Y10538D01*
X1195D01*
X1206Y10550D01*
Y10561D01*
X1195Y10573D01*
X1206Y10585D01*
Y10596D01*
X1195Y10573D02*
X1171D01*
X2195Y9720D02*
X2206Y9708D01*
Y9685D01*
X2195Y9673D01*
X2148D01*
X2136Y9685D01*
Y9708D01*
X2148Y9720D01*
X2136Y9778D02*
X2206D01*
X2171Y9743D01*
Y9790D01*
X2136Y9860D02*
Y9813D01*
X2183Y9860D01*
X2195D01*
X2206Y9848D01*
Y9825D01*
X2195Y9813D01*
X2487Y9033D02*
X2499Y9021D01*
Y8998D01*
X2487Y8986D01*
X2440D01*
X2429Y8998D01*
Y9021D01*
X2440Y9033D01*
X2429Y9091D02*
X2499D01*
X2464Y9056D01*
Y9103D01*
X2429Y9126D02*
Y9149D01*
Y9138D01*
X2499D01*
X2487Y9126D01*
X2004Y8958D02*
X2016Y8946D01*
Y8923D01*
X2004Y8911D01*
X1958D01*
X1946Y8923D01*
Y8946D01*
X1958Y8958D01*
X2004Y8981D02*
X2016Y8993D01*
Y9016D01*
X2004Y9028D01*
X1993D01*
X1981Y9016D01*
Y9004D01*
Y9016D01*
X1969Y9028D01*
X1958D01*
X1946Y9016D01*
Y8993D01*
X1958Y8981D01*
X2016Y9098D02*
Y9051D01*
X1981D01*
X1993Y9074D01*
Y9086D01*
X1981Y9098D01*
X1958D01*
X1946Y9086D01*
Y9063D01*
X1958Y9051D01*
X328Y9858D02*
X340Y9847D01*
Y9823D01*
X328Y9812D01*
X281D01*
X270Y9823D01*
Y9847D01*
X281Y9858D01*
X328Y9882D02*
X340Y9893D01*
Y9917D01*
X328Y9928D01*
X316D01*
X305Y9917D01*
Y9905D01*
Y9917D01*
X293Y9928D01*
X281D01*
X270Y9917D01*
Y9893D01*
X281Y9882D01*
X270Y9952D02*
Y9975D01*
Y9963D01*
X340D01*
X328Y9952D01*
X823Y9923D02*
X835Y9911D01*
Y9888D01*
X823Y9876D01*
X777D01*
X765Y9888D01*
Y9911D01*
X777Y9923D01*
X765Y9993D02*
Y9946D01*
X812Y9993D01*
X823D01*
X835Y9981D01*
Y9958D01*
X823Y9946D01*
Y10016D02*
X835Y10028D01*
Y10051D01*
X823Y10063D01*
X812D01*
X800Y10051D01*
X788Y10063D01*
X777D01*
X765Y10051D01*
Y10028D01*
X777Y10016D01*
X788D01*
X800Y10028D01*
X812Y10016D01*
X823D01*
X800Y10028D02*
Y10051D01*
X328Y10367D02*
X340Y10356D01*
Y10332D01*
X328Y10321D01*
X281D01*
X270Y10332D01*
Y10356D01*
X281Y10367D01*
X270Y10437D02*
Y10391D01*
X316Y10437D01*
X328D01*
X340Y10426D01*
Y10402D01*
X328Y10391D01*
X340Y10461D02*
Y10507D01*
X328D01*
X281Y10461D01*
X270D01*
X862Y9115D02*
Y9057D01*
X850Y9045D01*
X827D01*
X815Y9057D01*
Y9115D01*
X792Y9045D02*
X769D01*
X780D01*
Y9115D01*
X792Y9104D01*
X734Y9057D02*
X722Y9045D01*
X699D01*
X687Y9057D01*
Y9104D01*
X699Y9115D01*
X722D01*
X734Y9104D01*
Y9092D01*
X722Y9080D01*
X687D01*
X1082Y8784D02*
X1152D01*
Y8819D01*
X1141Y8831D01*
X1117D01*
X1106Y8819D01*
Y8784D01*
Y8807D02*
X1082Y8831D01*
X1094Y8854D02*
X1082Y8866D01*
Y8889D01*
X1094Y8901D01*
X1141D01*
X1152Y8889D01*
Y8866D01*
X1141Y8854D01*
X1129D01*
X1117Y8866D01*
Y8901D01*
X1141Y8924D02*
X1152Y8936D01*
Y8959D01*
X1141Y8971D01*
X1094D01*
X1082Y8959D01*
Y8936D01*
X1094Y8924D01*
X1141D01*
X1768Y8421D02*
Y8491D01*
X1733D01*
X1721Y8479D01*
Y8456D01*
X1733Y8444D01*
X1768D01*
X1744D02*
X1721Y8421D01*
X1698Y8479D02*
X1686Y8491D01*
X1663D01*
X1651Y8479D01*
Y8468D01*
X1663Y8456D01*
X1651Y8444D01*
Y8433D01*
X1663Y8421D01*
X1686D01*
X1698Y8433D01*
Y8444D01*
X1686Y8456D01*
X1698Y8468D01*
Y8479D01*
X1686Y8456D02*
X1663D01*
X1628Y8433D02*
X1616Y8421D01*
X1593D01*
X1581Y8433D01*
Y8479D01*
X1593Y8491D01*
X1616D01*
X1628Y8479D01*
Y8468D01*
X1616Y8456D01*
X1581D01*
X1767Y7991D02*
Y8061D01*
X1732D01*
X1720Y8049D01*
Y8026D01*
X1732Y8014D01*
X1767D01*
X1744D02*
X1720Y7991D01*
X1662D02*
Y8061D01*
X1697Y8026D01*
X1650D01*
X1627Y8003D02*
X1615Y7991D01*
X1592D01*
X1580Y8003D01*
Y8049D01*
X1592Y8061D01*
X1615D01*
X1627Y8049D01*
Y8038D01*
X1615Y8026D01*
X1580D01*
X1283Y8705D02*
X1306D01*
X1294D01*
Y8646D01*
X1306Y8635D01*
X1318D01*
X1329Y8646D01*
X1213Y8635D02*
X1259D01*
X1213Y8681D01*
Y8693D01*
X1224Y8705D01*
X1248D01*
X1259Y8693D01*
X1154Y8635D02*
Y8705D01*
X1189Y8670D01*
X1143D01*
X327Y8955D02*
X339Y8967D01*
X362D01*
X374Y8955D01*
Y8909D01*
X362Y8897D01*
X339D01*
X327Y8909D01*
X304D02*
X292Y8897D01*
X269D01*
X257Y8909D01*
Y8955D01*
X269Y8967D01*
X292D01*
X304Y8955D01*
Y8944D01*
X292Y8932D01*
X257D01*
X234Y8955D02*
X222Y8967D01*
X199D01*
X187Y8955D01*
Y8944D01*
X199Y8932D01*
X210D01*
X199D01*
X187Y8920D01*
Y8909D01*
X199Y8897D01*
X222D01*
X234Y8909D01*
X8355Y11991D02*
Y12037D01*
X8367Y12049D01*
X8390D01*
X8402Y12037D01*
Y11991D01*
X8390Y11979D01*
X8367D01*
X8379Y12002D02*
X8355Y11979D01*
X8367D02*
X8355Y11991D01*
X8332D02*
X8320Y11979D01*
X8297D01*
X8285Y11991D01*
Y12037D01*
X8297Y12049D01*
X8320D01*
X8332Y12037D01*
Y12026D01*
X8320Y12014D01*
X8285D01*
X5796Y7944D02*
Y8014D01*
X5761D01*
X5749Y8003D01*
Y7979D01*
X5761Y7968D01*
X5796D01*
X5773D02*
X5749Y7944D01*
X5726Y8003D02*
X5714Y8014D01*
X5691D01*
X5679Y8003D01*
Y7991D01*
X5691Y7979D01*
X5679Y7968D01*
Y7956D01*
X5691Y7944D01*
X5714D01*
X5726Y7956D01*
Y7968D01*
X5714Y7979D01*
X5726Y7991D01*
Y8003D01*
X5714Y7979D02*
X5691D01*
X5656Y8003D02*
X5644Y8014D01*
X5621D01*
X5609Y8003D01*
Y7991D01*
X5621Y7979D01*
X5609Y7968D01*
Y7956D01*
X5621Y7944D01*
X5644D01*
X5656Y7956D01*
Y7968D01*
X5644Y7979D01*
X5656Y7991D01*
Y8003D01*
X5644Y7979D02*
X5621D01*
X5933Y10647D02*
Y10717D01*
X5898D01*
X5886Y10705D01*
Y10682D01*
X5898Y10670D01*
X5933D01*
X5910D02*
X5886Y10647D01*
X5863Y10705D02*
X5851Y10717D01*
X5828D01*
X5816Y10705D01*
Y10693D01*
X5828Y10682D01*
X5816Y10670D01*
Y10658D01*
X5828Y10647D01*
X5851D01*
X5863Y10658D01*
Y10670D01*
X5851Y10682D01*
X5863Y10693D01*
Y10705D01*
X5851Y10682D02*
X5828D01*
X5793Y10705D02*
X5781Y10717D01*
X5758D01*
X5746Y10705D01*
Y10658D01*
X5758Y10647D01*
X5781D01*
X5793Y10658D01*
Y10705D01*
X6239Y10703D02*
Y10773D01*
X6204D01*
X6192Y10761D01*
Y10738D01*
X6204Y10726D01*
X6239D01*
X6216D02*
X6192Y10703D01*
X6169Y10773D02*
X6122D01*
Y10761D01*
X6169Y10715D01*
Y10703D01*
X6099Y10715D02*
X6087Y10703D01*
X6064D01*
X6052Y10715D01*
Y10761D01*
X6064Y10773D01*
X6087D01*
X6099Y10761D01*
Y10750D01*
X6087Y10738D01*
X6052D01*
X5461Y10545D02*
X5531D01*
Y10580D01*
X5520Y10592D01*
X5496D01*
X5485Y10580D01*
Y10545D01*
Y10568D02*
X5461Y10592D01*
X5531Y10615D02*
Y10661D01*
X5520D01*
X5473Y10615D01*
X5461D01*
X5520Y10685D02*
X5531Y10696D01*
Y10720D01*
X5520Y10731D01*
X5508D01*
X5496Y10720D01*
X5485Y10731D01*
X5473D01*
X5461Y10720D01*
Y10696D01*
X5473Y10685D01*
X5485D01*
X5496Y10696D01*
X5508Y10685D01*
X5520D01*
X5496Y10696D02*
Y10720D01*
X5967Y8573D02*
X5978Y8561D01*
Y8538D01*
X5967Y8526D01*
X5920D01*
X5908Y8538D01*
Y8561D01*
X5920Y8573D01*
X5908Y8596D02*
Y8620D01*
Y8608D01*
X5978D01*
X5967Y8596D01*
X5908Y8701D02*
Y8654D01*
X5955Y8701D01*
X5967D01*
X5978Y8689D01*
Y8666D01*
X5967Y8654D01*
Y8724D02*
X5978Y8736D01*
Y8759D01*
X5967Y8771D01*
X5920D01*
X5908Y8759D01*
Y8736D01*
X5920Y8724D01*
X5967D01*
X4925Y8858D02*
X4937Y8846D01*
Y8823D01*
X4925Y8811D01*
X4879D01*
X4867Y8823D01*
Y8846D01*
X4879Y8858D01*
X4867Y8881D02*
Y8905D01*
Y8893D01*
X4937D01*
X4925Y8881D01*
X4867Y8940D02*
Y8963D01*
Y8951D01*
X4937D01*
X4925Y8940D01*
X4879Y8998D02*
X4867Y9010D01*
Y9033D01*
X4879Y9045D01*
X4925D01*
X4937Y9033D01*
Y9010D01*
X4925Y8998D01*
X4914D01*
X4902Y9010D01*
Y9045D01*
X5785Y9015D02*
X5796Y9027D01*
X5820D01*
X5831Y9015D01*
Y8968D01*
X5820Y8957D01*
X5796D01*
X5785Y8968D01*
X5761Y8957D02*
X5738D01*
X5750D01*
Y9027D01*
X5761Y9015D01*
X5703Y8957D02*
X5680D01*
X5691D01*
Y9027D01*
X5703Y9015D01*
X5645D02*
X5633Y9027D01*
X5610D01*
X5598Y9015D01*
Y9003D01*
X5610Y8992D01*
X5598Y8980D01*
Y8968D01*
X5610Y8957D01*
X5633D01*
X5645Y8968D01*
Y8980D01*
X5633Y8992D01*
X5645Y9003D01*
Y9015D01*
X5633Y8992D02*
X5610D01*
X9099Y2297D02*
X9111Y2308D01*
X9134D01*
X9146Y2297D01*
Y2250D01*
X9134Y2238D01*
X9111D01*
X9099Y2250D01*
X9076Y2238D02*
X9053D01*
X9064D01*
Y2308D01*
X9076Y2297D01*
X9018Y2238D02*
X8994D01*
X9006D01*
Y2308D01*
X9018Y2297D01*
X8959Y2308D02*
X8913D01*
Y2297D01*
X8959Y2250D01*
Y2238D01*
X7414Y1822D02*
X7426Y1811D01*
Y1787D01*
X7414Y1776D01*
X7368D01*
X7356Y1787D01*
Y1811D01*
X7368Y1822D01*
X7356Y1846D02*
Y1869D01*
Y1857D01*
X7426D01*
X7414Y1846D01*
X7356Y1904D02*
Y1927D01*
Y1916D01*
X7426D01*
X7414Y1904D01*
X7426Y2009D02*
X7414Y1986D01*
X7391Y1962D01*
X7368D01*
X7356Y1974D01*
Y1997D01*
X7368Y2009D01*
X7380D01*
X7391Y1997D01*
Y1962D01*
X8139Y2303D02*
X8151Y2315D01*
X8174D01*
X8186Y2303D01*
Y2257D01*
X8174Y2245D01*
X8151D01*
X8139Y2257D01*
X8116Y2245D02*
X8093D01*
X8104D01*
Y2315D01*
X8116Y2303D01*
X8058Y2245D02*
X8034D01*
X8046D01*
Y2315D01*
X8058Y2303D01*
X7953Y2315D02*
X7999D01*
Y2280D01*
X7976Y2292D01*
X7964D01*
X7953Y2280D01*
Y2257D01*
X7964Y2245D01*
X7988D01*
X7999Y2257D01*
X6475Y1848D02*
X6486Y1836D01*
Y1813D01*
X6475Y1801D01*
X6428D01*
X6416Y1813D01*
Y1836D01*
X6428Y1848D01*
X6416Y1871D02*
Y1894D01*
Y1883D01*
X6486D01*
X6475Y1871D01*
X6416Y1929D02*
Y1953D01*
Y1941D01*
X6486D01*
X6475Y1929D01*
X6416Y2023D02*
X6486D01*
X6451Y1988D01*
Y2034D01*
X5264Y2297D02*
X5275Y2308D01*
X5299D01*
X5310Y2297D01*
Y2250D01*
X5299Y2238D01*
X5275D01*
X5264Y2250D01*
X5241Y2238D02*
X5217D01*
X5229D01*
Y2308D01*
X5241Y2297D01*
X5182Y2238D02*
X5159D01*
X5171D01*
Y2308D01*
X5182Y2297D01*
X5124D02*
X5112Y2308D01*
X5089D01*
X5077Y2297D01*
Y2285D01*
X5089Y2273D01*
X5101D01*
X5089D01*
X5077Y2262D01*
Y2250D01*
X5089Y2238D01*
X5112D01*
X5124Y2250D01*
X4544Y1886D02*
X4556Y1874D01*
Y1851D01*
X4544Y1839D01*
X4498D01*
X4486Y1851D01*
Y1874D01*
X4498Y1886D01*
X4486Y1909D02*
Y1932D01*
Y1921D01*
X4556D01*
X4544Y1909D01*
X4486Y1967D02*
Y1991D01*
Y1979D01*
X4556D01*
X4544Y1967D01*
X4486Y2072D02*
Y2026D01*
X4533Y2072D01*
X4544D01*
X4556Y2061D01*
Y2037D01*
X4544Y2026D01*
X2932Y297D02*
Y367D01*
X2897D01*
X2885Y355D01*
Y332D01*
X2897Y320D01*
X2932D01*
X2909D02*
X2885Y297D01*
X2862D02*
X2839D01*
X2850D01*
Y367D01*
X2862Y355D01*
X2804D02*
X2792Y367D01*
X2769D01*
X2757Y355D01*
Y343D01*
X2769Y332D01*
X2757Y320D01*
Y308D01*
X2769Y297D01*
X2792D01*
X2804Y308D01*
Y320D01*
X2792Y332D01*
X2804Y343D01*
Y355D01*
X2792Y332D02*
X2769D01*
X3069Y518D02*
X3081Y506D01*
Y483D01*
X3069Y471D01*
X3023D01*
X3011Y483D01*
Y506D01*
X3023Y518D01*
X3011Y541D02*
Y565D01*
Y553D01*
X3081D01*
X3069Y541D01*
X3023Y600D02*
X3011Y611D01*
Y635D01*
X3023Y646D01*
X3069D01*
X3081Y635D01*
Y611D01*
X3069Y600D01*
X3058D01*
X3046Y611D01*
Y646D01*
X2412Y1369D02*
X2423Y1381D01*
X2447D01*
X2458Y1369D01*
Y1323D01*
X2447Y1311D01*
X2423D01*
X2412Y1323D01*
X2388Y1369D02*
X2377Y1381D01*
X2353D01*
X2342Y1369D01*
Y1358D01*
X2353Y1346D01*
X2365D01*
X2353D01*
X2342Y1334D01*
Y1323D01*
X2353Y1311D01*
X2377D01*
X2388Y1323D01*
X2092Y1353D02*
X2103Y1365D01*
X2127D01*
X2138Y1353D01*
Y1307D01*
X2127Y1295D01*
X2103D01*
X2092Y1307D01*
X2022Y1295D02*
X2068D01*
X2022Y1342D01*
Y1353D01*
X2033Y1365D01*
X2057D01*
X2068Y1353D01*
X2807Y483D02*
X2819Y471D01*
Y448D01*
X2807Y436D01*
X2761D01*
X2749Y448D01*
Y471D01*
X2761Y483D01*
X2749Y506D02*
Y529D01*
Y518D01*
X2819D01*
X2807Y506D01*
X8771Y9522D02*
X8818D01*
Y9487D01*
X8795D01*
X8818D01*
Y9452D01*
X8748Y9522D02*
Y9452D01*
X8713D01*
X8701Y9464D01*
Y9475D01*
X8713Y9487D01*
X8748D01*
X8713D01*
X8701Y9499D01*
Y9510D01*
X8713Y9522D01*
X8748D01*
X8631Y9452D02*
X8678D01*
X8631Y9499D01*
Y9510D01*
X8643Y9522D01*
X8666D01*
X8678Y9510D01*
X9154Y10717D02*
X9200D01*
Y10682D01*
X9177D01*
X9200D01*
Y10647D01*
X9130Y10717D02*
Y10647D01*
X9095D01*
X9084Y10659D01*
Y10670D01*
X9095Y10682D01*
X9130D01*
X9095D01*
X9084Y10694D01*
Y10705D01*
X9095Y10717D01*
X9130D01*
X9060Y10647D02*
X9037D01*
X9049D01*
Y10717D01*
X9060Y10705D01*
X2628Y13375D02*
Y13422D01*
X2639Y13433D01*
X2663D01*
X2674Y13422D01*
Y13375D01*
X2663Y13363D01*
X2639D01*
X2651Y13387D02*
X2628Y13363D01*
X2639D02*
X2628Y13375D01*
X2604Y13422D02*
X2593Y13433D01*
X2569D01*
X2558Y13422D01*
Y13410D01*
X2569Y13398D01*
X2558Y13387D01*
Y13375D01*
X2569Y13363D01*
X2593D01*
X2604Y13375D01*
Y13387D01*
X2593Y13398D01*
X2604Y13410D01*
Y13422D01*
X2593Y13398D02*
X2569D01*
X3275Y13604D02*
Y13650D01*
X3287Y13662D01*
X3310D01*
X3322Y13650D01*
Y13604D01*
X3310Y13592D01*
X3287D01*
X3299Y13615D02*
X3275Y13592D01*
X3287D02*
X3275Y13604D01*
X3252Y13662D02*
X3205D01*
Y13650D01*
X3252Y13604D01*
Y13592D01*
X4273Y13422D02*
X4285Y13433D01*
X4308D01*
X4320Y13422D01*
Y13375D01*
X4308Y13363D01*
X4285D01*
X4273Y13375D01*
X4238Y13422D02*
Y13410D01*
X4250D01*
X4227D01*
X4238D01*
Y13375D01*
X4227Y13363D01*
X4180Y13422D02*
Y13410D01*
X4192D01*
X4168D01*
X4180D01*
Y13375D01*
X4168Y13363D01*
X4087Y13410D02*
X4122D01*
X4133Y13398D01*
Y13375D01*
X4122Y13363D01*
X4087D01*
X3734Y12850D02*
X3746Y12862D01*
X3769D01*
X3781Y12850D01*
Y12804D01*
X3769Y12792D01*
X3746D01*
X3734Y12804D01*
X3711Y12792D02*
X3688D01*
X3699D01*
Y12862D01*
X3711Y12850D01*
X3653D02*
X3641Y12862D01*
X3618D01*
X3606Y12850D01*
Y12804D01*
X3618Y12792D01*
X3641D01*
X3653Y12804D01*
Y12850D01*
X3583Y12792D02*
X3559D01*
X3571D01*
Y12862D01*
X3583Y12850D01*
X2586D02*
X2598Y12862D01*
X2621D01*
X2633Y12850D01*
Y12804D01*
X2621Y12792D01*
X2598D01*
X2586Y12804D01*
X2563Y12850D02*
X2551Y12862D01*
X2528D01*
X2516Y12850D01*
Y12839D01*
X2528Y12827D01*
X2516Y12815D01*
Y12804D01*
X2528Y12792D01*
X2551D01*
X2563Y12804D01*
Y12815D01*
X2551Y12827D01*
X2563Y12839D01*
Y12850D01*
X2551Y12827D02*
X2528D01*
X2493Y12850D02*
X2481Y12862D01*
X2458D01*
X2446Y12850D01*
Y12839D01*
X2458Y12827D01*
X2470D01*
X2458D01*
X2446Y12815D01*
Y12804D01*
X2458Y12792D01*
X2481D01*
X2493Y12804D01*
X3716Y14082D02*
X3727Y14094D01*
X3751D01*
X3762Y14082D01*
Y14036D01*
X3751Y14024D01*
X3727D01*
X3716Y14036D01*
X3681Y14024D02*
Y14082D01*
Y14059D01*
X3692D01*
X3669D01*
X3681D01*
Y14082D01*
X3669Y14094D01*
X3622Y14024D02*
Y14082D01*
Y14059D01*
X3634D01*
X3611D01*
X3622D01*
Y14082D01*
X3611Y14094D01*
X3576Y14024D02*
X3552D01*
X3564D01*
Y14094D01*
X3576Y14082D01*
X9072Y12631D02*
Y12701D01*
X9037D01*
X9025Y12689D01*
Y12666D01*
X9037Y12654D01*
X9072D01*
X9049D02*
X9025Y12631D01*
X8955Y12701D02*
X8979Y12689D01*
X9002Y12666D01*
Y12642D01*
X8990Y12631D01*
X8967D01*
X8955Y12642D01*
Y12654D01*
X8967Y12666D01*
X9002D01*
X8932Y12689D02*
X8920Y12701D01*
X8897D01*
X8885Y12689D01*
Y12677D01*
X8897Y12666D01*
X8885Y12654D01*
Y12642D01*
X8897Y12631D01*
X8920D01*
X8932Y12642D01*
Y12654D01*
X8920Y12666D01*
X8932Y12677D01*
Y12689D01*
X8920Y12666D02*
X8897D01*
X9072Y12741D02*
Y12811D01*
X9037D01*
X9025Y12799D01*
Y12776D01*
X9037Y12764D01*
X9072D01*
X9049D02*
X9025Y12741D01*
X8967D02*
Y12811D01*
X9002Y12776D01*
X8955D01*
X8897Y12741D02*
Y12811D01*
X8932Y12776D01*
X8885D01*
X9466Y10785D02*
Y10855D01*
X9431D01*
X9419Y10844D01*
Y10820D01*
X9431Y10809D01*
X9466D01*
X9442D02*
X9419Y10785D01*
X9361D02*
Y10855D01*
X9396Y10820D01*
X9349D01*
X9326Y10844D02*
X9314Y10855D01*
X9291D01*
X9279Y10844D01*
Y10832D01*
X9291Y10820D01*
X9302D01*
X9291D01*
X9279Y10809D01*
Y10797D01*
X9291Y10785D01*
X9314D01*
X9326Y10797D01*
X8461Y11375D02*
Y11445D01*
X8426D01*
X8414Y11433D01*
Y11410D01*
X8426Y11398D01*
X8461D01*
X8437D02*
X8414Y11375D01*
X8356D02*
Y11445D01*
X8391Y11410D01*
X8344D01*
X8274Y11375D02*
X8321D01*
X8274Y11421D01*
Y11433D01*
X8286Y11445D01*
X8309D01*
X8321Y11433D01*
X9467Y10887D02*
Y10957D01*
X9432D01*
X9420Y10945D01*
Y10922D01*
X9432Y10910D01*
X9467D01*
X9443D02*
X9420Y10887D01*
X9362D02*
Y10957D01*
X9397Y10922D01*
X9350D01*
X9327Y10887D02*
X9303D01*
X9315D01*
Y10957D01*
X9327Y10945D01*
X7700Y12144D02*
Y12214D01*
X7665D01*
X7654Y12203D01*
Y12179D01*
X7665Y12168D01*
X7700D01*
X7677D02*
X7654Y12144D01*
X7595D02*
Y12214D01*
X7630Y12179D01*
X7584D01*
X7560Y12203D02*
X7549Y12214D01*
X7525D01*
X7514Y12203D01*
Y12156D01*
X7525Y12144D01*
X7549D01*
X7560Y12156D01*
Y12203D01*
X9579Y11172D02*
X9649D01*
Y11207D01*
X9637Y11218D01*
X9614D01*
X9602Y11207D01*
Y11172D01*
Y11195D02*
X9579Y11218D01*
X9637Y11242D02*
X9649Y11253D01*
Y11277D01*
X9637Y11288D01*
X9625D01*
X9614Y11277D01*
Y11265D01*
Y11277D01*
X9602Y11288D01*
X9590D01*
X9579Y11277D01*
Y11253D01*
X9590Y11242D01*
Y11312D02*
X9579Y11323D01*
Y11346D01*
X9590Y11358D01*
X9637D01*
X9649Y11346D01*
Y11323D01*
X9637Y11312D01*
X9625D01*
X9614Y11323D01*
Y11358D01*
X7967Y12360D02*
Y12430D01*
X7932D01*
X7920Y12418D01*
Y12395D01*
X7932Y12383D01*
X7967D01*
X7944D02*
X7920Y12360D01*
X7897Y12418D02*
X7885Y12430D01*
X7862D01*
X7850Y12418D01*
Y12407D01*
X7862Y12395D01*
X7874D01*
X7862D01*
X7850Y12383D01*
Y12372D01*
X7862Y12360D01*
X7885D01*
X7897Y12372D01*
X7827Y12418D02*
X7815Y12430D01*
X7792D01*
X7780Y12418D01*
Y12407D01*
X7792Y12395D01*
X7780Y12383D01*
Y12372D01*
X7792Y12360D01*
X7815D01*
X7827Y12372D01*
Y12383D01*
X7815Y12395D01*
X7827Y12407D01*
Y12418D01*
X7815Y12395D02*
X7792D01*
X9000Y12352D02*
Y12422D01*
X8965D01*
X8953Y12411D01*
Y12387D01*
X8965Y12376D01*
X9000D01*
X8977D02*
X8953Y12352D01*
X8930Y12411D02*
X8918Y12422D01*
X8895D01*
X8884Y12411D01*
Y12399D01*
X8895Y12387D01*
X8907D01*
X8895D01*
X8884Y12376D01*
Y12364D01*
X8895Y12352D01*
X8918D01*
X8930Y12364D01*
X8860Y12422D02*
X8814D01*
Y12411D01*
X8860Y12364D01*
Y12352D01*
X8451Y10785D02*
Y10855D01*
X8416D01*
X8404Y10844D01*
Y10820D01*
X8416Y10809D01*
X8451D01*
X8427D02*
X8404Y10785D01*
X8381Y10844D02*
X8369Y10855D01*
X8346D01*
X8334Y10844D01*
Y10832D01*
X8346Y10820D01*
X8357D01*
X8346D01*
X8334Y10809D01*
Y10797D01*
X8346Y10785D01*
X8369D01*
X8381Y10797D01*
X8264Y10855D02*
X8311D01*
Y10820D01*
X8288Y10832D01*
X8276D01*
X8264Y10820D01*
Y10797D01*
X8276Y10785D01*
X8299D01*
X8311Y10797D01*
X8452Y10882D02*
Y10952D01*
X8417D01*
X8405Y10940D01*
Y10917D01*
X8417Y10905D01*
X8452D01*
X8428D02*
X8405Y10882D01*
X8382Y10940D02*
X8370Y10952D01*
X8347D01*
X8335Y10940D01*
Y10929D01*
X8347Y10917D01*
X8358D01*
X8347D01*
X8335Y10905D01*
Y10894D01*
X8347Y10882D01*
X8370D01*
X8382Y10894D01*
X8277Y10882D02*
Y10952D01*
X8312Y10917D01*
X8265D01*
X8748Y11813D02*
X8818D01*
Y11848D01*
X8806Y11860D01*
X8783D01*
X8771Y11848D01*
Y11813D01*
Y11837D02*
X8748Y11860D01*
X8818Y11930D02*
X8806Y11907D01*
X8783Y11883D01*
X8759D01*
X8748Y11895D01*
Y11918D01*
X8759Y11930D01*
X8771D01*
X8783Y11918D01*
Y11883D01*
X7719Y10451D02*
X7730Y10463D01*
X7754D01*
X7765Y10451D01*
Y10405D01*
X7754Y10393D01*
X7730D01*
X7719Y10405D01*
X7695Y10451D02*
X7684Y10463D01*
X7660D01*
X7649Y10451D01*
Y10440D01*
X7660Y10428D01*
X7649Y10416D01*
Y10405D01*
X7660Y10393D01*
X7684D01*
X7695Y10405D01*
Y10416D01*
X7684Y10428D01*
X7695Y10440D01*
Y10451D01*
X7684Y10428D02*
X7660D01*
X7625Y10451D02*
X7614Y10463D01*
X7590D01*
X7579Y10451D01*
Y10405D01*
X7590Y10393D01*
X7614D01*
X7625Y10405D01*
Y10451D01*
X7723Y11798D02*
X7735Y11809D01*
X7758D01*
X7770Y11798D01*
Y11751D01*
X7758Y11739D01*
X7735D01*
X7723Y11751D01*
X7700Y11809D02*
X7653D01*
Y11798D01*
X7700Y11751D01*
Y11739D01*
X7630Y11751D02*
X7618Y11739D01*
X7595D01*
X7583Y11751D01*
Y11798D01*
X7595Y11809D01*
X7618D01*
X7630Y11798D01*
Y11786D01*
X7618Y11774D01*
X7583D01*
X9495Y11936D02*
X9507Y11948D01*
X9530D01*
X9542Y11936D01*
Y11889D01*
X9530Y11878D01*
X9507D01*
X9495Y11889D01*
X9472Y11948D02*
X9425D01*
Y11936D01*
X9472Y11889D01*
Y11878D01*
X9355Y11948D02*
X9379Y11936D01*
X9402Y11913D01*
Y11889D01*
X9390Y11878D01*
X9367D01*
X9355Y11889D01*
Y11901D01*
X9367Y11913D01*
X9402D01*
X9187Y12052D02*
X9199Y12064D01*
X9222D01*
X9234Y12052D01*
Y12006D01*
X9222Y11994D01*
X9199D01*
X9187Y12006D01*
X9164Y12064D02*
X9117D01*
Y12052D01*
X9164Y12006D01*
Y11994D01*
X9047Y12064D02*
X9094D01*
Y12029D01*
X9071Y12041D01*
X9059D01*
X9047Y12029D01*
Y12006D01*
X9059Y11994D01*
X9082D01*
X9094Y12006D01*
X9305Y12672D02*
X9316Y12684D01*
X9340D01*
X9351Y12672D01*
Y12626D01*
X9340Y12614D01*
X9316D01*
X9305Y12626D01*
X9281Y12684D02*
X9235D01*
Y12672D01*
X9281Y12626D01*
Y12614D01*
X9176D02*
Y12684D01*
X9211Y12649D01*
X9165D01*
X8454Y924D02*
X8500D01*
Y889D01*
X8477D01*
X8500D01*
Y854D01*
X8430Y924D02*
Y854D01*
X8384D01*
X8361Y865D02*
X8349Y854D01*
X8326D01*
X8314Y865D01*
Y912D01*
X8326Y924D01*
X8349D01*
X8361Y912D01*
Y900D01*
X8349Y889D01*
X8314D01*
X5622Y926D02*
X5668D01*
Y891D01*
X5645D01*
X5668D01*
Y856D01*
X5598Y926D02*
Y856D01*
X5552D01*
X5528Y915D02*
X5517Y926D01*
X5493D01*
X5482Y915D01*
Y903D01*
X5493Y891D01*
X5482Y880D01*
Y868D01*
X5493Y856D01*
X5517D01*
X5528Y868D01*
Y880D01*
X5517Y891D01*
X5528Y903D01*
Y915D01*
X5517Y891D02*
X5493D01*
X4735Y10748D02*
X4746Y10737D01*
Y10713D01*
X4735Y10702D01*
X4688D01*
X4676Y10713D01*
Y10737D01*
X4688Y10748D01*
X4746Y10772D02*
Y10818D01*
X4735D01*
X4688Y10772D01*
X4676D01*
X4735Y10842D02*
X4746Y10853D01*
Y10877D01*
X4735Y10888D01*
X4723D01*
X4711Y10877D01*
Y10865D01*
Y10877D01*
X4700Y10888D01*
X4688D01*
X4676Y10877D01*
Y10853D01*
X4688Y10842D01*
X5023Y10778D02*
X5035Y10766D01*
Y10743D01*
X5023Y10731D01*
X4976D01*
X4965Y10743D01*
Y10766D01*
X4976Y10778D01*
X5035Y10801D02*
Y10848D01*
X5023D01*
X4976Y10801D01*
X4965D01*
Y10918D02*
Y10871D01*
X5011Y10918D01*
X5023D01*
X5035Y10906D01*
Y10883D01*
X5023Y10871D01*
X4823Y10285D02*
X4834Y10297D01*
X4858D01*
X4869Y10285D01*
Y10238D01*
X4858Y10227D01*
X4834D01*
X4823Y10238D01*
X4799Y10297D02*
X4753D01*
Y10285D01*
X4799Y10238D01*
Y10227D01*
X4729D02*
X4706D01*
X4718D01*
Y10297D01*
X4729Y10285D01*
X8181Y12971D02*
Y12913D01*
X8169Y12901D01*
X8146D01*
X8134Y12913D01*
Y12971D01*
X8111Y12901D02*
X8088D01*
X8099D01*
Y12971D01*
X8111Y12960D01*
X8006Y12901D02*
X8053D01*
X8006Y12948D01*
Y12960D01*
X8018Y12971D01*
X8041D01*
X8053Y12960D01*
X9307Y8767D02*
X9318Y8755D01*
Y8732D01*
X9307Y8720D01*
X9260D01*
X9248Y8732D01*
Y8755D01*
X9260Y8767D01*
X9318Y8790D02*
X9248D01*
Y8825D01*
X9260Y8837D01*
X9307D01*
X9318Y8825D01*
Y8790D01*
X9248Y8907D02*
Y8860D01*
X9295Y8907D01*
X9307D01*
X9318Y8895D01*
Y8872D01*
X9307Y8860D01*
X9279Y10228D02*
X9290Y10240D01*
X9314D01*
X9325Y10228D01*
Y10182D01*
X9314Y10170D01*
X9290D01*
X9279Y10182D01*
X9255Y10240D02*
Y10170D01*
X9220D01*
X9209Y10182D01*
Y10228D01*
X9220Y10240D01*
X9255D01*
X9185Y10170D02*
X9162D01*
X9174D01*
Y10240D01*
X9185Y10228D01*
X7701Y12030D02*
Y12100D01*
X7666D01*
X7655Y12088D01*
Y12065D01*
X7666Y12053D01*
X7701D01*
X7678D02*
X7655Y12030D01*
X7631Y12100D02*
X7585D01*
Y12088D01*
X7631Y12042D01*
Y12030D01*
X7561D02*
X7538D01*
X7550D01*
Y12100D01*
X7561Y12088D01*
X8999Y12229D02*
Y12299D01*
X8964D01*
X8952Y12287D01*
Y12264D01*
X8964Y12252D01*
X8999D01*
X8975D02*
X8952Y12229D01*
X8929Y12299D02*
X8882D01*
Y12287D01*
X8929Y12241D01*
Y12229D01*
X8859Y12287D02*
X8847Y12299D01*
X8824D01*
X8812Y12287D01*
Y12241D01*
X8824Y12229D01*
X8847D01*
X8859Y12241D01*
Y12287D01*
X7586Y12716D02*
Y12786D01*
X7551D01*
X7539Y12774D01*
Y12751D01*
X7551Y12739D01*
X7586D01*
X7563D02*
X7539Y12716D01*
X7469Y12786D02*
X7493Y12774D01*
X7516Y12751D01*
Y12727D01*
X7504Y12716D01*
X7481D01*
X7469Y12727D01*
Y12739D01*
X7481Y12751D01*
X7516D01*
X7446Y12727D02*
X7434Y12716D01*
X7411D01*
X7399Y12727D01*
Y12774D01*
X7411Y12786D01*
X7434D01*
X7446Y12774D01*
Y12762D01*
X7434Y12751D01*
X7399D01*
X3932Y13677D02*
Y13747D01*
X3897D01*
X3885Y13735D01*
Y13712D01*
X3897Y13700D01*
X3932D01*
X3909D02*
X3885Y13677D01*
X3815Y13747D02*
X3839Y13735D01*
X3862Y13712D01*
Y13688D01*
X3850Y13677D01*
X3827D01*
X3815Y13688D01*
Y13700D01*
X3827Y13712D01*
X3862D01*
X3792Y13747D02*
X3745D01*
Y13735D01*
X3792Y13688D01*
Y13677D01*
X3141Y14252D02*
Y14322D01*
X3106D01*
X3094Y14311D01*
Y14287D01*
X3106Y14276D01*
X3141D01*
X3118D02*
X3094Y14252D01*
X3024Y14322D02*
X3048Y14311D01*
X3071Y14287D01*
Y14264D01*
X3059Y14252D01*
X3036D01*
X3024Y14264D01*
Y14276D01*
X3036Y14287D01*
X3071D01*
X2954Y14322D02*
X2978Y14311D01*
X3001Y14287D01*
Y14264D01*
X2989Y14252D01*
X2966D01*
X2954Y14264D01*
Y14276D01*
X2966Y14287D01*
X3001D01*
X3928Y13793D02*
Y13863D01*
X3893D01*
X3881Y13851D01*
Y13828D01*
X3893Y13816D01*
X3928D01*
X3905D02*
X3881Y13793D01*
X3811Y13863D02*
X3835Y13851D01*
X3858Y13828D01*
Y13805D01*
X3846Y13793D01*
X3823D01*
X3811Y13805D01*
Y13816D01*
X3823Y13828D01*
X3858D01*
X3741Y13863D02*
X3788D01*
Y13828D01*
X3765Y13840D01*
X3753D01*
X3741Y13828D01*
Y13805D01*
X3753Y13793D01*
X3776D01*
X3788Y13805D01*
X7501Y933D02*
X7548D01*
Y898D01*
X7525D01*
X7548D01*
Y863D01*
X7478Y933D02*
Y863D01*
X7431D01*
X7373D02*
Y933D01*
X7408Y898D01*
X7361D01*
X4657Y924D02*
X4703D01*
Y889D01*
X4680D01*
X4703D01*
Y854D01*
X4633Y924D02*
Y854D01*
X4587D01*
X4563Y912D02*
X4552Y924D01*
X4528D01*
X4517Y912D01*
Y900D01*
X4528Y889D01*
X4540D01*
X4528D01*
X4517Y877D01*
Y865D01*
X4528Y854D01*
X4552D01*
X4563Y865D01*
X3567Y13230D02*
Y13160D01*
X3532D01*
X3520Y13172D01*
Y13219D01*
X3532Y13230D01*
X3567D01*
X3497Y13160D02*
X3474D01*
X3485D01*
Y13230D01*
X3497Y13219D01*
X3439D02*
X3427Y13230D01*
X3404D01*
X3392Y13219D01*
Y13172D01*
X3404Y13160D01*
X3427D01*
X3439Y13172D01*
Y13219D01*
X2046Y13504D02*
X2058Y13516D01*
X2081D01*
X2093Y13504D01*
Y13457D01*
X2081Y13446D01*
X2058D01*
X2046Y13457D01*
X2023D02*
X2011Y13446D01*
X1988D01*
X1976Y13457D01*
Y13504D01*
X1988Y13516D01*
X2011D01*
X2023Y13504D01*
Y13492D01*
X2011Y13481D01*
X1976D01*
X1953Y13457D02*
X1941Y13446D01*
X1918D01*
X1906Y13457D01*
Y13504D01*
X1918Y13516D01*
X1941D01*
X1953Y13504D01*
Y13492D01*
X1941Y13481D01*
X1906D01*
X8625Y10326D02*
X8636Y10338D01*
X8660D01*
X8671Y10326D01*
Y10280D01*
X8660Y10268D01*
X8636D01*
X8625Y10280D01*
X8601D02*
X8590Y10268D01*
X8566D01*
X8555Y10280D01*
Y10326D01*
X8566Y10338D01*
X8590D01*
X8601Y10326D01*
Y10315D01*
X8590Y10303D01*
X8555D01*
X8485Y10338D02*
X8531D01*
Y10303D01*
X8508Y10315D01*
X8496D01*
X8485Y10303D01*
Y10280D01*
X8496Y10268D01*
X8520D01*
X8531Y10280D01*
X2574Y12672D02*
X2585Y12684D01*
X2609D01*
X2620Y12672D01*
Y12626D01*
X2609Y12614D01*
X2585D01*
X2574Y12626D01*
X2550Y12672D02*
X2539Y12684D01*
X2515D01*
X2504Y12672D01*
Y12661D01*
X2515Y12649D01*
X2504Y12637D01*
Y12626D01*
X2515Y12614D01*
X2539D01*
X2550Y12626D01*
Y12637D01*
X2539Y12649D01*
X2550Y12661D01*
Y12672D01*
X2539Y12649D02*
X2515D01*
X2434Y12614D02*
X2480D01*
X2434Y12661D01*
Y12672D01*
X2445Y12684D01*
X2469D01*
X2480Y12672D01*
X4316Y11876D02*
Y11946D01*
X4281D01*
X4270Y11935D01*
Y11911D01*
X4281Y11900D01*
X4316D01*
X4293D02*
X4270Y11876D01*
X4200D02*
X4246D01*
X4200Y11923D01*
Y11935D01*
X4211Y11946D01*
X4235D01*
X4246Y11935D01*
X4141Y11876D02*
Y11946D01*
X4176Y11911D01*
X4130D01*
X4317Y11992D02*
Y12062D01*
X4282D01*
X4270Y12051D01*
Y12027D01*
X4282Y12016D01*
X4317D01*
X4294D02*
X4270Y11992D01*
X4200D02*
X4247D01*
X4200Y12039D01*
Y12051D01*
X4212Y12062D01*
X4235D01*
X4247Y12051D01*
X4130Y11992D02*
X4177D01*
X4130Y12039D01*
Y12051D01*
X4142Y12062D01*
X4165D01*
X4177Y12051D01*
X4270Y11830D02*
X4282Y11842D01*
X4305D01*
X4317Y11830D01*
Y11784D01*
X4305Y11772D01*
X4282D01*
X4270Y11784D01*
X4247Y11830D02*
X4235Y11842D01*
X4212D01*
X4200Y11830D01*
Y11819D01*
X4212Y11807D01*
X4224D01*
X4212D01*
X4200Y11795D01*
Y11784D01*
X4212Y11772D01*
X4235D01*
X4247Y11784D01*
X4177Y11830D02*
X4165Y11842D01*
X4142D01*
X4130Y11830D01*
Y11819D01*
X4142Y11807D01*
X4130Y11795D01*
Y11784D01*
X4142Y11772D01*
X4165D01*
X4177Y11784D01*
Y11795D01*
X4165Y11807D01*
X4177Y11819D01*
Y11830D01*
X4165Y11807D02*
X4142D01*
X4294Y12094D02*
Y12164D01*
X4259D01*
X4247Y12152D01*
Y12129D01*
X4259Y12117D01*
X4294D01*
X4270D02*
X4247Y12094D01*
X4177D02*
X4224D01*
X4177Y12140D01*
Y12152D01*
X4189Y12164D01*
X4212D01*
X4224Y12152D01*
X4154Y12094D02*
X4130D01*
X4142D01*
Y12164D01*
X4154Y12152D01*
X1355Y9496D02*
Y9426D01*
X1308D01*
X1285D02*
X1261D01*
X1273D01*
Y9496D01*
X1285Y9485D01*
X2979Y8436D02*
Y8378D01*
X2967Y8366D01*
X2944D01*
X2933Y8378D01*
Y8436D01*
X2909Y8366D02*
X2886D01*
X2898D01*
Y8436D01*
X2909Y8424D01*
X2851Y8366D02*
X2828D01*
X2839D01*
Y8436D01*
X2851Y8424D01*
X4130Y8039D02*
Y8109D01*
X4095D01*
X4084Y8097D01*
Y8074D01*
X4095Y8062D01*
X4130D01*
X4107D02*
X4084Y8039D01*
X4060Y8097D02*
X4049Y8109D01*
X4025D01*
X4014Y8097D01*
Y8086D01*
X4025Y8074D01*
X4037D01*
X4025D01*
X4014Y8062D01*
Y8051D01*
X4025Y8039D01*
X4049D01*
X4060Y8051D01*
X3990Y8097D02*
X3979Y8109D01*
X3955D01*
X3944Y8097D01*
Y8051D01*
X3955Y8039D01*
X3979D01*
X3990Y8051D01*
Y8097D01*
X4129Y8155D02*
Y8225D01*
X4094D01*
X4082Y8213D01*
Y8190D01*
X4094Y8178D01*
X4129D01*
X4106D02*
X4082Y8155D01*
X4013D02*
X4059D01*
X4013Y8202D01*
Y8213D01*
X4024Y8225D01*
X4048D01*
X4059Y8213D01*
X3989Y8167D02*
X3978Y8155D01*
X3954D01*
X3943Y8167D01*
Y8213D01*
X3954Y8225D01*
X3978D01*
X3989Y8213D01*
Y8202D01*
X3978Y8190D01*
X3943D01*
X4203Y8262D02*
Y8332D01*
X4168D01*
X4156Y8320D01*
Y8297D01*
X4168Y8285D01*
X4203D01*
X4179D02*
X4156Y8262D01*
X4086D02*
X4133D01*
X4086Y8309D01*
Y8320D01*
X4098Y8332D01*
X4121D01*
X4133Y8320D01*
X4063D02*
X4051Y8332D01*
X4028D01*
X4016Y8320D01*
Y8309D01*
X4028Y8297D01*
X4016Y8285D01*
Y8274D01*
X4028Y8262D01*
X4051D01*
X4063Y8274D01*
Y8285D01*
X4051Y8297D01*
X4063Y8309D01*
Y8320D01*
X4051Y8297D02*
X4028D01*
X3285Y7418D02*
X3215D01*
Y7465D01*
X3273Y7488D02*
X3285Y7500D01*
Y7523D01*
X3273Y7534D01*
X3262D01*
X3250Y7523D01*
Y7511D01*
Y7523D01*
X3238Y7534D01*
X3227D01*
X3215Y7523D01*
Y7500D01*
X3227Y7488D01*
X8606Y10819D02*
Y10749D01*
X8571D01*
X8560Y10761D01*
Y10807D01*
X8571Y10819D01*
X8606D01*
X8536Y10807D02*
X8525Y10819D01*
X8501D01*
X8490Y10807D01*
Y10796D01*
X8501Y10784D01*
X8490Y10772D01*
Y10761D01*
X8501Y10749D01*
X8525D01*
X8536Y10761D01*
Y10772D01*
X8525Y10784D01*
X8536Y10796D01*
Y10807D01*
X8525Y10784D02*
X8501D01*
X3199Y8559D02*
X3211Y8571D01*
X3234D01*
X3246Y8559D01*
Y8512D01*
X3234Y8501D01*
X3211D01*
X3199Y8512D01*
X3129Y8571D02*
X3176D01*
Y8536D01*
X3153Y8547D01*
X3141D01*
X3129Y8536D01*
Y8512D01*
X3141Y8501D01*
X3164D01*
X3176Y8512D01*
X3059Y8571D02*
X3083Y8559D01*
X3106Y8536D01*
Y8512D01*
X3094Y8501D01*
X3071D01*
X3059Y8512D01*
Y8524D01*
X3071Y8536D01*
X3106D01*
X4085Y7993D02*
X4096Y8004D01*
X4120D01*
X4131Y7993D01*
Y7946D01*
X4120Y7934D01*
X4096D01*
X4085Y7946D01*
X4015Y8004D02*
X4061D01*
Y7969D01*
X4038Y7981D01*
X4026D01*
X4015Y7969D01*
Y7946D01*
X4026Y7934D01*
X4050D01*
X4061Y7946D01*
X3945Y8004D02*
X3991D01*
Y7969D01*
X3968Y7981D01*
X3956D01*
X3945Y7969D01*
Y7946D01*
X3956Y7934D01*
X3980D01*
X3991Y7946D01*
X4253Y6747D02*
X4265Y6736D01*
Y6712D01*
X4253Y6701D01*
X4206D01*
X4195Y6712D01*
Y6736D01*
X4206Y6747D01*
X4265Y6817D02*
Y6771D01*
X4230D01*
X4241Y6794D01*
Y6806D01*
X4230Y6817D01*
X4206D01*
X4195Y6806D01*
Y6782D01*
X4206Y6771D01*
X4253Y6841D02*
X4265Y6852D01*
Y6875D01*
X4253Y6887D01*
X4206D01*
X4195Y6875D01*
Y6852D01*
X4206Y6841D01*
X4253D01*
X4009Y7638D02*
X3998Y7626D01*
X3974D01*
X3963Y7638D01*
Y7684D01*
X3974Y7696D01*
X3998D01*
X4009Y7684D01*
X4068Y7696D02*
Y7626D01*
X4033Y7661D01*
X4079D01*
X4103Y7684D02*
X4114Y7696D01*
X4138D01*
X4149Y7684D01*
Y7638D01*
X4138Y7626D01*
X4114D01*
X4103Y7638D01*
Y7649D01*
X4114Y7661D01*
X4149D01*
X3214Y7636D02*
X3226Y7648D01*
X3249D01*
X3261Y7636D01*
Y7589D01*
X3249Y7578D01*
X3226D01*
X3214Y7589D01*
X3156Y7578D02*
Y7648D01*
X3191Y7613D01*
X3144D01*
X3121Y7648D02*
X3074D01*
Y7636D01*
X3121Y7589D01*
Y7578D01*
X2385Y7497D02*
X2397Y7485D01*
Y7462D01*
X2385Y7450D01*
X2339D01*
X2327Y7462D01*
Y7485D01*
X2339Y7497D01*
X2327Y7555D02*
X2397D01*
X2362Y7520D01*
Y7567D01*
X2397Y7637D02*
X2385Y7614D01*
X2362Y7590D01*
X2339D01*
X2327Y7602D01*
Y7625D01*
X2339Y7637D01*
X2350D01*
X2362Y7625D01*
Y7590D01*
X2233Y8297D02*
X2245Y8286D01*
Y8262D01*
X2233Y8251D01*
X2186D01*
X2175Y8262D01*
Y8286D01*
X2186Y8297D01*
X2175Y8356D02*
X2245D01*
X2210Y8321D01*
Y8367D01*
X2245Y8437D02*
Y8391D01*
X2210D01*
X2221Y8414D01*
Y8425D01*
X2210Y8437D01*
X2186D01*
X2175Y8425D01*
Y8402D01*
X2186Y8391D01*
X2588Y7497D02*
X2600Y7485D01*
Y7462D01*
X2588Y7450D01*
X2542D01*
X2530Y7462D01*
Y7485D01*
X2542Y7497D01*
X2530Y7555D02*
X2600D01*
X2565Y7520D01*
Y7567D01*
X2530Y7625D02*
X2600D01*
X2565Y7590D01*
Y7637D01*
X2576Y8615D02*
X2587Y8603D01*
Y8580D01*
X2576Y8568D01*
X2529D01*
X2517Y8580D01*
Y8603D01*
X2529Y8615D01*
X2517Y8673D02*
X2587D01*
X2552Y8638D01*
Y8685D01*
X2576Y8708D02*
X2587Y8720D01*
Y8743D01*
X2576Y8755D01*
X2564D01*
X2552Y8743D01*
Y8731D01*
Y8743D01*
X2541Y8755D01*
X2529D01*
X2517Y8743D01*
Y8720D01*
X2529Y8708D01*
X1042Y10459D02*
Y10401D01*
X1031Y10389D01*
X1007D01*
X996Y10401D01*
Y10459D01*
X937Y10389D02*
Y10459D01*
X972Y10424D01*
X926D01*
X810Y10259D02*
X822Y10247D01*
Y10224D01*
X810Y10212D01*
X764D01*
X752Y10224D01*
Y10247D01*
X764Y10259D01*
X752Y10282D02*
Y10305D01*
Y10294D01*
X822D01*
X810Y10282D01*
X752Y10387D02*
Y10340D01*
X799Y10387D01*
X810D01*
X822Y10375D01*
Y10352D01*
X810Y10340D01*
X1274Y9688D02*
X1285Y9700D01*
X1309D01*
X1320Y9688D01*
Y9641D01*
X1309Y9630D01*
X1285D01*
X1274Y9641D01*
X1250Y9630D02*
X1227D01*
X1239D01*
Y9700D01*
X1250Y9688D01*
X1192Y9630D02*
X1169D01*
X1180D01*
Y9700D01*
X1192Y9688D01*
X3694Y12278D02*
Y12219D01*
X3682Y12208D01*
X3659D01*
X3647Y12219D01*
Y12278D01*
X3624Y12208D02*
X3601D01*
X3612D01*
Y12278D01*
X3624Y12266D01*
X3566D02*
X3554Y12278D01*
X3531D01*
X3519Y12266D01*
Y12219D01*
X3531Y12208D01*
X3554D01*
X3566Y12219D01*
Y12266D01*
X3400Y11118D02*
X3330D01*
Y11164D01*
Y11234D02*
Y11188D01*
X3377Y11234D01*
X3389D01*
X3400Y11223D01*
Y11199D01*
X3389Y11188D01*
X6574Y931D02*
X6621D01*
Y896D01*
X6598D01*
X6621D01*
Y861D01*
X6551Y931D02*
Y861D01*
X6504D01*
X6434D02*
X6481D01*
X6434Y908D01*
Y919D01*
X6446Y931D01*
X6469D01*
X6481Y919D01*
X3705Y935D02*
X3752D01*
Y900D01*
X3728D01*
X3752D01*
Y865D01*
X3682Y935D02*
Y865D01*
X3635D01*
X3612D02*
X3588D01*
X3600D01*
Y935D01*
X3612Y923D01*
X3326Y12391D02*
X3338Y12403D01*
X3361D01*
X3373Y12391D01*
Y12344D01*
X3361Y12333D01*
X3338D01*
X3326Y12344D01*
X3303Y12391D02*
X3291Y12403D01*
X3268D01*
X3256Y12391D01*
Y12379D01*
X3268Y12368D01*
X3280D01*
X3268D01*
X3256Y12356D01*
Y12344D01*
X3268Y12333D01*
X3291D01*
X3303Y12344D01*
X3233D02*
X3221Y12333D01*
X3198D01*
X3186Y12344D01*
Y12391D01*
X3198Y12403D01*
X3221D01*
X3233Y12391D01*
Y12379D01*
X3221Y12368D01*
X3186D01*
X4366Y11294D02*
X4378Y11283D01*
Y11259D01*
X4366Y11248D01*
X4320D01*
X4308Y11259D01*
Y11283D01*
X4320Y11294D01*
X4366Y11318D02*
X4378Y11329D01*
Y11353D01*
X4366Y11364D01*
X4355D01*
X4343Y11353D01*
Y11341D01*
Y11353D01*
X4332Y11364D01*
X4320D01*
X4308Y11353D01*
Y11329D01*
X4320Y11318D01*
X4308Y11423D02*
X4378D01*
X4343Y11388D01*
Y11434D01*
X4036Y10723D02*
X4048Y10711D01*
Y10688D01*
X4036Y10676D01*
X3990D01*
X3978Y10688D01*
Y10711D01*
X3990Y10723D01*
X4036Y10746D02*
X4048Y10758D01*
Y10781D01*
X4036Y10793D01*
X4025D01*
X4013Y10781D01*
Y10770D01*
Y10781D01*
X4001Y10793D01*
X3990D01*
X3978Y10781D01*
Y10758D01*
X3990Y10746D01*
X4036Y10816D02*
X4048Y10828D01*
Y10851D01*
X4036Y10863D01*
X4025D01*
X4013Y10851D01*
Y10840D01*
Y10851D01*
X4001Y10863D01*
X3990D01*
X3978Y10851D01*
Y10828D01*
X3990Y10816D01*
X4532Y10812D02*
X4543Y10800D01*
Y10777D01*
X4532Y10765D01*
X4485D01*
X4473Y10777D01*
Y10800D01*
X4485Y10812D01*
X4532Y10835D02*
X4543Y10847D01*
Y10870D01*
X4532Y10882D01*
X4520D01*
X4508Y10870D01*
Y10858D01*
Y10870D01*
X4497Y10882D01*
X4485D01*
X4473Y10870D01*
Y10847D01*
X4485Y10835D01*
X4473Y10952D02*
Y10905D01*
X4520Y10952D01*
X4532D01*
X4543Y10940D01*
Y10917D01*
X4532Y10905D01*
X3323Y11441D02*
X3335Y11452D01*
X3358D01*
X3370Y11441D01*
Y11394D01*
X3358Y11382D01*
X3335D01*
X3323Y11394D01*
X3253Y11382D02*
X3300D01*
X3253Y11429D01*
Y11441D01*
X3265Y11452D01*
X3288D01*
X3300Y11441D01*
X3230Y11394D02*
X3218Y11382D01*
X3195D01*
X3183Y11394D01*
Y11441D01*
X3195Y11452D01*
X3218D01*
X3230Y11441D01*
Y11429D01*
X3218Y11417D01*
X3183D01*
X2347Y12133D02*
X2359Y12121D01*
Y12098D01*
X2347Y12086D01*
X2301D01*
X2289Y12098D01*
Y12121D01*
X2301Y12133D01*
X2289Y12203D02*
Y12156D01*
X2336Y12203D01*
X2347D01*
X2359Y12191D01*
Y12168D01*
X2347Y12156D01*
X2359Y12273D02*
X2347Y12249D01*
X2324Y12226D01*
X2301D01*
X2289Y12238D01*
Y12261D01*
X2301Y12273D01*
X2312D01*
X2324Y12261D01*
Y12226D01*
X2715Y11307D02*
X2727Y11295D01*
Y11272D01*
X2715Y11260D01*
X2669D01*
X2657Y11272D01*
Y11295D01*
X2669Y11307D01*
X2657Y11377D02*
Y11330D01*
X2704Y11377D01*
X2715D01*
X2727Y11365D01*
Y11342D01*
X2715Y11330D01*
X2727Y11447D02*
Y11400D01*
X2692D01*
X2704Y11424D01*
Y11435D01*
X2692Y11447D01*
X2669D01*
X2657Y11435D01*
Y11412D01*
X2669Y11400D01*
X2855Y12158D02*
X2867Y12146D01*
Y12123D01*
X2855Y12111D01*
X2809D01*
X2797Y12123D01*
Y12146D01*
X2809Y12158D01*
X2797Y12228D02*
Y12181D01*
X2844Y12228D01*
X2855D01*
X2867Y12216D01*
Y12193D01*
X2855Y12181D01*
X2797Y12286D02*
X2867D01*
X2832Y12251D01*
Y12298D01*
X2500Y11307D02*
X2511Y11295D01*
Y11272D01*
X2500Y11260D01*
X2453D01*
X2441Y11272D01*
Y11295D01*
X2453Y11307D01*
X2441Y11377D02*
Y11330D01*
X2488Y11377D01*
X2500D01*
X2511Y11365D01*
Y11342D01*
X2500Y11330D01*
Y11400D02*
X2511Y11412D01*
Y11435D01*
X2500Y11447D01*
X2488D01*
X2476Y11435D01*
Y11424D01*
Y11435D01*
X2465Y11447D01*
X2453D01*
X2441Y11435D01*
Y11412D01*
X2453Y11400D01*
X3069Y1242D02*
X3081Y1230D01*
Y1207D01*
X3069Y1195D01*
X3022D01*
X3011Y1207D01*
Y1230D01*
X3022Y1242D01*
X3011Y1265D02*
Y1288D01*
Y1277D01*
X3081D01*
X3069Y1265D01*
X3081Y1323D02*
Y1370D01*
X3069D01*
X3022Y1323D01*
X3011D01*
X9178Y11526D02*
Y11467D01*
X9166Y11456D01*
X9143D01*
X9131Y11467D01*
Y11526D01*
X9108Y11514D02*
X9096Y11526D01*
X9073D01*
X9061Y11514D01*
Y11502D01*
X9073Y11491D01*
X9084D01*
X9073D01*
X9061Y11479D01*
Y11467D01*
X9073Y11456D01*
X9096D01*
X9108Y11467D01*
X879Y6142D02*
X890Y6154D01*
X914D01*
X925Y6142D01*
Y6096D01*
X914Y6084D01*
X890D01*
X879Y6096D01*
X855Y6084D02*
X832D01*
X844D01*
Y6154D01*
X855Y6142D01*
X797D02*
X785Y6154D01*
X762D01*
X750Y6142D01*
Y6131D01*
X762Y6119D01*
X750Y6107D01*
Y6096D01*
X762Y6084D01*
X785D01*
X797Y6096D01*
Y6107D01*
X785Y6119D01*
X797Y6131D01*
Y6142D01*
X785Y6119D02*
X762D01*
X3759Y5592D02*
X3712Y5522D01*
Y5592D02*
X3759Y5522D01*
X3642D02*
X3689D01*
X3642Y5568D01*
Y5580D01*
X3654Y5592D01*
X3677D01*
X3689Y5580D01*
X1442Y6271D02*
Y6212D01*
X1431Y6201D01*
X1407D01*
X1396Y6212D01*
Y6271D01*
X1372D02*
X1326D01*
Y6259D01*
X1372Y6212D01*
Y6201D01*
X3106Y5509D02*
Y5450D01*
X3094Y5439D01*
X3071D01*
X3059Y5450D01*
Y5509D01*
X2989D02*
X3013Y5497D01*
X3036Y5474D01*
Y5450D01*
X3024Y5439D01*
X3001D01*
X2989Y5450D01*
Y5462D01*
X3001Y5474D01*
X3036D01*
X1141Y5731D02*
Y5801D01*
X1106D01*
X1095Y5789D01*
Y5766D01*
X1106Y5754D01*
X1141D01*
X1118D02*
X1095Y5731D01*
X1071D02*
X1048D01*
X1060D01*
Y5801D01*
X1071Y5789D01*
X1013Y5801D02*
X966D01*
Y5789D01*
X1013Y5742D01*
Y5731D01*
X1078Y6239D02*
Y6309D01*
X1043D01*
X1031Y6297D01*
Y6274D01*
X1043Y6262D01*
X1078D01*
X1055D02*
X1031Y6239D01*
X1008D02*
X985D01*
X996D01*
Y6309D01*
X1008Y6297D01*
X903Y6309D02*
X926Y6297D01*
X950Y6274D01*
Y6250D01*
X938Y6239D01*
X915D01*
X903Y6250D01*
Y6262D01*
X915Y6274D01*
X950D01*
X5066Y5985D02*
Y6055D01*
X5031D01*
X5019Y6043D01*
Y6020D01*
X5031Y6008D01*
X5066D01*
X5042D02*
X5019Y5985D01*
X4996D02*
X4972D01*
X4984D01*
Y6055D01*
X4996Y6043D01*
X4937D02*
X4926Y6055D01*
X4902D01*
X4891Y6043D01*
Y6031D01*
X4902Y6020D01*
X4914D01*
X4902D01*
X4891Y6008D01*
Y5996D01*
X4902Y5985D01*
X4926D01*
X4937Y5996D01*
X5088Y6328D02*
Y6398D01*
X5053D01*
X5041Y6386D01*
Y6363D01*
X5053Y6351D01*
X5088D01*
X5064D02*
X5041Y6328D01*
X5018D02*
X4994D01*
X5006D01*
Y6398D01*
X5018Y6386D01*
X4913Y6328D02*
X4959D01*
X4913Y6374D01*
Y6386D01*
X4924Y6398D01*
X4948D01*
X4959Y6386D01*
X9448Y11458D02*
Y11528D01*
X9413D01*
X9402Y11517D01*
Y11493D01*
X9413Y11482D01*
X9448D01*
X9425D02*
X9402Y11458D01*
X9378D02*
X9355D01*
X9367D01*
Y11528D01*
X9378Y11517D01*
X9320Y11458D02*
X9297D01*
X9308D01*
Y11528D01*
X9320Y11517D01*
X8858Y11810D02*
X8927D01*
Y11845D01*
X8916Y11856D01*
X8892D01*
X8881Y11845D01*
Y11810D01*
Y11833D02*
X8858Y11856D01*
Y11880D02*
Y11903D01*
Y11891D01*
X8927D01*
X8916Y11880D01*
Y11938D02*
X8927Y11950D01*
Y11973D01*
X8916Y11985D01*
X8869D01*
X8858Y11973D01*
Y11950D01*
X8869Y11938D01*
X8916D01*
X5697Y3794D02*
Y3724D01*
X5662D01*
X5650Y3736D01*
Y3782D01*
X5662Y3794D01*
X5697D01*
X5580D02*
X5604Y3782D01*
X5627Y3759D01*
Y3736D01*
X5615Y3724D01*
X5592D01*
X5580Y3736D01*
Y3747D01*
X5592Y3759D01*
X5627D01*
X2796Y887D02*
X2808Y899D01*
X2831D01*
X2843Y887D01*
Y840D01*
X2831Y829D01*
X2808D01*
X2796Y840D01*
X2773Y829D02*
X2750D01*
X2762D01*
Y899D01*
X2773Y887D01*
X2668Y899D02*
X2715D01*
Y864D01*
X2692Y875D01*
X2680D01*
X2668Y864D01*
Y840D01*
X2680Y829D01*
X2703D01*
X2715Y840D01*
X2614Y5497D02*
X2625Y5509D01*
X2649D01*
X2660Y5497D01*
Y5450D01*
X2649Y5439D01*
X2625D01*
X2614Y5450D01*
X2544Y5439D02*
X2590D01*
X2544Y5485D01*
Y5497D01*
X2555Y5509D01*
X2579D01*
X2590Y5497D01*
X2474Y5439D02*
X2520D01*
X2474Y5485D01*
Y5497D01*
X2485Y5509D01*
X2509D01*
X2520Y5497D01*
X1996Y988D02*
X2008Y1000D01*
X2031D01*
X2043Y988D01*
Y942D01*
X2031Y930D01*
X2008D01*
X1996Y942D01*
X1973Y930D02*
X1950D01*
X1961D01*
Y1000D01*
X1973Y988D01*
X1880Y930D02*
Y1000D01*
X1915Y965D01*
X1868D01*
X1514Y5726D02*
X1525Y5737D01*
X1549D01*
X1560Y5726D01*
Y5679D01*
X1549Y5667D01*
X1525D01*
X1514Y5679D01*
X1490Y5667D02*
X1467D01*
X1479D01*
Y5737D01*
X1490Y5726D01*
X1432D02*
X1420Y5737D01*
X1397D01*
X1385Y5726D01*
Y5714D01*
X1397Y5702D01*
X1409D01*
X1397D01*
X1385Y5691D01*
Y5679D01*
X1397Y5667D01*
X1420D01*
X1432Y5679D01*
X2296Y781D02*
X2308Y769D01*
Y746D01*
X2296Y734D01*
X2250D01*
X2238Y746D01*
Y769D01*
X2250Y781D01*
X2296Y804D02*
X2308Y816D01*
Y839D01*
X2296Y851D01*
X2285D01*
X2273Y839D01*
X2261Y851D01*
X2250D01*
X2238Y839D01*
Y816D01*
X2250Y804D01*
X2261D01*
X2273Y816D01*
X2285Y804D01*
X2296D01*
X2273Y816D02*
Y839D01*
X2453Y1008D02*
X2464Y996D01*
Y973D01*
X2453Y961D01*
X2406D01*
X2394Y973D01*
Y996D01*
X2406Y1008D01*
X2464Y1031D02*
Y1078D01*
X2453D01*
X2406Y1031D01*
X2394D01*
X2450Y445D02*
X2461Y457D01*
X2485D01*
X2496Y445D01*
Y399D01*
X2485Y387D01*
X2461D01*
X2450Y399D01*
X2380Y457D02*
X2403Y445D01*
X2427Y422D01*
Y399D01*
X2415Y387D01*
X2392D01*
X2380Y399D01*
Y410D01*
X2392Y422D01*
X2427D01*
X2167Y234D02*
X2179Y223D01*
Y199D01*
X2167Y188D01*
X2121D01*
X2109Y199D01*
Y223D01*
X2121Y234D01*
X2179Y304D02*
Y258D01*
X2144D01*
X2156Y281D01*
Y293D01*
X2144Y304D01*
X2121D01*
X2109Y293D01*
Y269D01*
X2121Y258D01*
X2991Y3878D02*
X2921D01*
Y3913D01*
X2933Y3925D01*
X2944D01*
X2956Y3913D01*
Y3878D01*
Y3913D01*
X2968Y3925D01*
X2979D01*
X2991Y3913D01*
Y3878D01*
X2921Y3948D02*
X2968D01*
X2991Y3971D01*
X2968Y3995D01*
X2921D01*
X2956D01*
Y3948D01*
X2991Y4018D02*
Y4064D01*
Y4041D01*
X2921D01*
X2991Y4088D02*
Y4134D01*
Y4111D01*
X2921D01*
Y4158D02*
Y4181D01*
Y4169D01*
X2991D01*
X2979Y4158D01*
D18*
X4511Y5194D02*
X4816D01*
Y5499D01*
X4511D02*
X4816D01*
X4511Y5194D02*
Y5499D01*
M02*
