G04*
G04 #@! TF.GenerationSoftware,Altium Limited,Altium Designer,24.0.1 (36)*
G04*
G04 Layer_Color=16711935*
%FSLAX42Y42*%
%MOMM*%
G71*
G04*
G04 #@! TF.SameCoordinates,E1E02590-05F2-4693-A132-99C86EA4FF08*
G04*
G04*
G04 #@! TF.FilePolarity,Positive*
G04*
G01*
G75*
G36*
X1216Y12804D02*
X822D01*
Y12944D01*
X1216D01*
Y12804D01*
D02*
G37*
G36*
X442Y12789D02*
X84D01*
Y12959D01*
X442D01*
Y12789D01*
D02*
G37*
G36*
X1216Y12550D02*
X822D01*
Y12690D01*
X1216D01*
Y12550D01*
D02*
G37*
G36*
X442Y12535D02*
X84D01*
Y12705D01*
X442D01*
Y12535D01*
D02*
G37*
G36*
X1216Y12296D02*
X822D01*
Y12436D01*
X1216D01*
Y12296D01*
D02*
G37*
G36*
X442Y12281D02*
X84D01*
Y12451D01*
X442D01*
Y12281D01*
D02*
G37*
G36*
X4591Y9437D02*
X4208D01*
Y9681D01*
X4591D01*
Y9437D01*
D02*
G37*
G36*
X907Y8525D02*
X667D01*
Y8596D01*
X907D01*
Y8525D01*
D02*
G37*
G36*
X1452Y8380D02*
X1237D01*
Y8436D01*
X1452D01*
Y8380D01*
D02*
G37*
G36*
X1473Y8179D02*
X1417D01*
Y8234D01*
X1473D01*
Y8179D01*
D02*
G37*
G36*
X1167Y7855D02*
X1292D01*
Y8085D01*
X1510D01*
Y7976D01*
X1409D01*
Y7328D01*
X1143D01*
Y7229D01*
X432D01*
Y8229D01*
X907D01*
Y8294D01*
X1167D01*
Y7855D01*
D02*
G37*
G36*
X10266Y4646D02*
X7777D01*
Y4951D01*
X9860D01*
Y6094D01*
X7777D01*
Y6399D01*
X10266D01*
Y4646D01*
D02*
G37*
G36*
X284Y3303D02*
X74D01*
Y3493D01*
X284D01*
Y3303D01*
D02*
G37*
M02*
