G04*
G04 #@! TF.GenerationSoftware,Altium Limited,Altium Designer,24.0.1 (36)*
G04*
G04 Layer_Physical_Order=1*
G04 Layer_Color=255*
%FSLAX42Y42*%
%MOMM*%
G71*
G04*
G04 #@! TF.SameCoordinates,E1E02590-05F2-4693-A132-99C86EA4FF08*
G04*
G04*
G04 #@! TF.FilePolarity,Positive*
G04*
G01*
G75*
%ADD16C,0.15*%
%ADD19R,1.55X0.30*%
%ADD20R,2.75X1.20*%
%ADD21O,0.27X1.50*%
G04:AMPARAMS|DCode=22|XSize=0.56mm|YSize=0.2mm|CornerRadius=0.05mm|HoleSize=0mm|Usage=FLASHONLY|Rotation=0.000|XOffset=0mm|YOffset=0mm|HoleType=Round|Shape=RoundedRectangle|*
%AMROUNDEDRECTD22*
21,1,0.56,0.10,0,0,0.0*
21,1,0.47,0.20,0,0,0.0*
1,1,0.10,0.23,-0.05*
1,1,0.10,-0.23,-0.05*
1,1,0.10,-0.23,0.05*
1,1,0.10,0.23,0.05*
%
%ADD22ROUNDEDRECTD22*%
%ADD23R,0.60X0.75*%
%ADD24R,0.23X1.36*%
%ADD25R,0.85X0.95*%
%ADD26R,0.75X0.60*%
%ADD27R,0.20X0.70*%
%ADD28R,1.36X0.23*%
%ADD29R,1.90X0.76*%
%ADD30R,1.40X1.20*%
G04:AMPARAMS|DCode=31|XSize=2.17mm|YSize=0.57mm|CornerRadius=0.28mm|HoleSize=0mm|Usage=FLASHONLY|Rotation=0.000|XOffset=0mm|YOffset=0mm|HoleType=Round|Shape=RoundedRectangle|*
%AMROUNDEDRECTD31*
21,1,2.17,0.00,0,0,0.0*
21,1,1.61,0.57,0,0,0.0*
1,1,0.57,0.80,0.00*
1,1,0.57,-0.80,0.00*
1,1,0.57,-0.80,0.00*
1,1,0.57,0.80,0.00*
%
%ADD31ROUNDEDRECTD31*%
G04:AMPARAMS|DCode=32|XSize=0.86mm|YSize=0.27mm|CornerRadius=0.03mm|HoleSize=0mm|Usage=FLASHONLY|Rotation=270.000|XOffset=0mm|YOffset=0mm|HoleType=Round|Shape=RoundedRectangle|*
%AMROUNDEDRECTD32*
21,1,0.86,0.20,0,0,270.0*
21,1,0.79,0.27,0,0,270.0*
1,1,0.07,-0.10,-0.40*
1,1,0.07,-0.10,0.40*
1,1,0.07,0.10,0.40*
1,1,0.07,0.10,-0.40*
%
%ADD32ROUNDEDRECTD32*%
%ADD33R,0.95X0.85*%
%ADD34R,1.35X1.15*%
%ADD35O,1.50X0.27*%
G04:AMPARAMS|DCode=36|XSize=1.32mm|YSize=0.59mm|CornerRadius=0.07mm|HoleSize=0mm|Usage=FLASHONLY|Rotation=180.000|XOffset=0mm|YOffset=0mm|HoleType=Round|Shape=RoundedRectangle|*
%AMROUNDEDRECTD36*
21,1,1.32,0.44,0,0,180.0*
21,1,1.17,0.59,0,0,180.0*
1,1,0.15,-0.59,0.22*
1,1,0.15,0.59,0.22*
1,1,0.15,0.59,-0.22*
1,1,0.15,-0.59,-0.22*
%
%ADD36ROUNDEDRECTD36*%
%ADD37R,0.40X1.75*%
%ADD38R,0.81X0.36*%
%ADD39R,0.90X0.90*%
G04:AMPARAMS|DCode=40|XSize=0.86mm|YSize=0.27mm|CornerRadius=0.03mm|HoleSize=0mm|Usage=FLASHONLY|Rotation=180.000|XOffset=0mm|YOffset=0mm|HoleType=Round|Shape=RoundedRectangle|*
%AMROUNDEDRECTD40*
21,1,0.86,0.20,0,0,180.0*
21,1,0.79,0.27,0,0,180.0*
1,1,0.07,-0.40,0.10*
1,1,0.07,0.40,0.10*
1,1,0.07,0.40,-0.10*
1,1,0.07,-0.40,-0.10*
%
%ADD40ROUNDEDRECTD40*%
%ADD41R,0.90X0.90*%
%ADD42R,0.36X0.81*%
%ADD43R,1.70X3.55*%
%ADD44R,2.70X1.20*%
%ADD45R,2.35X5.10*%
%ADD46R,0.81X0.93*%
%ADD47R,1.70X1.10*%
%ADD48R,1.65X1.20*%
%ADD49R,1.45X2.05*%
G04:AMPARAMS|DCode=50|XSize=1.5mm|YSize=0.4mm|CornerRadius=0.1mm|HoleSize=0mm|Usage=FLASHONLY|Rotation=90.000|XOffset=0mm|YOffset=0mm|HoleType=Round|Shape=RoundedRectangle|*
%AMROUNDEDRECTD50*
21,1,1.50,0.20,0,0,90.0*
21,1,1.30,0.40,0,0,90.0*
1,1,0.20,0.10,0.65*
1,1,0.20,0.10,-0.65*
1,1,0.20,-0.10,-0.65*
1,1,0.20,-0.10,0.65*
%
%ADD50ROUNDEDRECTD50*%
G04:AMPARAMS|DCode=51|XSize=1.5mm|YSize=0.28mm|CornerRadius=0.07mm|HoleSize=0mm|Usage=FLASHONLY|Rotation=270.000|XOffset=0mm|YOffset=0mm|HoleType=Round|Shape=RoundedRectangle|*
%AMROUNDEDRECTD51*
21,1,1.50,0.14,0,0,270.0*
21,1,1.36,0.28,0,0,270.0*
1,1,0.14,-0.07,-0.68*
1,1,0.14,-0.07,0.68*
1,1,0.14,0.07,0.68*
1,1,0.14,0.07,-0.68*
%
%ADD51ROUNDEDRECTD51*%
%ADD52R,1.12X0.36*%
%ADD54R,1.43X2.50*%
%ADD55R,5.99X5.99*%
%ADD56R,2.17X0.57*%
G04:AMPARAMS|DCode=57|XSize=0.56mm|YSize=0.2mm|CornerRadius=0.05mm|HoleSize=0mm|Usage=FLASHONLY|Rotation=270.000|XOffset=0mm|YOffset=0mm|HoleType=Round|Shape=RoundedRectangle|*
%AMROUNDEDRECTD57*
21,1,0.56,0.10,0,0,270.0*
21,1,0.47,0.20,0,0,270.0*
1,1,0.10,-0.05,-0.23*
1,1,0.10,-0.05,0.23*
1,1,0.10,0.05,0.23*
1,1,0.10,0.05,-0.23*
%
%ADD57ROUNDEDRECTD57*%
%ADD73R,2.00X0.60*%
G04:AMPARAMS|DCode=91|XSize=0.56mm|YSize=0.4mm|CornerRadius=0.05mm|HoleSize=0mm|Usage=FLASHONLY|Rotation=270.000|XOffset=0mm|YOffset=0mm|HoleType=Round|Shape=RoundedRectangle|*
%AMROUNDEDRECTD91*
21,1,0.56,0.30,0,0,270.0*
21,1,0.47,0.40,0,0,270.0*
1,1,0.10,-0.15,-0.23*
1,1,0.10,-0.15,0.23*
1,1,0.10,0.15,0.23*
1,1,0.10,0.15,-0.23*
%
%ADD91ROUNDEDRECTD91*%
G04:AMPARAMS|DCode=93|XSize=0.56mm|YSize=0.4mm|CornerRadius=0.05mm|HoleSize=0mm|Usage=FLASHONLY|Rotation=0.000|XOffset=0mm|YOffset=0mm|HoleType=Round|Shape=RoundedRectangle|*
%AMROUNDEDRECTD93*
21,1,0.56,0.30,0,0,0.0*
21,1,0.47,0.40,0,0,0.0*
1,1,0.10,0.23,-0.15*
1,1,0.10,-0.23,-0.15*
1,1,0.10,-0.23,0.15*
1,1,0.10,0.23,0.15*
%
%ADD93ROUNDEDRECTD93*%
%ADD94R,3.20X2.30*%
%ADD133R,2.45X2.45*%
%ADD134C,0.25*%
%ADD135C,0.16*%
%ADD136C,0.14*%
%ADD137C,0.38*%
%ADD138C,0.76*%
%ADD139C,0.51*%
%ADD140C,0.16*%
%ADD141C,0.20*%
%ADD142C,1.27*%
%ADD143C,0.12*%
%ADD144C,1.70*%
%ADD145C,1.15*%
%ADD146C,1.65*%
%ADD147C,6.00*%
%ADD148C,1.73*%
%ADD149C,1.53*%
%ADD150C,1.45*%
%ADD151R,1.53X1.53*%
%ADD152R,1.45X1.45*%
%ADD153R,1.70X1.70*%
%ADD154C,1.50*%
%ADD155C,1.41*%
%ADD156R,1.41X1.41*%
%ADD157C,2.36*%
%ADD158C,2.57*%
%ADD159R,1.46X1.46*%
%ADD160O,4.75X2.00*%
%ADD161C,3.00*%
%ADD162C,2.54*%
%ADD163C,2.40*%
%ADD164R,2.54X2.54*%
%ADD165C,1.46*%
%ADD166C,1.20*%
%ADD167C,3.37*%
%ADD168O,2.00X4.50*%
%ADD169R,4.75X2.00*%
%ADD170R,1.50X1.50*%
%ADD171O,1.10X1.60*%
%ADD172O,1.20X2.40*%
G04:AMPARAMS|DCode=173|XSize=2.4mm|YSize=2.4mm|CornerRadius=0.6mm|HoleSize=0mm|Usage=FLASHONLY|Rotation=90.000|XOffset=0mm|YOffset=0mm|HoleType=Round|Shape=RoundedRectangle|*
%AMROUNDEDRECTD173*
21,1,2.40,1.20,0,0,90.0*
21,1,1.20,2.40,0,0,90.0*
1,1,1.20,0.60,0.60*
1,1,1.20,0.60,-0.60*
1,1,1.20,-0.60,-0.60*
1,1,1.20,-0.60,0.60*
%
%ADD173ROUNDEDRECTD173*%
%ADD174C,3.25*%
%ADD175C,2.70*%
%ADD176C,1.10*%
%ADD177C,1.60*%
%ADD178C,3.51*%
%ADD179C,1.63*%
%ADD180C,6.35*%
%ADD181C,0.56*%
G36*
X5372Y14160D02*
Y13848D01*
X5341Y13817D01*
X4775D01*
X4762Y13831D01*
Y14140D01*
X4796Y14173D01*
X5359D01*
X5372Y14160D01*
D02*
G37*
G36*
X5526Y14036D02*
Y14035D01*
X5526D01*
X5546Y14016D01*
X5745D01*
X5766Y13995D01*
Y13708D01*
X5753Y13696D01*
X5576D01*
Y13817D01*
X5537Y13856D01*
X5437D01*
X5407Y13886D01*
Y14033D01*
Y14051D01*
X5511D01*
X5526Y14036D01*
D02*
G37*
G36*
X6307Y13826D02*
X6246Y13765D01*
Y13552D01*
X6085D01*
X6058Y13525D01*
X5969D01*
X5893Y13602D01*
Y13792D01*
X6040Y13939D01*
X6307D01*
Y13826D01*
D02*
G37*
G36*
X7014Y13823D02*
X6952Y13762D01*
Y13550D01*
X6825D01*
X6798Y13523D01*
X6729D01*
X6629Y13622D01*
Y13792D01*
X6765Y13928D01*
X7014D01*
Y13823D01*
D02*
G37*
G36*
X3213Y13948D02*
Y13462D01*
X3175Y13424D01*
X2847D01*
X2825Y13446D01*
X2826Y13448D01*
Y13948D01*
Y13983D01*
X3178D01*
X3213Y13948D01*
D02*
G37*
G36*
X2654Y13970D02*
Y13424D01*
X2641Y13411D01*
X2425D01*
X2411Y13425D01*
Y13692D01*
X2311Y13792D01*
X2081D01*
Y13842D01*
X2085Y13853D01*
Y13870D01*
X2081Y13880D01*
Y13968D01*
X2126Y14013D01*
X2611D01*
X2654Y13970D01*
D02*
G37*
G36*
X6566Y13754D02*
Y13310D01*
X6540Y13284D01*
X6401D01*
X6388Y13297D01*
Y13411D01*
X6375Y13424D01*
X6299D01*
X6286Y13437D01*
Y13754D01*
X6299Y13767D01*
X6553D01*
X6566Y13754D01*
D02*
G37*
G36*
X7302Y13763D02*
Y13255D01*
X7281Y13233D01*
X7137D01*
X7123Y13248D01*
Y13362D01*
X7087Y13398D01*
X7021D01*
X6985Y13434D01*
Y13741D01*
X7032Y13789D01*
X7277Y13789D01*
X7302Y13763D01*
D02*
G37*
G36*
X7894Y13685D02*
X7848Y13640D01*
X7620D01*
X7557Y13577D01*
Y13121D01*
X7123D01*
Y13189D01*
X7296D01*
X7340Y13233D01*
Y13830D01*
X7353Y13843D01*
X7892D01*
X7894Y13845D01*
Y13685D01*
D02*
G37*
G36*
X1892Y14084D02*
Y13564D01*
X1950Y13506D01*
X2351D01*
X2362Y13495D01*
Y13322D01*
X2396Y13288D01*
X2480D01*
X2482Y13286D01*
X2498Y13279D01*
X2515D01*
X2531Y13286D01*
X2545Y13271D01*
Y13087D01*
X2432D01*
X2346Y13173D01*
X1533D01*
X1511Y13195D01*
Y14110D01*
X1536Y14135D01*
X1841D01*
X1892Y14084D01*
D02*
G37*
G36*
X3035Y13284D02*
X3061Y13258D01*
X3061Y13005D01*
X3023Y12967D01*
X2603D01*
X2578Y12992D01*
Y13284D01*
X3035Y13284D01*
D02*
G37*
G36*
X7899Y13371D02*
X7930Y13340D01*
Y13192D01*
X7957Y13165D01*
X8434D01*
X8621Y13352D01*
X9097D01*
X9134Y13316D01*
Y12962D01*
X9107Y12936D01*
X7622D01*
X7597Y12961D01*
Y13353D01*
X7615Y13371D01*
X7857D01*
X7899Y13371D01*
D02*
G37*
G36*
X2318Y13113D02*
Y12944D01*
X2297Y12922D01*
X1609D01*
X1537Y12994D01*
Y13099D01*
Y13113D01*
X2318D01*
X2318Y13113D01*
D02*
G37*
G36*
X5111Y12891D02*
X4910D01*
X4834Y12967D01*
X4677D01*
X4660Y12984D01*
Y13221D01*
X4686Y13246D01*
X5111D01*
Y12891D01*
D02*
G37*
G36*
X5760Y13652D02*
X5766D01*
X5778Y13640D01*
Y12734D01*
X5737Y12692D01*
X5519D01*
X5473Y12738D01*
Y13640D01*
X5486Y13652D01*
X5491D01*
Y13655D01*
X5760D01*
Y13652D01*
D02*
G37*
G36*
X4843Y12628D02*
X4831Y12615D01*
X4670D01*
X4653Y12632D01*
Y12818D01*
X4843D01*
Y12628D01*
D02*
G37*
G36*
X9724Y11853D02*
X9709Y11830D01*
X9697Y11801D01*
X9691Y11771D01*
Y11740D01*
X9697Y11709D01*
X9709Y11681D01*
X9726Y11655D01*
X9748Y11633D01*
X9774Y11616D01*
X9779Y11614D01*
Y11516D01*
X9774Y11514D01*
X9748Y11497D01*
X9726Y11475D01*
X9709Y11449D01*
X9697Y11420D01*
X9691Y11390D01*
Y11359D01*
X9697Y11328D01*
X9709Y11300D01*
X9726Y11274D01*
X9748Y11252D01*
X9774Y11235D01*
X9779Y11233D01*
Y11160D01*
X9763Y11153D01*
X9733Y11133D01*
X9708Y11108D01*
X9688Y11079D01*
X9675Y11046D01*
X9668Y11011D01*
Y10975D01*
X9675Y10941D01*
X9688Y10908D01*
X9708Y10878D01*
X9733Y10853D01*
X9763Y10833D01*
X9779Y10827D01*
Y10627D01*
X9673Y10521D01*
X9660Y10522D01*
X9653Y10532D01*
X9633Y10553D01*
X9608Y10569D01*
X9581Y10580D01*
X9553Y10586D01*
X9524D01*
X9495Y10580D01*
X9468Y10569D01*
X9444Y10553D01*
X9423Y10532D01*
X9407Y10508D01*
X9396Y10481D01*
X9390Y10452D01*
Y10438D01*
X8623D01*
X8598Y10465D01*
Y10630D01*
X8623Y10655D01*
X8884D01*
X8940Y10711D01*
Y10771D01*
X8953Y10779D01*
X8957Y10777D01*
X8975D01*
X8990Y10784D01*
X9003Y10796D01*
X9009Y10812D01*
Y10829D01*
X9003Y10845D01*
X8990Y10857D01*
X8975Y10864D01*
X8957D01*
X8953Y10862D01*
X8940Y10870D01*
Y10872D01*
X8852Y10960D01*
X8661D01*
X8560Y11062D01*
X8560Y11786D01*
X8687Y11913D01*
X9275Y11913D01*
X9276Y11910D01*
X9288Y11898D01*
X9304Y11891D01*
X9321D01*
X9337Y11898D01*
X9349Y11910D01*
X9350Y11913D01*
X9664D01*
X9724Y11853D01*
D02*
G37*
G36*
X1816Y10681D02*
X2629Y9868D01*
X2629Y7315D01*
X1651Y6337D01*
Y3340D01*
Y2705D01*
X889Y1943D01*
Y864D01*
X851Y825D01*
X165D01*
X51Y940D01*
Y1045D01*
X63Y1047D01*
X70Y1022D01*
X85Y996D01*
X107Y974D01*
X133Y959D01*
X162Y951D01*
X193D01*
X222Y959D01*
X249Y974D01*
X270Y996D01*
X285Y1022D01*
X293Y1052D01*
Y1082D01*
X285Y1111D01*
X270Y1138D01*
X249Y1159D01*
X222Y1174D01*
X193Y1182D01*
X162D01*
X133Y1174D01*
X107Y1159D01*
X85Y1138D01*
X70Y1111D01*
X63Y1087D01*
X51Y1089D01*
Y1299D01*
X63Y1301D01*
X70Y1276D01*
X85Y1250D01*
X107Y1228D01*
X133Y1213D01*
X162Y1205D01*
X193D01*
X222Y1213D01*
X249Y1228D01*
X270Y1250D01*
X285Y1276D01*
X293Y1306D01*
Y1336D01*
X285Y1365D01*
X270Y1392D01*
X249Y1413D01*
X222Y1428D01*
X193Y1436D01*
X162D01*
X133Y1428D01*
X107Y1413D01*
X85Y1392D01*
X70Y1365D01*
X63Y1341D01*
X51Y1343D01*
Y1553D01*
X63Y1555D01*
X70Y1530D01*
X85Y1504D01*
X107Y1482D01*
X133Y1467D01*
X162Y1459D01*
X193D01*
X222Y1467D01*
X249Y1482D01*
X270Y1504D01*
X285Y1530D01*
X293Y1560D01*
Y1590D01*
X285Y1619D01*
X270Y1646D01*
X249Y1667D01*
X222Y1682D01*
X193Y1690D01*
X162D01*
X133Y1682D01*
X107Y1667D01*
X85Y1646D01*
X70Y1619D01*
X63Y1595D01*
X51Y1597D01*
Y1710D01*
X62Y1713D01*
X63Y1713D01*
X293D01*
Y1944D01*
X63D01*
X62Y1944D01*
X51Y1947D01*
Y3280D01*
X63Y3286D01*
X66Y3284D01*
X74Y3282D01*
X284D01*
X292Y3284D01*
X298Y3289D01*
X303Y3295D01*
X304Y3303D01*
Y3493D01*
X303Y3501D01*
X298Y3508D01*
X292Y3512D01*
X284Y3514D01*
X74D01*
X66Y3512D01*
X63Y3511D01*
X51Y3517D01*
Y7227D01*
X63Y7236D01*
X67Y7234D01*
X85D01*
X100Y7240D01*
X113Y7253D01*
X119Y7268D01*
Y7286D01*
X113Y7302D01*
X100Y7314D01*
X85Y7320D01*
X67D01*
X63Y7319D01*
X51Y7327D01*
Y7355D01*
X63Y7357D01*
X65Y7354D01*
X77Y7342D01*
X93Y7335D01*
X110D01*
X126Y7342D01*
X138Y7354D01*
X145Y7370D01*
Y7387D01*
X138Y7403D01*
X126Y7415D01*
X110Y7422D01*
X93D01*
X77Y7415D01*
X65Y7403D01*
X63Y7400D01*
X51Y7402D01*
Y8015D01*
X63Y8018D01*
X65Y8015D01*
X77Y8002D01*
X93Y7996D01*
X110D01*
X126Y8002D01*
X138Y8015D01*
X145Y8030D01*
Y8048D01*
X138Y8064D01*
X126Y8076D01*
X110Y8082D01*
X93D01*
X77Y8076D01*
X65Y8064D01*
X63Y8060D01*
X51Y8063D01*
Y8130D01*
X63Y8132D01*
X65Y8129D01*
X77Y8117D01*
X93Y8110D01*
X110D01*
X126Y8117D01*
X138Y8129D01*
X145Y8145D01*
Y8162D01*
X138Y8178D01*
X126Y8190D01*
X110Y8197D01*
X93D01*
X77Y8190D01*
X65Y8178D01*
X63Y8175D01*
X51Y8177D01*
Y10019D01*
X63Y10022D01*
X68Y10010D01*
X80Y9998D01*
X96Y9991D01*
X114D01*
X129Y9998D01*
X142Y10010D01*
X148Y10026D01*
Y10043D01*
X142Y10059D01*
X129Y10071D01*
X114Y10078D01*
X96D01*
X80Y10071D01*
X68Y10059D01*
X63Y10047D01*
X51Y10050D01*
Y10120D01*
X63Y10123D01*
X68Y10111D01*
X80Y10099D01*
X96Y10092D01*
X114D01*
X129Y10099D01*
X142Y10111D01*
X148Y10127D01*
Y10144D01*
X142Y10160D01*
X129Y10172D01*
X114Y10179D01*
X96D01*
X80Y10172D01*
X68Y10160D01*
X63Y10148D01*
X51Y10151D01*
Y10228D01*
X63Y10231D01*
X68Y10219D01*
X80Y10207D01*
X96Y10200D01*
X114D01*
X129Y10207D01*
X142Y10219D01*
X148Y10235D01*
Y10252D01*
X142Y10268D01*
X129Y10280D01*
X114Y10287D01*
X96D01*
X80Y10280D01*
X68Y10268D01*
X63Y10256D01*
X51Y10259D01*
Y10582D01*
X150Y10681D01*
X1816Y10681D01*
D02*
G37*
G36*
X2192Y6312D02*
X2217Y6286D01*
Y6229D01*
X2217D01*
Y6139D01*
X1997D01*
Y6229D01*
X1997D01*
Y6289D01*
X2020Y6312D01*
X2192Y6312D01*
D02*
G37*
G36*
X3708Y2091D02*
Y1731D01*
X3695Y1722D01*
X3667Y1695D01*
X3646Y1662D01*
X3631Y1626D01*
X3623Y1588D01*
Y1548D01*
X3631Y1510D01*
X3646Y1474D01*
X3667Y1441D01*
X3695Y1414D01*
X3708Y1405D01*
Y1397D01*
X3810Y1295D01*
Y992D01*
X3799Y988D01*
X3787Y975D01*
X3780Y960D01*
Y942D01*
X3787Y926D01*
X3792Y921D01*
X3798Y913D01*
X3792Y905D01*
X3787Y899D01*
X3780Y883D01*
Y866D01*
X3787Y850D01*
X3794Y843D01*
X3795Y827D01*
X3634Y666D01*
X3582Y665D01*
X3581Y665D01*
X3252D01*
X3213Y704D01*
Y762D01*
X3156Y819D01*
X3125D01*
X3118Y830D01*
X3107Y837D01*
X3093Y840D01*
X2970D01*
X2957Y837D01*
X2946Y830D01*
X2942Y829D01*
X2932Y840D01*
Y869D01*
X2944Y881D01*
X2946Y881D01*
X2957Y873D01*
X2970Y871D01*
X3093D01*
X3107Y873D01*
X3108Y874D01*
X3126D01*
X3137Y877D01*
X3148Y883D01*
X3156Y892D01*
X3428D01*
X3441Y905D01*
Y1168D01*
X3276Y1333D01*
Y2029D01*
X3389Y2142D01*
X3657D01*
X3708Y2091D01*
D02*
G37*
G36*
X1863Y592D02*
Y59D01*
X1854Y51D01*
X1067D01*
Y559D01*
X1117Y610D01*
X1270D01*
X1293Y586D01*
X1300Y576D01*
Y361D01*
X1303D01*
Y348D01*
X1321Y330D01*
X1565D01*
X1580Y345D01*
Y589D01*
X1613Y622D01*
X1832D01*
X1863Y592D01*
D02*
G37*
%LPC*%
G36*
X8717Y11760D02*
X8700D01*
X8684Y11754D01*
X8672Y11742D01*
X8665Y11726D01*
Y11709D01*
X8672Y11693D01*
X8684Y11681D01*
X8700Y11674D01*
X8717D01*
X8733Y11681D01*
X8745Y11693D01*
X8752Y11709D01*
Y11726D01*
X8745Y11742D01*
X8733Y11754D01*
X8717Y11760D01*
D02*
G37*
G36*
Y11562D02*
X8700D01*
X8684Y11556D01*
X8672Y11544D01*
X8665Y11528D01*
Y11511D01*
X8672Y11495D01*
X8684Y11483D01*
X8700Y11476D01*
X8717D01*
X8733Y11483D01*
X8745Y11495D01*
X8752Y11511D01*
Y11528D01*
X8745Y11544D01*
X8733Y11556D01*
X8717Y11562D01*
D02*
G37*
G36*
X8918Y10580D02*
X8901D01*
X8885Y10573D01*
X8873Y10561D01*
X8866Y10545D01*
Y10528D01*
X8873Y10512D01*
X8885Y10500D01*
X8901Y10493D01*
X8918D01*
X8934Y10500D01*
X8946Y10512D01*
X8953Y10528D01*
Y10545D01*
X8946Y10561D01*
X8934Y10573D01*
X8918Y10580D01*
D02*
G37*
G36*
X648Y10598D02*
X631D01*
X615Y10592D01*
X603Y10580D01*
X596Y10564D01*
Y10547D01*
X603Y10531D01*
X615Y10519D01*
X631Y10512D01*
X648D01*
X664Y10519D01*
X676Y10531D01*
X682Y10547D01*
Y10564D01*
X676Y10580D01*
X664Y10592D01*
X648Y10598D01*
D02*
G37*
G36*
X546D02*
X529D01*
X513Y10592D01*
X501Y10580D01*
X494Y10564D01*
Y10547D01*
X501Y10531D01*
X513Y10519D01*
X529Y10512D01*
X546D01*
X562Y10519D01*
X574Y10531D01*
X581Y10547D01*
Y10564D01*
X574Y10580D01*
X562Y10592D01*
X546Y10598D01*
D02*
G37*
G36*
X445Y10598D02*
X427D01*
X412Y10591D01*
X399Y10579D01*
X393Y10563D01*
Y10546D01*
X399Y10530D01*
X412Y10518D01*
X427Y10511D01*
X445D01*
X460Y10518D01*
X473Y10530D01*
X479Y10546D01*
Y10563D01*
X473Y10579D01*
X460Y10591D01*
X445Y10598D01*
D02*
G37*
G36*
X1425Y10506D02*
X1408D01*
X1392Y10499D01*
X1380Y10487D01*
X1373Y10471D01*
Y10454D01*
X1380Y10438D01*
X1392Y10426D01*
X1408Y10419D01*
X1425D01*
X1441Y10426D01*
X1453Y10438D01*
X1460Y10454D01*
Y10471D01*
X1453Y10487D01*
X1441Y10499D01*
X1425Y10506D01*
D02*
G37*
G36*
X317Y10287D02*
X300D01*
X284Y10281D01*
X272Y10269D01*
X265Y10253D01*
Y10236D01*
X272Y10220D01*
X284Y10208D01*
X300Y10201D01*
X317D01*
X333Y10208D01*
X345Y10220D01*
X351Y10236D01*
Y10253D01*
X345Y10269D01*
X333Y10281D01*
X317Y10287D01*
D02*
G37*
G36*
X215Y10287D02*
X198D01*
X182Y10280D01*
X170Y10268D01*
X164Y10252D01*
Y10235D01*
X170Y10219D01*
X182Y10207D01*
X198Y10200D01*
X215D01*
X231Y10207D01*
X243Y10219D01*
X250Y10235D01*
Y10252D01*
X243Y10268D01*
X231Y10280D01*
X215Y10287D01*
D02*
G37*
G36*
X1342Y10284D02*
X1325D01*
X1309Y10278D01*
X1297Y10266D01*
X1290Y10250D01*
Y10233D01*
X1297Y10217D01*
X1309Y10205D01*
X1325Y10198D01*
X1342D01*
X1358Y10205D01*
X1370Y10217D01*
X1376Y10233D01*
Y10250D01*
X1370Y10266D01*
X1358Y10278D01*
X1342Y10284D01*
D02*
G37*
G36*
X1165D02*
X1148D01*
X1132Y10278D01*
X1120Y10266D01*
X1113Y10250D01*
Y10233D01*
X1120Y10217D01*
X1132Y10205D01*
X1148Y10198D01*
X1165D01*
X1181Y10205D01*
X1193Y10217D01*
X1199Y10233D01*
Y10250D01*
X1193Y10266D01*
X1181Y10278D01*
X1165Y10284D01*
D02*
G37*
G36*
X2053Y10275D02*
X2036D01*
X2020Y10268D01*
X2008Y10256D01*
X2001Y10240D01*
Y10223D01*
X2008Y10207D01*
X2020Y10195D01*
X2036Y10189D01*
X2053D01*
X2069Y10195D01*
X2081Y10207D01*
X2087Y10223D01*
Y10240D01*
X2081Y10256D01*
X2069Y10268D01*
X2053Y10275D01*
D02*
G37*
G36*
X317Y10179D02*
X300D01*
X284Y10173D01*
X272Y10161D01*
X265Y10145D01*
Y10127D01*
X272Y10112D01*
X284Y10099D01*
X300Y10093D01*
X317D01*
X333Y10099D01*
X345Y10112D01*
X351Y10127D01*
Y10145D01*
X345Y10161D01*
X333Y10173D01*
X317Y10179D01*
D02*
G37*
G36*
X215D02*
X198D01*
X182Y10173D01*
X170Y10161D01*
X163Y10145D01*
Y10127D01*
X170Y10112D01*
X182Y10099D01*
X198Y10093D01*
X215D01*
X231Y10099D01*
X243Y10112D01*
X250Y10127D01*
Y10145D01*
X243Y10161D01*
X231Y10173D01*
X215Y10179D01*
D02*
G37*
G36*
X1257Y10172D02*
X1240D01*
X1224Y10165D01*
X1212Y10153D01*
X1206Y10137D01*
Y10120D01*
X1212Y10104D01*
X1224Y10092D01*
X1240Y10086D01*
X1257D01*
X1273Y10092D01*
X1285Y10104D01*
X1292Y10120D01*
Y10137D01*
X1285Y10153D01*
X1273Y10165D01*
X1257Y10172D01*
D02*
G37*
G36*
X1683Y10107D02*
X1666D01*
X1650Y10100D01*
X1638Y10088D01*
X1631Y10072D01*
Y10055D01*
X1638Y10039D01*
X1650Y10027D01*
X1666Y10021D01*
X1683D01*
X1699Y10027D01*
X1711Y10039D01*
X1717Y10055D01*
Y10072D01*
X1711Y10088D01*
X1699Y10100D01*
X1683Y10107D01*
D02*
G37*
G36*
X317Y10078D02*
X300D01*
X284Y10072D01*
X272Y10060D01*
X265Y10044D01*
Y10027D01*
X272Y10011D01*
X284Y9999D01*
X300Y9992D01*
X317D01*
X333Y9999D01*
X345Y10011D01*
X351Y10027D01*
Y10044D01*
X345Y10060D01*
X333Y10072D01*
X317Y10078D01*
D02*
G37*
G36*
X215Y10078D02*
X198D01*
X182Y10071D01*
X170Y10059D01*
X163Y10043D01*
Y10026D01*
X170Y10010D01*
X182Y9998D01*
X198Y9991D01*
X215D01*
X231Y9998D01*
X243Y10010D01*
X250Y10026D01*
Y10043D01*
X243Y10059D01*
X231Y10071D01*
X215Y10078D01*
D02*
G37*
G36*
X1342Y10051D02*
X1325D01*
X1309Y10044D01*
X1297Y10032D01*
X1290Y10016D01*
Y9999D01*
X1297Y9983D01*
X1309Y9971D01*
X1325Y9964D01*
X1342D01*
X1358Y9971D01*
X1370Y9983D01*
X1376Y9999D01*
Y10016D01*
X1370Y10032D01*
X1358Y10044D01*
X1342Y10051D01*
D02*
G37*
G36*
X1164D02*
X1146D01*
X1131Y10044D01*
X1118Y10032D01*
X1112Y10016D01*
Y9999D01*
X1118Y9983D01*
X1131Y9971D01*
X1146Y9964D01*
X1164D01*
X1180Y9971D01*
X1192Y9983D01*
X1198Y9999D01*
Y10016D01*
X1192Y10032D01*
X1180Y10044D01*
X1164Y10051D01*
D02*
G37*
G36*
X1829Y10003D02*
X1812D01*
X1796Y9996D01*
X1784Y9984D01*
X1777Y9968D01*
Y9951D01*
X1784Y9935D01*
X1796Y9923D01*
X1812Y9917D01*
X1829D01*
X1845Y9923D01*
X1857Y9935D01*
X1864Y9951D01*
Y9968D01*
X1857Y9984D01*
X1845Y9996D01*
X1829Y10003D01*
D02*
G37*
G36*
X648Y9760D02*
X631D01*
X615Y9754D01*
X603Y9741D01*
X596Y9726D01*
Y9708D01*
X603Y9693D01*
X615Y9680D01*
X631Y9674D01*
X648D01*
X664Y9680D01*
X676Y9693D01*
X682Y9708D01*
Y9726D01*
X676Y9741D01*
X664Y9754D01*
X648Y9760D01*
D02*
G37*
G36*
X546D02*
X529D01*
X513Y9754D01*
X501Y9741D01*
X494Y9726D01*
Y9708D01*
X501Y9693D01*
X513Y9680D01*
X529Y9674D01*
X546D01*
X562Y9680D01*
X574Y9693D01*
X581Y9708D01*
Y9726D01*
X574Y9741D01*
X562Y9754D01*
X546Y9760D01*
D02*
G37*
G36*
X445Y9759D02*
X427D01*
X412Y9753D01*
X399Y9741D01*
X393Y9725D01*
Y9708D01*
X399Y9692D01*
X412Y9680D01*
X427Y9673D01*
X445D01*
X460Y9680D01*
X473Y9692D01*
X479Y9708D01*
Y9725D01*
X473Y9741D01*
X460Y9753D01*
X445Y9759D01*
D02*
G37*
G36*
X2247Y9722D02*
X2230D01*
X2214Y9715D01*
X2202Y9703D01*
X2195Y9687D01*
Y9670D01*
X2202Y9654D01*
X2214Y9642D01*
X2230Y9636D01*
X2247D01*
X2263Y9642D01*
X2275Y9654D01*
X2282Y9670D01*
Y9687D01*
X2275Y9703D01*
X2263Y9715D01*
X2247Y9722D01*
D02*
G37*
G36*
X2120D02*
X2103D01*
X2087Y9715D01*
X2075Y9703D01*
X2068Y9687D01*
Y9670D01*
X2075Y9654D01*
X2087Y9642D01*
X2103Y9636D01*
X2120D01*
X2136Y9642D01*
X2148Y9654D01*
X2155Y9670D01*
Y9687D01*
X2148Y9703D01*
X2136Y9715D01*
X2120Y9722D01*
D02*
G37*
G36*
X526Y9506D02*
X485D01*
X446Y9498D01*
X408Y9483D01*
X375Y9460D01*
X346Y9432D01*
X324Y9398D01*
X308Y9360D01*
X300Y9321D01*
Y9280D01*
X308Y9241D01*
X324Y9203D01*
X346Y9170D01*
X375Y9141D01*
X408Y9118D01*
X446Y9103D01*
X485Y9095D01*
X526D01*
X566Y9103D01*
X603Y9118D01*
X637Y9141D01*
X665Y9170D01*
X688Y9203D01*
X703Y9241D01*
X711Y9280D01*
Y9321D01*
X703Y9360D01*
X688Y9398D01*
X665Y9432D01*
X637Y9460D01*
X603Y9483D01*
X566Y9498D01*
X526Y9506D01*
D02*
G37*
G36*
X1062Y8967D02*
X1045D01*
X1029Y8961D01*
X1017Y8948D01*
X1011Y8933D01*
Y8915D01*
X1017Y8900D01*
X1029Y8887D01*
X1045Y8881D01*
X1062D01*
X1078Y8887D01*
X1090Y8900D01*
X1097Y8915D01*
Y8933D01*
X1090Y8948D01*
X1078Y8961D01*
X1062Y8967D01*
D02*
G37*
G36*
X2343Y8960D02*
X2325D01*
X2310Y8953D01*
X2297Y8941D01*
X2291Y8925D01*
Y8908D01*
X2297Y8892D01*
X2310Y8880D01*
X2325Y8874D01*
X2343D01*
X2358Y8880D01*
X2371Y8892D01*
X2377Y8908D01*
Y8925D01*
X2371Y8941D01*
X2358Y8953D01*
X2343Y8960D01*
D02*
G37*
G36*
X2228D02*
X2210D01*
X2195Y8953D01*
X2182Y8941D01*
X2176Y8925D01*
Y8908D01*
X2182Y8892D01*
X2195Y8880D01*
X2210Y8874D01*
X2228D01*
X2243Y8880D01*
X2256Y8892D01*
X2262Y8908D01*
Y8925D01*
X2256Y8941D01*
X2243Y8953D01*
X2228Y8960D01*
D02*
G37*
G36*
X2107D02*
X2090D01*
X2074Y8953D01*
X2062Y8941D01*
X2056Y8925D01*
Y8908D01*
X2062Y8892D01*
X2074Y8880D01*
X2090Y8874D01*
X2107D01*
X2123Y8880D01*
X2135Y8892D01*
X2142Y8908D01*
Y8925D01*
X2135Y8941D01*
X2123Y8953D01*
X2107Y8960D01*
D02*
G37*
G36*
X475Y8946D02*
X458D01*
X442Y8939D01*
X430Y8927D01*
X424Y8911D01*
Y8894D01*
X430Y8878D01*
X442Y8866D01*
X458Y8859D01*
X475D01*
X491Y8866D01*
X503Y8878D01*
X510Y8894D01*
Y8911D01*
X503Y8927D01*
X491Y8939D01*
X475Y8946D01*
D02*
G37*
G36*
X1062Y8857D02*
X1045D01*
X1029Y8850D01*
X1017Y8838D01*
X1011Y8822D01*
Y8805D01*
X1017Y8789D01*
X1029Y8777D01*
X1045Y8771D01*
X1062D01*
X1078Y8777D01*
X1090Y8789D01*
X1097Y8805D01*
Y8822D01*
X1090Y8838D01*
X1078Y8850D01*
X1062Y8857D01*
D02*
G37*
G36*
X585Y8730D02*
X568D01*
X552Y8723D01*
X540Y8711D01*
X534Y8695D01*
Y8678D01*
X540Y8662D01*
X552Y8650D01*
X568Y8644D01*
X585D01*
X601Y8650D01*
X613Y8662D01*
X620Y8678D01*
Y8695D01*
X613Y8711D01*
X601Y8723D01*
X585Y8730D01*
D02*
G37*
G36*
X225Y8692D02*
X208D01*
X192Y8685D01*
X180Y8673D01*
X174Y8657D01*
Y8640D01*
X180Y8624D01*
X192Y8612D01*
X208Y8605D01*
X225D01*
X241Y8612D01*
X253Y8624D01*
X260Y8640D01*
Y8657D01*
X253Y8673D01*
X241Y8685D01*
X225Y8692D01*
D02*
G37*
G36*
X1583Y8603D02*
X1566D01*
X1550Y8596D01*
X1538Y8584D01*
X1531Y8568D01*
Y8551D01*
X1538Y8535D01*
X1550Y8523D01*
X1566Y8517D01*
X1583D01*
X1599Y8523D01*
X1611Y8535D01*
X1618Y8551D01*
Y8568D01*
X1611Y8584D01*
X1599Y8596D01*
X1583Y8603D01*
D02*
G37*
G36*
X907Y8616D02*
X667D01*
X659Y8615D01*
X652Y8610D01*
X648Y8603D01*
X646Y8596D01*
Y8525D01*
X648Y8517D01*
X652Y8510D01*
X659Y8506D01*
X667Y8504D01*
X907D01*
X915Y8506D01*
X922Y8510D01*
X926Y8517D01*
X928Y8525D01*
Y8596D01*
X926Y8603D01*
X922Y8610D01*
X915Y8615D01*
X907Y8616D01*
D02*
G37*
G36*
X2568Y8554D02*
X2550D01*
X2534Y8547D01*
X2522Y8535D01*
X2516Y8519D01*
Y8502D01*
X2522Y8486D01*
X2534Y8474D01*
X2550Y8468D01*
X2568D01*
X2583Y8474D01*
X2596Y8486D01*
X2602Y8502D01*
Y8519D01*
X2596Y8535D01*
X2583Y8547D01*
X2568Y8554D01*
D02*
G37*
G36*
X2466D02*
X2449D01*
X2433Y8547D01*
X2421Y8535D01*
X2414Y8519D01*
Y8502D01*
X2421Y8486D01*
X2433Y8474D01*
X2449Y8468D01*
X2466D01*
X2482Y8474D01*
X2494Y8486D01*
X2501Y8502D01*
Y8519D01*
X2494Y8535D01*
X2482Y8547D01*
X2466Y8554D01*
D02*
G37*
G36*
X2364Y8553D02*
X2347D01*
X2331Y8547D01*
X2319Y8534D01*
X2313Y8519D01*
Y8501D01*
X2319Y8486D01*
X2331Y8473D01*
X2347Y8467D01*
X2364D01*
X2380Y8473D01*
X2392Y8486D01*
X2399Y8501D01*
Y8519D01*
X2392Y8534D01*
X2380Y8547D01*
X2364Y8553D01*
D02*
G37*
G36*
X1452Y8457D02*
X1237D01*
X1229Y8455D01*
X1222Y8450D01*
X1218Y8444D01*
X1216Y8436D01*
Y8380D01*
X1218Y8372D01*
X1222Y8366D01*
X1229Y8361D01*
X1237Y8360D01*
X1452D01*
X1460Y8361D01*
X1467Y8366D01*
X1471Y8372D01*
X1473Y8380D01*
Y8436D01*
X1471Y8444D01*
X1467Y8450D01*
X1460Y8455D01*
X1452Y8457D01*
D02*
G37*
G36*
X1473Y8255D02*
X1417D01*
X1409Y8254D01*
X1402Y8249D01*
X1398Y8242D01*
X1396Y8234D01*
Y8179D01*
X1398Y8171D01*
X1402Y8164D01*
X1409Y8160D01*
X1417Y8158D01*
X1473D01*
X1481Y8160D01*
X1488Y8164D01*
X1492Y8171D01*
X1494Y8179D01*
Y8234D01*
X1492Y8242D01*
X1488Y8249D01*
X1481Y8254D01*
X1473Y8255D01*
D02*
G37*
G36*
X2236Y8243D02*
X2219D01*
X2203Y8236D01*
X2191Y8224D01*
X2185Y8208D01*
Y8191D01*
X2191Y8175D01*
X2203Y8163D01*
X2219Y8157D01*
X2236D01*
X2252Y8163D01*
X2264Y8175D01*
X2271Y8191D01*
Y8208D01*
X2264Y8224D01*
X2252Y8236D01*
X2236Y8243D01*
D02*
G37*
G36*
X2135D02*
X2118D01*
X2102Y8236D01*
X2090Y8224D01*
X2083Y8208D01*
Y8191D01*
X2090Y8175D01*
X2102Y8163D01*
X2118Y8157D01*
X2135D01*
X2151Y8163D01*
X2163Y8175D01*
X2169Y8191D01*
Y8208D01*
X2163Y8224D01*
X2151Y8236D01*
X2135Y8243D01*
D02*
G37*
G36*
X2033Y8242D02*
X2016D01*
X2000Y8236D01*
X1988Y8224D01*
X1981Y8208D01*
Y8190D01*
X1988Y8175D01*
X2000Y8162D01*
X2016Y8156D01*
X2033D01*
X2049Y8162D01*
X2061Y8175D01*
X2068Y8190D01*
Y8208D01*
X2061Y8224D01*
X2049Y8236D01*
X2033Y8242D01*
D02*
G37*
G36*
X2236Y8135D02*
X2219D01*
X2203Y8128D01*
X2191Y8116D01*
X2185Y8100D01*
Y8083D01*
X2191Y8067D01*
X2203Y8055D01*
X2219Y8049D01*
X2236D01*
X2252Y8055D01*
X2264Y8067D01*
X2271Y8083D01*
Y8100D01*
X2264Y8116D01*
X2252Y8128D01*
X2236Y8135D01*
D02*
G37*
G36*
X2135D02*
X2118D01*
X2102Y8128D01*
X2090Y8116D01*
X2083Y8100D01*
Y8083D01*
X2090Y8067D01*
X2102Y8055D01*
X2118Y8049D01*
X2135D01*
X2151Y8055D01*
X2163Y8067D01*
X2169Y8083D01*
Y8100D01*
X2163Y8116D01*
X2151Y8128D01*
X2135Y8135D01*
D02*
G37*
G36*
X2033Y8134D02*
X2016D01*
X2000Y8128D01*
X1988Y8115D01*
X1981Y8100D01*
Y8082D01*
X1988Y8066D01*
X2000Y8054D01*
X2016Y8048D01*
X2033D01*
X2049Y8054D01*
X2061Y8066D01*
X2068Y8082D01*
Y8100D01*
X2061Y8115D01*
X2049Y8128D01*
X2033Y8134D01*
D02*
G37*
G36*
X2236Y8034D02*
X2219D01*
X2203Y8027D01*
X2191Y8015D01*
X2185Y7999D01*
Y7982D01*
X2191Y7966D01*
X2203Y7954D01*
X2219Y7948D01*
X2236D01*
X2252Y7954D01*
X2264Y7966D01*
X2271Y7982D01*
Y7999D01*
X2264Y8015D01*
X2252Y8027D01*
X2236Y8034D01*
D02*
G37*
G36*
X2135D02*
X2118D01*
X2102Y8027D01*
X2090Y8015D01*
X2083Y7999D01*
Y7982D01*
X2090Y7966D01*
X2102Y7954D01*
X2118Y7948D01*
X2135D01*
X2151Y7954D01*
X2163Y7966D01*
X2169Y7982D01*
Y7999D01*
X2163Y8015D01*
X2151Y8027D01*
X2135Y8034D01*
D02*
G37*
G36*
X2033Y8033D02*
X2016D01*
X2000Y8027D01*
X1988Y8015D01*
X1981Y7999D01*
Y7981D01*
X1988Y7966D01*
X2000Y7953D01*
X2016Y7947D01*
X2033D01*
X2049Y7953D01*
X2061Y7966D01*
X2068Y7981D01*
Y7999D01*
X2061Y8015D01*
X2049Y8027D01*
X2033Y8033D01*
D02*
G37*
G36*
X351Y7968D02*
X334D01*
X318Y7961D01*
X306Y7949D01*
X299Y7933D01*
Y7916D01*
X306Y7900D01*
X318Y7888D01*
X334Y7882D01*
X351D01*
X367Y7888D01*
X379Y7900D01*
X386Y7916D01*
Y7933D01*
X379Y7949D01*
X367Y7961D01*
X351Y7968D01*
D02*
G37*
G36*
X339Y7866D02*
X321D01*
X306Y7860D01*
X293Y7848D01*
X287Y7832D01*
Y7815D01*
X293Y7799D01*
X306Y7787D01*
X321Y7780D01*
X339D01*
X354Y7787D01*
X367Y7799D01*
X373Y7815D01*
Y7832D01*
X367Y7848D01*
X354Y7860D01*
X339Y7866D01*
D02*
G37*
G36*
X1736Y7854D02*
X1718D01*
X1703Y7847D01*
X1690Y7835D01*
X1684Y7819D01*
Y7802D01*
X1690Y7786D01*
X1703Y7774D01*
X1718Y7767D01*
X1736D01*
X1751Y7774D01*
X1764Y7786D01*
X1770Y7802D01*
Y7819D01*
X1764Y7835D01*
X1751Y7847D01*
X1736Y7854D01*
D02*
G37*
G36*
X339Y7752D02*
X321D01*
X306Y7745D01*
X293Y7733D01*
X287Y7717D01*
Y7700D01*
X293Y7684D01*
X306Y7672D01*
X321Y7666D01*
X339D01*
X354Y7672D01*
X367Y7684D01*
X373Y7700D01*
Y7717D01*
X367Y7733D01*
X354Y7745D01*
X339Y7752D01*
D02*
G37*
G36*
X2568Y7716D02*
X2550D01*
X2534Y7709D01*
X2522Y7697D01*
X2516Y7681D01*
Y7664D01*
X2522Y7648D01*
X2534Y7636D01*
X2550Y7629D01*
X2568D01*
X2583Y7636D01*
X2596Y7648D01*
X2602Y7664D01*
Y7681D01*
X2596Y7697D01*
X2583Y7709D01*
X2568Y7716D01*
D02*
G37*
G36*
X2466D02*
X2449D01*
X2433Y7709D01*
X2421Y7697D01*
X2414Y7681D01*
Y7664D01*
X2421Y7648D01*
X2433Y7636D01*
X2449Y7629D01*
X2466D01*
X2482Y7636D01*
X2494Y7648D01*
X2501Y7664D01*
Y7681D01*
X2494Y7697D01*
X2482Y7709D01*
X2466Y7716D01*
D02*
G37*
G36*
X2364Y7715D02*
X2347D01*
X2331Y7708D01*
X2319Y7696D01*
X2313Y7680D01*
Y7663D01*
X2319Y7647D01*
X2331Y7635D01*
X2347Y7629D01*
X2364D01*
X2380Y7635D01*
X2392Y7647D01*
X2399Y7663D01*
Y7680D01*
X2392Y7696D01*
X2380Y7708D01*
X2364Y7715D01*
D02*
G37*
G36*
X121Y7638D02*
X104D01*
X88Y7631D01*
X76Y7619D01*
X69Y7603D01*
Y7586D01*
X76Y7570D01*
X88Y7558D01*
X97Y7554D01*
X99Y7550D01*
X100Y7540D01*
X90Y7530D01*
X84Y7514D01*
Y7497D01*
X90Y7481D01*
X102Y7469D01*
X118Y7462D01*
X135D01*
X151Y7469D01*
X163Y7481D01*
X170Y7497D01*
Y7514D01*
X163Y7530D01*
X151Y7542D01*
X142Y7546D01*
X140Y7550D01*
X139Y7561D01*
X149Y7570D01*
X156Y7586D01*
Y7603D01*
X149Y7619D01*
X137Y7631D01*
X121Y7638D01*
D02*
G37*
G36*
X1596Y7308D02*
X1579D01*
X1563Y7301D01*
X1551Y7289D01*
X1544Y7273D01*
Y7256D01*
X1551Y7240D01*
X1563Y7228D01*
X1579Y7221D01*
X1596D01*
X1612Y7228D01*
X1624Y7240D01*
X1630Y7256D01*
Y7273D01*
X1624Y7289D01*
X1612Y7301D01*
X1596Y7308D01*
D02*
G37*
G36*
X1167Y8315D02*
X907D01*
X899Y8313D01*
X892Y8309D01*
X888Y8302D01*
X886Y8294D01*
Y8250D01*
X432D01*
X424Y8248D01*
X417Y8244D01*
X412Y8237D01*
X411Y8229D01*
Y7229D01*
X412Y7221D01*
X417Y7215D01*
X424Y7210D01*
X432Y7208D01*
X1143D01*
X1151Y7210D01*
X1157Y7215D01*
X1162Y7221D01*
X1163Y7229D01*
Y7307D01*
X1409D01*
X1417Y7309D01*
X1424Y7313D01*
X1429Y7320D01*
X1430Y7328D01*
Y7955D01*
X1510D01*
X1518Y7956D01*
X1524Y7961D01*
X1529Y7968D01*
X1530Y7976D01*
Y8085D01*
X1529Y8093D01*
X1524Y8100D01*
X1518Y8104D01*
X1510Y8106D01*
X1292D01*
X1284Y8104D01*
X1277Y8100D01*
X1273Y8093D01*
X1271Y8085D01*
Y7876D01*
X1187D01*
Y8294D01*
X1186Y8302D01*
X1181Y8309D01*
X1175Y8313D01*
X1167Y8315D01*
D02*
G37*
G36*
X1779Y7005D02*
X1762D01*
X1746Y6999D01*
X1734Y6987D01*
X1727Y6971D01*
Y6954D01*
X1734Y6938D01*
X1746Y6925D01*
X1762Y6919D01*
X1779D01*
X1795Y6925D01*
X1807Y6938D01*
X1813Y6954D01*
Y6971D01*
X1807Y6987D01*
X1795Y6999D01*
X1779Y7005D01*
D02*
G37*
G36*
X526Y7086D02*
X485D01*
X446Y7078D01*
X408Y7063D01*
X375Y7040D01*
X346Y7012D01*
X324Y6978D01*
X308Y6940D01*
X300Y6901D01*
Y6860D01*
X308Y6821D01*
X324Y6783D01*
X346Y6750D01*
X375Y6721D01*
X408Y6698D01*
X446Y6683D01*
X485Y6675D01*
X526D01*
X566Y6683D01*
X603Y6698D01*
X637Y6721D01*
X665Y6750D01*
X688Y6783D01*
X703Y6821D01*
X711Y6860D01*
Y6901D01*
X703Y6940D01*
X688Y6978D01*
X665Y7012D01*
X637Y7040D01*
X603Y7063D01*
X566Y7078D01*
X526Y7086D01*
D02*
G37*
G36*
X1240Y6213D02*
X1223D01*
X1207Y6206D01*
X1195Y6194D01*
X1188Y6178D01*
Y6161D01*
X1195Y6145D01*
X1207Y6133D01*
X1223Y6126D01*
X1240D01*
X1256Y6133D01*
X1268Y6145D01*
X1275Y6161D01*
Y6178D01*
X1268Y6194D01*
X1256Y6206D01*
X1240Y6213D01*
D02*
G37*
G36*
X935Y6079D02*
X918D01*
X902Y6073D01*
X890Y6061D01*
X884Y6045D01*
Y6027D01*
X890Y6012D01*
X902Y5999D01*
X918Y5993D01*
X935D01*
X951Y5999D01*
X963Y6012D01*
X970Y6027D01*
Y6045D01*
X963Y6061D01*
X951Y6073D01*
X935Y6079D01*
D02*
G37*
G36*
X613Y6140D02*
X581D01*
X549Y6133D01*
X519Y6121D01*
X491Y6103D01*
X468Y6080D01*
X450Y6053D01*
X438Y6022D01*
X431Y5990D01*
Y5958D01*
X438Y5926D01*
X450Y5896D01*
X468Y5869D01*
X491Y5846D01*
X519Y5828D01*
X549Y5815D01*
X581Y5809D01*
X613D01*
X645Y5815D01*
X675Y5828D01*
X702Y5846D01*
X726Y5869D01*
X744Y5896D01*
X756Y5926D01*
X762Y5958D01*
Y5990D01*
X756Y6022D01*
X744Y6053D01*
X726Y6080D01*
X702Y6103D01*
X675Y6121D01*
X645Y6133D01*
X613Y6140D01*
D02*
G37*
G36*
X1361Y5790D02*
X1344D01*
X1328Y5783D01*
X1316Y5771D01*
X1309Y5755D01*
Y5738D01*
X1316Y5722D01*
X1328Y5710D01*
X1344Y5703D01*
X1361D01*
X1377Y5710D01*
X1389Y5722D01*
X1395Y5738D01*
Y5755D01*
X1389Y5771D01*
X1377Y5783D01*
X1361Y5790D01*
D02*
G37*
G36*
X440Y4361D02*
X422D01*
X406Y4355D01*
X394Y4342D01*
X388Y4327D01*
Y4309D01*
X394Y4294D01*
X406Y4281D01*
X422Y4275D01*
X440D01*
X455Y4281D01*
X468Y4294D01*
X474Y4309D01*
Y4327D01*
X468Y4342D01*
X455Y4355D01*
X440Y4361D01*
D02*
G37*
G36*
X453Y4234D02*
X436D01*
X420Y4228D01*
X408Y4215D01*
X401Y4200D01*
Y4182D01*
X408Y4167D01*
X420Y4154D01*
X436Y4148D01*
X453D01*
X469Y4154D01*
X481Y4167D01*
X487Y4182D01*
Y4200D01*
X481Y4215D01*
X469Y4228D01*
X453Y4234D01*
D02*
G37*
G36*
X447Y3644D02*
X430D01*
X414Y3638D01*
X402Y3625D01*
X395Y3610D01*
Y3592D01*
X402Y3576D01*
X414Y3564D01*
X430Y3558D01*
X447D01*
X463Y3564D01*
X475Y3576D01*
X482Y3592D01*
Y3610D01*
X475Y3625D01*
X463Y3638D01*
X447Y3644D01*
D02*
G37*
G36*
X364Y3586D02*
X346D01*
X330Y3580D01*
X318Y3568D01*
X312Y3552D01*
Y3535D01*
X318Y3519D01*
X330Y3507D01*
X346Y3500D01*
X364D01*
X379Y3507D01*
X392Y3519D01*
X398Y3535D01*
Y3552D01*
X392Y3568D01*
X379Y3580D01*
X364Y3586D01*
D02*
G37*
G36*
X364Y3294D02*
X347D01*
X331Y3288D01*
X319Y3276D01*
X312Y3260D01*
Y3243D01*
X319Y3227D01*
X331Y3215D01*
X347Y3208D01*
X364D01*
X380Y3215D01*
X392Y3227D01*
X399Y3243D01*
Y3260D01*
X392Y3276D01*
X380Y3288D01*
X364Y3294D01*
D02*
G37*
G36*
X613Y2840D02*
X581D01*
X549Y2833D01*
X519Y2821D01*
X491Y2803D01*
X468Y2780D01*
X450Y2753D01*
X438Y2722D01*
X431Y2690D01*
Y2658D01*
X438Y2626D01*
X450Y2596D01*
X468Y2569D01*
X491Y2546D01*
X519Y2528D01*
X549Y2515D01*
X581Y2509D01*
X613D01*
X645Y2515D01*
X675Y2528D01*
X702Y2546D01*
X726Y2569D01*
X744Y2596D01*
X756Y2626D01*
X762Y2658D01*
Y2690D01*
X756Y2722D01*
X744Y2753D01*
X726Y2780D01*
X702Y2803D01*
X675Y2821D01*
X645Y2833D01*
X613Y2840D01*
D02*
G37*
G36*
X675Y1843D02*
X645D01*
X616Y1835D01*
X589Y1820D01*
X568Y1798D01*
X553Y1772D01*
X545Y1742D01*
Y1712D01*
X553Y1683D01*
X568Y1656D01*
X589Y1635D01*
X616Y1620D01*
X645Y1612D01*
X675D01*
X705Y1620D01*
X731Y1635D01*
X753Y1656D01*
X768Y1683D01*
X776Y1712D01*
Y1742D01*
X768Y1772D01*
X753Y1798D01*
X731Y1820D01*
X705Y1835D01*
X675Y1843D01*
D02*
G37*
G36*
Y1589D02*
X645D01*
X616Y1581D01*
X589Y1566D01*
X568Y1544D01*
X553Y1518D01*
X545Y1488D01*
Y1458D01*
X553Y1429D01*
X568Y1402D01*
X589Y1381D01*
X616Y1366D01*
X645Y1358D01*
X675D01*
X705Y1366D01*
X731Y1381D01*
X753Y1402D01*
X768Y1429D01*
X776Y1458D01*
Y1488D01*
X768Y1518D01*
X753Y1544D01*
X731Y1566D01*
X705Y1581D01*
X675Y1589D01*
D02*
G37*
%LPD*%
D16*
X2607Y5808D02*
Y5866D01*
X2569Y5770D02*
X2607Y5808D01*
X2569Y5732D02*
Y5770D01*
X2603Y5690D02*
Y5756D01*
X2647Y5800D01*
X2527Y5690D02*
X2569Y5732D01*
X2647Y5800D02*
Y5866D01*
D19*
X5884Y12205D02*
D03*
X5129Y11730D02*
D03*
X5884Y11705D02*
D03*
X5129Y11680D02*
D03*
X5884Y11655D02*
D03*
X5129Y11630D02*
D03*
X5884Y11605D02*
D03*
X5129Y11580D02*
D03*
Y11530D02*
D03*
X5884Y11505D02*
D03*
Y11455D02*
D03*
Y11355D02*
D03*
Y11305D02*
D03*
X5129Y11280D02*
D03*
Y11230D02*
D03*
X5884Y11205D02*
D03*
X5129Y11180D02*
D03*
X5884Y11155D02*
D03*
X5129Y11130D02*
D03*
Y11080D02*
D03*
X5884Y11055D02*
D03*
X5129Y11030D02*
D03*
X5884Y11005D02*
D03*
X5129Y10980D02*
D03*
Y10930D02*
D03*
X5884Y10905D02*
D03*
X5129Y10880D02*
D03*
X5884Y10855D02*
D03*
X5129Y10830D02*
D03*
Y10780D02*
D03*
X5884Y10755D02*
D03*
X5129Y10730D02*
D03*
X5884Y10705D02*
D03*
X5129Y10680D02*
D03*
X5884Y10655D02*
D03*
X5129Y10630D02*
D03*
X5884Y10605D02*
D03*
X5129Y10530D02*
D03*
X5884Y10505D02*
D03*
Y10405D02*
D03*
Y10455D02*
D03*
Y10805D02*
D03*
Y10955D02*
D03*
Y11105D02*
D03*
Y11255D02*
D03*
Y11405D02*
D03*
Y11555D02*
D03*
Y11955D02*
D03*
Y12105D02*
D03*
Y12155D02*
D03*
X5129Y10380D02*
D03*
Y10430D02*
D03*
Y10480D02*
D03*
Y12130D02*
D03*
Y12180D02*
D03*
X5884Y12005D02*
D03*
Y12055D02*
D03*
X5129Y12080D02*
D03*
X5884Y10555D02*
D03*
Y10355D02*
D03*
X5129Y11430D02*
D03*
Y11380D02*
D03*
Y10580D02*
D03*
Y11480D02*
D03*
Y11330D02*
D03*
Y11980D02*
D03*
Y12030D02*
D03*
D20*
X5806Y10245D02*
D03*
Y12315D02*
D03*
D21*
X2682Y1205D02*
D03*
X2732Y1205D02*
D03*
X2832D02*
D03*
X2882Y1205D02*
D03*
X2782D02*
D03*
X2532Y1205D02*
D03*
X2582Y355D02*
D03*
X2482Y1205D02*
D03*
X2682Y355D02*
D03*
X2632Y355D02*
D03*
X2732D02*
D03*
X2532Y355D02*
D03*
X2332D02*
D03*
X2482Y355D02*
D03*
X2382Y1205D02*
D03*
X2432Y1205D02*
D03*
X2332D02*
D03*
X2432Y355D02*
D03*
X2582Y1205D02*
D03*
X2632Y1205D02*
D03*
X2882Y355D02*
D03*
X2832Y355D02*
D03*
X2782Y355D02*
D03*
X2382Y355D02*
D03*
D22*
X7786Y5304D02*
D03*
Y5254D02*
D03*
Y5154D02*
D03*
Y5104D02*
D03*
X7702D02*
D03*
Y5154D02*
D03*
Y5254D02*
D03*
Y5304D02*
D03*
X7785Y5656D02*
D03*
X7702D02*
D03*
X7785Y5606D02*
D03*
X7702D02*
D03*
X7785Y5806D02*
D03*
X7702D02*
D03*
X7785Y5756D02*
D03*
X7702D02*
D03*
X6086Y6952D02*
D03*
X6002D02*
D03*
X6086Y7002D02*
D03*
X6002D02*
D03*
X6086Y7152D02*
D03*
X6002D02*
D03*
X6086Y7102D02*
D03*
X6002D02*
D03*
Y7764D02*
D03*
X6086D02*
D03*
X6002Y7714D02*
D03*
X6086D02*
D03*
X6002Y7914D02*
D03*
X6086D02*
D03*
X6002Y7864D02*
D03*
X6086D02*
D03*
X7898Y9353D02*
D03*
X7982D02*
D03*
X7898Y9303D02*
D03*
X7982D02*
D03*
X7898Y9797D02*
D03*
X7982D02*
D03*
X7898Y9847D02*
D03*
X7982D02*
D03*
X7898Y9697D02*
D03*
X7982D02*
D03*
X7898Y9647D02*
D03*
X7982D02*
D03*
X7898Y9153D02*
D03*
X7982D02*
D03*
X7898Y9203D02*
D03*
X7982D02*
D03*
D23*
X6104Y4281D02*
D03*
X6010D02*
D03*
X6104Y4166D02*
D03*
X6010Y4059D02*
D03*
X6104D02*
D03*
X7899Y4535D02*
D03*
X6199Y4281D02*
D03*
X6382D02*
D03*
X6293D02*
D03*
X6477D02*
D03*
X6572D02*
D03*
X6759D02*
D03*
X6666D02*
D03*
X6852D02*
D03*
X7037D02*
D03*
X6945D02*
D03*
X7132D02*
D03*
X7226D02*
D03*
X7316D02*
D03*
Y4059D02*
D03*
Y4166D02*
D03*
X7410Y4060D02*
D03*
X8283Y7156D02*
D03*
X8281Y7540D02*
D03*
X8280Y7915D02*
D03*
X8283Y8304D02*
D03*
X8283Y7041D02*
D03*
X8281Y7425D02*
D03*
X8280Y7800D02*
D03*
X8283Y8189D02*
D03*
X6054Y9159D02*
D03*
X6177Y9158D02*
D03*
X5025Y12692D02*
D03*
X5155Y12696D02*
D03*
X6054Y9044D02*
D03*
X5155Y12581D02*
D03*
X1820Y2076D02*
D03*
X3906Y14217D02*
D03*
X5577Y13978D02*
D03*
X5692Y13973D02*
D03*
X3965Y13094D02*
D03*
X4572Y13741D02*
D03*
X4077Y13205D02*
D03*
X6018Y13450D02*
D03*
X6767Y13444D02*
D03*
X6018Y13565D02*
D03*
X6767Y13559D02*
D03*
X3965Y13209D02*
D03*
X4572Y13856D02*
D03*
X5577Y14093D02*
D03*
X5692Y14088D02*
D03*
X4665Y13604D02*
D03*
X4570Y13604D02*
D03*
X4078Y12959D02*
D03*
X4077Y13090D02*
D03*
X3964Y12959D02*
D03*
X4009Y14102D02*
D03*
X3906Y14102D02*
D03*
X9102Y2338D02*
D03*
X9084Y3234D02*
D03*
X9102Y2223D02*
D03*
X9084Y3119D02*
D03*
X4009Y14217D02*
D03*
X4570Y13489D02*
D03*
X1091Y1467D02*
D03*
X5025Y12577D02*
D03*
X6177Y9043D02*
D03*
X4665Y13489D02*
D03*
X4078Y12844D02*
D03*
X3964D02*
D03*
X1820Y1961D02*
D03*
X1924D02*
D03*
X1297Y2088D02*
D03*
X1924Y2076D02*
D03*
X6706Y2138D02*
D03*
X5065Y2053D02*
D03*
X3350Y965D02*
D03*
X7899Y4420D02*
D03*
X6945Y4166D02*
D03*
X6477D02*
D03*
X6010Y3944D02*
D03*
X7410Y3945D02*
D03*
X2015Y1492D02*
D03*
X6706Y2023D02*
D03*
X5065Y1938D02*
D03*
X3350Y850D02*
D03*
X1297Y1973D02*
D03*
X7316Y3944D02*
D03*
X7132Y4166D02*
D03*
X7226D02*
D03*
X6852D02*
D03*
X7037D02*
D03*
X6666D02*
D03*
X6572D02*
D03*
X6382D02*
D03*
X6293D02*
D03*
X6010D02*
D03*
X6199D02*
D03*
X6104Y3944D02*
D03*
X6759Y4166D02*
D03*
X1091Y1582D02*
D03*
X2015Y1607D02*
D03*
D24*
X6424Y4736D02*
D03*
X6384D02*
D03*
X7024Y6272D02*
D03*
X6984D02*
D03*
X7104D02*
D03*
X7064D02*
D03*
X7224D02*
D03*
X7184D02*
D03*
X7304D02*
D03*
X7264D02*
D03*
X7064Y4736D02*
D03*
X7104D02*
D03*
X7304D02*
D03*
X7264D02*
D03*
X7184D02*
D03*
X7224D02*
D03*
X7144D02*
D03*
X6464D02*
D03*
X6544D02*
D03*
X6504D02*
D03*
X6584D02*
D03*
X6624D02*
D03*
X6704D02*
D03*
X6664D02*
D03*
X6744D02*
D03*
X6824D02*
D03*
X6784D02*
D03*
X6864D02*
D03*
X6904D02*
D03*
X6944D02*
D03*
X6864Y6272D02*
D03*
X7144D02*
D03*
X6824D02*
D03*
X6544D02*
D03*
X6264D02*
D03*
X6344Y4736D02*
D03*
X6904Y6272D02*
D03*
X7344D02*
D03*
X6944D02*
D03*
X6704D02*
D03*
X6664D02*
D03*
X6464D02*
D03*
X6264Y4736D02*
D03*
X6304D02*
D03*
X7024D02*
D03*
X7344D02*
D03*
X6784Y6272D02*
D03*
X6744D02*
D03*
X6624D02*
D03*
X6584D02*
D03*
X6504D02*
D03*
X6424D02*
D03*
X6384D02*
D03*
X6344D02*
D03*
X6304D02*
D03*
X6224D02*
D03*
X6184D02*
D03*
X6144D02*
D03*
X6104D02*
D03*
Y4736D02*
D03*
X6144D02*
D03*
X6184D02*
D03*
X6224D02*
D03*
X6984D02*
D03*
D25*
X9634Y6658D02*
D03*
X9631Y6507D02*
D03*
X9765Y6659D02*
D03*
X9762Y6508D02*
D03*
X6103Y2009D02*
D03*
Y1878D02*
D03*
X4447Y1907D02*
D03*
Y1776D02*
D03*
X6941Y3334D02*
D03*
X6957Y3176D02*
D03*
X7149Y2771D02*
D03*
X4316Y1907D02*
D03*
Y1776D02*
D03*
X5972Y2009D02*
D03*
Y1878D02*
D03*
X7072Y3335D02*
D03*
X7018Y2770D02*
D03*
X7088Y3177D02*
D03*
D26*
X9468Y6659D02*
D03*
X8046Y7041D02*
D03*
X8047Y7428D02*
D03*
X7496Y4214D02*
D03*
X9353Y6659D02*
D03*
X8046Y8189D02*
D03*
Y7798D02*
D03*
X8161Y7041D02*
D03*
X8162Y7428D02*
D03*
X8161Y7798D02*
D03*
Y8189D02*
D03*
X8145Y2438D02*
D03*
Y2345D02*
D03*
Y2216D02*
D03*
Y2122D02*
D03*
X8125Y3298D02*
D03*
Y3204D02*
D03*
Y3075D02*
D03*
Y2976D02*
D03*
X1518Y12867D02*
D03*
X1403Y12239D02*
D03*
X1518D02*
D03*
Y12491D02*
D03*
X6104Y2246D02*
D03*
X4450Y2141D02*
D03*
X6104Y2133D02*
D03*
X4450Y2036D02*
D03*
X8047Y13536D02*
D03*
X3520Y13617D02*
D03*
Y13825D02*
D03*
X758Y13069D02*
D03*
X1046Y13067D02*
D03*
X1335D02*
D03*
X1046Y13203D02*
D03*
X754D02*
D03*
X2574Y14099D02*
D03*
X1329Y13203D02*
D03*
X6314Y13218D02*
D03*
X7045Y13159D02*
D03*
X6314Y13321D02*
D03*
X7045Y13289D02*
D03*
X1220Y13067D02*
D03*
X1214Y13203D02*
D03*
X931Y13067D02*
D03*
Y13203D02*
D03*
X639D02*
D03*
X643Y13069D02*
D03*
X9542Y13118D02*
D03*
X6769Y3339D02*
D03*
X3635Y13617D02*
D03*
X3635Y13510D02*
D03*
Y13720D02*
D03*
X3635Y13825D02*
D03*
X7160Y13289D02*
D03*
X6429Y13218D02*
D03*
Y13321D02*
D03*
X7160Y13159D02*
D03*
X8260Y2345D02*
D03*
X8240Y3204D02*
D03*
X8260Y2216D02*
D03*
X8240Y3075D02*
D03*
X9657Y13118D02*
D03*
X3520Y13720D02*
D03*
Y13510D02*
D03*
X2689Y14099D02*
D03*
X1978Y955D02*
D03*
X6652Y3181D02*
D03*
X7034Y2626D02*
D03*
X6767Y3181D02*
D03*
X7149Y2626D02*
D03*
X2574Y2025D02*
D03*
X3071Y2027D02*
D03*
X2956D02*
D03*
X2689Y2025D02*
D03*
X4335Y2036D02*
D03*
X5989Y2133D02*
D03*
X7932Y13536D02*
D03*
X1863Y955D02*
D03*
X1403Y12867D02*
D03*
X8260Y2438D02*
D03*
X7594Y2624D02*
D03*
X8240Y3298D02*
D03*
X7600Y3464D02*
D03*
X7611Y4214D02*
D03*
X1403Y12491D02*
D03*
X4335Y2141D02*
D03*
X5989Y2246D02*
D03*
X6654Y3339D02*
D03*
X8260Y2122D02*
D03*
X7709Y2624D02*
D03*
X8240Y2976D02*
D03*
X7715Y3464D02*
D03*
D27*
X3647Y6174D02*
D03*
X3687D02*
D03*
X3527D02*
D03*
X3567D02*
D03*
X3687Y5866D02*
D03*
X3647D02*
D03*
X3527D02*
D03*
X3567D02*
D03*
X3167D02*
D03*
X3247Y6174D02*
D03*
X3207D02*
D03*
X3247Y5866D02*
D03*
X2767Y6174D02*
D03*
X3287Y5866D02*
D03*
X2247Y6174D02*
D03*
Y5866D02*
D03*
X2527Y6174D02*
D03*
X2367D02*
D03*
X2407D02*
D03*
X2487D02*
D03*
X2527Y5866D02*
D03*
X2607Y6174D02*
D03*
X2927D02*
D03*
X3007D02*
D03*
X3127D02*
D03*
X2847D02*
D03*
Y5866D02*
D03*
X2807Y6174D02*
D03*
Y5866D02*
D03*
X1967Y6174D02*
D03*
X3647Y2782D02*
D03*
X3687D02*
D03*
X3727D02*
D03*
X3527D02*
D03*
X3407Y5866D02*
D03*
X3447D02*
D03*
X2127D02*
D03*
X2167D02*
D03*
X1927D02*
D03*
X3327Y6174D02*
D03*
X1887D02*
D03*
X1847D02*
D03*
X1767Y5866D02*
D03*
X3607Y2782D02*
D03*
Y2474D02*
D03*
X3487Y2782D02*
D03*
Y2474D02*
D03*
X3367Y2782D02*
D03*
Y2474D02*
D03*
X3247Y2782D02*
D03*
Y2474D02*
D03*
X3127Y2782D02*
D03*
Y2474D02*
D03*
X3007Y2782D02*
D03*
Y2474D02*
D03*
X2887D02*
D03*
X2767D02*
D03*
X2647Y2782D02*
D03*
Y2474D02*
D03*
X2527Y2782D02*
D03*
Y2474D02*
D03*
X2407Y2782D02*
D03*
Y2474D02*
D03*
X2287Y2782D02*
D03*
Y2474D02*
D03*
X2167Y2782D02*
D03*
Y2474D02*
D03*
X2047Y2782D02*
D03*
Y2474D02*
D03*
X1927Y2782D02*
D03*
Y2474D02*
D03*
X1807Y2782D02*
D03*
Y2474D02*
D03*
X3727Y6174D02*
D03*
X3607D02*
D03*
X3487D02*
D03*
X3287D02*
D03*
X3087D02*
D03*
X2887D02*
D03*
X2687D02*
D03*
X2567D02*
D03*
X2447D02*
D03*
X2327D02*
D03*
X3727Y5866D02*
D03*
X3327D02*
D03*
X3127D02*
D03*
X2927D02*
D03*
X2727D02*
D03*
X3607D02*
D03*
X3487D02*
D03*
X2567D02*
D03*
X2447D02*
D03*
X2287D02*
D03*
X1807D02*
D03*
X2767D02*
D03*
X3167Y6174D02*
D03*
X2727D02*
D03*
X2647D02*
D03*
X3207Y5866D02*
D03*
X3007D02*
D03*
X2887D02*
D03*
X2967D02*
D03*
Y6174D02*
D03*
X3087Y5866D02*
D03*
X2687D02*
D03*
X2647D02*
D03*
X2607D02*
D03*
X3047D02*
D03*
Y6174D02*
D03*
X2207Y5866D02*
D03*
X1767Y6174D02*
D03*
X3367Y5866D02*
D03*
X1807Y6174D02*
D03*
X1927D02*
D03*
X1887Y5866D02*
D03*
X1847D02*
D03*
X2087Y6174D02*
D03*
X2207D02*
D03*
X2167D02*
D03*
X2127D02*
D03*
X2047D02*
D03*
X2007D02*
D03*
X2087Y5866D02*
D03*
X2047D02*
D03*
X2007D02*
D03*
X1967D02*
D03*
X2327D02*
D03*
X2367D02*
D03*
X2407D02*
D03*
X2487D02*
D03*
X2287Y6174D02*
D03*
X3367D02*
D03*
X3407D02*
D03*
X3447D02*
D03*
X1767Y2474D02*
D03*
Y2782D02*
D03*
X1847Y2474D02*
D03*
Y2782D02*
D03*
X1887Y2474D02*
D03*
Y2782D02*
D03*
X1967Y2474D02*
D03*
Y2782D02*
D03*
X2007Y2474D02*
D03*
Y2782D02*
D03*
X2087Y2474D02*
D03*
Y2782D02*
D03*
X2127Y2474D02*
D03*
Y2782D02*
D03*
X2207Y2474D02*
D03*
Y2782D02*
D03*
X2247Y2474D02*
D03*
Y2782D02*
D03*
X2327Y2474D02*
D03*
Y2782D02*
D03*
X2367Y2474D02*
D03*
Y2782D02*
D03*
X2447Y2474D02*
D03*
Y2782D02*
D03*
X2487Y2474D02*
D03*
Y2782D02*
D03*
X2567Y2474D02*
D03*
Y2782D02*
D03*
X2607Y2474D02*
D03*
Y2782D02*
D03*
X2687Y2474D02*
D03*
Y2782D02*
D03*
X2727Y2474D02*
D03*
Y2782D02*
D03*
X2767D02*
D03*
X2807Y2474D02*
D03*
Y2782D02*
D03*
X2847Y2474D02*
D03*
Y2782D02*
D03*
X2887D02*
D03*
X2927Y2474D02*
D03*
Y2782D02*
D03*
X2967Y2474D02*
D03*
Y2782D02*
D03*
X3047Y2474D02*
D03*
Y2782D02*
D03*
X3087Y2474D02*
D03*
Y2782D02*
D03*
X3167Y2474D02*
D03*
Y2782D02*
D03*
X3207Y2474D02*
D03*
Y2782D02*
D03*
X3287Y2474D02*
D03*
Y2782D02*
D03*
X3327Y2474D02*
D03*
Y2782D02*
D03*
X3407Y2474D02*
D03*
Y2782D02*
D03*
X3447Y2474D02*
D03*
Y2782D02*
D03*
X3527Y2474D02*
D03*
X3567D02*
D03*
Y2782D02*
D03*
X3647Y2474D02*
D03*
X3687D02*
D03*
X3727D02*
D03*
D28*
X7491Y5804D02*
D03*
Y5844D02*
D03*
Y5884D02*
D03*
Y5924D02*
D03*
Y6004D02*
D03*
Y6044D02*
D03*
Y6084D02*
D03*
Y6124D02*
D03*
Y5564D02*
D03*
Y5604D02*
D03*
Y5484D02*
D03*
Y5524D02*
D03*
Y5364D02*
D03*
Y5404D02*
D03*
Y5284D02*
D03*
Y5324D02*
D03*
Y5164D02*
D03*
Y5204D02*
D03*
Y5084D02*
D03*
Y5124D02*
D03*
Y4964D02*
D03*
Y5004D02*
D03*
Y4884D02*
D03*
Y4924D02*
D03*
X5956Y6084D02*
D03*
X7491Y5644D02*
D03*
X5956Y5324D02*
D03*
X7491Y5044D02*
D03*
Y5444D02*
D03*
Y5964D02*
D03*
Y5724D02*
D03*
X5956Y6124D02*
D03*
Y6004D02*
D03*
Y5884D02*
D03*
Y5284D02*
D03*
Y5244D02*
D03*
X7491D02*
D03*
Y5764D02*
D03*
X5956Y6044D02*
D03*
Y5964D02*
D03*
Y5924D02*
D03*
Y5844D02*
D03*
Y5804D02*
D03*
Y5764D02*
D03*
Y5724D02*
D03*
Y5684D02*
D03*
Y5644D02*
D03*
Y5604D02*
D03*
Y5564D02*
D03*
Y5524D02*
D03*
Y5484D02*
D03*
Y5444D02*
D03*
Y5404D02*
D03*
Y5364D02*
D03*
Y5204D02*
D03*
Y5164D02*
D03*
Y5124D02*
D03*
Y5084D02*
D03*
Y5044D02*
D03*
Y5004D02*
D03*
Y4964D02*
D03*
Y4924D02*
D03*
Y4884D02*
D03*
X7491Y5684D02*
D03*
D29*
X6368Y6791D02*
D03*
Y6918D02*
D03*
Y7299D02*
D03*
Y7172D02*
D03*
Y7680D02*
D03*
Y7553D02*
D03*
Y8061D02*
D03*
Y7934D02*
D03*
Y7045D02*
D03*
Y7426D02*
D03*
Y7807D02*
D03*
Y8188D02*
D03*
X7838Y7045D02*
D03*
Y7426D02*
D03*
Y8188D02*
D03*
Y7807D02*
D03*
Y6918D02*
D03*
Y6791D02*
D03*
Y7299D02*
D03*
Y7172D02*
D03*
Y7680D02*
D03*
Y7553D02*
D03*
Y8061D02*
D03*
Y7934D02*
D03*
D30*
X7497Y4373D02*
D03*
X7717Y4543D02*
D03*
Y4373D02*
D03*
X7497Y4543D02*
D03*
D31*
X7898Y2346D02*
D03*
Y2219D02*
D03*
X7897Y3199D02*
D03*
Y3072D02*
D03*
Y2945D02*
D03*
X7898Y2092D02*
D03*
X7425Y2219D02*
D03*
Y2346D02*
D03*
X7424Y3072D02*
D03*
Y3199D02*
D03*
Y2945D02*
D03*
X7425Y2092D02*
D03*
X7897Y3326D02*
D03*
X7898Y2473D02*
D03*
D32*
X4203Y13884D02*
D03*
Y13497D02*
D03*
X4053Y13884D02*
D03*
X3953D02*
D03*
X4103D02*
D03*
X4003Y13497D02*
D03*
X4153Y13884D02*
D03*
Y13497D02*
D03*
X4103D02*
D03*
X3953D02*
D03*
X4003Y13884D02*
D03*
X4053Y13497D02*
D03*
D33*
X4217Y13280D02*
D03*
X4144Y14096D02*
D03*
X8043Y13122D02*
D03*
X7395Y13791D02*
D03*
X4217Y13149D02*
D03*
X4144Y14227D02*
D03*
X5194Y2070D02*
D03*
X6839Y2155D02*
D03*
X8043Y13253D02*
D03*
X7395Y13922D02*
D03*
X3351Y578D02*
D03*
X2199Y5711D02*
D03*
X2356Y5710D02*
D03*
X5194Y1939D02*
D03*
X6839Y2024D02*
D03*
X3351Y709D02*
D03*
X2199Y5580D02*
D03*
X2356Y5579D02*
D03*
D34*
X4401Y13263D02*
D03*
Y13088D02*
D03*
X2251Y13056D02*
D03*
X1604Y13056D02*
D03*
X1820Y13057D02*
D03*
X2035Y13055D02*
D03*
X2251Y13231D02*
D03*
X1604Y13231D02*
D03*
X1820Y13232D02*
D03*
X2035Y13230D02*
D03*
D35*
X2182Y505D02*
D03*
X3032Y905D02*
D03*
X2182Y1005D02*
D03*
Y755D02*
D03*
X3032D02*
D03*
X2182Y1055D02*
D03*
Y905D02*
D03*
Y955D02*
D03*
Y555D02*
D03*
Y605D02*
D03*
Y655D02*
D03*
Y705D02*
D03*
Y805D02*
D03*
Y855D02*
D03*
X3032Y955D02*
D03*
Y1055D02*
D03*
Y855D02*
D03*
Y1005D02*
D03*
Y805D02*
D03*
Y705D02*
D03*
Y655D02*
D03*
Y605D02*
D03*
Y555D02*
D03*
Y505D02*
D03*
D36*
X6280Y2015D02*
D03*
X4635Y1917D02*
D03*
X4864Y2107D02*
D03*
X6509Y2205D02*
D03*
X6280D02*
D03*
X4635Y2107D02*
D03*
X6280Y2110D02*
D03*
X4635Y2012D02*
D03*
X4864D02*
D03*
X6509Y2110D02*
D03*
X4864Y1917D02*
D03*
X6509Y2015D02*
D03*
D37*
X1340Y468D02*
D03*
X1600D02*
D03*
X1470D02*
D03*
X1405D02*
D03*
X1535D02*
D03*
D38*
X7516Y13078D02*
D03*
X5448Y13903D02*
D03*
Y13968D02*
D03*
Y14033D02*
D03*
X6206Y13505D02*
D03*
X6906Y13506D02*
D03*
X6206Y13700D02*
D03*
Y13635D02*
D03*
Y13570D02*
D03*
X6906Y13701D02*
D03*
Y13636D02*
D03*
Y13571D02*
D03*
X5448Y14098D02*
D03*
X5128D02*
D03*
Y14033D02*
D03*
Y13968D02*
D03*
Y13903D02*
D03*
X2505Y13039D02*
D03*
X7836Y13078D02*
D03*
Y13143D02*
D03*
Y13208D02*
D03*
Y13273D02*
D03*
X7226Y13506D02*
D03*
Y13571D02*
D03*
Y13636D02*
D03*
Y13701D02*
D03*
X6526Y13505D02*
D03*
Y13570D02*
D03*
Y13635D02*
D03*
Y13700D02*
D03*
X7516Y13273D02*
D03*
Y13208D02*
D03*
Y13143D02*
D03*
X2505Y13234D02*
D03*
Y13169D02*
D03*
Y13104D02*
D03*
X2825Y13039D02*
D03*
Y13104D02*
D03*
Y13169D02*
D03*
Y13234D02*
D03*
D39*
X8047Y13703D02*
D03*
X7849Y13800D02*
D03*
X8625Y2374D02*
D03*
X8605Y3236D02*
D03*
X8625Y2184D02*
D03*
X8605Y3046D02*
D03*
X8407Y3143D02*
D03*
X8428Y2280D02*
D03*
X8047Y13893D02*
D03*
D40*
X4272Y13716D02*
D03*
Y13816D02*
D03*
Y13766D02*
D03*
X3885D02*
D03*
X4272Y13666D02*
D03*
X3885Y13566D02*
D03*
X4272Y13616D02*
D03*
X3885Y13666D02*
D03*
Y13716D02*
D03*
Y13816D02*
D03*
X4272Y13566D02*
D03*
X3885Y13616D02*
D03*
D41*
X7160Y13882D02*
D03*
X6452Y13894D02*
D03*
X6111Y13093D02*
D03*
X6870D02*
D03*
X6018Y13291D02*
D03*
X6777D02*
D03*
X6262Y13894D02*
D03*
X6970Y13882D02*
D03*
X5921Y13093D02*
D03*
X6680D02*
D03*
X6359Y14092D02*
D03*
X7067Y14079D02*
D03*
D42*
X5528Y13416D02*
D03*
X5593D02*
D03*
X5658D02*
D03*
X5723D02*
D03*
Y13736D02*
D03*
X5658D02*
D03*
X5593D02*
D03*
X5528D02*
D03*
D43*
X5616Y13068D02*
D03*
X5026D02*
D03*
D44*
X2216Y13896D02*
D03*
X4910Y13895D02*
D03*
X2216Y13446D02*
D03*
X4910Y13445D02*
D03*
D45*
X2529Y13693D02*
D03*
X2944D02*
D03*
D46*
X9538Y13264D02*
D03*
X9700D02*
D03*
D47*
X4755Y13029D02*
D03*
Y12759D02*
D03*
D48*
X7601Y13806D02*
D03*
Y14086D02*
D03*
D49*
X8873Y2421D02*
D03*
X8849Y3314D02*
D03*
X8873Y2136D02*
D03*
X8849Y3029D02*
D03*
D50*
X1234Y1325D02*
D03*
X1299D02*
D03*
X1429Y1746D02*
D03*
X1364D02*
D03*
X1234D02*
D03*
X1299D02*
D03*
X1429Y1325D02*
D03*
X1364D02*
D03*
D51*
X1719Y1338D02*
D03*
X1669D02*
D03*
X1769Y1759D02*
D03*
X1719D02*
D03*
X1819D02*
D03*
X1869Y1338D02*
D03*
X1669Y1759D02*
D03*
X1819Y1338D02*
D03*
X1769D02*
D03*
X1869Y1759D02*
D03*
D52*
X7831Y10173D02*
D03*
X6623Y2697D02*
D03*
X6816Y2631D02*
D03*
X7638Y10239D02*
D03*
X6623Y2631D02*
D03*
X7831Y10239D02*
D03*
X7638Y10107D02*
D03*
X6816Y2763D02*
D03*
X7831Y10107D02*
D03*
X6623Y2763D02*
D03*
D54*
X1374Y161D02*
D03*
X1567D02*
D03*
D55*
X6724Y5504D02*
D03*
D56*
X7424Y3326D02*
D03*
X7425Y2473D02*
D03*
D57*
X1463Y727D02*
D03*
Y810D02*
D03*
X1413Y727D02*
D03*
Y810D02*
D03*
X1613D02*
D03*
X1563D02*
D03*
Y727D02*
D03*
X1613D02*
D03*
D73*
X4896Y8866D02*
D03*
X5716Y7866D02*
D03*
X4896Y6946D02*
D03*
X5716Y8746D02*
D03*
Y8826D02*
D03*
X4896Y9266D02*
D03*
Y7026D02*
D03*
X5716Y7226D02*
D03*
Y7466D02*
D03*
X4896Y7906D02*
D03*
X5716Y8026D02*
D03*
X4896Y8226D02*
D03*
X5716Y8266D02*
D03*
Y8346D02*
D03*
X4896Y8546D02*
D03*
X5716Y8586D02*
D03*
Y8666D02*
D03*
X4896Y8786D02*
D03*
X5716Y8906D02*
D03*
X4896Y9186D02*
D03*
X5716Y8186D02*
D03*
Y8106D02*
D03*
Y7386D02*
D03*
Y7306D02*
D03*
Y9226D02*
D03*
Y9146D02*
D03*
X4896Y9106D02*
D03*
X5716Y9066D02*
D03*
X4896Y9026D02*
D03*
X5716Y8986D02*
D03*
X4896Y8946D02*
D03*
Y8706D02*
D03*
Y8626D02*
D03*
Y8466D02*
D03*
Y8386D02*
D03*
Y8306D02*
D03*
Y8146D02*
D03*
Y8066D02*
D03*
Y7986D02*
D03*
X5716Y7946D02*
D03*
X4896Y7506D02*
D03*
Y7426D02*
D03*
Y7346D02*
D03*
Y7266D02*
D03*
Y7186D02*
D03*
X5716Y7146D02*
D03*
X4896Y7106D02*
D03*
X5716Y7066D02*
D03*
Y6986D02*
D03*
Y6906D02*
D03*
Y8506D02*
D03*
Y8426D02*
D03*
D91*
X1513Y727D02*
D03*
Y810D02*
D03*
D93*
X7786Y5204D02*
D03*
X7696Y5204D02*
D03*
X7785Y5706D02*
D03*
X7702D02*
D03*
X7898Y9747D02*
D03*
X7982D02*
D03*
X7898Y9253D02*
D03*
X7982D02*
D03*
X6086Y7052D02*
D03*
X6002D02*
D03*
Y7814D02*
D03*
X6086D02*
D03*
D94*
X5656Y6621D02*
D03*
Y9551D02*
D03*
D133*
X4078Y13691D02*
D03*
D134*
X3387Y14059D02*
X3460Y13986D01*
X3585D01*
X3805Y13766D01*
X3093Y14059D02*
X3387D01*
X3822Y13816D02*
X3885D01*
X3513Y14056D02*
X3581D01*
X3822Y13816D01*
X3805Y13766D02*
X3885D01*
X2574Y13868D02*
Y14099D01*
X2893Y14260D02*
X3093Y14059D01*
X4863Y10516D02*
X4990D01*
X5064Y10427D02*
X5066Y10430D01*
X4838Y10427D02*
X5064D01*
X5066Y10430D02*
X5129D01*
X5064Y10427D02*
Y10427D01*
X4842Y10338D02*
X4969D01*
X5241Y12180D02*
X5266Y12155D01*
X5270D01*
X5129Y12130D02*
X5245D01*
X5270Y12155D01*
X5129Y12180D02*
X5241D01*
X5884Y11555D02*
X6026D01*
Y11405D02*
X6028Y11407D01*
X6026Y11255D02*
X6028Y11257D01*
X6026Y11105D02*
X6028Y11107D01*
X6026Y10805D02*
X6028Y10807D01*
X5884Y10805D02*
X6026D01*
Y11555D02*
X6028Y11557D01*
X5884Y11105D02*
X6026D01*
X5884Y11405D02*
X6026D01*
X5884Y11255D02*
X6026D01*
X5884Y10955D02*
X6026D01*
X6028Y10957D01*
X5999Y10455D02*
X6028Y10426D01*
Y10420D02*
Y10426D01*
X4969Y10338D02*
X5010Y10380D01*
X5129D01*
X5884Y10405D02*
X6005D01*
X6020Y10420D01*
X6028D01*
X5884Y10455D02*
X5999D01*
X5026Y10480D02*
X5129D01*
X4990Y10516D02*
X5026Y10480D01*
X5740Y11900D02*
X5746Y11906D01*
X5772D01*
X5821Y11955D01*
X5884D01*
X5740Y12155D02*
X5884D01*
Y12105D02*
X5991D01*
X6014Y12128D01*
X6020D01*
X5993Y12155D02*
X6020Y12128D01*
X5884Y12155D02*
X5993D01*
X2087Y5866D02*
X2087Y5866D01*
Y5775D02*
X2088Y5774D01*
X2087Y5775D02*
Y5866D01*
X2046Y5867D02*
X2047Y5866D01*
X2046Y5958D02*
X2046Y5958D01*
Y5867D02*
Y5958D01*
X7518Y10107D02*
X7638D01*
X2745Y1063D02*
X2782Y1099D01*
Y1205D01*
X2182Y506D02*
X2182Y505D01*
X2047Y506D02*
X2182D01*
X3885Y13816D02*
X3885Y13816D01*
X2619Y14260D02*
X2893D01*
X2574Y14215D02*
X2619Y14260D01*
X2574Y14099D02*
Y14215D01*
X7831Y10239D02*
X7954D01*
X2565Y492D02*
X2582Y475D01*
Y355D02*
Y475D01*
X6497Y2613D02*
X6515Y2631D01*
X6623D01*
X6926Y2763D02*
X6926Y2763D01*
X6816Y2763D02*
X6926D01*
X4350Y13566D02*
X4379Y13537D01*
X4379D01*
X4272Y13566D02*
X4350D01*
D135*
X2093Y13722D02*
Y13810D01*
X3385Y13617D02*
X3520D01*
X5129Y10580D02*
X5270D01*
X5293Y11516D02*
Y11575D01*
X5257Y11480D02*
X5293Y11516D01*
X5129Y11480D02*
X5257D01*
X1522Y12871D02*
X1610D01*
X1518Y12867D02*
X1522Y12871D01*
X4991Y12078D02*
X4993Y12080D01*
X5129D01*
Y12030D02*
X5267D01*
X5270Y12027D01*
X5884Y10355D02*
X6000D01*
X6028Y10327D01*
X6025Y10555D02*
X6026Y10554D01*
X5884Y10555D02*
X6025D01*
X4991Y11328D02*
X4992Y11330D01*
X4991Y11430D02*
X4991Y11430D01*
X4991Y11976D02*
X4995Y11980D01*
X4992Y11330D02*
X5129D01*
Y11380D02*
X5257D01*
X4991Y11430D02*
X5129D01*
X5270Y10580D02*
X5270Y10579D01*
X5257Y11380D02*
X5258Y11379D01*
X4995Y11980D02*
X5129D01*
X7135Y4538D02*
X7306D01*
X7408Y4640D01*
X7653Y4595D02*
X7665D01*
X7408Y4640D02*
X7609D01*
X7665Y4595D02*
X7717Y4543D01*
X7609Y4640D02*
X7653Y4595D01*
X7717Y4543D02*
X7890D01*
X4272Y13816D02*
X4379D01*
X4381Y13818D01*
X3764Y13449D02*
Y13499D01*
X3830Y13565D01*
X3965Y13209D02*
Y13295D01*
X4113Y13983D02*
X4115D01*
X4103Y13973D02*
X4113Y13983D01*
X4103Y13884D02*
Y13973D01*
X2911Y6251D02*
Y6363D01*
X3152Y6604D02*
X3206D01*
X2911Y6363D02*
X3152Y6604D01*
X3023Y6399D02*
X3182Y6558D01*
X3023Y6300D02*
Y6399D01*
X3182Y6558D02*
X3227D01*
X3324Y6655D02*
Y6728D01*
X3227Y6558D02*
X3324Y6655D01*
X3127Y6320D02*
X3410Y6603D01*
X3282Y7049D02*
X3410Y6921D01*
Y6603D02*
Y6921D01*
X3740Y6573D02*
Y6736D01*
X3675Y6508D02*
X3740Y6573D01*
X3376Y6508D02*
X3675D01*
X8288Y9141D02*
Y9936D01*
X8420Y9019D02*
Y10059D01*
X8288Y10190D02*
X8420Y10059D01*
X8288Y8887D02*
X8420Y9019D01*
X9040Y9972D02*
X9208Y9804D01*
X9040Y9972D02*
Y10270D01*
X9208Y9557D02*
Y9804D01*
Y9251D02*
X9271Y9314D01*
Y9865D01*
X9208Y9928D02*
X9271Y9865D01*
X9114Y8881D02*
X9208D01*
X9040Y8807D02*
X9114Y8881D01*
X8837Y8827D02*
X8860Y8850D01*
Y9157D02*
X8954Y9251D01*
X8860Y8850D02*
Y9157D01*
X8837Y8807D02*
Y8827D01*
X8953Y9557D02*
X9017Y9494D01*
Y9208D02*
Y9494D01*
X8954Y9928D02*
Y10154D01*
X8837Y10270D02*
X8954Y10154D01*
X2438Y5954D02*
X2465Y5981D01*
X2474D01*
X2527Y5928D01*
Y5866D02*
Y5928D01*
X2687Y5775D02*
Y5866D01*
X6870Y13093D02*
X6932Y13155D01*
X7724Y10820D02*
X8866D01*
X7620Y10924D02*
Y12065D01*
Y10924D02*
X7724Y10820D01*
X7620Y12065D02*
X7734Y12179D01*
X7423Y3327D02*
X7424Y3326D01*
X7203Y3327D02*
X7423D01*
X7422Y2470D02*
X7425Y2473D01*
X7214Y2470D02*
X7422D01*
X2697Y167D02*
X2703Y162D01*
X2697Y167D02*
Y239D01*
X4465Y2020D02*
X4627D01*
X4635Y2012D01*
X4450Y2036D02*
X4465Y2020D01*
X4472Y2119D02*
X4480D01*
X4439Y2152D02*
X4472Y2119D01*
X4512Y2086D02*
X4577D01*
X4480Y2119D02*
X4512Y2086D01*
X4577D02*
X4599Y2107D01*
X4635D01*
X6567Y3181D02*
X6652D01*
X5440Y8258D02*
X5512Y8186D01*
X5440Y8258D02*
Y8261D01*
X5452Y8027D02*
X5534Y8109D01*
X5712D01*
X6790Y13474D02*
X6793D01*
X6825Y13506D01*
X6767Y13301D02*
Y13452D01*
X6825Y13506D02*
X6906D01*
X6767Y13452D02*
X6790Y13474D01*
X6767Y13301D02*
X6777Y13291D01*
X6906Y13334D02*
Y13506D01*
Y13334D02*
X6952Y13289D01*
X7955Y10117D02*
Y10161D01*
X7943Y10173D02*
X7955Y10161D01*
X7831Y10173D02*
X7943D01*
X7955Y10117D02*
X7963Y10109D01*
X9316Y6490D02*
X9384Y6421D01*
X8839Y6490D02*
X9316D01*
X8852Y6579D02*
X8854Y6581D01*
X9275D01*
X9353Y6659D01*
X9384Y6421D02*
X9679D01*
X9726Y6468D01*
X9765Y6506D02*
Y6659D01*
X9726Y6468D02*
X9727D01*
X9765Y6506D01*
X3766Y13088D02*
Y13186D01*
X3995Y13415D01*
X3952Y13081D02*
X3965Y13094D01*
X5523Y13741D02*
X5528Y13736D01*
X5346Y13741D02*
X5523D01*
X2127Y5866D02*
Y6001D01*
X2108Y6020D02*
Y6058D01*
Y6020D02*
X2127Y6001D01*
X2169Y5968D02*
X2173Y5972D01*
X2169Y5868D02*
Y5968D01*
X2167Y5866D02*
X2169Y5868D01*
X7029Y2631D02*
X7034Y2626D01*
X6816Y2631D02*
X7029D01*
X2432Y1205D02*
Y1442D01*
X2530Y1540D02*
X2936D01*
X2432Y1442D02*
X2530Y1540D01*
X3127Y6174D02*
Y6320D01*
X3167Y6174D02*
Y6299D01*
X3376Y6508D01*
X3160Y5982D02*
X3207Y6029D01*
Y6174D01*
X3206Y6604D02*
X3270Y6668D01*
X2737Y6617D02*
X3033D01*
X3097Y6681D02*
X3204D01*
X3033Y6617D02*
X3097Y6681D01*
X3855Y13947D02*
X3920D01*
X3953Y13914D01*
X2845Y5646D02*
X2845D01*
X2767Y5724D02*
Y5866D01*
Y5724D02*
X2845Y5646D01*
X2807Y5777D02*
Y5866D01*
Y5777D02*
X2845Y5739D01*
X3527Y4292D02*
X3810Y4574D01*
X3527Y2782D02*
Y4292D01*
X2177Y6756D02*
X2597D01*
X1807Y6387D02*
X2177Y6756D01*
X1807Y6174D02*
Y6387D01*
X7274Y4597D02*
X7304Y4627D01*
Y4736D01*
X7187Y4601D02*
X7191Y4597D01*
X7184Y4736D02*
X7187Y4733D01*
Y4601D02*
Y4733D01*
X7108Y4863D02*
X7144Y4827D01*
Y4736D02*
Y4827D01*
X6572Y4281D02*
Y4447D01*
X7085Y4433D02*
X7174D01*
X6904Y4615D02*
Y4736D01*
Y4615D02*
X7085Y4433D01*
X7131Y4377D02*
X7132Y4377D01*
X7091Y4377D02*
X7131D01*
X6864Y4604D02*
X7091Y4377D01*
X7174Y4433D02*
X7226Y4382D01*
X7223Y4470D02*
X7316Y4377D01*
X6944Y4618D02*
X7092Y4470D01*
X7223D01*
X7251Y4502D02*
X7380Y4373D01*
X7064Y4553D02*
X7114Y4502D01*
X7251D01*
X7104Y4569D02*
X7135Y4538D01*
X7226Y4281D02*
Y4382D01*
X6864Y4604D02*
Y4736D01*
X7132Y4281D02*
Y4377D01*
X8047Y13449D02*
Y13536D01*
X2247Y6567D02*
X2373Y6693D01*
X2527D01*
X2247Y6174D02*
Y6567D01*
X2597Y6756D02*
X2737Y6617D01*
X3831Y12847D02*
Y12937D01*
X3853Y12959D01*
X3964D01*
X4250Y14096D02*
X4250Y14096D01*
X4144Y14096D02*
X4250D01*
X4439Y2152D02*
Y2368D01*
X6100Y2250D02*
Y2342D01*
Y2250D02*
X6104Y2246D01*
X2936Y1540D02*
X3070Y1673D01*
X2382Y1352D02*
Y1474D01*
X2582Y1673D01*
X2013Y1961D02*
X2013Y1962D01*
X1924Y1961D02*
X2013D01*
X1364Y1860D02*
X1384Y1880D01*
X1364Y1746D02*
Y1860D01*
X1429Y1837D02*
X1473Y1881D01*
X1429Y1746D02*
Y1837D01*
X6986Y4403D02*
X7037Y4351D01*
X6930Y4364D02*
Y4402D01*
X6945Y4281D02*
Y4349D01*
X6784Y4548D02*
X6930Y4402D01*
Y4364D02*
X6945Y4349D01*
X6824Y4565D02*
X6986Y4403D01*
X6852Y4392D02*
Y4429D01*
Y4281D02*
Y4392D01*
X6704Y4484D02*
X6722Y4465D01*
X6759Y4428D01*
Y4281D02*
Y4428D01*
X6704Y4484D02*
Y4736D01*
X5512Y8186D02*
X5716D01*
X3446Y5766D02*
Y5865D01*
X3447Y5866D01*
X3446Y5766D02*
X3446Y5766D01*
X3383Y5694D02*
Y5801D01*
X3348Y5659D02*
X3383Y5694D01*
X3348Y5459D02*
X3348Y5459D01*
X3348Y5459D02*
Y5659D01*
X5712Y8109D02*
X5716Y8106D01*
X3270Y6668D02*
Y6778D01*
X3324Y6728D02*
X3326Y6731D01*
X3249Y6799D02*
X3270Y6778D01*
X3249Y6799D02*
Y6936D01*
X3080Y6265D02*
Y6383D01*
X3047Y6233D02*
X3080Y6265D01*
X3007Y6234D02*
X3023Y6251D01*
Y6300D01*
X3023Y6300D02*
X3023Y6300D01*
X3007Y6174D02*
Y6234D01*
X3047Y6174D02*
Y6233D01*
X2967Y6174D02*
Y6274D01*
X2927Y6174D02*
Y6234D01*
X2911Y6251D02*
X2927Y6234D01*
X3367Y5866D02*
X3369Y5864D01*
Y5815D02*
Y5864D01*
Y5815D02*
X3383Y5801D01*
X3377Y5954D02*
Y5957D01*
X3407Y5866D02*
Y5925D01*
X3377Y5954D02*
X3407Y5925D01*
X1944Y5682D02*
Y5742D01*
X1920Y5587D02*
Y5658D01*
X1944Y5682D01*
X1888Y5719D02*
Y5866D01*
X1887Y5866D02*
X1888Y5866D01*
X1927Y5759D02*
Y5866D01*
X1888Y5719D02*
X1888Y5718D01*
X1927Y5759D02*
X1944Y5742D01*
X1927Y6083D02*
Y6174D01*
X1767Y6083D02*
Y6174D01*
X1927Y6274D02*
X1967Y6234D01*
Y6174D02*
Y6234D01*
X6499Y2698D02*
X6621D01*
X6623Y2697D01*
X6497Y2700D02*
X6499Y2698D01*
X1847Y6308D02*
X1927Y6388D01*
X1847Y6174D02*
Y6308D01*
X7425Y2092D02*
X7585D01*
X2840Y5956D02*
X2845Y5951D01*
Y5868D02*
Y5951D01*
Y5868D02*
X2847Y5866D01*
X2817Y6059D02*
X2896Y5980D01*
Y5933D02*
Y5980D01*
X2817Y6059D02*
Y6060D01*
X2887Y5866D02*
Y5924D01*
X2896Y5933D01*
X3247Y5866D02*
Y5956D01*
X3327Y6120D02*
Y6174D01*
X3276Y6070D02*
X3327Y6120D01*
X3271Y5674D02*
X3276Y5669D01*
X3271Y5674D02*
Y5801D01*
X3127Y5550D02*
X3213Y5636D01*
Y5813D01*
X3183Y5725D02*
Y5801D01*
X3127Y5669D02*
X3183Y5725D01*
X2967Y5669D02*
X3023Y5725D01*
Y5801D01*
X2967Y5550D02*
X3053Y5636D01*
Y5813D01*
X2367Y6502D02*
X2471Y6398D01*
Y6251D02*
Y6398D01*
X3209Y5817D02*
X3213Y5813D01*
X3207Y5866D02*
X3209Y5864D01*
Y5817D02*
Y5864D01*
X8610Y12167D02*
Y12703D01*
X8675Y12768D01*
X7740Y12173D02*
X8603D01*
X7734Y12179D02*
X7740Y12173D01*
X8603D02*
X8610Y12167D01*
X8675Y12768D02*
X8852D01*
X7209Y10239D02*
X7637D01*
X7638Y10239D01*
X7209Y10239D02*
X7209Y10239D01*
X8277Y7544D02*
X8281Y7540D01*
X8191Y7544D02*
X8277D01*
X8954Y9145D02*
X9017Y9208D01*
X2732Y252D02*
X2768Y216D01*
X2732Y252D02*
Y355D01*
X2682Y255D02*
X2697Y239D01*
X2682Y255D02*
Y355D01*
X2632Y459D02*
X2668Y496D01*
X2632Y355D02*
Y459D01*
X2532Y236D02*
X2552Y216D01*
X2532Y236D02*
Y355D01*
X2476Y216D02*
X2482Y221D01*
Y355D01*
X2382Y1205D02*
Y1352D01*
X2891Y749D02*
X2897Y755D01*
X3032D01*
X1978Y955D02*
X2182D01*
X1978Y955D02*
X1978Y955D01*
X1003Y1460D02*
X1085D01*
X1091Y1467D01*
X1277D02*
X1299Y1445D01*
X1091Y1467D02*
X1277D01*
X1299Y1325D02*
Y1445D01*
X1234Y1194D02*
Y1325D01*
X1819Y1960D02*
X1820Y1961D01*
X1819Y1759D02*
Y1960D01*
X1820Y1961D02*
X1924D01*
X2582Y1673D02*
Y2017D01*
X2574Y2025D02*
X2582Y2017D01*
X3070Y1673D02*
Y2026D01*
X3071Y2027D01*
X2247Y5970D02*
X2247Y5970D01*
Y5866D02*
Y5970D01*
X2647Y6502D02*
X2703Y6446D01*
Y6256D02*
Y6446D01*
X2751Y6251D02*
X2767Y6234D01*
X2727Y6174D02*
Y6233D01*
X2703Y6256D02*
X2727Y6233D01*
X2751Y6332D02*
X2807Y6388D01*
X2751Y6251D02*
Y6332D01*
X2807Y6502D02*
X2863Y6446D01*
Y6251D02*
Y6446D01*
X2847Y6234D02*
X2863Y6251D01*
X2847Y6174D02*
Y6234D01*
X3049Y5817D02*
X3053Y5813D01*
X3049Y5817D02*
Y5864D01*
X3047Y5866D02*
X3049Y5864D01*
X3007Y5817D02*
X3023Y5801D01*
X3007Y5817D02*
Y5866D01*
X2967Y5778D02*
Y5866D01*
X3017Y5969D02*
X3064D01*
X3087Y5946D01*
Y5866D02*
Y5946D01*
X3271Y5801D02*
X3287Y5817D01*
X3167Y5817D02*
X3183Y5801D01*
X3287Y5817D02*
Y5866D01*
X3167Y5817D02*
Y5866D01*
X3247Y6174D02*
Y6274D01*
X2767Y6174D02*
Y6234D01*
X2807Y6174D02*
Y6274D01*
X2591Y6332D02*
X2647Y6388D01*
X2591Y6251D02*
X2607Y6234D01*
Y6174D02*
Y6234D01*
X2591Y6251D02*
Y6332D01*
X2647Y6174D02*
Y6274D01*
X2471Y6251D02*
X2487Y6234D01*
Y6174D02*
Y6234D01*
X2527Y6174D02*
Y6274D01*
X2367Y6388D02*
X2423Y6332D01*
X2407Y6234D02*
X2423Y6251D01*
X2407Y6174D02*
Y6234D01*
X2423Y6251D02*
Y6332D01*
X2367Y6174D02*
Y6274D01*
X2355Y5711D02*
X2356Y5710D01*
X2199Y5711D02*
X2355D01*
X2207Y5719D02*
Y5866D01*
X2199Y5711D02*
X2207Y5719D01*
X1837Y5982D02*
X1847Y5972D01*
Y5866D02*
Y5972D01*
X1871Y6038D02*
X1927Y5982D01*
X1885Y6120D02*
Y6172D01*
X1871Y6106D02*
X1885Y6120D01*
Y6172D02*
X1887Y6174D01*
X1871Y6038D02*
Y6106D01*
X1751Y5724D02*
X1807Y5668D01*
X1751Y5789D02*
X1767Y5805D01*
Y5866D01*
X1751Y5724D02*
Y5789D01*
X4972Y2107D02*
X4972Y2108D01*
X4864Y2107D02*
X4972D01*
X6112Y2246D02*
X6153Y2205D01*
X6280D01*
X6104Y2246D02*
X6112D01*
X6104Y2133D02*
X6162D01*
X6186Y2110D02*
X6280D01*
X6162Y2133D02*
X6186Y2110D01*
X6509Y2205D02*
X6629D01*
X7251Y2346D02*
X7425D01*
Y2219D02*
X7565D01*
X7585Y2239D02*
Y2326D01*
X7565Y2219D02*
X7585Y2239D01*
X7565Y2346D02*
X7585Y2326D01*
X7425Y2346D02*
X7565D01*
X7251Y2946D02*
X7253Y2945D01*
X7424D01*
X7252Y3072D02*
X7424D01*
X7568D02*
X7578Y3082D01*
X7424Y3072D02*
X7568D01*
X7578Y3082D02*
Y3190D01*
X7424Y3199D02*
X7569D01*
X7578Y3190D01*
X7149Y2626D02*
X7149Y2626D01*
Y2771D01*
X6952Y3181D02*
X6957Y3176D01*
X6767Y3181D02*
X6952D01*
X6769Y3339D02*
X6937D01*
X6941Y3334D01*
X5956Y6084D02*
X6074D01*
X6835Y6151D02*
X6864Y6180D01*
X6835Y6151D02*
Y6151D01*
X6864Y6180D02*
Y6272D01*
X7235Y5666D02*
X7287Y5613D01*
X7356D02*
X7387Y5644D01*
X7287Y5613D02*
X7356D01*
X7264Y4736D02*
X7267Y4740D01*
Y4859D02*
X7274Y4867D01*
X7267Y4740D02*
Y4859D01*
X7224Y4736D02*
Y4837D01*
X7198Y4863D02*
Y4867D01*
Y4863D02*
X7224Y4837D01*
X7387Y5644D02*
X7491D01*
X6382Y4281D02*
Y4361D01*
X6544Y4523D01*
X6744Y4538D02*
X6852Y4429D01*
X6744Y4538D02*
Y4736D01*
X6784Y4548D02*
Y4736D01*
X6104Y4281D02*
Y4471D01*
X6150Y4517D01*
X6424Y4565D02*
Y4736D01*
X6150Y4517D02*
X6375D01*
X6424Y4565D01*
X6010Y4281D02*
Y4478D01*
X6384Y4593D02*
Y4736D01*
X6086Y4554D02*
X6345D01*
X6384Y4593D01*
X6010Y4478D02*
X6086Y4554D01*
X6104Y4059D02*
Y4166D01*
X6010Y4059D02*
X6104D01*
X9468Y6659D02*
X9633D01*
X9634Y6658D01*
Y6510D02*
Y6658D01*
X9631Y6507D02*
X9634Y6510D01*
X6368Y7045D02*
X6543D01*
X6214Y7426D02*
X6368D01*
X6210Y7422D02*
X6214Y7426D01*
X6368Y7807D02*
X6369Y7808D01*
X6528D01*
X6204Y8188D02*
X6368D01*
X7838Y7045D02*
X8043D01*
X8046Y7041D01*
X7838Y7426D02*
X8045D01*
X8047Y7428D01*
X7064Y4553D02*
Y4736D01*
X7380Y4373D02*
X7497D01*
X7496Y4214D02*
Y4373D01*
X7497Y4373D01*
X7104Y4569D02*
Y4736D01*
X7890Y4543D02*
X7899Y4535D01*
X6199Y4281D02*
Y4454D01*
X6232Y4487D01*
X6464Y4550D02*
Y4736D01*
X6401Y4487D02*
X6464Y4550D01*
X6232Y4487D02*
X6401D01*
X6544Y4523D02*
Y4736D01*
X6293Y4281D02*
Y4443D01*
X6308Y4458D01*
X6504Y4528D02*
Y4736D01*
X6433Y4458D02*
X6504Y4528D01*
X6308Y4458D02*
X6433D01*
X6477Y4281D02*
Y4405D01*
X6584Y4511D01*
Y4736D01*
X6624Y4499D02*
Y4736D01*
X6572Y4447D02*
X6624Y4499D01*
X6664Y4736D02*
X6666Y4734D01*
Y4281D02*
Y4734D01*
X7037Y4281D02*
Y4351D01*
X6824Y4565D02*
Y4736D01*
X6944Y4618D02*
Y4736D01*
X7316Y4281D02*
Y4377D01*
Y4059D02*
Y4166D01*
Y4059D02*
X7409D01*
X7410Y4060D01*
X8280Y7915D02*
X8283Y7918D01*
X8283Y7156D02*
Y7252D01*
X8161Y7041D02*
X8282D01*
X8283Y7041D01*
X8162Y7428D02*
X8278D01*
X8281Y7425D01*
X8278Y7798D02*
X8280Y7800D01*
X8161Y8189D02*
X8162Y8189D01*
X4203Y13884D02*
Y13914D01*
X4285Y13975D02*
X4292Y13983D01*
X4264Y13975D02*
X4285D01*
X4203Y13914D02*
X4264Y13975D01*
X4203Y13378D02*
Y13497D01*
X4217Y13280D02*
X4383D01*
X4401Y13263D01*
X4217Y13280D02*
Y13364D01*
X4203Y13378D02*
X4217Y13364D01*
X6054Y9159D02*
X6055Y9158D01*
X6177D01*
X5025Y12692D02*
X5151D01*
X5155Y12696D01*
X5965Y9044D02*
X6054D01*
X5964Y9043D02*
X5965Y9044D01*
X4896Y8866D02*
X5066D01*
X5067Y8865D01*
X5155Y12471D02*
Y12581D01*
X1403Y12239D02*
Y12332D01*
X1518Y12239D02*
X1527Y12230D01*
X1613D01*
X5537Y7866D02*
X5716D01*
X5537Y7866D02*
X5537Y7866D01*
X1518Y12491D02*
X1525Y12484D01*
X1613D01*
X8047Y13536D02*
X8047Y13536D01*
X8047Y13536D02*
Y13703D01*
X7402Y13078D02*
X7516D01*
X3428Y13825D02*
X3520D01*
X3422Y13820D02*
X3428Y13825D01*
X4139Y14079D02*
Y14084D01*
X4139Y14096D02*
X4144D01*
X3810Y14217D02*
X3906D01*
X3810Y14217D02*
X3810Y14217D01*
X4053Y13884D02*
Y14011D01*
X4139Y14096D01*
X4272Y13716D02*
X4350D01*
X4356Y13722D01*
X4451D02*
X4457Y13716D01*
X4356Y13722D02*
X4451D01*
X3953Y13884D02*
Y13914D01*
X1046Y13203D02*
Y13288D01*
X754Y13203D02*
Y13285D01*
X757Y13288D01*
X4358Y13761D02*
X4406D01*
X4272Y13766D02*
X4353D01*
X4358Y13761D01*
X4406D02*
X4457Y13813D01*
X4003Y13443D02*
Y13497D01*
X3995Y13434D02*
X4003Y13443D01*
X3995Y13415D02*
Y13434D01*
X1329Y13203D02*
Y13288D01*
X4153Y13884D02*
Y13942D01*
X4203Y13992D02*
Y13995D01*
X4153Y13942D02*
X4203Y13992D01*
X4272Y13666D02*
X4379D01*
X4385Y13660D02*
X4498D01*
X4572Y13734D02*
Y13741D01*
X4379Y13666D02*
X4385Y13660D01*
X4498D02*
X4572Y13734D01*
X4077Y13205D02*
Y13297D01*
X4153Y13373D01*
Y13497D01*
X6111Y13093D02*
X6204D01*
X6276D02*
X6314Y13131D01*
Y13218D01*
X6204Y13093D02*
X6276D01*
X6932Y13155D02*
X7041D01*
X7045Y13159D01*
X6018Y13450D02*
X6025Y13456D01*
X6074D02*
X6123Y13505D01*
X6206D01*
X6025Y13456D02*
X6074D01*
X6018Y13291D02*
Y13450D01*
Y13291D02*
X6126D01*
X6156Y13321D02*
X6314D01*
X6126Y13291D02*
X6156Y13321D01*
X6952Y13289D02*
X7045D01*
X1220Y13067D02*
Y13197D01*
X1214Y13203D02*
X1220Y13197D01*
X931Y13067D02*
Y13203D01*
X3830Y13565D02*
X3884D01*
X3885Y13566D01*
X639Y13072D02*
Y13203D01*
Y13072D02*
X643Y13069D01*
X9538Y13121D02*
Y13264D01*
Y13121D02*
X9542Y13118D01*
X4103Y13497D02*
X4108Y13493D01*
X4072Y13353D02*
X4108Y13389D01*
Y13493D01*
X4023Y13353D02*
X4072D01*
X3965Y13295D02*
X3967Y13297D01*
X4023Y13353D01*
X5448Y14098D02*
X5571D01*
X5577Y14093D01*
X5687D01*
X5692Y14088D01*
X5448Y14098D02*
Y14186D01*
X4572Y13856D02*
X4572Y13856D01*
X4661D01*
X4272Y13616D02*
X4350D01*
X4356Y13610D01*
X4564D01*
X4570Y13604D01*
X4664D01*
X4665Y13604D01*
X4671Y13610D01*
X4748D01*
X2400Y13039D02*
X2505D01*
X4077Y13090D02*
X4078Y13088D01*
Y12959D02*
Y13088D01*
X3964Y12959D02*
X4078D01*
X3953Y13415D02*
Y13497D01*
X3899Y13398D02*
X3900Y13400D01*
X3938D01*
X3953Y13415D01*
X3635Y13510D02*
Y13617D01*
X3642D01*
X3691Y13666D01*
X3885D01*
X3639Y13716D02*
X3885D01*
X3635Y13720D02*
X3639Y13716D01*
X3635Y13720D02*
X3635Y13720D01*
X3635Y13720D02*
Y13825D01*
X4003Y13884D02*
Y14097D01*
X4009Y14102D01*
X3906D02*
X4009D01*
X3906Y14102D02*
X3906Y14102D01*
X4052Y13496D02*
X4053Y13497D01*
X4052Y13412D02*
Y13496D01*
X4051Y13411D02*
X4052Y13412D01*
X5568Y7386D02*
X5716D01*
X5562Y7391D02*
X5568Y7386D01*
X5716Y7306D02*
X5868D01*
X5878Y7315D01*
D136*
X3350Y13653D02*
Y13747D01*
Y13653D02*
X3385Y13617D01*
X3350Y13747D02*
X3422Y13820D01*
D137*
X3423Y13720D02*
X3520D01*
X3423Y13720D02*
X3423Y13720D01*
X2685Y14026D02*
X2687Y14028D01*
Y14097D01*
X5025Y12484D02*
Y12577D01*
X1436Y13067D02*
X1441Y13072D01*
X1335Y13067D02*
X1436D01*
X1035Y12973D02*
X1306D01*
X861D02*
X1035D01*
X1046Y12983D01*
Y13067D01*
X1306Y12973D02*
X1335Y13002D01*
Y13067D01*
X765Y13069D02*
X861Y12973D01*
X758Y13069D02*
X765D01*
X4734Y9186D02*
X4896D01*
X5804Y10135D02*
Y10242D01*
X5806Y10245D01*
Y12315D02*
X6003D01*
X6007Y12319D01*
X7899Y4357D02*
Y4420D01*
X7821Y4280D02*
X7899Y4357D01*
X7727Y4373D02*
X7821Y4280D01*
X7821D01*
X7612Y4215D02*
X7708D01*
X7709Y4216D01*
X7611Y4214D02*
X7612Y4215D01*
X4217Y12967D02*
Y13149D01*
X4216Y12967D02*
X4217Y12967D01*
Y13149D02*
X4217Y13149D01*
X2197Y5486D02*
Y5563D01*
X2199Y5565D01*
Y5580D01*
X3264Y965D02*
X3264Y965D01*
X3350D01*
X2931Y10010D02*
X3213Y9728D01*
X2931Y10010D02*
X2931D01*
X3213Y9169D02*
Y9728D01*
Y9169D02*
X3492Y8890D01*
Y7188D02*
Y8890D01*
Y7188D02*
X3911Y6769D01*
Y5766D02*
Y6769D01*
X3530Y5385D02*
X3911Y5766D01*
X2456Y5385D02*
X3530D01*
X2355Y5486D02*
X2456Y5385D01*
X4292Y10483D02*
X4841Y9934D01*
X2202Y10483D02*
X4292Y10483D01*
X2044Y10325D02*
X2202Y10483D01*
X1906Y1607D02*
X2015D01*
X1297Y2088D02*
X1299Y2085D01*
X1386D01*
X1389Y2083D01*
X1386Y1973D02*
X1387Y1975D01*
X1297Y1973D02*
X1386D01*
X1869Y1643D02*
Y1759D01*
Y1643D02*
X1906Y1607D01*
X2013Y1610D02*
Y1705D01*
Y1610D02*
X2015Y1607D01*
X2010Y1708D02*
X2013Y1705D01*
X8271Y2111D02*
X8345D01*
X8348Y2107D01*
X8260Y2122D02*
X8271Y2111D01*
X7898Y2092D02*
X7898Y2092D01*
X7693Y2092D02*
X7898D01*
X7692Y2093D02*
X7693Y2092D01*
X7820Y3464D02*
X7823Y3467D01*
X7715Y3464D02*
X7820D01*
X7709Y2624D02*
X7803D01*
X7727Y2946D02*
X7896D01*
X7726Y2946D02*
X7727Y2946D01*
X7751Y2473D02*
X7898D01*
X7709Y2515D02*
Y2624D01*
Y2515D02*
X7751Y2473D01*
X5879Y2135D02*
X5880Y2134D01*
X5988D02*
X5989Y2133D01*
X5880Y2134D02*
X5988D01*
X5949Y2034D02*
X5972Y2010D01*
X5877Y2037D02*
X5880Y2034D01*
X5972Y2009D02*
Y2010D01*
X5880Y2034D02*
X5949D01*
X5880Y1877D02*
X5971D01*
X5972Y1878D01*
X5879Y1876D02*
X5880Y1877D01*
X6202Y4062D02*
Y4163D01*
Y4062D02*
X6205Y4059D01*
X6199Y4166D02*
X6202Y4163D01*
X4896Y7906D02*
X5048D01*
X5054Y7899D01*
X5562Y8026D02*
X5716D01*
X8495Y3144D02*
X8496Y3145D01*
X8407Y3143D02*
X8409Y3144D01*
X8495D01*
X8430Y2283D02*
X8506D01*
X8509Y2286D01*
X8428Y2280D02*
X8430Y2283D01*
X9560Y12678D02*
X9657Y12774D01*
Y13118D01*
X8982Y12678D02*
X9560D01*
X8872Y12568D02*
X8982Y12678D01*
X8757Y12568D02*
X8872D01*
X8724Y12536D02*
X8757Y12568D01*
X8724Y12471D02*
Y12536D01*
X6332Y9934D02*
X6505Y10107D01*
X7518D01*
X6177Y9043D02*
X6178Y9042D01*
Y8958D02*
X6178Y8957D01*
X6178Y8958D02*
Y9042D01*
X6807Y4066D02*
Y4069D01*
Y4064D02*
Y4066D01*
X2687Y14097D02*
X2689Y14099D01*
X4841Y9934D02*
X6332D01*
X1004Y1581D02*
X1090D01*
X1091Y1582D01*
X1003Y1580D02*
X1004Y1581D01*
X3349Y710D02*
X3351Y709D01*
X7082Y4063D02*
Y4064D01*
Y4059D02*
Y4063D01*
X7048Y4098D02*
Y4155D01*
X7037Y4166D02*
X7048Y4155D01*
Y4098D02*
X7082Y4064D01*
X7123Y4104D02*
Y4158D01*
X7132Y4166D01*
X7082Y4063D02*
X7123Y4104D01*
X6759Y4166D02*
X6770Y4155D01*
Y4106D02*
X6807Y4069D01*
X6770Y4106D02*
Y4155D01*
X6843Y4102D02*
Y4158D01*
X6852Y4166D01*
X6807Y4066D02*
X6843Y4102D01*
X6581Y4103D02*
X6624Y4060D01*
X6572Y4166D02*
X6581Y4158D01*
Y4103D02*
Y4158D01*
X6624Y4060D02*
Y4063D01*
Y4059D02*
Y4060D01*
X6660Y4160D02*
X6666Y4166D01*
X6624Y4063D02*
X6660Y4100D01*
Y4160D01*
X6380Y4096D02*
Y4164D01*
X6345Y4059D02*
Y4061D01*
X6380Y4164D02*
X6382Y4166D01*
X6345Y4061D02*
X6380Y4096D01*
X6295Y4108D02*
X6345Y4059D01*
X6295Y4108D02*
Y4164D01*
X6293Y4166D02*
X6295Y4164D01*
X3252Y578D02*
X3350D01*
X3351Y578D01*
X3251Y579D02*
X3252Y578D01*
X3252Y710D02*
X3349D01*
X3251Y711D02*
X3252Y710D01*
X3264Y855D02*
X3269Y850D01*
X3350D01*
X1862Y869D02*
X1863Y869D01*
Y955D01*
X1340Y613D02*
X1346Y619D01*
X1340Y468D02*
Y613D01*
X1535Y619D02*
X1578D01*
X1532Y622D02*
X1535Y619D01*
X1578D02*
X1600Y596D01*
Y468D02*
Y596D01*
X1513Y641D02*
X1532Y622D01*
X1513Y641D02*
Y727D01*
Y810D01*
X1234Y1607D02*
Y1746D01*
X1298Y1881D02*
X1299Y1880D01*
X1297Y1973D02*
X1298Y1972D01*
Y1881D02*
Y1972D01*
X1299Y1746D02*
Y1880D01*
X2015Y1397D02*
X2015Y1397D01*
Y1492D01*
X1924Y2076D02*
Y2159D01*
X1817Y2079D02*
X1820Y2076D01*
X1727Y2083D02*
X1730Y2079D01*
X1817D01*
X2957Y1945D02*
Y2026D01*
Y1945D02*
X2959Y1943D01*
X2956Y2027D02*
X2957Y2026D01*
X2689Y2025D02*
X2777D01*
X2198Y5579D02*
X2199Y5580D01*
X2355Y5486D02*
X2356Y5487D01*
Y5579D01*
X4316Y2025D02*
X4327Y2036D01*
X4316Y1907D02*
Y2017D01*
X4327Y2036D02*
X4335D01*
X4316Y2017D02*
Y2025D01*
X4316Y2017D02*
X4316Y2017D01*
X4216Y1859D02*
Y1869D01*
X4254Y1907D01*
X4316D01*
X4216Y1776D02*
X4316D01*
X5194Y2197D02*
X5194Y2197D01*
X5194Y2070D02*
Y2197D01*
X5054Y2034D02*
X5065Y2045D01*
X4983Y2012D02*
X5005Y2034D01*
X5065Y2045D02*
Y2053D01*
X5005Y2034D02*
X5054D01*
X4978Y2012D02*
X4983D01*
X4864D02*
X4978D01*
X6509Y2110D02*
X6629D01*
X6706Y2138D02*
Y2234D01*
X6839Y2155D02*
Y2261D01*
X7504Y3464D02*
X7600D01*
X7715Y3342D02*
X7726Y3331D01*
X7715Y3342D02*
Y3464D01*
X7726Y3327D02*
Y3331D01*
X7485Y2624D02*
X7485Y2624D01*
X7594D01*
X8260Y2438D02*
Y2527D01*
X8240Y3298D02*
Y3371D01*
X8240Y2893D02*
X8240Y2893D01*
Y2976D01*
X7896Y2946D02*
X7897Y2945D01*
X7726Y3327D02*
X7727Y3326D01*
X7897D01*
X6929Y2767D02*
X7015D01*
X7018Y2770D01*
X6926Y2763D02*
X6929Y2767D01*
X7072Y3435D02*
X7074Y3437D01*
X7072Y3335D02*
Y3435D01*
X7083Y3072D02*
X7088Y3076D01*
Y3177D01*
X7785Y5706D02*
X7869D01*
X7702D02*
X7785D01*
X7787Y5205D02*
X7860D01*
X7861Y5205D01*
X7786Y5204D02*
X7787Y5205D01*
X7786Y5204D02*
X7786Y5204D01*
X7696Y5204D02*
X7696Y5204D01*
X7786D01*
X7160Y13289D02*
X7247D01*
X6429Y13218D02*
X6526D01*
X7391Y13691D02*
X7393Y13693D01*
Y13789D02*
X7395Y13791D01*
X7160Y13159D02*
X7247D01*
X3422Y13510D02*
X3520D01*
X4144Y14227D02*
X4232D01*
X4235Y14224D01*
X4009Y14217D02*
Y14313D01*
X4570Y13398D02*
Y13489D01*
X5716Y8826D02*
X5879D01*
X5905Y8852D01*
X5554Y8746D02*
X5716D01*
X5550Y8741D02*
X5554Y8746D01*
X4896Y9266D02*
X5049D01*
X5054Y9260D01*
X4725Y6946D02*
X4895D01*
X4724Y6947D02*
X4725Y6946D01*
X4895D02*
X4896Y6946D01*
X3962Y12751D02*
X3963Y12751D01*
Y12843D02*
X3964Y12844D01*
X3963Y12751D02*
Y12843D01*
X4076Y12751D02*
X4077Y12752D01*
Y12843D01*
X4078Y12844D01*
X5562Y8268D02*
X5563Y8267D01*
X5715D02*
X5716Y8266D01*
X5563Y8267D02*
X5715D01*
X5716Y8346D02*
X5885D01*
X5886Y8344D01*
X5551Y8904D02*
X5714D01*
X5550Y8903D02*
X5551Y8904D01*
X5714D02*
X5716Y8906D01*
X5555Y8586D02*
X5716D01*
X5554Y8585D02*
X5555Y8586D01*
X5716Y8666D02*
X5871D01*
X4740Y8786D02*
X4896D01*
X4737Y8788D02*
X4740Y8786D01*
X4896Y8546D02*
X5065D01*
X5066Y8547D01*
X4741Y8226D02*
X4896D01*
X4737Y8230D02*
X4741Y8226D01*
X5716Y7466D02*
X5878D01*
X5880Y7464D01*
X5563Y7226D02*
X5716D01*
X5562Y7226D02*
X5563Y7226D01*
X4896Y7026D02*
X5057D01*
X6002Y7814D02*
X6086D01*
X6195Y7813D02*
X6197Y7810D01*
X6086Y7814D02*
X6087Y7813D01*
X6195D01*
X6002Y7052D02*
X6086D01*
X6087Y7051D02*
X6195D01*
X6197Y7048D01*
X6086Y7052D02*
X6087Y7051D01*
X7898Y9747D02*
X7982D01*
X7823D02*
X7898D01*
X7823Y9253D02*
X7898D01*
X7982D01*
X9700Y13264D02*
X9811D01*
X6477Y4059D02*
Y4166D01*
X6945Y4059D02*
Y4166D01*
X7410Y3838D02*
Y3945D01*
X6010Y3836D02*
Y3944D01*
X7394Y4502D02*
X7456D01*
X7497Y4543D01*
X7362Y4470D02*
X7394Y4502D01*
X7717Y4373D02*
X7727D01*
X5918Y4166D02*
X6010D01*
X7226Y4059D02*
Y4166D01*
X7316Y3837D02*
Y3944D01*
X6104Y3836D02*
Y3944D01*
D138*
X7160Y13882D02*
X7270Y13992D01*
X4407Y6349D02*
Y6388D01*
Y6261D02*
Y6349D01*
X4305Y6159D02*
Y6248D01*
Y5677D02*
Y6159D01*
Y6248D02*
X4407Y6349D01*
X4366Y5616D02*
X4428Y5554D01*
X4305Y5677D02*
X4366Y5616D01*
X4407Y6185D02*
Y6261D01*
X4305Y6159D02*
X4407Y6261D01*
Y6439D02*
X4503D01*
X4407Y6185D02*
X4464Y6242D01*
X4366Y6145D02*
X4407Y6185D01*
X4593Y5554D02*
X4638Y5599D01*
X4366Y5717D02*
Y6145D01*
Y5616D02*
Y5717D01*
X4428Y5554D02*
X4530D01*
X4638Y5599D02*
X4803D01*
X4673Y5554D02*
X4758D01*
X4593D02*
X4673D01*
X4530D02*
X4593D01*
X4366Y5717D02*
X4432Y5651D01*
X4530Y5554D01*
X4623Y5651D02*
X4751D01*
X4496D02*
X4623D01*
X4559Y5588D02*
X4593Y5554D01*
X4496Y5651D02*
X4559Y5588D01*
X4623Y5651D01*
X4751D02*
X4803Y5599D01*
X4432Y5651D02*
X4496D01*
X4464Y6331D02*
X4503Y6291D01*
X4407Y6388D02*
X4464Y6331D01*
X4464Y6242D02*
X4503Y6281D01*
X4464Y6242D02*
Y6331D01*
Y6242D02*
X4464Y6242D01*
X4503Y6439D02*
X4607D01*
X4503Y6291D02*
Y6388D01*
Y6285D02*
Y6291D01*
Y6281D02*
Y6285D01*
X4607Y6388D01*
X4407Y6439D02*
Y6490D01*
Y6388D02*
Y6439D01*
X4607D02*
Y6490D01*
Y6388D02*
Y6439D01*
X4503D02*
Y6490D01*
Y6388D02*
Y6439D01*
Y6490D02*
X4607D01*
X4407D02*
X4503D01*
Y6388D02*
X4607D01*
X4407D02*
X4503D01*
X4758Y5554D02*
X4803Y5599D01*
X4447Y1624D02*
Y1776D01*
Y1907D01*
Y1912D02*
X4452Y1917D01*
X4635D01*
X4447Y1907D02*
Y1912D01*
X6566Y14008D02*
X6621Y14063D01*
X6452Y13894D02*
X6566Y14008D01*
X7272Y13993D02*
Y14063D01*
X7270Y13992D02*
X7272Y13993D01*
X7270Y13992D02*
Y13992D01*
X6566Y14008D02*
Y14008D01*
X7378Y8188D02*
X7838D01*
X7297D02*
X7378D01*
Y7807D02*
Y7899D01*
X7463Y7815D01*
Y7807D02*
X7838D01*
X7378D02*
X7463D01*
Y7815D01*
X7895Y7807D02*
X8038D01*
X4401Y13088D02*
X4407Y13094D01*
X4521D01*
X7839Y8189D02*
X8046D01*
X7838Y8188D02*
X7839Y8189D01*
X8283Y7918D02*
Y8014D01*
X8283Y8304D02*
Y8395D01*
X8161Y7798D02*
X8278D01*
X8162Y8189D02*
X8283D01*
D139*
X7602Y14084D02*
X7603Y14085D01*
X6680Y13056D02*
Y13154D01*
X3960Y13082D02*
Y13089D01*
X3175Y13487D02*
X3574Y13088D01*
X3766D01*
X6706Y1964D02*
X6763D01*
X6706Y1918D02*
X6839D01*
X6676Y2015D02*
X6706Y1985D01*
X6553Y2015D02*
X6609D01*
X6509D02*
X6553D01*
X6676D02*
X6712D01*
X6650Y1918D02*
X6706D01*
X6553Y2015D02*
X6650Y1918D01*
X5118Y1829D02*
X5194D01*
X5150Y1862D02*
Y1873D01*
X5118Y1829D02*
Y1830D01*
X4946Y1872D02*
X4990Y1828D01*
X5066Y1881D02*
X5118Y1829D01*
X5194Y1829D02*
X5194Y1829D01*
X5118Y1830D02*
X5150Y1862D01*
X5118Y1828D02*
X5118Y1829D01*
X4990Y1828D02*
X5118D01*
Y1829D01*
X5053Y1917D02*
X5065Y1930D01*
Y1938D01*
X5066Y1917D02*
X5105D01*
X5066Y1938D02*
X5146D01*
X5029Y1917D02*
X5053D01*
X5066D01*
X5029D02*
X5066Y1881D01*
X4903Y1915D02*
X4946Y1872D01*
X5066Y1881D02*
X5142D01*
X5105Y1917D02*
X5142Y1881D01*
X5066Y1917D02*
Y1938D01*
X5057Y1872D02*
X5066Y1881D01*
X4946Y1872D02*
X5057D01*
X5146Y1876D02*
X5150Y1873D01*
X4864Y1917D02*
X5029D01*
X6609Y2015D02*
X6676D01*
X6706Y1985D02*
Y2009D01*
Y1964D02*
Y1985D01*
X6609Y2015D02*
X6706Y1918D01*
X6803Y2015D02*
X6839D01*
X6712D02*
X6803D01*
Y2004D02*
Y2015D01*
X6763Y1964D02*
X6803Y2004D01*
X6763Y1964D02*
X6831D01*
X6712Y2015D02*
X6763Y1964D01*
X6706Y1918D02*
Y1964D01*
X6839Y1956D02*
Y2015D01*
Y1918D02*
Y1956D01*
X6831Y1964D02*
X6839Y1956D01*
X6706Y2009D02*
X6712Y2015D01*
X6839D02*
Y2024D01*
X5146Y1938D02*
X5193D01*
X5142Y1881D02*
X5146Y1876D01*
Y1938D01*
X5066Y1881D02*
Y1917D01*
X5194Y1908D02*
Y1939D01*
Y1829D02*
Y1908D01*
X5150Y1873D02*
X5194Y1829D01*
X5159Y1873D02*
X5194Y1908D01*
X5150Y1873D02*
X5159D01*
X5065Y1938D02*
X5066Y1938D01*
X5193D02*
X5194Y1939D01*
X1403Y12491D02*
Y12586D01*
Y12789D02*
Y12867D01*
X5004Y13335D02*
X5079Y13410D01*
X4701Y13445D02*
X4834D01*
X4701Y13404D02*
Y13445D01*
X4665Y13489D02*
X5040D01*
X5080Y13449D01*
X4820Y13373D02*
X4915D01*
X4932Y13424D02*
X4938Y13418D01*
X4915Y13441D02*
X4932Y13424D01*
X4910Y13445D02*
X4915Y13441D01*
Y13373D02*
X5004D01*
Y13418D02*
Y13432D01*
Y13411D02*
Y13418D01*
X4996D02*
X5004Y13411D01*
X4990Y13424D02*
X4996Y13418D01*
X5004D02*
X5071D01*
X4996D02*
X5004D01*
X4938D02*
X4996D01*
X5071D02*
X5079Y13410D01*
X5017Y13445D02*
X5020Y13448D01*
X5004Y13432D02*
X5017Y13445D01*
X5076D01*
X4910D02*
X5017D01*
X5020Y13448D02*
X5079D01*
X5080Y13449D01*
X5076Y13445D02*
X5079Y13448D01*
Y13410D02*
Y13448D01*
X4744Y13404D02*
X4813Y13335D01*
X4744Y13404D02*
X4793D01*
X4737D02*
X4744D01*
X4701Y13363D02*
Y13404D01*
X4771Y13335D02*
X4813D01*
X4728D02*
X4771D01*
X4701Y13404D02*
X4737D01*
Y13369D02*
X4771Y13335D01*
X4737Y13369D02*
Y13404D01*
X4813Y13379D02*
Y13423D01*
X4801Y13411D02*
X4813Y13423D01*
X4793Y13404D02*
X4800Y13411D01*
X4813Y13423D02*
Y13424D01*
X4800Y13411D02*
X4801D01*
X4665Y13398D02*
X4701Y13363D01*
X4728Y13335D01*
X4834Y13445D02*
X4910D01*
X4665Y13481D02*
Y13489D01*
Y13398D02*
Y13481D01*
X4701Y13445D01*
X4915Y13373D02*
Y13441D01*
Y13335D02*
Y13373D01*
X5004D02*
Y13411D01*
Y13335D02*
Y13373D01*
X4813Y13335D02*
Y13379D01*
X4820Y13373D01*
X4915Y13335D02*
X5004D01*
X4813D02*
X4915D01*
X8625Y2374D02*
X8673Y2421D01*
X8873D02*
X8877Y2417D01*
X8673Y2421D02*
X8873D01*
X9030Y2417D02*
X9097Y2350D01*
X8877Y2417D02*
X9030D01*
X8674Y2135D02*
X8871D01*
X8625Y2184D02*
X8674Y2135D01*
X8873Y2136D02*
X8877Y2132D01*
X9011D01*
X9102Y2223D01*
Y2338D02*
Y2345D01*
X9097Y2350D02*
X9097D01*
X9102Y2345D01*
X8625Y3256D02*
Y3265D01*
X8660Y3301D02*
X8835D01*
X8605Y3236D02*
X8625Y3256D01*
Y3265D02*
X8660Y3301D01*
X8835D02*
X8849Y3314D01*
Y3299D02*
X9019D01*
X9084Y3234D01*
X8849Y3029D02*
X8874Y3055D01*
X9019D02*
X9084Y3119D01*
X8874Y3055D02*
X9019D01*
X9739Y2506D02*
X9770D01*
X9570Y2338D02*
X9739Y2506D01*
X9102Y2338D02*
X9570D01*
X9102Y2223D02*
X9584D01*
X9770Y1998D02*
Y2036D01*
X9584Y2223D02*
X9770Y2036D01*
X9584Y3014D02*
X9770D01*
X9479Y3119D02*
X9584Y3014D01*
X9084Y3119D02*
X9479D01*
X9084Y3234D02*
X9482D01*
X9770Y3522D01*
X3766Y13088D02*
X3767Y13089D01*
X3960D01*
X8043Y13253D02*
X8153D01*
X4335Y2141D02*
Y2252D01*
X5989Y2336D02*
X5989Y2337D01*
X5989Y2246D02*
Y2336D01*
X8265Y2349D02*
X8269Y2346D01*
X8321D02*
X8349Y2374D01*
X8625D01*
X8269Y2346D02*
X8321D01*
X8260Y2345D02*
X8265Y2349D01*
X8336Y2216D02*
X8368Y2184D01*
X8625D01*
X8260Y2216D02*
X8336D01*
X7898Y2219D02*
X8142D01*
X8145Y2216D01*
Y2122D02*
Y2216D01*
Y2345D02*
Y2438D01*
X8144Y2346D02*
X8145Y2345D01*
X7898Y2346D02*
X8144D01*
X8832Y3046D02*
X8849Y3029D01*
X8605Y3046D02*
X8832D01*
X8314Y3204D02*
X8346Y3236D01*
X8605D01*
X8240Y3204D02*
X8314D01*
X8317Y3075D02*
X8346Y3046D01*
X8605D01*
X8240Y3075D02*
X8317D01*
X8125Y2976D02*
Y3075D01*
X8121Y3072D02*
X8125Y3075D01*
X7897Y3072D02*
X8121D01*
X8125Y3204D02*
Y3298D01*
X8120Y3199D02*
X8125Y3204D01*
X7897Y3199D02*
X8120D01*
X6654Y3435D02*
X6655Y3435D01*
X6654Y3339D02*
Y3435D01*
X4932Y13424D02*
X4990D01*
X4813D02*
X4834Y13445D01*
X7837Y13537D02*
X7930D01*
X7836Y13538D02*
X7837Y13537D01*
X7930D02*
X7932Y13536D01*
X7601Y14086D02*
X7602Y14084D01*
X7748Y14085D02*
X7749Y14084D01*
X7603Y14085D02*
X7748D01*
X7392Y13925D02*
Y14020D01*
X7391Y14021D02*
X7392Y14020D01*
Y13925D02*
X7395Y13922D01*
X6680Y13154D02*
X6680Y13155D01*
X5919Y12993D02*
Y13091D01*
X5918Y12992D02*
X5919Y12993D01*
Y13091D02*
X5921Y13093D01*
D140*
X5740Y11992D02*
X5744D01*
X5764Y12012D01*
X5877D02*
X5884Y12005D01*
X5764Y12012D02*
X5877D01*
X5764Y12048D02*
X5877D01*
X5884Y12055D01*
X5744Y12068D02*
X5764Y12048D01*
X5740Y12068D02*
X5744D01*
X2265Y605D02*
X2272Y598D01*
Y562D02*
X2304D01*
X2324Y542D01*
X2182Y555D02*
X2265D01*
X2272Y598D02*
X2304D01*
X2324Y618D01*
X2265Y555D02*
X2272Y562D01*
X2182Y605D02*
X2265D01*
X3032Y1005D02*
X3096D01*
X3103Y1012D02*
X3171D01*
X3096Y1005D02*
X3103Y1012D01*
X3032Y1055D02*
X3096D01*
X3103Y1048D02*
X3156D01*
X3096Y1055D02*
X3103Y1048D01*
X2616Y1332D02*
X2625Y1323D01*
X2616Y1390D02*
X2636Y1410D01*
X2560D02*
X2580Y1390D01*
Y1317D02*
X2589Y1308D01*
X2625Y1277D02*
Y1323D01*
X2616Y1332D02*
Y1390D01*
X2580Y1317D02*
Y1390D01*
X2589Y1277D02*
Y1308D01*
X2582Y1270D02*
X2589Y1277D01*
X2582Y1205D02*
Y1270D01*
X2625Y1277D02*
X2632Y1270D01*
Y1205D02*
Y1270D01*
X2732Y1205D02*
Y1270D01*
X2725Y1277D02*
Y1309D01*
X2745Y1329D02*
Y1333D01*
X2725Y1277D02*
X2732Y1270D01*
X2725Y1309D02*
X2745Y1329D01*
X2682Y1205D02*
Y1270D01*
X2689Y1277D02*
Y1309D01*
X2671Y1327D02*
Y1333D01*
X2682Y1270D02*
X2689Y1277D01*
X2671Y1327D02*
X2689Y1309D01*
X2044Y718D02*
X2049D01*
X2044Y642D02*
X2049D01*
Y718D02*
X2069Y698D01*
X2049Y642D02*
X2069Y662D01*
X2110D02*
X2117Y655D01*
X2069Y662D02*
X2110D01*
X2069Y698D02*
X2110D01*
X2117Y705D02*
X2182D01*
X2110Y698D02*
X2117Y705D01*
Y655D02*
X2182D01*
X2313Y235D02*
X2317D01*
X2375Y257D02*
Y284D01*
X2398Y234D02*
X2399D01*
X2375Y257D02*
X2398Y234D01*
X2332Y291D02*
X2339Y284D01*
X2332Y291D02*
Y355D01*
X2317Y235D02*
X2339Y257D01*
X2375Y284D02*
X2382Y291D01*
Y355D01*
X2339Y257D02*
Y284D01*
X2892Y1321D02*
X2895D01*
X2875Y1304D02*
X2892Y1321D01*
X2875Y1277D02*
Y1304D01*
X2819Y1321D02*
X2822D01*
X2875Y1277D02*
X2882Y1270D01*
Y1205D02*
Y1270D01*
X2832Y1270D02*
X2839Y1277D01*
X2822Y1321D02*
X2839Y1304D01*
X2832Y1205D02*
Y1270D01*
X2839Y1277D02*
Y1304D01*
X1726Y1627D02*
Y1669D01*
X1719Y1676D02*
X1726Y1669D01*
X1719Y1676D02*
Y1759D01*
X1706Y1607D02*
X1726Y1627D01*
X1706Y1607D02*
Y1618D01*
X1762Y1627D02*
X1783Y1607D01*
X1762Y1627D02*
Y1669D01*
X1769Y1676D01*
Y1759D01*
X1756Y1486D02*
X1776Y1466D01*
X1812D02*
X1833Y1486D01*
X1812Y1428D02*
Y1466D01*
Y1428D02*
X1819Y1421D01*
Y1338D02*
Y1421D01*
X1776Y1428D02*
Y1466D01*
X1769Y1421D02*
X1776Y1428D01*
X1769Y1338D02*
Y1421D01*
X3685Y2865D02*
X3705Y2885D01*
X3629D02*
X3649Y2865D01*
Y2827D02*
Y2865D01*
X3685Y2827D02*
Y2865D01*
Y2827D02*
X3687Y2825D01*
Y2782D02*
Y2825D01*
X3647D02*
X3649Y2827D01*
X3647Y2782D02*
Y2825D01*
X2893Y1003D02*
Y1034D01*
X2877Y1070D02*
X2967Y1159D01*
X3182D01*
X2846Y1067D02*
X2849Y1070D01*
X2877D01*
X2981Y1123D02*
X3167D01*
X2893Y1034D02*
X2981Y1123D01*
X3167D02*
X3187Y1103D01*
Y1079D02*
Y1103D01*
X3156Y1048D02*
X3187Y1079D01*
X3171Y1012D02*
X3223Y1064D01*
X3182Y1159D02*
X3223Y1118D01*
Y1064D02*
Y1118D01*
X1783Y1607D02*
Y1618D01*
X2331Y868D02*
X2341D01*
X2246Y855D02*
X2253Y848D01*
X2182Y855D02*
X2246D01*
X2311Y848D02*
X2331Y868D01*
X2253Y848D02*
X2311D01*
X1676Y1224D02*
Y1262D01*
X1676Y1220D02*
Y1224D01*
X1676Y1224D02*
X1676Y1224D01*
X1675Y1263D02*
Y1332D01*
X1669Y1338D02*
X1675Y1332D01*
Y1263D02*
X1676Y1262D01*
X1656Y1194D02*
Y1200D01*
X1676Y1220D01*
X2253Y812D02*
X2311D01*
X2182Y805D02*
X2246D01*
X2331Y792D02*
X2341D01*
X2246Y805D02*
X2253Y812D01*
X2311D02*
X2331Y792D01*
X1713Y1332D02*
X1719Y1338D01*
X1713Y1263D02*
Y1332D01*
X1712Y1262D02*
X1713Y1263D01*
X1712Y1239D02*
X1712Y1239D01*
X1712Y1239D02*
Y1262D01*
X1712Y1220D02*
Y1239D01*
X1733Y1194D02*
Y1200D01*
X1712Y1220D02*
X1733Y1200D01*
X1420Y867D02*
Y883D01*
Y648D02*
Y675D01*
X1420Y867D02*
X1420Y867D01*
X1420Y835D02*
Y867D01*
Y675D02*
Y701D01*
X1420Y557D02*
Y648D01*
X1400Y904D02*
X1420Y883D01*
X1413Y828D02*
X1420Y835D01*
X1400Y904D02*
Y914D01*
X1413Y727D02*
Y810D01*
Y828D01*
X1420Y648D02*
X1420Y648D01*
X1413Y708D02*
X1420Y701D01*
X1418Y555D02*
X1420Y557D01*
X1413Y708D02*
Y727D01*
X1418Y481D02*
Y555D01*
X1405Y468D02*
X1418Y481D01*
X1476Y904D02*
Y914D01*
X1463Y727D02*
Y810D01*
Y828D01*
Y708D02*
Y727D01*
X1458Y481D02*
Y555D01*
X1456Y883D02*
X1476Y904D01*
X1456Y701D02*
X1463Y708D01*
X1456Y835D02*
X1463Y828D01*
X1456Y852D02*
Y883D01*
X1456Y835D02*
Y852D01*
X1456Y852D01*
X1456Y633D02*
X1456Y633D01*
X1458Y481D02*
X1470Y468D01*
X1456Y557D02*
X1458Y555D01*
X1456Y684D02*
X1456Y684D01*
X1456Y684D02*
Y701D01*
X1456Y633D02*
Y684D01*
X1456Y557D02*
Y633D01*
D141*
X3159Y854D02*
X3162Y851D01*
X3033Y854D02*
X3159D01*
X3126Y905D02*
X3160Y940D01*
X2506Y5765D02*
X2567Y5826D01*
Y5866D01*
X2407Y6073D02*
X2411D01*
X2447Y6110D01*
Y5825D02*
X2505Y5766D01*
X2447Y5825D02*
Y5866D01*
X6464Y6271D02*
X6464Y6271D01*
X2687Y5969D02*
X2727Y5929D01*
Y5866D02*
Y5929D01*
X3032Y905D02*
X3126D01*
X3032Y855D02*
X3033Y854D01*
X2047Y506D02*
X2047Y505D01*
X2044Y508D02*
X2047Y506D01*
X6904Y6272D02*
Y6462D01*
X6921Y6480D02*
Y6490D01*
X6904Y6462D02*
X6921Y6480D01*
X7245Y5746D02*
X7263Y5728D01*
X7357D01*
X7235Y5746D02*
X7245D01*
X7325Y5260D02*
X7341Y5244D01*
X7491D01*
X7315Y5260D02*
X7325D01*
X2447Y6110D02*
Y6174D01*
X2327Y6076D02*
Y6174D01*
X2326Y6076D02*
X2327Y6076D01*
X2287Y5928D02*
X2326Y5967D01*
X2287Y5866D02*
Y5928D01*
X2326Y5967D02*
Y6076D01*
X2327Y6174D02*
X2327Y6174D01*
X7362Y5009D02*
X7397Y5044D01*
X7362Y4946D02*
Y5009D01*
X7397Y5044D02*
X7491D01*
X7367Y4850D02*
Y4855D01*
X7344Y4826D02*
X7367Y4850D01*
X7344Y6371D02*
X7368Y6396D01*
X7344Y6272D02*
Y6371D01*
X7368Y6396D02*
Y6406D01*
X2767Y2474D02*
X2767Y2474D01*
Y2373D02*
Y2474D01*
Y2373D02*
X2771Y2369D01*
X2527Y2474D02*
Y2576D01*
Y2474D02*
X2527Y2474D01*
X2524Y2579D02*
X2527Y2576D01*
X1644Y1910D02*
X1669Y1885D01*
X1644Y1910D02*
Y1914D01*
X1669Y1759D02*
Y1885D01*
X3087Y6095D02*
Y6174D01*
X3075Y6083D02*
X3087Y6095D01*
X3006Y6083D02*
X3075D01*
X3087Y6174D02*
X3087Y6174D01*
X7268Y5907D02*
X7277D01*
X7298Y5928D02*
X7365D01*
X7277Y5907D02*
X7298Y5928D01*
X7365D02*
X7400Y5963D01*
X7490D01*
X7491Y5964D01*
X2895Y6060D02*
Y6070D01*
Y6051D02*
Y6060D01*
X2567Y6083D02*
X2635D01*
X2687Y6135D02*
Y6174D01*
X2635Y6083D02*
X2687Y6135D01*
Y6174D02*
X2687Y6174D01*
X2927Y5866D02*
Y5919D01*
X2928Y5920D02*
Y6018D01*
X2927Y5866D02*
X2927Y5866D01*
Y5919D02*
X2928Y5920D01*
X2895Y6051D02*
X2928Y6018D01*
X3287Y6174D02*
Y6221D01*
X3287Y6174D02*
X3287Y6174D01*
Y6221D02*
X3340Y6274D01*
X2567Y6083D02*
Y6174D01*
X2887Y6078D02*
Y6174D01*
Y6078D02*
X2895Y6070D01*
X2282Y755D02*
X2332Y705D01*
X2182Y755D02*
X2282D01*
X2074Y905D02*
X2182D01*
X2019Y851D02*
X2074Y905D01*
X2044Y1130D02*
X2045D01*
X2120Y1055D01*
X2182D01*
X2040Y1041D02*
X2076Y1005D01*
X2182D01*
X2037Y1041D02*
X2040D01*
X2432Y476D02*
X2438Y483D01*
X2432Y355D02*
Y476D01*
X2332Y1205D02*
Y1305D01*
X2311Y1326D02*
Y1333D01*
Y1326D02*
X2332Y1305D01*
X2482Y1205D02*
X2483Y1207D01*
Y1328D02*
X2489Y1333D01*
X2483Y1207D02*
Y1328D01*
X2532Y1205D02*
X2533Y1204D01*
Y1071D02*
X2538Y1067D01*
X2533Y1071D02*
Y1204D01*
X2891Y915D02*
X2932Y955D01*
X3032D01*
X1869Y1200D02*
Y1338D01*
X3727Y2680D02*
Y2782D01*
X1807Y2372D02*
Y2474D01*
X1927Y2372D02*
Y2474D01*
X2047Y2372D02*
Y2474D01*
X2167Y2372D02*
Y2474D01*
X2287Y2372D02*
Y2474D01*
X2407Y2372D02*
Y2474D01*
X2647Y2372D02*
Y2474D01*
X2887Y2372D02*
Y2474D01*
X3007Y2372D02*
Y2474D01*
X3127Y2372D02*
Y2474D01*
X3247Y2372D02*
Y2474D01*
X3367Y2372D02*
Y2474D01*
X3487Y2372D02*
Y2474D01*
X3607Y2372D02*
Y2474D01*
Y2680D02*
Y2782D01*
X3487Y2680D02*
Y2782D01*
X3367Y2680D02*
Y2782D01*
X3247Y2680D02*
Y2782D01*
X3127Y2680D02*
Y2782D01*
X3007Y2680D02*
Y2782D01*
X2647Y2680D02*
Y2782D01*
X2527Y2680D02*
Y2782D01*
X2407Y2680D02*
Y2782D01*
X2287Y2680D02*
Y2782D01*
X2167Y2680D02*
Y2782D01*
X2047Y2680D02*
Y2782D01*
X1927Y2680D02*
Y2782D01*
X1807Y2680D02*
Y2782D01*
X2287Y5866D02*
X2287Y5866D01*
X3127Y5778D02*
Y5866D01*
X3327Y5778D02*
Y5866D01*
X3487D02*
Y5956D01*
X3727Y5866D02*
Y5956D01*
X3607Y5866D02*
Y5956D01*
X3727Y6089D02*
Y6174D01*
X3721Y6083D02*
X3727Y6089D01*
X3607Y6083D02*
Y6174D01*
X3487Y6083D02*
Y6174D01*
X1997Y5766D02*
Y5775D01*
X2007Y5785D02*
Y5866D01*
X1997Y5775D02*
X2007Y5785D01*
X1967Y5796D02*
X1997Y5766D01*
X1967Y5796D02*
Y5866D01*
X1807Y5766D02*
Y5866D01*
X5829Y5884D02*
X5956D01*
X5829Y6004D02*
X5956D01*
X5834Y6124D02*
X5834Y6124D01*
X5956D01*
X6704Y6272D02*
Y6370D01*
X6670Y6404D02*
Y6405D01*
Y6404D02*
X6704Y6370D01*
X6640Y6155D02*
X6664Y6179D01*
Y6272D01*
X6640Y6151D02*
Y6155D01*
X6264Y6395D02*
X6272Y6403D01*
X6264Y6272D02*
Y6395D01*
X6464Y6157D02*
Y6271D01*
Y6157D02*
X6464Y6157D01*
X6464Y6272D02*
X6464Y6271D01*
X6544Y6403D02*
X6545Y6405D01*
X6544Y6272D02*
Y6403D01*
X6824Y6272D02*
Y6405D01*
X6944Y6152D02*
Y6272D01*
X7103Y6404D02*
Y6467D01*
Y6404D02*
X7144Y6363D01*
Y6272D02*
Y6363D01*
X7594Y5444D02*
X7616Y5422D01*
X7491Y5444D02*
X7594D01*
X7369Y5675D02*
X7416Y5723D01*
X7333Y5669D02*
X7339Y5675D01*
X7369D01*
X7416Y5723D02*
X7490D01*
X7491Y5724D01*
X7357Y5728D02*
X7392Y5763D01*
X7490D01*
X7491Y5764D01*
X6345Y4738D02*
Y4872D01*
X6350Y4877D01*
X6344Y4736D02*
X6345Y4738D01*
X5846Y5324D02*
X5956D01*
X5817Y5353D02*
X5846Y5324D01*
X3784Y13616D02*
X3885D01*
X3764Y13595D02*
X3784Y13616D01*
X6264Y4633D02*
Y4736D01*
Y4633D02*
X6286Y4610D01*
Y4620D02*
X6304Y4637D01*
Y4736D01*
X6286Y4610D02*
Y4620D01*
X7024Y4736D02*
Y4844D01*
X6995Y4873D02*
X7024Y4844D01*
X5817Y5244D02*
X5956D01*
X5816Y5245D02*
X5817Y5244D01*
X5956Y5284D02*
X6082D01*
X6083Y5283D01*
X7344Y4736D02*
Y4826D01*
D142*
X4093Y1261D02*
X4102Y1252D01*
X4128D02*
X4249Y1130D01*
X4631D01*
X4102Y1252D02*
X4128D01*
X4469Y1646D02*
Y1734D01*
Y1867D01*
Y1734D02*
X4624Y1889D01*
X4447Y1624D02*
X4469Y1646D01*
X4385Y1562D02*
X4447Y1624D01*
X4093Y1426D02*
X4229Y1562D01*
X4093Y1261D02*
Y1426D01*
X4229Y1562D02*
X4385D01*
X4592Y1889D02*
X4624D01*
X4469Y1867D02*
X4476Y1874D01*
X4480Y1889D02*
X4592D01*
X4624Y1889D02*
X4626Y1891D01*
X4591Y1888D02*
X4592Y1889D01*
X4592Y1889D01*
X6123Y1826D02*
Y1959D01*
Y1586D02*
Y1826D01*
X6246Y1981D02*
X6246Y1981D01*
X6245Y1979D02*
X6246Y1981D01*
X6278Y1981D02*
X6280Y1983D01*
X6134Y1981D02*
X6246D01*
X6123Y1959D02*
X6130Y1966D01*
X6123Y1586D02*
X6448Y1261D01*
X6123Y1826D02*
X6278Y1981D01*
X6246D02*
X6278D01*
X4631Y1130D02*
X4762Y1261D01*
X5043D01*
X5994D01*
X7896D02*
X8847D01*
X6945D02*
X7896D01*
X6448D02*
X6945D01*
D143*
X3629Y5766D02*
Y5778D01*
X3651Y5806D02*
X3651Y5806D01*
Y5799D02*
Y5806D01*
X3629Y5778D02*
X3651Y5799D01*
X3647Y5866D02*
X3651Y5863D01*
Y5806D02*
Y5863D01*
X7165Y6416D02*
X7187Y6395D01*
X7165Y6416D02*
Y6424D01*
X7184Y6272D02*
X7187Y6276D01*
Y6395D01*
X3683Y5820D02*
X3683Y5820D01*
Y5799D02*
Y5820D01*
X3705Y5766D02*
Y5778D01*
X3683Y5799D02*
X3705Y5778D01*
X3683Y5820D02*
Y5863D01*
X3687Y5866D01*
X7220Y6276D02*
X7224Y6272D01*
X7220Y6276D02*
Y6395D01*
X7242Y6416D01*
Y6424D01*
X7702Y5606D02*
X7785D01*
X7649Y5614D02*
X7649Y5614D01*
X7675D01*
X7645Y5614D02*
X7649D01*
X7684Y5606D02*
X7702D01*
X7675Y5614D02*
X7684Y5606D01*
X7623Y5593D02*
X7645Y5614D01*
X7374Y6041D02*
X7488D01*
X7340Y6062D02*
X7352D01*
X7374Y6041D01*
X7617Y5593D02*
X7623D01*
X7488Y6041D02*
X7491Y6044D01*
X8005Y5713D02*
X8096D01*
X8105Y5705D01*
X7702Y5656D02*
X7785D01*
X7804D01*
X7684D02*
X7702D01*
X8105Y5620D02*
Y5705D01*
X7846Y5647D02*
X7846Y5647D01*
X7882D01*
X7925Y5604D02*
X8089D01*
X8105Y5620D01*
X7882Y5647D02*
X7925Y5604D01*
X7804Y5656D02*
X7812Y5647D01*
X7675D02*
X7684Y5656D01*
X7832Y5647D02*
X7846D01*
X7832Y5647D02*
X7832Y5647D01*
X7812Y5647D02*
X7832D01*
X7488Y6008D02*
X7491Y6004D01*
X7374Y6008D02*
X7488D01*
X7352Y5986D02*
X7374Y6008D01*
X7340Y5986D02*
X7352D01*
X7645Y5647D02*
X7662D01*
X7662Y5647D01*
X7675D01*
X7617Y5669D02*
X7623D01*
X7645Y5647D01*
X7752Y5974D02*
X7759D01*
X7730Y5953D02*
X7752Y5974D01*
X8119Y5334D02*
X8257D01*
X8103Y5317D02*
X8119Y5334D01*
X8257D02*
X8259Y5332D01*
X7941Y5317D02*
X8103D01*
X7886Y5263D02*
X7941Y5317D01*
X7804Y5254D02*
X7813Y5263D01*
X7886D01*
X7786Y5254D02*
X7804D01*
X7657Y5953D02*
X7730D01*
X7491Y5924D02*
X7495Y5921D01*
X7625D02*
X7657Y5953D01*
X7495Y5921D02*
X7625D01*
X7649Y5263D02*
X7676D01*
X7684Y5254D01*
X7702D01*
X7786D01*
X7646Y5263D02*
X7649D01*
X7624Y5241D02*
X7646Y5263D01*
X7649D02*
X7649Y5263D01*
X7618Y5241D02*
X7624D01*
X8005Y5459D02*
X8096Y5368D01*
X7752Y5898D02*
X7759D01*
X7730Y5920D02*
X7752Y5898D01*
X8096Y5357D02*
Y5368D01*
X8089Y5350D02*
X8096Y5357D01*
X7872Y5296D02*
X7927Y5350D01*
X8089D01*
X7813Y5296D02*
X7872D01*
X7786Y5304D02*
X7804D01*
X7813Y5296D01*
X7670Y5920D02*
X7730D01*
X7495Y5888D02*
X7638D01*
X7670Y5920D01*
X7491Y5884D02*
X7495Y5888D01*
X7618Y5317D02*
X7624D01*
X7676Y5296D02*
X7684Y5304D01*
X7702D01*
X7786D01*
X7646Y5296D02*
X7663D01*
X7624Y5317D02*
X7646Y5296D01*
X7663D02*
X7663Y5296D01*
X7676D01*
X8005Y5967D02*
X8096Y5876D01*
Y5865D02*
Y5876D01*
X7909Y5856D02*
X8087D01*
X8096Y5865D01*
X7850Y5797D02*
X7909Y5856D01*
X7804Y5806D02*
X7812Y5797D01*
X7850D01*
X7684Y5806D02*
X7702D01*
X7675Y5797D02*
X7684Y5806D01*
X7785D02*
X7804D01*
X7702D02*
X7785D01*
X7495Y6088D02*
X7582D01*
X7491Y6084D02*
X7495Y6088D01*
X7603Y6066D02*
X7611D01*
X7582Y6088D02*
X7603Y6066D01*
X7645Y5797D02*
X7662D01*
X7662Y5797D01*
X7675D01*
X7617Y5819D02*
X7623D01*
X7645Y5797D01*
X8119Y5842D02*
X8257D01*
X8259Y5840D01*
X8100Y5823D02*
X8119Y5842D01*
X7864Y5764D02*
X7922Y5823D01*
X8100D01*
X7812Y5764D02*
X7864D01*
X7804Y5756D02*
X7812Y5764D01*
X7684Y5756D02*
X7702D01*
X7785D02*
X7804D01*
X7702D02*
X7785D01*
X7603Y6142D02*
X7611D01*
X7582Y6121D02*
X7603Y6142D01*
X7495Y6121D02*
X7582D01*
X7491Y6124D02*
X7495Y6121D01*
X7649Y5764D02*
X7649Y5764D01*
X7675D02*
X7684Y5756D01*
X7649Y5764D02*
X7675D01*
X7645Y5764D02*
X7649D01*
X7623Y5743D02*
X7645Y5764D01*
X7617Y5743D02*
X7623D01*
X7618Y5167D02*
X7624D01*
X7646Y5146D01*
X7702Y5154D02*
X7786D01*
X7804D01*
X7684D02*
X7702D01*
X8005Y5205D02*
X8096Y5114D01*
X7813Y5146D02*
X7881D01*
X7930Y5096D01*
X8096Y5103D02*
Y5114D01*
X8089Y5096D02*
X8096Y5103D01*
X7930Y5096D02*
X8089D01*
X7676Y5146D02*
X7684Y5154D01*
X7804D02*
X7813Y5146D01*
X7663Y5146D02*
X7663Y5146D01*
X7676D01*
X7646Y5146D02*
X7663D01*
X7362Y5808D02*
X7488D01*
X7340Y5786D02*
X7362Y5808D01*
X7488D02*
X7491Y5804D01*
X7333Y5786D02*
X7340D01*
X7333Y5862D02*
X7340D01*
X7362Y5841D01*
X7488D02*
X7491Y5844D01*
X7362Y5841D02*
X7488D01*
X7813Y5113D02*
X7867D01*
X7804Y5104D02*
X7813Y5113D01*
X7684Y5104D02*
X7702D01*
X7786D02*
X7804D01*
X7702D02*
X7786D01*
X7649Y5113D02*
X7649Y5113D01*
X7646Y5113D02*
X7649D01*
X7676Y5113D02*
X7684Y5104D01*
X7649Y5113D02*
X7676D01*
X8119Y5080D02*
X8257D01*
X8103Y5063D02*
X8119Y5080D01*
X8257D02*
X8259Y5078D01*
X7917Y5063D02*
X8103D01*
X7867Y5113D02*
X7917Y5063D01*
X7624Y5091D02*
X7646Y5113D01*
X7618Y5091D02*
X7624D01*
X9693Y7435D02*
X9703D01*
X9681Y7424D02*
X9693Y7435D01*
X9681Y7413D02*
Y7424D01*
X9670Y7402D02*
X9681Y7413D01*
X9655Y7402D02*
X9670D01*
X9644Y7413D02*
X9655Y7402D01*
X9644Y7413D02*
Y7424D01*
X9632Y7435D02*
X9644Y7424D01*
X9588Y7435D02*
X9632D01*
X9703D02*
X9892D01*
X9515D02*
X9588D01*
X7241Y5238D02*
X7246D01*
X7488Y5201D02*
X7491Y5204D01*
X7301Y5201D02*
X7488D01*
X7246Y5238D02*
X7276Y5208D01*
X7293D02*
X7301Y5201D01*
X7276Y5208D02*
X7293D01*
X8009Y9311D02*
X8043D01*
X7871Y9311D02*
X7880Y9303D01*
X7898D01*
X7838Y9311D02*
X7871D01*
X7982Y9303D02*
X8000D01*
X7898D02*
X7982D01*
X8000D02*
X8009Y9311D01*
X8043D02*
X8065Y9290D01*
X8077D01*
X7771Y9311D02*
X7838D01*
X7749Y9290D02*
X7771Y9311D01*
X7838D02*
X7838Y9311D01*
X7742Y9290D02*
X7749D01*
X7280Y5175D02*
X7287Y5168D01*
X7266Y5175D02*
X7280D01*
X7488Y5168D02*
X7491Y5164D01*
X7287Y5168D02*
X7488D01*
X7252Y5162D02*
X7266Y5175D01*
X7241Y5162D02*
X7252D01*
X8070Y9366D02*
X8077D01*
X8048Y9344D02*
X8070Y9366D01*
X8009Y9344D02*
X8048D01*
X7880Y9353D02*
X7898D01*
X7982D02*
X8000D01*
X8009Y9344D01*
X7898Y9353D02*
X7982D01*
X7871Y9344D02*
X7880Y9353D01*
X7851Y9344D02*
X7871D01*
X7742Y9366D02*
X7749D01*
X7771Y9344D01*
X7851D01*
X7851Y9344D01*
X7495Y4888D02*
X7587D01*
X7623Y4851D01*
Y4799D02*
Y4851D01*
X7601Y4777D02*
X7623Y4799D01*
X7491Y4884D02*
X7495Y4888D01*
X7601Y4770D02*
Y4777D01*
X8009Y9161D02*
X8043D01*
X8000Y9153D02*
X8009Y9161D01*
X7838Y9161D02*
X7871D01*
X7880Y9153D01*
X7838Y9161D02*
X7838Y9161D01*
X7898Y9153D02*
X7982D01*
X8000D01*
X7880D02*
X7898D01*
X8043Y9161D02*
X8065Y9140D01*
X8077D01*
X7771Y9161D02*
X7838D01*
X7749Y9140D02*
X7771Y9161D01*
X7742Y9140D02*
X7749D01*
X7491Y4924D02*
X7597D01*
X7656Y4799D02*
X7677Y4778D01*
Y4770D02*
Y4778D01*
X7656Y4799D02*
Y4865D01*
X7597Y4924D02*
X7656Y4865D01*
X8048Y9194D02*
X8070Y9216D01*
X8077D01*
X8009Y9194D02*
X8048D01*
X7880Y9203D02*
X7898D01*
X7982D02*
X8000D01*
X8009Y9194D01*
X7898Y9203D02*
X7982D01*
X7871Y9194D02*
X7880Y9203D01*
X7851Y9194D02*
X7871D01*
X7771Y9194D02*
X7851D01*
X7851Y9194D01*
X7749Y9216D02*
X7771Y9194D01*
X7742Y9216D02*
X7749D01*
X7649Y5022D02*
X7657D01*
X7628Y5000D02*
X7649Y5022D01*
X7609Y5001D02*
X7609Y5000D01*
X7628D01*
X7491Y5004D02*
X7495Y5001D01*
X7609D01*
X8000Y9647D02*
X8009Y9655D01*
X8043D01*
X7982Y9647D02*
X8000D01*
X7838Y9655D02*
X7838Y9655D01*
X7871D01*
X7771Y9655D02*
X7838D01*
X7880Y9647D02*
X7898D01*
X7982D01*
X7871Y9655D02*
X7880Y9647D01*
X8065Y9634D02*
X8077D01*
X8043Y9655D02*
X8065Y9634D01*
X7749D02*
X7771Y9655D01*
X7742Y9634D02*
X7749D01*
X7596Y4967D02*
X7628D01*
X7596Y4968D02*
X7596Y4967D01*
X7628D02*
X7649Y4946D01*
X7657D01*
X7495Y4968D02*
X7596D01*
X7491Y4964D02*
X7495Y4968D01*
X8070Y9710D02*
X8077D01*
X7880Y9697D02*
X7898D01*
X7982D01*
X8000D01*
X7771Y9688D02*
X7851D01*
X8048D02*
X8070Y9710D01*
X8000Y9697D02*
X8009Y9688D01*
X7871Y9688D02*
X7880Y9697D01*
X7851Y9688D02*
X7851Y9688D01*
X8009Y9688D02*
X8048D01*
X7851Y9688D02*
X7871D01*
X7742Y9710D02*
X7749D01*
X7771Y9688D01*
X7356Y5124D02*
X7491D01*
X7353Y5121D02*
X7356Y5124D01*
X7348Y5121D02*
X7353D01*
X7217Y4990D02*
X7348Y5121D01*
X7155Y5012D02*
X7162D01*
X7184Y4990D01*
X7217D01*
X8070Y9860D02*
X8077D01*
X7898Y9847D02*
X7982D01*
X8000D01*
X7880D02*
X7898D01*
X8048Y9838D02*
X8070Y9860D01*
X7871Y9838D02*
X7880Y9847D01*
X8000D02*
X8009Y9838D01*
X8048D01*
X7851Y9838D02*
X7871D01*
X7749Y9860D02*
X7771Y9838D01*
X7742Y9860D02*
X7749D01*
X7771Y9838D02*
X7851D01*
X7851Y9838D01*
X7231Y4957D02*
X7361Y5088D01*
X7488D01*
X7491Y5084D01*
X7162Y4936D02*
X7184Y4957D01*
X7231D01*
X7155Y4936D02*
X7162D01*
X8009Y9805D02*
X8043D01*
X7871Y9805D02*
X7880Y9797D01*
X7898D02*
X7982D01*
X8000D01*
X7880D02*
X7898D01*
X8000D02*
X8009Y9805D01*
X8043D02*
X8065Y9784D01*
X8077D01*
X7771Y9805D02*
X7838D01*
X7838Y9805D01*
X7749Y9784D02*
X7771Y9805D01*
X7838Y9805D02*
X7871D01*
X7742Y9784D02*
X7749D01*
X7373Y5284D02*
X7491D01*
X7314Y5473D02*
X7386Y5401D01*
X7151Y5315D02*
X7342D01*
X7386Y5401D02*
X7488D01*
X7382Y5321D02*
X7488D01*
X7372Y5368D02*
X7488D01*
X7151Y5348D02*
X7355D01*
X7382Y5321D01*
X7265Y5473D02*
X7314D01*
X7300Y5440D02*
X7372Y5368D01*
X7342Y5315D02*
X7373Y5284D01*
X7122Y5370D02*
X7129D01*
X7151Y5348D01*
X7122Y5293D02*
X7129D01*
X7488Y5321D02*
X7491Y5324D01*
X7129Y5293D02*
X7151Y5315D01*
X3531Y5715D02*
Y5863D01*
X3518Y5702D02*
X3531Y5715D01*
X3527Y5866D02*
X3531Y5863D01*
X3509Y5702D02*
X3518D01*
X7320Y6152D02*
X7322D01*
X7300Y6172D02*
X7320Y6152D01*
X7300Y6172D02*
Y6268D01*
X7304Y6272D01*
X3576Y5702D02*
X3585D01*
X3563Y5715D02*
Y5863D01*
X3567Y5866D01*
X3563Y5715D02*
X3576Y5702D01*
X7267Y6172D02*
Y6268D01*
X7247Y6152D02*
X7267Y6172D01*
X7264Y6272D02*
X7267Y6268D01*
X7246Y6152D02*
X7247D01*
X7036Y6091D02*
X7058Y6113D01*
Y6176D02*
X7067Y6185D01*
X7090Y6162D02*
X7100Y6172D01*
Y6268D01*
X7112Y6083D02*
Y6091D01*
X7090Y6112D02*
Y6162D01*
X7100Y6268D02*
X7104Y6272D01*
X7090Y6112D02*
X7112Y6091D01*
X7064Y6272D02*
X7067Y6268D01*
X7036Y6084D02*
Y6091D01*
X7058Y6113D02*
Y6176D01*
X7067Y6185D02*
Y6268D01*
X3509Y6272D02*
Y6274D01*
Y6272D02*
X3531Y6251D01*
Y6178D02*
Y6251D01*
X3527Y6174D02*
X3531Y6178D01*
X3563Y6251D02*
X3585Y6272D01*
Y6274D01*
X3563Y6178D02*
Y6251D01*
Y6178D02*
X3567Y6174D01*
X3629Y6351D02*
Y6363D01*
X3647Y6174D02*
X3651Y6178D01*
X3629Y6351D02*
X3651Y6329D01*
Y6178D02*
Y6329D01*
X7042Y6416D02*
Y6421D01*
X7020Y6395D02*
X7042Y6416D01*
X7020Y6276D02*
Y6395D01*
Y6276D02*
X7024Y6272D01*
X3705Y6351D02*
Y6363D01*
X3683Y6329D02*
X3705Y6351D01*
X3683Y6178D02*
Y6329D01*
Y6178D02*
X3687Y6174D01*
X6965Y6416D02*
Y6421D01*
X6984Y6272D02*
X6987Y6276D01*
X6965Y6416D02*
X6987Y6395D01*
Y6276D02*
Y6395D01*
X7701Y5542D02*
X7709D01*
X7680Y5521D02*
X7701Y5542D01*
X7491Y5524D02*
X7495Y5521D01*
X7680D01*
X6272Y7219D02*
X6279Y7211D01*
Y7203D02*
Y7211D01*
X6311Y7172D02*
X6368D01*
X6279Y7203D02*
X6311Y7172D01*
X6217Y7219D02*
X6272D01*
X6210Y7147D02*
Y7211D01*
X6217Y7219D01*
X6146Y7110D02*
X6173D01*
X6210Y7147D01*
X6146Y7110D02*
X6146Y7110D01*
X5949D02*
X5949Y7110D01*
X5976D01*
X5943Y7110D02*
X5949D01*
X6113Y7110D02*
X6146D01*
X5984Y7102D02*
X6002D01*
X5976Y7110D02*
X5984Y7102D01*
X6104D02*
X6113Y7110D01*
X6002Y7102D02*
X6086D01*
X6104D01*
X5921Y7088D02*
X5943Y7110D01*
X5917Y7088D02*
X5921D01*
X7495Y5488D02*
X7680D01*
X7491Y5484D02*
X7495Y5488D01*
X7701Y5466D02*
X7709D01*
X7680Y5488D02*
X7701Y5466D01*
X6311Y7299D02*
X6368D01*
X6279Y7267D02*
X6311Y7299D01*
X6279Y7259D02*
Y7267D01*
X6272Y7251D02*
X6279Y7259D01*
X6204Y7251D02*
X6272D01*
X6177Y7161D02*
Y7225D01*
X6204Y7251D01*
X6086Y7152D02*
X6104D01*
X6002D02*
X6086D01*
X5917Y7165D02*
X5921D01*
X5943Y7143D01*
X5984Y7152D02*
X6002D01*
X5943Y7143D02*
X5963D01*
X6133D02*
X6159D01*
X6177Y7161D01*
X6133Y7143D02*
X6133Y7143D01*
X6113Y7143D02*
X6133D01*
X5976D02*
X5984Y7152D01*
X6104D02*
X6113Y7143D01*
X5963D02*
X5976D01*
X5963Y7143D02*
X5963Y7143D01*
X10033Y7582D02*
X10055Y7560D01*
Y7441D02*
Y7560D01*
X9972Y7582D02*
X10033D01*
X9930Y7540D02*
X9972Y7582D01*
X9801Y7822D02*
X9948Y7675D01*
Y7604D02*
Y7675D01*
X9897Y7554D02*
X9948Y7604D01*
X9897Y7487D02*
Y7554D01*
X9930Y7473D02*
Y7540D01*
X9892Y7435D02*
X9930Y7473D01*
X9529Y7468D02*
X9878D01*
X9897Y7487D01*
X8184Y7647D02*
X9303D01*
X8137Y7600D02*
X8184Y7647D01*
X8008Y7578D02*
X8030Y7600D01*
X8137D01*
X7975D02*
X7997Y7578D01*
X7934Y7600D02*
X7975D01*
X7997Y7578D02*
X8001D01*
X7927Y7592D02*
X7934Y7600D01*
X7927Y7584D02*
Y7592D01*
X8001Y7578D02*
X8008D01*
X7895Y7553D02*
X7927Y7584D01*
X7838Y7553D02*
X7895D01*
X9303Y7647D02*
X9515Y7435D01*
X8171Y7680D02*
X9317D01*
X8124Y7632D02*
X8171Y7680D01*
X9317D02*
X9529Y7468D01*
X7997Y7654D02*
X8001D01*
X8030Y7632D02*
X8124D01*
X8001Y7654D02*
X8008D01*
X8030Y7632D01*
X7927Y7640D02*
Y7648D01*
X7838Y7680D02*
X7895D01*
X7927Y7648D01*
X7975Y7632D02*
X7997Y7654D01*
X7927Y7640D02*
X7934Y7632D01*
X7975D01*
X6002Y6952D02*
X6086D01*
X6002Y7002D02*
X6086D01*
X6002Y7714D02*
X6086D01*
X6002Y7764D02*
X6086D01*
X6002Y7864D02*
X6086D01*
X6002Y7914D02*
X6086D01*
X6311Y8061D02*
X6368D01*
X6279Y8029D02*
X6311Y8061D01*
X6279Y8021D02*
Y8029D01*
X6272Y8013D02*
X6279Y8021D01*
X6204Y8013D02*
X6272D01*
X6177Y7923D02*
Y7987D01*
X6204Y8013D01*
X6159Y7905D02*
X6177Y7923D01*
X6086Y7914D02*
X6104D01*
X6133Y7905D02*
X6159D01*
X6104Y7914D02*
X6113Y7905D01*
X6133D01*
X6133Y7905D01*
X5984Y7914D02*
X6002D01*
X5921Y7927D02*
X5943Y7905D01*
X5917Y7927D02*
X5921D01*
X5963Y7905D02*
X5963Y7905D01*
X5976D01*
X5943Y7905D02*
X5963D01*
X5976Y7905D02*
X5984Y7914D01*
X6311Y7934D02*
X6368D01*
X6217Y7981D02*
X6272D01*
X6279Y7973D01*
X6210D02*
X6217Y7981D01*
X6279Y7965D02*
Y7973D01*
Y7965D02*
X6311Y7934D01*
X6210Y7909D02*
Y7973D01*
X6146Y7872D02*
X6173D01*
X6210Y7909D01*
X6146Y7872D02*
X6146Y7872D01*
X6104Y7864D02*
X6113Y7872D01*
X6146D01*
X6086Y7864D02*
X6104D01*
X5949Y7872D02*
X5949Y7872D01*
X5976D01*
X5943Y7872D02*
X5949D01*
X5984Y7864D02*
X6002D01*
X5976Y7872D02*
X5984Y7864D01*
X5921Y7850D02*
X5943Y7872D01*
X5917Y7850D02*
X5921D01*
X7265Y5440D02*
X7300D01*
X7488Y5368D02*
X7491Y5364D01*
X7250Y5425D02*
X7265Y5440D01*
X7250Y5417D02*
Y5425D01*
X5929Y7774D02*
X5948Y7755D01*
X5917Y7774D02*
X5929D01*
X5984Y7764D02*
X6002D01*
X5976Y7755D02*
X5984Y7764D01*
X5948Y7755D02*
X5976D01*
X7488Y5401D02*
X7491Y5404D01*
X7250Y5488D02*
Y5494D01*
Y5488D02*
X7265Y5473D01*
X5976Y7722D02*
X5984Y7714D01*
X5949Y7722D02*
X5976D01*
X5984Y7714D02*
X6002D01*
X5917Y7698D02*
X5925D01*
X5949Y7722D01*
X6311Y6918D02*
X6368D01*
X6279Y6886D02*
X6311Y6918D01*
X6279Y6878D02*
Y6886D01*
X6272Y6870D02*
X6279Y6878D01*
X6086Y7002D02*
X6104D01*
X6179Y6895D02*
Y6960D01*
Y6895D02*
X6204Y6870D01*
X6146Y6993D02*
X6179Y6960D01*
X6204Y6870D02*
X6272D01*
X6104Y7002D02*
X6113Y6993D01*
X6146D01*
X5984Y7002D02*
X6002D01*
X5929Y7012D02*
X5948Y6993D01*
X5917Y7012D02*
X5929D01*
X5976Y6993D02*
X5984Y7002D01*
X5948Y6993D02*
X5976D01*
X6272Y6838D02*
X6279Y6830D01*
Y6822D02*
Y6830D01*
X6311Y6791D02*
X6368D01*
X6279Y6822D02*
X6311Y6791D01*
X6113Y6960D02*
X6133D01*
X6146Y6947D01*
X6104Y6952D02*
X6113Y6960D01*
X6086Y6952D02*
X6104D01*
X6146Y6882D02*
X6190Y6838D01*
X6272D01*
X6146Y6882D02*
Y6947D01*
X5976Y6960D02*
X5984Y6952D01*
X5949Y6960D02*
X5976D01*
X5984Y6952D02*
X6002D01*
X5925Y6936D02*
X5949Y6960D01*
X5917Y6936D02*
X5925D01*
X7488Y5601D02*
X7491Y5604D01*
X7385Y5601D02*
X7488D01*
X7365Y5581D02*
X7385Y5601D01*
X7172Y5603D02*
X7184D01*
X7206Y5581D02*
X7365D01*
X7184Y5603D02*
X7206Y5581D01*
X7399Y5568D02*
X7488D01*
X7379Y5548D02*
X7399Y5568D01*
X7488D02*
X7491Y5564D01*
X7201Y5548D02*
X7379D01*
X7180Y5526D02*
X7201Y5548D01*
X7172Y5526D02*
X7180D01*
X7975Y6838D02*
X7997Y6816D01*
X7934Y6838D02*
X7975D01*
X7997Y6816D02*
X8001D01*
X7927Y6830D02*
X7934Y6838D01*
X7927Y6822D02*
Y6830D01*
X7895Y6791D02*
X7927Y6822D01*
X7838Y6791D02*
X7895D01*
X7997Y6892D02*
X8001D01*
X7927Y6878D02*
Y6886D01*
X7838Y6918D02*
X7895D01*
X7927Y6886D01*
X7975Y6870D02*
X7997Y6892D01*
X7927Y6878D02*
X7934Y6870D01*
X7975D01*
X7997Y7273D02*
X8001D01*
X7927Y7259D02*
Y7267D01*
X7838Y7299D02*
X7895D01*
X7927Y7267D01*
X7975Y7251D02*
X7997Y7273D01*
X7934Y7251D02*
X7975D01*
X7927Y7259D02*
X7934Y7251D01*
X7975Y7219D02*
X7997Y7197D01*
X7934Y7219D02*
X7975D01*
X7927Y7211D02*
X7934Y7219D01*
X7927Y7203D02*
Y7211D01*
X7997Y7197D02*
X8001D01*
X7895Y7172D02*
X7927Y7203D01*
X7838Y7172D02*
X7895D01*
X7975Y7981D02*
X7997Y7959D01*
X7934Y7981D02*
X7975D01*
X7997Y7959D02*
X8001D01*
X7927Y7973D02*
X7934Y7981D01*
X7927Y7965D02*
Y7973D01*
X7895Y7934D02*
X7927Y7965D01*
X7838Y7934D02*
X7895D01*
X7997Y8035D02*
X8001D01*
X7927Y8021D02*
Y8029D01*
X7838Y8061D02*
X7895D01*
X7927Y8029D01*
X7975Y8013D02*
X7997Y8035D01*
X7927Y8021D02*
X7934Y8013D01*
X7975D01*
X7869Y5614D02*
X7912Y5571D01*
X8103D01*
X7812Y5614D02*
X7869D01*
X7804Y5606D02*
X7812Y5614D01*
X8103Y5571D02*
X8119Y5588D01*
X8257D01*
X8259Y5586D01*
X6113Y7755D02*
X6146D01*
X6104Y7764D02*
X6113Y7755D01*
X6086Y7764D02*
X6104D01*
X6204Y7632D02*
X6272D01*
X6179Y7657D02*
X6204Y7632D01*
X6272D02*
X6279Y7640D01*
Y7648D01*
X6146Y7755D02*
X6179Y7722D01*
Y7657D02*
Y7722D01*
X6279Y7648D02*
X6311Y7680D01*
X6368D01*
X6086Y7714D02*
X6104D01*
X6113Y7722D01*
X6133D01*
X6311Y7553D02*
X6368D01*
X6279Y7584D02*
X6311Y7553D01*
X6146Y7644D02*
X6190Y7600D01*
X6133Y7722D02*
X6146Y7709D01*
Y7644D02*
Y7709D01*
X6272Y7600D02*
X6279Y7592D01*
Y7584D02*
Y7592D01*
X6190Y7600D02*
X6272D01*
D144*
X2105Y14179D02*
D03*
X2359D02*
D03*
X660Y1473D02*
D03*
Y1727D02*
D03*
Y1219D02*
D03*
X6229Y3256D02*
D03*
Y2748D02*
D03*
Y3002D02*
D03*
X178Y1575D02*
D03*
X5935Y3252D02*
D03*
X178Y1067D02*
D03*
Y1321D02*
D03*
X8867Y4153D02*
D03*
Y3873D02*
D03*
X5935Y2744D02*
D03*
X8613Y4153D02*
D03*
Y3873D02*
D03*
X8359D02*
D03*
Y4153D02*
D03*
X5935Y2998D02*
D03*
D145*
X5356Y12280D02*
D03*
D146*
Y10280D02*
D03*
D147*
X331Y11283D02*
D03*
D148*
X9940Y5931D02*
D03*
Y5114D02*
D03*
Y6185D02*
D03*
Y4860D02*
D03*
D149*
X8288Y9936D02*
D03*
Y9141D02*
D03*
X8005Y5205D02*
D03*
X8259Y5078D02*
D03*
X8005Y5459D02*
D03*
X8259Y5332D02*
D03*
X8005Y5713D02*
D03*
X8259Y5586D02*
D03*
X8005Y5967D02*
D03*
X8259Y5840D02*
D03*
X8288Y10190D02*
D03*
Y8887D02*
D03*
X8259Y6094D02*
D03*
D150*
X9538Y9336D02*
D03*
X9388Y9235D02*
D03*
Y9844D02*
D03*
X9538Y9945D02*
D03*
Y9742D02*
D03*
X9388Y9641D02*
D03*
Y9032D02*
D03*
X9538Y9133D02*
D03*
X9388Y9438D02*
D03*
X9538Y9539D02*
D03*
Y8930D02*
D03*
X9040Y8807D02*
D03*
X8837D02*
D03*
X9040Y10270D02*
D03*
X8837D02*
D03*
D151*
X8005Y4951D02*
D03*
D152*
X9388Y10047D02*
D03*
D153*
X6229Y3510D02*
D03*
X5935Y3506D02*
D03*
X178Y1829D02*
D03*
D154*
X6245Y11004D02*
D03*
Y11258D02*
D03*
Y11512D02*
D03*
X7209Y9985D02*
D03*
Y9731D02*
D03*
X6955Y9477D02*
D03*
Y8715D02*
D03*
X7209Y10239D02*
D03*
X6955Y9985D02*
D03*
Y9731D02*
D03*
X7209Y9477D02*
D03*
X6245Y11766D02*
D03*
Y12020D02*
D03*
Y12274D02*
D03*
Y12528D02*
D03*
X6499Y11766D02*
D03*
Y12274D02*
D03*
Y12528D02*
D03*
Y11258D02*
D03*
X6955Y10239D02*
D03*
Y8969D02*
D03*
X6499Y12020D02*
D03*
X6955Y9223D02*
D03*
X7209D02*
D03*
X6499Y11512D02*
D03*
X7209Y8969D02*
D03*
D155*
X9801Y7314D02*
D03*
X10055Y7187D02*
D03*
Y7695D02*
D03*
X9801Y7568D02*
D03*
Y7822D02*
D03*
X10055Y7441D02*
D03*
Y7949D02*
D03*
D156*
X9801Y8076D02*
D03*
D157*
X9538Y10438D02*
D03*
Y8640D02*
D03*
X9140Y6310D02*
D03*
Y4735D02*
D03*
D158*
X8861Y6844D02*
D03*
Y8419D02*
D03*
D159*
X7896Y1261D02*
D03*
X6945D02*
D03*
X8847D02*
D03*
X4093D02*
D03*
X5043D02*
D03*
X5994D02*
D03*
D160*
X8814Y13209D02*
D03*
D161*
X9848Y12517D02*
D03*
Y10993D02*
D03*
D162*
Y12136D02*
D03*
X7054Y11755D02*
D03*
X1134Y13951D02*
D03*
X7054Y10993D02*
D03*
X9848Y11755D02*
D03*
Y11374D02*
D03*
D163*
X9770Y2506D02*
D03*
Y3522D02*
D03*
Y1998D02*
D03*
Y3014D02*
D03*
Y1490D02*
D03*
D164*
X7054Y12517D02*
D03*
X1642Y13951D02*
D03*
D165*
X8847Y1011D02*
D03*
Y811D02*
D03*
X7896Y1011D02*
D03*
Y811D02*
D03*
X6945Y1011D02*
D03*
Y811D02*
D03*
X5994Y1011D02*
D03*
Y811D02*
D03*
X5043Y1011D02*
D03*
Y811D02*
D03*
X4093Y1011D02*
D03*
Y811D02*
D03*
Y561D02*
D03*
X5043D02*
D03*
X5994D02*
D03*
X7896D02*
D03*
X6945D02*
D03*
X8847D02*
D03*
D166*
X2582Y1673D02*
D03*
X3070D02*
D03*
D167*
X3822Y1568D02*
D03*
Y254D02*
D03*
X4772Y1568D02*
D03*
Y254D02*
D03*
X5723Y1568D02*
D03*
Y254D02*
D03*
X7625Y1568D02*
D03*
Y254D02*
D03*
X6674Y1568D02*
D03*
Y254D02*
D03*
X8576Y1568D02*
D03*
Y254D02*
D03*
D168*
X8334Y13499D02*
D03*
D169*
X8814Y13839D02*
D03*
D170*
X7209Y8715D02*
D03*
X6499Y11004D02*
D03*
D171*
X1228Y489D02*
D03*
X1713D02*
D03*
D172*
X1198Y186D02*
D03*
X1743D02*
D03*
D173*
X9770Y4030D02*
D03*
D174*
X9529Y4951D02*
D03*
Y6094D02*
D03*
D175*
X5397Y5974D02*
D03*
X597D02*
D03*
X5397Y2674D02*
D03*
X597D02*
D03*
D176*
X2916Y9301D02*
D03*
X506D02*
D03*
X5306Y9336D02*
D03*
D177*
X506Y6881D02*
D03*
X2916D02*
D03*
X5306Y6836D02*
D03*
D178*
X9166Y8203D02*
D03*
Y7060D02*
D03*
D179*
X8639Y9038D02*
D03*
Y10039D02*
D03*
D180*
X400Y400D02*
D03*
X9811Y400D02*
D03*
X400Y13992D02*
D03*
X9811Y13992D02*
D03*
D181*
X2349Y13573D02*
D03*
X2093Y13722D02*
D03*
X2042Y13861D02*
D03*
X2181Y13696D02*
D03*
X3423Y13720D02*
D03*
X3331Y13998D02*
D03*
X2685Y14026D02*
D03*
X2794Y14021D02*
D03*
X3175Y13806D02*
D03*
Y13700D02*
D03*
X4691Y12653D02*
D03*
X4805D02*
D03*
X5025Y12484D02*
D03*
X1441Y13072D02*
D03*
X5293Y11575D02*
D03*
X1610Y12871D02*
D03*
X1363Y13588D02*
D03*
X7541Y10026D02*
D03*
X5267Y10578D02*
D03*
X6046Y10627D02*
D03*
X5270Y12155D02*
D03*
X5461Y11992D02*
D03*
Y12068D02*
D03*
X4991Y12078D02*
D03*
X5270Y12027D02*
D03*
X4654Y9434D02*
D03*
X4734Y9186D02*
D03*
X5607Y10403D02*
D03*
X5575Y10465D02*
D03*
X5646Y10466D02*
D03*
X5675Y10396D02*
D03*
X5715Y10465D02*
D03*
X5699Y10559D02*
D03*
X6028Y10957D02*
D03*
X6026Y10554D02*
D03*
X6028Y11407D02*
D03*
Y10807D02*
D03*
Y11107D02*
D03*
Y11557D02*
D03*
Y11257D02*
D03*
Y10420D02*
D03*
Y10327D02*
D03*
X4991Y11976D02*
D03*
X5588Y11951D02*
D03*
X5740Y11900D02*
D03*
X5740Y11992D02*
D03*
Y12068D02*
D03*
Y12155D02*
D03*
X6020Y12128D02*
D03*
X6007Y12319D02*
D03*
X4991Y11328D02*
D03*
Y11430D02*
D03*
X5258Y11379D02*
D03*
X5804Y10135D02*
D03*
X1403Y12789D02*
D03*
X381Y11760D02*
D03*
X1270Y11747D02*
D03*
X1403Y12586D02*
D03*
Y12332D02*
D03*
X1613Y12230D02*
D03*
X1613Y12484D02*
D03*
X1866Y12382D02*
D03*
X1867Y12614D02*
D03*
Y12738D02*
D03*
Y11857D02*
D03*
X393Y13437D02*
D03*
X7821Y4280D02*
D03*
X7709Y4216D02*
D03*
X4381Y13818D02*
D03*
X4216Y12967D02*
D03*
X2933Y13252D02*
D03*
X3022D02*
D03*
X2956Y13360D02*
D03*
X2861D02*
D03*
X3061D02*
D03*
X2507Y13322D02*
D03*
X3764Y13449D02*
D03*
X2933Y13169D02*
D03*
X3022D02*
D03*
X2933Y13087D02*
D03*
X3022D02*
D03*
X2933Y13005D02*
D03*
X3022D02*
D03*
X3967Y13297D02*
D03*
X4115Y13983D02*
D03*
X3995Y13776D02*
D03*
Y13610D02*
D03*
X3175Y13487D02*
D03*
X3175Y13589D02*
D03*
X4743Y5552D02*
D03*
X4803Y5599D02*
D03*
X3345Y9382D02*
D03*
X2088Y5774D02*
D03*
X2046Y5958D02*
D03*
X2197Y5486D02*
D03*
X2399Y234D02*
D03*
X2313Y235D02*
D03*
X2671Y1333D02*
D03*
X2560Y1410D02*
D03*
X1706Y1607D02*
D03*
X1783D02*
D03*
X3264Y965D02*
D03*
X3162Y851D02*
D03*
X3160Y940D02*
D03*
X2893Y1003D02*
D03*
X2819Y1321D02*
D03*
X2514Y5270D02*
D03*
X2438Y5954D02*
D03*
X2407Y6073D02*
D03*
X2931Y10010D02*
D03*
X2794Y10592D02*
D03*
X3048Y10274D02*
D03*
X2870Y10223D02*
D03*
X2480Y9221D02*
D03*
X2334Y8917D02*
D03*
X2378Y9330D02*
D03*
X2432Y9273D02*
D03*
X2506Y5765D02*
D03*
X2527Y5690D02*
D03*
X2603D02*
D03*
X2687Y5775D02*
D03*
X2712Y6044D02*
D03*
X2687Y5969D02*
D03*
X8179Y10884D02*
D03*
X2325Y9383D02*
D03*
X2426Y9381D02*
D03*
X1592Y2838D02*
D03*
X1588Y2983D02*
D03*
X1590Y3098D02*
D03*
X1593Y3231D02*
D03*
X2006Y13455D02*
D03*
X3655Y7981D02*
D03*
X1389Y2083D02*
D03*
X1387Y1975D02*
D03*
X2010Y1708D02*
D03*
X8348Y2107D02*
D03*
X6926Y2763D02*
D03*
X7203Y3327D02*
D03*
X7214Y2470D02*
D03*
X7692Y2093D02*
D03*
X7823Y3467D02*
D03*
X7803Y2624D02*
D03*
X7726Y2946D02*
D03*
X2703Y162D02*
D03*
X5879Y2135D02*
D03*
X5877Y2037D02*
D03*
X5879Y1876D02*
D03*
X5043Y1830D02*
D03*
X5118Y1828D02*
D03*
X6772Y1920D02*
D03*
X9271Y2039D02*
D03*
Y1935D02*
D03*
Y2134D02*
D03*
X6567Y3181D02*
D03*
X6205Y4059D02*
D03*
X5440Y8261D02*
D03*
X5054Y7899D02*
D03*
X5452Y8027D02*
D03*
X5562Y8026D02*
D03*
X2270Y10817D02*
D03*
X2278Y10927D02*
D03*
X2565Y10665D02*
D03*
X5050Y13388D02*
D03*
X5080Y13449D02*
D03*
X4735Y13350D02*
D03*
X4733Y13430D02*
D03*
X4915Y13335D02*
D03*
X7272Y14063D02*
D03*
X6622Y14062D02*
D03*
X7398Y13362D02*
D03*
X7753Y13718D02*
D03*
X7224Y13940D02*
D03*
X7270Y13992D02*
D03*
X6515Y13956D02*
D03*
X6566Y14008D02*
D03*
X8496Y3145D02*
D03*
X8509Y2286D02*
D03*
X7295Y8185D02*
D03*
X7963Y10109D02*
D03*
X8839Y6490D02*
D03*
X8852Y6579D02*
D03*
X6178Y8957D02*
D03*
X7380Y7877D02*
D03*
X3766Y13088D02*
D03*
X5346Y13741D02*
D03*
X2108Y6058D02*
D03*
X2173Y5972D02*
D03*
X2895Y1321D02*
D03*
X3048Y1232D02*
D03*
X2846Y1067D02*
D03*
X2745Y1333D02*
D03*
X6921Y6490D02*
D03*
X3629Y5766D02*
D03*
X7165Y6424D02*
D03*
X3705Y5766D02*
D03*
X7242Y6424D02*
D03*
X7617Y5593D02*
D03*
X7340Y6062D02*
D03*
Y5986D02*
D03*
X7617Y5669D02*
D03*
X7605Y6510D02*
D03*
X7759Y5974D02*
D03*
X7618Y5241D02*
D03*
X7759Y5898D02*
D03*
X7618Y5317D02*
D03*
X7611Y6066D02*
D03*
X7617Y5819D02*
D03*
X7611Y6142D02*
D03*
X7617Y5743D02*
D03*
X7618Y5167D02*
D03*
X7333Y5786D02*
D03*
Y5862D02*
D03*
X7618Y5091D02*
D03*
X7241Y5238D02*
D03*
X8077Y9290D02*
D03*
X7241Y5162D02*
D03*
X8077Y9366D02*
D03*
X7601Y4770D02*
D03*
X8077Y9140D02*
D03*
X7677Y4770D02*
D03*
X8077Y9216D02*
D03*
X7657Y5022D02*
D03*
X8077Y9634D02*
D03*
X7742D02*
D03*
X7657Y4946D02*
D03*
X8077Y9710D02*
D03*
X7742D02*
D03*
X7155Y5012D02*
D03*
X8077Y9860D02*
D03*
X7155Y4936D02*
D03*
X8077Y9784D02*
D03*
X7742Y9860D02*
D03*
Y9784D02*
D03*
Y9140D02*
D03*
Y9216D02*
D03*
Y9290D02*
D03*
Y9366D02*
D03*
X3160Y5982D02*
D03*
X7315Y5260D02*
D03*
X3513Y14056D02*
D03*
X3855Y13947D02*
D03*
X2326Y6076D02*
D03*
X2845Y5646D02*
D03*
X3810Y4574D02*
D03*
X1770Y6962D02*
D03*
X7122Y5293D02*
D03*
Y5370D02*
D03*
X6931Y5057D02*
D03*
X7274Y4597D02*
D03*
X7457Y4691D02*
D03*
X7191Y4597D02*
D03*
X7367Y4855D02*
D03*
X7368Y6406D02*
D03*
X1122Y861D02*
D03*
X1003Y1580D02*
D03*
X4084Y5373D02*
D03*
X7132Y4377D02*
D03*
X7226Y4382D02*
D03*
X7378Y7807D02*
D03*
Y8188D02*
D03*
X8153Y13253D02*
D03*
X8047Y13449D02*
D03*
X2527Y6693D02*
D03*
X3646Y1778D02*
D03*
X3653Y1944D02*
D03*
X3353Y1613D02*
D03*
Y1778D02*
D03*
Y1943D02*
D03*
X1346Y2509D02*
D03*
Y2667D02*
D03*
Y2817D02*
D03*
Y2959D02*
D03*
Y3099D02*
D03*
Y3238D02*
D03*
X1003Y6363D02*
D03*
X1257D02*
D03*
X1132D02*
D03*
X3831Y12847D02*
D03*
X4250Y14096D02*
D03*
X2771Y2369D02*
D03*
X3705Y2885D02*
D03*
X3629D02*
D03*
X2524Y2579D02*
D03*
X4439Y2368D02*
D03*
X6100Y2342D02*
D03*
X2013Y1962D02*
D03*
X1644Y1914D02*
D03*
X1384Y1880D02*
D03*
X1473Y1881D02*
D03*
X6986Y4403D02*
D03*
X6852Y4392D02*
D03*
X6722Y4465D02*
D03*
X6573Y4401D02*
D03*
X9721Y5528D02*
D03*
X3446Y5766D02*
D03*
X3348Y5459D02*
D03*
X3740Y6736D02*
D03*
X3326Y6731D02*
D03*
X3080Y6383D02*
D03*
X3006Y6083D02*
D03*
X2967Y6274D02*
D03*
X3377Y5957D02*
D03*
X1888Y5718D02*
D03*
X1920Y5587D02*
D03*
X2845Y5739D02*
D03*
X3204Y6681D02*
D03*
X3282Y7049D02*
D03*
X3249Y6936D02*
D03*
X1927Y6083D02*
D03*
X1767D02*
D03*
X1927Y6274D02*
D03*
X7235Y5746D02*
D03*
X2044Y718D02*
D03*
Y642D02*
D03*
X6675Y947D02*
D03*
Y871D02*
D03*
X7268Y5907D02*
D03*
X3509Y5702D02*
D03*
X3585D02*
D03*
X7322Y6152D02*
D03*
X7246Y6152D02*
D03*
X7036Y6084D02*
D03*
X7112Y6083D02*
D03*
X3509Y6274D02*
D03*
X3585D02*
D03*
X3629Y6363D02*
D03*
X3705D02*
D03*
X7042Y6421D02*
D03*
X6965D02*
D03*
X7709Y5542D02*
D03*
Y5466D02*
D03*
X5917Y7165D02*
D03*
Y7088D02*
D03*
X6497Y2700D02*
D03*
X1927Y6388D02*
D03*
X7585Y2092D02*
D03*
X2840Y5956D02*
D03*
X2817Y6060D02*
D03*
X7082Y4059D02*
D03*
X6807Y4064D02*
D03*
X6624Y4059D02*
D03*
X6345D02*
D03*
X2997Y4966D02*
D03*
X3247Y5956D02*
D03*
X3276Y6070D02*
D03*
X3340Y6274D02*
D03*
X3276Y5669D02*
D03*
X3127D02*
D03*
Y5550D02*
D03*
X2967Y5669D02*
D03*
Y5550D02*
D03*
X330Y7709D02*
D03*
X127Y7506D02*
D03*
X343Y7925D02*
D03*
X101Y8039D02*
D03*
X2367Y6502D02*
D03*
X2895Y6060D02*
D03*
X8755Y11060D02*
D03*
Y11285D02*
D03*
X8980Y11060D02*
D03*
X8979Y11285D02*
D03*
X8866Y11173D02*
D03*
X7616Y871D02*
D03*
Y947D02*
D03*
X4078Y13691D02*
D03*
X3193Y11780D02*
D03*
Y12018D02*
D03*
X3372Y11780D02*
D03*
Y12018D02*
D03*
X3290Y11905D02*
D03*
X4487Y5766D02*
D03*
Y5905D02*
D03*
X4718Y5766D02*
D03*
Y5905D02*
D03*
X4607Y5837D02*
D03*
X7954Y10239D02*
D03*
X5369Y10790D02*
D03*
X3251Y7955D02*
D03*
X3072D02*
D03*
X3073Y8204D02*
D03*
X3251D02*
D03*
X3169Y8084D02*
D03*
X1333Y10008D02*
D03*
X1155D02*
D03*
X1156Y10241D02*
D03*
X1333D02*
D03*
X1249Y10129D02*
D03*
X8001Y7578D02*
D03*
Y7654D02*
D03*
X8191Y7544D02*
D03*
X5917Y7927D02*
D03*
Y7850D02*
D03*
X7250Y5417D02*
D03*
Y5494D02*
D03*
X5917Y7698D02*
D03*
Y7774D02*
D03*
Y7012D02*
D03*
Y6936D02*
D03*
X8001Y6892D02*
D03*
Y6816D02*
D03*
Y7273D02*
D03*
Y7197D02*
D03*
Y7959D02*
D03*
Y8035D02*
D03*
X8559Y947D02*
D03*
X2324Y542D02*
D03*
X8559Y871D02*
D03*
X2324Y618D02*
D03*
X4772Y871D02*
D03*
Y947D02*
D03*
X2636Y1410D02*
D03*
X3823Y951D02*
D03*
Y875D02*
D03*
X2341Y868D02*
D03*
Y792D02*
D03*
X1733Y1194D02*
D03*
X1656D02*
D03*
X1400Y914D02*
D03*
X1476D02*
D03*
X1756Y1486D02*
D03*
X1833D02*
D03*
X2332Y705D02*
D03*
X2019Y851D02*
D03*
X2159Y1134D02*
D03*
X2349Y1009D02*
D03*
X2044Y1130D02*
D03*
X2037Y1041D02*
D03*
X2768Y216D02*
D03*
X2641D02*
D03*
X2668Y496D02*
D03*
X2565Y492D02*
D03*
X2552Y216D02*
D03*
X2476D02*
D03*
X2438Y483D02*
D03*
X2044Y381D02*
D03*
Y508D02*
D03*
X2311Y1333D02*
D03*
X2489D02*
D03*
X2616Y853D02*
D03*
X2538Y1067D02*
D03*
X2891Y915D02*
D03*
X2745Y1063D02*
D03*
X3251Y579D02*
D03*
Y711D02*
D03*
X3264Y855D02*
D03*
X3162Y737D02*
D03*
X2891Y616D02*
D03*
Y749D02*
D03*
X1862Y869D02*
D03*
X1346Y619D02*
D03*
X1532Y622D02*
D03*
X1003Y1460D02*
D03*
X1234Y1194D02*
D03*
Y1607D02*
D03*
X2015Y1397D02*
D03*
X1924Y2159D02*
D03*
X1727Y2083D02*
D03*
X1869Y1200D02*
D03*
X2959Y1943D02*
D03*
X2777Y2025D02*
D03*
X5733Y947D02*
D03*
X8686Y830D02*
D03*
X7743D02*
D03*
X6802D02*
D03*
X5860D02*
D03*
X5733Y871D02*
D03*
X4899Y830D02*
D03*
X3950Y834D02*
D03*
X3727Y2680D02*
D03*
X1807Y2372D02*
D03*
X1927D02*
D03*
X2047D02*
D03*
X2167D02*
D03*
X2287D02*
D03*
X2407D02*
D03*
X2647D02*
D03*
X2887D02*
D03*
X3007D02*
D03*
X3127D02*
D03*
X3247D02*
D03*
X3367D02*
D03*
X3487D02*
D03*
X3607D02*
D03*
Y2680D02*
D03*
X3487D02*
D03*
X3367D02*
D03*
X3247D02*
D03*
X3127D02*
D03*
X3007D02*
D03*
X2647D02*
D03*
X2527D02*
D03*
X2407D02*
D03*
X2287D02*
D03*
X2167D02*
D03*
X2047D02*
D03*
X1927D02*
D03*
X1807D02*
D03*
X3988Y3645D02*
D03*
X4432D02*
D03*
X4203D02*
D03*
X4432Y4280D02*
D03*
X4229D02*
D03*
X4000D02*
D03*
X5517Y4216D02*
D03*
Y3836D02*
D03*
X5308Y3607D02*
D03*
X3111D02*
D03*
X355Y3543D02*
D03*
X355Y3251D02*
D03*
X438Y3601D02*
D03*
X431Y4318D02*
D03*
X444Y4191D02*
D03*
X2396Y3404D02*
D03*
X2400Y3797D02*
D03*
X2394Y4000D02*
D03*
X2400Y4204D02*
D03*
Y4407D02*
D03*
Y4597D02*
D03*
Y4801D02*
D03*
X2247Y5970D02*
D03*
X2647Y6502D02*
D03*
X2807D02*
D03*
X2967Y5778D02*
D03*
X3017Y5969D02*
D03*
X3127Y5778D02*
D03*
X3327D02*
D03*
X3487Y5956D02*
D03*
X3727D02*
D03*
X3607D02*
D03*
X3721Y6083D02*
D03*
X3607D02*
D03*
X3487D02*
D03*
X3247Y6274D02*
D03*
X2807Y6388D02*
D03*
Y6274D02*
D03*
X2647Y6388D02*
D03*
Y6274D02*
D03*
X2567Y6083D02*
D03*
X2527Y6274D02*
D03*
X2367Y6388D02*
D03*
Y6274D02*
D03*
X2167D02*
D03*
X2037D02*
D03*
X927Y6036D02*
D03*
X1016Y5839D02*
D03*
X1232Y6170D02*
D03*
X1132Y6236D02*
D03*
X2355Y5486D02*
D03*
X1837Y5982D02*
D03*
X1997Y5766D02*
D03*
X1927Y5982D02*
D03*
X1807Y5668D02*
D03*
Y5766D02*
D03*
X1352Y5747D02*
D03*
X1575Y5901D02*
D03*
X2730Y5093D02*
D03*
X3543Y4966D02*
D03*
X3264Y5098D02*
D03*
X4335Y2252D02*
D03*
X4216Y1859D02*
D03*
Y1776D02*
D03*
X5194Y2197D02*
D03*
X5194Y1829D02*
D03*
X4972Y2108D02*
D03*
X4978Y2012D02*
D03*
X5880Y1956D02*
D03*
X5989Y2337D02*
D03*
X6629Y2205D02*
D03*
Y2110D02*
D03*
X6839Y1918D02*
D03*
X6706D02*
D03*
Y2234D02*
D03*
X6839Y2261D02*
D03*
X6972Y2210D02*
D03*
X7113D02*
D03*
X7251D02*
D03*
Y2346D02*
D03*
X4000Y1944D02*
D03*
Y2142D02*
D03*
Y2039D02*
D03*
X5447Y2134D02*
D03*
Y1935D02*
D03*
Y2039D02*
D03*
X8315Y1935D02*
D03*
Y2039D02*
D03*
X7504Y3464D02*
D03*
X7485Y2624D02*
D03*
X8260Y2527D02*
D03*
X8240Y3371D02*
D03*
X8240Y2893D02*
D03*
X7251Y2946D02*
D03*
X7252Y3072D02*
D03*
X6497Y2613D02*
D03*
X6655Y3435D02*
D03*
X7074Y3437D02*
D03*
X7083Y3072D02*
D03*
X8123Y4590D02*
D03*
X5964Y6314D02*
D03*
X5748Y6332D02*
D03*
X6152Y5991D02*
D03*
X5829Y5755D02*
D03*
Y5884D02*
D03*
X5829Y6004D02*
D03*
X6074Y6084D02*
D03*
X5834Y6124D02*
D03*
X6724Y5945D02*
D03*
X6741Y6151D02*
D03*
X6670Y6405D02*
D03*
X6640Y6151D02*
D03*
X6395Y6399D02*
D03*
X6154Y6401D02*
D03*
X6705Y6586D02*
D03*
X6272Y6403D02*
D03*
X6464Y6157D02*
D03*
X6545Y6405D02*
D03*
X6824D02*
D03*
X6835Y6151D02*
D03*
X6944Y6152D02*
D03*
X7103Y6467D02*
D03*
X6504Y5273D02*
D03*
Y5504D02*
D03*
Y5736D02*
D03*
X6724D02*
D03*
Y5273D02*
D03*
X6944D02*
D03*
Y5504D02*
D03*
Y5736D02*
D03*
X6724Y5504D02*
D03*
X7370Y5494D02*
D03*
X7362Y4946D02*
D03*
X7274Y4867D02*
D03*
X7198D02*
D03*
X7108Y4863D02*
D03*
X7616Y5422D02*
D03*
X7172Y5603D02*
D03*
Y5526D02*
D03*
X7235Y5666D02*
D03*
X7333Y5669D02*
D03*
X7869Y5706D02*
D03*
X7861Y5205D02*
D03*
X6543Y7045D02*
D03*
X6210Y7422D02*
D03*
X6528Y7808D02*
D03*
X6204Y8188D02*
D03*
X4188Y9908D02*
D03*
X4013Y10295D02*
D03*
X3932Y9971D02*
D03*
X4915Y10122D02*
D03*
X5131Y6247D02*
D03*
X5042Y5436D02*
D03*
Y5332D02*
D03*
Y5235D02*
D03*
X5143Y5436D02*
D03*
Y5332D02*
D03*
Y5235D02*
D03*
X6350Y4877D02*
D03*
X5817Y5353D02*
D03*
X9208Y8881D02*
D03*
X8954Y9251D02*
D03*
X9208Y9557D02*
D03*
X8954Y9928D02*
D03*
X8283Y8014D02*
D03*
X8283Y8395D02*
D03*
X8283Y7252D02*
D03*
X1820Y9960D02*
D03*
X577Y8687D02*
D03*
X330Y7823D02*
D03*
X1054Y8924D02*
D03*
X101Y8153D02*
D03*
Y7379D02*
D03*
X4292Y13983D02*
D03*
X5964Y9043D02*
D03*
X5067Y8865D02*
D03*
X5155Y12471D02*
D03*
X5537Y7866D02*
D03*
X7402Y13078D02*
D03*
X8610Y9550D02*
D03*
X9537Y11358D02*
D03*
Y11255D02*
D03*
Y11151D02*
D03*
Y11047D02*
D03*
X8966Y11532D02*
D03*
X8979Y11717D02*
D03*
X8701Y10520D02*
D03*
X3422Y13820D02*
D03*
X3810Y14217D02*
D03*
X4457Y13716D02*
D03*
X5715Y12738D02*
D03*
Y12827D02*
D03*
X5616Y12738D02*
D03*
X5524D02*
D03*
Y12827D02*
D03*
X5617Y12826D02*
D03*
X1046Y13288D02*
D03*
X757Y13288D02*
D03*
X4457Y13813D02*
D03*
X5571Y13886D02*
D03*
X4521Y13094D02*
D03*
X1329Y13288D02*
D03*
X4203Y13995D02*
D03*
X7556Y12548D02*
D03*
X4379Y13666D02*
D03*
X4077Y13297D02*
D03*
X6204Y13093D02*
D03*
X8953Y9557D02*
D03*
X8954Y9145D02*
D03*
X5448Y14186D02*
D03*
X4661Y13856D02*
D03*
X4889Y14010D02*
D03*
X4748Y13610D02*
D03*
X2400Y13039D02*
D03*
X3899Y13398D02*
D03*
X4051Y13411D02*
D03*
X7247Y13289D02*
D03*
Y13398D02*
D03*
X7150Y13398D02*
D03*
X6526Y13218D02*
D03*
X7747Y13805D02*
D03*
X7391Y13691D02*
D03*
X7402Y13273D02*
D03*
Y13180D02*
D03*
X7247Y13159D02*
D03*
X6528Y13322D02*
D03*
Y13411D02*
D03*
X6426D02*
D03*
X9208Y9928D02*
D03*
Y9251D02*
D03*
X8909Y10536D02*
D03*
X8708Y11519D02*
D03*
Y11717D02*
D03*
X8179Y11659D02*
D03*
Y11354D02*
D03*
Y11204D02*
D03*
Y11043D02*
D03*
X8177Y10552D02*
D03*
X8179Y11506D02*
D03*
Y10719D02*
D03*
X8724Y12471D02*
D03*
X7734Y12278D02*
D03*
X8433Y10516D02*
D03*
X4191Y9258D02*
D03*
X4305Y9182D02*
D03*
X4399D02*
D03*
X4496D02*
D03*
X3331Y14186D02*
D03*
X2654Y12878D02*
D03*
X2651Y12784D02*
D03*
Y12700D02*
D03*
X2654Y12598D02*
D03*
X1713Y13046D02*
D03*
X1928Y13044D02*
D03*
X2146Y13042D02*
D03*
X3422Y13510D02*
D03*
X4235Y14224D02*
D03*
X4009Y14313D02*
D03*
X4570Y13398D02*
D03*
X8866Y10820D02*
D03*
X8610Y12167D02*
D03*
X7734Y12179D02*
D03*
X8852Y12768D02*
D03*
X7607Y12763D02*
D03*
X4318Y11213D02*
D03*
X4419Y11214D02*
D03*
X4521D02*
D03*
X4318Y11106D02*
D03*
X4419Y11106D02*
D03*
X4521D02*
D03*
Y10998D02*
D03*
X4089Y12117D02*
D03*
X5905Y8852D02*
D03*
X5550Y8741D02*
D03*
X5054Y9260D02*
D03*
X4724Y6947D02*
D03*
X4863Y10516D02*
D03*
X4838Y10427D02*
D03*
X4842Y10338D02*
D03*
X4665Y13398D02*
D03*
X5004Y13335D02*
D03*
X4813D02*
D03*
X2349Y12021D02*
D03*
Y11913D02*
D03*
Y11812D02*
D03*
X2248D02*
D03*
Y11913D02*
D03*
Y12021D02*
D03*
X2146Y11811D02*
D03*
Y11912D02*
D03*
Y12020D02*
D03*
X308Y10136D02*
D03*
X207Y10243D02*
D03*
X308Y10035D02*
D03*
X207Y10034D02*
D03*
Y10136D02*
D03*
X308Y10244D02*
D03*
X105Y10034D02*
D03*
Y10135D02*
D03*
Y10243D02*
D03*
X2025Y8199D02*
D03*
Y8091D02*
D03*
Y7990D02*
D03*
X2126Y8200D02*
D03*
Y8092D02*
D03*
Y7991D02*
D03*
X2228D02*
D03*
Y8092D02*
D03*
Y8200D02*
D03*
X4407Y6388D02*
D03*
X4503D02*
D03*
X4607D02*
D03*
Y6490D02*
D03*
X4503D02*
D03*
X4407D02*
D03*
X4673Y5554D02*
D03*
X4379Y13537D02*
D03*
X3962Y12751D02*
D03*
X4076D02*
D03*
X7836Y13538D02*
D03*
X7749Y14084D02*
D03*
X7391Y14021D02*
D03*
X6680Y13056D02*
D03*
X5918Y12992D02*
D03*
X2794Y14186D02*
D03*
X2477Y12331D02*
D03*
X2579Y12332D02*
D03*
X2680D02*
D03*
X2477Y11493D02*
D03*
X2579Y11493D02*
D03*
X2680D02*
D03*
X3458Y12239D02*
D03*
X3715Y11840D02*
D03*
X3862Y11736D02*
D03*
X4089Y12018D02*
D03*
X4153Y11455D02*
D03*
X4280D02*
D03*
X4140Y10693D02*
D03*
X4260D02*
D03*
X4375D02*
D03*
X2044Y10232D02*
D03*
X1416Y10462D02*
D03*
X1674Y10064D02*
D03*
X2112Y9679D02*
D03*
X2239D02*
D03*
X2099Y8917D02*
D03*
X2219D02*
D03*
X436Y9716D02*
D03*
X538Y9717D02*
D03*
X639D02*
D03*
X4254Y6872D02*
D03*
X4139D02*
D03*
X4019D02*
D03*
X4158Y7634D02*
D03*
X4031D02*
D03*
X3594Y8019D02*
D03*
X3314Y8418D02*
D03*
X3949Y8190D02*
D03*
X2356Y7672D02*
D03*
X2457Y7673D02*
D03*
X2559D02*
D03*
X2356Y8510D02*
D03*
X2457Y8511D02*
D03*
X2559D02*
D03*
X5131Y6133D02*
D03*
X4267Y6388D02*
D03*
X4178D02*
D03*
X4743D02*
D03*
X4824D02*
D03*
X5057Y5025D02*
D03*
Y5105D02*
D03*
X5055Y5672D02*
D03*
Y5583D02*
D03*
X467Y8903D02*
D03*
X217Y8649D02*
D03*
X1575Y8560D02*
D03*
X1587Y7264D02*
D03*
X112Y7595D02*
D03*
X76Y7277D02*
D03*
X3596Y9451D02*
D03*
X3596Y9647D02*
D03*
X3350Y9710D02*
D03*
X3345Y9906D02*
D03*
X3595Y9971D02*
D03*
X3932Y9841D02*
D03*
X3911Y9614D02*
D03*
Y9409D02*
D03*
X5562Y8268D02*
D03*
X5886Y8344D02*
D03*
X5550Y8903D02*
D03*
X5554Y8585D02*
D03*
X5871Y8666D02*
D03*
X4737Y8788D02*
D03*
X5066Y8547D02*
D03*
X4737Y8230D02*
D03*
X5880Y7464D02*
D03*
X5562Y7226D02*
D03*
X5057Y7026D02*
D03*
X6528Y7422D02*
D03*
X6197Y7810D02*
D03*
Y7048D02*
D03*
X6528Y8188D02*
D03*
X7823Y9747D02*
D03*
Y9253D02*
D03*
X9957Y9539D02*
D03*
Y9438D02*
D03*
Y8930D02*
D03*
X8966Y10820D02*
D03*
X7213Y11582D02*
D03*
Y11412D02*
D03*
Y11227D02*
D03*
Y10820D02*
D03*
Y10668D02*
D03*
Y10516D02*
D03*
X8725Y12167D02*
D03*
X8495Y12076D02*
D03*
X7734D02*
D03*
X7442Y12548D02*
D03*
X8852Y12666D02*
D03*
X9004Y12560D02*
D03*
Y12433D02*
D03*
Y12314D02*
D03*
Y12167D02*
D03*
X9312Y11934D02*
D03*
X9811Y13264D02*
D03*
X9957Y10050D02*
D03*
X4292Y13424D02*
D03*
X3764Y13595D02*
D03*
X3626Y12980D02*
D03*
X4718Y10643D02*
D03*
X4915Y10262D02*
D03*
X4863Y10643D02*
D03*
X3991Y9133D02*
D03*
X6134Y4981D02*
D03*
X6172Y4610D02*
D03*
X6867Y4870D02*
D03*
X5818Y5474D02*
D03*
X6175Y5493D02*
D03*
X5822Y5118D02*
D03*
X6477Y4059D02*
D03*
X6945D02*
D03*
X7410Y3838D02*
D03*
X6010Y3836D02*
D03*
X7362Y4470D02*
D03*
X5562Y7391D02*
D03*
X5878Y7315D02*
D03*
X2044Y10325D02*
D03*
X2378Y9438D02*
D03*
X2480D02*
D03*
X2277Y9329D02*
D03*
X2480Y9330D02*
D03*
X2277Y9437D02*
D03*
X4400Y7177D02*
D03*
Y7285D02*
D03*
X4298D02*
D03*
X4196Y7285D02*
D03*
X4400Y7393D02*
D03*
X4298D02*
D03*
X4196Y7392D02*
D03*
X3949Y8296D02*
D03*
X1054Y8814D02*
D03*
X1727Y7810D02*
D03*
X3345Y9256D02*
D03*
X3596Y9321D02*
D03*
X3911Y9516D02*
D03*
X6286Y4610D02*
D03*
X6995Y4873D02*
D03*
X5816Y5245D02*
D03*
X6083Y5283D02*
D03*
X5918Y4166D02*
D03*
X7226Y4059D02*
D03*
X7316Y3837D02*
D03*
X6104Y3836D02*
D03*
X639Y10555D02*
D03*
X538D02*
D03*
X436Y10554D02*
D03*
M02*
